<svg xmlns="http://www.w3.org/2000/svg" xml:space="preserve" viewBox="0 0 53.6 61.4">
  <path fill="#292929" d="M15.8 16.1v-4.8c0-1.5.2-3 .8-4.4 2.2-5.6 8.6-8.4 14.2-6.2 4.2 1.7 7 5.7 7 10.3v5.1H47c1.3 0 1.5.2 1.7 1.5.7 5.1 1.3 10.1 1.9 15.2.7 5.4 1.4 10.9 2.1 16.3.3 2.5.7 5 .9 7.5.2 2.4-1.6 4.6-4 4.8h-45c-2.1.1-3.9-1.3-4.5-3.3-.2-.9-.2-1.8 0-2.7 1.1-9.3 2.3-18.5 3.5-27.8.4-3.4.9-6.8 1.3-10.2.1-1.1.5-1.3 1.6-1.3h9.3m0 2.4H7.1c0 .1-.1.3-.1.5-.5 4.1-1 8.2-1.6 12.2-1 8.3-2.1 16.5-3.1 24.8-.3 2.1.5 3 2.6 3h44c1.2.1 2.2-.8 2.3-2v-.5c-.6-4.5-1.1-8.9-1.7-13.4-.9-6.8-1.7-13.5-2.6-20.3-.2-1.5-.4-2.9-.6-4.4h-8.7v6.4c0 1-.4 1.5-1.2 1.5-.7 0-1.1-.5-1.1-1.5v-6.4H18v6.5c0 .8-.4 1.3-1.1 1.3-.7 0-1.2-.5-1.2-1.3v-1.8c.1-1.4.1-3 .1-4.6m19.7-2.4c0-1.8.1-3.6 0-5.4-.2-4.8-4.2-8.6-9-8.4-3.5.1-6.5 2.2-7.8 5.4-1.1 2.7-.5 5.5-.7 8.4h17.5z"/>
</svg>