<svg xmlns="http://www.w3.org/2000/svg" xml:space="preserve" viewBox="0 0 71.8 66.2">
  <path fill="none" stroke="#252525" stroke-miterlimit="10" stroke-width="2" d="M3.7 33c3.4-2.5 8.4-2.8 11.6 1 1.5 1.8 2.9 2 4.8.5 7.2-5.4 14.4-10.9 21.5-16.3 2.8-2.1.9-3.8 0-6.2-1-2.7-.7-5.7.9-8.1C44.8.8 49-.5 52.7.9c1.9.7 3.4 2.3 4.1 4.2.2 1.6.2 3.2-.2 4.8-.4 2.2-1.8 5.5-.3 7.6 1.4 1.9 4.2 1.6 6.3 1.7 2.5.2 5.1.7 7 2.6 2.1 2.4 2.5 5.9 1.1 8.7-1.3 2.4-3.6 4.1-6.4 4.6-2.6.3-5.1-.5-7.1-2.2-1.7-1.3-3-3-5.2-1.4-7.3 5.6-14.7 11.1-22 16.7-2.8 2.1-.3 4.2.4 6.6.9 2.8.3 5.8-1.4 8-2.7 3.2-7.3 4-11 1.9-1.3-.7-2.3-1.9-2.8-3.2-.3-1.1-.4-2.2-.3-3.3.2-4.1 3.2-9.2-1.9-10.8-3.1-1-7.8-.2-10.4-2.3-1.4-1.2-2.2-3-2.4-4.8-.1-2.9 1.2-5.6 3.5-7.3z"/>
</svg>