<svg xmlns="http://www.w3.org/2000/svg" xml:space="preserve" viewBox="0 0 87.6 57.2">
  <path fill="#292929" d="M44.6 38.8v3.6c4.7 1.3 7.2 4.5 6.6 8.3-.5 4.1-4.2 6.9-8.2 6.5-3.4-.4-6-3.1-6.5-6.5-.5-4 1.9-7.1 6.6-8.3v-3.8h-3.6c-11.8-.4-23.5-2.4-34.7-5.8-3-.8-5-3.5-4.8-6.5V13.6c0-2 1.1-3.9 2.7-5.1 2.3-1.7 4.8-3 7.5-3.9C15.8 2.7 21.7 1.5 27.6.9 35.1 0 42.8-.2 50.4.2c9 .4 17.9 1.4 26.5 4.3 2.8.9 5.4 2.2 7.8 3.9 2 1.4 3.1 3.7 2.9 6.1-.1 3.9 0 7.9 0 11.8.2 3.1-1.9 5.8-4.8 6.5-10.1 3.1-20.6 5-31.2 5.6-2.3.2-4.7.3-7 .4m41.6-25c0-1.7-.9-3.4-2.3-4.3-2.1-1.6-4.4-2.8-6.9-3.6-7.8-2.7-16-3.8-24.2-4.2-9.1-.6-18.2-.3-27.3.9-5.6.6-11 1.9-16.2 3.8-2.5.8-4.8 2.2-6.6 4.1C1 12.3 1 14.3 2.7 16c1.1 1 2.2 1.8 3.5 2.6.4.2.9.2 1.3 0 1.9-.7 3.8-1.5 5.7-2.2 6.8-2.2 13.9-3.5 21-4 7.6-.6 15.2-.4 22.7.5 8 .9 15.8 2.9 23.3 5.9.3.1.6.1.9 0 1.4-.9 2.8-2 4.1-3.1.4-.5.7-1.2 1-1.9m-.1 3c-2.5 2.4-5.6 4.2-8.9 5.2-6.8 2.2-13.9 3.6-21.1 4-11.6 1-23.2.6-34.7-1.3C14.3 23.4 7.2 22 1.5 17c0 .1-.1.2-.1.3V27c0 2.1 1.5 3.9 3.5 4.4C16.8 35 29 37 41.4 37.3c8.9.2 17.9-.6 26.6-2.4 4.9-1 9.7-2.3 14.5-3.5 1.9-.3 3.4-2 3.5-3.9.3-3.5.1-7 .1-10.7m-7.4 3.3v-.4c-15.6-5.8-31.6-7.3-48.1-5.5-7.6.7-15.1 2.5-22.1 5.5.3.2.7.3 1 .4 3.2.9 6.3 2 9.6 2.7 6.5 1.3 13.1 2.1 19.7 2.2 10.8.3 21.6-.2 32.2-2.7 2.6-.6 5.1-1.5 7.7-2.2M43.8 55.8c3.3 0 6-2.6 6-5.9 0-3.3-2.6-6-5.9-6-3.3 0-6 2.6-6 5.9-.1 3.3 2.5 6 5.9 6-.1 0-.1 0 0 0"/>
  <path fill="#292929" d="M43.8 34.8c-1.7 0-3.1-1.4-3-3.1 0-1.7 1.4-3.1 3.1-3 1.7 0 3 1.4 3 3.1 0 1.6-1.4 3-3.1 3m1.7-3c0-.9-.7-1.7-1.6-1.7-.9 0-1.7.7-1.7 1.6 0 .9.7 1.7 1.6 1.7.8 0 1.6-.7 1.7-1.6m8.3 0c0-1.7 1.4-3.1 3.1-3.1 1.7 0 3.1 1.4 3.1 3.1 0 1.7-1.4 3.1-3.1 3.1-1.8-.1-3.1-1.5-3.1-3.1m4.7 0c0-.9-.6-1.7-1.5-1.7-1 0-1.8.7-1.8 1.7 0 .9.7 1.7 1.7 1.7.8-.1 1.6-.8 1.6-1.7m-24.6 0c0 1.7-1.4 3.1-3.1 3.1-1.7 0-3.1-1.4-3.1-3.1v-.1c0-1.7 1.4-3 3.1-3 1.7-.1 3.1 1.3 3.1 3.1 0-.1 0 0 0 0m-1.4-.1c0-.9-.7-1.6-1.6-1.7-1 0-1.8.8-1.8 1.7 0 .9.8 1.7 1.8 1.6.9.1 1.6-.7 1.6-1.6"/>
</svg>