<svg xmlns="http://www.w3.org/2000/svg" width="24.442" height="40.059"><path fill="#707070" d="M3.908 13.672a.41.41 0 0 0-.417.427v.064a7.315 7.315 0 0 0 2.25 5.09 7.485 7.485 0 0 0 5.3 2.081 7.644 7.644 0 0 0 5.564-12.739 23.846 23.846 0 0 0 6.049-6.135 35 35 0 0 0 .442 4.243c.015.061.2.108.434.108s.42-.047.434-.108v-.016A35.169 35.169 0 0 0 24.438.92a.91.91 0 0 0-.9-.92 35.068 35.068 0 0 0-5.782.491c-.061 0-.108.194-.108.422s.047.415.108.422h.015a35.362 35.362 0 0 0 4.231.447 23.805 23.805 0 0 0-6.135 6.057 7.583 7.583 0 0 0-4.893-1.816 7.5 7.5 0 0 0-5.276 2.13 7.288 7.288 0 0 0-2.209 5.1.4.4 0 0 0 .417.417.434.434 0 0 0 .442-.368v-.059a6.422 6.422 0 0 1 2.258-4.194 6.243 6.243 0 0 1 4.388-1.45 6.079 6.079 0 0 1-.059 12.143 6.258 6.258 0 0 1-4.371-1.492 6.4 6.4 0 0 1-2.209-4.211.452.452 0 0 0-.449-.368Zm18.737-11.87v.2c-.032-.037-.054-.071-.093-.11s-.076-.064-.113-.1Z" data-name="Path 1"/><text fill="#707070" font-family="LigurinoRg-Regular, Ligurino" font-size="11" transform="translate(12 38.059)"><tspan x="-11.836" y="0">Male</tspan></text></svg>