<svg xmlns="http://www.w3.org/2000/svg" xml:space="preserve" viewBox="0 0 224.8 314">
  <path fill="none" stroke="#e71019" stroke-miterlimit="9.9987" stroke-width=".9999" d="M55.3 62.2c2.7 1.6 5.3 3.4 7.7 5.4 5.5 4.4 12.7 10.1 10.1 18-.5 1.6-1.3 3-2.4 4.2-3 3.1-8.3 4.7-12.2 6.4-4.9 2.1-9.9 4-15 5.6-3.6 1.2-7.1 1.6-10.2-1-2.1-1.9-3.6-4.4-4.2-7.2-1.7-6.9.6-13.1 2.8-19.6 1-3.2 2.4-6.3 4-9.2 1.5-2.5 3.2-5.4 6.2-6.4 1.9-.5 3.8-.4 5.6.3 2.6 1 5.1 2.1 7.6 3.5zm18.6-10.7c.5 2 .5 4.1-.1 6.1-1.5 3.7-5.7 5.4-9.3 3.9-.4-.1-.7-.3-1-.5-2.1-1.4-3.3-3.9-4.2-6.4-1.7-4.7-2.4-10.2 1.1-14.3.7-.9 1.7-1.6 2.8-2 1.6-.3 3.3.2 4.5 1.3 3.2 2.8 5.4 7.7 6.3 11.8l-.1.1zm-24-19.2c2.5 3.7 5.2 11.8 2.2 16-.7.9-1.6 1.5-2.7 1.9-2.3.9-4.8.9-7-.2-2.4-1.3-3.7-3.9-4.6-6.5-.9-2.6-1.2-5.3-1-8 .3-3 1.7-7 4.9-7.9 3-.8 6 1.7 7.7 3.9.1.3.3.6.5.8zM33.1 42.9c.9 2.5 1.4 5.2 1.3 8 0 1.6-.4 3.2-1.1 4.6-1.1 1.9-3 3.1-5.2 3.3-2.2.2-4.3-.7-5.7-2.3-1.9-2.2-2.3-5.2-2.7-8-.4-2.2-.6-4.4-.3-6.5.5-2.8 3.2-6.4 6.4-5.8 3.7.4 6 3.3 7.3 6.7zm-9.3 30.9c-.1.8-.4 1.7-.8 2.4-.8 1.1-2 1.9-3.3 2.2-1.4.5-3 .5-4.4.1-2.6-.9-4.6-3-5.5-5.5-1.8-4.2-2.4-10.1-.3-14.3.8-1.7 2.5-3.3 4.4-2.9 1 .3 1.8.8 2.5 1.6C19 60 21 63 22.3 66.5c.7 1.8 1.7 4.8 1.5 7.3z"/>
  <path fill="none" stroke="#e71019" stroke-linecap="round" stroke-miterlimit="9.9987" stroke-width=".9999" d="m53.4 64.3-4.2-2.1m2.2 3.6-10.1-6.1m7.5 7.8-10-6.4m8.1 9.1-5.2-3.7m-1.5-1.4-2.9-2.2m8.2 10-9.4-7.1m5.7 8.6-7-5.7m6.2 9.6-7.7-6.5m-.9 3.1 12.1 10.4m-12.6-7.5 6.2 5.4m-7.3-1.9 7.8 6.7m-8.4-3.5 7.7 7M29.7 89l9.8 8.3m22.1-56.9 3.8 2.7M59.3 42l6.6 4.6m-2.1 1.3-3.3-2.1m4.2 5.7-6.6-4m6.4 6.5-4.9-2.7m.3 3.3 3.3 1.5M41.1 27.8l3.4 3.7m-4.2-2.1 5 5.6m-6.4-2.9 3.4 3.3m-4.4-1.6 1.7 1.9m1.4 1.1 1.7 1.5m-5-1.1 5.1 4.4m-3.9.3 4.9 3.3M23.5 37l3.7 3.1m-5.1-1.9 5.8 5.3m-8.2-3.4 5.1 3.8m-4.4.5 5.8 4m-5.5-.7 3.9 2.2m-3.3 1.2 3.9 2.3m-14 4 3.4 2.8m-4.5-1 4.8 4m-5.9-2 5.8 5m-6.7-2.5 6.6 5.4m-5.8-1.2 2.1 1.4m-1.1 2.2 4.6 2.7"/>
  <path fill="none" stroke="#e71019" stroke-miterlimit="9.9987" stroke-width=".9999" d="M102.2 200c2.7 1.6 5.3 3.4 7.7 5.4 5.5 4.4 12.7 10.1 10.1 18-.5 1.6-1.3 3-2.4 4.2-3 3.1-8.3 4.7-12.2 6.4-4.9 2.1-9.9 4-15 5.6-3.6 1.2-7.1 1.6-10.2-1-2.1-1.9-3.6-4.4-4.2-7.2-1.7-6.9.6-13.1 2.8-19.6 1-3.2 2.4-6.3 4-9.2 1.5-2.5 3.2-5.4 6.2-6.4 1.9-.5 3.8-.4 5.6.3 2.7.9 5.2 2.1 7.6 3.5zm18.7-10.7c.5 2 .5 4.1-.1 6.1-1.5 3.7-5.7 5.4-9.3 3.9-.4-.1-.7-.3-1-.5-2.1-1.4-3.3-3.9-4.2-6.4-1.7-4.7-2.4-10.2 1.1-14.3.7-.9 1.7-1.6 2.8-2 1.6-.3 3.3.2 4.5 1.3 3.2 2.8 5.4 7.7 6.3 11.8l-.1.1zm-24.1-19.2c2.5 3.7 5.2 11.8 2.2 16-.7.9-1.6 1.5-2.7 1.9-2.3.9-4.8.9-7.1-.2-2.4-1.3-3.7-3.9-4.6-6.5-.9-2.6-1.2-5.3-1-8 .3-3 1.7-7 4.9-7.9 3-.8 6 1.7 7.7 3.9.3.3.4.5.6.8zm-16.7 10.5c.9 2.5 1.4 5.2 1.3 8 0 1.6-.4 3.2-1.1 4.6-1.1 1.9-3 3.1-5.2 3.3-2.2.2-4.3-.7-5.7-2.3-1.9-2.2-2.3-5.2-2.7-8-.4-2.2-.6-4.4-.3-6.5.5-2.8 3.2-6.4 6.4-5.8 3.6.5 6 3.3 7.3 6.7zm-9.3 31c-.1.8-.4 1.7-.8 2.4-.8 1.1-2 1.9-3.3 2.2-1.4.5-3 .5-4.4.1-2.6-.9-4.6-3-5.5-5.5-1.7-4.2-2.3-10.1-.2-14.3.8-1.7 2.5-3.3 4.4-2.9 1 .3 1.8.8 2.5 1.6 2.6 2.6 4.6 5.6 5.9 9.1.6 1.8 1.6 4.8 1.4 7.3z"/>
  <path fill="none" stroke="#e71019" stroke-linecap="round" stroke-miterlimit="9.9987" stroke-width=".9999" d="m100.3 202.1-4.2-2.2m2.2 3.7-10-6.1m7.5 7.8-10-6.5m8 9.2-5.1-3.7m-1.5-1.4-2.9-2.2m8.2 10-9.5-7.2m5.7 8.6-6.9-5.7m6.1 9.6-7.6-6.5m-.9 3.2 12.1 10.4m-12.7-7.6 6.3 5.5m-7.3-1.9 7.8 6.6m-8.5-3.4 7.7 7m-8.1-2.6 9.8 8.4m22.1-57 3.8 2.8m-6.1-1.2 6.6 4.6m-2.1 1.4-3.3-2.1m4.2 5.6-6.7-4m6.5 6.5-4.9-2.7m.2 3.3 3.3 1.6M88 165.5l3.5 3.7m-4.2-2 4.9 5.5m-6.3-2.8 3.4 3.2m-4.4-1.5 1.6 1.9m1.5 1 1.7 1.5m-5.1-1.1 5.2 4.4m-4 .4 5 3.2m-20.4-8.1 3.8 3.1M69 176l5.9 5.2m-8.2-3.4 5 3.8m-4.3.6 5.8 4m-5.5-.7 3.8 2.2m-3.2 1.2 3.9 2.3m-14.1 3.9 3.5 2.8M57 197l4.9 4m-5.9-2 5.8 5m-6.7-2.6 6.5 5.5m-5.8-1.2 2.2 1.4m-1.1 2.2 4.6 2.6"/>
  <path fill="none" stroke="#e71019" stroke-miterlimit="9.9987" stroke-width=".9999" d="M120.1 114c-1.8 2.6-3.4 5.2-4.9 8-3.3 6.2-7.5 14.4-1.9 20.5 1.1 1.2 2.4 2.2 3.9 2.9 3.9 1.6 9.5.9 13.7.9 5.3-.1 10.7-.4 16-1 3.8-.4 7.1-1.4 8.9-5.1 1.2-2.6 1.5-5.5.9-8.3-1.3-7-5.8-11.7-10.5-16.7-2.2-2.5-4.7-4.8-7.4-6.8-2.4-1.7-5.2-3.6-8.2-3.3-1.9.3-3.6 1.2-5 2.6-2.1 1.9-3.9 4-5.5 6.3zm-21.5-2.2c.3 2 1.2 4 2.6 5.5 2.9 2.7 7.4 2.6 10.1-.3.3-.3.5-.6.7-.9 1.4-2.2 1.4-4.9 1.2-7.5-.4-5-2-10.3-6.8-12.6-1-.6-2.2-.8-3.4-.7-1.6.4-2.9 1.5-3.5 3-1.8 3.8-1.8 9.2-.9 13.3v.2zm14.2-27.4c-.8 4.4.1 12.9 4.5 15.5 1 .5 2.1.7 3.3.6 2.4-.1 4.8-1.2 6.4-3 1.7-2.1 1.8-5.1 1.5-7.8-.2-2.7-1-5.3-2.3-7.7-1.5-2.6-4.4-5.7-7.7-5.2-3.1.5-4.8 4-5.5 6.7-.1.3-.1.6-.2.9zm19.6 2.8c.2 2.7.9 5.3 2.1 7.8.6 1.5 1.6 2.7 2.9 3.7 1.8 1.2 4 1.6 6.1.9 2-.7 3.6-2.4 4.3-4.4.9-2.7 0-5.7-.8-8.4-.5-2.1-1.3-4.2-2.4-6.1-1.6-2.4-5.5-4.5-8.2-2.7-3.2 2.1-4.2 5.6-4 9.2zm21.1 24.5c.4.7 1 1.4 1.7 1.8 1.2.6 2.6.9 3.9.7 1.5-.2 2.9-.8 4.1-1.7 2-1.9 3-4.6 2.8-7.3-.2-4.5-2-10.2-5.6-13.1-1.5-1.2-3.6-2-5.2-.9-.8.6-1.4 1.5-1.7 2.4-1.3 3.4-1.9 7-1.7 10.7.2 2.1.5 5.3 1.7 7.4z"/>
  <path fill="none" stroke="#e71019" stroke-linecap="round" stroke-miterlimit="9.9987" stroke-width=".9999" d="m122.6 115.1 3-3.7m-.5 4.3 6.7-9.7m-3.7 10.1 6.5-9.9m-3.6 11.6 3.2-5.5m.8-1.8 1.7-3.2m-3.4 12.5 5.7-10.4m-1.7 10.1 4.1-8m-1.8 11.3 4.4-9m2.1 2.4-6.8 14.5m8.5-12.1-3.5 7.6m5.9-4.8-4.4 9.3m6.2-6.6-4.2 9.5m6.5-5.6-5.6 11.6m-43.4-43-2.3 4m5.1-3.5-4.2 6.9m2.5.4 2.2-3.3M107 108l4.5-6.4m-3.3 8.6 3.4-4.5m1.1 3.1-2.3 2.8m8.6-34.9-1.6 4.8m2.9-3.6-2.2 7.1m4.7-5.2-1.9 4.4m3.4-3.2-.7 2.4m-.9 1.5-.9 2.1m4.1-3.1L123 90m3.8-1.3-3.2 5M138.9 78l-2.2 4.3m3.9-3.8-3.2 7.2m6.1-6.4-3.1 5.5m4.3-1.3-3.8 6m4.8-2.8-2.6 3.5m3.4-.2-2.6 3.7m14.5-2.1-2.1 3.9m3.8-2.7-2.8 5.6m4.6-4.2-3.3 6.9m5.1-5-3.8 7.6m4.9-3.4-1.4 2.2m1.8 1.5-3 4.3"/>
  <path fill="none" stroke="#e71019" stroke-miterlimit="9.9987" stroke-width=".9999" d="M169.6 251.9c-1.8 2.6-3.4 5.2-4.9 8-3.3 6.2-7.5 14.4-1.9 20.5 1.1 1.2 2.4 2.2 3.9 2.9 3.9 1.6 9.5.9 13.7.9 5.3-.1 10.7-.4 16-1 3.8-.4 7.1-1.4 8.9-5.1 1.2-2.6 1.5-5.5.9-8.3-1.3-7-5.8-11.7-10.5-16.7-2.2-2.5-4.7-4.8-7.4-6.8-2.4-1.7-5.2-3.6-8.2-3.3-1.9.3-3.6 1.2-5 2.6-2 2-3.9 4.1-5.5 6.3zm-21.5-2.2c.3 2 1.2 4 2.6 5.5 2.9 2.7 7.4 2.6 10.1-.3.3-.3.5-.6.7-.9 1.4-2.2 1.4-4.9 1.2-7.5-.4-5-2-10.3-6.8-12.6-1-.6-2.2-.8-3.4-.7-1.6.4-2.9 1.5-3.5 3-1.8 3.8-1.8 9.2-.9 13.3v.2zm14.2-27.3c-.8 4.4.1 12.9 4.5 15.5 1 .5 2.1.7 3.3.6 2.4-.1 4.8-1.2 6.4-3 1.7-2.1 1.8-5.1 1.5-7.8-.2-2.7-1-5.3-2.3-7.7-1.5-2.6-4.4-5.7-7.7-5.2-3.1.5-4.8 4-5.5 6.7 0 .3-.1.6-.2.9zm19.6 2.8c.2 2.7.9 5.3 2.1 7.8.6 1.5 1.6 2.7 2.9 3.7 1.8 1.2 4 1.6 6.1.9 2-.7 3.6-2.4 4.3-4.4.9-2.7 0-5.7-.8-8.4-.5-2.1-1.3-4.2-2.4-6.1-1.6-2.4-5.5-4.5-8.2-2.7-3.2 2-4.2 5.6-4 9.2zm21.1 24.5c.4.7 1 1.4 1.7 1.8 1.2.6 2.6.9 3.9.7 1.5-.2 2.9-.8 4.1-1.7 2-1.9 3-4.6 2.8-7.3-.2-4.5-2-10.2-5.6-13.1-1.5-1.2-3.6-2-5.2-.9-.8.6-1.4 1.5-1.7 2.4-1.3 3.4-1.9 7-1.7 10.7.2 2.1.5 5.2 1.7 7.4z"/>
  <path fill="none" stroke="#e71019" stroke-linecap="round" stroke-miterlimit="9.9987" stroke-width=".9999" d="m172.2 253.1 2.9-3.7m-.5 4.2 6.7-9.6m-3.7 10.1 6.5-9.9m-3.6 11.6 3.2-5.5m.8-1.8 1.7-3.2m-3.4 12.4 5.8-10.4m-1.8 10.2 4.1-8m-1.7 11.3 4.3-9.1m2.1 2.5-6.8 14.5m8.5-12.1-3.5 7.5m5.9-4.7-4.4 9.2m6.2-6.5-4.1 9.5m6.4-5.6-5.6 11.6m-43.3-43.1-2.4 4.1m5.1-3.5-4.2 6.8m2.6.4 2.1-3.2m-1.6 6.9 4.5-6.4m-3.2 8.5 3.3-4.4m1.1 3.1-2.3 2.8m8.6-34.9-1.6 4.8m3-3.6-2.3 7.1m4.7-5.2-1.9 4.3m3.4-3.2-.7 2.4m-.9 1.6-.9 2m4.1-3-2.9 6.1m3.8-1.3-3.2 5m15.3-15.7-2.2 4.3m3.9-3.8-3.2 7.2m6.1-6.5-3.1 5.6m4.3-1.3-3.7 6m4.7-2.9-2.6 3.6m3.4-.2-2.5 3.6m14.4-2-2.1 3.9m3.8-2.7-2.8 5.6m4.6-4.2-3.2 6.9m5-5.1-3.7 7.7m4.8-3.5-1.4 2.2m1.9 1.6-3.1 4.2"/>
</svg>