<svg xmlns="http://www.w3.org/2000/svg" xml:space="preserve" viewBox="0 0 143 137">
  <path fill="#E71019" d="M74.3 31c6.7.1 12.8 1.8 17.9 6.5 5.8 5.4 7.5 14.1 4.2 20.8-1.5 2.9-3.6 5.4-6.1 7.5-2 1.8-3.9 3.7-6 5.5-2.4 2.1-4 5-4.4 8.2-.3 3.2-2.9 5.8-6.1 6-3.2.6-6.4-1-7.8-4-1.2-2.7-.9-5.5-.4-8.3.9-5 4.1-8.6 7.7-11.8 1.6-1.4 3.2-2.9 4.7-4.3.6-.6 1.2-1.1 1.7-1.7 1.8-2 2.6-4.2 1.5-6.7-1-2.4-3.2-3.9-5.8-4-1.6-.1-3.2.1-4.8.4-1.8.5-3.2 1.8-3.9 3.5-.8 1.8-1.6 3.6-2.3 5.4-1.3 3.4-3.8 5.5-7.1 5.6-3.4.1-6.5-1.9-7.8-5-.8-2.1-.8-4.4 0-6.5 2.2-7.9 7.6-12.8 15.1-15.5 3.2-1.2 6.4-1.7 9.7-1.6m-1.4 1.6c-2.4.3-4.8.7-7.1 1.4-7 2.2-12.1 6.6-14.4 13.8-.7 1.7-.9 3.6-.5 5.4.7 2.6 2.9 4.4 5.6 4.7 2.8.3 5.3-1.4 6.2-4 .6-1.5 1.1-3.1 1.8-4.6.9-2 2-4.1 4.2-5.1 3.1-1.6 6.8-1.7 10-.3 3.9 1.6 5.7 6.1 4.1 10-.3.6-.6 1.2-1 1.7-1.1 1.3-2.2 2.6-3.5 3.7-2.4 2.3-5 4.5-7.2 7-3.3 3.5-4.8 8.4-4 13.1.4 2.7 2.7 4.7 5.4 4.7 2.8.3 5.3-1.7 5.7-4.4.3-1.5.7-2.9 1.1-4.4.8-2.3 2.5-3.8 4.2-5.3 2.4-2.2 4.9-4.4 7.2-6.8 1.7-1.7 3.1-3.7 4.2-5.9 3-6.1 1-14-4.4-18.8-4.6-4.3-10.2-5.7-17.6-5.9M64.5 96c0-4.8 3.9-8.7 8.7-8.7h.1c4.8 0 8.7 4 8.6 8.8 0 4.8-4 8.7-8.8 8.6-4.8-.1-8.6-4-8.6-8.7m1.7-.1c-.1 3.8 2.8 6.9 6.6 7.1h.4c3.8.2 7-2.8 7.2-6.6v-.3c0-3.9-3.1-7.1-7-7.2-4-.1-7.2 3.1-7.2 7"/>
  <path fill="#E71019" d="M71.8 34h.3c.6 0 1.3.1 1.3.8 0 .8-.6.9-1.3.9-3.4 0-6.7 1-9.6 2.7-2.9 1.7-5.3 4.2-6.7 7.3-.1.2-.2.5-.4.7-.3.2-.7.4-.9.3-.3-.2-.5-.5-.4-.9.1-.5.3-1.1.6-1.5 3.1-5.8 8.1-8.9 14.5-10 .9-.2 1.8-.2 2.6-.3m2.1 55.9.8.8c-.3.3-.6.7-1 .8-2.2.1-4.2 1.7-4.8 3.8-.1.3-.6.5-1 .8-.2-.4-.6-.9-.5-1.2.8-3 3.5-5 6.5-5"/>
  <circle cx="74.5" cy="68.5" r="59" fill="none" stroke="#E71019" stroke-width="2"/>
</svg>