<svg xmlns="http://www.w3.org/2000/svg" viewBox="0 0 282.077 131.368">
  <g stroke="#e71019" transform="translate(-830.189 -4478.548)">
    <path fill="#e71019" d="m962.349 4504.541-3.167 2.741c-5.548 4.81-11.115 9.591-16.624 14.437a40.471 40.471 0 0 0-7.43 9.059 53.04 53.04 0 0 0-4.2 7.58c-2.932 7-2.807 13.877.927 20.573a27.164 27.164 0 0 0 5.9 6.914 35.412 35.412 0 0 0 11.175 6.869 21.872 21.872 0 0 0 22.072-2.89 27.856 27.856 0 0 0 9.708-12.673c2.506-6.379 4.852-12.82 7.27-19.234a86.263 86.263 0 0 1 6.13-13.334c.068-.117.14-.229.252-.414.108.168.2.293.272.424a31.663 31.663 0 0 1 3.889 11.113 39.038 39.038 0 0 1-2.3 21.387 38.257 38.257 0 0 1-26.088 22.2 36.439 36.439 0 0 1-15.519.479 37.342 37.342 0 0 1-25.9-17.793 36.649 36.649 0 0 1-5.214-23.838 37.7 37.7 0 0 1 38.264-33.632c.146 0 .293.017.579.034m-2.593.995a36.378 36.378 0 0 0-33.108 23.566 37.032 37.032 0 0 0 62.341 37.765c11.912-13.319 10.425-31.728 5.338-40.79-.2.376-.4.728-.583 1.08a119.887 119.887 0 0 0-6.157 14.554c-2 5.4-3.982 10.8-6.14 16.136a28.629 28.629 0 0 1-11.933 14.108 22.2 22.2 0 0 1-12.55 3.422 28.37 28.37 0 0 1-11.27-3.032 38.288 38.288 0 0 1-10.49-7.606 23.989 23.989 0 0 1-5.535-8.125 23.711 23.711 0 0 1 .528-18.939 55.809 55.809 0 0 1 3.855-6.952 43.965 43.965 0 0 1 8.362-10.152q7.644-6.667 15.332-13.294l2.009-1.744"/>
    <path fill="#e71019" d="M957.198 4571.553a23.342 23.342 0 0 1-5.185-.823 26.572 26.572 0 0 1-6.925-3.013 32.742 32.742 0 0 1-8.645-7.292 21 21 0 0 1-5.062-14.2 24.048 24.048 0 0 1 2.249-9.042 45.085 45.085 0 0 1 8.707-12.485c3.607-3.836 7.546-7.307 11.509-10.758 3.106-2.707 6.239-5.391 9.354-8.085a2.1 2.1 0 0 1 1.646-.53 37.022 37.022 0 0 1 27.275 16.313 1.671 1.671 0 0 1 .066 1.937 87.786 87.786 0 0 0-5.932 13.448c-2.079 5.616-4.122 11.246-6.29 16.83a33.086 33.086 0 0 1-4.916 8.815 25.42 25.42 0 0 1-10.3 7.546 18.148 18.148 0 0 1-7.551 1.347m-24.913-24.652a19.89 19.89 0 0 0 4.1 11.946 29.8 29.8 0 0 0 7.572 7.06 25.211 25.211 0 0 0 11.436 4.533 12.252 12.252 0 0 0 2.7.212 30.661 30.661 0 0 0 4.714-.885 21.891 21.891 0 0 0 11.573-7.731 36.356 36.356 0 0 0 5.217-9.681c2.158-5.635 4.2-11.314 6.29-16.972a81.283 81.283 0 0 1 5.546-12.343.691.691 0 0 0-.036-.842c-1.065-1.392-2.058-2.845-3.2-4.169a35.1 35.1 0 0 0-10.839-8.2 34.353 34.353 0 0 0-12.545-3.6 1.331 1.331 0 0 0-1.074.348c-2.96 2.569-5.94 5.113-8.9 7.688a158.284 158.284 0 0 0-12.195 11.42 43.932 43.932 0 0 0-8 11.465 23.155 23.155 0 0 0-2.357 9.751"/>
    <path fill="none" stroke-dasharray="5.091 5.091" stroke-linecap="round" stroke-miterlimit="3.999" stroke-width="2" d="M860.919 4514.551s17.933-67.593 66.266-14.911m143.002 45.454s-18.916 64.97-59.681 17.044"/>
    <ellipse cx="17.823" cy="3.781" fill="none" stroke-dasharray="5 2.037" stroke-linecap="round" rx="17.823" ry="3.781" transform="translate(943.338 4597.035)"/>
    <path fill="none" stroke-dasharray="3.564 3.564" stroke-linecap="round" stroke-width="2" d="M961.7 4592.714c17.9 0 32.406 3.628 32.406 8.1s-14.509 8.1-32.406 8.1-32.406-3.626-32.406-8.1 14.509-8.1 32.406-8.1Z"/>
    <path fill="#e71019" d="m852.01 4578.402 2.194-1.561c3.844-2.739 7.7-5.459 11.52-8.223a26.013 26.013 0 0 0 5.308-5.342 33.954 33.954 0 0 0 3.153-4.6 14.425 14.425 0 0 0 .664-13.221 17.479 17.479 0 0 0-3.35-4.784 22.77 22.77 0 0 0-6.738-5.077 14.959 14.959 0 0 0-7.565-1.685 15 15 0 0 0-6.732 2.189 17.883 17.883 0 0 0-6.988 7.517c-1.994 3.929-3.889 7.907-5.828 11.864a55.491 55.491 0 0 1-4.733 8.157c-.051.072-.1.14-.187.25-.059-.112-.108-.2-.149-.289a20.313 20.313 0 0 1-1.81-7.349 25.093 25.093 0 0 1 2.775-13.545 23.725 23.725 0 0 1 7.608-8.488 23.91 23.91 0 0 1 10.444-4.123 23.436 23.436 0 0 1 9.958.643 24 24 0 0 1 15.486 12.967 23.556 23.556 0 0 1 1.88 15.572 24.228 24.228 0 0 1-26.539 19.183c-.093-.008-.187-.028-.369-.057m1.721-.477a23.388 23.388 0 0 0 22.626-13.059 23.8 23.8 0 0 0-37.585-27.974c-8.438 7.794-8.611 19.666-5.909 25.776.153-.229.3-.441.439-.656a77.205 77.205 0 0 0 4.831-8.938c1.61-3.329 3.206-6.668 4.913-9.95a18.4 18.4 0 0 1 8.5-8.3 14.261 14.261 0 0 1 8.238-1.424 18.236 18.236 0 0 1 7.026 2.632 24.632 24.632 0 0 1 6.25 5.505 15.433 15.433 0 0 1 3.044 5.537 15.234 15.234 0 0 1-1.5 12.086 35.516 35.516 0 0 1-2.892 4.213 28.213 28.213 0 0 1-5.968 5.987q-5.3 3.8-10.625 7.57l-1.392.993"/>
    <path fill="#e71019" d="M859.4 4535.836a14.944 14.944 0 0 1 3.262.842 17.135 17.135 0 0 1 4.247 2.351 20.988 20.988 0 0 1 5.087 5.2 13.492 13.492 0 0 1 2.372 9.4 15.5 15.5 0 0 1-1.99 5.648 29.012 29.012 0 0 1-6.337 7.457c-2.539 2.234-5.274 4.215-8.019 6.182-2.155 1.542-4.324 3.068-6.481 4.6a1.349 1.349 0 0 1-1.079.234 23.8 23.8 0 0 1-16.455-12.107 1.076 1.076 0 0 1 .074-1.243 56.177 56.177 0 0 0 4.619-8.244c1.674-3.467 3.324-6.944 5.053-10.385a21.274 21.274 0 0 1 3.681-5.338 16.338 16.338 0 0 1 7.05-4.2 11.661 11.661 0 0 1 4.913-.4m14.44 17.293a12.8 12.8 0 0 0-1.89-7.894 19.183 19.183 0 0 0-4.415-4.982 16.2 16.2 0 0 0-7.043-3.6 7.826 7.826 0 0 0-1.714-.3 19.848 19.848 0 0 0-3.07.278 14.078 14.078 0 0 0-7.879 4.241 23.366 23.366 0 0 0-3.929 5.875c-1.725 3.475-3.375 6.986-5.062 10.478a52.256 52.256 0 0 1-4.3 7.559.443.443 0 0 0-.028.541c.6.957 1.141 1.948 1.793 2.862a22.526 22.526 0 0 0 6.437 5.911 22.062 22.062 0 0 0 7.807 3.07.85.85 0 0 0 .706-.157c2.052-1.464 4.114-2.909 6.163-4.377a101.846 101.846 0 0 0 8.5-6.562 28.257 28.257 0 0 0 5.821-6.848 14.891 14.891 0 0 0 2.1-6.1m218.115-61.066-2.287 1.42c-4.008 2.493-8.026 4.967-12.012 7.485a25.966 25.966 0 0 0-5.633 5 34.114 34.114 0 0 0-3.433 4.385 14.423 14.423 0 0 0-1.491 13.154 17.474 17.474 0 0 0 3.042 4.986 22.794 22.794 0 0 0 6.407 5.491 14.058 14.058 0 0 0 14.3.4 17.909 17.909 0 0 0 7.444-7.063c2.236-3.8 4.377-7.65 6.56-11.475a55.546 55.546 0 0 1 5.236-7.845c.055-.068.112-.132.2-.238.051.117.093.206.129.3a20.35 20.35 0 0 1 1.345 7.449 25.1 25.1 0 0 1-3.621 13.344 24.6 24.6 0 0 1-18.799 11.447 23.434 23.434 0 0 1-9.9-1.267 24 24 0 0 1-14.644-13.913 23.561 23.561 0 0 1-.9-15.659 24.229 24.229 0 0 1 27.692-17.481c.093.015.185.04.365.081m-1.746.369a23.386 23.386 0 0 0-23.4 11.613 23.8 23.8 0 0 0 35.754 30.277c8.908-7.249 9.827-19.087 7.514-25.354-.168.219-.327.422-.482.626a77.7 77.7 0 0 0-5.38 8.618c-1.816 3.22-3.619 6.454-5.529 9.621a18.4 18.4 0 0 1-9 7.75 14.27 14.27 0 0 1-8.31.9 18.3 18.3 0 0 1-6.851-3.061 24.644 24.644 0 0 1-5.889-5.889 15.1 15.1 0 0 1-.443-17.685 35.85 35.85 0 0 1 3.15-4.025 28.266 28.266 0 0 1 6.333-5.6q5.528-3.459 11.077-6.889l1.453-.9"/>
    <path fill="#e71019" d="M1081.903 4534.074a14.971 14.971 0 0 1-3.207-1.043 17.1 17.1 0 0 1-4.092-2.614 20.99 20.99 0 0 1-4.75-5.5 13.491 13.491 0 0 1-1.778-9.526 15.446 15.446 0 0 1 2.342-5.512 29.022 29.022 0 0 1 6.789-7.046c2.677-2.071 5.531-3.876 8.395-5.667 2.247-1.4 4.506-2.792 6.755-4.188a1.349 1.349 0 0 1 1.1-.17 23.811 23.811 0 0 1 15.663 13.113 1.076 1.076 0 0 1-.155 1.237 56.4 56.4 0 0 0-5.126 7.937c-1.888 3.356-3.755 6.723-5.694 10.05a21.241 21.241 0 0 1-4.01 5.1 16.323 16.323 0 0 1-7.3 3.749 11.663 11.663 0 0 1-4.928.093m-13.327-18.175a12.8 12.8 0 0 0 1.392 8 19.177 19.177 0 0 0 4.095 5.247 16.183 16.183 0 0 0 6.8 4.033 7.867 7.867 0 0 0 1.691.409 19.945 19.945 0 0 0 3.083-.085 14.076 14.076 0 0 0 8.128-3.738 23.437 23.437 0 0 0 4.292-5.618c1.937-3.361 3.806-6.759 5.709-10.139a52.093 52.093 0 0 1 4.767-7.275.445.445 0 0 0 .061-.539c-.535-.991-1.018-2.013-1.61-2.968a22.556 22.556 0 0 0-6.051-6.3 22.087 22.087 0 0 0-7.6-3.554.853.853 0 0 0-.715.112c-2.139 1.332-4.288 2.646-6.424 3.98a102.206 102.206 0 0 0-8.9 6.019 28.338 28.338 0 0 0-6.239 6.466 14.915 14.915 0 0 0-2.482 5.953"/>
  </g>
</svg>