<svg id="visual" viewBox="0 0 900 600" width="900" height="600" xmlns="http://www.w3.org/2000/svg" xmlns:xlink="http://www.w3.org/1999/xlink" version="1.1"><path d="M0 535L16.7 531.2C33.3 527.3 66.7 519.7 100 517.2C133.3 514.7 166.7 517.3 200 518.5C233.3 519.7 266.7 519.3 300 521.7C333.3 524 366.7 529 400 526.7C433.3 524.3 466.7 514.7 500 516.3C533.3 518 566.7 531 600 533C633.3 535 666.7 526 700 524.8C733.3 523.7 766.7 530.3 800 530.5C833.3 530.7 866.7 524.3 883.3 521.2L900 518L900 601L883.3 601C866.7 601 833.3 601 800 601C766.7 601 733.3 601 700 601C666.7 601 633.3 601 600 601C566.7 601 533.3 601 500 601C466.7 601 433.3 601 400 601C366.7 601 333.3 601 300 601C266.7 601 233.3 601 200 601C166.7 601 133.3 601 100 601C66.7 601 33.3 601 16.7 601L0 601Z" fill="#666793"></path><path d="M0 537L16.7 537.8C33.3 538.7 66.7 540.3 100 540.7C133.3 541 166.7 540 200 538.5C233.3 537 266.7 535 300 536.7C333.3 538.3 366.7 543.7 400 548.5C433.3 553.3 466.7 557.7 500 559C533.3 560.3 566.7 558.7 600 555C633.3 551.3 666.7 545.7 700 542.7C733.3 539.7 766.7 539.3 800 540.3C833.3 541.3 866.7 543.7 883.3 544.8L900 546L900 601L883.3 601C866.7 601 833.3 601 800 601C766.7 601 733.3 601 700 601C666.7 601 633.3 601 600 601C566.7 601 533.3 601 500 601C466.7 601 433.3 601 400 601C366.7 601 333.3 601 300 601C266.7 601 233.3 601 200 601C166.7 601 133.3 601 100 601C66.7 601 33.3 601 16.7 601L0 601Z" fill="#bb3f8a"></path><path d="M0 557L16.7 557.7C33.3 558.3 66.7 559.7 100 561.8C133.3 564 166.7 567 200 570.7C233.3 574.3 266.7 578.7 300 577.8C333.3 577 366.7 571 400 566.5C433.3 562 466.7 559 500 558.3C533.3 557.7 566.7 559.3 600 561.5C633.3 563.7 666.7 566.3 700 569.5C733.3 572.7 766.7 576.3 800 578.7C833.3 581 866.7 582 883.3 582.5L900 583L900 601L883.3 601C866.7 601 833.3 601 800 601C766.7 601 733.3 601 700 601C666.7 601 633.3 601 600 601C566.7 601 533.3 601 500 601C466.7 601 433.3 601 400 601C366.7 601 333.3 601 300 601C266.7 601 233.3 601 200 601C166.7 601 133.3 601 100 601C66.7 601 33.3 601 16.7 601L0 601Z" fill="#e71019"></path></svg>