<svg xmlns="http://www.w3.org/2000/svg" viewBox="0 0 929.32 533.81">
  <path fill="#666793" d="M29.68 271.3C-.58 286.79-2.27 322.27 1.4 348.74c7.59 50.51 28.69 100.12 65.65 138.47 18.93 19.65 43.31 36.43 72.38 42.19 8.52 1.68 17.23 2.29 25.81 2.13 6.75-.08 13.65-.3 20.14-2.06h.15c.77-.12 1.1-.88.82-1.49-.12-.77-.88-1.1-1.5-.82-5.56 1.19-11.25 1.91-16.92 1.86-8.13.18-16.23-.25-24.31-1.45C57.16 511.99 4.92 402.03 2.69 329.49c-.34-21 6.06-46.52 29.24-56.89 21.46-9.22 46.04-11.42 68.76-8.18 18.75 2.8 36.1 10.3 51.24 20.01-14.32 15.44-5.89 37.17 4.18 51.62 19.15 26.4 43.4 11.77 33.19-16-6.53-14.78-19.62-26.27-33.22-35.93 17.67-14.7 51.88-2.94 73.65-3.41 20.5.86 40.84-7 56.13-19.34 24.71-19.05 29.03-50.92 19.05-76.4-6.03-15.84-16.38-31.05-32.3-40.19 12.17-28.38 10.69-60.75 29.23-87.22 26.35-35.08 78.34-32.66 110.77-9.33-18.16 11.17-31.93 28.45-34.76 47.97-3.39 22.4 3.42 51.44 22.83 66.05 9.1 6.9 21.86 5.67 29.37-2.97 7.02-8.03 9.38-18.52 9.72-28.31 4.99 6.3 10.72 13.09 19.38 15.38 12.63 2.59 14.76-10.37 11.81-18.28-10.61-29.47-26.57-59.75-53.43-80.3 54.1-31.67 108.48-13.69 137.19 32.95 13.33 22.06 17.61 48.72 36.39 68.05 10.2 10.61 24.74 19.85 41.49 18.6 21.21-1.87 39.21-17.48 46.26-35.16 14.01 6.77 30.84 7.51 46.44 3.6 9.72-1.96 19.18-5.31 29.02-6.34 17.82-1.37 35.59 3.08 50.73 12.48 21.59 13.47 43.09 42.71 27.25 66.67-3.8-5.34-9.8-9.07-16.35-9.91-7-1.16-17.63.46-19.12 8.07-1.04 7.78 7.51 12.98 15.14 14 7.32.86 14.77-1.93 19.87-7.43 5.68 12.92 2.57 27.51-1.11 40.86-3.47 11.68-6.94 23.51-12.84 34.48-.65 1.05-1.3 2.1-1.94 3-.97 1.35 1.44 2.66 2.41 1.15 7.11-10.63 10.14-22.94 14.07-34.59 4.52-15.32 8.63-32.33 1.32-46.98 20.43-28.24-9.25-64.51-37.63-76.53-14.18-6.16-30.78-9.34-46.79-6.68-25.61 5.23-44.46 14.23-69.62 2.18 3.56-9.99 4.42-21.45-1.39-30.53-3.62-5.95-11.1-11.27-19.27-9.71-8.49 1.85-9.57 11.01-7.02 16.91 4.23 10.57 13.74 18.86 24.28 24.43-6.37 15.71-19.49 27.51-35.6 32.46-31.86 8.69-54.6-19.97-64.86-42.39-4.13-9.03-7.48-18.49-11.6-27.67-4.56-9.96-10.36-19.35-17.41-27.87-32.5-38.96-83.97-47.65-131.69-19.28-20.33-14.34-48.09-22.2-74.49-16.38-60.73 15.04-53.18 71.22-70.26 113.21-10.53-5.42-23.27-9.08-35.91-7.22-13.39 1.83-24.21 13.26-19.11 25.07 4.51 11.5 20.74 15.74 33.03 10.49 11.35-4.81 18.75-14.82 23.38-24.77 14.72 8.63 24.18 22.75 30.1 37.35 10.31 25.03 6.63 56.3-17.78 75.21-14.51 11.75-33.45 19.21-52.73 18.7-23.61.56-57.95-11.98-77.36 4.35-16.33-10.53-35.2-18.54-55.65-20.93-22.74-2.63-47.64-.28-68.66 9.56M234.8 139.42c12.16-1.88 24.3 1.76 34.53 7.17-4 9.2-10.6 18.32-20.57 23.18-9.04 4.43-21.25 3.25-27.6-3.57-10.04-10.92-1.44-24.72 13.65-26.79m574.43 62.56c8.76-.76 17.35 3.21 21.25 10.08-17.56 20.22-46.34-6.52-21.25-10.08M675.34 100.8c5.98 8.63 5.3 19.49 1.9 29.02-9.62-5.24-18.39-13.05-22.5-22.69-1.98-4.81-1.87-12.32 4.93-13.93 6.62-1.15 12.45 3.04 15.67 7.59m-246.41 2.15c5.7 3.72 6.88 13.57 7.9 19.73-3.34-5.48-9.8-13.21-7.9-19.73m-47.7 19.33c-5.75-28.69 5.74-54.95 33.75-71.9 23.47 16.75 37.48 41.29 48.41 65.87 2.55 6.06 5.55 12.29 6.09 18.9.57 9.98-7.62 11.99-15.39 6.51-5.98-4.03-10.09-9.39-14.19-14.74-.17-3.99-.64-7.98-1.58-11.85-4.32-21.14-19.73-18.3-8.77 1.22 1.59 2.96 3.48 5.64 5.37 8.46.72 1.4 2.36 2.53 2.15 4.21.58 14.12-6.76 40.21-27.87 35.03-16.95-5.79-24.96-26.75-27.96-41.72M158.6 335.42c-9.05-13.03-17.25-32.62-6.03-47.09.48-.59 1.11-1.19 1.59-1.78 12.71 8.86 24.91 19.4 31.64 32.81 11.09 24.59-8.19 41.54-27.21 16.06"/>
  <path fill="#83838c" d="M241.53 330.42c0-16.76 37.9-20.95 37.9-20.95s-39.72-6.19-37.71-19.86c2-13.66 35.53 0 35.53 0-12.57-22.05-7.29-34.62-7.29-34.62 16.4 34.98 41.18 55.02 67.96 63.77 1.28.36 2.73.91 4.19 1.28 15.49 4.19 31.7 5.28 47.55 2.73 1.46-.18 3.1-.36 4.55-.73 14.21-2.73 27.88-8.02 40.08-15.67l-9.47 39.72s-40.63 48.28-57.94 51.93c-1.46.36-2.92.36-4.19-.18-.36-.18-.55-.18-.73-.36-12.03-8.02-2-37.9-1.09-40.63-1.28 3.1-19.13 42.63-30.24 40.63-11.48-2 7.29-48.1 7.29-48.1s-29.15 38.63-35.53 32.43c-6.38-6.19 14.21-41.36 14.58-41.91-.55.18-31.52 17.86-44.09 21.68-2.73.73-4.55.91-5.1.18-.18-.36-.36-.91-.18-1.46.91-7.11 21.13-29.88 21.13-29.88s-47.19 16.76-47.19 0"/>
  <path fill="#c3c3d1" d="M305.12 526.47c-14.58 0 54.48-59.03 71.42-110.23 3.46-10.02 6.01-19.86 8.75-29.7 7.47-27.15 15.49-53.02 39.9-75.25 11.48-10.02 24.23-18.22 37.9-24.41.55-.36 1.28-.55 2-.91 2.92-1.28 5.83-2.55 8.93-3.83 5.47-2.19 10.93-4.37 16.4-6.38.55-.36 1.28-.55 1.82-.73 27.15-10.02 52.65-17.31 76.16-24.96.55-.18 1.28-.36 1.82-.55 7.47-2.37 14.76-4.92 21.68-7.47.55-.18 1.09-.36 1.64-.55 23.69-8.93 44.64-19.86 61.58-36.26l1.64-1.64c3.1-3.1 6.19-6.56 8.93-10.02 33.52-42.09 30.43-133.91 69.23-173.09 8.38-8.75 19.13-14.58 30.97-16.94 0 0 49.01 15.12 90.55 22.59 19.86 3.64 39.9 5.47 60.12 5.28 8.2-.18 12.75-.55 12.75-.55-1.28 1.82-2.73 3.83-4.19 5.65-9.84 12.21-26.97 23.14-54.66 26.42-3.28.55-6.92.73-10.57.91-17.49.73-38.63-1.28-63.77-7.47-11.11 21.86-20.77 44.46-29.15 67.41-2.55 6.92-5.1 14.21-7.65 22.05-.36 1.28-.73 2.37-1.09 3.64-3.46 10.57-6.92 21.86-10.02 33.71-.18.91-.55 1.82-.73 2.73-.36 1.82-.91 3.46-1.28 5.28-5.47 20.95-9.47 42.09-12.39 63.59-.91 7.29-1.82 14.39-2.55 21.13v.18c-3.83 32.61-5.1 59.03-4.37 81.26 1.28 40.81 10.02 67.23 24.78 91.1 24.6 39.72 51.56 53.02 42.27 58.85-9.29 5.83-57.57-27.33-57.57-27.33s16.22 45.37 8.56 45.37c-7.65 0-33.16-34.98-33.16-34.98s3.83 41.54 0 42.45c-3.64.91-30.61-38.08-31.16-38.81.18.73 8.38 33.16 0 38.81-8.56 5.65-20.77-31.16-20.77-31.16s-.91 32.07-11.3 32.07c-.91 0-1.82-.18-2.55-.73-1.28-.91-2.37-2-3.28-3.46-6.74-10.02-10.2-33.52-10.2-33.52s-10.39 35.89-18.04 37.71-14.21-43.55-14.21-43.55-14.21 41.72-19.86 43.55c-5.65 1.82-10.39-43.55-10.39-43.55s-2 4.01-5.1 9.66c-2 3.64-4.55 7.83-7.11 12.21-6.19 10.02-13.12 20.22-17.13 21.5-5.47 1.82-10.57-15.3-13.48-27.69-1.64-6.74-2.55-12.03-2.55-12.03l-.36 1.28c-2 6.56-12.39 38.44-17.49 38.44-5.65 0-7.47-26.42-7.47-26.42s-8.38 24.6-19.68 26.42c-11.3 1.82-12.21-39.72-12.21-39.72s-16.94 37.9-25.51 39.72c-5.47 1.28-7.11-18.04-7.47-31.88-.18-4.37-.18-8.38-.18-10.75v-2.73s-18.95 46.28-28.42 45.37c-8.02-.73-8.56-32.98-8.56-42.63v-2.73s-17.86 45.37-26.42 45.37c-.73 0-1.28-.18-1.82-.73-6.19-5.47-3.83-39.9-3.83-39.9s-18.95 40.63-33.16 40.63c-13.66 0 4.37-36.99 5.65-39.54-1.46 2.37-18.58 32.43-32.61 32.43"/>
  <path fill="#707070" d="M688.1 388.54c-10.39 1.09 12.75-49.56.18-126.63-14.21-86 18.4-157.96 26.6-190.03 8.2-32.07 30.97-16.94 30.97-16.94-8.56 45.91-4.19 88 2.37 128.08-6.38 23.69-11.11 47.55-14.39 71.79-5.65 42.63-7.83 75.79-6.92 102.58-3.64 7.47-7.29 13.66-10.39 15.12-9.47 4.74-5.47-45-5.47-45s-12.57 60.12-22.96 61.04" opacity=".21" style="isolation:isolate"/>
  <path fill="#83838c" d="M708.14 336.98c-10.39 1.09 12.75-49.56.18-126.44-14.21-86 18.4-157.96 26.6-190.03 8.2-32.07 30.97-16.94 30.97-16.94-15.12 81.26 10.39 150.13 16.03 218.27 1.82 20.22.91 40.63-2.92 60.49-1.28 5.65-2.73 11.3-4.74 16.94-5.28 14.94-11.48 22.05-13.3 21.68-3.83-.91 0-51.93 0-51.93s-13.12 41.18-22.59 50.47c-.73.55-1.28 1.09-2 1.46-.18 0-.36.18-.55.18-8.75 2.55-4.92-45.18-4.92-45.18s-7.65 37.17-16.03 53.57c-.55 1.28-1.28 2.55-2.19 3.83-1.46 2.19-3.1 3.46-4.55 3.64"/>
  <path fill="#1a1a1a" d="M916.57 31.44c8.2-.18 12.75-.55 12.75-.55-1.28 2-2.73 4.01-4.19 5.83l-8.38-5.1-.18-.18"/>
  <path fill="#ededed" d="M782.84 29.07c0-3.28 2.73-6.01 6.01-6.01s6.01 2.73 6.01 6.01-2.73 6.01-6.01 6.01-6.01-2.73-6.01-6.01"/>
  <path d="M783.02 28.52c0-2.37 1.82-4.19 4.19-4.19s4.19 1.82 4.19 4.19-1.82 4.19-4.19 4.19-4.19-1.82-4.19-4.19"/>
  <path fill="#fff" d="M784.66 26.52c0-.73.55-1.46 1.46-1.46.73 0 1.46.73 1.46 1.46s-.73 1.46-1.46 1.46-1.46-.73-1.46-1.46"/>
  <path fill="#424247" d="M745.12 70.06c-.36-6.38-.36-12.75 0-18.77.36-6.38 1.28-12.75 2.73-18.95v-.18c.18-.36.36-.55.73-.36s.55.36.36.73c-1.28 6.19-2.19 12.39-2.55 18.77-.18 6.19-.18 12.57.18 18.95.91 12.75 2.55 25.33 4.92 37.9s5.1 24.96 7.83 37.35c2.73 12.39 5.65 24.96 8.38 37.35s5.28 24.96 7.29 37.53c2 12.57 3.46 25.33 4.19 38.08.36 8.02.36 15.85 0 23.87-1.28 5.65-2.73 11.3-4.74 16.94.18-1.09.18-2 .36-2.92 1.64-12.57 2.19-25.33 1.46-37.9-.55-12.75-1.82-25.33-3.83-37.9-1.82-12.57-4.19-25.14-6.92-37.53s-5.47-24.96-8.2-37.35-5.47-24.96-7.65-37.53c-2.19-12.57-3.83-25.33-4.55-38.08"/>
  <path fill="#424247" d="M746.22 195.42c-.18-6.92-.91-13.66-2.19-20.22-.73-6.74-1.82-13.48-2.92-20.22-.91-6.74-2-13.48-2.92-20.22-1.82-13.48-3.46-26.97-4.19-40.63-.91-13.66-.18-27.33 2-40.81 2.19-13.3 6.01-26.6 11.3-39.17v-.18c.18-.18.55-.36.73-.18s.36.55.18.73c-5.1 12.57-8.75 25.69-11.11 38.99-2 13.48-2.73 27.15-1.82 40.63.73 13.48 2.55 26.97 4.37 40.45 1.09 6.74 2 13.48 3.1 20.22s2.19 13.48 3.1 20.22c.91 6.74 1.46 13.66 1.82 20.41.36 6.74.55 13.66.55 20.41s-.18 13.66-.55 20.41c-.18 6.74-.73 13.66-1.28 20.41-1.09 13.66-2.73 27.15-4.55 40.63-.91 6.74-2 13.48-3.1 20.22l-.36 2.19c-.73.55-1.28 1.09-2 1.46-.18 0-.36.18-.55.18.18-1.46.55-2.73.73-4.19 1.28-6.56 2.37-13.3 3.28-20.04 2-13.48 3.64-26.97 4.74-40.45.73-6.92 1.09-13.66 1.46-20.41.36-6.74.36-13.48.55-20.41s0-13.66-.36-20.41"/>
  <path fill="#424247" d="M712.51 330.97c-.55-5.47-.55-10.75-.18-15.85.73-10.93 2.73-21.5 6.01-31.88 3.1-10.39 6.74-20.41 9.84-30.61 1.46-5.1 2.73-10.2 3.83-15.49.91-5.28 1.64-10.57 2-15.85s.36-10.75.18-16.03c-.18-5.47-.73-10.75-1.28-16.03-1.28-10.75-3.1-21.32-4.74-31.88s-2.92-21.32-3.64-32.07c-.36-5.47-.55-10.75-.55-16.22s.18-10.93.55-16.22c0-.36.18-.55.55-.55s.55.18.55.55c-.18 5.28-.36 10.75-.36 16.03s.18 10.75.55 16.03c.73 10.75 2 21.32 3.83 31.88 1.82 10.57 3.83 21.13 5.1 31.88.73 5.28 1.28 10.57 1.46 16.03s.18 10.75-.18 16.22c-.36 5.28-.91 10.75-2 16.03-1.09 5.28-2.37 10.57-3.83 15.67-2.92 10.39-6.74 20.59-9.66 30.79-3.28 10.2-5.1 20.77-5.83 31.34-.36 4.92-.18 9.84.18 14.76-.55 1.28-1.28 2.55-2.19 3.83 0-.73-.18-1.64-.18-2.37"/>
  <path fill="#83838c" d="M434.3 501.69c-.18-4.37-.18-8.2 0-10.75.36-.73.55-1.46.73-2.19 3.28-11.11 6.19-22.59 8.75-34.07 5.1-22.96 9.66-45.91 14.39-69.05 2.55-11.48 4.92-22.96 7.65-34.44 2.73-11.48 5.65-22.96 8.93-34.25 3.28-11.48 7.29-22.59 12.03-33.34 1.28-2.73 2.55-5.28 3.83-7.83.55-.36 1.28-.55 1.82-.73-1.64 3.1-3.1 6.01-4.37 9.11-4.74 10.75-8.56 21.86-11.66 33.16-3.28 11.3-6.01 22.96-8.56 34.25s-4.92 22.96-7.29 34.44c-4.74 22.96-8.93 46.1-13.85 69.23-2.55 11.48-5.28 23.14-8.56 34.44-1.09 4.01-2.37 8.02-3.83 12.03m123.7 10.37c.91-2.19 1.64-4.55 2.19-6.74.73-2.92 1.28-6.01 1.82-9.11.91-6.19 1.64-12.39 2.19-18.58 1.09-12.57 1.82-24.96 2.55-37.53 1.28-24.96 2.37-50.1 4.19-75.07.91-12.57 2-24.96 3.28-37.53 1.28-12.57 2.92-24.96 5.1-37.35 2-12.39 4.92-24.6 8.56-36.62 1.28-3.83 2.55-7.65 4.01-11.3.55-.18 1.09-.36 1.64-.55-1.46 4.01-2.92 8.02-4.19 12.21-3.46 12.03-6.19 24.23-8.2 36.62-2 12.21-3.46 24.6-4.74 37.17-1.28 12.57-2.19 24.96-2.92 37.53-1.64 24.96-2.55 49.92-3.64 75.07-.55 12.39-1.09 24.96-2.19 37.53-.55 6.19-1.09 12.57-2 18.77-.18 1.09-.36 2.19-.55 3.28-2 3.64-4.55 7.83-7.11 12.21m-33.52-16.95c.36-2.19.55-4.19.73-6.74 1.64-12.39 3.1-24.96 4.37-37.53 2.55-24.96 5.1-50.1 8.38-75.25 1.64-12.57 3.46-25.14 5.47-37.53 2-12.39 4.37-24.78 7.29-37.17s6.56-24.6 10.93-36.44c2-4.92 4.01-9.66 6.56-14.39.55-.18 1.28-.36 1.82-.55-2.55 5.1-4.92 10.39-6.92 15.67-4.37 11.84-7.83 23.87-10.39 36.26-2.73 12.39-4.92 24.6-6.74 37.17-1.82 12.57-3.46 24.96-4.92 37.53-2.92 24.96-5.1 50.1-7.47 75.25-1.09 12.57-2.37 25.14-3.83 37.71-.73 5.65-1.46 11.11-2.37 16.76-1.64-6.74-2.55-12.03-2.55-12.03l-.36 1.28m118.25 34.25c0-.18.18-.36 0-.36 1.82-7.47 3.28-15.12 4.19-22.77 1.82-15.49 2.92-30.97 3.1-46.46.36-15.67.18-31.16 0-46.82-.18-15.67-.55-31.16-1.09-46.82-.55-15.67-.91-31.16-1.09-46.82s-.36-31.16.18-46.82c.55-15.67 1.46-31.34 3.46-46.82.91-6.92 2-13.85 3.46-20.59l1.64-1.64c-1.64 7.47-2.92 14.94-3.83 22.41-1.82 15.49-2.55 30.97-2.92 46.64-.36 15.67-.18 31.16.18 46.82.36 15.67.73 31.16 1.46 46.82s1.09 31.34 1.64 46.82c.55 15.49.73 31.16.55 46.82-.18 15.67-1.09 31.16-2.73 46.82-.91 7.83-2.37 15.67-4.19 23.32-.18.91-.36 2-.73 2.92-1.28-.91-2.37-2-3.28-3.46m-273.66 3.45c.36-.36.73-.55 1.09-.91 2.19-2 4.01-4.19 5.83-6.56 3.46-4.92 6.56-10.02 9.11-15.49 5.28-10.93 9.66-22.23 13.48-33.71 3.83-11.66 7.29-23.32 10.75-34.98s6.74-23.32 10.02-35.16c6.74-23.5 13.48-47.01 21.68-70.15 4.19-11.48 8.75-22.77 14.03-33.89 2.37-5.1 4.92-10.02 7.83-14.94.55-.36 1.28-.55 2-.91l-.18.36c-3.1 5.28-5.83 10.75-8.38 16.22-5.1 10.93-9.47 22.41-13.48 33.89-7.83 22.96-14.39 46.64-20.77 70.15-3.28 11.84-6.38 23.69-9.66 35.35-3.28 11.66-6.56 23.5-10.39 35.16-1.64 4.55-3.1 9.11-4.74 13.66v-2.73s-17.86 45.37-26.42 45.37c-.73 0-1.28-.18-1.82-.73"/>
  <path fill="#6e6e75" d="M362.51 397.84c1.09-5.47 2-11.11 3.1-16.76.91-6.01 2-12.02 3.28-18.04 1.28-6.01 3.1-11.84 5.28-17.67 2.37-5.83 5.47-11.3 9.29-16.22 1.82-2.37 3.83-4.37 6.01-6.38 1.46-.18 3.1-.36 4.55-.73-3.28 2.55-6.19 5.47-8.75 8.75-3.64 4.74-6.56 10.02-8.56 15.67-2 5.65-3.64 11.48-4.74 17.31-1.28 5.83-2 11.84-2.92 17.86-.73 5.47-1.46 10.93-2.37 16.4-1.46.36-2.92.36-4.19-.18m-94.9-35.91c-.18-.55-.36-1.09-.36-1.64 1.28-.73 2.37-1.64 3.46-2.55 7.47-5.83 14.94-11.84 22.77-17.31 8.02-5.65 16.22-10.39 24.96-14.58 4.37-2 8.93-3.83 13.48-5.28 1.82-.55 3.83-1.09 5.65-1.64 1.28.36 2.73.91 4.19 1.28-3.1.73-6.19 1.64-9.11 2.73-4.37 1.46-8.75 3.46-12.94 5.47-8.38 4.37-16.4 9.29-24.05 14.94-7.65 5.65-14.76 11.84-22.23 17.86-.18.18-.55.36-.73.55-2.73.73-4.55.91-5.1.18"/>
  <path fill="#83838c" d="M825.84 45.83c-.18-.18-.18-.73-.18-1.09.18-.36.73-.36 1.09-.18 1.64 1.46 3.46 2.73 5.28 4.01 1.82 1.09 3.64 2.37 5.65 3.46s4.01 2.19 6.01 3.1l3.1 1.46 3.1 1.28c4.19 1.64 8.38 2.92 12.75 3.83 2.19.55 4.37.73 6.56 1.09.36.18.73.18 1.09.18-3.28.55-6.92.73-10.57.91-3.46-1.09-7.11-2.19-10.57-3.64l-3.1-1.46-3.1-1.46c-2-.91-4.01-2-6.01-3.28-4.01-2.37-7.65-5.1-11.11-8.2"/>
</svg>