<svg xmlns="http://www.w3.org/2000/svg" viewBox="0 0 861.03 609.35">
  <path fill="#666793" d="M28.69 345.69c-30.65 16.96-31.21 53.56-26.54 80.7 9.49 51.76 32.88 102.15 72.22 140.41 20.15 19.61 45.82 36.08 75.94 41.04 8.83 1.44 17.82 1.78 26.65 1.33 6.95-.3 14.04-.76 20.68-2.79h.15c.79-.15 1.1-.94.8-1.57-.15-.79-.94-1.1-1.57-.8-5.68 1.41-11.52 2.34-17.36 2.48-8.37.45-16.72.28-25.08-.69C65.01 592.65 7.54 481.14 2.83 406.51c-1.05-21.62 4.69-48.11 28.22-59.56 21.79-10.2 47.04-13.29 70.54-10.71 19.4 2.26 37.52 9.4 53.43 18.9-14.24 16.37-4.83 38.47 6.02 53.02 20.6 26.55 45.09 10.67 33.64-17.58-7.22-15.01-21.08-26.4-35.41-35.9 17.7-15.73 53.33-4.76 75.73-5.97 21.14.21 41.82-8.57 57.16-21.78 24.81-20.44 28.2-53.41 17.07-79.31-6.74-16.11-17.91-31.43-34.6-40.31 11.58-29.63 8.99-62.92 27.19-90.8 25.96-37 79.59-36.25 113.76-13.29-18.33 12.11-31.93 30.36-34.2 50.55-2.74 23.18 5.23 52.86 25.71 67.26 9.6 6.8 22.7 5.11 30.14-4.03 6.97-8.5 9.04-19.38 9.06-29.47 5.34 6.32 11.48 13.12 20.47 15.19 13.09 2.24 14.85-11.17 11.56-19.22-11.91-30-29.35-60.65-57.69-80.91C475.29 68.18 531.88 84.88 563 131.96c14.46 22.28 19.76 49.58 39.74 68.87 10.86 10.59 26.13 19.62 43.34 17.77 21.78-2.63 39.8-19.31 46.47-37.75 14.65 6.51 32.01 6.7 47.95 2.16 9.94-2.34 19.57-6.1 29.68-7.5 18.31-2 36.75 1.98 52.66 11.17 22.68 13.15 45.8 42.55 30.28 67.75-4.09-5.37-10.39-9.02-17.17-9.66-7.25-.96-18.14 1.06-19.42 8.94-.81 8.04 8.17 13.12 16.06 13.92 7.57.65 15.15-2.48 20.22-8.32 6.27 13.11 3.56 28.25.22 42.12-3.19 12.14-6.37 24.44-12.07 35.94-.63 1.1-1.27 2.21-1.9 3.15-.95 1.42 1.57 2.69 2.52 1.11 6.97-11.19 9.68-23.96 13.34-36.09 4.14-15.93 7.81-33.58-.2-48.43 20.1-29.77-11.67-66.13-41.3-77.56-14.81-5.87-32.01-8.6-48.41-5.32-26.2 6.24-45.32 16.13-71.62 4.56 3.34-10.4 3.84-22.23-2.44-31.39-3.93-6.01-11.8-11.23-20.17-9.36-8.68 2.19-9.49 11.65-6.67 17.65 4.71 10.74 14.78 18.97 25.82 24.35-6.04 16.39-19.15 28.98-35.58 34.61-32.52 10.01-56.9-18.75-68.2-41.49-4.56-9.16-8.32-18.8-12.86-28.11-5.03-10.1-11.31-19.58-18.86-28.12-34.77-39.04-88.06-46.27-136.26-15.47-21.42-14.09-50.27-21.26-77.26-14.38-62.04 17.51-52.39 75.12-68.59 118.93-11.03-5.23-24.27-8.58-37.22-6.24-13.73 2.33-24.49 14.46-18.84 26.46 5.02 11.69 21.89 15.52 34.37 9.7 11.52-5.33 18.81-15.89 23.25-26.29 15.44 8.4 25.65 22.62 32.24 37.46 11.45 25.43 8.7 57.76-15.81 78.05-14.55 12.59-33.8 20.89-53.68 21.01-24.29 1.36-60.08-10.4-79.52 7.06-17.17-10.3-36.87-17.92-58.01-19.7-23.5-1.95-49.07 1.3-70.39 12.13m206.81-142.57c12.46-2.34 25.08 1.01 35.8 6.24-3.81 9.61-10.3 19.22-20.41 24.56-9.16 4.86-21.78 4.05-28.54-2.75-10.7-10.91-2.3-25.41 13.16-28.04m593.64 45.29c8.99-1.08 17.98 2.73 22.22 9.67-17.41 21.41-47.94-5.17-22.22-9.67m-141.26-99.72c6.45 8.69 6.1 19.89 2.92 29.82-10.08-5.08-19.37-12.82-23.93-22.62-2.2-4.89-2.34-12.63 4.61-14.51 6.78-1.4 12.93 2.72 16.39 7.29m-253.68 10.43c5.99 3.65 7.54 13.74 8.79 20.05-3.62-5.53-10.53-13.28-8.79-20.05m-48.48 21.5c-6.87-29.36 4.08-56.78 32.36-75.17 24.72 16.47 39.97 41.27 52.05 66.23 2.82 6.16 6.12 12.47 6.9 19.27.92 10.26-7.45 12.61-15.63 7.21-6.3-3.96-10.71-9.34-15.11-14.71-.31-4.11-.93-8.2-2.02-12.16-5.15-21.63-20.93-18.19-9 1.55 1.73 3 3.77 5.69 5.81 8.53.79 1.42 2.51 2.53 2.36 4.26 1.07 14.52-5.63 41.63-27.54 37-17.65-5.4-26.59-26.72-30.19-42.04M163.55 407.47c-9.75-13.12-18.85-33.02-7.77-48.29.47-.63 1.1-1.26 1.58-1.89 13.38 8.7 26.3 19.15 33.68 32.73 12.24 24.96-7.05 43.05-27.49 17.44"/>
  <path fill="#ede6db" d="M307.95 455.66s83.64 22.58-.13 21.38c-83.78-1.2-63.2-87.25-58.26-86.45 4.94.8-4.28 71.75 58.39 65.07m294.89-101.81s-14.3 207.1 18.31 208.71c32.6 1.6 47.57 0 47.57 0 .8-25.79-26.59-34.07-24.99-42.49 1.6-8.42-.94-175.44 18.31-227.14l-59.19 60.93Z"/>
  <path fill="#faf2e7" d="M353.11 532.49s-49.3-20.84-45.16-76.83c4.14-55.98 161.14-199.62 204.56-240.51 24.32-22.98 41.95-64.4 52.91-96.47 8.55-25.25 12.96-44.76 12.96-44.76l59.46-17.5 54.65 22.98.53.27-.27.27c-22.18 19.24-33.67 37.81-38.21 56.25-4.41 16.97-3.07 33.94.94 51.44 8.28 36.74 24.99 102.62-3.34 145.24s-141.1 122.79-141.1 122.79 10.02 40.89-20.04 70.15c0 0 30.86 19.24 21.65 34.21 0 0-118.65 4.94-139.49 0-20.84-4.94-20.04-27.52-20.04-27.52"/>
  <path fill="#707070" d="M565.42 118.82c8.68-25.25 12.96-44.76 12.96-44.76l59.46-17.5 54.65 22.98c0 .13.13.27.27.4-22.18 19.24-33.67 37.81-38.48 56.39-26.05.94-68.28 1.74-82.31-7.62-3.21-2.41-5.61-5.88-6.55-9.89" opacity=".21" style="isolation:isolate"/>
  <path fill="#faf2e7" d="M546.05 398.21s-20.98 162.88 11.62 164.48c32.6 1.6 47.57 0 47.57 0 .94-25.92-26.59-34.21-24.99-42.62 1.6-8.42 5.75-131.21 24.99-182.92l-59.19 61.06Z"/>
  <path fill="#636363" d="M697.17 13.93c7.48 3.34 24.99-4.01 31.67 4.28s-35.81 61.73-41.15 59.32S656.15 3.91 664.57.57c8.28-3.34 22.18 8.82 32.6 13.36"/>
  <path fill="#faf2e7" d="M580.52 96.91c-19.24-12.83-2.81-75.89 46.63-85.25 33.8-6.28 47.97-3.61 56.79 8.55 3.74 5.48 7.48 12.16 11.36 18.57.13.13.27.4.4.67.4.53.67 1.2 1.07 1.74.67 1.2 1.47 2.41 2.14 3.47 1.07 1.74 2.14 3.34 3.21 4.81.27.27.4.4.53.67 2.41 3.34 5.21 6.28 8.42 8.82 10.69 7.88 43.69-3.61 47.97 4.28 4.28 7.88 10.69 43.83 0 44.49s-13.63-20.84-13.63-20.84-.8 28.59-19.37 31.53c-18.57 2.94-33-13.5-43.02-14.3-10.02-.8-83.11 5.75-102.48-7.22"/>
  <path fill="#636363" d="M606.98 95.04c-14.3 1.6-71.08-47.7-63.47-61.06 2.67-4.94 6.81-6.15 11.76-6.41h2.41c8.15-.13 18.44.8 29.26-7.75 3.74-2.94 7.35-5.75 10.69-8.02 8.15-5.34 15.37-7.22 21.78 2 9.09 13.09 1.74 79.63-12.43 81.24"/>
  <path fill="#1a1a1a" d="M752.48 60.97c.67 0 1.34.13 1.87.67 1.07.94 1.07 2.54.13 3.61l-8.55 14.7-.13.13c-1.07.94-2.67.94-3.61-.13l-18.71-14.7c-.4-.4-.67-1.07-.67-1.74 0-1.47 1.2-2.54 2.54-2.54h27.12"/>
  <path fill="#636363" d="M632.5 54.42c0-4.81 4.01-8.82 8.82-8.82 4.94 0 8.82 3.87 8.82 8.82s-4.01 8.82-8.82 8.82-8.82-4.01-8.82-8.82"/>
  <path fill="#ededed" d="M633.3 54.42c0-4.41 3.61-8.02 8.02-8.02s8.02 3.61 8.02 8.02-3.61 8.02-8.02 8.02-8.02-3.61-8.02-8.02"/>
  <path d="M634.1 52.95c0-3.21 2.54-5.61 5.61-5.61s5.61 2.54 5.61 5.61-2.54 5.61-5.61 5.61-5.61-2.54-5.61-5.61"/>
  <path fill="#fff" d="M635.71 50.95c0-1.07.94-2 2-2s2 .94 2 2-.94 2-2 2-2-.94-2-2"/>
  <path fill="#636363" d="M686.75 47.07c0-4.54 3.74-8.15 8.28-8.28h.13c.13.13.27.4.4.67.4.53.67 1.2 1.07 1.74 1.07.8 1.87 2.14 2.14 3.47 1.07 1.74 2.14 3.34 3.21 4.81.27.27.4.4.53.67-1.34 3.07-4.28 5.08-7.62 5.08-4.41 0-8.15-3.61-8.15-8.15"/>
  <path fill="#ededed" d="M687.55 47.07c0-4.14 3.34-7.48 7.62-7.62h.53c.4.53.67 1.2 1.07 1.74 1.07.8 1.87 2.14 2.14 3.47 1.07 1.74 2.14 3.34 3.21 4.81-1.07 3.07-3.87 5.08-7.08 5.08-4.14 0-7.48-3.34-7.48-7.48"/>
  <path d="M688.35 45.6c0-2.54 1.87-4.68 4.41-5.21 2.94-.53 5.61 1.34 6.15 4.28.13.4.13.67.13.94 0 2.94-2.41 5.34-5.34 5.34s-5.34-2.41-5.34-5.34"/>
  <path fill="#fff" d="M689.69 43.86c0-1.07.8-1.87 1.87-1.87s1.87.8 1.87 1.87-.8 1.87-1.87 1.87-1.87-.8-1.87-1.87"/>
  <path fill="#636363" d="M568.63 174.27c0-4.81 2.27-8.82 5.08-8.82s5.08 3.87 5.08 8.82-2.27 8.82-5.08 8.82-5.08-4.01-5.08-8.82m-13.49 25.12c0-2.81 2.27-5.08 5.08-5.08s5.08 2.27 5.08 5.08-2.27 5.08-5.08 5.08-5.08-2.27-5.08-5.08m-38.48 32.47c0-2 1.6-3.74 3.74-3.74s3.74 1.6 3.74 3.74-1.6 3.74-3.74 3.74-3.74-1.74-3.74-3.74m-37.82 42.49c0-2.67 2.14-4.81 4.81-4.81 2.67 0 4.81 2.14 4.81 4.81s-2.14 4.81-4.81 4.81-4.81-2.14-4.81-4.81m-36.21 39.82c0-2.54 2-4.54 4.54-4.54s4.54 2 4.54 4.54-2 4.54-4.54 4.54-4.54-2-4.54-4.54m-44.62 40.88c0-3.87 3.21-7.08 7.08-7.08s7.08 3.21 7.08 7.08-3.21 7.08-7.08 7.08-7.08-3.21-7.08-7.08m-35.68 51.44c0-2.94 2.41-5.34 5.34-5.34 2.94 0 5.34 2.41 5.34 5.34s-2.41 5.34-5.34 5.34-5.34-2.41-5.34-5.34m42.36-12.42c0-2 1.74-3.61 3.74-3.74 2.14 0 3.74 1.6 3.74 3.74s-1.6 3.74-3.74 3.74-3.74-1.74-3.74-3.74m75.22-88.72c0-2.27 1.87-4.28 4.28-4.28s4.28 1.87 4.28 4.28-1.87 4.28-4.28 4.28-4.28-1.87-4.28-4.28m20.31-61.33c0-1.87 1.47-3.34 3.34-3.34s3.34 1.47 3.34 3.34-1.47 3.34-3.34 3.34-3.34-1.47-3.34-3.34m109.16-111.84c0-2.27 1.74-4.01 4.01-4.01 2.27 0 4.01 1.74 4.01 4.01s-1.74 4.01-4.01 4.01-4.01-1.87-4.01-4.01M650 15.67c0-2.14 1.87-3.87 4.01-4.01 2.27 0 4.01 1.87 4.01 4.01 0 2.27-1.87 4.01-4.01 4.01-2.27 0-4.01-1.87-4.01-4.01m-76.29 125.47c0-2.41 2-4.54 4.54-4.54s4.54 2 4.54 4.54-2 4.54-4.54 4.54-4.54-2-4.54-4.54m-27.66 37.27c0-2.41 2-4.54 4.54-4.54s4.54 2 4.54 4.54-2 4.54-4.54 4.54-4.54-2-4.54-4.54m-6.81 39.02c0-1.87 1.6-3.34 3.34-3.34 1.87 0 3.34 1.47 3.34 3.34s-1.47 3.34-3.34 3.34-3.34-1.47-3.34-3.34M629.16 30.9c0-1.87 1.47-3.34 3.34-3.34 1.87 0 3.34 1.47 3.34 3.34s-1.47 3.34-3.34 3.34-3.34-1.47-3.34-3.34m-78.03 280.46c0-2.54 2-4.54 4.54-4.54s4.54 2 4.54 4.54-2 4.54-4.54 4.54-4.54-2-4.54-4.54m-65.61 75.63c0-2.81 2.27-5.08 5.08-5.08s5.08 2.27 5.08 5.08-2.27 5.08-5.08 5.08-5.08-2.27-5.08-5.08m-20.31-45.43c0-2.41 1.87-4.28 4.28-4.28s4.28 1.87 4.28 4.28-1.87 4.28-4.28 4.28-4.28-1.87-4.28-4.28m41.82-11.36c0-2.67 2.14-4.81 4.81-4.81 2.67 0 4.81 2.14 4.81 4.81s-2.14 4.81-4.81 4.81-4.81-2.14-4.81-4.81m22.05-61.33c0-2.81 2.27-5.08 5.08-5.08s5.08 2.27 5.08 5.08-2.27 5.08-5.08 5.08-5.08-2.27-5.08-5.08m-79.1 21.25c0-1.47 1.2-2.54 2.54-2.54s2.54 1.2 2.54 2.54-1.2 2.54-2.54 2.54-2.54-1.2-2.54-2.54M655.75 95.17c0-1.47 1.07-2.54 2.54-2.54 1.34 0 2.54 1.2 2.54 2.54s-1.2 2.54-2.54 2.54-2.54-1.2-2.54-2.54M416.04 322.05c0-1.87 1.47-3.34 3.34-3.34s3.34 1.47 3.34 3.34-1.47 3.34-3.34 3.34-3.34-1.47-3.34-3.34m26.59 59.06c0-2.67 2.14-4.81 4.81-4.81 2.67 0 4.81 2.14 4.81 4.81s-2.14 4.81-4.81 4.81-4.81-2.14-4.81-4.81m-65.6 7.88c0-1.74 1.34-3.07 3.07-3.07s3.07 1.34 3.07 3.07-1.34 3.07-3.07 3.07-3.07-1.34-3.07-3.07m-85.92 78.03c0-1.74 1.34-3.07 3.07-3.07s3.07 1.34 3.07 3.07-1.34 3.07-3.07 3.07-3.07-1.34-3.07-3.07m-43.55-40.08c0-1.74 1.34-3.07 3.07-3.07s3.07 1.34 3.07 3.07-1.34 3.07-3.07 3.07-3.07-1.34-3.07-3.07m102.34 26.59c0-2.41 1.87-4.28 4.28-4.28s4.28 1.87 4.28 4.28-1.87 4.28-4.28 4.28-4.28-1.87-4.28-4.28m-19.77-19.91c0-2.94 2.41-5.34 5.34-5.34 2.94 0 5.34 2.41 5.34 5.34s-2.41 5.34-5.34 5.34-5.34-2.41-5.34-5.34m299.03-209.38c0-1.87 1.47-3.34 3.34-3.34 1.87 0 3.34 1.47 3.34 3.34s-1.47 3.34-3.34 3.34-3.34-1.47-3.34-3.34m-39.55 44.63c0-2.81 2.27-5.08 5.08-5.08s5.08 2.27 5.08 5.08-2.27 5.08-5.08 5.08-5.08-2.27-5.08-5.08m43.56-96.34c0 .8.67 1.47 1.47 1.47s1.47-.67 1.47-1.47-.67-1.47-1.47-1.47-1.47.67-1.47 1.47m-4.01-92.06c0 .67.67 1.47 1.47 1.47s1.47-.67 1.47-1.47-.67-1.47-1.47-1.47-1.47.67-1.47 1.47m44.09-49.83c0 .8.67 1.47 1.47 1.47s1.47-.67 1.47-1.47-.67-1.47-1.47-1.47-1.47.67-1.47 1.47m-83.64 186.79c0-2.81 2.27-5.08 5.08-5.08s5.08 2.27 5.08 5.08-2.27 5.08-5.08 5.08-5.08-2.27-5.08-5.08m-34.47 172.23c0-1.47 1.2-2.54 2.54-2.54s2.54 1.2 2.54 2.54-1.2 2.54-2.54 2.54-2.54-1.2-2.54-2.54m65.47 37.28c0-1.47 1.2-2.54 2.54-2.54s2.54 1.2 2.54 2.54-1.2 2.54-2.54 2.54-2.54-1.2-2.54-2.54m-14.03 54.78c0-1.34 1.2-2.54 2.54-2.54s2.54 1.2 2.54 2.54-1.2 2.54-2.54 2.54-2.54-1.2-2.54-2.54m23.65 49.7c0-1.34 1.2-2.54 2.54-2.54s2.54 1.2 2.54 2.54-1.2 2.54-2.54 2.54-2.54-1.2-2.54-2.54m-71.75-87.25c0-2.81 2.27-5.08 5.08-5.08s5.08 2.27 5.08 5.08-2.27 5.08-5.08 5.08-5.08-2.27-5.08-5.08m72.42-62.26c0-2.81 2.27-5.08 5.08-5.08s5.08 2.27 5.08 5.08-2.27 5.08-5.08 5.08-5.08-2.27-5.08-5.08m-75.76 109.96c0-1.34 1.2-2.54 2.54-2.54s2.54 1.2 2.54 2.54-1.2 2.54-2.54 2.54-2.54-1.2-2.54-2.54m13.49 37.28c0-1.07.94-1.87 2-2 1.07 0 2 .94 2 2s-.94 2-2 2-2-.94-2-2m5.08 18.97c0-2.54 2-4.54 4.54-4.54s4.54 2 4.54 4.54-2 4.54-4.54 4.54-4.54-2-4.54-4.54m-114.64-58.79c0-2.81 2.27-5.08 5.08-5.08s5.08 2.27 5.08 5.08-2.27 5.08-5.08 5.08-5.08-2.27-5.08-5.08m-20.45-43.15c0-2.41 1.87-4.28 4.28-4.28s4.28 1.87 4.28 4.28-1.87 4.28-4.28 4.28-4.28-1.87-4.28-4.28m-31.66-9.62c0-1.47 1.2-2.54 2.54-2.54s2.54 1.2 2.54 2.54-1.2 2.54-2.54 2.54-2.54-1.2-2.54-2.54m-27.13 30.46c0-2.94 2.41-5.34 5.34-5.34 2.94 0 5.34 2.41 5.34 5.34s-2.41 5.34-5.34 5.34-5.34-2.41-5.34-5.34m32.21 40.08c0-2.94 2.41-5.34 5.34-5.34s5.34 2.41 5.34 5.34-2.41 5.34-5.34 5.34-5.34-2.41-5.34-5.34m-44.63-9.88c0-1.47 1.34-2.81 2.81-2.81 1.6 0 2.81 1.2 2.81 2.81s-1.2 2.81-2.81 2.81-2.81-1.2-2.81-2.81m-32.2-15.5c0-2.67 2.14-4.81 4.81-4.81 2.67 0 4.81 2.14 4.81 4.81s-2.14 4.81-4.81 4.81-4.81-2.14-4.81-4.81m119.85 53.98c0-2.54 2-4.54 4.54-4.54s4.54 2 4.54 4.54-2 4.54-4.54 4.54-4.54-2-4.54-4.54"/>
  <path fill="#ded7cd" d="M507.03 450.32s3.87-20.44-16.43-35.14c-20.31-14.7-51.98 1.74-51.98 1.74 17.5-6.15 59.99 8.55 68.41 33.4"/>
  <path fill="#474747" d="M586.94 19.81c3.61-2.94 7.22-5.88 10.56-8.02-10.69 7.88 0 39.02-7.88 41.29-7.48 2.14-23.12-24.45-31.93-25.52 8.28-.13 18.44.8 29.26-7.75m-31.68 7.75h1.07-1.07"/>
</svg>