<svg xmlns="http://www.w3.org/2000/svg" id="Layer_2" viewBox="0 0 940.39 808.76">
  <defs>
    <style>
      .dg2-2{fill:#ececec}.dg2-4{fill:#e3b79b}.dg2-7{fill:#906e5c}.dg2-10{fill:#a58170}.dg2-13{fill:#d8cec8}
    </style>
  </defs>
  <path id="Layer_8" fill="#666793" d="M25.94 240.27C-1.87 255.75-2.3 289 2 313.65c8.74 47.01 30.1 92.74 65.93 127.42 18.35 17.77 41.71 32.68 69.09 37.12 8.03 1.29 16.2 1.58 24.22 1.15 6.31-.29 12.76-.72 18.78-2.58h.14c.72-.14 1-.86.72-1.43-.14-.72-.86-1-1.43-.72-5.16 1.29-10.46 2.15-15.77 2.29-7.6.43-15.19.29-22.79-.57C59.48 464.58 7.02 363.39 2.58 295.59c-1-19.64 4.16-43.72 25.51-54.18 19.78-9.32 42.71-12.18 64.07-9.89 17.63 2.01 34.11 8.46 48.59 17.06-12.9 14.91-4.3 34.97 5.59 48.16 18.78 24.08 40.99 9.6 30.53-16.05-6.59-13.62-19.21-23.94-32.25-32.54 16.05-14.33 48.45-4.44 68.8-5.59 19.21.14 37.98-7.88 51.89-19.92 22.5-18.63 25.51-48.59 15.34-72.1-6.16-14.62-16.34-28.52-31.53-36.55 10.46-26.95 8.03-57.19 24.51-82.56C297.14-2.25 345.87-1.68 376.97 19.1c-16.63 11.04-28.95 27.66-30.96 46.01-2.44 21.07 4.87 48.02 23.51 61.06 8.74 6.16 20.64 4.59 27.38-3.73 6.31-7.74 8.17-17.63 8.17-26.8 4.87 5.73 10.46 11.9 18.63 13.76 11.9 2.01 13.47-10.18 10.46-17.49-10.89-27.23-26.8-55.04-52.6-73.39 49.59-31.39 101.05-16.34 129.43 26.37 13.19 20.21 18.06 45.01 36.26 62.49 9.89 9.6 23.79 17.77 39.42 16.05 19.78-2.44 36.12-17.63 42.14-34.4 13.33 5.88 29.1 6.02 43.57 1.86 9.03-2.15 17.77-5.59 26.95-6.88 16.63-1.86 33.4 1.72 47.87 10.03 20.64 11.9 41.71 38.56 27.66 61.49-3.73-4.87-9.46-8.17-15.62-8.74-6.59-.86-16.48 1-17.63 8.17-.72 7.31 7.45 11.9 14.62 12.61 6.88.57 13.76-2.29 18.35-7.6 5.73 11.9 3.3 25.66.29 38.27-2.87 11.04-5.73 22.22-10.89 32.68-.57 1-1.15 2.01-1.72 2.87-.86 1.29 1.43 2.44 2.29 1 6.31-10.18 8.74-21.79 12.04-32.82 3.73-14.48 7.02-30.53-.29-44 18.2-27.09-10.75-60.06-37.7-70.38-13.47-5.3-29.1-7.74-44-4.73-23.79 5.73-41.14 14.76-65.07 4.3 3.01-9.46 3.44-20.21-2.29-28.52-3.58-5.45-10.75-10.18-18.35-8.46-7.88 2.01-8.6 10.61-6.02 16.05 4.3 9.75 13.47 17.2 23.51 22.07-5.45 14.91-17.34 26.37-32.25 31.53-29.53 9.17-51.74-16.91-62.06-37.55-4.16-8.31-7.6-17.06-11.75-25.51C515.73 47.6 510 39 503.12 31.26 471.44-4.14 423-10.59 379.28 17.5 359.79 4.74 333.56-1.71 309.05 4.6c-56.33 16.05-47.44 68.37-62.06 108.21-10.03-4.73-22.07-7.74-33.83-5.59-12.47 2.15-22.22 13.19-17.06 24.08 4.59 10.61 19.92 14.05 31.25 8.74 10.46-4.87 17.06-14.48 21.07-23.94 14.05 7.6 23.36 20.5 29.38 33.97 10.46 23.08 8.03 52.46-14.19 70.95-13.19 11.47-30.67 19.06-48.73 19.21-22.07 1.29-54.61-9.32-72.24 6.59-15.62-9.32-33.54-16.2-52.75-17.77-21.36-1.72-44.58 1.29-63.93 11.18m187.6-130c11.32-2.15 22.79.86 32.54 5.59-3.44 8.74-9.32 17.49-18.49 22.36-8.31 4.44-19.78 3.73-25.94-2.44-9.75-9.89-2.15-23.08 11.9-25.51m539.5 39.85c8.17-1 16.34 2.44 20.21 8.74-15.77 19.49-43.57-4.59-20.21-8.74M624.5 59.78c5.88 7.88 5.59 18.06 2.72 27.09-9.17-4.59-17.63-11.61-21.79-20.5-2.01-4.44-2.15-11.47 4.16-13.19 6.16-1.29 11.75 2.44 14.91 6.59M394.02 69.8c5.45 3.3 6.88 12.47 8.03 18.2-3.3-5.02-9.6-12.04-8.03-18.2m-44 19.64c-6.31-26.66 3.58-51.6 29.24-68.37 22.5 14.91 36.41 37.41 47.44 60.06 2.58 5.59 5.59 11.32 6.31 17.49.86 9.32-6.74 11.47-14.19 6.59-5.73-3.58-9.75-8.46-13.76-13.33-.29-3.73-.86-7.45-1.86-11.04-4.73-19.64-19.06-16.48-8.17 1.43 1.58 2.72 3.44 5.16 5.3 7.74.72 1.29 2.29 2.29 2.15 3.87 1 13.19-5.02 37.84-24.94 33.68-16.05-4.87-24.22-24.22-27.52-38.13M148.64 296.11c-8.89-11.9-17.2-29.96-7.17-43.86.43-.57 1-1.15 1.43-1.72 12.18 7.88 23.94 17.34 30.67 29.67 11.18 22.65-6.31 39.13-24.94 15.91"/>
  <g id="Layer_6">
    <path d="M213.45 630.03c12.53 39.13 64.46 57.7 75.15 98.38 6.19 23.36-13.09 47.57-36.17 54.32-23.22 6.61-48.13-.14-70.09-9.99-8.3-3.66-16.89-8.3-21.39-16.33-4.36-8.02-2.53-20.13 6.05-23.5-13.65-1.13-27.87-2.39-40.25-8.3-12.38-5.91-22.94-18.01-22.94-31.81 0-13.79 13.79-27.16 27.02-23.36-22.52-13.37-37.3-36.87-39.69-63.05-.99-10.98 2.81-24.91 13.65-26.88 9.01-1.55 16.75 6.19 22.66 13.23-3.52-40.25-5.35-85.43 21.39-115.55 3.94-4.36 9.15-8.59 14.92-7.6 1.55 10.27 2.67 20.55 3.24 30.82 6.33-19.28 13.23-39.13 27.16-53.9 13.93-14.64 37.3-22.66 55.03-12.81-15.34 29.41-31.1 59.39-37.01 92.04-3.1 16.75-3.52 33.78-3.8 50.81-.28 18.01-.42 36.31 5.07 53.48M432.3 29.78c2.11 0 4.08.42 6.05 1.13 4.22 1.69 7.88 4.64 11.68 7.32 8.3 5.91 17.45 10.84 27.02 14.64-6.47 4.08-13.65 6.76-21.11 8.02-2.67.42 1.97 26.88 2.11 29.84.84 11.26-.28 23.64-8.3 32.23-6.76 7.18-17.03 9.85-26.32 6.9-4.64-1.69-8.87-4.5-12.1-8.3-24.07-26.46-5.07-56.01 7.74-81.63 1.41-2.96 3.1-6.05 5.77-8.02 2.25-1.55 4.79-2.25 7.46-2.11m-20.13 682.42c-7.46 24.91-10.56 50.52-5.49 75.72.99 4.64 2.25 9.43 5.63 12.81 4.5 4.5 11.4 5.35 17.87 5.35 18.86 0 37.15-5.21 55.31-10.41 2.96-.84 6.33-2.11 6.9-5.07.84-3.8-3.66-6.33-7.32-7.6-7.88-2.53-15.9-4.79-23.93-6.61 10.41-3.8 15.34-15.34 19.14-25.75 12.67-34.62 23.93-69.67 34.06-105.13 5.07-17.73 9.85-36.17 8.16-54.61-.84-9.71-4.64-20.55-13.51-24.63-4.36-1.83-9.01-2.25-13.65-1.55-16.04 2.11-29.84 13.23-38.84 26.6s-14.07 29.13-19 44.47c-9.29 28.85-22.52 57-30.4 86.27l5.07-9.85" class="dg2-7"/>
    <path d="M219.64 736.28c-3.24-31.81-4.22-63.89-2.81-95.98 1.41-28.85 4.64-58.12 15.76-84.72 11.54-27.58 32.09-50.1 43.35-77.69 10.98-27.16 14.92-56.58 19-85.43 4.79-33.78 11.26-66.43 27.44-96.69 10.27-19.14 25.05-38.42 22.8-61.5-.42-3.24-.99-6.47-1.83-9.71-3.94-15.34-12.1-29.98-6.9-45.88 5.07-15.62 9.99-31.24 18.44-45.46 16.89-28.57 44.75-49.26 78.81-49.4 14.21-.14 29.13 2.25 40.39 10.98 3.52 2.81 6.61 6.05 10.7 7.6 9.85 3.66 21.11-3.66 30.54-5.91 11.68-2.67 23.5-4.93 35.33-6.61.99-.28 2.11-.14 3.24.14.84.42 1.41.99 1.97 1.69 8.44 9.85 12.1 25.47 13.09 38.14.7 11.96-8.02 16.75-19.14 18.16-7.04.99-14.36.14-21.53.28-4.79.14-9.71.56-13.93 2.96-4.22 2.25-7.46 6.9-6.9 11.68.56 4.79 4.93 8.59 9.57 9.85 4.64 1.27 9.71.56 14.5-.42 6.76-1.41 11.4-5.21 17.45-8.02 4.08-1.97 7.88-5.07 12.24-4.36.42.14.7.14.99.42.42.56.56 1.27.28 1.83-.99 5.35-5.21 7.88-9.43 10.56-5.07 3.1-9.71 6.9-14.92 9.71-13.79 7.46-27.3 9.99-38.42 21.25-9.71 9.99-20.13 20.97-21.25 34.9-1.41 17.45 10.27 29.13 17.59 43.21 2.11 3.94 3.8 7.88 5.49 11.96 4.5 11.26 7.88 22.94 9.85 34.9 5.77 33.07 3.94 66.99 1.13 100.21-3.24 38.84-8.02 77.41-12.67 116.11-4.22 35.61-12.81 70.51-18.16 106.26-3.38 22.38-5.91 44.75-9.85 66.99-2.67 15.62-6.33 31.24-13.65 45.32-19.56 37.44-62.35 29.98-98.52 26.04-24.07-2.67-48.27-2.96-72.34-1.13-11.68.84-23.78 2.25-35.04-.99-23.93-6.9-30.4-29.27-32.65-51.23" class="dg2-7"/>
    <path d="M227.67 534.47c19-12.67 40.95-.56 56.01 12.24 23.5 19.98 31.67 59.81 37.58 88.38 5.21 26.32 7.6 53.06 7.32 79.8-.14 17.59 3.38 36.17-1.13 53.48-1.83 7.18-7.6 12.81-3.1 19 3.52 4.79 15.2 6.33 17.17 11.82 3.66 10.7-12.81 8.73-19.56 8.44-17.59-.84-35.04-2.25-52.5-4.36 1.83-4.5-2.67-9.29-7.32-10.7s-9.71-.7-14.36-2.11c-18.44-5.49-36.31-32.09-42.5-48.84-7.74-20.97-9.29-43.77-9.29-66.15.14-35.18 4.22-70.23 12.1-104.57 3.1-13.79 7.74-28.57 19.56-36.45" class="dg2-10"/>
    <path d="M339.83 587.52c-8.44-47.01-17.59-93.03-18.44-140.88-.42-16.89.28-34.06 6.05-49.82 4.08-10.84 12.1-21.96 23.78-22.94 40.25-3.38 50.81 68.54 52.35 95.56 5.91 102.03-21.96 203.23-23.5 305.4 0 1.97.14 4.22 1.55 5.63 1.55 1.41 3.8 1.27 5.91 1.55 7.04 1.13 12.1 7.6 11.4 14.78-9.15.84-18.3.84-27.44.28-2.53-.14-5.35-.56-7.04-2.39s-1.83-4.36-1.97-6.76c-3.1-67.27-10.7-134.26-22.66-200.41" class="dg2-4"/>
    <path d="M485.92 636.08c-13.23 49.4-30.54 97.25-41.24 147.49-.42 1.97-.7 4.08.42 5.77s3.52 1.97 5.49 2.67c6.76 2.53 10.27 9.85 8.3 16.75-9.01-1.13-18.01-2.81-26.88-5.21-2.39-.56-5.07-1.55-6.33-3.66s-.99-4.64-.56-7.04c4.22-27.73 7.46-52.07 7.6-80.36.14-31.95.7-63.89 1.83-95.7.28-8.44.7-16.75.99-25.19 2.25-55.31 5.77-110.62 10.7-165.79.7-8.73 1.69-17.73 5.35-25.75 10.27-22.24 40.95-17.73 53.34.56 18.16 26.74 11.12 67.13 8.58 97.25-2.25 25.19-6.33 50.1-12.53 74.59-5.35 21.25-9.43 42.5-15.06 63.61" class="dg2-10"/>
    <path d="M328.43 58.35c1.69-1.13 3.66-1.69 5.77-1.83 13.93-.7 35.75 22.1 44.61 30.54 12.24 11.68 29.84 27.3 27.87 46.16-1.13 9.71-7.6 18.01-16.89 21.25-4.79 1.41-9.85 1.55-14.64.56-16.18-3.24-28.99-16.61-35.89-31.67-4.22-9.15-6.47-18.86-8.87-28.57-2.11-8.44-10.98-30.12-1.97-36.45" class="dg2-4"/>
    <path d="M336.46 178.68c5.07-15.62 9.99-31.24 18.44-45.46 16.89-28.57 44.75-49.26 78.81-49.4 14.21-.14 29.13 2.25 40.39 10.98 3.52 2.81 6.61 6.05 10.7 7.6 9.85 3.66 21.11-3.66 30.54-5.91 11.68-2.67 23.5-4.93 35.33-6.61.99-.28 2.11-.14 3.24.14.84.42 1.41.99 1.97 1.69 8.44 9.85 12.1 25.47 13.09 38.14.7 11.96-8.02 16.75-19 18.16-7.04.99-14.36.14-21.53.28-4.79.14-9.71.56-13.93 2.96-4.22 2.25-7.46 6.9-6.9 11.68.56 4.79 4.93 8.59 9.57 9.85s9.71.56 14.5-.42c6.76-1.41 11.4-5.21 17.45-8.02 4.08-1.97 7.88-5.07 12.24-4.36.42.14.7.14.99.42.42.56.56 1.27.28 1.83-.99 5.35-5.21 7.88-9.43 10.56-5.07 3.1-9.71 6.9-14.92 9.71-13.79 7.46-27.3 9.99-38.42 21.25-9.71 9.99-20.13 20.97-21.25 34.9-1.41 17.45 10.27 29.13 17.59 43.21 3.94 7.88 5.91 11.82 2.25 19.98-3.1 7.32-7.6 13.93-13.23 19.42-1.83 1.97-4.08 3.24-6.61 3.8-6.05.7-10.13-5.77-12.53-11.4-8.87 12.95-18.44 25.33-28.57 37.15-1.83 2.11-3.8 4.36-6.61 4.79-4.08.7-7.74-2.96-9.29-6.9-1.55-3.94-1.97-8.16-4.08-11.82-2.81 1.83-4.5 5.07-6.76 7.74s-5.91 4.79-9.01 3.24c-1.69-.99-2.96-2.39-3.8-4.08-8.44-14.21-15.76-29.27-21.81-44.75-.99 4.79-2.11 9.43-3.1 14.21-3.38.56-6.47-2.11-8.59-4.93-8.3-10.84-10.7-25.05-12.95-38.56.42 2.53-.7 5.21-2.96 6.61-1.83-17.17-2.67-34.76-5.63-51.79-2.67-15.34-11.68-29.84-6.47-45.88" class="dg2-4"/>
    <path d="M332.51 168.97c-.99-.28-1.97-.56-2.96-.84-.28-.99-.56-1.83-.84-2.81l3.8 3.66Z" class="dg2-10"/>
    <path fill="#312b2c" d="M447.78 113.16c-1.13.42-1.83 1.55-1.69 2.53.42 1.13 1.69 1.97 2.67 2.53 1.27.7 2.53 1.13 3.94.99h.7c.7 0 1.27-.42 1.55-.99.42-.7.28-1.69-.14-2.39-.56-1.41-1.83-2.53-3.24-2.96-.56-.14-.99-.14-1.55-.14-.84-.14-1.55.14-2.25.42m25.48-12.86c-.42 1.13 0 2.39.84 3.24.99.99 2.39 1.69 3.8 1.83.56.14 2.11 0 2.53-.7.56-.14 1.13-.56.7-1.13-.7-1.27-1.69-2.53-2.81-3.52-.14 0-.14-.14-.28-.14-.42-.42-.84-.56-1.27-.56-1.27-.56-2.67-.14-3.52.99m70.24-11.69c-5.35 2.11-11.68 8.44-7.74 14.5.42.56.99 1.13 1.55 1.69s1.27.99 1.97 1.41c0 .14.14.14.14.14.28 0 .56.14.84.28 1.27.56 2.67.7 4.08.56 2.81 0 5.49-.7 7.88-2.11 3.24-1.69 5.49-4.5 6.47-7.88.42-1.55.42-3.1 0-4.64 0-.7-.14-1.27-.28-1.83-1.13-3.52-5.21-3.94-9.15-3.52-1.27.14-2.53.28-3.66.7-.84.28-1.55.42-2.11.7"/>
    <path d="M337.86 65.81c-4.5 3.94 1.55 18.01 3.66 21.96 8.16 18.58 18.16 35.33 36.45 45.32.84.42 3.38-.42 1.97-1.13-13.37-7.32-22.38-18.01-29.27-31.24-3.52-6.19-6.47-12.53-8.87-19.14-.99-2.81-3.24-8.58-1.97-11.54 1.83-4.79 7.46-.7 10.41.7.84.42 3.38-.42 1.97-1.13-3.1-1.41-11.12-6.61-14.36-3.8m217.87 41.24c1.97 5.77 3.38 11.96 3.94 18.01.42 4.93 1.27 12.24-1.83 16.33-.7.84 2.11 1.27 2.67.42 3.38-4.36 2.39-11.54 1.97-16.75-.56-6.19-1.97-12.53-4.08-18.44-.28-.99-3.1-.7-2.67.42" class="dg2-7"/>
    <path d="M391.06 465.08c-.28-1.13-3.1-.99-2.81 0 1.83 10.56 3.1 21.39 3.52 32.23 0 1.13 2.81.99 2.81 0-.42-10.84-1.55-21.53-3.52-32.23m-10.13 22.24c-.14-.99-2.96-.99-2.81 0 .56 5.77.99 11.4 1.55 17.17.14 1.13 2.96.99 2.81 0-.56-5.77-.99-11.4-1.55-17.17m-33.92-29.27c-.14-1.13-2.96-.99-2.81 0 1.27 8.3 2.39 16.75 3.52 25.05.14 1.13 2.96.99 2.81 0-1.27-8.3-2.39-16.75-3.52-25.05m8.73-46.73c0-.99-2.81-.99-2.81 0 .56 13.37 1.69 26.74 3.38 40.11.14 1.13 2.96.99 2.81 0-1.69-13.23-2.81-26.6-3.38-40.11m1.54 154.11c-.14-.99-2.96-.99-2.81 0 1.27 9.99 2.96 19.84 5.21 29.55.28 1.13 3.1.99 2.81 0-2.25-9.85-3.94-19.7-5.21-29.55m23.12-2.91c0-.93-2.66-.93-2.66 0v20.32c0 1.06 2.66 1.06 2.66 0V562.7" class="dg2-10"/>
    <path d="M505.06 427.08c0-.99-2.81-.99-2.81 0 .28 8.16.42 16.18.7 24.35 0 1.13 2.81.99 2.81 0-.28-8.16-.42-16.18-.7-24.35M486.63 417c0-1.06-2.66-.93-2.66 0v20.32c0 1.06 2.66 1.06 2.66 0v-20.67m-30.41 60.68c-.99 11.68-1.55 23.36-1.55 35.18 0 1.13 2.81 1.13 2.81 0 0-11.82.56-23.5 1.55-35.18.14-.99-2.67-1.13-2.81 0m18.72 55.17c-.7 4.79-1.41 9.57-2.11 14.36-.14.99 2.67 1.13 2.81 0 .7-4.79 1.41-9.57 2.11-14.36.14-.99-2.67-1.13-2.81 0m19.85-54.47-4.5 24.35c-.14.99 2.67 1.13 2.81 0l4.5-24.35c.14-.99-2.67-1.13-2.81 0m-11.26 106.68-4.93 17.17c-.42 1.13 2.39 1.41 2.67.42 1.69-5.63 3.24-11.4 4.93-17.17.42-1.13-2.39-1.41-2.67-.42m-23.79 6.61c-.28 5.77-.56 11.4-.7 17.17 0 .99 2.81 1.13 2.81 0 .28-5.63.42-11.4.7-17.17 0-.99-2.81-1.13-2.81 0m-184.51-21.11c-.7-.7-3.38-.28-2.39.84 5.35 6.33 9.71 13.51 12.67 21.25.28.99 3.1.7 2.67-.42-2.96-7.88-7.46-15.2-12.95-21.67m8.03 38.85c-.28-.99-3.1-.7-2.67.42 3.1 9.57 5.63 19.42 7.6 29.27.28 1.13 2.96.99 2.81 0-2.11-10.13-4.64-19.98-7.74-29.7m-81.49 36.74c-.56 12.24 1.41 24.63 5.77 36.03.28.99 3.1.7 2.67-.42-4.36-11.4-6.19-23.5-5.63-35.61 0-.99-2.81-1.13-2.81 0m26.74 59.53c-.14-1.13-2.96-1.13-2.81 0 .99 9.99 5.63 19.28 13.09 26.04.7.56 3.38 0 2.39-.84-7.18-6.47-11.68-15.48-12.67-25.19m16.18-41.1c-.42-.99-3.24-.7-2.67.42 2.67 7.32 5.07 14.64 7.04 22.24.28.99 2.96.7 2.67-.42-1.97-7.46-4.36-14.92-7.04-22.24m-7.31-69.53c-.14-.99-2.96-.7-2.67.42 2.25 8.73 4.79 17.31 7.6 25.9.28.99 3.1.7 2.67-.42-2.96-8.44-5.49-17.17-7.6-25.9m14.35-37.72c-.14-1.13-2.96-.99-2.81 0 2.67 13.65 5.35 27.16 8.02 40.81.28 1.13 2.96.99 2.81 0l-8.02-40.81m9.43 81.63c-.14-1.13-2.96-.99-2.81 0l2.25 18.58c.14 1.13 2.96.99 2.81 0l-2.25-18.58m-35.89-20.83c-.28-.99-2.96-.84-2.81 0 1.41 7.46 2.81 14.78 4.22 22.24.28 1.13 2.96.99 2.81 0-1.41-7.46-2.81-14.78-4.22-22.24m84.59 68.12c-.14-.99-2.96-.84-2.81 0 2.67 14.07 4.36 28.15 5.07 42.36 0 1.13 2.81.99 2.81 0-.7-14.21-2.39-28.43-5.07-42.36m-25.76 21.53c-.28-1.13-2.96-.99-2.81 0 1.97 9.01 4.5 18.01 7.74 26.74.28.99 3.1.7 2.67-.42-3.1-8.59-5.63-17.31-7.6-26.32m-11.54 45.74c-.42-.99-3.24-.7-2.81.42 3.52 6.61 7.04 13.09 10.56 19.56.42.84 3.24.56 2.67-.42-3.38-6.61-6.9-13.09-10.41-19.56m-39.42-3.66c-.56-.84-3.24-.56-2.67.42 4.08 7.18 9.57 13.65 16.04 18.72.7.56 3.38 0 2.39-.84-6.47-4.93-11.82-11.26-15.76-18.3" class="dg2-7"/>
    <path d="M430.89 74.4c-.56.14-1.13.28-1.27.99-.14.99.28 1.83.99 2.39s2.53.56 2.67-.42c.84-6.19 1.83-12.24 2.67-18.44 4.08 1.83 8.73 2.53 13.23 1.97 1.97-.28.7-1.69-.7-1.55-4.36.56-8.87-.42-12.67-2.81-.56-.28-2.25-.42-2.39.56-.84 5.77-1.69 11.54-2.53 17.31" class="dg2-10"/>
    <path d="M440.04 110.71c-1.27 2.11-2.25 6.47.28 8.02.42.28 2.39.28 2.25-.56-.14-1.55 0-2.96.28-4.5.14-1.13.99-3.94 2.53-3.8.56.14 1.27-.14 1.55-.7.28-.14.42-.56-.14-.84-2.39-1.55-5.35.14-6.76 2.39m26.24-13.38q.14.14 0 0c.28.84 2.39.7 2.53-.14.32 0 .63-.36.55-.67l.09-.2c.96-.27 1.92-.4 2.88-.4.56 0 1.27-.42.84-.99-.7-.84-1.69-1.27-2.81-1.27-.84-.28-1.83-.14-2.53.28-.7.42-1.13 1.13-1.27 1.97-.28.42-.42.99-.28 1.41Z" class="dg2-7"/>
    <path d="M202.05 464.66c-7.88 11.68-13.37 24.49-16.33 38.14-.28.84 2.25.99 2.53 0 3.1-13.51 8.59-26.32 16.33-37.72.56-.84-1.97-1.27-2.53-.42m-35.61 52.64c-3.38 11.12-5.07 22.8-4.79 34.62 0 .99 2.53.99 2.53 0-.14-11.54 1.41-23.08 4.79-34.2.28-1.13-2.25-1.27-2.53-.42m-28.57 12.66c-1.55 10.98-1.83 22.1-.84 33.21 0 .99 2.67.99 2.53 0-.99-11.12-.56-22.24.84-33.21.14-.99-2.39-.99-2.53 0m41.8 40.54c-.56 7.88-.14 15.9 1.27 23.93.14.99 2.67.84 2.53 0-1.41-7.88-1.69-15.9-1.27-23.93.14-.99-2.53-.99-2.53 0m-27.86 14.49c-.7 11.12.56 22.1 3.8 32.79.28.84 2.81.7 2.53-.42-3.24-10.56-4.5-21.39-3.8-32.37.14-.99-2.53-.99-2.53 0m19.28 41.1c-.7 10.98.84 21.81 4.36 32.09.28.84 2.96.56 2.53-.42-3.52-10.13-5.07-20.97-4.36-31.67.14-.99-2.53-.99-2.53 0M112.18 613l.14.14c1.69 9.85 5.35 19.28 10.56 27.87.56.7 3.1.42 2.53-.42-5.35-8.73-8.87-18.16-10.7-28.15-.14-.99-2.67-.99-2.53 0v.56Zm32.17 21.11c-.14-.99-2.67-.99-2.67 0 1.41 11.12 4.64 21.81 9.43 31.95.42.84 2.96.56 2.53-.42-4.79-9.85-7.88-20.55-9.29-31.53m-3.94 57.7c-.28-1.13-2.81-.99-2.67 0 1.97 9.43 6.61 18.16 13.23 25.19.56.7 3.1.14 2.25-.7-6.47-6.9-10.84-15.34-12.81-24.49m28.57 1.27c-.28-.99-2.81-.84-2.67 0 1.97 9.57 5.77 18.58 11.26 26.74.56.7 3.1.42 2.53-.42-5.35-8.02-9.15-16.89-11.12-26.32M467.2 236.1c-1.55 5.21-2.53 10.41-2.67 15.62-.14.99 2.53.99 2.53 0 .28-5.07 1.27-10.27 2.67-15.2.28-1.13-2.25-1.27-2.53-.42m-17.73 4.08c-2.11 6.47-3.52 13.23-4.08 20.13-.14.99 2.39.99 2.53 0 .56-6.76 1.97-13.37 4.08-19.7.28-1.13-2.25-1.27-2.53-.42m4.78 33.77-.42 5.77c-.14.99 2.39.99 2.53 0l.42-5.77c.14-.99-2.39-.99-2.53 0m-104.28-45.6c-.28 7.88.56 15.62 2.67 23.22.28.84 2.81.7 2.53-.42-2.11-7.46-2.96-15.06-2.67-22.8.14-.99-2.53-.99-2.53 0m35.75 42.12c0-1.03-2.8-1.03-2.66 0v16.67c0 1.03 2.66 1.03 2.66 0v-16.57m34.47 32.51c-.7 5.21-1.41 10.56-2.11 15.9-.14.99 2.39.99 2.53 0 .7-5.35 1.41-10.56 2.11-15.9.14-.99-2.39-.99-2.53 0m-10.13-57.98c-.14 5.07-.28 10.13-.42 15.06-.14.99 2.53.99 2.53 0 .14-5.07.28-9.99.42-15.06.14-.99-2.53-.99-2.53 0" class="dg2-10"/>
  </g>
  <g id="Layer_5">
    <path fill="#784421" d="M535.62 402.58c6.94-3.47 11.79-3.61 17.2-9.02 10.27-10.27 28.44-24.97 18.17-43.84-27.61-23.58-47.45 12.49-54.24 34.82 4.44 4.44 12.35 14.84 18.87 18.04m171.19 2.64c-17.34-4.99-46.61-28.16-40.37-53.41 23.31-7.91 46.61 21.64 54.11 37.32-4.16 5.69-8.74 11.1-13.73 16.09"/>
    <path d="M687.11 648.69c-8.6-15.54-46.34-14.57-51.47.28-4.72 5.97-4.86 13.18-10.82 19.56 3.75 3.75 5.55 6.24 13.04 12.9-4.86 3.61-7.91 8.05-11.65 12.62 2.5 3.88 7.91 5.97 11.65 12.07-3.61 4.58-7.91 8.6-12.62 11.93 3.75 2.77 6.94 7.49 11.38 11.51-.28 11.24-2.64 50.08 5.69 65.76 5.41 9.99 13.6 10.54 23.86 10.27 16.51-.28 15.95-23.72-.14-28.86.97-14.29-.55-23.72 3.47-40.79 6.24-3.05 10.54-7.08 18.04-9.99-2.77-2.77-3.61-7.35-7.77-11.65 3.47-1.66 9.57-2.91 13.04-3.88-5.55-4.3-6.38-9.99-11.65-13.04 2.91-1.39 10.27-4.99 14.71-7.08-4.3-4.58-8.19-9.71-11.51-15.12 4.86-1.25 7.91-5.13 16.23-4.99-3.61-7.21-11.24-14.29-13.46-21.5m-83.81-1.25c-8.46-24-63.96-20.95-61.6 4.99 3.88 5.69 7.21 10.27 10.54 15.4-3.75 3.88-7.35 8.19-10.4 12.62 4.16 4.16 9.43 7.35 15.12 9.16-3.75 5.69-6.8 10.54-10.68 15.54 2.08 2.64 9.99 5.13 14.29 5.97-2.36 4.72-7.63 7.77-10.96 10.54 4.3 4.02 9.02 7.77 13.87 11.1 3.33 15.4 4.86 31.21 4.58 47.03-9.99 9.29-11.65 24.14 3.33 26.22 13.18 1.94 24.28.42 25.25-18.04 1.11-19.7 1.39-38.98 1.11-54.94 4.44-1.94 8.19-5.27 10.68-9.43-4.72-2.5-9.02-5.55-13.04-9.16 3.05-3.05 9.02-3.61 11.79-5.97-4.72-4.86-5.69-7.77-11.79-9.85 4.02-4.02 4.44-5.69 10.82-7.91-2.64-2.64-5.83-7.35-9.85-9.85 2.08-2.08 5.27-6.1 9.85-8.88-3.88-3.88-6.66-8.6-10.82-12.76 1.66-6.24 6.38-8.32 7.91-11.79" class="dg2-2"/>
    <path d="M593.47 801.85c13.73 1.53 41.62-2.5 50.64 0 7.35-.97 23.31-2.64 34.27-.69 3.05-2.91 12.35-7.63 14.57-12.76 6.52 4.16 14.15 6.24 22.47 12.07 1.25-4.72 1.39-14.29 2.64-20.81 4.86-1.25 9.99-2.22 15.54 0-.69-9.57-1.8-18.59-6.52-28.58 5.13-2.5 11.93-5.41 19.42 2.64-1.94-7.91-5.55-15.4-10.4-22.06 4.86-2.36 10.13-3.75 15.54-3.88-5.41-7.08-11.51-15.68-16.93-24.69 4.44-2.22 12.21-3.47 18.17-6.52-6.38-6.38-14.71-16.23-23.45-23.45 3.47-1.8 9.85-3.33 14.29-6.52-5.27-5.27-9.71-12.76-16.93-20.81 5.13-2.5 9.99-6.24 18.17-7.77-6.52-6.52-16.65-17.06-20.81-27.33 3.61-3.61 9.71-6.8 16.93-9.16-9.16-6.8-17.2-14.57-23.45-25.94 4.44-4.3 9.02-7.21 16.93-11.65-8.74-4.3-19.14-11.24-23.45-22.06 4.44-2.22 8.05-2.5 11.65-7.77-5.69-5.69-15.4-13.87-18.17-23.45 7.91-1.94 17.48 3.61 19.84 4.3-.55-9.99-3.88-15.82-16.37-26.08 7.63 0 18.04 5.69 24.56 8.88-1.94-4.16-10.54-19.01-19.42-26.64-10.68-29.13-80.88-116.12-80.46-126.11-4.44 0-11.51.42-19.28.69-21.64 41.48-71.03 94.75-91.01 127.36-7.77 9.71-16.93 16.37-15.82 26.22 8.05-6.1 16.23-6.24 24-8.6-11.1 9.16-16.79 14.71-19.7 23.03 4.3.14 11.65 2.5 15.68 3.47-9.02 5.83-17.06 15.68-23.45 22.06 6.24 3.61 13.04 3.88 18.17 6.52-7.35 8.05-16.93 13.04-20.81 20.81 6.66 2.77 8.05 4.16 11.65 11.65-4.02 1.11-14.01 7.49-20.81 14.29 6.24 4.16 11.65 9.02 16.93 13.04-9.71 6.38-17.06 12.21-22.06 22.75 5.27 2.91 9.57 7.63 13.6 13.6-4.99 11.79-12.07 21.5-16.23 29.83 6.94 6.66 13.6 5.13 18.17 5.13-2.22 9.99-8.19 15.12-11.65 22.06 6.52 3.19 8.46 4.02 13.04 5.13-5.13 9.99-7.91 17.06-14.29 23.45 7.77 1.8 8.32 0 13.04 0-4.02 9.43-8.05 16.79-10.4 25.94 9.02.69 15.82 3.19 23.45 1.25-5.83 7.21-9.85 15.4-8.19 22.06 7.63-.14 15.26 1.66 21.09-1.25-6.24 11.51-2.36 15.12-2.64 20.81 7.77-3.19 15.26-9.02 23.17-10.96 1.53 4.3 7.63 9.02 12.49 16.37 14.29-2.91 21.5-2.22 32.6.14" class="dg2-2"/>
    <path fill="#aa5a26" d="M713.05 470.97c-10.96 8.46-28.16 5.13-35.38-5.55-10.27-5.13-23.86-14.01-23.45-29.55-8.05-8.05-11.24-19.42-10.54-31.77-5.69-5.55-11.51-12.35-9.85-25.67-4.72-9.57-8.6-20.95-3.05-33.85 16.65 0 31.08.97 35.93 4.44 9.57 12.9 21.23 27.61 27.05 34.54 17.9 12.07 17.62 56.6 41.06 94.48-9.43-5.27-14.71-6.66-21.78-7.08m-166.46-87.52c7.77-10.68 13.18-33.99 28.02-35.65 9.99-.97 25.8-2.22 41.76-2.77.42 6.8-.83 13.6-3.75 19.84 7.08 11.1 4.16 16.79 0 24.97 2.5 9.85-1.94 15.68-9.02 21.23.83 3.47.83 22.06-10.54 24.97 2.36 12.49-5.13 24.56-17.34 28.02-4.72 9.99-10.4 8.88-18.59 9.43-5.83 8.32-28.44 6.52-34.54.14-8.05 2.77-16.23 5.13-24.42 6.94 32.6-54.8 33.85-91.15 48.42-97.11"/>
    <path fill="#ccc" d="M687.39 646.19c-.28-.14-.69 0-1.39.28-1.25.42-1.94 1.94-1.53 3.19 2.22 7.08 7.63 13.04 11.38 18.73-2.08.28-4.02.97-5.97 1.8-2.08 1.25-4.16 2.08-6.38 2.91-.14 0-.42.14-.69.28-1.25.69-1.53 2.36-.83 3.47 3.05 4.58 6.24 8.88 9.85 12.9-4.3 2.08-9.71 4.58-12.07 5.83-.42.14-.69.42-.97.83-.69 1.11-.42 2.77.83 3.47 1.94 1.25 3.61 3.19 4.86 5.27.83 1.25 2.5 2.77 3.75 4.16-3.33.55-6.52 1.53-9.71 2.91-.14.14-.42.28-.55.42-.97.97-.97 2.64 0 3.61 2.77 2.91 4.02 5.97 5.97 9.02-6.1 2.77-10.54 6.24-15.68 8.74-.69.42-1.25.97-1.39 1.66-4.02 17.48-2.5 27.19-3.47 41.2-.14 1.25.69 2.36 1.8 2.64 6.24 1.8 10.4 7.49 10.54 13.87.14 2.64-.69 5.13-2.22 7.08-1.94 2.08-4.72 3.19-7.49 3.05-5.13.14-9.43 0-12.9-1.11-3.47-1.11-6.24-3.19-8.74-7.77-3.75-6.94-5.27-20.53-5.69-33.43-.42-12.9.28-25.25.42-30.94 0-.69-.28-1.39-.83-1.94-3.33-3.05-6.24-6.52-9.43-9.43 4.02-3.05 7.77-6.66 10.82-10.68.69-.83.69-2.08.14-2.91-1.8-2.91-4.16-5.41-6.8-7.49-1.25-1.11-2.5-2.22-3.61-3.47 3.19-4.02 5.83-7.63 9.71-10.54.14 0 .28-.14.42-.28.83-1.11.83-2.64-.28-3.61-4.02-3.47-7.77-7.21-11.38-11.24 2.08-2.77 3.75-5.69 4.99-8.74 1.11-3.19 2.64-6.24 4.58-9.02.83-.97.69-2.64-.42-3.47-1.11-.83-2.77-.69-3.61.42-2.22 3.05-4.02 6.52-5.27 10.27-1.11 3.33-3.05 6.52-5.41 9.16-.83.97-.83 2.5.14 3.47 3.05 3.05 5.97 6.24 11.1 11.1-3.47 3.33-6.8 7.08-9.85 10.96-.69.83-.69 1.94-.14 2.91 1.66 2.36 3.75 4.3 5.97 5.97 1.66 1.39 3.19 2.91 4.44 4.72-3.05 3.75-6.66 7.08-10.54 9.99-.28.14-.42.28-.55.55-.83 1.11-.55 2.64.55 3.47 3.05 2.36 6.24 6.52 10.4 10.54-.28 5.83-.83 17.48-.42 30.24.42 13.18 1.66 26.91 6.24 35.65 2.36 4.86 6.52 8.46 11.51 10.27 4.44 1.53 9.29 1.53 14.57 1.39 4.16 0 8.19-1.66 11.1-4.86 2.36-2.91 3.61-6.66 3.47-10.4-.14-7.77-4.99-14.84-12.21-17.76.69-13.18-.14-22.47 3.19-37.73 5.97-3.19 10.13-6.8 16.65-9.3.42-.14.69-.28.97-.55.97-.97.97-2.64 0-3.61-1.53-1.53-3.05-4.86-5.55-8.46 3.05-1.11 6.8-2.22 9.57-2.91.55-.14 1.11-.55 1.39-.97.83-1.11.55-2.64-.55-3.47-2.08-1.66-4.02-3.88-5.41-6.24-1.11-1.25-2.36-2.5-3.61-3.75 3.61-1.8 8.32-4.02 11.79-5.69.28-.14.55-.28.69-.42.97-.97 1.11-2.64.14-3.61-3.61-3.88-6.66-8.05-9.43-12.49 1.25-.55 2.64-1.11 3.88-1.66 2.5-1.25 5.41-1.8 8.32-1.66.42 0 .83-.14 1.25-.28 1.25-.69 1.8-2.22 1.11-3.47-4.02-8.05-11.38-14.98-13.32-21.23-.28-.97-1.25-1.66-2.22-1.8m-83.6-.98c-1.1-.14-2.21.41-2.9 1.93-.97 1.52-2.21 2.9-3.45 4.14-2.21 2.21-3.73 4.97-4.55 8.01-.14.83.14 1.79.69 2.35 3.17 3.31 5.8 7.04 8.97 10.63-2.9 2.35-5.52 4.83-8.01 7.45-.14.14-.28.41-.41.55-.69 1.24-.28 2.76.97 3.45 2.48 1.52 4.69 4.28 6.9 6.9-1.24.55-2.48 1.1-3.73 1.93-1.66 1.38-2.76 2.76-4.69 4.69-.28.28-.41.55-.55.97-.55 1.24.14 2.76 1.52 3.17 2.07.55 3.86 1.79 5.38 3.31.83.83 2.07 2.21 3.04 3.31-.83.41-1.38.69-2.48 1.1-2.48.69-4.97 1.93-6.9 3.73-.97 1.1-.83 2.62.14 3.59 3.31 3.04 7.04 5.52 11.04 7.73-2.07 2.9-4.83 5.11-8.01 6.49-.97.41-1.52 1.38-1.52 2.35.28 15.74-.14 34.92-1.1 54.52-.41 8.7-2.9 12.56-6.63 14.49-3.73 2.07-9.25 2.07-15.6 1.1-2.48-.14-4.83-1.24-6.76-2.9-1.24-1.24-1.93-3.04-1.93-4.97-.14-4 2.35-9.52 6.9-13.66.41-.41.69-1.1.69-1.79.28-16.01-1.24-32.02-4.69-47.62-.14-.55-.55-1.1-1.1-1.52-3.86-2.76-7.59-5.8-11.04-8.97 3.04-2.21 6.76-4.97 8.97-9.39.14-.14.28-.28.28-.55.28-1.38-.55-2.76-1.93-3.04-2.62-.55-5.11-1.24-7.59-2.21-1.38-.41-2.62-1.1-3.73-1.93 3.31-4.28 6.07-8.56 9.25-13.39.14-.14.28-.28.28-.41.55-1.38-.14-2.76-1.38-3.31-4.55-1.52-8.7-4-12.28-7.18 2.62-3.73 5.52-7.18 8.7-10.49.69-.83.83-2.07.28-3.04-3.31-5.25-6.49-9.8-10.49-15.46v-.14c-.83-1.1-2.48-1.38-3.59-.55-1.1.83-1.38 2.48-.55 3.59 3.59 5.11 6.63 9.25 9.52 13.66-3.31 3.45-6.49 7.18-9.25 11.18-.69.97-.55 2.35.28 3.17 3.73 3.59 8.28 6.49 13.11 8.42-3.04 4.55-5.66 8.83-8.83 12.84-.69.97-.69 2.21 0 3.17 1.79 2.35 4.42 3.31 7.32 4.42 1.52.69 2.9.97 4.42 1.38-2.48 2.62-5.11 4.97-8.01 7.18l-.28.28c-.97 1.1-.83 2.62.14 3.59 4.14 3.86 8.56 7.45 13.25 10.63 3.17 14.77 4.69 29.68 4.42 44.72-4.83 4.83-8.01 10.9-7.73 16.56.14 3.04 1.24 6.07 3.45 8.28 2.62 2.48 6.07 4 9.66 4.42 6.76.97 13.25 1.24 18.63-1.66 5.25-2.9 8.7-8.97 9.25-18.63.97-19.19 1.38-37.68 1.1-53.42 4.14-2.07 7.73-5.38 10.21-9.39v-.14c.69-1.24.28-2.76-.97-3.45-3.31-1.93-6.49-4.14-9.52-6.49.69-.41 1.38-.83 2.07-1.1 2.35-.69 4.55-1.66 6.49-3.17l.14-.14c.97-.97.97-2.62 0-3.59-2.21-2.35-3.59-4.14-5.38-5.94-1.24-1.1-2.62-1.93-4.14-2.62l2.21-2.21c1.52-1.38 3.45-2.35 5.38-2.9.41 0 .69-.28.97-.55.97-.97.97-2.62 0-3.59-1.79-1.79-4.42-5.11-7.73-8.01 2.07-2.48 4.55-4.83 7.32-6.63.27-.13.41-.27.54-.4.99-.99 1-2.6.01-3.6-3.31-3.31-5.94-7.32-9.53-11.32.55-1.79 1.52-3.45 2.76-4.83 1.79-1.66 3.31-3.59 4.42-5.66 0-.28.14-.41.14-.69.14-1.38-.83-2.62-2.21-2.76"/>
    <path d="M665.05 401.05c-15.68 0-16.65 22.61-.97 23.03 17.2.69 17.76-23.03.97-23.03m-84.48 3.75c15.68 0 16.51 22.61.97 23.03-17.2.69-17.76-23.03-.97-23.03"/>
    <path fill="#ff5fd5" d="M642.44 499.55c-.83-28.99-47.17-14.43-39.12 4.72-.83 31.35 42.04 32.05 39.12-4.72"/>
    <path fill="#f9f9f9" d="M588.75 452.66c16.65-20.25 52.86-19.98 72.42-1.8 12.9 2.77 33.02 21.64 35.24 35.79-7.21-5.13-11.24-5.83-17.2-7.21 9.29 8.19 12.07 21.92 12.9 25.39-4.86-2.5-9.85-7.91-14.43-10.82.69 6.66 4.99 18.45 1.8 25.67-6.38-9.57-14.84-19.01-22.2-24.56 2.5 5.13 0 14.57-1.25 16.93-3.05-6.1-7.63-12.21-10.82-17.48-3.47 3.61-6.52 7.63-9.02 12.07-2.77-4.3-6.52-10.82-7.77-13.32-4.3 5.13-8.19 11.79-10.82 13.87-2.36-3.47-3.47-11.38-5.97-14.43-3.19 4.86-6.94 9.57-10.82 13.87-.28-3.88-1.8-12.07-4.58-14.71-9.57 6.66-16.09 18.59-20.67 30.1-2.77-7.77-5.83-17.76-.83-25.94-4.3 1.11-10.54 3.19-19.7 9.02 1.8-5.41 4.44-14.43 13.32-21.23-5.69 0-17.06.69-21.64 3.19 2.77-10.68 21.92-27.33 42.04-34.41"/>
    <path d="M625.79 446.7c-27.33-.55-23.17 32.46-.42 32.88 26.91.42 26.08-32.46.42-32.88"/>
    <path fill="#98430a" d="M674.63 350.56c9.43 9.16 18.04 9.71 28.16 20.81 14.71 16.23 29.83 30.38 61.6 40.37-5.13-20.67-.28-80.74-39.26-81.57-18.59 0-44.67 13.04-50.5 20.39M546.58 369.7c-19.42 16.23-48.97 25.53-79.08 32.6 7.08-14.15 23.58-51.75 46.34-72.14 23.31-5.83 44.67 8.05 47.72 14.29-10.54 4.44-5.27 16.93-14.98 25.25Z"/>
  </g>
  <g id="Layer_7">
    <path d="M762.48 791.02c-4.68-2.41-31.49 11.35-37.3 13.76 14.04 3.26 31.34.57 61.27 2.27 24.39 1.28 9.36-27.23-9.5-16.31-3.26 0-8.94.14-14.47.28" class="dg2-13"/>
    <path fill="#e6dbd5" d="M645.48 795.84c17.16-1.99 36.45-14.89 37.3-22.41-2.55-48.65 22.55-63.82 42.26-76.44 9.79-6.1 42.41-33.19 58.57-43.54 8.37-5.39 19.43-12.06 25.39-14.75 6.24-5.96 6.81-8.79 6.67-13.05-.57-12.76-2.27-38.72 21.7-51.2 11.63-5.67 23.12-3.12 35.17-2.84 21.42-2.69 48.22 15.6 35.17 43.97 7.52 1.42 14.61 1.7 19.86 2.98 4.4 6.81 4.4 9.22 2.41 14.75-7.37-2.69-49.5 7.09-68.08 14.32-2.69 15.32-6.52 40.99-7.09 64.39 2.69 13.62 6.24 30.78 10.21 45.81.71 4.54-21.84 12.06-23.26 9.79-3.55-9.5-7.23-19.29-11.06-27.23-12.76 15.6-37.44 19.86-45.67 27.23-17.87 24.96-20.42 20.14-42.55 32.19-13.9 7.52-42.83 9.36-47.94-5.39-4.25 16.17-88.36 17.87-101.55 9.08 5.81-6.67 26.52-4.68 52.48-7.66"/>
    <path d="M893.67 593.6c-9.64 1.13-16.45 18.44-.43 20.28 17.16 1.99 11.77-21.7.43-20.28" class="dg2-13"/>
    <path d="M894.95 596.86c-10.21-.99-12.91 13.33-.85 14.04 10.5.71 9.79-13.19.85-14.04"/>
    <path d="M864.31 755.28c-6.67 5.81-15.6 8.23-23.83 9.5 7.09 18.44 14.18 36.02 23.26 39.85 6.24 2.55 22.12 2.98 23.4-2.55 1.13-4.68-.71-14.89-11.35-13.33-3.97-6.67-7.94-19.43-11.49-33.47m33.2-168.49c-4.4 5.53 5.81 8.23 7.23 5.67 1.84-3.26-3.69-10.07-7.23-5.67m-58.86-5.96c7.52 4.82 16.59 6.81 25.39 5.53 1.99-17.87 15.32-48.93 17.3-69.35-4.25 18.01-49.78 47.94-42.69 63.82" class="dg2-13"/>
    <path d="M850.42 580.83c4.25 1.99 10.35 4.11 14.61 3.83 4.25-9.79 18.86-39 16.31-67.65-.57 20.56-33.61 48.36-30.92 63.82" class="dg2-13"/>
    <path fill="#faa" d="M857.51 578.71c2.98 2.41 6.67 2.55 8.23 4.4 13.05-15.32 15.6-39.43 15.6-66.09 3.83 27.94-26.38 46.24-23.83 61.69"/>
    <path d="M863.32 682.24c2.84 14.89 5.11 35.03-6.24 42.97.28-.85-2.41-9.79-2.41-14.32-1.84-21.27-5.96-41.13.85-57.01-11.63-10.92 0-45.38 20.28-47.23-2.55 5.81-7.8 13.05-.85 16.17 16.88 7.8 25.39-3.12 31.91-3.83 7.37 1.42 15.46 3.55 20.71 4.82 4.4 6.81 8.51 9.5 6.52 15.03-5.96 19.86-22.41 20-40.85 13.47-.43 1.99-15.18 6.95-23.26 4.82-1.28 8.51-3.55 17.02-6.67 25.1" class="dg2-13"/>
    <path d="M926.86 618.42c-3.55 8.94 1.84 15.32 6.95 19.86 4.82-1.99 9.22-10.5 4.68-15.46-2.13-2.27-6.95-4.11-11.63-4.4"/>
    <path d="M740.36 721.95c22.55 5.96 32.48 19 34.75 30.35 3.83 20.28-8.65 31.63-16.59 39.71 10.21-3.55 18.72-10.5 24.39-19.71 7.37-11.77.57-51.2-42.55-50.35" class="dg2-13"/>
  </g>
</svg>