<svg xmlns="http://www.w3.org/2000/svg" viewBox="0 0 1063.02 779.18" width="100%" height="100%">
  <path fill="#666793" d="M29.68 518.92C-.58 534.41-2.27 569.89 1.4 596.36c7.59 50.51 28.69 100.12 65.65 138.47 18.93 19.65 43.31 36.43 72.38 42.19 8.52 1.68 17.23 2.29 25.81 2.13 6.75-.08 13.65-.3 20.14-2.06h.15c.77-.12 1.1-.88.82-1.49-.12-.77-.88-1.1-1.5-.82-5.56 1.19-11.25 1.91-16.92 1.86-8.13.18-16.23-.25-24.31-1.45C57.16 759.61 4.92 649.65 2.69 577.11c-.34-21 6.06-46.52 29.24-56.89 21.46-9.22 46.04-11.42 68.76-8.18 18.75 2.8 36.1 10.3 51.24 20.01-14.32 15.44-5.89 37.17 4.18 51.62 19.15 26.4 43.4 11.77 33.19-16-6.53-14.78-19.62-26.27-33.22-35.93 17.67-14.7 51.88-2.94 73.65-3.41 20.5.86 40.84-7 56.13-19.34 24.71-19.05 29.03-50.92 19.05-76.4-6.03-15.84-16.38-31.05-32.3-40.19 12.17-28.38 10.69-60.75 29.23-87.22 26.35-35.08 78.34-32.66 110.77-9.33-18.16 11.17-31.93 28.45-34.76 47.97-3.39 22.4 3.42 51.44 22.83 66.05 9.1 6.9 21.86 5.67 29.37-2.97 7.02-8.03 9.38-18.52 9.72-28.31 4.99 6.3 10.72 13.09 19.38 15.38 12.63 2.59 14.76-10.37 11.81-18.28-10.61-29.47-26.57-59.75-53.43-80.3 54.1-31.67 108.48-13.69 137.19 32.95 13.33 22.06 17.61 48.72 36.39 68.05 10.2 10.61 24.74 19.85 41.49 18.6 21.21-1.87 39.21-17.48 46.26-35.16 14.01 6.77 30.84 7.51 46.44 3.6 9.72-1.96 19.18-5.31 29.02-6.34 17.82-1.37 35.59 3.08 50.73 12.48 21.59 13.47 43.09 42.71 27.25 66.67-3.8-5.34-9.8-9.07-16.35-9.91-7-1.16-17.63.46-19.12 8.07-1.04 7.78 7.51 12.98 15.14 14 7.32.86 14.77-1.93 19.87-7.43 5.68 12.92 2.57 27.51-1.11 40.86-3.47 11.68-6.94 23.51-12.84 34.48-.65 1.05-1.3 2.1-1.94 3-.97 1.35 1.44 2.66 2.41 1.15 7.11-10.63 10.14-22.94 14.07-34.59 4.52-15.32 8.63-32.33 1.32-46.98 20.43-28.24-9.25-64.51-37.63-76.53-14.18-6.16-30.78-9.34-46.79-6.68-25.61 5.23-44.46 14.23-69.62 2.18 3.56-9.99 4.42-21.45-1.39-30.53-3.62-5.95-11.1-11.27-19.27-9.71-8.49 1.85-9.57 11.01-7.02 16.91 4.23 10.57 13.74 18.86 24.28 24.43-6.37 15.71-19.49 27.51-35.6 32.46-31.86 8.69-54.6-19.97-64.86-42.39-4.13-9.03-7.48-18.49-11.6-27.67-4.56-9.96-10.36-19.35-17.41-27.87-32.5-38.96-83.97-47.65-131.69-19.28-20.33-14.34-48.09-22.2-74.49-16.38-60.73 15.04-53.18 71.22-70.26 113.21-10.53-5.42-23.27-9.08-35.91-7.22-13.39 1.83-24.21 13.26-19.11 25.07 4.51 11.5 20.74 15.74 33.03 10.49 11.35-4.81 18.75-14.82 23.38-24.77 14.72 8.63 24.18 22.75 30.1 37.35 10.31 25.03 6.63 56.3-17.78 75.21-14.51 11.75-33.45 19.21-52.73 18.7-23.61.56-57.95-11.98-77.36 4.35-16.33-10.53-35.2-18.54-55.65-20.93-22.74-2.63-47.64-.28-68.66 9.56M234.8 387.04c12.16-1.88 24.3 1.76 34.53 7.17-4 9.2-10.6 18.32-20.57 23.18-9.04 4.43-21.25 3.25-27.6-3.57-10.04-10.92-1.44-24.72 13.65-26.79m574.43 62.56c8.76-.76 17.35 3.21 21.25 10.08-17.56 20.22-46.34-6.52-21.25-10.08m-133.9-101.17c5.98 8.63 5.3 19.49 1.9 29.02-9.62-5.24-18.39-13.05-22.5-22.69-1.98-4.81-1.87-12.32 4.93-13.93 6.62-1.15 12.45 3.04 15.67 7.59m-246.41 2.15c5.7 3.72 6.88 13.57 7.9 19.73-3.34-5.48-9.8-13.21-7.9-19.73m-47.7 19.33c-5.75-28.69 5.74-54.95 33.75-71.9 23.47 16.75 37.48 41.29 48.41 65.87 2.55 6.06 5.55 12.29 6.09 18.9.57 9.98-7.62 11.99-15.39 6.51-5.98-4.03-10.09-9.39-14.19-14.74-.17-3.99-.64-7.98-1.58-11.85-4.32-21.14-19.73-18.3-8.77 1.22 1.59 2.96 3.48 5.64 5.37 8.46.72 1.4 2.36 2.53 2.15 4.21.58 14.12-6.76 40.21-27.87 35.03-16.95-5.79-24.96-26.75-27.96-41.72M158.6 583.04c-9.05-13.03-17.25-32.62-6.03-47.09.48-.59 1.11-1.19 1.59-1.78 12.71 8.86 24.91 19.4 31.64 32.81 11.09 24.59-8.19 41.54-27.21 16.06"/>
  <path fill="#906e5c" d="M335.95 600.21c12.5 39.1 64.5 57.7 75.2 98.4 6.2 23.4-13.1 47.6-36.2 54.3-23.2 6.6-48.1-.1-70.1-10-8.3-3.7-16.9-8.3-21.4-16.3-4.4-8-2.5-20.1 6.1-23.5-13.6-1.1-27.9-2.4-40.2-8.3s-22.9-18-22.9-31.8 13.8-27.2 27-23.4c-22.5-13.4-37.3-36.9-39.7-63-1-11 2.8-24.9 13.7-26.9 9-1.5 16.8 6.2 22.7 13.2-3.5-40.2-5.3-85.4 21.4-115.5 3.9-4.4 9.1-8.6 14.9-7.6 1.6 10.3 2.7 20.5 3.2 30.8 6.3-19.3 13.2-39.1 27.2-53.9 13.9-14.6 37.3-22.7 55-12.8-15.3 29.4-31.1 59.4-37 92-3.1 16.8-3.5 33.8-3.8 50.8-.4 18.1-.5 36.4 4.9 53.5M554.85 0c2.1 0 4.1.4 6 1.1 4.2 1.7 7.9 4.6 11.7 7.3 8.3 5.9 17.5 10.8 27 14.6-6.5 4.1-13.6 6.8-21.1 8-2.7.4 2 26.9 2.1 29.8.8 11.3-.3 23.6-8.3 32.2-6.8 7.2-17 9.9-26.3 6.9-4.6-1.7-8.9-4.5-12.1-8.3-24.1-26.5-5.1-56 7.7-81.6 1.4-3 3.1-6 5.8-8 2.3-1.4 4.8-2.1 7.5-2m-20.1 682.4c-7.5 24.9-10.6 50.5-5.5 75.7 1 4.6 2.2 9.4 5.6 12.8 4.5 4.5 11.4 5.3 17.9 5.3 18.9 0 37.1-5.2 55.3-10.4 3-.8 6.3-2.1 6.9-5.1.8-3.8-3.7-6.3-7.3-7.6-7.9-2.5-15.9-4.8-23.9-6.6 10.4-3.8 15.3-15.3 19.1-25.8 12.7-34.6 23.9-69.7 34.1-105.1 5.1-17.7 9.8-36.2 8.2-54.6-.8-9.7-4.6-20.5-13.5-24.6-4.4-1.8-9-2.2-13.6-1.5-16 2.1-29.8 13.2-38.8 26.6s-14.1 29.1-19 44.5c-9.3 28.8-22.5 57-30.4 86.3l4.9-9.9"/>
  <path fill="#906e5c" d="M342.15 706.51c-3.2-31.8-4.2-63.9-2.8-96 1.4-28.8 4.6-58.1 15.8-84.7 11.5-27.6 32.1-50.1 43.4-77.7 11-27.2 14.9-56.6 19-85.4 4.8-33.8 11.3-66.4 27.4-96.7 10.3-19.1 25-38.4 22.8-61.5-.4-3.2-1-6.5-1.8-9.7-3.9-15.3-12.1-30-6.9-45.9 5.1-15.6 10-31.2 18.4-45.5 16.9-28.6 44.8-49.3 78.8-49.4 14.2-.1 29.1 2.2 40.4 11 3.5 2.8 6.6 6.1 10.7 7.6 9.9 3.7 21.1-3.7 30.5-5.9 11.7-2.7 23.5-4.9 35.3-6.6 1-.3 2.1-.1 3.2.1.8.4 1.4 1 2 1.7 8.4 9.8 12.1 25.5 13.1 38.1.7 12-8 16.8-19.1 18.2-7 1-14.4.1-21.5.3-4.8.1-9.7.6-13.9 3-4.2 2.2-7.5 6.9-6.9 11.7s4.9 8.6 9.6 9.9c4.6 1.3 9.7.6 14.5-.4 6.8-1.4 11.4-5.2 17.5-8 4.1-2 7.9-5.1 12.2-4.4.4.1.7.1 1 .4.4.6.6 1.3.3 1.8-1 5.4-5.2 7.9-9.4 10.6-5.1 3.1-9.7 6.9-14.9 9.7-13.8 7.5-27.3 10-38.4 21.2-9.7 10-20.1 21-21.2 34.9-1.4 17.5 10.3 29.1 17.6 43.2 2.1 3.9 3.8 7.9 5.5 12 4.5 11.3 7.9 22.9 9.9 34.9 5.8 33.1 3.9 67 1.1 100.2-3.2 38.8-8 77.4-12.7 116.1-4.2 35.6-12.8 70.5-18.2 106.3-3.4 22.4-5.9 44.8-9.9 67-2.7 15.6-6.3 31.2-13.6 45.3-19.6 37.4-62.4 30-98.5 26-24.1-2.7-48.3-3-72.3-1.1-11.7.8-23.8 2.2-35-1-24.2-7-30.7-29.3-33-51.3"/>
  <path fill="#a58170" d="M350.25 504.71c19-12.7 40.9-.6 56 12.2 23.5 20 31.7 59.8 37.6 88.4 5.2 26.3 7.6 53.1 7.3 79.8-.1 17.6 3.4 36.2-1.1 53.5-1.8 7.2-7.6 12.8-3.1 19 3.5 4.8 15.2 6.3 17.2 11.8 3.7 10.7-12.8 8.7-19.6 8.4-17.6-.8-35-2.2-52.5-4.4 1.8-4.5-2.7-9.3-7.3-10.7s-9.7-.7-14.4-2.1c-18.4-5.5-36.3-32.1-42.5-48.8-7.7-21-9.3-43.8-9.3-66.2.1-35.2 4.2-70.2 12.1-104.6 3.1-13.7 7.7-28.5 19.6-36.3"/>
  <path fill="#e3b79b" d="M462.35 557.71c-8.4-47-17.6-93-18.4-140.9-.4-16.9.3-34.1 6-49.8 4.1-10.8 12.1-22 23.8-22.9 40.2-3.4 50.8 68.5 52.4 95.6 5.9 102-22 203.2-23.5 305.4 0 2 .1 4.2 1.5 5.6 1.5 1.4 3.8 1.3 5.9 1.5 7 1.1 12.1 7.6 11.4 14.8-9.1.8-18.3.8-27.4.3-2.5-.1-5.4-.6-7-2.4s-1.8-4.4-2-6.8c-3.1-67.2-10.7-134.2-22.7-200.4"/>
  <path fill="#a58170" d="M608.45 606.31c-13.2 49.4-30.5 97.2-41.2 147.5-.4 2-.7 4.1.4 5.8s3.5 2 5.5 2.7c6.8 2.5 10.3 9.8 8.3 16.8-9-1.1-18-2.8-26.9-5.2-2.4-.6-5.1-1.5-6.3-3.7s-1-4.6-.6-7c4.2-27.7 7.5-52.1 7.6-80.4.1-32 .7-63.9 1.8-95.7.3-8.4.7-16.8 1-25.2 2.2-55.3 5.8-110.6 10.7-165.8.7-8.7 1.7-17.7 5.4-25.8 10.3-22.2 41-17.7 53.3.6 18.2 26.7 11.1 67.1 8.6 97.2-2.2 25.2-6.3 50.1-12.5 74.6-5.4 21.2-9.4 42.5-15.1 63.6"/>
  <path fill="#e3b79b" d="M450.95 28.51c1.7-1.1 3.7-1.7 5.8-1.8 13.9-.7 35.8 22.1 44.6 30.5 12.2 11.7 29.8 27.3 27.9 46.2-1.1 9.7-7.6 18-16.9 21.2-4.8 1.4-9.9 1.6-14.6.6-16.2-3.2-29-16.6-35.9-31.7-4.2-9.2-6.5-18.9-8.9-28.6-2.1-8.4-11-30-2-36.4"/>
  <path fill="#e3b79b" d="M459.05 148.91c5.1-15.6 10-31.2 18.4-45.5 16.9-28.6 44.8-49.3 78.8-49.4 14.2-.1 29.1 2.2 40.4 11 3.5 2.8 6.6 6.1 10.7 7.6 9.9 3.7 21.1-3.7 30.5-5.9 11.7-2.7 23.5-4.9 35.3-6.6 1-.3 2.1-.1 3.2.1.8.4 1.4 1 2 1.7 8.4 9.8 12.1 25.5 13.1 38.1.7 12-8 16.8-19 18.2-7 1-14.4.1-21.5.3-4.8.1-9.7.6-13.9 3-4.2 2.2-7.5 6.9-6.9 11.7s4.9 8.6 9.6 9.9 9.7.6 14.5-.4c6.8-1.4 11.4-5.2 17.5-8 4.1-2 7.9-5.1 12.2-4.4.4.1.7.1 1 .4.4.6.6 1.3.3 1.8-1 5.4-5.2 7.9-9.4 10.6-5.1 3.1-9.7 6.9-14.9 9.7-13.8 7.5-27.3 10-38.4 21.2-9.7 10-20.1 21-21.2 34.9-1.4 17.5 10.3 29.1 17.6 43.2 3.9 7.9 5.9 11.8 2.2 20-3.1 7.3-7.6 13.9-13.2 19.4-1.8 2-4.1 3.2-6.6 3.8-6 .7-10.1-5.8-12.5-11.4-8.9 13-18.4 25.3-28.6 37.1-1.8 2.1-3.8 4.4-6.6 4.8-4.1.7-7.7-3-9.3-6.9-1.5-3.9-2-8.2-4.1-11.8-2.8 1.8-4.5 5.1-6.8 7.7s-5.9 4.8-9 3.2c-1.7-1-3-2.4-3.8-4.1-8.4-14.2-15.8-29.3-21.8-44.8-1 4.8-2.1 9.4-3.1 14.2-3.4.6-6.5-2.1-8.6-4.9-8.3-10.8-10.7-25-13-38.6.4 2.5-.7 5.2-3 6.6-1.8-17.2-2.7-34.8-5.6-51.8-2.7-15.2-11.8-29.7-6.5-45.7"/>
  <path fill="#312b2c" d="M570.35 83.41c-1.1.4-1.8 1.6-1.7 2.5.4 1.1 1.7 2 2.7 2.5 1.3.7 2.5 1.1 3.9 1h.7c.7 0 1.3-.4 1.5-1 .4-.7.3-1.7-.1-2.4-.6-1.4-1.8-2.5-3.2-3-.6-.1-1-.1-1.5-.1-.9-.1-1.6.2-2.3.5m25.5-12.9c-.4 1.1 0 2.4.8 3.2 1 1 2.4 1.7 3.8 1.8.6.1 2.1 0 2.5-.7.6-.1 1.1-.6.7-1.1-.7-1.3-1.7-2.5-2.8-3.5-.1 0-.1-.1-.3-.1-.4-.4-.8-.6-1.3-.6-1.2-.5-2.6-.1-3.4 1m70.2-11.7c-5.3 2.1-11.7 8.4-7.7 14.5.4.6 1 1.1 1.5 1.7s1.3 1 2 1.4c0 .1.1.1.1.1.3 0 .6.1.8.3 1.3.6 2.7.7 4.1.6 2.8 0 5.5-.7 7.9-2.1 3.2-1.7 5.5-4.5 6.5-7.9.4-1.6.4-3.1 0-4.6 0-.7-.1-1.3-.3-1.8-1.1-3.5-5.2-3.9-9.2-3.5-1.3.1-2.5.3-3.7.7-.8.2-1.5.3-2 .6"/>
  <path fill="#906e5c" d="M460.45 36.01c-4.5 3.9 1.5 18 3.7 22 8.2 18.6 18.2 35.3 36.5 45.3.8.4 3.4-.4 2-1.1-13.4-7.3-22.4-18-29.3-31.2-3.5-6.2-6.5-12.5-8.9-19.1-1-2.8-3.2-8.6-2-11.5 1.8-4.8 7.5-.7 10.4.7.8.4 3.4-.4 2-1.1-3.2-1.6-11.2-6.8-14.4-4m217.8 41.2c2 5.8 3.4 12 3.9 18 .4 4.9 1.3 12.2-1.8 16.3-.7.8 2.1 1.3 2.7.4 3.4-4.4 2.4-11.5 2-16.8-.6-6.2-2-12.5-4.1-18.4-.3-.9-3.1-.6-2.7.5"/>
  <path fill="#a58170" d="M513.65 435.31c-.3-1.1-3.1-1-2.8 0 1.8 10.6 3.1 21.4 3.5 32.2 0 1.1 2.8 1 2.8 0-.4-10.8-1.6-21.5-3.5-32.2m-10.2 22.2c-.1-1-3-1-2.8 0 .6 5.8 1 11.4 1.5 17.2.1 1.1 3 1 2.8 0-.5-5.8-.9-11.4-1.5-17.2m-33.9-29.3c-.1-1.1-3-1-2.8 0 1.3 8.3 2.4 16.8 3.5 25 .1 1.1 3 1 2.8 0-1.2-8.2-2.4-16.7-3.5-25m8.7-46.7c0-1-2.8-1-2.8 0 .6 13.4 1.7 26.7 3.4 40.1.1 1.1 3 1 2.8 0-1.7-13.2-2.8-26.6-3.4-40.1m1.6 154.1c-.1-1-3-1-2.8 0 1.3 10 3 19.8 5.2 29.5.3 1.1 3.1 1 2.8 0-2.3-9.8-3.9-19.6-5.2-29.5m23.1-2.9c0-.9-2.7-.9-2.7 0v20.3c0 1.1 2.7 1.1 2.7 0v-20.1"/>
  <path fill="#906e5c" d="M627.65 397.31c0-1-2.8-1-2.8 0 .3 8.2.4 16.2.7 24.4 0 1.1 2.8 1 2.8 0-.3-8.2-.5-16.3-.7-24.4m-18.5-10.1c0-1.1-2.7-.9-2.7 0v20.3c0 1.1 2.7 1.1 2.7 0v-20.7m-30.4 60.7c-1 11.7-1.5 23.4-1.5 35.2 0 1.1 2.8 1.1 2.8 0 0-11.8.6-23.5 1.5-35.2.2-1-2.6-1.1-2.8 0m18.7 55.2-2.1 14.4c-.1 1 2.7 1.1 2.8 0l2.1-14.4c.2-1-2.6-1.1-2.8 0m19.9-54.5-4.5 24.4c-.1 1 2.7 1.1 2.8 0l4.5-24.4c.1-1-2.7-1.1-2.8 0m-11.3 106.7-4.9 17.2c-.4 1.1 2.4 1.4 2.7.4 1.7-5.6 3.2-11.4 4.9-17.2.4-1.1-2.4-1.4-2.7-.4m-23.8 6.6c-.3 5.8-.6 11.4-.7 17.2 0 1 2.8 1.1 2.8 0 .3-5.6.4-11.4.7-17.2 0-1-2.8-1.1-2.8 0m-184.5-21.1c-.7-.7-3.4-.3-2.4.8 5.4 6.3 9.7 13.5 12.7 21.2.3 1 3.1.7 2.7-.4-3-7.8-7.5-15.1-13-21.6m8.1 38.9c-.3-1-3.1-.7-2.7.4 3.1 9.6 5.6 19.4 7.6 29.3.3 1.1 3 1 2.8 0-2.1-10.2-4.6-20-7.7-29.7m-81.5 36.7c-.6 12.2 1.4 24.6 5.8 36 .3 1 3.1.7 2.7-.4-4.4-11.4-6.2-23.5-5.6-35.6-.1-1-2.9-1.1-2.9 0m26.7 59.5c-.1-1.1-3-1.1-2.8 0 1 10 5.6 19.3 13.1 26 .7.6 3.4 0 2.4-.8-7.2-6.4-11.7-15.5-12.7-25.2m16.2-41.1c-.4-1-3.2-.7-2.7.4 2.7 7.3 5.1 14.6 7 22.2.3 1 3 .7 2.7-.4-1.9-7.4-4.3-14.8-7-22.2m-7.3-69.5c-.1-1-3-.7-2.7.4 2.2 8.7 4.8 17.3 7.6 25.9.3 1 3.1.7 2.7-.4-3-8.4-5.5-17.2-7.6-25.9m14.3-37.7c-.1-1.1-3-1-2.8 0 2.7 13.7 5.4 27.2 8 40.8.3 1.1 3 1 2.8 0l-8-40.8m9.5 81.6c-.1-1.1-3-1-2.8 0l2.2 18.6c.1 1.1 3 1 2.8 0l-2.2-18.6m-35.9-20.8c-.3-1-3-.8-2.8 0 1.4 7.5 2.8 14.8 4.2 22.2.3 1.1 3 1 2.8 0l-4.2-22.2m84.6 68.1c-.1-1-3-.8-2.8 0 2.7 14.1 4.4 28.2 5.1 42.4 0 1.1 2.8 1 2.8 0-.8-14.2-2.5-28.5-5.1-42.4m-25.8 21.5c-.3-1.1-3-1-2.8 0 2 9 4.5 18 7.7 26.7.3 1 3.1.7 2.7-.4-3.1-8.5-5.6-17.3-7.6-26.3m-11.5 45.8c-.4-1-3.2-.7-2.8.4 3.5 6.6 7 13.1 10.6 19.6.4.8 3.2.6 2.7-.4-3.5-6.7-7-13.2-10.5-19.6m-39.5-3.7c-.6-.8-3.2-.6-2.7.4 4.1 7.2 9.6 13.7 16 18.7.7.6 3.4 0 2.4-.8-6.4-4.9-11.7-11.2-15.7-18.3"/>
  <path fill="#a58170" d="M553.45 44.61c-.6.1-1.1.3-1.3 1-.1 1 .3 1.8 1 2.4s2.5.6 2.7-.4c.8-6.2 1.8-12.2 2.7-18.4 4.1 1.8 8.7 2.5 13.2 2 2-.3.7-1.7-.7-1.5-4.4.6-8.9-.4-12.7-2.8-.6-.3-2.2-.4-2.4.6-.8 5.6-1.7 11.3-2.5 17.1"/>
  <path fill="#906e5c" d="M562.55 80.91c-1.3 2.1-2.2 6.5.3 8 .4.3 2.4.3 2.2-.6-.1-1.6 0-3 .3-4.5.1-1.1 1-3.9 2.5-3.8.6.1 1.3-.1 1.5-.7.3-.1.4-.6-.1-.8-2.3-1.5-5.3.2-6.7 2.4m26.3-13.4q.1.1 0 0c.3.8 2.4.7 2.5-.1.3 0 .6-.4.5-.7l.1-.2c1-.3 1.9-.4 2.9-.4.6 0 1.3-.4.8-1-.7-.8-1.7-1.3-2.8-1.3-.8-.3-1.8-.1-2.5.3s-1.1 1.1-1.3 2c-.2.4-.4 1-.2 1.4Z"/>
  <path fill="#a58170" d="M324.65 434.91c-7.9 11.7-13.4 24.5-16.3 38.1-.3.8 2.2 1 2.5 0 3.1-13.5 8.6-26.3 16.3-37.7.5-.9-2-1.3-2.5-.4m-35.7 52.6c-3.4 11.1-5.1 22.8-4.8 34.6 0 1 2.5 1 2.5 0-.1-11.5 1.4-23.1 4.8-34.2.3-1.1-2.2-1.3-2.5-.4m-28.5 12.7c-1.6 11-1.8 22.1-.8 33.2 0 1 2.7 1 2.5 0-1-11.1-.6-22.2.8-33.2.1-1-2.4-1-2.5 0m41.8 40.5c-.6 7.9-.1 15.9 1.3 23.9.1 1 2.7.8 2.5 0-1.4-7.9-1.7-15.9-1.3-23.9.1-1-2.5-1-2.5 0m-27.9 14.5c-.7 11.1.6 22.1 3.8 32.8.3.8 2.8.7 2.5-.4-3.2-10.6-4.5-21.4-3.8-32.4.2-1-2.5-1-2.5 0m19.3 41.1c-.7 11 .8 21.8 4.4 32.1.3.8 3 .6 2.5-.4-3.5-10.1-5.1-21-4.4-31.7.2-1-2.5-1-2.5 0m-58.9-13.1.1.1c1.7 9.8 5.3 19.3 10.6 27.9.6.7 3.1.4 2.5-.4-5.3-8.7-8.9-18.2-10.7-28.2-.1-1-2.7-1-2.5 0v.6Zm32.2 21.1c-.1-1-2.7-1-2.7 0 1.4 11.1 4.6 21.8 9.4 32 .4.8 3 .6 2.5-.4-4.7-9.9-7.8-20.6-9.2-31.6m-4 57.7c-.3-1.1-2.8-1-2.7 0 2 9.4 6.6 18.2 13.2 25.2.6.7 3.1.1 2.2-.7-6.3-6.9-10.7-15.3-12.7-24.5m28.6 1.3c-.3-1-2.8-.8-2.7 0 2 9.6 5.8 18.6 11.3 26.7.6.7 3.1.4 2.5-.4-5.3-8-9.1-16.9-11.1-26.3m298.2-457c-1.5 5.2-2.5 10.4-2.7 15.6-.1 1 2.5 1 2.5 0 .3-5.1 1.3-10.3 2.7-15.2.3-1.1-2.2-1.3-2.5-.4m-17.7 4.1c-2.1 6.5-3.5 13.2-4.1 20.1-.1 1 2.4 1 2.5 0 .6-6.8 2-13.4 4.1-19.7.3-1.1-2.2-1.3-2.5-.4m4.7 33.8-.4 5.8c-.1 1 2.4 1 2.5 0l.4-5.8c.2-1-2.3-1-2.5 0m-104.2-45.6c-.3 7.9.6 15.6 2.7 23.2.3.8 2.8.7 2.5-.4-2.1-7.5-3-15.1-2.7-22.8.1-1-2.5-1-2.5 0m35.7 42.1c0-1-2.8-1-2.7 0v16.7c0 1 2.7 1 2.7 0v-16.6m34.5 32.5c-.7 5.2-1.4 10.6-2.1 15.9-.1 1 2.4 1 2.5 0 .7-5.4 1.4-10.6 2.1-15.9.2-1-2.4-1-2.5 0m-10.1-58c-.1 5.1-.3 10.1-.4 15.1-.1 1 2.5 1 2.5 0 .1-5.1.3-10 .4-15.1.1-1-2.5-1-2.5 0"/>
  <path fill="#784421" d="M658.15 372.81c6.9-3.5 11.8-3.6 17.2-9 10.3-10.3 28.4-25 18.2-43.8-27.6-23.6-47.5 12.5-54.2 34.8 4.4 4.4 12.3 14.8 18.8 18m171.2 2.6c-17.3-5-46.6-28.2-40.4-53.4 23.3-7.9 46.6 21.6 54.1 37.3-4.1 5.7-8.7 11.1-13.7 16.1"/>
  <path fill="#ececec" d="M809.65 618.91c-8.6-15.5-46.3-14.6-51.5.3-4.7 6-4.9 13.2-10.8 19.6 3.8 3.8 5.5 6.2 13 12.9-4.9 3.6-7.9 8-11.7 12.6 2.5 3.9 7.9 6 11.7 12.1-3.6 4.6-7.9 8.6-12.6 11.9 3.8 2.8 6.9 7.5 11.4 11.5-.3 11.2-2.6 50.1 5.7 65.8 5.4 10 13.6 10.5 23.9 10.3 16.5-.3 16-23.7-.1-28.9 1-14.3-.5-23.7 3.5-40.8 6.2-3 10.5-7.1 18-10-2.8-2.8-3.6-7.3-7.8-11.7 3.5-1.7 9.6-2.9 13-3.9-5.5-4.3-6.4-10-11.7-13 2.9-1.4 10.3-5 14.7-7.1-4.3-4.6-8.2-9.7-11.5-15.1 4.9-1.2 7.9-5.1 16.2-5-3.5-7.2-11.2-14.3-13.4-21.5m-83.8-1.3c-8.5-24-64-21-61.6 5 3.9 5.7 7.2 10.3 10.5 15.4-3.8 3.9-7.3 8.2-10.4 12.6 4.2 4.2 9.4 7.3 15.1 9.2-3.8 5.7-6.8 10.5-10.7 15.5 2.1 2.6 10 5.1 14.3 6-2.4 4.7-7.6 7.8-11 10.5 4.3 4 9 7.8 13.9 11.1 3.3 15.4 4.9 31.2 4.6 47-10 9.3-11.7 24.1 3.3 26.2 13.2 1.9 24.3.4 25.2-18 1.1-19.7 1.4-39 1.1-54.9 4.4-1.9 8.2-5.3 10.7-9.4-4.7-2.5-9-5.5-13-9.2 3-3 9-3.6 11.8-6-4.7-4.9-5.7-7.8-11.8-9.8 4-4 4.4-5.7 10.8-7.9-2.6-2.6-5.8-7.3-9.8-9.8 2.1-2.1 5.3-6.1 9.8-8.9-3.9-3.9-6.7-8.6-10.8-12.8 1.8-6.2 6.5-8.3 8-11.8"/>
  <path fill="#ececec" d="M716.05 772.01c13.7 1.5 41.6-2.5 50.6 0 7.3-1 23.3-2.6 34.3-.7 3-2.9 12.3-7.6 14.6-12.8 6.5 4.2 14.2 6.2 22.5 12.1 1.2-4.7 1.4-14.3 2.6-20.8 4.9-1.2 10-2.2 15.5 0-.7-9.6-1.8-18.6-6.5-28.6 5.1-2.5 11.9-5.4 19.4 2.6-1.9-7.9-5.5-15.4-10.4-22.1 4.9-2.4 10.1-3.8 15.5-3.9-5.4-7.1-11.5-15.7-16.9-24.7 4.4-2.2 12.2-3.5 18.2-6.5-6.4-6.4-14.7-16.2-23.5-23.5 3.5-1.8 9.8-3.3 14.3-6.5-5.3-5.3-9.7-12.8-16.9-20.8 5.1-2.5 10-6.2 18.2-7.8-6.5-6.5-16.7-17.1-20.8-27.3 3.6-3.6 9.7-6.8 16.9-9.2-9.2-6.8-17.2-14.6-23.5-25.9 4.4-4.3 9-7.2 16.9-11.7-8.7-4.3-19.1-11.2-23.5-22.1 4.4-2.2 8-2.5 11.7-7.8-5.7-5.7-15.4-13.9-18.2-23.5 7.9-1.9 17.5 3.6 19.8 4.3-.5-10-3.9-15.8-16.4-26.1 7.6 0 18 5.7 24.6 8.9-1.9-4.2-10.5-19-19.4-26.6-10.6-28.8-80.8-115.8-80.4-125.8-4.4 0-11.5.4-19.3.7-21.6 41.5-71 94.8-91 127.4-7.8 9.7-16.9 16.4-15.8 26.2 8-6.1 16.2-6.2 24-8.6-11.1 9.2-16.8 14.7-19.7 23 4.3.1 11.7 2.5 15.7 3.5-9 5.8-17.1 15.7-23.5 22.1 6.2 3.6 13 3.9 18.2 6.5-7.3 8-16.9 13-20.8 20.8 6.7 2.8 8 4.2 11.7 11.7-4 1.1-14 7.5-20.8 14.3 6.2 4.2 11.6 9 16.9 13-9.7 6.4-17.1 12.2-22.1 22.8 5.3 2.9 9.6 7.6 13.6 13.6-5 11.8-12.1 21.5-16.2 29.8 6.9 6.7 13.6 5.1 18.2 5.1-2.2 10-8.2 15.1-11.6 22.1 6.5 3.2 8.5 4 13 5.1-5.1 10-7.9 17.1-14.3 23.5 7.8 1.8 8.3 0 13 0-4 9.4-8 16.8-10.4 25.9 9 .7 15.8 3.2 23.5 1.2-5.8 7.2-9.9 15.4-8.2 22.1 7.6-.1 15.3 1.7 21.1-1.2-6.2 11.5-2.4 15.1-2.6 20.8 7.8-3.2 15.3-9 23.2-11 1.5 4.3 7.6 9 12.5 16.4 14.2-3 21.4-2.3 32.5 0"/>
  <path fill="#aa5a26" d="M835.55 441.21c-11 8.5-28.2 5.1-35.4-5.5-10.3-5.1-23.9-14-23.5-29.5-8-8-11.2-19.4-10.5-31.8-5.7-5.5-11.5-12.4-9.8-25.7-4.7-9.6-8.6-21-3-33.9 16.7 0 31.1 1 35.9 4.4 9.6 12.9 21.2 27.6 27 34.5 17.9 12.1 17.6 56.6 41.1 94.5-9.4-5.2-14.7-6.6-21.8-7m-166.4-87.6c7.8-10.7 13.2-34 28-35.6 10-1 25.8-2.2 41.8-2.8.4 6.8-.8 13.6-3.8 19.8 7.1 11.1 4.2 16.8 0 25 2.5 9.9-1.9 15.7-9 21.2.8 3.5.8 22.1-10.5 25 2.4 12.5-5.1 24.6-17.3 28-4.7 10-10.4 8.9-18.6 9.4-5.8 8.3-28.4 6.5-34.5.1-8 2.8-16.2 5.1-24.4 6.9 32.5-54.6 33.7-91 48.3-97"/>
  <path fill="#ccc" d="M809.95 616.41c-.3-.1-.7 0-1.4.3-1.2.4-1.9 1.9-1.5 3.2 2.2 7.1 7.6 13 11.4 18.7-2.1.3-4 1-6 1.8-2.1 1.2-4.2 2.1-6.4 2.9-.1 0-.4.1-.7.3-1.2.7-1.5 2.4-.8 3.5 3 4.6 6.2 8.9 9.8 12.9-4.3 2.1-9.7 4.6-12.1 5.8-.4.1-.7.4-1 .8-.7 1.1-.4 2.8.8 3.5 1.9 1.2 3.6 3.2 4.9 5.3.8 1.2 2.5 2.8 3.8 4.2-3.3.5-6.5 1.5-9.7 2.9-.1.1-.4.3-.5.4-1 1-1 2.6 0 3.6 2.8 2.9 4 6 6 9-6.1 2.8-10.5 6.2-15.7 8.7-.7.4-1.2 1-1.4 1.7-4 17.5-2.5 27.2-3.5 41.2-.1 1.2.7 2.4 1.8 2.6 6.2 1.8 10.4 7.5 10.5 13.9.1 2.6-.7 5.1-2.2 7.1-1.9 2.1-4.7 3.2-7.5 3-5.1.1-9.4 0-12.9-1.1s-6.2-3.2-8.7-7.8c-3.8-6.9-5.3-20.5-5.7-33.4s.3-25.2.4-30.9c0-.7-.3-1.4-.8-1.9-3.3-3-6.2-6.5-9.4-9.4 4-3 7.8-6.7 10.8-10.7.7-.8.7-2.1.1-2.9-1.8-2.9-4.2-5.4-6.8-7.5-1.2-1.1-2.5-2.2-3.6-3.5 3.2-4 5.8-7.6 9.7-10.5.1 0 .3-.1.4-.3.8-1.1.8-2.6-.3-3.6-4-3.5-7.8-7.2-11.4-11.2 2.1-2.8 3.8-5.7 5-8.7 1.1-3.2 2.6-6.2 4.6-9 .8-1 .7-2.6-.4-3.5-1.1-.8-2.8-.7-3.6.4-2.2 3-4 6.5-5.3 10.3-1.1 3.3-3 6.5-5.4 9.2-.8 1-.8 2.5.1 3.5 3 3 6 6.2 11.1 11.1-3.5 3.3-6.8 7.1-9.8 11-.7.8-.7 1.9-.1 2.9 1.7 2.4 3.8 4.3 6 6 1.7 1.4 3.2 2.9 4.4 4.7-3 3.8-6.7 7.1-10.5 10-.3.1-.4.3-.5.5-.8 1.1-.5 2.6.5 3.5 3 2.4 6.2 6.5 10.4 10.5-.3 5.8-.8 17.5-.4 30.2.4 13.2 1.7 26.9 6.2 35.7 2.4 4.9 6.5 8.5 11.5 10.3 4.4 1.5 9.3 1.5 14.6 1.4 4.2 0 8.2-1.7 11.1-4.9 2.4-2.9 3.6-6.7 3.5-10.4-.1-7.8-5-14.8-12.2-17.8.7-13.2-.1-22.5 3.2-37.7 6-3.2 10.1-6.8 16.7-9.3.4-.1.7-.3 1-.5 1-1 1-2.6 0-3.6-1.5-1.5-3-4.9-5.5-8.5 3-1.1 6.8-2.2 9.6-2.9.5-.1 1.1-.5 1.4-1 .8-1.1.5-2.6-.5-3.5-2.1-1.7-4-3.9-5.4-6.2-1.1-1.2-2.4-2.5-3.6-3.8 3.6-1.8 8.3-4 11.8-5.7.3-.1.5-.3.7-.4 1-1 1.1-2.6.1-3.6-3.6-3.9-6.7-8-9.4-12.5 1.2-.5 2.6-1.1 3.9-1.7 2.5-1.2 5.4-1.8 8.3-1.7.4 0 .8-.1 1.2-.3 1.2-.7 1.8-2.2 1.1-3.5-4-8-11.4-15-13.3-21.2-.6-1.1-1.5-1.8-2.5-1.9m-83.6-1c-1.1-.1-2.2.4-2.9 1.9-1 1.5-2.2 2.9-3.5 4.1-2.2 2.2-3.7 5-4.5 8-.1.8.1 1.8.7 2.3 3.2 3.3 5.8 7 9 10.6-2.9 2.3-5.5 4.8-8 7.5-.1.1-.3.4-.4.5-.7 1.2-.3 2.8 1 3.5 2.5 1.5 4.7 4.3 6.9 6.9-1.2.5-2.5 1.1-3.7 1.9-1.7 1.4-2.8 2.8-4.7 4.7-.3.3-.4.5-.5 1-.5 1.2.1 2.8 1.5 3.2 2.1.5 3.9 1.8 5.4 3.3.8.8 2.1 2.2 3 3.3-.8.4-1.4.7-2.5 1.1-2.5.7-5 1.9-6.9 3.7-1 1.1-.8 2.6.1 3.6 3.3 3 7 5.5 11 7.7-2.1 2.9-4.8 5.1-8 6.5-1 .4-1.5 1.4-1.5 2.3.3 15.7-.1 34.9-1.1 54.5-.4 8.7-2.9 12.6-6.6 14.5-3.7 2.1-9.2 2.1-15.6 1.1-2.5-.1-4.8-1.2-6.8-2.9-1.2-1.2-1.9-3-1.9-5-.1-4 2.3-9.5 6.9-13.7.4-.4.7-1.1.7-1.8.3-16-1.2-32-4.7-47.6-.1-.5-.5-1.1-1.1-1.5-3.9-2.8-7.6-5.8-11-9 3-2.2 6.8-5 9-9.4.1-.1.3-.3.3-.5.3-1.4-.5-2.8-1.9-3-2.6-.5-5.1-1.2-7.6-2.2-1.4-.4-2.6-1.1-3.7-1.9 3.3-4.3 6.1-8.6 9.2-13.4.1-.1.3-.3.3-.4.5-1.4-.1-2.8-1.4-3.3-4.5-1.5-8.7-4-12.3-7.2 2.6-3.7 5.5-7.2 8.7-10.5.7-.8.8-2.1.3-3-3.3-5.2-6.5-9.8-10.5-15.5v-.1c-.8-1.1-2.5-1.4-3.6-.5-1.1.8-1.4 2.5-.5 3.6 3.6 5.1 6.6 9.2 9.5 13.7-3.3 3.5-6.5 7.2-9.2 11.2-.7 1-.5 2.3.3 3.2 3.7 3.6 8.3 6.5 13.1 8.4-3 4.5-5.7 8.8-8.8 12.8-.7 1-.7 2.2 0 3.2 1.8 2.3 4.4 3.3 7.3 4.4 1.5.7 2.9 1 4.4 1.4-2.5 2.6-5.1 5-8 7.2l-.3.3c-1 1.1-.8 2.6.1 3.6 4.1 3.9 8.6 7.5 13.2 10.6 3.2 14.8 4.7 29.7 4.4 44.7-4.8 4.8-8 10.9-7.7 16.6.1 3 1.2 6.1 3.5 8.3 2.6 2.5 6.1 4 9.7 4.4 6.8 1 13.2 1.2 18.6-1.7 5.2-2.9 8.7-9 9.2-18.6 1-19.2 1.4-37.7 1.1-53.4 4.1-2.1 7.7-5.4 10.2-9.4v-.1c.7-1.2.3-2.8-1-3.5-3.3-1.9-6.5-4.1-9.5-6.5.7-.4 1.4-.8 2.1-1.1 2.3-.7 4.5-1.7 6.5-3.2l.1-.1c1-1 1-2.6 0-3.6-2.2-2.3-3.6-4.1-5.4-5.9-1.2-1.1-2.6-1.9-4.1-2.6l2.2-2.2c1.5-1.4 3.5-2.3 5.4-2.9.4 0 .7-.3 1-.5 1-1 1-2.6 0-3.6-1.8-1.8-4.4-5.1-7.7-8 2.1-2.5 4.5-4.8 7.3-6.6.3-.1.4-.3.5-.4 1-1 1-2.6 0-3.6-3.3-3.3-5.9-7.3-9.5-11.3.5-1.8 1.5-3.5 2.8-4.8 1.8-1.7 3.3-3.6 4.4-5.7 0-.3.1-.4.1-.7 0-1.5-1-2.8-2.4-2.9"/>
  <path d="M787.55 371.21c-15.7 0-16.7 22.6-1 23 17.3.8 17.8-23 1-23m-84.4 3.8c15.7 0 16.5 22.6 1 23-17.3.7-17.8-23-1-23"/>
  <path fill="#ff5fd5" d="M764.95 469.71c-.8-29-47.2-14.4-39.1 4.7-.8 31.4 42.1 32.1 39.1-4.7"/>
  <path fill="#f9f9f9" d="M711.35 422.91c16.7-20.2 52.9-20 72.4-1.8 12.9 2.8 33 21.6 35.2 35.8-7.2-5.1-11.2-5.8-17.2-7.2 9.3 8.2 12.1 21.9 12.9 25.4-4.9-2.5-9.8-7.9-14.4-10.8.7 6.7 5 18.5 1.8 25.7-6.4-9.6-14.8-19-22.2-24.6 2.5 5.1 0 14.6-1.2 16.9-3-6.1-7.6-12.2-10.8-17.5-3.5 3.6-6.5 7.6-9 12.1-2.8-4.3-6.5-10.8-7.8-13.3-4.3 5.1-8.2 11.8-10.8 13.9-2.4-3.5-3.5-11.4-6-14.4-3.2 4.9-6.9 9.6-10.8 13.9-.3-3.9-1.8-12.1-4.6-14.7-9.6 6.7-16.1 18.6-20.7 30.1-2.8-7.8-5.8-17.8-.8-25.9-4.3 1.1-10.5 3.2-19.7 9 1.8-5.4 4.4-14.4 13.3-21.2-5.7 0-17.1.7-21.6 3.2 2.7-10.9 21.8-27.6 42-34.6"/>
  <path d="M748.35 416.91c-27.3-.5-23.2 32.5-.4 32.9 26.9.4 26.1-32.5.4-32.9"/>
  <path fill="#98430a" d="M797.15 320.81c9.4 9.2 18 9.7 28.2 20.8 14.7 16.2 29.8 30.4 61.6 40.4-5.1-20.7-.3-80.7-39.3-81.6-18.6 0-44.6 13-50.5 20.4m-128 19.1c-19.4 16.2-49 25.5-79.1 32.6 7.1-14.1 23.6-51.8 46.3-72.1 23.3-5.8 44.7 8 47.7 14.3-10.5 4.4-5.2 16.9-14.9 25.2Z"/>
  <path fill="#d8cec8" d="M885.05 761.21c-4.7-2.4-31.5 11.3-37.3 13.8 14 3.3 31.3.6 61.3 2.3 24.4 1.3 9.4-27.2-9.5-16.3-3.3-.1-9 .1-14.5.2"/>
  <path fill="#e6dbd5" d="M768.05 766.01c17.2-2 36.5-14.9 37.3-22.4-2.5-48.7 22.5-63.8 42.3-76.4 9.8-6.1 42.4-33.2 58.6-43.5 8.4-5.4 19.4-12.1 25.4-14.8 6.2-6 6.8-8.8 6.7-13-.6-12.8-2.3-38.7 21.7-51.2 11.6-5.7 23.1-3.1 35.2-2.8 21.4-2.7 48.2 15.6 35.2 44 7.5 1.4 14.6 1.7 19.9 3 4.4 6.8 4.4 9.2 2.4 14.8-7.4-2.7-49.5 7.1-68.1 14.3-2.7 15.3-6.5 41-7.1 64.4 2.7 13.6 6.2 30.8 10.2 45.8.7 4.5-21.8 12.1-23.3 9.8-3.5-9.5-7.2-19.3-11.1-27.2-12.8 15.6-37.4 19.9-45.7 27.2-17.9 25-20.4 20.1-42.5 32.2-13.9 7.5-42.8 9.4-47.9-5.4-4.2 16.2-88.4 17.9-101.5 9.1 5.6-6.9 26.3-4.9 52.3-7.9"/>
  <path fill="#d8cec8" d="M1016.25 563.81c-9.6 1.1-16.5 18.4-.4 20.3 17.1 2 11.7-21.7.4-20.3"/>
  <path d="M1017.55 567.11c-10.2-1-12.9 13.3-.8 14 10.4.7 9.7-13.2.8-14"/>
  <path fill="#d8cec8" d="M986.85 725.51c-6.7 5.8-15.6 8.2-23.8 9.5 7.1 18.4 14.2 36 23.3 39.8 6.2 2.5 22.1 3 23.4-2.5 1.1-4.7-.7-14.9-11.3-13.3-4.1-6.7-8-19.5-11.6-33.5m33.2-168.5c-4.4 5.5 5.8 8.2 7.2 5.7 1.9-3.3-3.7-10.1-7.2-5.7m-58.9-6c7.5 4.8 16.6 6.8 25.4 5.5 2-17.9 15.3-48.9 17.3-69.3-4.2 18-49.7 48-42.7 63.8"/>
  <path fill="#d8cec8" d="M972.95 551.01c4.2 2 10.3 4.1 14.6 3.8 4.2-9.8 18.9-39 16.3-67.7-.5 20.7-33.6 48.5-30.9 63.9"/>
  <path fill="#faa" d="M980.05 548.91c3 2.4 6.7 2.5 8.2 4.4 13-15.3 15.6-39.4 15.6-66.1 3.9 28-26.3 46.3-23.8 61.7"/>
  <path fill="#d8cec8" d="M985.85 652.41c2.8 14.9 5.1 35-6.2 43 .3-.8-2.4-9.8-2.4-14.3-1.8-21.3-6-41.1.8-57-11.6-10.9 0-45.4 20.3-47.2-2.5 5.8-7.8 13-.8 16.2 16.9 7.8 25.4-3.1 31.9-3.8 7.4 1.4 15.5 3.5 20.7 4.8 4.4 6.8 8.5 9.5 6.5 15-6 19.9-22.4 20-40.8 13.5-.4 2-15.2 7-23.3 4.8-1.3 8.4-3.6 16.9-6.7 25"/>
  <path d="M1049.45 588.61c-3.5 8.9 1.8 15.3 7 19.9 4.8-2 9.2-10.5 4.7-15.5-2.2-2.3-7.1-4.1-11.7-4.4"/>
  <path fill="#d8cec8" d="M862.95 692.21c22.5 6 32.5 19 34.8 30.3 3.8 20.3-8.7 31.6-16.6 39.7 10.2-3.5 18.7-10.5 24.4-19.7 7.3-11.8.5-51.2-42.6-50.3"/>
</svg>