<svg xmlns="http://www.w3.org/2000/svg" viewBox="0 0 1111.85 613.5" width="100%" height="100%">
  <path fill="#666793" d="M93.68 353.24c-30.26 15.49-31.95 50.97-28.28 77.44 7.59 50.51 28.69 100.12 65.65 138.47 18.93 19.65 43.31 36.43 72.38 42.19 8.52 1.68 17.23 2.29 25.81 2.13 6.75-.08 13.65-.3 20.14-2.06h.15c.77-.12 1.1-.88.82-1.49-.12-.77-.88-1.1-1.5-.82-5.56 1.19-11.25 1.91-16.92 1.86-8.13.18-16.23-.25-24.31-1.45-86.46-15.58-138.7-125.54-140.93-198.08-.34-21 6.06-46.52 29.24-56.89 21.46-9.22 46.04-11.42 68.76-8.18 18.75 2.8 36.1 10.3 51.24 20.01-14.32 15.44-5.89 37.17 4.18 51.62 19.15 26.4 43.4 11.77 33.19-16-6.53-14.78-19.62-26.27-33.22-35.93 17.67-14.7 51.88-2.94 73.65-3.41 20.5.86 40.84-7 56.13-19.34 24.71-19.05 29.03-50.92 19.05-76.4-6.03-15.84-16.38-31.05-32.3-40.19 12.17-28.38 10.69-60.75 29.23-87.22 26.35-35.08 78.34-32.66 110.77-9.33-18.16 11.17-31.93 28.45-34.76 47.97-3.39 22.4 3.42 51.44 22.83 66.05 9.1 6.9 21.86 5.67 29.37-2.97 7.02-8.03 9.38-18.52 9.72-28.31 4.99 6.3 10.72 13.09 19.38 15.38 12.63 2.59 14.76-10.37 11.81-18.28-10.61-29.47-26.57-59.75-53.43-80.3 54.1-31.67 108.48-13.69 137.19 32.95 13.33 22.06 17.61 48.72 36.39 68.05 10.2 10.61 24.74 19.85 41.49 18.6 21.21-1.87 39.21-17.48 46.26-35.16 14.01 6.77 30.84 7.51 46.44 3.6 9.72-1.96 19.18-5.31 29.02-6.34 17.82-1.37 35.59 3.08 50.73 12.48 21.59 13.47 43.09 42.71 27.25 66.67-3.8-5.34-9.8-9.07-16.35-9.91-7-1.16-17.63.46-19.12 8.07-1.04 7.78 7.51 12.98 15.14 14 7.32.86 14.77-1.93 19.87-7.43 5.68 12.92 2.57 27.51-1.11 40.86-3.47 11.68-6.94 23.51-12.84 34.48-.65 1.05-1.3 2.1-1.94 3-.97 1.35 1.44 2.66 2.41 1.15 7.11-10.63 10.14-22.94 14.07-34.59 4.52-15.32 8.63-32.33 1.32-46.98 20.43-28.24-9.25-64.51-37.63-76.53-14.18-6.16-30.78-9.34-46.79-6.68-25.61 5.23-44.46 14.23-69.62 2.18 3.56-9.99 4.42-21.45-1.39-30.53-3.62-5.95-11.1-11.27-19.27-9.71-8.49 1.85-9.57 11.01-7.02 16.91 4.23 10.57 13.74 18.86 24.28 24.43-6.37 15.71-19.49 27.51-35.6 32.46-31.86 8.69-54.6-19.97-64.86-42.39-4.13-9.03-7.48-18.49-11.6-27.67-4.56-9.96-10.36-19.35-17.41-27.87-32.5-38.96-83.97-47.65-131.69-19.28-20.33-14.34-48.09-22.2-74.49-16.38-60.73 15.04-53.18 71.22-70.26 113.21-10.53-5.42-23.27-9.08-35.91-7.22-13.39 1.83-24.21 13.26-19.11 25.07 4.51 11.5 20.74 15.74 33.03 10.49 11.35-4.81 18.75-14.82 23.38-24.77 14.72 8.63 24.18 22.75 30.1 37.35 10.31 25.03 6.63 56.3-17.78 75.21-14.51 11.75-33.45 19.21-52.73 18.7-23.61.56-57.95-11.98-77.36 4.35-16.33-10.53-35.2-18.54-55.65-20.93-22.74-2.63-47.64-.28-68.66 9.56M298.8 221.36c12.16-1.88 24.3 1.76 34.53 7.17-4 9.2-10.6 18.32-20.57 23.18-9.04 4.43-21.25 3.25-27.6-3.57-10.04-10.92-1.44-24.72 13.65-26.79m574.43 62.56c8.76-.76 17.35 3.21 21.25 10.08-17.56 20.22-46.34-6.52-21.25-10.08m-133.9-101.17c5.98 8.63 5.3 19.49 1.9 29.02-9.62-5.24-18.39-13.05-22.5-22.69-1.98-4.81-1.87-12.32 4.93-13.93 6.62-1.15 12.45 3.04 15.67 7.59m-246.41 2.15c5.7 3.72 6.88 13.57 7.9 19.73-3.34-5.48-9.8-13.21-7.9-19.73m-47.7 19.33c-5.75-28.69 5.74-54.95 33.75-71.9 23.47 16.75 37.48 41.29 48.41 65.87 2.55 6.06 5.55 12.29 6.09 18.9.57 9.98-7.62 11.99-15.39 6.51-5.98-4.03-10.09-9.39-14.19-14.74-.17-3.99-.64-7.98-1.58-11.85-4.32-21.14-19.73-18.3-8.77 1.22 1.59 2.96 3.48 5.64 5.37 8.46.72 1.4 2.36 2.53 2.15 4.21.58 14.12-6.76 40.21-27.87 35.03-16.95-5.79-24.96-26.75-27.96-41.72M222.6 417.36c-9.05-13.03-17.25-32.62-6.03-47.09.48-.59 1.11-1.19 1.59-1.78 12.71 8.86 24.91 19.4 31.64 32.81 11.09 24.59-8.19 41.54-27.21 16.06"/>
  <path fill="#cf986f" d="M528.81 8.83c-5.88-12.7-30.01 2.86-41.29 5.08-11.27 2.22-37.16-1.59-35.57 8.1s21.28 70.03 21.28 70.03l55.58-83.21Z"/>
  <path fill="#ededed" d="M491.34 52.81c3.65-5.24 10.8-6.51 16.04-2.7 5.24 3.81 6.51 10.8 2.7 16.04-3.65 5.24-10.8 6.51-16.04 2.7-5.24-3.65-6.35-10.8-2.7-16.04"/>
  <path d="M492.45 55.2c2.54-3.65 7.62-4.61 11.27-1.91 3.65 2.54 4.61 7.62 1.91 11.27-2.54 3.65-7.62 4.61-11.27 1.91-3.65-2.54-4.61-7.62-1.91-11.27"/>
  <path fill="#fff" d="M491.18 57.74c.95-1.27 2.7-1.59 3.97-.64s1.59 2.7.64 3.97-2.7 1.59-3.97.64c-1.11-.95-1.43-2.7-.64-3.97"/>
  <path fill="#ab7d5b" d="M235.51 257.19c-92.26 5.4-188.5-58.28-199.61-123.39 0 0-16.83 6.99-1.43 49.86 0 0-32.55-26.84-32.87-13.82-.32 13.02 41.45 38.11 41.45 38.11s-46.21.64-42.88 13.66 60.66 12.7 60.66 12.7-57.8 18.74-54.47 28.11c3.33 9.37 55.42 1.59 55.42 1.59s-35.89 32.24-26.84 36.21 48.75-24.46 48.75-24.46-27 39.86-16.04 43.99c10.96 4.13 39.86-39.54 39.86-39.54s-14.13 40.34-6.67 40.49c7.46.16 36.05-34.14 36.05-34.14s-13.82 32.87-6.51 34.94c7.31 2.07 35.1-34.14 35.1-34.14s-6.35 37.16 6.03 35.57c12.39-1.59 64-65.74 64-65.74m407.17 342.23c-.48.16-1.11.32-1.59.48-7.78 1.43-15.56 1.91-23.34 1.59H616c-16.04-.64-31.92-2.22-47.64-4.76-6.67-1.27-24.14-83.85-36.52-147.37-7.78-39.86-13.66-72.26-13.66-72.26l67.01-39.86c-4.13 8.42-5.24 26.68-4.45 49.23 2.06 62.89 18.42 158.64 23.19 163.88 6.51 7.3 43.04 20.33 47.64 39.86.95 4.61-2.7 7.46-8.89 9.21"/>
  <path fill="#707070" d="M580.58 386.62c-3.81 11.75-10 29.22-13.82 29.06-5.56-.16-.95-17.94-.95-17.94s-28.27 21.28-32.87 39.07c-.79 4.29-1.43 8.58-1.59 12.86-7.78-39.86-13.66-72.26-13.66-72.26l67.01-39.86c-3.81 8.26-4.76 26.52-4.13 49.07" opacity=".54"/>
  <path fill="#ab7d5b" d="M354.77 602.27c-1.75.32-3.81.48-6.03.79-.48 0-1.11.16-1.75.16-4.61.48-10.16.95-16.04 1.27l-1.75.16c-17.94.79-37.79.32-42.08-4.13-6.67-7.15-30.01-136.09-27-169.12l35.73-95.6s60.34 15.56 57.96 47.16-40.18 55.42-43.83 84.32 5.72 89.88 5.72 89.88c16.67 7.3 54.31 42.88 39.07 45.1"/>
  <path fill="#c49069" d="M641.41 219.56c-4.29 6.83-20.17-21.28-20.17-21.28 4.92 23.66 2.54 104.97-3.02 107.51s-8.73-33.35-8.73-33.35-6.19 74.32-15.88 76.86-9.85-19.53-9.85-19.53-11.43 39.7-16.99 39.54-.95-17.94-.95-17.94-28.27 21.28-32.87 39.07-4.76 172.3-4.76 172.3c43.04 12.86 59.39 45.89 40.02 48.12-1.59.16-3.49.32-5.56.64-.48 0-1.11.16-1.59.16-4.29.48-9.21.79-14.45 1.11-.48 0-1.11 0-1.59.16-22.07 1.27-48.75.95-52.4-6.83-5.24-11.12-18.26-188.18-18.26-188.18-49.71 2.7-164.52-39.07-167.54-29.54s-49.23 80.04-60.34 86.71-18.9 82.26-6.67 88.14 36.05 45.1 22.23 46.21c-2.86.16-7.62.48-13.34.95-.48 0-1.11 0-1.59.16-6.19.32-13.5.79-20.64.95h-1.59c-17.15.32-33.98-.16-36.05-3.97-3.97-6.99 9.85-103.22-5.72-140.86-15.56-37.64-65.9-160.55 5.72-206.92 71.62-46.37 165.31-38.11 230.74-57.01 47.48-13.66 65.9-27.47 76.38-48.12 4.13-8.58 7.46-17.47 9.85-26.68l113.7-18.9s1.59 6.51 3.97 16.36c7.46 29.06 21.28 89.09 17.94 94.17"/>
  <path fill="#707070" d="M623.78 125.23c-23.03 23.98-109.57 31.28-127.52 29.22 4.13-8.58 7.46-17.47 9.85-26.68l113.7-18.9s1.59 6.51 3.97 16.36" opacity=".54"/>
  <path fill="#c49069" d="M629.97 94.9c-.64 1.91-1.43 3.65-2.22 5.4-14.45 29.22-118.31 37.48-133.08 34.46-8.73-1.75-16.36-7.46-20.49-15.4 0 0-8.89 8.42-16.2 8.26s-11.59-26.2-6.35-37.16c4.76-9.85 21.12-14.29 34.46-23.82.32-.32.79-.48 1.11-.79 1.11-.79 2.38-1.75 3.49-2.7 2.86-2.54 5.24-5.72 6.83-9.37.79-1.75 1.59-3.65 2.22-5.56 4.13-12.23 5.08-26.52 11.91-33.82 6.67-6.99 33.19-8.42 56.22-8.26 12.39 0 23.82.64 30.33.79 34.78 1.59 43.04 57.01 31.76 87.98"/>
  <path fill="#707070" d="M630.3 94.9c-.79.79-1.59 1.43-2.38 2.22 0 0-60.66-59.71-59.71-90.68v-.32c12.39 0 23.82.64 30.33.79 34.78 1.59 43.04 57.17 31.76 87.98" opacity=".54"/>
  <path fill="#1a1a1a" d="m463.39 86.8 25.73-.79c1.27 0 2.38.95 2.54 2.38 0 .64-.16 1.27-.64 1.59l-17.31 14.61c-.79.95-2.38 1.11-3.33.32l-.16-.16-8.58-13.66c-.95-.95-.95-2.54 0-3.49.64-.48 1.27-.79 1.75-.79"/>
  <path fill="#cf986f" d="M583.92 6.44c.48-14.77 38.75.32 50.82 1.43s25.57-2.7 30.81-1.91 1.27 72.41-21.91 91.15c.16 0-60.5-59.71-59.71-90.68"/>
  <path fill="#ededed" d="M549.78 58.21c3.65-5.24 10.8-6.51 16.04-2.7 5.24 3.65 6.51 10.8 2.7 16.04-3.65 5.24-10.8 6.51-16.04 2.7-5.08-3.65-6.35-10.8-2.7-16.04"/>
  <path d="M550.89 60.6c2.54-3.65 7.62-4.61 11.27-1.91 3.65 2.54 4.61 7.62 1.91 11.27-2.54 3.65-7.62 4.61-11.27 1.91-3.65-2.54-4.45-7.62-1.91-11.27"/>
  <path fill="#fff" d="M549.78 63.14c.95-1.27 2.7-1.59 3.97-.64s1.59 2.7.64 3.97-2.7 1.59-3.97.64c-1.27-.95-1.59-2.7-.64-3.97"/>
  <path fill="#d49b71" d="M604.56 222.1c-.95-7.46-3.18-14.77-4.45-22.23-1.43-8.1-2.22-16.2-2.54-24.46 0-.95-1.59-.95-1.59 0 .16 7.46.95 14.93 2.06 22.39 1.27 7.62 3.49 14.93 4.61 22.55 2.54 15.56-4.29 31.13-10.16 45.26-.48.95 1.11 1.43 1.59.48 5.56-13.66 12.23-28.9 10.48-43.99m-26.83-1.11c-4.45 6.67-3.33 15.09-3.02 22.71.48 9.69-.32 19.37-2.06 28.74-3.49 15.88-12.7 31.44-28.27 37.64-.95.32-.48 1.91.48 1.59 14.45-5.72 23.98-19.37 28.27-33.98 2.38-9.21 3.65-18.58 3.49-28.11 0-8.89-2.38-20.01 2.86-27.95.32-.64-1.11-1.43-1.75-.64m-22.4-36.53c-10 14.29-20.17 28.74-26.68 44.94-6.19 15.56-8.58 34.14-21.76 45.89-6.67 6.03-15.72 9.69-24.77 7.15-.48-.16-.79.16-.95.64s.16.79.64.95c15.4 4.29 29.54-7.62 36.21-20.49 4.13-7.78 6.51-16.36 9.21-24.77 3.02-9.21 6.99-18.1 11.75-26.52 5.4-9.37 11.59-18.26 17.94-27 .32-.79-1.11-1.59-1.59-.79m-11.27 75.27c-12.86 7.62-18.26 23.34-24.3 36.21-6.51 14.29-13.82 28.9-26.04 39.22-6.67 5.88-14.77 9.53-23.5 10.96-.95.16-.95 1.75 0 1.59 33.19-4.29 45.1-40.18 57.8-65.9 3.97-7.94 8.89-15.88 16.67-20.64.32-.16.48-.64.32-1.11 0-.32-.48-.48-.95-.32m12.7 69.23c-10.32 5.88-15.09 17.31-23.5 25.09-9.53 8.58-22.23 12.86-34.94 11.91-.95 0-.95 1.59 0 1.59 12.07.95 23.98-2.7 33.51-10.16 9.85-7.78 14.77-20.64 25.73-27 .32-.16.48-.64.32-1.11s-.64-.48-1.11-.32m52.4-172.93c.16-.95-1.27-1.43-1.59-.48-3.97 19.22 5.56 37.48 7.15 56.37.16.95 1.75.95 1.59 0-1.43-18.58-10.96-36.84-7.15-55.9m22.39 45.42c-6.35-10.48-10-22.39-10.8-34.62 0-.95-1.59-.95-1.59 0 .79 12.55 4.61 24.61 10.96 35.41.16.32.64.48 1.11.32.48-.16.64-.64.32-1.11m-13.82 36.21c0-.48-.32-.79-.79-.79s-.79.32-.79.79c.32 11.91-.79 23.66-3.49 35.25-.16.95 1.27 1.43 1.59.48 2.7-11.59 3.81-23.66 3.49-35.73m-15.89 30.81c-5.56 16.67-13.02 32.71-22.55 47.48-.48.79.79 1.75 1.43.79 9.53-14.93 17.15-30.97 22.71-47.8.32-1.11-1.27-1.59-1.59-.48m-19.53 16.21c-4.61 13.18-10.16 28.27-23.34 34.94-.95.48-.16 1.91.79 1.43 13.66-6.99 19.37-22.23 24.14-35.89.32-.95-1.27-1.43-1.59-.48"/>
  <path fill="#d49b71" d="M559.46 274.03c-1.75 6.51-4.92 12.7-9.21 17.94-3.97 4.61-8.73 8.73-13.82 12.07-8.26 5.72-17.47 11.43-20.33 21.76-.16.48.16.79.64.95s.79-.16.95-.64c3.18-11.27 14.45-16.99 23.34-23.34 9.69-6.83 16.83-16.83 20.01-28.27.16-.48-.16-.79-.64-.95-.48-.32-.79 0-.95.48m-41.59 69.23c-5.56 5.4-12.39 9.21-19.85 10.96-.95.32-.64 1.75.48 1.59 7.78-1.91 14.77-5.72 20.49-11.27.79-.95-.32-2.06-1.11-1.27m-211.06 14.44c-4.29 17.79-12.39 34.62-23.82 48.91-.64.79.48 1.91 1.11 1.11 11.59-14.61 19.85-31.6 24.14-49.71.32-.79-1.27-1.27-1.43-.32m-25.41 21.13c-5.4 22.07-32.71 31.92-34.46 55.58 0 .95 1.59.95 1.59 0 1.75-23.19 29.06-33.19 34.3-55.1.32-.95-1.27-1.43-1.43-.48m-8.42 45.1c-4.45 8.58-12.55 13.97-19.85 19.85-3.49 2.7-6.51 5.88-9.21 9.21-3.33 4.45-4.61 9.85-7.94 14.13-.64.79.79 1.59 1.43.79 3.18-4.29 4.45-9.53 7.62-13.97 3.02-3.81 6.51-7.3 10.48-10.16 6.99-5.72 14.61-10.96 18.9-19.22.32-.79-.95-1.59-1.43-.64m9.85-83.36c-4.61 13.97-13.5 26.2-25.57 34.78-.79.64 0 1.91.79 1.43 12.39-8.73 21.6-21.28 26.36-35.73.32-1.11-1.27-1.43-1.59-.48M260.28 389c-15.25 10.96-26.2 26.84-31.13 44.94-.16.48.16.79.64.95s.79-.16.95-.64c4.76-17.63 15.56-33.19 30.33-43.99.95-.48.16-1.91-.79-1.27m-31.13 67.98c-7.46 9.21-10.48 21.28-8.26 33.03.16.95 1.75.64 1.59-.48-2.06-11.12.79-22.71 7.94-31.44.48-.79-.64-1.91-1.27-1.11"/>
  <path fill="#ab7d5b" d="M248.85 610.37c-.48 0-1.11 0-1.59.16-.64-8.1-2.7-16.2-6.03-23.66-.48-.95.95-1.75 1.43-.79 3.49 7.62 5.56 15.88 6.19 24.3m-22.64 1.1h-1.18c-.32-5.4-1.11-10.8-2.22-16.04-.16-.95 1.27-1.43 1.59-.48 1.11 5.4 1.91 10.96 2.22 16.52m336.18.16c-.48 0-1.11.16-1.59.16-1.91-8.1-4.61-16.2-8.1-23.82-.48-.95.95-1.75 1.43-.79 3.65 7.94 6.35 16.04 8.26 24.46m-16.04 1.26c-.48 0-1.11 0-1.59.16-1.59-6.83-4.13-13.34-7.46-19.37-.48-.95.95-1.75 1.43-.79 3.33 6.35 5.88 13.02 7.62 20.01"/>
  <path fill="#8c674b" d="M348.73 603.06c-.48 0-1.11.16-1.75.16-4.13-9.21-10.32-17.31-17.94-23.82-.79-.64.32-1.75 1.11-1.11 8.1 6.83 14.29 15.4 18.58 24.77m-17.78 1.43-1.75.16c-2.86-6.83-6.99-13.18-12.07-18.58-.64-.79.48-1.91 1.11-1.11 5.56 5.72 9.85 12.23 12.7 19.53m311.74-4.76c-.48.16-1.11.32-1.59.48-5.4-8.58-12.39-16.04-20.49-22.07-.79-.64 0-1.91.79-1.43 8.42 6.35 15.72 14.13 21.28 23.03m-25.46 1.74h-1.37c-2.38-7.46-5.4-14.61-9.05-21.6-.48-.95.95-1.75 1.43-.79 3.81 7.15 6.99 14.61 9.37 22.39"/>
  <path fill="#5d5d5d" d="M804.79 55.81c-6.95-3.9 7.32 67.81 7.32 67.81l42.69 17.56s-3.54-59.52-50.01-85.38M564.76 330.48c-22.2 34.03-18.29 118.18 38.05 136.72 56.35 18.54-7.2 44.76-7.2 44.76s-52.32-15.49-64.28-82.69c-11.95-67.2 33.42-98.79 33.42-98.79"/>
  <path fill="#5d5d5d" d="M790.88 598.2c-26.22-10.85-131.72 0-131.72 0l-30.98-107.45h191l-28.3 107.45Zm44.15-184.29c28.78-.73 35.13 72.81 22.44 111.6-12.68 38.79-7.93 49.88-7.93 49.88s14.27 21.47 1.59 30.49c-12.68 9.03-43.66 0-43.66 0l27.56-191.97Zm-221.85 0c-28.78-.73-35.13 72.81-22.44 111.6 12.68 38.79 7.93 49.88 7.93 49.88s-14.27 21.47-1.59 30.49c12.68 9.03 43.66 0 43.66 0l-27.56-191.97Z"/>
  <path fill="#8e8e8e" d="m745.63 608.56.24.24c.49.37 1.1.73 1.71 1.1 3.29 1.59 9.03 2.68 15.86 3.17.61 0 1.34.12 1.95.12 15.86.98 36.1-.73 42.2-4.63 5.49-3.54 14.76-31.96 21.83-64.15 4.51-21.1 8.17-43.91 9.03-62.45.12-1.83.12-3.66.12-5.49.61-33.05-4.88-98.06-13.29-145.51-3.42-19.03-7.2-35.25-11.22-45.37l-9.51 2.2-13.54 3.17-3.05 31.35-14.39 148.68s1.59 16.34 2.2 35.98c.85 27.69-.37 61.84-10.98 65.98-18.42 6.95-26.34 28.66-19.15 35.61M611.79 476.47c3.78 46.23 21.47 125.87 30.98 132.09 5.73 3.66 24.03 5.49 39.39 4.76.61 0 1.34 0 1.95-.12 5.49-.12 10.85-.98 16.1-2.44.61-.24 1.22-.49 1.83-.73.85-.37 1.71-.85 2.44-1.59 7.2-6.95-.85-28.54-19.03-35.49s-8.78-101.96-8.78-101.96l.98-221-18.05 10.85c-29.27 33.3-56.1 115.01-47.81 215.64"/>
  <path fill="#f5e9e3" d="M628.18 476.47c7.93 15.49 47.57 56.35 78.55 60.25 17.56 2.2 45.49-10.49 68.91-29.64 17.93-14.64 33.17-33.05 39.03-51.47 9.76-30.74 1.59-86.72-4.51-126.6-.37-2.07-.61-4.02-.85-5.98-1.95-12.56-3.54-23.3-4.15-30.49-.12-1.59-.37-3.17-.85-4.76-8.42-34.39-74.89-123.19-74.89-123.19-8.29 8.05-15.98 16.71-22.93 25.86-.73.98-1.46 1.95-2.2 2.93-13.17 17.69-25.25 36.1-36.35 55.13-11.95 20.49-22.56 41.71-31.71 63.67-3.29 8.05-5.98 15.73-8.17 22.93-16.59 55.62-7.81 125.87.12 141.36"/>
  <path fill="#8e8e8e" d="M752.58 301.82c10.73 8.54 22.56 15.49 35.25 20.49 7.2 2.93 14.76 5.12 22.32 6.59 5 .98 10 1.71 15 2.07-3.42-19.03-7.2-35.25-11.22-45.37l-9.51 2.2c-8.42-34.52-74.89-123.19-74.89-123.19-8.29 8.05-15.98 16.71-22.93 25.86-13.42 39.88 17.81 89.16 45.98 111.35" opacity=".21" style="isolation:isolate"/>
  <path fill="#f5e9e3" d="M780.27 117.89c47.81-15.73 104.89 48.42 122.09 75.62 17.2 27.2 37.81 80.13 21.95 88.55-15.98 8.42-24.52 0-24.52 0s-.61 16.83-23.17 21.34-64.4 5.85-106.23-27.2-90.38-125.38 9.88-158.31"/>
  <path fill="#f5e9e3" d="m689.28 88.13 63.06 53.06-17.44 41.71s-68.79-36.59-45.62-94.77"/>
  <path fill="#1a1a1a" d="m899.92 236.44-30.37 8.29c-1.59.37-2.44 1.95-2.07 3.42.24.73.61 1.34 1.34 1.71l25.49 10.37c1.46.85 3.29.37 4.15-.98 0 0 0-.12.12-.12l4.88-18.66c.73-1.46.12-3.17-1.34-3.9-.73-.24-1.46-.37-2.2-.12"/>
  <path fill="#5d5d5d" d="M775.64 184c-20.86 21.22 16.83 69.15 36.59 58.3 19.76-10.85 23.17-34.15 11.22-49.52s-28.42-28.42-47.81-8.78"/>
  <path fill="#ededed" d="M785.76 206.48c-.12 6.34 4.88 11.59 11.22 11.83 6.34.24 11.59-4.88 11.83-11.22.12-6.34-4.88-11.59-11.22-11.83h-.37c-6.22 0-11.34 5-11.46 11.22"/>
  <path d="M787.34 205.01c-.12 4.55 3.48 8.24 8.05 8.3 4 .05 7.51-2.98 8.08-6.93.72-4.96-3-9.16-7.84-9.29h-.24c-4.39 0-8.05 3.54-8.05 7.93"/>
  <path fill="#fff" d="M789.17 201.71c0 1.02.5 1.89 1.28 2.41 1.78 1.19 4.22-.09 4.44-2.21.17-1.62-1.19-2.88-2.8-3h-.12c-1.46 0-2.81 1.22-2.81 2.81"/>
  <path fill="#ededed" d="M862.72 180.03c-.12 6.34 4.88 11.59 11.22 11.83 6.34.12 11.59-4.88 11.83-11.22.12-6.34-4.88-11.59-11.22-11.83h-.37c-6.22-.12-11.34 4.88-11.46 11.22"/>
  <path d="M864.18 177.65c-.12 4.55 3.48 8.24 8.05 8.3 4 .05 7.51-2.98 8.08-6.93.72-4.96-3-9.16-7.84-9.29h-.24c-4.27 0-7.93 3.54-8.05 7.93"/>
  <path fill="#fff" d="M866.13 175.26c0 1.59 1.22 2.81 2.81 2.93s2.81-1.22 2.93-2.81c0-1.59-1.22-2.81-2.81-2.93h-.12c-1.59 0-2.81 1.22-2.81 2.81"/>
  <path fill="#5d5d5d" d="M636.35 312.19s29.76 22.81 40.74 4.76-4.39-31.96-9.03-68.42c-12.07 20.49-22.69 41.71-31.71 63.67M829.3 544.41c4.51-21.1 8.17-43.91 9.03-62.45-27.93 17.32-45.13 47.44-9.03 62.45"/>
  <path fill="#c2b8b4" d="M745.88 608.81c.49.37 1.1.73 1.71 1.1 3.05-7.07 6.71-13.78 11.1-20.12.73-.98-.98-1.95-1.71-.98-4.39 6.34-8.05 12.93-11.1 20m17.56 4.27c.61 0 1.34.12 1.95.12 1.59-6.71 4.27-13.17 7.68-19.15.24-.49 0-1.1-.49-1.34s-.98 0-1.22.37c-3.66 6.22-6.34 12.93-7.93 20m-67.68-21.1c2.07 6.1 3.54 12.44 4.15 18.78.61-.24 1.22-.49 1.83-.73-.73-6.34-2.07-12.56-4.15-18.66-.37-1.1-2.32-.49-1.83.61m-14.76 2.19c.98 6.34 1.22 12.68.73 19.15.61 0 1.34 0 1.95-.12.37-6.59.12-13.05-.85-19.51-.12-1.22-1.95-.61-1.83.49"/>
  <path fill="#a6643c" d="M731.34 490.83c-34.93 14.58-79.92-5.4-80.8-.38s25.63 22.99 69.49 19.85c43.85-3.14 11.31-19.48 11.31-19.48"/>
  <path fill="#5c3a26" d="M855.48 605.95c-1.26 0-2.76.13-4.27.13h-1.63c-15.83.38-41.47-.13-45.49-2.64-2.39-1.38-6.91-15.33-11.56-32.29-4.4-16.21-9.05-35.18-12.06-48.75l56.04 18.35s-9.17 20.73-9.17 32.92c0 4.27 1.13 7.54 4.15 8.42 11.69 3.77 38.2 23.25 24 23.87m207.32-7.57c.13 2.01-1.38 3.52-3.9 4.65-.38.13-.75.25-1.13.5-3.02.88-6.28 1.51-9.42 1.63-.38 0-.88.13-1.26.13-8.8.63-18.85 0-22.62.13-4.52.13-11.31-25.88-15.83-46.37-3.02-13.32-5.03-24.25-5.03-24.25l33.05-26.01c-.13 7.29 0 17.72.25 28.15.38 16.08 1.01 32.04 1.88 36.44 1.26 7.04 23.75 15.71 24 25.01"/>
  <path fill="#707070" d="m780.47 522.49 56.04 18.35s-9.17 20.73-9.17 32.92c-12.31-.5-24.13-1.26-34.81-2.39-4.4-16.21-9.05-35.18-12.06-48.88m256.33 14.2c-6.79 8.54-16.46 15.96-28.27 22.12-3.02-13.32-5.03-24.25-5.03-24.25l33.05-26.01c-.13 7.29 0 17.72.25 28.15" opacity=".21" style="isolation:isolate"/>
  <path fill="#67443e" d="M1036.3 390.18c13.82-3.77 31.41-.38 31.29 1.63-.13 2.01-7.29 30.41-7.29 30.41l-24-32.04Z"/>
  <path fill="#5c3a26" d="M1107.55 415.56c-6.41 10.43-34.05 31.66-70.37 29.78 0 0 13.82 33.05-.38 67.23-14.2 34.18-72.88 56.04-132.57 52.27-43.73-2.76-92.36-1.88-127.67-6.79-12.82-1.76-23.87-4.27-32.29-8.04-31.66-14.07-31.41-51.14-7.29-62.83s164.61-3.14 204.94-15.71c7.54-2.39 14.32-6.53 19.98-11.94 20.48-19.23 28.77-52.4 30.66-61.7.38-1.63.5-2.51.5-2.51 4.77-7.29 46.37-6.28 50.39-3.77s4.52 10.68 10.3 13.7 51.02.13 54.79 5.28c.13.13.13.25.13.25.63 1.13.13 2.76-1.13 4.77"/>
  <path fill="#707070" d="M997.1 394.2s-7.92 71.75-20.86 78.16c-3.14 1.51-8.67-4.4-14.32-12.69 20.48-19.23 28.77-52.4 30.66-61.7 2.89-.38 4.02-5.4 4.52-3.77" opacity=".38" style="isolation:isolate"/>
  <path fill="#db824e" d="m1109.05 410.53-.13.5-1.26 4.52c-3.77 6.16-14.95 16.08-30.91 22.74-2.14.88-4.27 1.76-6.66 2.51-10.55 3.52-21.74 5.15-32.92 4.52 0 0 13.82 33.05-.38 67.23-14.2 34.18-72.88 56.04-132.57 52.27-43.73-2.76-92.36-1.88-127.67-6.79l-1.38-1.13s161.09 7.41 206.95-15.96 27.52-107.69 33.42-112.71c5.78-5.03 64.71.75 93.24-17.72 0 .13.13 0 .25 0"/>
  <path fill="#5c3a26" d="M801.7 612.33c-1.01 0-2.01.13-3.14-.57h-1.38c-3.77.82-8.29.82-13.07.81h-1.51c-14.07-.11-29.4-.87-32.42-2.63-4.4-2.76-22.99-58.05-29.28-85.95l61.82 23.12s-16.59 37.7-5.03 41.34 38.32 23.37 24 23.87m213.88-6.52c.13 2.01-1.38 3.39-3.64 4.52-.38.13-.75.38-1.26.5-3.02 1.01-6.16 1.51-9.3 1.76-.5 0-.88.13-1.38.13-8.92.63-19.1 0-22.99.13-7.54.13-20.86-70.49-20.86-70.49l31.79-12.31c-.25 18.35 1.88 43.6 3.39 50.76s23.87 15.83 24.25 25.01"/>
  <path fill="#67443e" d="M997.6 392.69c-3.02-8.29-53.78 17.47-52.52 24.63s23.87 44.61 31.16 40.84 21.36-65.47 21.36-65.47"/>
  <path fill="#1a1a1a" d="M1110.76 407.83h-9.87c-.5 0-1.01.38-1.01 1.01 0 .25.13.5.25.63l6.91 5.4c.38.38 1.01.38 1.38 0l3.14-5.4c.38-.38.38-1.01 0-1.38-.13-.25-.38-.25-.63-.25"/>
  <path fill="#ededed" d="M1012.55 412.92c-.13-3.52 2.76-6.53 6.28-6.66s6.53 2.76 6.66 6.28-2.76 6.53-6.28 6.66c-3.64.13-6.53-2.76-6.66-6.28"/>
  <path d="M1013.3 413.67c0-2.51 1.88-4.65 4.52-4.65s4.65 1.88 4.65 4.52-1.88 4.65-4.52 4.65-4.65-2.01-4.65-4.52"/>
  <path fill="#fff" d="M1014.56 415.69c0-.88.63-1.63 1.51-1.63s1.63.63 1.63 1.51-.63 1.63-1.51 1.63-1.63-.63-1.63-1.51"/>
  <path fill="#67443e" d="M1076.63 438.71c-2.14.88-4.27 1.76-6.66 2.51-.88-.13-1.88-.25-2.76-.25l-1.38-.13-1.38-.25c-3.77-.5-7.54-1.38-11.18-2.51-3.64-1.01-7.16-2.39-10.68-4.02-.25-.13-.25-.38-.13-.63.13-.13.25-.25.5-.13 3.39 1.38 7.04 2.51 10.68 3.39s7.29 1.51 11.06 1.76l1.38.13 1.38.13c.88 0 1.88.13 2.76.13 1.88 0 3.77 0 5.53-.13h.88m-129.55 35.66c-2.89 2.14-5.91 3.9-9.17 5.28-.75.38-.13 1.38.63 1.13 3.27-1.38 6.28-3.27 9.17-5.28.63-.5 0-1.63-.63-1.13m-22.99 4.65c-7.16 1.63-14.32 2.64-21.61 3.02-.75 0-.75 1.26 0 1.26 7.41-.38 14.7-1.38 21.99-3.14.75 0 .38-1.26-.38-1.13m4.4 5.64-19.85 4.4c-.75.13-.5 1.38.38 1.26l19.85-4.4c.75-.13.38-1.38-.38-1.26m-32.55 1.63c-7.41 1.26-14.83 1.76-22.37 1.26-.75 0-.75 1.26 0 1.26 7.54.5 15.2 0 22.74-1.26.75-.25.5-1.38-.38-1.26M883 481.91c-11.69-.25-23.37 0-35.06.75-.75 0-.75 1.26 0 1.26 11.69-.63 23.37-.88 35.06-.75.38 0 .63-.38.5-.75 0-.25-.25-.38-.5-.5m-23.12 5.64c-7.04-.38-14.2-.13-21.24.5-.75.13-.75 1.26 0 1.26 7.04-.63 14.2-.75 21.24-.5.75.13.75-1.13 0-1.26m-24.55-4.17h-8.62c-.38.4-.63.77-.5 1.15 0 .25.25.5.5.47h8.8c.38.03.63-.35.5-.73-.13-.25-.25-.5-.5-.5m-8.8 5.92c-5.15.38-10.43.5-15.71.25-.75 0-.75 1.26 0 1.26 5.28.25 10.43.13 15.71-.25.75 0 .75-1.26 0-1.26m-16.57-4.68h-18.49c-.38.03-.63.41-.5.78 0 .25.25.5.5.84h18.72c.38-.34.63-.72.5-1.09 0-.25-.25-.5-.5-.5m-16.47 4.84h-8.53c-.38.18-.63.56-.5.93 0 .25.25.5.5.69h8.8c.38-.19.63-.57.5-.94 0-.25-.25-.5-.5-.5m217.75 120.25c-.38.13-.75.38-1.26.5-3.64-4.52-7.66-8.54-12.06-12.31-.63-.5.25-1.38.88-.88 4.52 3.77 8.67 8.04 12.44 12.69m-10.55 2.27c-.5 0-.88.13-1.38.13-2.51-4.15-5.78-7.79-9.68-10.68-.63-.5 0-1.51.63-1.13 4.27 3.14 7.79 7.04 10.43 11.69m57.55-9.69c-.38.13-.75.25-1.13.5-3.14-5.15-7.41-9.68-12.31-13.32-.63-.5 0-1.51.63-1.13 5.15 3.77 9.55 8.54 12.82 13.95m-10.57 2.14c-.38 0-.88.13-1.26.13-1.88-4.27-4.65-8.04-7.92-11.31-.63-.5.25-1.38.88-.88 3.39 3.39 6.28 7.54 8.29 12.06m-196.77 1.03h-2c-2.76-3.39-5.91-6.41-9.3-9.05-.63-.5.25-1.38.88-.88 3.77 2.89 7.04 6.28 10.05 9.93m-52.44 6.5h-1.59c-3.39-6.03-9.17-10.3-15.83-12.06-.38-.13-.5-.5-.38-.88.13-.25.38-.38.63-.38 7.29 2.01 13.45 6.79 16.96 13.32m-14.41 0h-1.42c-2.26-3.52-5.03-6.91-8.04-9.8-.25-.25-.13-.63.13-.88.25-.13.5-.13.75 0 3.27 3.27 6.16 6.79 8.67 10.68"/>
</svg>