<svg xmlns="http://www.w3.org/2000/svg" id="Layer_2" viewBox="0 0 1281.86 613.48">
  <defs>
    <style>
      .dg1-1{fill:#67443e}.dg1-2{fill:#f5e9e3}.dg1-3{fill:#ededed}.dg1-4{fill:#fff}.dg1-10{fill:#cf986f}.dg1-13{fill:#ab7d5b}.dg1-14{fill:#c49069}.dg1-15{fill:#d49b71}.dg1-16{fill:#1a1a1a}.dg1-17{fill:#5c3a26}.dg1-18{fill:#5d5d5d}.dg1-20{isolation:isolate;fill:#707070;opacity:.54}
    </style>
  </defs>
  <path id="Curly_Line" fill="#666793" d="M263.95 345.09c16.05-12.98 36.87-19.84 57.2-21.68 18.13-1.59 36.26 2.2 52.79 8.94 13.11-18.74 45.56-13.47 65.78-18.5 16.66-3.18 31.36-13.6 41.28-27.07 16.78-22.05 12.86-51.57-1.59-72.63-8.33-12.37-19.84-23.64-34.42-28.78-1.71 10.04-5.88 20.7-14.58 27.19-9.31 7.23-24.37 6.25-30.87-3.55-7.1-9.92-.37-22.54 10.78-26.7 10.53-4.16 22.29-3.06 32.7-.12 5.27-42.01-13.84-92.48 35.15-117.59 21.56-10.41 47.16-8.21 67.98 1.22 34.79-35.03 81.09-36.75 118.08-6.86 7.96 6.61 15.19 14.09 21.31 22.54 5.63 7.72 10.53 15.8 16.29 23.39 13.96 18.86 40.05 40.91 65.53 27.07 13.23-7.59 21.68-22.05 23.39-36.5-10.41-3.18-20.46-9.06-26.46-18.01-3.55-5.02-4.65-13.72 2.2-16.9 6.74-2.94 14.33.49 18.86 5.27 7.1 7.35 8.94 18.01 8.08 27.93 24.5 6.49 38.71-5.27 59.65-14.94 13.35-5.39 28.29-5.63 41.89-2.57 27.19 5.76 61 33.68 49.73 63.69 9.55 12.13 9.8 28.66 9.43 43.61-.73 11.51-.61 23.39-4.41 34.54-.49 1.47-2.82.73-2.33-.61.37-.98.73-2.08.98-3.06 2.57-11.27 2.94-22.78 3.31-34.17.24-12.98-.37-26.95-8.21-37.85-3.06 6-8.94 9.92-15.56 10.53-6.74.49-15.43-2.82-16.17-10.04-.49-7.35 8.33-10.78 14.7-11.02 6.12-.37 12 1.84 16.29 6.12 8.21-25.11-16.78-48.01-38.58-56.47-14.58-5.51-31.36-6.86-46.67-1.96-8.33 2.69-15.68 7.59-23.52 11.27-12.62 6.61-27.31 8.94-40.91 5.27-2.08 17.52-14.09 35.4-32.09 41.16-14.09 4.29-28.78-1.59-39.93-9.43-20.58-14.45-30.25-38.09-46.79-56.1-35.28-37.73-86.23-44.1-125.92-4.9 27.8 13.35 48.38 38.22 64.18 63.45 4.29 6.74 5.39 19.11-6 19.11-7.96-.49-14.45-5.76-20.21-10.53 1.96 9.06 2.33 19.11-1.96 27.93-4.53 9.68-15.43 12.62-24.62 8.21-19.97-9.8-32.46-35.52-34.54-56.71-1.96-18.5 6.12-36.99 19.23-50.71-33.32-15.43-78.64-7.96-93.46 29.27-10.04 27.93-1.47 57.45-5.63 85.99 15.92 5.39 28.17 17.64 36.99 31.11 14.45 21.68 17.76 51.81.73 73.98-10.41 14.33-26.21 25.23-44.1 28.29-18.74 4.53-50.83 0-62.84 16.9 13.96 6.49 27.8 14.45 36.75 26.95 15.07 23.76-2.45 41.77-24.99 21.07-12-11.51-24.13-30.01-15.19-46.79-15.31-6.12-31.85-9.92-48.75-8.82-20.33 1.22-41.16 7.84-57.45 20.46-17.76 13.96-17.52 38.71-12.49 57.94 18.25 66.63 88.07 158.37 166.21 156.54 7.23-.37 14.33-1.47 21.31-3.31 4.78-1.22 9.8-2.45 14.09-4.9.61-.37 1.22-.12 1.59.49s.12 1.22-.49 1.59c-5.27 2.94-11.15 4.29-16.9 5.63-7.47 1.84-15.07 2.82-22.78 2.82-26.46 0-51.2-10.9-71.9-25.48-40.54-28.54-69.94-70.31-87.95-115.5-9.31-23.76-15.8-56.83 6.74-76.68m147.23-160.58c-12.49 4.78-16.9 18.99-5.63 27.19 6.98 5.14 17.76 3.92 24.62-1.84 7.47-6.25 11.15-16.05 12.62-25.23-10.17-2.94-21.44-4.16-31.6-.12m510.03-49.36c-20.82 8.08 9.92 27.31 20.7 5.27-5.39-5.63-13.47-7.72-20.7-5.27M782.75 66.83c-3.8-3.67-9.68-6.37-15.19-4.16-5.51 2.69-3.92 9.68-1.1 13.72 5.76 8.21 14.94 13.72 24.62 16.78.61-9.43-1.22-19.6-8.33-26.33m-212.27 47.89c-.12 6.37 7.1 12.25 11.27 16.78-2.2-5.51-5.51-14.45-11.27-16.78m-36.75 26.7c6 13.23 17.52 31.11 33.56 33.32 19.35.73 19.97-24.62 16.17-37.48-.24-1.59-1.84-2.33-2.82-3.43-2.2-2.2-4.53-4.41-6.49-6.86-13.84-16.05-1.22-21.44 7.23-2.69 1.59 3.43 2.94 6.98 4.04 10.66 4.78 4.16 9.55 8.33 15.56 10.9 7.84 3.55 14.58.12 11.88-8.82-1.84-6-5.88-11.27-9.43-16.29-14.94-20.7-32.7-40.67-56.71-51.81-20.46 20.82-24.5 47.16-12.98 72.51M389.57 379.8c22.29 19.97 35.03.73 19.84-19.84-8.82-11.02-21.68-18.5-34.66-24.5-.37.61-.61 1.22-.98 1.84-6.49 15.56 5.02 32.09 15.8 42.5"/>
  <g id="Golden_Retriever">
    <path d="M528.82 8.83c-5.88-12.7-30.01 2.86-41.29 5.08-11.27 2.22-37.16-1.59-35.57 8.1 1.59 9.69 21.28 70.03 21.28 70.03l55.58-83.21Z" class="dg1-10"/>
    <path d="M491.35 52.81c3.65-5.24 10.8-6.51 16.04-2.7 5.24 3.81 6.51 10.8 2.7 16.04-3.65 5.24-10.8 6.51-16.04 2.7-5.24-3.65-6.35-10.8-2.7-16.04" class="dg1-3"/>
    <path d="M492.46 55.2c2.54-3.65 7.62-4.61 11.27-1.91 3.65 2.54 4.61 7.62 1.91 11.27-2.54 3.65-7.62 4.61-11.27 1.91-3.65-2.54-4.61-7.62-1.91-11.27"/>
    <path d="M491.19 57.74c.95-1.27 2.7-1.59 3.97-.64s1.59 2.7.64 3.97-2.7 1.59-3.97.64c-1.11-.95-1.43-2.7-.64-3.97" class="dg1-4"/>
    <path d="M235.52 257.19c-92.26 5.4-188.5-58.28-199.61-123.39 0 0-16.83 6.99-1.43 49.86 0 0-32.55-26.84-32.87-13.82-.32 13.02 41.45 38.11 41.45 38.11s-46.21.64-42.88 13.66 60.66 12.7 60.66 12.7-57.8 18.74-54.47 28.11c3.33 9.37 55.42 1.59 55.42 1.59s-35.89 32.24-26.84 36.21c9.05 3.97 48.75-24.46 48.75-24.46s-27 39.86-16.04 43.99c10.96 4.13 39.86-39.54 39.86-39.54s-14.13 40.34-6.67 40.49c7.46.16 36.05-34.14 36.05-34.14s-13.82 32.87-6.51 34.94 35.1-34.14 35.1-34.14-6.35 37.16 6.03 35.57c12.39-1.59 64-65.74 64-65.74m407.17 342.23c-.48.16-1.11.32-1.59.48-7.78 1.43-15.56 1.91-23.34 1.59h-1.75c-16.04-.64-31.92-2.22-47.64-4.76-6.67-1.27-24.14-83.85-36.52-147.37-7.78-39.86-13.66-72.26-13.66-72.26l67.01-39.86c-4.13 8.42-5.24 26.68-4.45 49.23 2.06 62.89 18.42 158.64 23.19 163.88 6.51 7.3 43.04 20.33 47.64 39.86.95 4.61-2.7 7.46-8.89 9.21" class="dg1-13"/>
    <path d="M580.59 386.62c-3.81 11.75-10 29.22-13.82 29.06-5.56-.16-.95-17.94-.95-17.94s-28.27 21.28-32.87 39.07c-.79 4.29-1.43 8.58-1.59 12.86-7.78-39.86-13.66-72.26-13.66-72.26l67.01-39.86c-3.81 8.26-4.76 26.52-4.13 49.07" class="dg1-20"/>
    <path d="M354.78 602.27c-1.75.32-3.81.48-6.03.79-.48 0-1.11.16-1.75.16-4.61.48-10.16.95-16.04 1.27l-1.75.16c-17.94.79-37.79.32-42.08-4.13-6.67-7.15-30.01-136.09-27-169.12l35.73-95.6s60.34 15.56 57.96 47.16-40.18 55.42-43.83 84.32 5.72 89.88 5.72 89.88c16.67 7.3 54.31 42.88 39.07 45.1" class="dg1-13"/>
    <path d="M641.42 219.56c-4.29 6.83-20.17-21.28-20.17-21.28 4.92 23.66 2.54 104.97-3.02 107.51-5.56 2.54-8.73-33.35-8.73-33.35s-6.19 74.32-15.88 76.86-9.85-19.53-9.85-19.53-11.43 39.7-16.99 39.54-.95-17.94-.95-17.94-28.27 21.28-32.87 39.07-4.76 172.3-4.76 172.3c43.04 12.86 59.39 45.89 40.02 48.12-1.59.16-3.49.32-5.56.64-.48 0-1.11.16-1.59.16-4.29.48-9.21.79-14.45 1.11-.48 0-1.11 0-1.59.16-22.07 1.27-48.75.95-52.4-6.83-5.24-11.12-18.26-188.18-18.26-188.18-49.71 2.7-164.52-39.07-167.54-29.54s-49.23 80.04-60.34 86.71-18.9 82.26-6.67 88.14c12.23 5.88 36.05 45.1 22.23 46.21-2.86.16-7.62.48-13.34.95-.48 0-1.11 0-1.59.16-6.19.32-13.5.79-20.64.95h-1.59c-17.15.32-33.98-.16-36.05-3.97-3.97-6.99 9.85-103.22-5.72-140.86-15.56-37.64-65.9-160.55 5.72-206.92 71.62-46.37 165.31-38.11 230.74-57.01 47.48-13.66 65.9-27.47 76.38-48.12 4.13-8.58 7.46-17.47 9.85-26.68l113.7-18.9s1.59 6.51 3.97 16.36c7.46 29.06 21.28 89.09 17.94 94.17" class="dg1-14"/>
    <path d="M623.79 125.23c-23.03 23.98-109.57 31.28-127.52 29.22 4.13-8.58 7.46-17.47 9.85-26.68l113.7-18.9s1.59 6.51 3.97 16.36" class="dg1-20"/>
    <path d="M629.98 94.9c-.64 1.91-1.43 3.65-2.22 5.4-14.45 29.22-118.31 37.48-133.08 34.46-8.73-1.75-16.36-7.46-20.49-15.4 0 0-8.89 8.42-16.2 8.26s-11.59-26.2-6.35-37.16c4.76-9.85 21.12-14.29 34.46-23.82.32-.32.79-.48 1.11-.79 1.11-.79 2.38-1.75 3.49-2.7 2.86-2.54 5.24-5.72 6.83-9.37.79-1.75 1.59-3.65 2.22-5.56 4.13-12.23 5.08-26.52 11.91-33.82 6.67-6.99 33.19-8.42 56.22-8.26 12.39 0 23.82.64 30.33.79 34.78 1.59 43.04 57.01 31.76 87.98" class="dg1-14"/>
    <path d="M630.31 94.9c-.79.79-1.59 1.43-2.38 2.22 0 0-60.66-59.71-59.71-90.68v-.32c12.39 0 23.82.64 30.33.79 34.78 1.59 43.04 57.17 31.76 87.98" class="dg1-20"/>
    <path d="m463.4 86.8 25.73-.79c1.27 0 2.38.95 2.54 2.38 0 .64-.16 1.27-.64 1.59l-17.31 14.61c-.79.95-2.38 1.11-3.33.32l-.16-.16-8.58-13.66c-.95-.95-.95-2.54 0-3.49.64-.48 1.27-.79 1.75-.79" class="dg1-16"/>
    <path d="M583.93 6.44c.48-14.77 38.75.32 50.82 1.43 12.07 1.11 25.57-2.7 30.81-1.91 5.24.79 1.27 72.41-21.91 91.15.16 0-60.5-59.71-59.71-90.68" class="dg1-10"/>
    <path d="M549.79 58.21c3.65-5.24 10.8-6.51 16.04-2.7 5.24 3.65 6.51 10.8 2.7 16.04-3.65 5.24-10.8 6.51-16.04 2.7-5.08-3.65-6.35-10.8-2.7-16.04" class="dg1-3"/>
    <path d="M550.9 60.6c2.54-3.65 7.62-4.61 11.27-1.91 3.65 2.54 4.61 7.62 1.91 11.27-2.54 3.65-7.62 4.61-11.27 1.91-3.65-2.54-4.45-7.62-1.91-11.27"/>
    <path d="M549.79 63.14c.95-1.27 2.7-1.59 3.97-.64s1.59 2.7.64 3.97-2.7 1.59-3.97.64c-1.27-.95-1.59-2.7-.64-3.97" class="dg1-4"/>
    <path d="M604.57 222.1c-.95-7.46-3.18-14.77-4.45-22.23-1.43-8.1-2.22-16.2-2.54-24.46 0-.95-1.59-.95-1.59 0 .16 7.46.95 14.93 2.06 22.39 1.27 7.62 3.49 14.93 4.61 22.55 2.54 15.56-4.29 31.13-10.16 45.26-.48.95 1.11 1.43 1.59.48 5.56-13.66 12.23-28.9 10.48-43.99m-26.83-1.11c-4.45 6.67-3.33 15.09-3.02 22.71.48 9.69-.32 19.37-2.06 28.74-3.49 15.88-12.7 31.44-28.27 37.64-.95.32-.48 1.91.48 1.59 14.45-5.72 23.98-19.37 28.27-33.98 2.38-9.21 3.65-18.58 3.49-28.11 0-8.89-2.38-20.01 2.86-27.95.32-.64-1.11-1.43-1.75-.64m-22.4-36.53c-10 14.29-20.17 28.74-26.68 44.94-6.19 15.56-8.58 34.14-21.76 45.89-6.67 6.03-15.72 9.69-24.77 7.15-.48-.16-.79.16-.95.64-.16.48.16.79.64.95 15.4 4.29 29.54-7.62 36.21-20.49 4.13-7.78 6.51-16.36 9.21-24.77 3.02-9.21 6.99-18.1 11.75-26.52 5.4-9.37 11.59-18.26 17.94-27 .32-.79-1.11-1.59-1.59-.79m-11.27 75.27c-12.86 7.62-18.26 23.34-24.3 36.21-6.51 14.29-13.82 28.9-26.04 39.22-6.67 5.88-14.77 9.53-23.5 10.96-.95.16-.95 1.75 0 1.59 33.19-4.29 45.1-40.18 57.8-65.9 3.97-7.94 8.89-15.88 16.67-20.64.32-.16.48-.64.32-1.11 0-.32-.48-.48-.95-.32m12.7 69.23c-10.32 5.88-15.09 17.31-23.5 25.09-9.53 8.58-22.23 12.86-34.94 11.91-.95 0-.95 1.59 0 1.59 12.07.95 23.98-2.7 33.51-10.16 9.85-7.78 14.77-20.64 25.73-27 .32-.16.48-.64.32-1.11s-.64-.48-1.11-.32m52.4-172.93c.16-.95-1.27-1.43-1.59-.48-3.97 19.22 5.56 37.48 7.15 56.37.16.95 1.75.95 1.59 0-1.43-18.58-10.96-36.84-7.15-55.9m22.39 45.42c-6.35-10.48-10-22.39-10.8-34.62 0-.95-1.59-.95-1.59 0 .79 12.55 4.61 24.61 10.96 35.41.16.32.64.48 1.11.32.48-.16.64-.64.32-1.11m-13.82 36.21c0-.48-.32-.79-.79-.79s-.79.32-.79.79c.32 11.91-.79 23.66-3.49 35.25-.16.95 1.27 1.43 1.59.48 2.7-11.59 3.81-23.66 3.49-35.73m-15.89 30.81c-5.56 16.67-13.02 32.71-22.55 47.48-.48.79.79 1.75 1.43.79 9.53-14.93 17.15-30.97 22.71-47.8.32-1.11-1.27-1.59-1.59-.48m-19.53 16.21c-4.61 13.18-10.16 28.27-23.34 34.94-.95.48-.16 1.91.79 1.43 13.66-6.99 19.37-22.23 24.14-35.89.32-.95-1.27-1.43-1.59-.48" class="dg1-15"/>
    <path d="M559.47 274.03c-1.75 6.51-4.92 12.7-9.21 17.94-3.97 4.61-8.73 8.73-13.82 12.07-8.26 5.72-17.47 11.43-20.33 21.76-.16.48.16.79.64.95s.79-.16.95-.64c3.18-11.27 14.45-16.99 23.34-23.34 9.69-6.83 16.83-16.83 20.01-28.27.16-.48-.16-.79-.64-.95-.48-.32-.79 0-.95.48m-41.59 69.23c-5.56 5.4-12.39 9.21-19.85 10.96-.95.32-.64 1.75.48 1.59 7.78-1.91 14.77-5.72 20.49-11.27.79-.95-.32-2.06-1.11-1.27m-211.06 14.44c-4.29 17.79-12.39 34.62-23.82 48.91-.64.79.48 1.91 1.11 1.11 11.59-14.61 19.85-31.6 24.14-49.71.32-.79-1.27-1.27-1.43-.32m-25.41 21.13c-5.4 22.07-32.71 31.92-34.46 55.58 0 .95 1.59.95 1.59 0 1.75-23.19 29.06-33.19 34.3-55.1.32-.95-1.27-1.43-1.43-.48m-8.42 45.1c-4.45 8.58-12.55 13.97-19.85 19.85-3.49 2.7-6.51 5.88-9.21 9.21-3.33 4.45-4.61 9.85-7.94 14.13-.64.79.79 1.59 1.43.79 3.18-4.29 4.45-9.53 7.62-13.97 3.02-3.81 6.51-7.3 10.48-10.16 6.99-5.72 14.61-10.96 18.9-19.22.32-.79-.95-1.59-1.43-.64m9.85-83.36c-4.61 13.97-13.5 26.2-25.57 34.78-.79.64 0 1.91.79 1.43 12.39-8.73 21.6-21.28 26.36-35.73.32-1.11-1.27-1.43-1.59-.48M260.29 389c-15.25 10.96-26.2 26.84-31.13 44.94-.16.48.16.79.64.95.48.16.79-.16.95-.64 4.76-17.63 15.56-33.19 30.33-43.99.95-.48.16-1.91-.79-1.27m-31.13 67.98c-7.46 9.21-10.48 21.28-8.26 33.03.16.95 1.75.64 1.59-.48-2.06-11.12.79-22.71 7.94-31.44.48-.79-.64-1.91-1.27-1.11" class="dg1-15"/>
    <path d="M248.86 610.37c-.48 0-1.11 0-1.59.16-.64-8.1-2.7-16.2-6.03-23.66-.48-.95.95-1.75 1.43-.79 3.49 7.62 5.56 15.88 6.19 24.3m-22.64 1.1h-1.18c-.32-5.4-1.11-10.8-2.22-16.04-.16-.95 1.27-1.43 1.59-.48 1.11 5.4 1.91 10.96 2.22 16.52m336.18.16c-.48 0-1.11.16-1.59.16-1.91-8.1-4.61-16.2-8.1-23.82-.48-.95.95-1.75 1.43-.79 3.65 7.94 6.35 16.04 8.26 24.46m-16.04 1.26c-.48 0-1.11 0-1.59.16-1.59-6.83-4.13-13.34-7.46-19.37-.48-.95.95-1.75 1.43-.79 3.33 6.35 5.88 13.02 7.62 20.01" class="dg1-13"/>
    <path fill="#8c674b" d="M348.74 603.06c-.48 0-1.11.16-1.75.16-4.13-9.21-10.32-17.31-17.94-23.82-.79-.64.32-1.75 1.11-1.11 8.1 6.83 14.29 15.4 18.58 24.77m-17.78 1.43-1.75.16c-2.86-6.83-6.99-13.18-12.07-18.58-.64-.79.48-1.91 1.11-1.11 5.56 5.72 9.85 12.23 12.7 19.53m311.74-4.76c-.48.16-1.11.32-1.59.48-5.4-8.58-12.39-16.04-20.49-22.07-.79-.64 0-1.91.79-1.43 8.42 6.35 15.72 14.13 21.28 23.03m-25.46 1.74h-1.37c-2.38-7.46-5.4-14.61-9.05-21.6-.48-.95.95-1.75 1.43-.79 3.81 7.15 6.99 14.61 9.37 22.39"/>
  </g>
  <g id="Spotted_Pittie">
    <path d="M848.8 55.81c-6.95-3.9 7.32 67.81 7.32 67.81l42.69 17.56s-3.54-59.52-50.01-85.38M608.77 330.48c-22.2 34.03-18.29 118.18 38.05 136.72 56.35 18.54-7.2 44.76-7.2 44.76s-52.32-15.49-64.28-82.69c-11.95-67.2 33.42-98.79 33.42-98.79" class="dg1-18"/>
    <path d="M834.89 598.2c-26.22-10.85-131.72 0-131.72 0l-30.98-107.45h191l-28.3 107.45Zm44.15-184.29c28.78-.73 35.13 72.81 22.44 111.6-12.68 38.79-7.93 49.88-7.93 49.88s14.27 21.47 1.59 30.49c-12.68 9.03-43.66 0-43.66 0l27.56-191.97Zm-221.85 0c-28.78-.73-35.13 72.81-22.44 111.6 12.68 38.79 7.93 49.88 7.93 49.88s-14.27 21.47-1.59 30.49c12.68 9.03 43.66 0 43.66 0l-27.56-191.97Z" class="dg1-18"/>
    <path fill="#8e8e8e" d="m789.64 608.56.24.24c.49.37 1.1.73 1.71 1.1 3.29 1.59 9.03 2.68 15.86 3.17.61 0 1.34.12 1.95.12 15.86.98 36.1-.73 42.2-4.63 5.49-3.54 14.76-31.96 21.83-64.15 4.51-21.1 8.17-43.91 9.03-62.45.12-1.83.12-3.66.12-5.49.61-33.05-4.88-98.06-13.29-145.51-3.42-19.03-7.2-35.25-11.22-45.37l-9.51 2.2-13.54 3.17-3.05 31.35-14.39 148.68s1.59 16.34 2.2 35.98c.85 27.69-.37 61.84-10.98 65.98-18.42 6.95-26.34 28.66-19.15 35.61M655.8 476.47c3.78 46.23 21.47 125.87 30.98 132.09 5.73 3.66 24.03 5.49 39.39 4.76.61 0 1.34 0 1.95-.12 5.49-.12 10.85-.98 16.1-2.44.61-.24 1.22-.49 1.83-.73.85-.37 1.71-.85 2.44-1.59 7.2-6.95-.85-28.54-19.03-35.49s-8.78-101.96-8.78-101.96l.98-221-18.05 10.85c-29.27 33.3-56.1 115.01-47.81 215.64"/>
    <path d="M672.19 476.47c7.93 15.49 47.57 56.35 78.55 60.25 17.56 2.2 45.49-10.49 68.91-29.64 17.93-14.64 33.17-33.05 39.03-51.47 9.76-30.74 1.59-86.72-4.51-126.6-.37-2.07-.61-4.02-.85-5.98-1.95-12.56-3.54-23.3-4.15-30.49-.12-1.59-.37-3.17-.85-4.76-8.42-34.39-74.89-123.19-74.89-123.19-8.29 8.05-15.98 16.71-22.93 25.86-.73.98-1.46 1.95-2.2 2.93-13.17 17.69-25.25 36.1-36.35 55.13-11.95 20.49-22.56 41.71-31.71 63.67-3.29 8.05-5.98 15.73-8.17 22.93-16.59 55.62-7.81 125.87.12 141.36" class="dg1-2"/>
    <path fill="#8e8e8e" d="M796.59 301.82c10.73 8.54 22.56 15.49 35.25 20.49 7.2 2.93 14.76 5.12 22.32 6.59 5 .98 10 1.71 15 2.07-3.42-19.03-7.2-35.25-11.22-45.37l-9.51 2.2c-8.42-34.52-74.89-123.19-74.89-123.19-8.29 8.05-15.98 16.71-22.93 25.86-13.42 39.88 17.81 89.16 45.98 111.35" opacity=".21" style="isolation:isolate"/>
    <path d="M824.28 117.89c47.81-15.73 104.89 48.42 122.09 75.62 17.2 27.2 37.81 80.13 21.95 88.55-15.98 8.42-24.52 0-24.52 0s-.61 16.83-23.17 21.34c-22.56 4.51-64.4 5.85-106.23-27.2s-90.38-125.38 9.88-158.31" class="dg1-2"/>
    <path d="m733.29 88.13 63.06 53.06-17.44 41.71s-68.79-36.59-45.62-94.77" class="dg1-2"/>
    <path d="m943.93 236.44-30.37 8.29c-1.59.37-2.44 1.95-2.07 3.42.24.73.61 1.34 1.34 1.71l25.49 10.37c1.46.85 3.29.37 4.15-.98 0 0 0-.12.12-.12l4.88-18.66c.73-1.46.12-3.17-1.34-3.9-.73-.24-1.46-.37-2.2-.12" class="dg1-16"/>
    <path d="M819.65 184c-20.86 21.22 16.83 69.15 36.59 58.3 19.76-10.85 23.17-34.15 11.22-49.52s-28.42-28.42-47.81-8.78" class="dg1-18"/>
    <path d="M829.77 206.48c-.12 6.34 4.88 11.59 11.22 11.83 6.34.24 11.59-4.88 11.83-11.22.12-6.34-4.88-11.59-11.22-11.83h-.37c-6.22 0-11.34 5-11.46 11.22" class="dg1-3"/>
    <path d="M831.35 205.01c-.12 4.55 3.48 8.24 8.05 8.3 4 .05 7.51-2.98 8.08-6.93.72-4.96-3-9.16-7.84-9.29h-.24c-4.39 0-8.05 3.54-8.05 7.93"/>
    <path d="M833.18 201.71c0 1.02.5 1.89 1.28 2.41 1.78 1.19 4.22-.09 4.44-2.21.17-1.62-1.19-2.88-2.8-3h-.12c-1.46 0-2.81 1.22-2.81 2.81" class="dg1-4"/>
    <path d="M906.73 180.03c-.12 6.34 4.88 11.59 11.22 11.83 6.34.12 11.59-4.88 11.83-11.22.12-6.34-4.88-11.59-11.22-11.83h-.37c-6.22-.12-11.34 4.88-11.46 11.22" class="dg1-3"/>
    <path d="M908.19 177.65c-.12 4.55 3.48 8.24 8.05 8.3 4 .05 7.51-2.98 8.08-6.93.72-4.96-3-9.16-7.84-9.29h-.24c-4.27 0-7.93 3.54-8.05 7.93"/>
    <path d="M910.14 175.26c0 1.59 1.22 2.81 2.81 2.93s2.81-1.22 2.93-2.81c0-1.59-1.22-2.81-2.81-2.93h-.12c-1.59 0-2.81 1.22-2.81 2.81" class="dg1-4"/>
    <path d="M680.36 312.19s29.76 22.81 40.74 4.76c10.98-18.05-4.39-31.96-9.03-68.42-12.07 20.49-22.69 41.71-31.71 63.67m192.95 232.21c4.51-21.1 8.17-43.91 9.03-62.45-27.93 17.32-45.13 47.44-9.03 62.45" class="dg1-18"/>
    <path fill="#c2b8b4" d="M789.89 608.81c.49.37 1.1.73 1.71 1.1 3.05-7.07 6.71-13.78 11.1-20.12.73-.98-.98-1.95-1.71-.98-4.39 6.34-8.05 12.93-11.1 20m17.56 4.27c.61 0 1.34.12 1.95.12 1.59-6.71 4.27-13.17 7.68-19.15.24-.49 0-1.1-.49-1.34s-.98 0-1.22.37c-3.66 6.22-6.34 12.93-7.93 20m-67.68-21.1c2.07 6.1 3.54 12.44 4.15 18.78.61-.24 1.22-.49 1.83-.73-.73-6.34-2.07-12.56-4.15-18.66-.37-1.1-2.32-.49-1.83.61M725 594.17c.98 6.34 1.22 12.68.73 19.15.61 0 1.34 0 1.95-.12.37-6.59.12-13.05-.85-19.51-.12-1.22-1.95-.61-1.83.49"/>
  </g>
  <g id="Wiene_Dog">
    <path fill="#a6643c" d="M901.35 490.83c-34.93 14.58-79.92-5.4-80.8-.38s25.63 22.99 69.49 19.85c43.85-3.14 11.31-19.48 11.31-19.48"/>
    <path d="M1025.49 605.95c-1.26 0-2.76.13-4.27.13h-1.63c-15.83.38-41.47-.13-45.49-2.64-2.39-1.38-6.91-15.33-11.56-32.29-4.4-16.21-9.05-35.18-12.06-48.75l56.04 18.35s-9.17 20.73-9.17 32.92c0 4.27 1.13 7.54 4.15 8.42 11.69 3.77 38.2 23.25 24 23.87m207.32-7.57c.13 2.01-1.38 3.52-3.9 4.65-.38.13-.75.25-1.13.5-3.02.88-6.28 1.51-9.42 1.63-.38 0-.88.13-1.26.13-8.8.63-18.85 0-22.62.13-4.52.13-11.31-25.88-15.83-46.37-3.02-13.32-5.03-24.25-5.03-24.25l33.05-26.01c-.13 7.29 0 17.72.25 28.15.38 16.08 1.01 32.04 1.88 36.44 1.26 7.04 23.75 15.71 24 25.01" class="dg1-17"/>
    <path fill="#707070" d="m950.48 522.49 56.04 18.35s-9.17 20.73-9.17 32.92c-12.31-.5-24.13-1.26-34.81-2.39-4.4-16.21-9.05-35.18-12.06-48.88m256.33 14.2c-6.79 8.54-16.46 15.96-28.27 22.12-3.02-13.32-5.03-24.25-5.03-24.25l33.05-26.01c-.13 7.29 0 17.72.25 28.15" opacity=".21" style="isolation:isolate"/>
    <path d="M1206.31 390.18c13.82-3.77 31.41-.38 31.29 1.63-.13 2.01-7.29 30.41-7.29 30.41l-24-32.04Z" class="dg1-1"/>
    <path d="M1277.56 415.56c-6.41 10.43-34.05 31.66-70.37 29.78 0 0 13.82 33.05-.38 67.23-14.2 34.18-72.88 56.04-132.57 52.27-43.73-2.76-92.36-1.88-127.67-6.79-12.82-1.76-23.87-4.27-32.29-8.04-31.66-14.07-31.41-51.14-7.29-62.83s164.61-3.14 204.94-15.71c7.54-2.39 14.32-6.53 19.98-11.94 20.48-19.23 28.77-52.4 30.66-61.7.38-1.63.5-2.51.5-2.51 4.77-7.29 46.37-6.28 50.39-3.77s4.52 10.68 10.3 13.7 51.02.13 54.79 5.28c.13.13.13.25.13.25.63 1.13.13 2.76-1.13 4.77" class="dg1-17"/>
    <path fill="#707070" d="M1167.11 394.2s-7.92 71.75-20.86 78.16c-3.14 1.51-8.67-4.4-14.32-12.69 20.48-19.23 28.77-52.4 30.66-61.7 2.89-.38 4.02-5.4 4.52-3.77" opacity=".38" style="isolation:isolate"/>
    <path fill="#db824e" d="m1279.06 410.53-.13.5-1.26 4.52c-3.77 6.16-14.95 16.08-30.91 22.74-2.14.88-4.27 1.76-6.66 2.51-10.55 3.52-21.74 5.15-32.92 4.52 0 0 13.82 33.05-.38 67.23-14.2 34.18-72.88 56.04-132.57 52.27-43.73-2.76-92.36-1.88-127.67-6.79l-1.38-1.13s161.09 7.41 206.95-15.96c45.86-23.37 27.52-107.69 33.42-112.71 5.78-5.03 64.71.75 93.24-17.72 0 .13.13 0 .25 0"/>
    <path d="M971.71 612.33c-1.01 0-2.01.13-3.14-.57h-1.38c-3.77.82-8.29.82-13.07.81h-1.51c-14.07-.11-29.4-.87-32.42-2.63-4.4-2.76-22.99-58.05-29.28-85.95l61.82 23.12s-16.59 37.7-5.03 41.34c11.56 3.64 38.32 23.37 24 23.87m213.88-6.52c.13 2.01-1.38 3.39-3.64 4.52-.38.13-.75.38-1.26.5-3.02 1.01-6.16 1.51-9.3 1.76-.5 0-.88.13-1.38.13-8.92.63-19.1 0-22.99.13-7.54.13-20.86-70.49-20.86-70.49l31.79-12.31c-.25 18.35 1.88 43.6 3.39 50.76s23.87 15.83 24.25 25.01" class="dg1-17"/>
    <path d="M1167.61 392.69c-3.02-8.29-53.78 17.47-52.52 24.63 1.26 7.16 23.87 44.61 31.16 40.84 7.29-3.77 21.36-65.47 21.36-65.47" class="dg1-1"/>
    <path d="M1280.77 407.83h-9.87c-.5 0-1.01.38-1.01 1.01 0 .25.13.5.25.63l6.91 5.4c.38.38 1.01.38 1.38 0l3.14-5.4c.38-.38.38-1.01 0-1.38-.13-.25-.38-.25-.63-.25" class="dg1-16"/>
    <path d="M1182.56 412.92c-.13-3.52 2.76-6.53 6.28-6.66s6.53 2.76 6.66 6.28c.13 3.52-2.76 6.53-6.28 6.66-3.64.13-6.53-2.76-6.66-6.28" class="dg1-3"/>
    <path d="M1183.31 413.67c0-2.51 1.88-4.65 4.52-4.65s4.65 1.88 4.65 4.52-1.88 4.65-4.52 4.65c-2.51 0-4.65-2.01-4.65-4.52"/>
    <path d="M1184.57 415.69c0-.88.63-1.63 1.51-1.63s1.63.63 1.63 1.51-.63 1.63-1.51 1.63-1.63-.63-1.63-1.51" class="dg1-4"/>
    <path d="M1246.64 438.71c-2.14.88-4.27 1.76-6.66 2.51-.88-.13-1.88-.25-2.76-.25l-1.38-.13-1.38-.25c-3.77-.5-7.54-1.38-11.18-2.51-3.64-1.01-7.16-2.39-10.68-4.02-.25-.13-.25-.38-.13-.63.13-.13.25-.25.5-.13 3.39 1.38 7.04 2.51 10.68 3.39s7.29 1.51 11.06 1.76l1.38.13 1.38.13c.88 0 1.88.13 2.76.13 1.88 0 3.77 0 5.53-.13h.88m-129.55 35.66c-2.89 2.14-5.91 3.9-9.17 5.28-.75.38-.13 1.38.63 1.13 3.27-1.38 6.28-3.27 9.17-5.28.63-.5 0-1.63-.63-1.13m-22.99 4.65c-7.16 1.63-14.32 2.64-21.61 3.02-.75 0-.75 1.26 0 1.26 7.41-.38 14.7-1.38 21.99-3.14.75 0 .38-1.26-.38-1.13m4.4 5.64-19.85 4.4c-.75.13-.5 1.38.38 1.26l19.85-4.4c.75-.13.38-1.38-.38-1.26m-32.55 1.63c-7.41 1.26-14.83 1.76-22.37 1.26-.75 0-.75 1.26 0 1.26 7.54.5 15.2 0 22.74-1.26.75-.25.5-1.38-.38-1.26m-12.93-4.39c-11.69-.25-23.37 0-35.06.75-.75 0-.75 1.26 0 1.26 11.69-.63 23.37-.88 35.06-.75.38 0 .63-.38.5-.75 0-.25-.25-.38-.5-.5m-23.12 5.64c-7.04-.38-14.2-.13-21.24.5-.75.13-.75 1.26 0 1.26 7.04-.63 14.2-.75 21.24-.5.75.13.75-1.13 0-1.26m-24.55-4.17h-8.62c-.38.4-.63.77-.5 1.15 0 .25.25.5.5.47h8.8c.38.03.63-.35.5-.73-.13-.25-.25-.5-.5-.5m-8.8 5.92c-5.15.38-10.43.5-15.71.25-.75 0-.75 1.26 0 1.26 5.28.25 10.43.13 15.71-.25.75 0 .75-1.26 0-1.26m-16.57-4.68h-18.49c-.38.03-.63.41-.5.78 0 .25.25.5.5.84h18.72c.38-.34.63-.72.5-1.09 0-.25-.25-.5-.5-.5m-16.47 4.84h-8.53c-.38.18-.63.56-.5.93 0 .25.25.5.5.69h8.8c.38-.19.63-.57.5-.94 0-.25-.25-.5-.5-.5m217.75 120.25c-.38.13-.75.38-1.26.5-3.64-4.52-7.66-8.54-12.06-12.31-.63-.5.25-1.38.88-.88 4.52 3.77 8.67 8.04 12.44 12.69m-10.55 2.27c-.5 0-.88.13-1.38.13-2.51-4.15-5.78-7.79-9.68-10.68-.63-.5 0-1.51.63-1.13 4.27 3.14 7.79 7.04 10.43 11.69m57.55-9.69c-.38.13-.75.25-1.13.5-3.14-5.15-7.41-9.68-12.31-13.32-.63-.5 0-1.51.63-1.13 5.15 3.77 9.55 8.54 12.82 13.95m-10.57 2.14c-.38 0-.88.13-1.26.13-1.88-4.27-4.65-8.04-7.92-11.31-.63-.5.25-1.38.88-.88 3.39 3.39 6.28 7.54 8.29 12.06m-196.77 1.03h-2c-2.76-3.39-5.91-6.41-9.3-9.05-.63-.5.25-1.38.88-.88 3.77 2.89 7.04 6.28 10.05 9.93m-52.44 6.5h-1.59c-3.39-6.03-9.17-10.3-15.83-12.06-.38-.13-.5-.5-.38-.88.13-.25.38-.38.63-.38 7.29 2.01 13.45 6.79 16.96 13.32m-14.41 0h-1.42c-2.26-3.52-5.03-6.91-8.04-9.8-.25-.25-.13-.63.13-.88.25-.13.5-.13.75 0 3.27 3.27 6.16 6.79 8.67 10.68" class="dg1-1"/>
  </g>
</svg>