<svg xmlns="http://www.w3.org/2000/svg" viewBox="0 0 1017.29 1031.15" width="100%" height="100%">
  <path fill="#666793" d="M29.68 745.66C-.58 761.15-2.27 796.63 1.4 823.1c7.59 50.51 28.69 100.12 65.65 138.47 18.93 19.65 43.31 36.43 72.38 42.19 8.52 1.68 17.23 2.29 25.81 2.13 6.75-.08 13.65-.3 20.14-2.06h.15c.77-.12 1.1-.88.82-1.49-.12-.77-.88-1.1-1.5-.82-5.56 1.19-11.25 1.91-16.92 1.86-8.13.18-16.23-.25-24.31-1.45C57.16 986.35 4.92 876.39 2.69 803.85c-.34-21 6.06-46.52 29.24-56.89 21.46-9.22 46.04-11.42 68.76-8.18 18.75 2.8 36.1 10.3 51.24 20.01-14.32 15.44-5.89 37.17 4.18 51.62 19.15 26.4 43.4 11.77 33.19-16-6.53-14.78-19.62-26.27-33.22-35.93 17.67-14.7 51.88-2.94 73.65-3.41 20.5.86 40.84-7 56.13-19.34 24.71-19.05 29.03-50.92 19.05-76.4-6.03-15.84-16.38-31.05-32.3-40.19 12.17-28.38 10.69-60.75 29.23-87.22 26.35-35.08 78.34-32.66 110.77-9.33-18.16 11.17-31.93 28.45-34.76 47.97-3.39 22.4 3.42 51.44 22.83 66.05 9.1 6.9 21.86 5.67 29.37-2.97 7.02-8.03 9.38-18.52 9.72-28.31 4.99 6.3 10.72 13.09 19.38 15.38 12.63 2.59 14.76-10.37 11.81-18.28-10.61-29.47-26.57-59.75-53.43-80.3 54.1-31.67 108.48-13.69 137.19 32.95 13.33 22.06 17.61 48.72 36.39 68.05 10.2 10.61 24.74 19.85 41.49 18.6 21.21-1.87 39.21-17.48 46.26-35.16 14.01 6.77 30.84 7.51 46.44 3.6 9.72-1.96 19.18-5.31 29.02-6.34 17.82-1.37 35.59 3.08 50.73 12.48 21.59 13.47 43.09 42.71 27.25 66.67-3.8-5.34-9.8-9.07-16.35-9.91-7-1.16-17.63.46-19.12 8.07-1.04 7.78 7.51 12.98 15.14 14 7.32.86 14.77-1.93 19.87-7.43 5.68 12.92 2.57 27.51-1.11 40.86-3.47 11.68-6.94 23.51-12.84 34.48-.65 1.05-1.3 2.1-1.94 3-.97 1.35 1.44 2.66 2.41 1.15 7.11-10.63 10.14-22.94 14.07-34.59 4.52-15.32 8.63-32.33 1.32-46.98 20.43-28.24-9.25-64.51-37.63-76.53-14.18-6.16-30.78-9.34-46.79-6.68-25.61 5.23-44.46 14.23-69.62 2.18 3.56-9.99 4.42-21.45-1.39-30.53-3.62-5.95-11.1-11.27-19.27-9.71-8.49 1.85-9.57 11.01-7.02 16.91 4.23 10.57 13.74 18.86 24.28 24.43-6.37 15.71-19.49 27.51-35.6 32.46-31.86 8.69-54.6-19.97-64.86-42.39-4.13-9.03-7.48-18.49-11.6-27.67-4.56-9.96-10.36-19.35-17.41-27.87-32.5-38.96-83.97-47.65-131.69-19.28-20.33-14.34-48.09-22.2-74.49-16.38-60.73 15.04-53.18 71.22-70.26 113.21-10.53-5.42-23.27-9.08-35.91-7.22-13.39 1.83-24.21 13.26-19.11 25.07 4.51 11.5 20.74 15.74 33.03 10.49 11.35-4.81 18.75-14.82 23.38-24.77 14.72 8.63 24.18 22.75 30.1 37.35 10.31 25.03 6.63 56.3-17.78 75.21-14.51 11.75-33.45 19.21-52.73 18.7-23.61.56-57.95-11.98-77.36 4.35-16.33-10.53-35.2-18.54-55.65-20.93-22.74-2.63-47.64-.28-68.66 9.56M234.8 613.78c12.16-1.88 24.3 1.76 34.53 7.17-4 9.2-10.6 18.32-20.57 23.18-9.04 4.43-21.25 3.25-27.6-3.57-10.04-10.92-1.44-24.72 13.65-26.79m574.43 62.56c8.76-.76 17.35 3.21 21.25 10.08-17.56 20.22-46.34-6.52-21.25-10.08m-133.9-101.17c5.98 8.63 5.3 19.49 1.9 29.02-9.62-5.24-18.39-13.05-22.5-22.69-1.98-4.81-1.87-12.32 4.93-13.93 6.62-1.15 12.45 3.04 15.67 7.59m-246.41 2.15c5.7 3.72 6.88 13.57 7.9 19.73-3.34-5.48-9.8-13.21-7.9-19.73m-47.7 19.33c-5.75-28.69 5.74-54.95 33.75-71.9 23.47 16.75 37.48 41.29 48.41 65.87 2.55 6.06 5.55 12.29 6.09 18.9.57 9.98-7.62 11.99-15.39 6.51-5.98-4.03-10.09-9.39-14.19-14.74-.17-3.99-.64-7.98-1.58-11.85-4.32-21.14-19.73-18.3-8.77 1.22 1.59 2.96 3.48 5.64 5.37 8.46.72 1.4 2.36 2.53 2.15 4.21.58 14.12-6.76 40.21-27.87 35.03-16.95-5.79-24.96-26.75-27.96-41.72M158.6 809.78c-9.05-13.03-17.25-32.62-6.03-47.09.48-.59 1.11-1.19 1.59-1.78 12.71 8.86 24.91 19.4 31.64 32.81 11.09 24.59-8.19 41.54-27.21 16.06"/>
  <path fill="#83838c" d="M241.53 827.78c0-16.76 37.9-20.95 37.9-20.95s-39.72-6.19-37.71-19.86c2-13.66 35.53 0 35.53 0-12.57-22.05-7.29-34.62-7.29-34.62 16.4 34.98 41.18 55.02 67.96 63.77 1.28.36 2.73.91 4.19 1.28 15.49 4.19 31.7 5.28 47.55 2.73 1.46-.18 3.1-.36 4.55-.73 14.21-2.73 27.88-8.02 40.08-15.67l-9.47 39.72s-40.63 48.28-57.94 51.93c-1.46.36-2.92.36-4.19-.18-.36-.18-.55-.18-.73-.36-12.03-8.02-2-37.9-1.09-40.63-1.28 3.1-19.13 42.63-30.24 40.63-11.48-2 7.29-48.1 7.29-48.1s-29.15 38.63-35.53 32.43c-6.38-6.19 14.21-41.36 14.58-41.91-.55.18-31.52 17.86-44.09 21.68-2.73.73-4.55.91-5.1.18-.18-.36-.36-.91-.18-1.46.91-7.11 21.13-29.88 21.13-29.88s-47.19 16.76-47.19 0"/>
  <path fill="#c3c3d1" d="M305.12 1023.83c-14.58 0 54.48-59.03 71.42-110.23 3.46-10.02 6.01-19.86 8.75-29.7 7.47-27.15 15.49-53.02 39.9-75.25 11.48-10.02 24.23-18.22 37.9-24.41.55-.36 1.28-.55 2-.91 2.92-1.28 5.83-2.55 8.93-3.83 5.47-2.19 10.93-4.37 16.4-6.38.55-.36 1.28-.55 1.82-.73 27.15-10.02 52.65-17.31 76.16-24.96.55-.18 1.28-.36 1.82-.55 7.47-2.37 14.76-4.92 21.68-7.47.55-.18 1.09-.36 1.64-.55 23.69-8.93 44.64-19.86 61.58-36.26l1.64-1.64c3.1-3.1 6.19-6.56 8.93-10.02 33.52-42.09 30.43-133.91 69.23-173.09 8.38-8.75 19.13-14.58 30.97-16.94 0 0 49.01 15.12 90.55 22.59 19.86 3.64 39.9 5.47 60.12 5.28 8.2-.18 12.75-.55 12.75-.55-1.28 1.82-2.73 3.83-4.19 5.65-9.84 12.21-26.97 23.14-54.66 26.42-3.28.55-6.92.73-10.57.91-17.49.73-38.63-1.28-63.77-7.47-11.11 21.86-20.77 44.46-29.15 67.41-2.55 6.92-5.1 14.21-7.65 22.05-.36 1.28-.73 2.37-1.09 3.64-3.46 10.57-6.92 21.86-10.02 33.71-.18.91-.55 1.82-.73 2.73-.36 1.82-.91 3.46-1.28 5.28-5.47 20.95-9.47 42.09-12.39 63.59-.91 7.29-1.82 14.39-2.55 21.13v.18c-3.83 32.61-5.1 59.03-4.37 81.26 1.28 40.81 10.02 67.23 24.78 91.1 24.6 39.72 51.56 53.02 42.27 58.85s-57.57-27.33-57.57-27.33 16.22 45.37 8.56 45.37-33.16-34.98-33.16-34.98 3.83 41.54 0 42.45c-3.64.91-30.61-38.08-31.16-38.81.18.73 8.38 33.16 0 38.81-8.56 5.65-20.77-31.16-20.77-31.16s-.91 32.07-11.3 32.07c-.91 0-1.82-.18-2.55-.73-1.28-.91-2.37-2-3.28-3.46-6.74-10.02-10.2-33.52-10.2-33.52s-10.39 35.89-18.04 37.71-14.21-43.55-14.21-43.55-14.21 41.72-19.86 43.55c-5.65 1.82-10.39-43.55-10.39-43.55s-2 4.01-5.1 9.66c-2 3.64-4.55 7.83-7.11 12.21-6.19 10.02-13.12 20.22-17.13 21.5-5.47 1.82-10.57-15.3-13.48-27.69-1.64-6.74-2.55-12.03-2.55-12.03l-.36 1.28c-2 6.56-12.39 38.44-17.49 38.44-5.65 0-7.47-26.42-7.47-26.42s-8.38 24.6-19.68 26.42-12.21-39.72-12.21-39.72-16.94 37.9-25.51 39.72c-5.47 1.28-7.11-18.04-7.47-31.88-.18-4.37-.18-8.38-.18-10.75v-2.73s-18.95 46.28-28.42 45.37c-8.02-.73-8.56-32.98-8.56-42.63v-2.73s-17.86 45.37-26.42 45.37c-.73 0-1.28-.18-1.82-.73-6.19-5.47-3.83-39.9-3.83-39.9s-18.95 40.63-33.16 40.63 4.37-36.99 5.65-39.54c-1.46 2.37-18.58 32.43-32.61 32.43"/>
  <path fill="#707070" d="M688.1 885.9c-10.39 1.09 12.75-49.56.18-126.63-14.21-86 18.4-157.96 26.6-190.03 8.2-32.07 30.97-16.94 30.97-16.94-8.56 45.91-4.19 88 2.37 128.08-6.38 23.69-11.11 47.55-14.39 71.79-5.65 42.63-7.83 75.79-6.92 102.58-3.64 7.47-7.29 13.66-10.39 15.12-9.47 4.74-5.47-45-5.47-45s-12.57 60.12-22.96 61.04" opacity=".21" style="isolation:isolate"/>
  <path fill="#83838c" d="M708.14 834.34c-10.39 1.09 12.75-49.56.18-126.44-14.21-86 18.4-157.96 26.6-190.03 8.2-32.07 30.97-16.94 30.97-16.94-15.12 81.26 10.39 150.13 16.03 218.27 1.82 20.22.91 40.63-2.92 60.49-1.28 5.65-2.73 11.3-4.74 16.94-5.28 14.94-11.48 22.05-13.3 21.68-3.83-.91 0-51.93 0-51.93s-13.12 41.18-22.59 50.47c-.73.55-1.28 1.09-2 1.46-.18 0-.36.18-.55.18-8.75 2.55-4.92-45.18-4.92-45.18s-7.65 37.17-16.03 53.57c-.55 1.28-1.28 2.55-2.19 3.83-1.46 2.19-3.1 3.46-4.55 3.64"/>
  <path fill="#1a1a1a" d="M916.57 528.8c8.2-.18 12.75-.55 12.75-.55-1.28 2-2.73 4.01-4.19 5.83l-8.38-5.1-.18-.18"/>
  <path fill="#ededed" d="M782.84 526.43c0-3.28 2.73-6.01 6.01-6.01s6.01 2.73 6.01 6.01-2.73 6.01-6.01 6.01-6.01-2.73-6.01-6.01"/>
  <path d="M783.02 525.88c0-2.37 1.82-4.19 4.19-4.19s4.19 1.82 4.19 4.19-1.82 4.19-4.19 4.19-4.19-1.82-4.19-4.19"/>
  <path fill="#fff" d="M784.66 523.88c0-.73.55-1.46 1.46-1.46.73 0 1.46.73 1.46 1.46s-.73 1.46-1.46 1.46-1.46-.73-1.46-1.46"/>
  <path fill="#424247" d="M745.12 567.42c-.36-6.38-.36-12.75 0-18.77.36-6.38 1.28-12.75 2.73-18.95v-.18c.18-.36.36-.55.73-.36s.55.36.36.73c-1.28 6.19-2.19 12.39-2.55 18.77-.18 6.19-.18 12.57.18 18.95.91 12.75 2.55 25.33 4.92 37.9s5.1 24.96 7.83 37.35c2.73 12.39 5.65 24.96 8.38 37.35s5.28 24.96 7.29 37.53c2 12.57 3.46 25.33 4.19 38.08.36 8.02.36 15.85 0 23.87-1.28 5.65-2.73 11.3-4.74 16.94.18-1.09.18-2 .36-2.92 1.64-12.57 2.19-25.33 1.46-37.9-.55-12.75-1.82-25.33-3.83-37.9-1.82-12.57-4.19-25.14-6.92-37.53s-5.47-24.96-8.2-37.35-5.47-24.96-7.65-37.53c-2.19-12.57-3.83-25.33-4.55-38.08"/>
  <path fill="#424247" d="M746.22 692.78c-.18-6.92-.91-13.66-2.19-20.22-.73-6.74-1.82-13.48-2.92-20.22-.91-6.74-2-13.48-2.92-20.22-1.82-13.48-3.46-26.97-4.19-40.63-.91-13.66-.18-27.33 2-40.81 2.19-13.3 6.01-26.6 11.3-39.17v-.18c.18-.18.55-.36.73-.18s.36.55.18.73c-5.1 12.57-8.75 25.69-11.11 38.99-2 13.48-2.73 27.15-1.82 40.63.73 13.48 2.55 26.97 4.37 40.45 1.09 6.74 2 13.48 3.1 20.22s2.19 13.48 3.1 20.22 1.46 13.66 1.82 20.41c.36 6.74.55 13.66.55 20.41s-.18 13.66-.55 20.41c-.18 6.74-.73 13.66-1.28 20.41-1.09 13.66-2.73 27.15-4.55 40.63-.91 6.74-2 13.48-3.1 20.22l-.36 2.19c-.73.55-1.28 1.09-2 1.46-.18 0-.36.18-.55.18.18-1.46.55-2.73.73-4.19 1.28-6.56 2.37-13.3 3.28-20.04 2-13.48 3.64-26.97 4.74-40.45.73-6.92 1.09-13.66 1.46-20.41.36-6.74.36-13.48.55-20.41s0-13.66-.36-20.41"/>
  <path fill="#424247" d="M712.51 828.33c-.55-5.47-.55-10.75-.18-15.85.73-10.93 2.73-21.5 6.01-31.88 3.1-10.39 6.74-20.41 9.84-30.61 1.46-5.1 2.73-10.2 3.83-15.49.91-5.28 1.64-10.57 2-15.85s.36-10.75.18-16.03c-.18-5.47-.73-10.75-1.28-16.03-1.28-10.75-3.1-21.32-4.74-31.88s-2.92-21.32-3.64-32.07c-.36-5.47-.55-10.75-.55-16.22s.18-10.93.55-16.22c0-.36.18-.55.55-.55s.55.18.55.55c-.18 5.28-.36 10.75-.36 16.03s.18 10.75.55 16.03c.73 10.75 2 21.32 3.83 31.88 1.82 10.57 3.83 21.13 5.1 31.88.73 5.28 1.28 10.57 1.46 16.03s.18 10.75-.18 16.22c-.36 5.28-.91 10.75-2 16.03s-2.37 10.57-3.83 15.67c-2.92 10.39-6.74 20.59-9.66 30.79-3.28 10.2-5.1 20.77-5.83 31.34-.36 4.92-.18 9.84.18 14.76-.55 1.28-1.28 2.55-2.19 3.83 0-.73-.18-1.64-.18-2.37"/>
  <path fill="#83838c" d="M434.3 999.05c-.18-4.37-.18-8.2 0-10.75.36-.73.55-1.46.73-2.19 3.28-11.11 6.19-22.59 8.75-34.07 5.1-22.96 9.66-45.91 14.39-69.05 2.55-11.48 4.92-22.96 7.65-34.44 2.73-11.48 5.65-22.96 8.93-34.25 3.28-11.48 7.29-22.59 12.03-33.34 1.28-2.73 2.55-5.28 3.83-7.83.55-.36 1.28-.55 1.82-.73-1.64 3.1-3.1 6.01-4.37 9.11-4.74 10.75-8.56 21.86-11.66 33.16-3.28 11.3-6.01 22.96-8.56 34.25s-4.92 22.96-7.29 34.44c-4.74 22.96-8.93 46.1-13.85 69.23-2.55 11.48-5.28 23.14-8.56 34.44-1.09 4.01-2.37 8.02-3.83 12.03m123.7 10.37c.91-2.19 1.64-4.55 2.19-6.74.73-2.92 1.28-6.01 1.82-9.11.91-6.19 1.64-12.39 2.19-18.58 1.09-12.57 1.82-24.96 2.55-37.53 1.28-24.96 2.37-50.1 4.19-75.07.91-12.57 2-24.96 3.28-37.53s2.92-24.96 5.1-37.35c2-12.39 4.92-24.6 8.56-36.62 1.28-3.83 2.55-7.65 4.01-11.3.55-.18 1.09-.36 1.64-.55-1.46 4.01-2.92 8.02-4.19 12.21-3.46 12.03-6.19 24.23-8.2 36.62-2 12.21-3.46 24.6-4.74 37.17-1.28 12.57-2.19 24.96-2.92 37.53-1.64 24.96-2.55 49.92-3.64 75.07-.55 12.39-1.09 24.96-2.19 37.53-.55 6.19-1.09 12.57-2 18.77-.18 1.09-.36 2.19-.55 3.28-2 3.64-4.55 7.83-7.11 12.21m-33.52-16.95c.36-2.19.55-4.19.73-6.74 1.64-12.39 3.1-24.96 4.37-37.53 2.55-24.96 5.1-50.1 8.38-75.25 1.64-12.57 3.46-25.14 5.47-37.53 2-12.39 4.37-24.78 7.29-37.17s6.56-24.6 10.93-36.44c2-4.92 4.01-9.66 6.56-14.39.55-.18 1.28-.36 1.82-.55-2.55 5.1-4.92 10.39-6.92 15.67-4.37 11.84-7.83 23.87-10.39 36.26-2.73 12.39-4.92 24.6-6.74 37.17s-3.46 24.96-4.92 37.53c-2.92 24.96-5.1 50.1-7.47 75.25-1.09 12.57-2.37 25.14-3.83 37.71-.73 5.65-1.46 11.11-2.37 16.76-1.64-6.74-2.55-12.03-2.55-12.03l-.36 1.28m118.25 34.25c0-.18.18-.36 0-.36 1.82-7.47 3.28-15.12 4.19-22.77 1.82-15.49 2.92-30.97 3.1-46.46.36-15.67.18-31.16 0-46.82-.18-15.67-.55-31.16-1.09-46.82-.55-15.67-.91-31.16-1.09-46.82s-.36-31.16.18-46.82c.55-15.67 1.46-31.34 3.46-46.82.91-6.92 2-13.85 3.46-20.59l1.64-1.64c-1.64 7.47-2.92 14.94-3.83 22.41-1.82 15.49-2.55 30.97-2.92 46.64-.36 15.67-.18 31.16.18 46.82.36 15.67.73 31.16 1.46 46.82s1.09 31.34 1.64 46.82c.55 15.49.73 31.16.55 46.82-.18 15.67-1.09 31.16-2.73 46.82-.91 7.83-2.37 15.67-4.19 23.32-.18.91-.36 2-.73 2.92-1.28-.91-2.37-2-3.28-3.46m-273.66 3.45c.36-.36.73-.55 1.09-.91 2.19-2 4.01-4.19 5.83-6.56 3.46-4.92 6.56-10.02 9.11-15.49 5.28-10.93 9.66-22.23 13.48-33.71 3.83-11.66 7.29-23.32 10.75-34.98s6.74-23.32 10.02-35.16c6.74-23.5 13.48-47.01 21.68-70.15 4.19-11.48 8.75-22.77 14.03-33.89 2.37-5.1 4.92-10.02 7.83-14.94.55-.36 1.28-.55 2-.91l-.18.36c-3.1 5.28-5.83 10.75-8.38 16.22-5.1 10.93-9.47 22.41-13.48 33.89-7.83 22.96-14.39 46.64-20.77 70.15-3.28 11.84-6.38 23.69-9.66 35.35s-6.56 23.5-10.39 35.16c-1.64 4.55-3.1 9.11-4.74 13.66v-2.73s-17.86 45.37-26.42 45.37c-.73 0-1.28-.18-1.82-.73"/>
  <path fill="#6e6e75" d="M362.51 895.2c1.09-5.47 2-11.11 3.1-16.76.91-6.01 2-12.02 3.28-18.04 1.28-6.01 3.1-11.84 5.28-17.67 2.37-5.83 5.47-11.3 9.29-16.22 1.82-2.37 3.83-4.37 6.01-6.38 1.46-.18 3.1-.36 4.55-.73-3.28 2.55-6.19 5.47-8.75 8.75-3.64 4.74-6.56 10.02-8.56 15.67-2 5.65-3.64 11.48-4.74 17.31-1.28 5.83-2 11.84-2.92 17.86-.73 5.47-1.46 10.93-2.37 16.4-1.46.36-2.92.36-4.19-.18m-94.9-35.91c-.18-.55-.36-1.09-.36-1.64 1.28-.73 2.37-1.64 3.46-2.55 7.47-5.83 14.94-11.84 22.77-17.31 8.02-5.65 16.22-10.39 24.96-14.58 4.37-2 8.93-3.83 13.48-5.28 1.82-.55 3.83-1.09 5.65-1.64 1.28.36 2.73.91 4.19 1.28-3.1.73-6.19 1.64-9.11 2.73-4.37 1.46-8.75 3.46-12.94 5.47-8.38 4.37-16.4 9.29-24.05 14.94s-14.76 11.84-22.23 17.86c-.18.18-.55.36-.73.55-2.73.73-4.55.91-5.1.18"/>
  <path fill="#83838c" d="M825.84 543.19c-.18-.18-.18-.73-.18-1.09.18-.36.73-.36 1.09-.18 1.64 1.46 3.46 2.73 5.28 4.01 1.82 1.09 3.64 2.37 5.65 3.46s4.01 2.19 6.01 3.1l3.1 1.46 3.1 1.28c4.19 1.64 8.38 2.92 12.75 3.83 2.19.55 4.37.73 6.56 1.09.36.18.73.18 1.09.18-3.28.55-6.92.73-10.57.91-3.46-1.09-7.11-2.19-10.57-3.64l-3.1-1.46-3.1-1.46c-2-.91-4.01-2-6.01-3.28-4.01-2.37-7.65-5.1-11.11-8.2"/>
  <path fill="#666793" d="M62.26 646.79c1.88 1.96 3.55 3.93 5.45 5.65 6.49 6.39 15.93 8.77 24.67 6.21 6.7-1.89 12.19-6.72 14.91-13.13 5.31-11.4 8.45-23.69 9.26-36.24.57-5.62-.25-11.29-2.4-16.51-1.41-3.59-3.99-6.59-7.31-8.54-4.96-2.78-10.56-4.23-16.25-4.21-9.81-.03-19.57 1.43-28.94 4.33-4.89 1.28-9.57 3.23-13.92 5.79-7.49 4.63-10.4 11.6-7.94 20.04.97 3.35 2.37 6.56 4.16 9.54 3.06 5.01 6.61 9.72 9.92 14.58 2.84 4.18 5.64 8.39 8.38 12.49m52.08-47.98-15.68 2.46.06.39 15.76-2.51c.7 3.77.84 7.63.41 11.45-.73 5.22-1.55 10.44-2.68 15.58-.9 3.8-2.04 7.53-3.4 11.19-1.02 3.12-2.3 6.15-3.82 9.06-8.09 14.67-26.15 14.49-36.14 5.16-3.89-3.88-7.34-8.18-10.28-12.82-3.57-5.22-7.16-10.41-10.74-15.62-2.72-3.74-4.9-7.85-6.47-12.2-2.64-7.94-.41-14.81 6.58-19.35 2.67-1.71 5.52-3.12 8.51-4.21 7.75-2.66 15.75-4.5 23.88-5.48 5.33-.96 10.78-.97 16.11-.05 2.44.49 4.82 1.25 7.1 2.25 2.82 1.24 5.27 3.18 7.12 5.64 1.82 2.51 3.07 5.4 3.66 8.45.02.21.03.42.01.62m17.59-28.44c5.02-4.11 8.57-9.73 10.11-16.04.55-2.1.76-4.28.62-6.45 0-.56-.09-1.12-.22-1.67-1.01-4.09-5.15-6.58-9.24-5.56-6.1.88-11.9 3.19-16.93 6.73-4.2 2.77-7.57 6.62-9.75 11.15-.57 1.16-.94 2.41-1.1 3.7-.76 6.28 3.72 11.98 10 12.73 5.91.88 11.92-.79 16.52-4.6m5.41-19.98 4.21.31c-.45 1.74-.76 3.35-1.28 4.9-1.52 4.84-4.27 9.21-7.98 12.68-2.83 2.65-6.34 4.43-10.15 5.16-.83.16-1.72.02-2.56.16-5.48.91-10.13-1.36-12.04-6.03-1.32-3.45-.89-7.32 1.16-10.4 3.27-5.3 8.06-9.49 13.75-12.02 4.06-2.23 8.63-3.38 13.26-3.34 2.61.07 4.84 1.92 5.4 4.47.28 1.29.34 2.62.51 4l-4.29.15v-.04m14.64 49.26c4.02-3.29 7.11-7.56 8.99-12.41 1.44-3.19 2.08-6.69 1.86-10.19 0-.2-.03-.39-.06-.59-.56-4.23-4.44-7.2-8.67-6.63-1.33.13-2.63.57-3.96.81-6.27 1.24-12.1 4.15-16.85 8.42-3.07 2.47-5.46 5.68-6.94 9.34-.48 1.12-.78 2.32-.88 3.54-.53 6.3 4.15 11.84 10.45 12.36 5.76.7 11.55-.98 16.05-4.65m-.95-2.72h1.63c-1.71 1.63-3.17 3.5-5.7 3.82-.42.05-.73.7-1.17.87-3.31 1.4-6.94 1.83-10.49 1.25-.49-.08-.98-.19-1.46-.35-5.28-1.67-8.2-7.31-6.53-12.59.95-3.14 2.69-5.99 5.05-8.26 5.09-5.19 11.61-8.76 18.72-10.26 1.37-.22 2.76-.34 4.15-.38 3.17-.21 5.92 2.18 6.16 5.35.19 2.03.07 4.08-.36 6.07-.77 3.44-2.17 6.7-4.13 9.63-.55.83-1.17 1.6-1.72 2.43-.84 1.51-2.44 2.43-4.17 2.41m-77.42-51.16c-3.42 2.53-6.15 5.87-7.94 9.73-.69 1.37-1.1 2.87-1.2 4.4-.42 6.34 4.37 11.82 10.71 12.24 4.27.51 8.6-.35 12.35-2.45 5.83-3.28 10.28-8.54 12.54-14.84 1.25-2.89 1.86-6.01 1.81-9.16.03-.76-.05-1.51-.24-2.24-1.08-4.24-5.38-6.8-9.62-5.73-.93.17-1.84.54-2.78.7-5.74 1.11-11.11 3.64-15.64 7.34m22.09 13.88c-.05.26-.02.62-.17.86-4.37 7.23-12.59 11.23-20.98 10.2-.65-.09-1.3-.24-1.92-.45-5.22-1.78-8.01-7.45-6.23-12.67 1-3.12 2.75-5.95 5.1-8.23 4.87-4.91 11.02-8.36 17.75-9.95 1.7-.38 3.43-.56 5.17-.53 2.86-.15 5.39 1.85 5.89 4.67.56 2.17.49 4.45-.2 6.58-.89 2.74-2.04 5.41-3.16 8.07-.34.54-.76 1.03-1.25 1.45m36.77 57.85c-3.8 2.72-6.8 6.42-8.68 10.71-.35.79-.6 1.61-.77 2.46-1.18 6.2 2.88 12.19 9.08 13.37 4.05.82 8.25.33 12-1.39 6.62-3.03 11.74-8.59 14.21-15.43 1.53-3.25 2.17-6.85 1.87-10.43-.02-.23-.05-.46-.09-.69-.71-4.21-4.71-7.04-8.91-6.33-1.16.14-2.28.56-3.44.75-5.59 1.04-10.84 3.43-15.28 6.97m.33 1.33c5.76-4.35 11.99-7.58 19.39-7.85 1.34-.14 2.68.17 3.83.88 1.69 1.1 2.76 2.94 2.87 4.95.17 1.6.07 3.22-.29 4.79-1.37 7.29-5.55 13.74-11.64 17.97-4.32 3.1-9.75 4.2-14.93 3.04-.27-.06-.53-.13-.79-.21-5.23-1.59-8.17-7.12-6.58-12.35 1.29-4.15 3.82-7.8 7.23-10.49.3-.26.6-.49.91-.74"/>
  <path fill="#666793" d="m76.25 652.52 21.12-3.89.05.26-21.09 4.07-.08-.45M90.1 626.4c5.76-2.34 11.98-2.7 17.99-3.96L90.1 626.4Zm16.34 1.1-17.6 3.65-.08-.39 17.63-3.51.05.25m-28.28 19.64 15.97-2.97.06.33-16.02 2.97v-.32m4.93 7.3L96.4 653l.04.3-13.32 1.62-.02-.47m15.98-22.32-11.56 2.5-.08-.39 11.61-2.43.04.33m3.2-46.77-9.02 1.03c2.9-.97 5.97-1.32 9.02-1.03M106.2 608l-8.19 1.83c1.02-.96 4.5-1.8 8.18-1.83m.88-11.45-9.03 1.63-.07-.38 9.05-1.58.05.32m-3.68 22.52-7.31 1.56-.07-.32 7.28-1.55.1.31m5.68-6.63-6.98 1.72-.07-.28 7.05-1.73v.29m-10.28-6.9 5.43-1.41.09.34-5.46 1.41-.05-.35m-8.5-22.49 5.36-.41.03.29-5.33.49-.06-.37m9.94 55.94-5.36 1.14-.06-.26 5.36-1.15.05.27m.22-50.54.07.33-4.71 1-.04-.36 4.67-.97h.01Zm-4.96 26.83 4.76-1.07.07.27-4.73 1.12-.09-.33m.37-21.39 4.2-.99.06.25-4.16 1.06-.11-.33"/>
  <path fill="#666793" d="m76.32 652.96 21.1-4.07-.05-.26-21.13 3.89.08.45Zm31.76-30.52c-6.01 1.27-12.23 1.62-17.99 3.96l18-3.96m-1.71 4.82-17.63 3.5.08.4 17.6-3.65-.05-.25Zm-28.24 19.88v.33l16.03-2.96-.06-.33-15.97 2.96m4.95 7.3.02.48 13.32-1.62-.03-.3-13.3 1.45m15.95-22.67-11.62 2.44.08.4 11.57-2.5-.04-.33h.01Zm3.22-46.44c-3.05-.29-6.12.06-9.02 1.03l9.02-1.03m3.9 22.63c-3.69.03-7.17.87-8.19 1.83l8.19-1.83m.88-11.44-.05-.32-9.05 1.57.07.38 9.03-1.63m-3.68 22.52-.1-.31-7.28 1.55.07.32 7.31-1.56m5.67-6.63v-.29l-7.05 1.72.07.29 6.98-1.72m-10.27-6.9.06.35 5.47-1.41-.09-.34-5.43 1.4m-8.51-22.49.06.37 5.32-.48-.03-.29-5.36.4m9.95 55.95-.06-.27-5.36 1.15.05.26 5.36-1.14m-4.45-49.59.03.37 4.72-.99-.07-.33-4.67.95m-.3 25.87.09.33 4.73-1.12-.07-.27-4.76 1.07m.48-21.08 4.16-1.06-.06-.25-4.2.99.11.33h-.01Zm30.34-24.21-.04-.29-11.48.72.03.51 11.49-.94m8.54-11.56-.03-.29-8.42.87.05.44 8.41-1.02m-11.5 4.64.06.42 6.36-.83-.04-.32-6.38.73m-4.16 3.4.04.37 6.11-.59-.03-.36-6.12.58m14.81-19.11.05.48 5.14-.72-.03-.3-5.16.54m3.35 3.02v.04c-1.79-.2-3.59.22-5.11 1.2l5.11-1.24m-.1 47.72 9.75-1.02c-3.29-.24-6.59.11-9.75 1.02m11.33-4.26-.08-.35-8.4 1.01.07.46 8.41-1.12m-4.91-3.38.06.45 7.16-1.38-.06-.33-7.16 1.26m3.94-4.3.08.46 6.81-1.33-.06-.32-6.83 1.19m3.23-4.1.07.43 7.17-1.22-.05-.29-7.19 1.08m1.5-6.98.05.41 6.77-.54-.03-.28-6.79.42m4.02 2.54-.04-.27-4.28.5.04.36 4.27-.58m-63.48-17.76.02-.27c-1.17.04-2.33.09-3.5.13s-2.35.03-3.52.11c-1.1.07-2.18.24-3.28.36l.05.33 10.21-.66m-5.74 6.42c-3.19-.46-6.45-.23-9.55.66l9.55-.66m4.06-17.67v.44l7.38.2v-.25l-7.38-.38m-5.91 7.56.03.46 7.77-.33v-.29l-7.8.16m-11.46 13.13 7.53.04v-.34l-7.53-.09v.39Zm11.77-5.54-6.71-.09.02.61 6.7-.56v.04Zm5.91-17.94.03.41 5.84-.5-.03-.31-5.85.4"/>
  <path fill="#666793" d="M85.54 563.81v-.04l5.84.18v-.46l-5.84.32m6.54-11.12-.02-.34-4.15.24.02.35 4.15-.25m58.02 76.24-.05-.27-14.51 2.31.08.47 14.48-2.51m-7.71 11.1v-.34l-11.01 1.47.06.39 10.94-1.52m12.28-18.77-.06-.31-9.61 1.76.07.38 9.6-1.83m-5.25 4.68-.07-.34-8.71 1.57.07.4 8.71-1.62m-14.55 7.93.07.46 8.25-1.43-.05-.28-8.28 1.25m-2.39 3.37 7.23-.84-.04-.37-7.24.79.05.42Zm13.1-18.4.09.46 6.9-1.49-.06-.27-6.93 1.29M75.49 458.13c-1.41-2.1-2.9-4.03-4.08-6.12-4.54-7.5-4.59-16.89-.13-24.44 3.37-6.05 9.15-10.38 15.89-11.91 11.89-3.09 24.25-3.99 36.46-2.63 5.37.38 10.55 2.13 15.06 5.08 3.06 1.94 5.33 4.91 6.39 8.38 1.47 5.26 1.54 10.82.2 16.12-2.29 9.38-5.94 18.38-10.84 26.7-2.36 4.43-5.3 8.54-8.73 12.21-6.13 6.32-13.41 7.89-20.82 4.12-2.93-1.48-5.64-3.35-8.06-5.56-4.03-3.75-7.66-7.91-11.49-11.87-3.29-3.4-6.63-6.77-9.86-10.07m57.55-41.22-5.98 14.45-.36-.12 6.05-14.52c-3.44-1.31-7.06-2.1-10.74-2.33-5.1-.19-10.24-.3-15.37-.11-3.82.21-7.62.65-11.38 1.32-3.2.44-6.37 1.14-9.46 2.08-1.58.49-3.1 1.14-4.54 1.95-11.1 6.26-15.02 20.33-8.76 31.42 2.77 4.34 6.04 8.35 9.74 11.92 4.11 4.27 8.19 8.55 12.28 12.84 2.92 3.22 6.3 5.99 10.04 8.2 6.9 3.85 13.93 2.91 19.84-2.95 2.24-2.24 4.24-4.7 5.97-7.35 4.3-6.86 7.91-14.13 10.75-21.71 2.13-4.83 3.42-10 3.8-15.26.1-2.38-.05-4.77-.47-7.12-.51-2.86-1.78-5.52-3.68-7.71-1.97-2.17-4.41-3.84-7.14-4.9-.19-.06-.39-.1-.59-.12m31-11.83c4.99-4.04 11.11-6.44 17.52-6.86 2.1-.17 4.2 0 6.24.51 4.79 1.27 6.67 5.51 4.65 10.19-2.29 5.67-5.81 10.77-10.31 14.91-3.58 3.5-8 6.03-12.83 7.35-7.84 1.8-14.15-3.38-13.47-11.22.61-5.86 3.57-11.23 8.2-14.88m20.17-1.74.68-4.05c-1.75.13-3.35.16-4.93.39-4.99.64-9.75 2.5-13.86 5.41-3.15 2.22-5.65 5.24-7.25 8.74-.34.77-.42 1.63-.74 2.4-2.14 5.05-1.07 9.83 2.9 12.44 3.06 1.85 6.83 2.1 10.11.67 5.8-2.21 10.86-6.02 14.58-10.99 3.03-3.43 5.18-7.55 6.25-12.01.58-2.42-.68-4.91-2.97-5.88-1.15-.49-2.4-.77-3.67-1.17l-1.15 4.03h.04m-43.2-22.22c4.02-3.24 8.78-5.44 13.85-6.42 3.31-.82 6.76-.84 10.08-.03.37.09.73.21 1.08.36 3.55 1.5 5.21 5.59 3.71 9.14-.43 1.24-1.15 2.4-1.69 3.61-2.67 5.78-6.76 10.78-11.89 14.54-3.03 2.49-6.62 4.2-10.46 4.99-7.79 1.4-13.75-4.05-12.81-11.77.74-5.68 3.65-10.85 8.13-14.42m2.36 1.37.39-1.54c-1.96 1.33-4.07 2.4-4.96 4.75-.15.39-.83.57-1.09.96-2.08 2.85-3.33 6.21-3.63 9.73-.07.75-.05 1.5.07 2.24.77 4.93 5.39 8.3 10.32 7.53 3.23-.38 6.32-1.55 9-3.39 6.08-3.93 10.95-9.46 14.06-16 .53-1.26.97-2.56 1.33-3.88.04-.12.08-.24.11-.37.73-2.79-.95-5.65-3.74-6.37-1.89-.53-3.86-.76-5.82-.69-3.47.15-6.89.92-10.09 2.27-.91.38-1.79.84-2.7 1.21-1.62.54-2.85 1.88-3.26 3.54m30.41 82.12c-3.17 2.8-6.96 4.81-11.06 5.87-8.26 1.88-14.55-3.6-13.55-11.84.54-4.2 2.36-8.14 5.2-11.29 4.43-4.95 10.41-8.26 16.96-9.38 2.99-.69 6.09-.74 9.1-.16 5.27 1.16 7.46 5.63 5.25 10.7-.38.86-.94 1.65-1.31 2.52-2.42 5.29-6.05 9.94-10.59 13.58m-7.98-23.29c-.25 0-.59-.09-.85.02-7.84 2.88-13.44 9.87-14.54 18.15-.11.9-.09 1.81.07 2.7.88 4.89 5.55 8.14 10.45 7.27 3.22-.43 6.3-1.6 8.98-3.44 5.77-3.77 10.44-8.99 13.55-15.13.75-1.53 1.32-3.15 1.71-4.81.85-2.6-.49-5.42-3.06-6.38-1.96-.91-4.14-1.23-6.28-.92-2.8.38-5.59 1.01-8.37 1.62-.6.23-1.16.55-1.66.94m-46.19-44.69c-3.44 3.13-7.63 5.34-12.16 6.41-7.36 1.4-13.33-3.42-13.04-10.58.2-4.04 1.63-7.93 4.1-11.14 4.39-5.75 10.79-9.62 17.92-10.85 3.38-.9 6.93-.9 10.3 0 .4.11.79.25 1.16.42 3.5 1.63 5.02 5.8 3.38 9.3-.4 1.07-1.06 2.07-1.51 3.13-2.31 5.16-5.79 9.72-10.15 13.31m-1.18-.54c5.46-4.73 9.97-10.08 11.95-17.05.44-1.22.47-2.55.06-3.78-.65-1.79-2.16-3.13-4.02-3.56-1.49-.43-3.05-.62-4.6-.54-7.34.11-14.37 2.96-19.72 7.99-3.9 3.48-6.2 8.41-6.36 13.64-.02.53 0 1.06.09 1.58.7 4.87 5.21 8.24 10.08 7.54 4.28-.55 8.3-2.31 11.61-5.08.31-.24.6-.49.91-.74"/>
  <path fill="#666793" d="m73.34 443.9 8.6-19.37-.24-.09-8.77 19.3.4.15m27.93-8.7c3.56-5.07 5.34-10.9 7.94-16.38l-7.94 16.38Zm2.77-15.68-7.55 16.07.35.14 7.43-16.12-.22-.09m-25.17 23.48 6.51-14.62-.3-.11-6.53 14.67.31.06m-5.75-5.91 4.47-12.37-.28-.08-4.64 12.35.44.1m24.86-11.37-5.07 10.53.35.14 5.02-10.59-.3-.09m45 4.91-3.08 8.38c1.58-2.56 2.63-5.4 3.08-8.38m-20.51-7.54-3.64 7.45c1.86-2.11 3.12-4.69 3.64-7.45m11.05 1.11-3.64 8.28.34.13 3.6-8.32-.3-.1m-22.18-.33-3.18 6.66.29.12 3.17-6.64-.27-.14m7.58-4.26-3.25 6.33.25.11 3.27-6.39-.27-.05m4.15 10.93 2.59-4.91-.3-.14-2.61 4.94.32.11m19.29 11.86 1.64-5.01-.27-.08-1.7 4.98.33.12m-50.63-18.92-2.33 4.89.23.1 2.34-4.89-.24-.1m47.89 8.37-.29-.12-2.04 4.29.33.09 2-4.26Zm-26.55.14 2.12-4.33-.24-.11-2.16 4.29.29.14m20.34 3.29 1.91-3.82-.23-.1-1.97 3.76.28.16"/>
  <path fill="#666793" d="m72.93 443.74 8.77-19.3.24.09-8.6 19.37-.4-.15Zm36.28-24.93c-2.6 5.48-4.39 11.32-7.94 16.38l7.94-16.38m-4.96.8-7.43 16.12-.35-.14 7.55-16.07.22.09ZM78.86 443l-.31-.06 6.53-14.68.3.11L78.86 443m-5.76-5.92-.44-.1 4.63-12.35.28.08-4.47 12.36m25.16-11.27-5.02 10.59-.35-.14 5.07-10.53.3.09Zm44.69 4.8c-.45 2.97-1.5 5.82-3.08 8.38l3.08-8.38m-20.51-7.54c-.53 2.76-1.79 5.34-3.64 7.45l3.64-7.45m11.04 1.11.3.1-3.6 8.31-.34-.13 3.65-8.28m-22.18-.32.27.14-3.16 6.64-.28-.12 3.18-6.66m7.59-4.26.27.05-3.27 6.39-.25-.11 3.25-6.33m4.13 10.91-.32-.11 2.61-4.94.3.14-2.6 4.91m19.32 11.88-.33-.12 1.7-4.98.26.09-1.63 5.01m-50.64-18.92.24.1-2.34 4.89-.23-.1 2.33-4.89m45.88 12.65-.33-.09 2.04-4.29.29.12-2 4.27m-24.54-4.14-.29-.14 2.16-4.29.24.11-2.12 4.33m20.06 3.12 1.97-3.76.22.1-1.91 3.81-.28-.16Zm29.97-24.64.27.08-3.36 10.76-.47-.12 3.56-10.73m12.93-6.12.27.08-2.79 7.83-.4-.12 2.92-7.79m-7.06 10.09-.38-.12 2.27-5.89.29.1-2.18 5.92m-4.19 3.37-.34-.1 1.99-5.7.33.1-1.98 5.7m21.54-10.8-.43-.12 1.88-4.76.27.08-1.72 4.8m-2.08-3.69h-.04c-.24 1.76-1.06 3.38-2.32 4.63l2.36-4.63m-45.19-8 3.23-9.07c-.55 3.19-1.65 6.25-3.23 9.07m6.67-10.02.31.13-2.92 7.79-.41-.13 3.02-7.79m2.06 5.23-.41-.13 2.97-6.55.3.11-2.86 6.57m4.99-3.01-.42-.15 2.84-6.23.29.11-2.71 6.27m4.63-2.36-.39-.14 2.82-6.59.26.1-2.7 6.63m6.97-.24-.37-.12 2.09-6.32.26.07-1.98 6.37m-1.49-4.24.25.08-1.47 3.97-.33-.1 1.54-3.95m2.03 63.21.26.02c-.31 1.1-.63 2.19-.93 3.3s-.57 2.22-.92 3.32c-.33 1.02-.73 2.03-1.11 3.04l-.3-.1 3-9.57m-7.42 4.34c-.33 3.14-1.3 6.19-2.85 8.94l2.85-8.94m17.67-.85-.41-.07 1.53-7.03.24.03-1.36 7.07m-8.54 4.32-.43-.11 2.12-7.31.27.06-1.97 7.36m-15.09 8.64 1.71-7.14.32.06-1.66 7.15-.36-.06h-.01Zm7.99-10.23-1.48 6.38-.57-.12 2.09-6.26h-.04Zm18.35-2.56-.38-.1 1.83-5.45.28.08-1.74 5.48"/>
  <path fill="#666793" d="M159.46 450.14h.04l1.19-5.56.43.09-1.66 5.48m12.04-4.33.31.08-1.2 3.89-.32-.08 1.21-3.9m-58.63-67.92.24.09-5.57 13.37-.42-.15 5.75-13.3m-12.3 5.42.32.06-3.96 10.18-.36-.12 3.99-10.12m20.62-8.45.28.11-3.91 8.81-.34-.13 3.97-8.79m-5.65 4.18.3.13-3.52 7.99-.35-.14 3.57-7.99m-10.91 12.45-.41-.14 3.27-7.58.26.09-3.12 7.63m-3.74 1.71 2.47-6.71.34.11-2.43 6.73-.39-.12h.01Zm20.47-9.3-.41-.16 3.01-6.3.24.1-2.84 6.35m138.69 102.6c1.88 1.96 3.55 3.93 5.45 5.65 6.49 6.39 15.93 8.77 24.67 6.21 6.7-1.89 12.19-6.72 14.91-13.13 5.31-11.4 8.45-23.69 9.26-36.24.57-5.62-.25-11.29-2.4-16.51-1.41-3.59-3.99-6.59-7.31-8.54-4.96-2.78-10.56-4.23-16.25-4.21-9.81-.03-19.57 1.43-28.94 4.33-4.89 1.28-9.57 3.23-13.92 5.79-7.49 4.63-10.4 11.6-7.94 20.04.97 3.35 2.37 6.56 4.16 9.54 3.06 5.01 6.61 9.72 9.92 14.58 2.84 4.18 5.64 8.39 8.38 12.49m52.08-47.98-15.68 2.46.06.39 15.76-2.51c.7 3.77.84 7.63.41 11.45-.73 5.22-1.55 10.44-2.68 15.58-.9 3.8-2.04 7.53-3.4 11.19-1.02 3.12-2.3 6.15-3.82 9.06-8.09 14.67-26.15 14.49-36.14 5.16-3.89-3.88-7.34-8.18-10.28-12.82-3.57-5.22-7.16-10.41-10.74-15.62-2.72-3.74-4.9-7.85-6.47-12.2-2.64-7.94-.41-14.81 6.58-19.35 2.67-1.71 5.52-3.12 8.51-4.21 7.75-2.66 15.75-4.5 23.88-5.48 5.33-.96 10.78-.97 16.11-.05 2.44.49 4.82 1.25 7.1 2.25 2.82 1.24 5.27 3.18 7.12 5.64 1.82 2.51 3.07 5.4 3.66 8.45.02.21.03.42.01.62m17.59-28.44c5.02-4.11 8.57-9.73 10.11-16.04.55-2.1.76-4.28.62-6.45-.01-.56-.09-1.12-.22-1.67-1.01-4.09-5.15-6.58-9.24-5.56-6.1.88-11.9 3.19-16.93 6.73-4.2 2.77-7.57 6.62-9.75 11.15-.57 1.16-.94 2.41-1.1 3.7-.76 6.28 3.72 11.98 10 12.73 5.91.88 11.92-.79 16.52-4.6m5.41-19.98 4.21.31c-.45 1.74-.76 3.35-1.28 4.9-1.52 4.84-4.27 9.21-7.98 12.68-2.83 2.65-6.34 4.43-10.15 5.16-.83.16-1.72.02-2.56.16-5.48.91-10.13-1.36-12.04-6.03-1.32-3.45-.89-7.32 1.16-10.4 3.27-5.3 8.06-9.49 13.75-12.02 4.06-2.23 8.63-3.38 13.26-3.34 2.61.07 4.84 1.92 5.4 4.47.28 1.29.34 2.62.51 4l-4.29.15v-.04m14.64 49.26c4.02-3.29 7.11-7.56 8.99-12.41 1.44-3.19 2.08-6.69 1.86-10.19-.01-.2-.03-.39-.06-.59-.56-4.23-4.44-7.2-8.67-6.63-1.33.13-2.63.57-3.96.81-6.27 1.24-12.1 4.15-16.85 8.42-3.07 2.47-5.46 5.68-6.94 9.34-.48 1.12-.78 2.32-.88 3.54-.53 6.3 4.15 11.84 10.45 12.36 5.76.7 11.55-.98 16.05-4.65m-.95-2.72h1.63c-1.71 1.63-3.17 3.5-5.7 3.82-.42.05-.73.7-1.17.87-3.31 1.4-6.94 1.83-10.49 1.25-.49-.08-.98-.19-1.46-.35-5.28-1.67-8.2-7.31-6.53-12.59.95-3.14 2.69-5.99 5.05-8.26 5.09-5.19 11.61-8.76 18.72-10.26 1.37-.22 2.76-.34 4.15-.38 3.17-.21 5.92 2.18 6.16 5.35.19 2.03.07 4.08-.36 6.07-.77 3.44-2.17 6.7-4.13 9.63-.55.83-1.17 1.6-1.72 2.43-.84 1.51-2.44 2.43-4.17 2.41m-77.42-51.16c-3.42 2.53-6.15 5.87-7.94 9.73-.69 1.37-1.1 2.87-1.2 4.4-.42 6.34 4.37 11.82 10.71 12.24 4.27.51 8.6-.35 12.35-2.45 5.83-3.28 10.28-8.54 12.54-14.84 1.25-2.89 1.86-6.01 1.81-9.16.03-.76-.05-1.51-.24-2.24-1.08-4.24-5.38-6.8-9.62-5.73-.93.17-1.84.54-2.78.7-5.74 1.11-11.11 3.64-15.64 7.34m22.09 13.88c-.05.26-.02.62-.17.86-4.37 7.23-12.59 11.23-20.98 10.2-.65-.09-1.3-.24-1.92-.45-5.22-1.78-8.01-7.45-6.23-12.67 1-3.12 2.75-5.95 5.1-8.23 4.87-4.91 11.02-8.36 17.75-9.95 1.7-.38 3.43-.56 5.17-.53 2.86-.15 5.39 1.85 5.89 4.67.56 2.17.49 4.45-.2 6.58-.89 2.74-2.04 5.41-3.16 8.07-.34.54-.76 1.03-1.25 1.45m36.77 57.85c-3.8 2.72-6.8 6.42-8.68 10.71-.35.79-.6 1.61-.77 2.46-1.18 6.2 2.88 12.19 9.08 13.37 4.05.82 8.25.33 12-1.39 6.62-3.03 11.74-8.59 14.21-15.43 1.53-3.25 2.17-6.85 1.87-10.43-.02-.23-.05-.46-.09-.69-.71-4.21-4.71-7.04-8.91-6.33-1.16.14-2.28.56-3.44.75-5.59 1.04-10.84 3.43-15.28 6.97m.33 1.33c5.76-4.35 11.99-7.58 19.39-7.85 1.34-.14 2.68.17 3.83.88 1.69 1.1 2.76 2.94 2.87 4.95.17 1.6.07 3.22-.29 4.79-1.37 7.29-5.55 13.74-11.64 17.97-4.32 3.1-9.75 4.2-14.93 3.04-.27-.06-.53-.13-.79-.21-5.23-1.59-8.17-7.12-6.58-12.35 1.29-4.15 3.82-7.8 7.23-10.49.3-.26.6-.49.91-.74"/>
  <path fill="#666793" d="m274.03 492.23 21.12-3.89.05.26-21.09 4.07-.08-.45m13.85-26.11c5.76-2.34 11.98-2.7 17.99-3.96l-17.99 3.96Zm16.34 1.1-17.6 3.65-.08-.39 17.63-3.51.05.25m-28.28 19.64 15.97-2.97.06.33-16.02 2.97v-.32m4.93 7.3 13.3-1.45.04.3-13.32 1.62-.02-.47m15.98-22.32-11.56 2.5-.08-.39 11.61-2.43.04.33m3.2-46.77-9.02 1.03c2.9-.97 5.97-1.32 9.02-1.03m3.91 22.63-8.19 1.83c1.02-.96 4.5-1.8 8.18-1.83m.88-11.45-9.03 1.63-.07-.38 9.05-1.58.05.32m-3.68 22.52-7.31 1.56-.07-.32 7.28-1.55.1.31m5.68-6.63-6.98 1.72-.07-.28 7.05-1.73v.29m-10.28-6.9 5.43-1.41.09.34-5.46 1.41-.05-.35m-8.5-22.49 5.36-.41.03.29-5.33.49-.06-.37m9.94 55.94-5.36 1.14-.06-.26 5.36-1.15.05.27m.22-50.54.07.33-4.71 1-.04-.36 4.67-.97Zm-4.96 26.83 4.76-1.07.07.27-4.73 1.12-.09-.33m.37-21.39 4.2-.99.06.25-4.16 1.06-.11-.33"/>
  <path fill="#666793" d="m274.1 492.67 21.1-4.07-.05-.26-21.13 3.89.08.45Zm31.76-30.52c-6.01 1.27-12.23 1.62-17.99 3.96l18-3.96m-1.71 4.82-17.63 3.5.08.4 17.6-3.65-.05-.25Zm-28.24 19.87v.33l16.03-2.96-.06-.33-15.97 2.96m4.95 7.3.02.48 13.32-1.62-.03-.3-13.3 1.45m15.94-22.66-11.62 2.44.08.4 11.57-2.5-.04-.33h.01Zm3.23-46.44c-3.05-.29-6.12.06-9.02 1.03l9.02-1.03m3.9 22.63c-3.69.03-7.17.87-8.19 1.83l8.19-1.83m.88-11.44-.05-.32-9.05 1.57.07.38 9.03-1.63m-3.68 22.52-.1-.31-7.28 1.55.07.32 7.31-1.56m5.67-6.63v-.29l-7.05 1.72.07.29 6.98-1.72m-10.28-6.91.06.35 5.47-1.41-.09-.34-5.43 1.4m-8.5-22.48.06.37 5.32-.48-.03-.29-5.36.4m9.95 55.95-.06-.27-5.36 1.15.05.26 5.36-1.14m-4.45-49.59.03.37 4.72-.99-.07-.33-4.67.95m-.3 25.87.09.33 4.73-1.12-.07-.27-4.76 1.07m.48-21.08 4.16-1.06-.06-.25-4.2.99.11.33Zm30.34-24.21-.04-.29-11.48.72.03.51 11.49-.94m8.54-11.56-.03-.29-8.42.87.05.44 8.41-1.02m-11.5 4.64.06.42 6.36-.83-.04-.32-6.38.73m-4.16 3.4.04.37 6.11-.59-.03-.36-6.12.58m14.81-19.11.05.48 5.14-.72-.03-.3-5.16.54m3.35 3.02v.04c-1.79-.2-3.59.22-5.11 1.2l5.11-1.24m-.1 47.72 9.75-1.02c-3.29-.24-6.59.11-9.75 1.02m11.33-4.26-.08-.35-8.4 1.01.07.46 8.41-1.12m-4.91-3.38.06.45 7.16-1.38-.06-.33-7.16 1.26m3.94-4.31.08.46 6.81-1.33-.06-.32-6.83 1.19m3.23-4.1.07.43 7.17-1.22-.05-.29-7.19 1.08m1.5-6.97.05.41 6.77-.54-.03-.28-6.79.42m4.02 2.54-.04-.27-4.28.5.04.36 4.27-.58m-63.48-17.76.02-.27c-1.17.04-2.33.09-3.5.13s-2.35.03-3.52.11c-1.1.07-2.18.24-3.28.36l.05.33 10.21-.66m-5.74 6.42c-3.19-.46-6.45-.23-9.55.66l9.55-.66m4.06-17.67v.44l7.38.2v-.25l-7.38-.38m-5.91 7.56.03.46 7.77-.33v-.29l-7.8.16m-11.46 13.13 7.53.04v-.34l-7.53-.09v.39Zm11.77-5.55-6.71-.09.02.61 6.7-.56v.04h-.01Zm5.91-17.93.03.41 5.84-.5-.03-.31-5.85.4"/>
  <path fill="#666793" d="M283.32 403.51v-.04l5.84.18v-.46l-5.84.32m6.54-11.11-.02-.34-4.15.24.02.35 4.15-.25m58.02 76.24-.05-.27-14.51 2.31.08.47 14.48-2.51m-7.71 11.1v-.34l-11.01 1.47.06.39 10.94-1.52m12.28-18.77-.06-.31-9.61 1.76.07.38 9.6-1.83m-5.25 4.68-.07-.34-8.71 1.57.07.4 8.71-1.62m-14.55 7.93.07.46 8.25-1.43-.05-.28-8.28 1.25m-2.39 3.37 7.23-.84-.04-.37-7.24.79.05.42Zm13.1-18.41.09.46 6.9-1.49-.06-.27-6.93 1.29m-70.07-160.7c-1.41-2.1-2.9-4.03-4.08-6.12-4.54-7.5-4.59-16.89-.13-24.44 3.37-6.05 9.15-10.38 15.89-11.91 11.89-3.09 24.25-3.99 36.46-2.63 5.37.38 10.55 2.13 15.06 5.08 3.06 1.94 5.33 4.91 6.39 8.38 1.47 5.26 1.54 10.82.2 16.12-2.29 9.38-5.94 18.38-10.84 26.7-2.36 4.43-5.3 8.54-8.73 12.21-6.13 6.32-13.41 7.89-20.82 4.12-2.93-1.48-5.64-3.35-8.06-5.56-4.03-3.75-7.66-7.91-11.49-11.87-3.29-3.4-6.63-6.77-9.86-10.07m57.55-41.22-5.98 14.45-.36-.12 6.05-14.52c-3.44-1.31-7.06-2.1-10.74-2.33-5.1-.19-10.24-.3-15.37-.11-3.82.21-7.62.65-11.38 1.32-3.2.44-6.37 1.14-9.46 2.08-1.58.49-3.1 1.14-4.54 1.95-11.1 6.26-15.02 20.33-8.76 31.42 2.77 4.34 6.04 8.35 9.74 11.92 4.11 4.27 8.19 8.55 12.28 12.84 2.92 3.22 6.3 5.99 10.04 8.2 6.9 3.85 13.93 2.91 19.84-2.95 2.24-2.24 4.24-4.7 5.97-7.35 4.3-6.86 7.91-14.13 10.75-21.71 2.13-4.83 3.42-10 3.8-15.26.1-2.38-.05-4.77-.47-7.12-.51-2.86-1.78-5.52-3.68-7.71-1.97-2.17-4.41-3.84-7.14-4.9-.19-.06-.39-.1-.59-.12m31-11.84c4.99-4.04 11.11-6.44 17.52-6.86 2.1-.17 4.2 0 6.24.51 4.79 1.27 6.67 5.51 4.65 10.19-2.29 5.67-5.81 10.77-10.31 14.91-3.58 3.5-8 6.03-12.83 7.35-7.84 1.8-14.15-3.38-13.47-11.22.61-5.86 3.57-11.23 8.2-14.88m20.17-1.74.68-4.05c-1.75.13-3.35.16-4.93.39-4.99.64-9.75 2.5-13.86 5.41-3.15 2.22-5.65 5.24-7.25 8.74-.34.77-.42 1.63-.74 2.4-2.14 5.05-1.07 9.83 2.9 12.44 3.06 1.85 6.83 2.1 10.11.67 5.8-2.21 10.86-6.02 14.58-10.99 3.03-3.43 5.18-7.55 6.25-12.01.58-2.42-.68-4.91-2.97-5.88-1.15-.49-2.4-.77-3.67-1.17l-1.15 4.03h.04m-43.2-22.22c4.02-3.24 8.78-5.44 13.85-6.42 3.31-.82 6.76-.84 10.08-.03.37.09.73.21 1.08.36 3.55 1.5 5.21 5.59 3.71 9.14-.43 1.24-1.15 2.4-1.69 3.61-2.67 5.78-6.76 10.78-11.89 14.54-3.03 2.49-6.62 4.2-10.46 4.99-7.79 1.4-13.75-4.05-12.81-11.77.74-5.68 3.65-10.85 8.13-14.42m2.36 1.37.39-1.54c-1.96 1.33-4.07 2.4-4.96 4.75-.15.39-.83.57-1.09.96-2.08 2.85-3.33 6.21-3.63 9.73-.07.75-.05 1.5.07 2.24.77 4.93 5.39 8.3 10.32 7.53 3.23-.38 6.32-1.55 9-3.39 6.08-3.93 10.95-9.46 14.06-16 .53-1.26.97-2.56 1.33-3.88.04-.12.08-.24.11-.37.73-2.79-.95-5.65-3.74-6.37-1.89-.53-3.86-.76-5.82-.69-3.47.15-6.89.92-10.09 2.27-.91.38-1.79.84-2.7 1.21-1.62.54-2.85 1.88-3.26 3.54m30.41 82.13c-3.17 2.8-6.96 4.81-11.06 5.87-8.26 1.88-14.55-3.6-13.55-11.84.54-4.2 2.36-8.14 5.2-11.29 4.43-4.95 10.41-8.26 16.96-9.38 2.99-.69 6.09-.74 9.1-.16 5.27 1.16 7.46 5.63 5.25 10.7-.38.86-.94 1.65-1.31 2.52-2.42 5.29-6.05 9.94-10.59 13.58m-7.98-23.29c-.25 0-.59-.09-.85.02-7.84 2.88-13.44 9.87-14.54 18.15-.11.9-.09 1.81.07 2.7.88 4.89 5.55 8.14 10.45 7.27 3.22-.43 6.3-1.6 8.98-3.44 5.77-3.77 10.44-8.99 13.55-15.13.75-1.53 1.32-3.15 1.71-4.81.85-2.6-.49-5.42-3.06-6.38-1.96-.91-4.14-1.23-6.28-.92-2.8.38-5.59 1.01-8.37 1.62-.6.23-1.16.55-1.66.94m-46.2-44.69c-3.44 3.13-7.63 5.34-12.16 6.41-7.36 1.4-13.33-3.42-13.04-10.58.2-4.04 1.63-7.93 4.1-11.14 4.39-5.75 10.79-9.62 17.92-10.85 3.38-.9 6.93-.9 10.3 0 .4.11.79.25 1.16.42 3.5 1.63 5.02 5.8 3.38 9.3-.4 1.07-1.06 2.07-1.51 3.13-2.31 5.16-5.79 9.72-10.15 13.31m-1.18-.54c5.46-4.73 9.97-10.08 11.95-17.05.44-1.22.47-2.55.06-3.78-.65-1.79-2.16-3.13-4.02-3.56-1.49-.43-3.05-.62-4.6-.54-7.34.11-14.37 2.96-19.72 7.99-3.9 3.48-6.2 8.41-6.36 13.64-.02.53 0 1.06.09 1.58.7 4.87 5.21 8.24 10.08 7.54 4.28-.55 8.3-2.31 11.61-5.08.31-.24.6-.49.91-.74"/>
  <path fill="#666793" d="m271.11 283.61 8.6-19.37-.24-.09-8.77 19.3.4.15m27.93-8.7c3.56-5.07 5.34-10.9 7.94-16.38l-7.94 16.38Zm2.77-15.68-7.55 16.07.35.14 7.43-16.12-.22-.09m-25.17 23.48 6.51-14.62-.3-.11-6.53 14.67.31.06m-5.75-5.91 4.47-12.37-.28-.08-4.64 12.35.44.1m24.86-11.37-5.07 10.53.35.14 5.02-10.59-.3-.09m45 4.91-3.08 8.38c1.58-2.56 2.63-5.4 3.08-8.38m-20.51-7.54-3.64 7.45c1.86-2.11 3.12-4.69 3.64-7.45m11.05 1.11-3.64 8.28.34.13 3.6-8.32-.3-.1m-22.18-.33-3.18 6.66.29.12 3.17-6.64-.27-.14m7.58-4.26-3.25 6.33.25.11 3.27-6.39-.27-.05m4.15 10.93 2.59-4.91-.3-.14-2.61 4.94.32.11m19.29 11.86 1.64-5.01-.27-.08-1.7 4.98.33.12m-50.63-18.92-2.33 4.89.23.1 2.34-4.89-.24-.1m47.89 8.37-.29-.12-2.04 4.29.33.09 2-4.26Zm-26.55.14 2.12-4.33-.24-.11-2.16 4.29.29.14m20.34 3.29 1.91-3.82-.23-.1-1.97 3.76.28.16"/>
  <path fill="#666793" d="m270.71 283.45 8.77-19.3.24.09-8.6 19.37-.4-.15Zm36.28-24.93c-2.6 5.48-4.39 11.32-7.94 16.38l7.94-16.38m-4.96.8-7.43 16.12-.35-.14 7.55-16.07.22.09h.01Zm-25.39 23.39-.31-.06 6.53-14.68.3.11-6.52 14.63m-5.76-5.92-.44-.1 4.63-12.35.28.08-4.47 12.36m25.16-11.28-5.02 10.59-.35-.14 5.07-10.53.3.09Zm44.69 4.81c-.45 2.97-1.5 5.82-3.08 8.38l3.08-8.38m-20.51-7.54c-.53 2.76-1.79 5.34-3.64 7.45l3.64-7.45m11.04 1.11.3.1-3.6 8.31-.34-.13 3.65-8.28m-22.18-.33.27.14-3.16 6.64-.28-.12 3.18-6.66m7.59-4.25.27.05-3.27 6.39-.25-.11 3.25-6.33m4.13 10.91-.32-.11 2.61-4.94.3.14-2.6 4.91m19.32 11.88-.33-.12 1.7-4.98.26.09-1.63 5.01m-50.64-18.92.24.1-2.34 4.89-.23-.1 2.33-4.89m45.88 12.64-.33-.09 2.04-4.29.29.12-2 4.27m-24.54-4.13-.29-.14 2.16-4.29.24.11-2.12 4.33m20.06 3.12 1.97-3.76.22.1-1.91 3.81-.28-.16Zm29.97-24.64.27.08-3.36 10.76-.47-.12 3.56-10.73m12.93-6.13.27.08-2.79 7.83-.4-.12 2.92-7.79m-7.06 10.1-.38-.12 2.27-5.89.29.1-2.18 5.92m-4.19 3.37-.34-.1 1.99-5.7.33.1-1.98 5.7m21.53-10.8-.43-.12 1.88-4.76.27.08-1.72 4.8m-2.07-3.69h-.04c-.24 1.76-1.06 3.38-2.32 4.63l2.36-4.63m-45.19-8 3.23-9.07c-.55 3.19-1.65 6.25-3.23 9.07m6.67-10.02.31.13-2.92 7.79-.41-.13 3.02-7.79m2.06 5.23-.41-.13 2.97-6.55.3.11-2.86 6.57m4.99-3.01-.42-.15 2.84-6.23.29.11-2.71 6.27m4.63-2.36-.39-.14 2.82-6.59.26.1-2.7 6.63m6.97-.24-.37-.12 2.09-6.32.26.07-1.98 6.37m-1.49-4.24.25.08-1.47 3.97-.33-.1 1.54-3.95m2.02 63.21.26.02c-.31 1.1-.63 2.19-.93 3.3s-.57 2.22-.92 3.32c-.33 1.02-.73 2.03-1.11 3.04l-.3-.1 3-9.57m-7.42 4.34c-.33 3.14-1.3 6.19-2.85 8.94l2.85-8.94m17.68-.85-.41-.07 1.53-7.03.24.03-1.36 7.07m-8.55 4.32-.43-.11 2.12-7.31.27.06-1.97 7.36m-15.08 8.64 1.71-7.14.32.06-1.66 7.15-.36-.06h-.01Zm7.99-10.23-1.48 6.38-.57-.12 2.09-6.26h-.04Zm18.35-2.56-.38-.1 1.83-5.45.28.08-1.74 5.48"/>
  <path fill="#666793" d="M357.24 289.85h.04l1.19-5.56.43.09-1.66 5.48m12.04-4.33.31.08-1.2 3.89-.32-.08 1.21-3.9m-58.64-67.93.24.09-5.57 13.37-.42-.15 5.75-13.3m-12.29 5.43.32.06-3.96 10.18-.36-.12 3.99-10.12m20.62-8.45.28.11-3.91 8.81-.34-.13 3.97-8.79m-5.65 4.18.3.13-3.52 7.99-.35-.14 3.57-7.99M302.4 231.2l-.41-.14 3.27-7.58.26.09-3.12 7.63m-3.74 1.71 2.47-6.71.34.11-2.43 6.73-.39-.12h.01Zm20.47-9.3-.41-.16 3.01-6.3.24.1-2.84 6.35m438.52 121.64c1.49 1.54 2.81 3.1 4.31 4.46 5.12 5.05 12.58 6.92 19.48 4.9 5.29-1.49 9.62-5.31 11.77-10.37 4.2-9 6.68-18.7 7.32-28.61.45-4.43-.2-8.91-1.9-13.03-1.11-2.83-3.15-5.21-5.77-6.75-3.92-2.19-8.34-3.34-12.83-3.33-7.74-.03-15.45 1.13-22.84 3.41-3.86 1.01-7.56 2.55-10.99 4.58-5.72 2.99-8.39 9.73-6.27 15.83.76 2.64 1.87 5.17 3.28 7.53 2.42 3.96 5.22 7.68 7.83 11.51 2.24 3.3 4.45 6.62 6.62 9.86m41.13-37.88-12.38 1.94.05.31 12.44-1.98c.55 2.98.66 6.03.32 9.04-.58 4.11-1.22 8.24-2.11 12.3-.71 3-1.61 5.95-2.68 8.83-.81 2.46-1.82 4.85-3.01 7.15-6.39 11.58-20.65 11.44-28.53 4.07-3.07-3.07-5.79-6.46-8.12-10.13-2.81-4.12-5.65-8.22-8.48-12.33-2.15-2.95-3.87-6.2-5.1-9.63-2.33-5.67-.11-12.19 5.19-15.27 2.11-1.35 4.36-2.47 6.71-3.33 6.12-2.1 12.44-3.54 18.86-4.32 4.2-.76 8.51-.77 12.72-.04 1.93.39 3.81.98 5.61 1.77 2.22.98 4.16 2.51 5.62 4.45 1.44 1.98 2.43 4.26 2.89 6.67.02.17.02.33.02.5m13.83-22.44c3.96-3.24 6.76-7.68 7.97-12.66.44-1.66.6-3.38.49-5.09 0-.44-.07-.89-.17-1.32-.8-3.23-4.06-5.2-7.29-4.4-4.81.69-9.39 2.51-13.37 5.31-3.32 2.18-5.98 5.23-7.7 8.81-.45.91-.74 1.89-.86 2.9-.6 4.95 2.93 9.46 7.88 10.06 4.67.7 9.41-.61 13.05-3.62m4.27-15.77 3.34.25c-.35 1.37-.6 2.64-1.01 3.86-1.2 3.82-3.37 7.27-6.3 10.01-2.23 2.09-5.02 3.5-8.02 4.07-.66.12-1.36.02-2.02.13-3.91.95-7.93-1.07-9.5-4.77-1.04-2.72-.71-5.78.91-8.21 2.58-4.19 6.36-7.5 10.86-9.49 3.21-1.76 6.81-2.67 10.47-2.64 2.06.06 3.82 1.52 4.26 3.53.22 1.02.27 2.07.4 3.16l-3.39.12v-.04m11.56 38.92c3.17-2.6 5.62-5.98 7.1-9.8 1.14-2.52 1.64-5.29 1.46-8.05 0-.16-.02-.31-.04-.46-.44-3.34-3.51-5.68-6.84-5.24-1.05.1-2.07.45-3.12.64-4.95.98-9.55 3.28-13.3 6.65-2.43 1.95-4.32 4.49-5.48 7.38-.38.88-.61 1.82-.69 2.78-.42 4.97 3.27 9.35 8.25 9.77 4.55.55 9.12-.77 12.67-3.67m-.74-2.14h1.28c-1.11 1.48-2.7 2.55-4.5 3.01-.33.04-.58.55-.92.68-2.61 1.11-5.48 1.45-8.28.99-.39-.06-.78-.15-1.15-.27-4.17-1.32-6.47-5.77-5.15-9.94.75-2.48 2.12-4.73 3.99-6.53 4.02-4.1 9.16-6.92 14.78-8.1 1.08-.17 2.18-.27 3.28-.3 2.51-.16 4.67 1.73 4.86 4.23.15 1.6.06 3.22-.28 4.79-.61 2.71-1.71 5.29-3.25 7.61-.43.66-.92 1.27-1.35 1.92-.67 1.19-1.93 1.92-3.3 1.9m-61.18-40.42c-2.7 2-4.85 4.64-6.26 7.69-.55 1.09-.87 2.28-.95 3.49-.33 5 3.46 9.33 8.46 9.66 3.37.4 6.79-.28 9.75-1.94 4.6-2.59 8.12-6.74 9.9-11.71.98-2.28 1.47-4.75 1.43-7.23.02-.6-.04-1.21-.19-1.79-.85-3.34-4.26-5.36-7.6-4.51-.74.13-1.45.42-2.19.55-4.53.88-8.77 2.87-12.35 5.79m17.45 10.96c-.04.2-.01.49-.13.68-3.45 5.72-9.94 8.87-16.57 8.06-.52-.07-1.02-.19-1.52-.35-4.12-1.4-6.33-5.88-4.92-10 .79-2.47 2.17-4.7 4.03-6.5 3.84-3.88 8.7-6.6 14.01-7.86 1.34-.3 2.71-.45 4.08-.43 2.26-.12 4.26 1.46 4.65 3.69.44 1.71.39 3.52-.16 5.2-.71 2.17-1.62 4.28-2.49 6.37-.27.43-.6.82-.98 1.14m29.01 45.67c-3 2.15-5.37 5.08-6.85 8.46-.27.62-.48 1.27-.6 1.94-.93 4.9 2.28 9.62 7.17 10.56 3.19.64 6.51.26 9.47-1.1 5.22-2.39 9.27-6.78 11.22-12.18 1.21-2.57 1.72-5.41 1.48-8.23-.01-.18-.04-.36-.07-.54-.56-3.32-3.72-5.56-7.04-4.99-.92.11-1.81.44-2.71.59-4.41.81-8.56 2.7-12.07 5.49m.26 1.06c4.33-3.62 9.68-5.79 15.31-6.2 1.06-.11 2.12.13 3.02.69 1.34.87 2.18 2.32 2.27 3.91.13 1.27.06 2.55-.23 3.79-1.08 5.75-4.38 10.85-9.19 14.19-3.41 2.45-7.7 3.32-11.79 2.4-.21-.05-.42-.1-.63-.16-4.13-1.26-6.45-5.63-5.19-9.75 1.02-3.27 3.01-6.16 5.71-8.28.23-.2.48-.39.72-.58"/>
  <path fill="#666793" d="m768.7 349.76 16.68-3.07.04.21-16.65 3.22-.06-.35m10.93-20.61c4.55-1.85 9.47-2.12 14.21-3.13l-14.21 3.13Zm12.9.87-13.89 2.88-.06-.31 13.91-2.78.04.2m-22.34 15.51 12.61-2.35.05.26-12.65 2.34v-.25m3.89 5.77 10.5-1.15.03.24-10.51 1.28-.02-.37m12.63-17.64-9.13 1.98-.07-.31 9.17-1.92.03.26m2.52-36.92-7.12.81c2.29-.76 4.72-1.04 7.12-.81m3.08 17.87-6.46 1.45c1.98-1.08 4.22-1.58 6.46-1.45m.69-9.04-7.13 1.29-.06-.3 7.14-1.25.04.25m-2.9 17.79-5.77 1.23-.05-.25 5.75-1.23.08.24m4.47-5.25-5.51 1.36-.05-.22 5.57-1.35v.23m-8.12-5.46 4.29-1.11.07.27-4.31 1.11-.04-.27m-6.71-17.75 4.22-.33.03.23-4.2.39-.05-.29m7.84 44.16-4.23.9-.04-.2 4.23-.91.05.22m.17-39.9.06.26-3.72.79-.02-.29 3.69-.76h-.01Zm-3.92 21.18 3.76-.84.05.21-3.74.89-.07-.26m.28-16.9 3.31-.78.05.2-3.28.84-.08-.26"/>
  <path fill="#666793" d="m768.76 350.12 16.65-3.22-.04-.21-16.68 3.07.07.36Zm25.07-24.09c-4.75 1-9.65 1.28-14.2 3.13l14.21-3.13m-1.36 3.79-13.91 2.78.07.31 13.9-2.87-.06-.21Zm-22.29 15.69v.25l12.65-2.33-.05-.26-12.6 2.33m3.9 5.77.02.38 10.51-1.28-.03-.24-10.5 1.15m12.6-17.89-9.17 1.93.07.31 9.13-1.98-.03-.26Zm2.55-36.65c-2.41-.23-4.83.05-7.12.81l7.12-.81m3.08 17.87c-2.25-.13-4.49.37-6.47 1.45l6.47-1.45m.7-9.05-.04-.25-7.15 1.24.06.3 7.13-1.29m-2.91 17.78-.08-.24-5.75 1.23.06.25 5.77-1.23m4.48-5.24v-.23l-5.57 1.36.05.22 5.52-1.35m-8.12-5.45.04.28 4.31-1.11-.07-.27-4.29 1.11m-6.69-17.76.05.29 4.21-.38-.03-.23-4.23.32m7.84 44.17-.05-.22-4.23.91.04.21 4.23-.9m-3.51-39.15.02.29 3.72-.79-.06-.26-3.68.76m-.22 20.43.08.26 3.74-.89-.05-.21-3.76.84m.35-16.64 3.28-.84-.05-.2-3.32.78.08.26Zm23.95-19.1-.03-.23-9.06.57.03.4 9.07-.74m6.74-9.13-.03-.23-6.65.69.04.35 6.64-.81m-9.07 3.66.04.33 5.03-.66-.04-.25-5.04.58m-3.27 2.68.03.3 4.82-.47-.03-.28-4.83.45m11.69-15.08.04.37 4.07-.56-.03-.24-4.08.43m2.65 2.38v.03c-1.42-.16-2.84.18-4.03.95l4.03-.98m-.08 37.68 7.7-.8c-2.59-.19-5.2.08-7.7.8m8.94-3.37-.06-.27-6.64.8.05.36 6.64-.89m-3.86-2.67.04.36 5.65-1.09-.05-.26-5.64.99m3.11-3.39.06.36 5.37-1.05-.05-.25-5.39.94m2.56-3.24.06.34 5.65-.97-.04-.23-5.67.86m1.19-5.51.04.32 5.34-.42-.02-.23-5.36.33m3.16 2.01-.02-.21-3.38.39.03.28 3.37-.46m-50.12-14.01v-.21c-.9.03-1.82.06-2.74.09s-1.85.02-2.78.08c-.87.07-1.73.2-2.59.3l.04.26 8.07-.52m-4.53 5.07c-2.52-.36-5.1-.18-7.55.53l7.55-.53m3.2-13.95v.35l5.82.15v-.2l-5.82-.3m-4.67 5.98.03.37 6.13-.26v-.23l-6.16.13m-9.05 10.36 5.94.03v-.26l-5.94-.08v.31Zm9.3-4.38-5.31-.08v.48l5.31-.45v.04Zm4.66-14.15.03.32 4.61-.4-.02-.24-4.62.32m-4.66 14.16v-.03l4.61.14v-.36l-4.61.26m5.16-8.79-.02-.27-3.28.19.02.27 3.28-.2m45.81 60.2-.04-.21-11.46 1.82.06.37 11.44-1.98m-6.1 8.76v-.27l-8.68 1.16.04.32 8.64-1.2m9.69-14.82-.05-.24-7.59 1.39.06.3 7.58-1.44m-4.15 3.69-.05-.27-6.88 1.23.06.31 6.87-1.28m-11.48 6.27.06.36 6.52-1.12-.04-.23-6.54.99m-1.89 2.66 5.71-.66-.04-.29-5.71.62.04.33Zm10.34-14.53.07.36 5.45-1.17-.05-.22-5.47 1.02M768.1 196.3c-1.12-1.67-2.28-3.18-3.22-4.83-3.59-5.92-3.63-13.34-.11-19.3 2.66-4.77 7.23-8.19 12.56-9.4 9.38-2.44 19.13-3.15 28.77-2.08 4.24.3 8.33 1.68 11.89 4.01 2.42 1.53 4.2 3.88 5.04 6.62 1.17 4.16 1.22 8.54.17 12.73-1.8 7.41-4.69 14.51-8.55 21.08-1.87 3.5-4.18 6.74-6.89 9.64-4.84 4.99-10.58 6.23-16.43 3.25-2.31-1.16-4.45-2.64-6.36-4.39-3.18-2.96-6.05-6.25-9.07-9.38-2.6-2.69-5.23-5.34-7.79-7.95m45.43-32.55-4.72 11.41-.28-.1 4.78-11.46c-2.72-1.04-5.58-1.66-8.48-1.84-4.03-.16-8.08-.24-12.13-.09-3.01.17-6.01.52-8.98 1.04-2.53.35-5.03.89-7.47 1.64-1.25.38-2.45.9-3.59 1.54-8.76 4.94-11.85 16.05-6.91 24.81 2.18 3.43 4.76 6.59 7.69 9.41 3.24 3.37 6.47 6.75 9.69 10.13 2.3 2.54 4.98 4.72 7.93 6.46 5.09 3.13 11.69 2.15 15.66-2.32 1.77-1.77 3.35-3.71 4.71-5.8 3.4-5.41 6.24-11.15 8.49-17.14 1.69-3.81 2.7-7.89 3-12.05.08-1.88-.04-3.76-.37-5.62-.4-2.25-1.4-4.36-2.91-6.08-1.55-1.71-3.48-3.03-5.64-3.87-.15-.04-.31-.08-.46-.09m24.45-9.32c3.95-3.19 8.78-5.08 13.85-5.41 1.65-.13 3.32 0 4.93.4.56.11 1.1.32 1.59.6 2.63 1.49 3.56 4.82 2.07 7.45-1.8 4.48-4.59 8.5-8.14 11.77-2.83 2.77-6.31 4.77-10.13 5.81-6.2 1.42-11.18-2.67-10.64-8.86.47-4.63 2.81-8.88 6.47-11.76m15.93-1.37.54-3.2c-1.38.1-2.64.12-3.89.3-3.94.51-7.7 1.98-10.95 4.28-2.49 1.75-4.47 4.14-5.72 6.91-.27.6-.33 1.28-.59 1.89-1.68 3.98-.84 7.76 2.3 9.81 2.42 1.46 5.39 1.66 7.98.53 4.58-1.75 8.57-4.76 11.51-8.68 2.39-2.71 4.09-5.96 4.93-9.48.45-1.91-.54-3.87-2.35-4.64-.91-.38-1.9-.61-2.9-.92l-.91 3.18h.03m-34.1-17.54c3.17-2.55 6.92-4.29 10.92-5.07 2.61-.65 5.35-.66 7.96-.02.29.07.58.16.86.28 2.8 1.18 4.11 4.41 2.93 7.21-.34.98-.91 1.89-1.33 2.85-2.1 4.56-5.34 8.51-9.39 11.48-2.39 1.96-5.23 3.31-8.26 3.94-1.12.29-2.3.34-3.44.15-4.45-.76-7.44-4.99-6.68-9.44.58-4.48 2.89-8.57 6.43-11.38m1.85 1.07.31-1.21c-1.67.8-3.04 2.12-3.91 3.75-.12.3-.65.45-.86.76-1.64 2.25-2.63 4.9-2.86 7.67-.06.59-.04 1.18.05 1.77.61 3.89 4.25 6.55 8.14 5.95 2.55-.3 4.99-1.21 7.1-2.67 4.8-3.1 8.65-7.47 11.11-12.63.41-.99.76-2.02 1.04-3.06l.09-.3c.57-2.21-.75-4.46-2.96-5.03-1.5-.42-3.05-.6-4.6-.54-2.74.12-5.43.73-7.96 1.79-.72.3-1.41.66-2.13.96-1.28.43-2.25 1.48-2.58 2.79m24.03 64.83c-2.5 2.21-5.5 3.8-8.73 4.64-6.52 1.49-11.49-2.84-10.69-9.35.43-3.32 1.86-6.43 4.1-8.91 3.5-3.91 8.21-6.52 13.39-7.41 2.36-.54 4.81-.58 7.18-.12.72.1 1.41.34 2.04.7 2.72 1.56 3.66 5.03 2.1 7.75-.29.68-.74 1.31-1.03 1.99-1.91 4.18-4.78 7.85-8.36 10.72m-6.3-18.39c-.2 0-.46-.07-.67 0-6.19 2.28-10.61 7.79-11.48 14.33-.09.71-.07 1.42.06 2.12.69 3.86 4.38 6.44 8.25 5.74 2.54-.34 4.97-1.27 7.09-2.72 4.56-2.97 8.25-7.1 10.71-11.95.59-1.21 1.05-2.49 1.35-3.8.67-2.05-.39-4.27-2.41-5.03-1.55-.72-3.27-.97-4.96-.73-2.22.3-4.43.8-6.61 1.28-.47.18-.91.43-1.31.74m-36.49-35.26c-2.72 2.47-6.02 4.21-9.6 5.06-5.81 1.11-10.53-2.69-10.3-8.34.15-3.2 1.28-6.27 3.24-8.8 3.47-4.54 8.52-7.61 14.15-8.57 2.66-.71 5.47-.71 8.13 0 .31.08.62.19.92.33 2.77 1.29 3.96 4.58 2.67 7.34-.32.85-.84 1.63-1.19 2.47-1.82 4.08-4.57 7.67-8.02 10.51m-.93-.43c4.41-3.45 7.69-8.14 9.43-13.46.35-.96.37-2.01.05-2.98-.51-1.41-1.71-2.47-3.17-2.81-1.18-.34-2.41-.49-3.63-.43-5.79.09-11.35 2.34-15.57 6.3-3.08 2.75-4.89 6.64-5.02 10.77-.01.42 0 .83.07 1.25.55 3.84 4.12 6.51 7.96 5.96 3.38-.43 6.56-1.82 9.16-4.01.25-.19.48-.39.72-.58"/>
  <path fill="#666793" d="m766.4 185.06 6.79-15.29-.19-.07-6.92 15.24.32.12m22.05-6.87c2.81-4 4.22-8.61 6.27-12.93l-6.27 12.93Zm2.18-12.38-5.96 12.69.27.11 5.86-12.72-.18-.07m-19.87 18.54 5.15-11.55-.24-.09-5.15 11.59.24.05m-4.55-4.67 3.53-9.77-.22-.06-3.66 9.75.35.08m19.63-8.98-4 8.32.28.11 3.95-8.37-.24-.07m35.53 3.87-2.43 6.61c1.25-2.02 2.07-4.27 2.43-6.61m-16.19-5.95-2.88 5.88c1.47-1.67 2.46-3.7 2.88-5.88m8.71.87-2.88 6.54.27.1 2.84-6.56-.23-.07m-17.5-.26-2.52 5.25.22.09 2.5-5.24-.21-.11m6-3.36-2.57 4.99.2.09 2.59-5.05-.22-.04m3.27 8.62 2.05-3.88-.24-.11-2.06 3.89.25.09m15.24 9.38 1.29-3.96-.21-.06-1.35 3.92.26.1m-39.98-14.92-1.84 3.86.18.07 1.85-3.86-.19-.08m37.8 6.61-.23-.1-1.61 3.39.27.07 1.57-3.36Zm-20.96.11 1.68-3.41-.19-.09-1.71 3.39.23.11m16.07 2.61 1.5-3.02-.18-.08-1.56 2.97.21.12"/>
  <path fill="#666793" d="M766.08 184.94 773 169.7l.19.07-6.79 15.29-.32-.12Zm28.64-19.68c-2.05 4.33-3.46 8.93-6.27 12.93l6.27-12.93m-3.92.64-5.86 12.72-.27-.11 5.96-12.68.18.08h-.01Zm-20.04 18.45-.24-.05 5.15-11.59.23.09-5.15 11.55m-4.54-4.67-.35-.08 3.66-9.75.22.07-3.53 9.76m19.86-8.91-3.96 8.37-.28-.11 4-8.32.24.06Zm35.29 3.8c-.35 2.35-1.18 4.6-2.43 6.61l2.43-6.61m-16.19-5.95c-.42 2.18-1.41 4.21-2.88 5.88l2.88-5.88m8.71.88.23.07-2.84 6.57-.27-.1 2.88-6.54m-17.5-.26.21.11-2.5 5.24-.22-.1 2.51-5.26m5.99-3.35.22.04-2.58 5.05-.2-.09 2.57-4.99m3.26 8.61-.25-.09 2.06-3.9.24.11-2.05 3.88m15.23 9.37-.26-.1 1.35-3.92.21.06-1.29 3.96m-39.98-14.93.19.08-1.84 3.86-.18-.07 1.84-3.86m36.23 9.96-.27-.07 1.61-3.39.23.1-1.57 3.36m-19.38-3.24-.23-.12 1.71-3.39.2.1-1.68 3.41m15.82 2.46 1.56-2.97.17.07-1.5 3.02-.23-.12Zm23.66-19.46.21.07-2.65 8.49-.37-.09 2.81-8.47m10.21-4.84.22.06-2.21 6.19-.31-.09 2.31-6.15m-5.59 7.96-.3-.1 1.79-4.65.23.07-1.72 4.68m-3.3 2.66-.27-.08 1.57-4.5.25.08-1.55 4.5m16.99-8.52-.34-.1 1.48-3.76.21.06-1.36 3.79m-1.62-2.9h-.03c-.19 1.39-.84 2.67-1.83 3.66l1.86-3.66m-35.68-6.32 2.55-7.16c-.44 2.51-1.3 4.94-2.55 7.16m5.27-7.91.25.1-2.3 6.15-.33-.11 2.38-6.15m1.62 4.14-.32-.1 2.35-5.17.23.09-2.25 5.18m3.93-2.38-.33-.12 2.25-4.91.23.09-2.14 4.95m3.65-1.87-.31-.11 2.22-5.2.22.08-2.14 5.22m5.5-.18-.29-.09 1.64-4.99.21.05-1.56 5.02m-1.17-3.34.2.06-1.16 3.14-.26-.08 1.22-3.12m1.59 49.9.2.02c-.25.87-.48 1.73-.73 2.6s-.45 1.75-.73 2.62c-.26.82-.59 1.61-.88 2.41l-.24-.09 2.37-7.56m-5.84 3.44c-.26 2.48-1.03 4.89-2.26 7.06l2.26-7.06m13.94-.67-.32-.05 1.21-5.55.19.03-1.07 5.58m-6.76 3.4-.33-.09 1.68-5.77.22.05-1.56 5.81m-11.92 6.82 1.35-5.64.25.05-1.31 5.64-.29-.04Zm6.31-8.08-1.17 5.04-.45-.09 1.66-4.94h-.04Zm14.49-2.03-.3-.08 1.45-4.3.23.06-1.38 4.32m-14.49 2.02h.03l.94-4.39.34.07-1.32 4.32m9.52-3.41.24.06-.94 3.08-.25-.06.95-3.08m-46.3-53.63.19.07-4.39 10.55-.33-.12 4.54-10.5m-9.71 4.29.26.05-3.12 8.03-.29-.09 3.15-7.99m16.27-6.67.22.08-3.08 6.96-.26-.1 3.13-6.94m-4.48 3.3.24.1-2.77 6.31-.28-.11 2.81-6.3m-8.6 9.82-.33-.12 2.58-5.98.2.07-2.46 6.03m-2.95 1.35 1.95-5.3.27.08-1.92 5.31-.3-.09Zm16.16-7.34-.33-.13 2.38-4.97.19.08-2.25 5.01m109.5 81.01c1.49 1.54 2.81 3.1 4.31 4.46 5.12 5.05 12.58 6.92 19.48 4.9 5.29-1.49 9.62-5.31 11.77-10.37 4.2-9 6.68-18.7 7.32-28.61.45-4.43-.2-8.91-1.9-13.03-1.11-2.83-3.15-5.21-5.77-6.75-3.92-2.19-8.34-3.34-12.83-3.33-7.74-.03-15.45 1.13-22.84 3.41-3.86 1.01-7.56 2.55-10.99 4.58-5.72 2.99-8.39 9.73-6.27 15.83.76 2.64 1.87 5.17 3.28 7.53 2.42 3.96 5.22 7.68 7.83 11.51 2.24 3.3 4.45 6.62 6.62 9.86m41.13-37.88-12.38 1.94.05.31 12.44-1.98c.55 2.98.66 6.03.32 9.04-.58 4.11-1.22 8.24-2.11 12.3-.71 3-1.61 5.95-2.68 8.83-.81 2.46-1.82 4.85-3.01 7.15-6.39 11.58-20.65 11.44-28.53 4.07-3.07-3.07-5.79-6.46-8.12-10.13-2.81-4.12-5.65-8.22-8.48-12.33-2.15-2.95-3.87-6.2-5.1-9.63-2.33-5.67-.11-12.19 5.19-15.27 2.11-1.35 4.36-2.47 6.71-3.33 6.12-2.1 12.44-3.54 18.86-4.32 4.2-.76 8.51-.77 12.72-.04 1.93.39 3.81.98 5.61 1.77 2.22.98 4.16 2.51 5.62 4.45 1.44 1.98 2.43 4.26 2.89 6.67.02.17.02.33.02.5m13.83-22.44c3.96-3.24 6.76-7.68 7.97-12.66.44-1.66.6-3.38.49-5.09 0-.44-.07-.89-.17-1.32-.8-3.23-4.06-5.2-7.29-4.4-4.81.69-9.39 2.51-13.37 5.31-3.32 2.18-5.98 5.23-7.7 8.81-.45.91-.74 1.89-.86 2.9-.6 4.95 2.93 9.46 7.88 10.06 4.67.7 9.41-.61 13.05-3.62m4.27-15.77 3.34.25c-.35 1.37-.6 2.64-1.01 3.86-1.2 3.82-3.37 7.27-6.3 10.01-2.23 2.09-5.02 3.5-8.02 4.07-.66.12-1.36.02-2.02.13-3.91.95-7.93-1.07-9.5-4.77-1.04-2.72-.71-5.78.91-8.21 2.58-4.19 6.36-7.5 10.86-9.49 3.21-1.76 6.81-2.67 10.47-2.64 2.06.06 3.82 1.52 4.26 3.53.22 1.02.27 2.07.4 3.16l-3.39.12v-.04m11.56 38.92c3.17-2.6 5.62-5.98 7.1-9.8 1.14-2.52 1.64-5.29 1.46-8.05 0-.16-.02-.31-.04-.46-.44-3.34-3.51-5.68-6.84-5.24-1.05.1-2.07.45-3.12.64-4.95.98-9.55 3.28-13.3 6.65-2.43 1.95-4.32 4.49-5.48 7.38-.38.88-.61 1.82-.69 2.78-.42 4.97 3.27 9.35 8.25 9.77 4.55.55 9.12-.77 12.67-3.67m-.74-2.14h1.28c-1.11 1.48-2.7 2.55-4.5 3.01-.33.04-.58.55-.92.68-2.61 1.11-5.48 1.45-8.28.99-.39-.06-.78-.15-1.15-.27-4.17-1.32-6.47-5.77-5.15-9.94.75-2.48 2.12-4.73 3.99-6.53 4.02-4.1 9.16-6.92 14.78-8.1 1.08-.17 2.18-.27 3.28-.3 2.51-.16 4.67 1.73 4.86 4.23.15 1.6.06 3.22-.28 4.79-.61 2.71-1.71 5.29-3.25 7.61-.43.66-.92 1.27-1.35 1.92-.67 1.19-1.93 1.92-3.3 1.9m-61.18-40.41c-2.7 2-4.85 4.64-6.26 7.69-.55 1.09-.87 2.28-.95 3.49-.33 5 3.46 9.33 8.46 9.66 3.37.4 6.79-.28 9.75-1.94 4.6-2.59 8.12-6.74 9.9-11.71.98-2.28 1.47-4.75 1.43-7.23.02-.6-.04-1.21-.19-1.79-.85-3.34-4.26-5.36-7.6-4.51-.74.13-1.45.42-2.19.55-4.53.88-8.77 2.87-12.35 5.79m17.45 10.96c-.04.2-.01.49-.13.68-3.45 5.72-9.94 8.87-16.57 8.06-.52-.07-1.02-.19-1.52-.35-4.12-1.4-6.33-5.88-4.92-10 .79-2.47 2.17-4.7 4.03-6.5 3.84-3.88 8.7-6.6 14.01-7.86 1.34-.3 2.71-.45 4.08-.43 2.26-.12 4.26 1.46 4.65 3.69.44 1.71.39 3.52-.16 5.2-.71 2.17-1.62 4.28-2.49 6.37-.27.43-.6.82-.98 1.14m29.01 45.66c-3 2.15-5.37 5.08-6.85 8.46-.27.62-.48 1.27-.6 1.94-.93 4.9 2.28 9.62 7.17 10.56 3.19.64 6.51.26 9.47-1.1 5.22-2.39 9.27-6.78 11.22-12.18 1.21-2.57 1.72-5.41 1.48-8.23-.01-.18-.04-.36-.07-.54-.56-3.32-3.72-5.56-7.04-4.99-.92.11-1.81.44-2.71.59-4.41.81-8.56 2.7-12.07 5.49m.26 1.06c4.33-3.62 9.68-5.79 15.31-6.2 1.06-.11 2.12.13 3.02.69 1.34.87 2.18 2.32 2.27 3.91.13 1.27.06 2.55-.23 3.79-1.08 5.75-4.38 10.85-9.19 14.19-3.41 2.45-7.7 3.32-11.79 2.4-.21-.05-.42-.1-.63-.16-4.13-1.26-6.45-5.63-5.19-9.75 1.02-3.27 3.01-6.16 5.71-8.28.23-.2.48-.39.72-.58"/>
  <path fill="#666793" d="m924.84 223.22 16.68-3.07.04.21-16.65 3.22-.06-.35m10.93-20.61c4.55-1.85 9.47-2.12 14.21-3.13l-14.21 3.13Zm12.9.87-13.89 2.88-.06-.31 13.91-2.78.04.2m-22.34 15.51 12.61-2.35.05.26-12.65 2.34v-.25m3.89 5.77 10.5-1.15.03.24-10.51 1.28-.02-.37m12.63-17.64-9.13 1.98-.07-.31 9.17-1.92.03.26m2.52-36.92-7.12.81c2.29-.76 4.72-1.04 7.12-.81m3.08 17.87-6.46 1.45c1.98-1.08 4.22-1.58 6.46-1.45m.69-9.04-7.13 1.29-.06-.3 7.14-1.25.04.25m-2.9 17.79-5.77 1.23-.05-.25 5.75-1.23.08.24m4.47-5.25-5.51 1.36-.05-.22 5.57-1.35v.23m-8.12-5.46 4.29-1.11.07.27-4.31 1.11-.04-.27m-6.71-17.75 4.22-.33.03.23-4.2.39-.05-.29m7.84 44.16-4.23.9-.04-.2 4.23-.91.05.22m.17-39.9.06.26-3.72.79-.02-.29 3.69-.76h-.01Zm-3.92 21.18 3.76-.84.05.21-3.74.89-.07-.26m.28-16.9 3.31-.78.05.2-3.28.84-.08-.26"/>
  <path fill="#666793" d="m924.9 223.57 16.65-3.22-.04-.21-16.68 3.07.07.36Zm25.07-24.09c-4.75 1-9.65 1.28-14.2 3.13l14.21-3.13m-1.36 3.79-13.91 2.78.07.31 13.9-2.87-.06-.21Zm-22.28 15.69v.25l12.65-2.33-.05-.26-12.6 2.33m3.9 5.78.02.38 10.51-1.28-.03-.24-10.5 1.15m12.59-17.9-9.17 1.93.07.31 9.13-1.98-.03-.26Zm2.56-36.65c-2.41-.23-4.83.05-7.12.81l7.12-.81m3.08 17.87c-2.25-.13-4.49.37-6.47 1.45l6.47-1.45m.69-9.04-.04-.25-7.15 1.24.06.3 7.13-1.29m-2.91 17.78-.08-.24-5.75 1.23.06.25 5.77-1.23m4.48-5.24v-.23l-5.57 1.36.05.22 5.52-1.35m-8.11-5.45.04.28 4.31-1.11-.07-.27-4.29 1.11m-6.7-17.76.05.29 4.21-.38-.03-.23-4.23.32m7.85 44.17-.05-.22-4.23.91.04.21 4.23-.9m-3.52-39.16.02.29 3.72-.79-.06-.26-3.68.76m-.22 20.43.08.26 3.74-.89-.05-.21-3.76.84m.36-16.63 3.28-.84-.05-.2-3.32.78.08.26Zm23.95-19.1-.03-.23-9.06.57.03.4 9.07-.74m6.73-9.14-.03-.23-6.65.69.04.35 6.64-.81M962 152.6l.04.33 5.03-.66-.04-.25-5.04.58m-3.27 2.68.03.3 4.82-.47-.03-.28-4.83.45m11.69-15.07.04.37 4.07-.56-.03-.24-4.08.43m2.65 2.37v.03c-1.42-.16-2.84.18-4.03.95l4.03-.98m-.08 37.68 7.7-.8c-2.59-.19-5.2.08-7.7.8m8.94-3.37-.06-.27-6.64.8.05.36 6.64-.89m-3.86-2.66.04.36 5.65-1.09-.05-.26-5.64.99m3.11-3.4.06.36 5.37-1.05-.05-.25-5.39.94m2.56-3.24.06.34 5.65-.97-.04-.23-5.67.86m1.19-5.5.04.32 5.34-.42-.02-.23-5.36.33m3.16 2.01-.02-.21-3.38.39.03.28 3.37-.46m-50.12-14.02v-.21c-.9.03-1.82.06-2.74.09s-1.85.02-2.78.08c-.87.07-1.73.2-2.59.3l.04.26 8.07-.52m-4.53 5.07c-2.52-.36-5.1-.18-7.55.53l7.55-.53m3.2-13.95v.35l5.82.15v-.2l-5.82-.3m-4.67 5.98.03.37 6.13-.26v-.23l-6.16.13m-9.05 10.36 5.94.03v-.26l-5.94-.08v.31Zm9.3-4.37-5.31-.08v.48l5.31-.45v.04Zm4.66-14.16.03.32 4.61-.4-.02-.24-4.62.32m-4.66 14.16v-.03l4.61.14v-.36l-4.61.26m5.16-8.79-.02-.27-3.28.19.02.27 3.28-.2m45.81 60.2-.04-.21-11.46 1.82.06.37 11.44-1.98m-6.1 8.76v-.27l-8.68 1.16.04.32 8.64-1.2m9.69-14.82-.05-.24-7.59 1.39.06.3 7.58-1.44m-4.15 3.69-.05-.27-6.88 1.23.06.31 6.87-1.28m-11.48 6.27.06.36 6.52-1.12-.04-.23-6.54.99m-1.89 2.67 5.71-.66-.04-.29-5.71.62.04.33Zm10.34-14.54.07.36 5.45-1.17-.05-.22-5.47 1.02M924.24 69.75c-1.12-1.67-2.28-3.18-3.22-4.83-3.59-5.92-3.63-13.34-.11-19.3 2.66-4.77 7.23-8.19 12.56-9.4 9.38-2.44 19.13-3.15 28.77-2.08 4.24.3 8.33 1.68 11.89 4.01 2.42 1.53 4.2 3.88 5.04 6.62 1.17 4.16 1.22 8.54.17 12.73-1.8 7.41-4.69 14.51-8.55 21.08-1.87 3.5-4.18 6.74-6.89 9.64-4.84 4.99-10.58 6.23-16.43 3.25-2.31-1.16-4.45-2.64-6.36-4.39-3.18-2.96-6.05-6.25-9.07-9.38-2.6-2.69-5.23-5.34-7.79-7.95m45.43-32.55-4.72 11.41-.28-.1 4.78-11.46c-2.72-1.04-5.58-1.66-8.48-1.84-4.03-.16-8.08-.24-12.13-.09-3.01.17-6.01.52-8.98 1.04-2.53.35-5.03.89-7.47 1.64-1.25.38-2.45.9-3.59 1.54-8.76 4.94-11.85 16.05-6.91 24.81 2.18 3.43 4.76 6.59 7.69 9.41 3.24 3.37 6.47 6.75 9.69 10.13 2.3 2.54 4.98 4.72 7.93 6.46 5.09 3.13 11.69 2.15 15.66-2.32 1.77-1.77 3.35-3.71 4.71-5.8 3.4-5.41 6.24-11.15 8.49-17.14 1.69-3.81 2.7-7.89 3-12.05.08-1.88-.04-3.76-.37-5.62-.4-2.25-1.4-4.36-2.91-6.08-1.55-1.71-3.48-3.03-5.64-3.87-.15-.04-.31-.08-.46-.09m24.45-9.32c3.95-3.19 8.78-5.08 13.85-5.41 1.65-.13 3.32 0 4.93.4.56.11 1.1.32 1.59.6 2.63 1.49 3.56 4.82 2.07 7.45-1.8 4.48-4.59 8.5-8.14 11.77-2.83 2.77-6.31 4.77-10.13 5.81-6.2 1.42-11.18-2.67-10.64-8.86.47-4.63 2.81-8.88 6.47-11.76m15.93-1.37.54-3.2c-1.38.1-2.64.12-3.89.3-3.94.51-7.7 1.98-10.95 4.28-2.49 1.75-4.47 4.14-5.72 6.91-.27.6-.33 1.28-.59 1.89-1.68 3.98-.84 7.76 2.3 9.81 2.42 1.46 5.39 1.66 7.98.53 4.58-1.75 8.57-4.76 11.51-8.68 2.39-2.71 4.09-5.96 4.93-9.48.45-1.91-.54-3.87-2.35-4.64-.91-.38-1.9-.61-2.9-.92l-.91 3.18h.03m-34.1-17.54c3.17-2.55 6.92-4.29 10.92-5.07 2.61-.65 5.35-.66 7.96-.02.29.07.58.16.86.28 2.8 1.18 4.11 4.41 2.93 7.21-.34.98-.91 1.89-1.33 2.85-2.1 4.56-5.34 8.51-9.39 11.48-2.39 1.96-5.23 3.31-8.26 3.94-1.12.29-2.3.34-3.44.15-4.45-.76-7.44-4.99-6.68-9.44.58-4.48 2.89-8.57 6.43-11.38M977.8 10l.31-1.21c-1.67.8-3.04 2.12-3.91 3.75-.12.3-.65.45-.86.76-1.64 2.25-2.63 4.9-2.86 7.67-.06.59-.04 1.18.05 1.77.61 3.89 4.25 6.55 8.14 5.95 2.55-.3 4.99-1.21 7.1-2.67 4.8-3.1 8.65-7.47 11.11-12.63.41-.99.76-2.02 1.04-3.06l.09-.3c.57-2.21-.75-4.46-2.96-5.03-1.5-.42-3.05-.6-4.6-.54-2.74.12-5.43.73-7.96 1.79-.72.3-1.41.66-2.13.96-1.28.43-2.25 1.48-2.58 2.79m24.03 64.83c-2.5 2.21-5.5 3.8-8.73 4.64-6.52 1.49-11.49-2.84-10.69-9.35.43-3.32 1.86-6.43 4.1-8.91 3.5-3.91 8.21-6.52 13.39-7.41 2.36-.54 4.81-.58 7.18-.12.72.1 1.41.34 2.04.7 2.72 1.56 3.66 5.03 2.1 7.75-.29.68-.74 1.31-1.03 1.99-1.91 4.18-4.78 7.85-8.36 10.72m-6.3-18.39c-.2 0-.46-.07-.67 0-6.19 2.28-10.61 7.79-11.48 14.33-.09.71-.07 1.42.06 2.12.69 3.86 4.38 6.44 8.25 5.74 2.54-.34 4.97-1.27 7.09-2.72 4.56-2.97 8.25-7.1 10.71-11.95.59-1.21 1.05-2.49 1.35-3.8.67-2.05-.39-4.27-2.41-5.03-1.55-.72-3.27-.97-4.96-.73-2.22.3-4.43.8-6.61 1.28-.47.18-.91.43-1.31.74m-36.48-35.26c-2.72 2.47-6.02 4.21-9.6 5.06-5.81 1.11-10.53-2.69-10.3-8.34.15-3.2 1.28-6.27 3.24-8.8 3.47-4.54 8.52-7.61 14.15-8.57 2.66-.71 5.47-.71 8.13 0 .31.08.62.19.92.33 2.77 1.29 3.96 4.58 2.67 7.34-.32.85-.84 1.63-1.19 2.47-1.82 4.08-4.57 7.67-8.02 10.51m-.93-.43c4.41-3.45 7.69-8.14 9.43-13.46.35-.96.37-2.01.05-2.98-.51-1.41-1.71-2.47-3.17-2.81-1.18-.34-2.41-.49-3.63-.43-5.79.09-11.35 2.34-15.57 6.3-3.08 2.75-4.89 6.64-5.02 10.77-.01.42 0 .83.07 1.25.55 3.84 4.12 6.51 7.96 5.96 3.38-.43 6.56-1.82 9.16-4.01.25-.19.48-.39.72-.58"/>
  <path fill="#666793" d="m922.54 58.52 6.79-15.29-.19-.07-6.92 15.24.32.12m22.05-6.87c2.81-4 4.22-8.61 6.27-12.93l-6.27 12.93Zm2.18-12.38-5.96 12.69.27.11 5.86-12.72-.18-.07m-19.87 18.54 5.15-11.55-.24-.09-5.15 11.59.24.05m-4.55-4.67 3.53-9.77-.22-.06-3.66 9.75.35.08m19.63-8.98-4 8.32.28.11 3.95-8.37-.24-.07m35.53 3.87-2.43 6.61c1.25-2.02 2.07-4.27 2.43-6.61m-16.19-5.95-2.88 5.88c1.47-1.67 2.46-3.7 2.88-5.88m8.71.87-2.88 6.54.27.1 2.84-6.56-.23-.07m-17.5-.26-2.52 5.25.22.09 2.5-5.24-.21-.11m6-3.36-2.57 4.99.2.09 2.59-5.05-.22-.04m3.27 8.62 2.05-3.88-.24-.11-2.06 3.89.25.09m15.24 9.38 1.29-3.96-.21-.06-1.35 3.92.26.1m-39.98-14.92-1.84 3.86.18.07 1.85-3.86-.19-.08m37.8 6.61-.23-.1-1.61 3.39.27.07 1.57-3.36Zm-20.96.11 1.68-3.41-.19-.09-1.71 3.39.23.11m16.07 2.61 1.5-3.02-.18-.08-1.56 2.97.21.12"/>
  <path fill="#666793" d="m922.22 58.4 6.92-15.24.19.07-6.79 15.29-.32-.12Zm28.64-19.68c-2.05 4.33-3.46 8.93-6.27 12.93l6.27-12.93m-3.91.63-5.86 12.72-.27-.11 5.96-12.68.18.08h-.01ZM926.9 57.81l-.24-.05 5.15-11.59.23.09-5.15 11.55m-4.54-4.68-.35-.08 3.66-9.75.22.07-3.53 9.76m19.86-8.91-3.96 8.37-.28-.11 4-8.32.24.06Zm35.29 3.81c-.35 2.35-1.18 4.6-2.43 6.61l2.43-6.61m-16.19-5.96c-.42 2.18-1.41 4.21-2.88 5.88l2.88-5.88m8.71.88.23.07-2.84 6.57-.27-.1 2.88-6.54m-17.5-.26.21.11-2.5 5.24-.22-.1 2.51-5.26m6-3.35.22.04-2.58 5.05-.2-.09 2.57-4.99m3.25 8.61-.25-.09 2.06-3.9.24.11-2.05 3.88m15.23 9.37-.26-.1 1.35-3.92.21.06-1.29 3.96m-39.97-14.93.19.08-1.84 3.86-.18-.07 1.84-3.86m36.22 9.97-.27-.07 1.61-3.39.23.1-1.57 3.36m-19.38-3.25-.23-.12 1.71-3.39.2.1-1.68 3.41m15.82 2.47 1.56-2.97.17.07-1.5 3.02-.23-.12Zm23.66-19.47.21.07-2.65 8.49-.37-.09 2.81-8.47m10.21-4.84.22.06-2.21 6.19-.31-.09 2.31-6.15m-5.59 7.97-.3-.1 1.79-4.65.23.07-1.72 4.68m-3.3 2.65-.27-.08 1.57-4.5.25.08-1.55 4.5m16.99-8.51-.34-.1 1.48-3.76.21.06-1.36 3.79m-1.62-2.91h-.03c-.19 1.39-.84 2.67-1.83 3.66l1.86-3.66m-35.68-6.32 2.55-7.16c-.44 2.51-1.3 4.94-2.55 7.16m5.27-7.91.25.1-2.3 6.15-.33-.11 2.38-6.15m1.63 4.14-.32-.1 2.35-5.17.23.09-2.25 5.18m3.92-2.38-.33-.12 2.25-4.91.23.09-2.14 4.95m3.65-1.87-.31-.11 2.22-5.2.22.08-2.14 5.22m5.5-.18-.29-.09 1.64-4.99.21.05-1.56 5.02M993.2 8.6l.2.06-1.16 3.14-.26-.08 1.22-3.12m1.6 49.9.2.02c-.25.87-.48 1.73-.73 2.6s-.45 1.75-.73 2.62c-.26.82-.59 1.61-.88 2.41l-.24-.09 2.37-7.56m-5.85 3.44c-.26 2.48-1.03 4.89-2.26 7.06l2.26-7.06m13.94-.67-.32-.05 1.21-5.55.19.03-1.07 5.58m-6.76 3.41-.33-.09 1.68-5.77.22.05-1.56 5.81m-11.92 6.81 1.35-5.64.25.05-1.31 5.64-.29-.04Zm6.31-8.08-1.17 5.04-.45-.09 1.66-4.94h-.04Zm14.49-2.03-.3-.08 1.45-4.3.23.06-1.38 4.32m-14.49 2.02h.03l.94-4.39.34.07-1.32 4.32m9.52-3.4.24.06-.94 3.08-.25-.06.95-3.08M953.75 6.37l.19.07-4.39 10.55-.33-.12 4.54-10.5m-9.72 4.29.26.05-3.12 8.03-.29-.09 3.15-7.99m16.27-6.67.22.08-3.08 6.96-.26-.1 3.13-6.94m-4.47 3.31.24.1-2.77 6.31-.28-.11 2.81-6.3m-8.61 9.82-.33-.12 2.58-5.98.2.07-2.46 6.03m-2.95 1.34 1.95-5.3.27.08-1.92 5.31-.3-.09Zm16.16-7.34-.33-.13 2.38-4.97.19.08-2.25 5.01M499.82 452.46c-2.56.36-5.26.94-7.98 1.08-7.62.4-15.11-.64-21.44-5.11-7.84-5.44-13.28-13.69-15.19-23.04-.58-2.59-.71-5.27-.36-7.9.79-4.65 3.54-8.74 7.54-11.23 7.06-5.11 15.39-8.19 24.07-8.92 4.28-.3 8.58-.79 12.83-1.4 3.62-.39 6.93-2.2 9.22-5.02.49-.47 1.02-.9 1.58-1.3.48-.38.89-.84 1.2-1.37 2.58-5.57 5.05-11.2 7.66-16.76 4.22-8.97 8.55-17.89 12.81-26.84.57-1.2 1.12-2.42 1.59-3.66 2.33-6.09 5.05-12.02 8.15-17.75 2.2-4.08 4.11-8.31 6.19-12.45 1.94-3.56 1.72-7.91-.59-11.25-.7-1.24-1.51-2.41-2.43-3.5-2.59-2.8-5.4-5.39-7.92-8.25-4.92-5.59-7.47-12.01-5.87-19.54.87-3.96 2.43-7.73 4.59-11.16 5.45-8.87 14.29-12.29 24.2-9.11 5.94 1.86 11.43 4.93 16.11 9.03 5.51 4.41 9.28 10.62 10.67 17.53.04.41.17.81.38 1.17.31.4.92 1.02 1.15.92.51-.23.89-.68 1.03-1.23.08-1 0-2.01-.26-2.99-1.33-4.99-3.8-9.61-7.2-13.5-5.77-6.56-13.26-11.38-21.63-13.89-4.49-1.63-9.39-1.72-13.94-.25-6.8 2.3-12.24 7.49-14.85 14.17-.56 1.35-1.11 2.71-1.64 4.09-1.97 4.9-2.29 10.31-.92 15.4 1.72 5.86 5.14 11.07 9.83 14.98 2.88 2.38 5.3 5.25 7.16 8.48 1.34 2.42 1.36 5.35.07 7.79-4.9 10.11-10.5 19.83-14.61 30.37-3.77 9.68-8.81 18.88-13.33 28.26-2.81 5.83-5.57 11.69-8.62 17.39-2.14 3.98-5.15 7.2-10.03 7.79-3.55.43-7.1.96-10.66 1.14-10.67.53-20.92 4.35-29.33 10.95-5.21 3.53-7.94 9.74-7.01 15.96.34 3.19 1.02 6.34 2.03 9.39 4.59 12.29 12.29 21.45 25.78 24.38 6.03 1.52 12.31 1.74 18.43.64 2.1-.73 4.42.06 5.65 1.91 10.43 13.17 29.21 16.15 43.21 6.86.92-.6 1.73-1.35 2.41-2.21 2.12-2.71 4.27-5.41 6.16-8.28 2.67-4.06 5.24-8.3 5.54-13.33.95-11.91-3.34-23.64-11.75-32.12-1.87-1.95-3.82-3.83-5.72-5.76-.91-.85-1.11-2.22-.49-3.29 1.56-3.32 3.03-6.68 4.66-9.97 5.71-11.56 11.6-23.04 17.21-34.65 4.35-9 8.4-18.16 12.56-27.26.45-1.37 1.42-2.5 2.71-3.16.41-.29.73-.69.9-1.16.78-1.57 2-2.88 3.52-3.76 2.53-1.44 5.43-2.08 8.33-1.84 3.93.13 7.88.4 11.8.18 5.19-.11 10.21-1.83 14.39-4.9 6.66-5.22 10.98-12.88 11.99-21.29.63-5.85-.57-11.75-3.45-16.88-4.02-8.13-9.67-14.77-18.18-18.42-2.75-1.01-5.58-1.81-8.45-2.4-6.55-1.69-11.79.47-15.99 5.54-.64.78-1.08 1.79-.25 2.61.87.85 1.58 0 2.21-.59.84-.78 1.64-1.6 2.49-2.37 3.35-3.14 7.21-3.23 11.55-2.49 14.15 2.43 23.44 12.28 26.99 26.25 2.7 10.61-1.72 19.64-9.65 26.87-3.85 3.36-8.78 5.23-13.89 5.28-4.57.22-9.16 0-13.74-.02-3.86-.1-7.59 1.47-10.22 4.3-.74.75-1.43 1.55-2.06 2.39-1.24 1.45-2.34 3.01-3.28 4.68-2.8 5.88-5.33 11.9-8.12 17.79-6.11 12.9-12.3 25.77-18.55 38.6-2.87 5.9-5.97 11.68-8.99 17.5-.58.94-.43 2.15.37 2.91 1.2 1.27 2.45 2.48 3.69 3.71 2.67 2.38 5.19 4.91 7.55 7.59 5.45 7.07 8.13 15.88 7.53 24.79-.1 1.78-.5 3.54-1.18 5.19-2.2 4.85-5.03 9.4-8.41 13.51-3.94 5.33-10.08 8.61-16.7 8.92-8.44.83-16.85-1.88-23.22-7.48-4.74-4.14-8.56-8.79-7.75-15.71.04-.36-.68-.99-1.16-1.15-.3-.1-1.02.36-1.18.72-.28.63-.4 1.32-.35 2.01.2 2.17.51 4.34.82 6.93"/>
  <path fill="#666793" d="M596.67 261.67c-.86-.03-1.71 0-2.57.08-.41.14-.75.42-.96.8-.07.11.29.74.52.78 2.41.49 4.83.93 7.26 1.37.08.02.19-.16.59-.51l-4.08-2.74 3.74.11.22-.6c-.68-.59-1.44-1.07-2.26-1.42-2.11-.53-2.89.18-2.46 2.13m-1.34 43-.47.33c.11.46.09 1.02.34 1.37 1.07 1.43 2.19 2.81 3.35 4.15.32.31.75.47 1.19.44 1.02-.13 2.01-.43 3.03-.65l.13-.67c-.8-.95-1.56-1.92-2.42-2.82s-1.81-1.54-2.78-.01l-2.38-2.14m-50.76 118.94c1.33.7 2.87.89 4.32.52.31-.06.8-.53.75-.67-.32-.95-1.79-1.5-.96-2.88-.1-.14-.23-.25-.39-.31-1.6-.57-3.38-.33-4.77.65.99.43 1.77.77 2.69 1.17l-1.64 1.52m-.49 21.97v.57c.69.24 1.41.35 2.14.32 1.86-.48 3.69-1.08 5.48-1.78.43-.17.68-.81 1.02-1.23-.55-.18-1.17-.64-1.63-.51-1.67.49-3.27 1.17-4.9 1.79-.7.27-1.41.56-2.11.84m51.69-172.89c-.53-.93-1.64-1.35-2.65-.99-.03 0-.06 0-.09.02-.92.18-1.51 1.07-1.33 1.99-.02.22-.08.44-.17.65-.16.53-.32 1.06-.48 1.58.64.06 1.29.14 1.94.16.53.02 1.07-.05 1.75-.07l-1.15-2.15 2.18-1.18m-40.55-18.63c.78 1.52 7.4 4.17 8.83 3.62-.88-1.58-6.65-3.99-8.83-3.62m35.81 51.3-.46.37c.22.61.52 1.19.87 1.73 1.25 1.51 2.55 2.98 3.91 4.39.29.31.9.31 1.37.46-.11-.45-.07-1.01-.33-1.34-1.26-1.62-2.58-3.2-3.95-4.73-.43-.36-.91-.66-1.42-.88m7.19-38.27.31-.47c-.43-.47-.8-1.22-1.33-1.36-1.73-.43-3.48-.75-5.25-.97-.39-.05-.83.34-1.26.54.28.38.49 1.03.83 1.1 2.22.46 4.46.79 6.69 1.16M553.6 433.48c-3.03-.11-6.02.69-8.59 2.3.48.15.91.44 1.29.37 2.07-.36 4.14-.75 6.18-1.28.41-.1.67-.81 1.12-1.4m-7.51 7.14.27.51c2.27-.64 4.54-1.24 6.78-1.94.31-.1.46-.69.68-1.05-.38-.2-.81-.65-1.09-.57-1.56.45-3.1 1-4.6 1.64-.73.4-1.41.87-2.04 1.42m6-14.19-.06-.51c-.64-.18-1.29-.27-1.95-.27-1.53.21-3.05.5-4.55.88-.39.09-.7.53-1.04.8.46.25.95.76 1.38.72 1.54-.17 3.08-.43 4.59-.79.58-.21 1.13-.49 1.64-.83m-63.73 22.84c2.23.67 4.58.82 6.87.44.4-.03.75-.68 1.12-1.05-.46-.28-.93-.81-1.36-.78-1.73.12-3.47.38-5.18.66-.51.18-1 .43-1.46.73M591.23 269.2c.57.48.93 1.07 1.3 1.08 1.6.04 3.2-.02 4.79-.18.32-.03.59-.56.89-.86-.29-.25-.58-.69-.88-.7-1.58-.06-3.17-.04-4.76.01-.32.01-.63.29-1.34.65m-33.41 77.64c-.34.21-.65.45-.93.73-.57 2.16-.48 4.44.27 6.55.16.2.6.4.76.32.32-.15.55-.44.63-.79-.18-2.16-.45-4.32-.73-6.81m-5.62 83.8c-2.26-.63-6.35.65-6.61 2.09 1.96.68 6.01-.61 6.61-2.09m-56.46 20.92-.07-.77c-2.84.11-5.66.52-8.42 1.21 2.78.97 5.83.81 8.49-.44M538 387.14c-.35.79-.71 1.22-.7 1.64.03 1.6.14 3.19.33 4.77.05.38.55.71.84 1.06.25-.42.72-.85.7-1.27-.09-1.6-.31-3.19-.53-4.78-.16-.5-.37-.98-.64-1.43m22.57-39.47c.49-.69 1.1-1.16 1.06-1.57-.14-1.54-.38-3.07-.7-4.58-.13-.27-.39-.47-.69-.51-.27.08-.49.3-.57.57-.29 2.07.02 4.19.9 6.09m-12.75 20.41c-1.08 2.1-.93 4.62.4 6.57.14.13.96-.13.96-.22.12-2.2-.35-4.39-1.36-6.35m-2.74 81.23-.09.85c.45.23.94.71 1.34.64 1.22-.21 2.41-.53 3.58-.94.3-.1.5-.56.74-.85-.32-.24-.7-.75-.99-.7-1.54.26-3.05.65-4.58 1m10.73-198.86c.6 1.38 4.8 3.2 6.79 3.03-.21-1.2-4.6-3.2-6.79-3.03m-88.5 172.49c.96-1.3-.18-4.94-1.81-6.08-.89 1.17.05 4.43 1.81 6.08m68.42-30.76-.69.1c-.12 2.27.09 4.54.61 6.75 1.16.04 1.35-.52 1.23-1.32-.19-1.26-.35-2.53-.61-3.79-.15-.59-.33-1.17-.55-1.74m-63.53 18.91c.84 1.15 1.65 2.35 2.56 3.44.24.29.82.29 1.25.42 0-.51.18-1.15-.06-1.51-.55-.84-1.21-1.61-1.95-2.3-.42-.27-.89-.47-1.38-.59l-.43.54h.01Zm19.5 34.13c1.11 1.42 4.15 1.54 4.94.4.18-.31.25-.67.2-1.02-.14-.22-.39-.35-.65-.35-1.45.27-2.91.62-4.5.97m65.27-187.71c1.58 1.77 4.21 2.65 5.57 1.94-1.41-1.54-3.5-2.27-5.57-1.94m-89.48 157.72c-.53 2.14.94 4.89 2.77 4.97-.48-1.87-1.44-3.58-2.77-4.97m97.32-81.91h-.6c-.06 1.18-.17 2.36-.13 3.53 0 .25.5.63.82.69.33-.04.62-.26.76-.56.02-1.29.17-2.64-.85-3.66m-9.37 27.1-.31-4.76c-.24.17-.46.37-.64.6-1.04 1.29-.83 3.18.46 4.22l.49-.05Zm-10.7 16.13c-1.38 1.67-1.13 4.02.49 4.51.69-1.48.5-3.22-.49-4.52m6.38-8.21c1.26-1.21 1.32-3.21.13-4.49-.03.03-.06.05-.08.08-1.23 1.21-1.25 3.18-.04 4.41m-80.54 44.59c-.32 2.24.88 4.52 2.37 4.6-.11-1.8-.97-3.47-2.37-4.6m133.42-107.16-.36.49c-.07 1.17.74 2.22 1.89 2.45.33.11.82-.2 1.19-.4.09-.05.07-.59-.06-.69-.86-.65-1.77-1.23-2.66-1.84m-62.55 81.4c1.02-1.16.92-2.92-.23-3.96-1.05 1.45-1.02 2.45.23 3.96m19.51-124.78.15-.45c-1.08-.45-2.16-.89-3.24-1.35.64 2.06 1.63 2.5 3.09 1.8m-18.21 154c.27.56.44 1.15.58 1.15.45-.08.89-.22 1.29-.43-.15-.34-.24-.85-.48-.96-.32-.11-.76.11-1.39.23M460.16 143.8c-.68-1.54-1.53-3.13-2.11-4.8-1.85-4.56-2.08-9.61-.66-14.32 1.99-5.88 6.16-10.76 11.66-13.63 1.51-.83 3.16-1.39 4.87-1.64 3.05-.33 6.1.66 8.37 2.72 4.46 3.51 7.87 8.17 9.89 13.47.96 2.64 2.03 5.24 3.19 7.79.9 2.19 2.62 3.93 4.8 4.85.38.23.75.48 1.09.76.32.23.69.41 1.07.51 3.95.62 7.9 1.15 11.85 1.8 6.36 1.04 12.72 2.15 19.07 3.23.86.15 1.72.27 2.58.35 4.22.37 8.42 1.01 12.56 1.93 2.94.65 5.93 1.09 8.89 1.65 2.57.58 5.25-.34 6.92-2.38.65-.66 1.23-1.38 1.75-2.14 1.29-2.12 2.4-4.34 3.73-6.42 2.28-4.1 6.46-6.78 11.14-7.16 2.63-.16 5.27.14 7.8.88 6.24 1.39 10.52 7.15 10.06 13.53-.09 4.05-1.02 8.03-2.74 11.69-1.76 4.23-4.96 7.7-9.03 9.8-.25.1-.48.25-.66.45-.19.26-.47.76-.36.89.24.28.59.44.95.42.64-.13 1.26-.36 1.82-.7 2.88-1.73 5.32-4.09 7.14-6.92 3.06-4.79 4.72-10.34 4.79-16.02.21-3.1-.61-6.19-2.35-8.77-2.66-3.84-6.87-6.32-11.52-6.77-.95-.11-1.9-.2-2.85-.29-3.41-.36-6.85.4-9.8 2.17-3.35 2.12-5.99 5.2-7.59 8.83-.97 2.22-2.33 4.25-4.02 5.99-1.27 1.27-3.1 1.81-4.86 1.44-7.2-1.26-14.28-3.03-21.6-3.72-6.73-.62-13.38-2.13-20.05-3.29-4.15-.72-8.31-1.4-12.41-2.29-2.91-.37-5.43-2.22-6.67-4.88-.91-2.14-1.87-4.27-2.63-6.47-2.25-6.58-6.48-12.31-12.11-16.4-3.13-2.63-7.5-3.23-11.23-1.54-1.93.78-3.78 1.77-5.5 2.95-6.85 5.07-11.18 11.53-10.59 20.49.14 4.05 1.13 8.02 2.92 11.65.83 1.18.76 2.78-.17 3.88-6.35 8.9-4.84 21.18 3.48 28.27.54.47 1.16.84 1.82 1.11 2.08.84 4.15 1.71 6.28 2.38 2.96 1.18 6.17 1.56 9.32 1.09 7.61-1.53 14.18-6.31 17.96-13.09.88-1.52 1.71-3.08 2.57-4.61.37-.72 1.18-1.09 1.97-.89 2.36.38 4.72.7 7.07 1.13 8.25 1.52 16.48 3.15 24.74 4.59 6.41 1.12 12.86 2.02 19.29 3 .93.03 1.82.44 2.45 1.12.25.21.56.33.89.35 1.12.21 2.16.74 2.98 1.53 1.35 1.33 2.28 3.03 2.65 4.89.62 2.49 1.16 5.02 2.01 7.43 1 3.23 2.97 6.07 5.65 8.14 4.46 3.24 10.02 4.57 15.46 3.71 3.77-.65 7.24-2.46 9.93-5.18 4.45-3.72 7.37-8.94 8.22-14.67.13-1.9.13-3.81-.02-5.71 0-4.04-2.53-7.65-6.33-9.01-.6-.26-1.31-.36-1.67.31-.37.7.29.98.77 1.28.64.39 1.29.75 1.93 1.13 2.28 1.5 3.65 4.05 3.63 6.78 1.05 9.29-3.45 16.87-11.54 21.59-6.14 3.58-12.58 2.43-18.52-1.24-2.79-1.81-4.84-4.56-5.8-7.75-.96-2.82-1.65-5.73-2.46-8.61-.63-2.44-2.28-4.49-4.52-5.63-.6-.33-1.23-.62-1.87-.86-1.13-.52-2.3-.93-3.51-1.22-4.18-.7-8.39-1.21-12.57-1.91-9.16-1.52-18.31-3.09-27.45-4.72-4.21-.75-8.38-1.65-12.56-2.5-.69-.2-1.42.12-1.75.75-.58.98-1.11 1.98-1.65 2.97-1.01 2.09-2.14 4.12-3.38 6.08-3.43 4.67-8.46 7.92-14.13 9.13-1.13.26-2.3.32-3.46.19-3.43-.51-6.78-1.47-9.95-2.85-4.04-1.52-7.19-4.77-8.58-8.86-2.04-5.13-1.86-10.88.49-15.87 1.74-3.7 3.95-6.93 8.43-7.67.23-.04.5-.6.51-.93 0-.2-.4-.56-.67-.61-.45-.06-.9 0-1.32.15-1.32.51-2.63 1.09-4.18 1.75"/>
  <path fill="#666793" d="M596.78 170.36c-.13-.54-.3-1.07-.51-1.59-.16-.23-.4-.4-.67-.46-.08-.02-.41.31-.39.47.13 1.6.29 3.19.46 4.78 0 .06.13.1.43.29l.97-3.04.6 2.36.41.03c.25-.53.41-1.09.48-1.66-.05-1.42-.64-1.78-1.78-1.16m-27.1 6.82-.29-.23c-.27.15-.62.23-.79.46-.7.93-1.37 1.88-1.99 2.84-.14.25-.16.55-.06.82.26.62.64 1.19.95 1.77l.44-.04c.45-.67.91-1.32 1.33-2.02s.63-1.41-.49-1.74l.91-1.88m-83.44-10.52c-.2.96-.04 1.96.45 2.8.1.18.48.4.57.35.53-.37.61-1.39 1.61-1.12.07-.09.12-.19.14-.3.07-1.11-.41-2.18-1.28-2.87l-.25 1.89-1.25-.76m-13.8 3.62-.35.1c-.03.47.03.95.18 1.39.64 1.08 1.34 2.12 2.1 3.11.17.24.63.28.95.42.02-.38.19-.85.03-1.11-.6-.96-1.32-1.84-2-2.74-.29-.4-.6-.79-.9-1.18m117.28 1.5c.49-.5.55-1.27.14-1.84 0-.02-.02-.03-.02-.05-.28-.54-.94-.76-1.48-.48-.14.03-.29.03-.44 0l-1.08-.02c.08.42.14.84.25 1.24.08.34.22.67.36 1.09l1.13-1.1 1.13 1.16m4.36-28.71c-.92 1.92-1.15 4.1-.67 6.17.96-1.91 1.2-4.1.67-6.17m-25.61 31.57-.31-.22c-.34.25-.65.53-.92.85-.71 1.04-1.4 2.13-2.04 3.23-.14.24-.03.62-.04.94.26-.15.62-.23.78-.45.78-1.08 1.53-2.18 2.24-3.31.15-.33.25-.69.29-1.05m25.2-2.33.35.12c.22-.37.62-.73.62-1.07-.04-1.16-.16-2.32-.35-3.46-.04-.25-.36-.46-.55-.69-.2.23-.56.49-.55.71.12 1.47.31 2.93.48 4.39m-111.95 1.8c-.48-1.92-1.52-3.64-2.99-4.96 0 .33-.11.65 0 .87.6 1.23 1.22 2.46 1.91 3.64.14.24.63.27 1.08.45m-5.81-3.42-.27.26c.8 1.3 1.59 2.62 2.45 3.91.1.17.5.16.77.24.05-.27.26-.62.15-.79-.56-.9-1.18-1.77-1.85-2.6-.38-.38-.8-.72-1.25-1.02m9.94 1.21.3-.13c0-.43-.06-.86-.18-1.28-.41-.92-.87-1.82-1.37-2.69-.13-.23-.45-.34-.69-.51-.07.34-.3.73-.19.99.38.94.82 1.85 1.32 2.73.23.33.51.62.81.88m-25.73-35.79c-.02 1.51.31 3.01.96 4.38.09.24.57.35.86.52.09-.33.34-.72.24-.99-.39-1.06-.87-2.1-1.34-3.12-.21-.29-.45-.55-.72-.78m130.99 32.22c-.21.44-.5.77-.44 1 .27 1.01.59 2 .97 2.96.08.19.46.27.7.4.1-.23.32-.48.28-.67-.25-1-.55-1.99-.86-2.98-.06-.2-.3-.34-.65-.73m-54.52-7.03c-.19-.17-.4-.33-.62-.45-1.45.03-2.86.49-4.04 1.34-.1.14-.14.45-.06.53.15.17.38.26.61.25 1.32-.5 2.61-1.05 4.12-1.67m-53.37 11.45c0-1.53-1.55-3.86-2.5-3.77-.07 1.35 1.46 3.65 2.5 3.77m-23.21-31.62.48-.18c-.58-1.76-1.35-3.46-2.28-5.06-.11 1.91.54 3.8 1.8 5.24m47.83 14.96c-.55-.08-.89-.22-1.15-.14-.99.3-1.97.66-2.93 1.06-.23.1-.35.47-.51.72.31.08.67.3.92.21.98-.34 1.94-.76 2.9-1.17.28-.19.54-.41.78-.66m28.71 7.06c.53.18.93.48 1.18.38.93-.36 1.85-.78 2.73-1.25.15-.13.22-.33.19-.53-.1-.16-.27-.25-.46-.25-1.35.19-2.61.76-3.64 1.65m-15.03-4.34c-1.51-.3-3.06.24-4.04 1.42-.05.11.26.57.32.56 1.4-.32 2.68-1 3.72-1.99m-51.24 12.8-.55.1c-.06.32-.27.71-.16.95.35.72.76 1.42 1.23 2.07.12.17.44.21.66.31.09-.25.34-.58.26-.75-.44-.92-.96-1.79-1.45-2.69m126.16-28.79c-.86 1.44-1.1 3.17-.67 4.79.71-.34 1.17-3.44.67-4.79m-123.67-24.59c.99.37 3.06-.99 3.49-2.22-.9-.35-2.77.83-3.49 2.22m31.52 37.33-.18-.41c-1.44.33-2.82.87-4.11 1.59.19.73.57.75 1.05.53.75-.34 1.52-.68 2.26-1.05.34-.2.67-.42.99-.66m-23.25-36.39c-.57.74-1.17 1.45-1.69 2.22-.14.2-.03.57-.04.86.32-.1.75-.09.94-.31.43-.5.79-1.04 1.08-1.62.1-.31.14-.64.12-.97l-.41-.17Zm-17.81 18.3c-.69.94-.21 2.86.64 3.17.23.06.46.04.67-.06.11-.13.15-.3.1-.47-.44-.86-.91-1.71-1.41-2.64m129 7.32c-.82 1.13-.9 2.62-.21 3.83.71-1.16.79-2.6.21-3.83m-114.62-27.85c-1.43.05-2.88 1.46-2.61 2.62 1.08-.64 1.98-1.54 2.61-2.62m68.68 46.3-.11-.37c-.75.17-1.5.32-2.23.55-.16.05-.3.43-.29.64.09.2.27.34.49.37.81-.21 1.68-.36 2.13-1.19m-18.61-1.03 2.92-1.04c-.15-.12-.32-.23-.5-.3-.99-.41-2.13.06-2.55 1.05l.12.3h.01Zm-12.01-3.83c-1.3-.57-2.72 0-2.73 1.11 1.05.17 2.1-.26 2.73-1.11m6.28 2.53c.98.57 2.24.25 2.83-.72-.02 0-.05-.03-.07-.04-.97-.55-2.21-.21-2.76.77m-42.33-42.46c-1.46.21-2.67 1.36-2.45 2.31 1.11-.39 1.99-1.23 2.45-2.31m90.92 64.39-.37-.14c-.74.17-1.25.86-1.19 1.62 0 .22.28.48.47.68.05.04.39-.07.42-.17.25-.65.46-1.32.67-1.99m-62.09-24.62c.9.43 1.99.06 2.43-.84-1.1-.4-1.71-.2-2.43.84m81.45-10.07h.31l.25-2.26c-1.17.77-1.26 1.47-.57 2.26m-99.47 16.1c-.3.27-.64.48-.61.57.13.27.3.52.5.73.18-.16.49-.31.5-.47.02-.22-.2-.46-.39-.83"/>
  <path fill="none" stroke="#666793" stroke-linecap="round" stroke-miterlimit="10" d="M482.75 276.34c-9.16-3.69-14.12-7.6-22.06-12.56-7.68-4.8-14.56-10.49-18.54-17.75-2.13-3.44-2.27-7.75-.36-11.32 2.29-3.83 6.15-6.47 10.55-7.21 3.11-.47 6.28.28 8.85 2.11 2.06 1.65 3.77 3.68 5.05 5.98m16.66 40.47c4.03-9.01 4.72-14.97 6.99-24.05 2.19-8.79 3.19-17.67 1.01-25.65-.86-3.95-3.75-7.15-7.61-8.39-4.31-1.17-8.91-.38-12.59 2.14-2.57 1.82-4.32 4.57-4.9 7.66-.34 2.61-.16 5.26.52 7.81m227.19 10.37c-11.8-4.75-18.2-9.79-28.42-16.18-9.9-6.18-18.78-13.52-23.91-22.87-2.74-4.43-2.92-9.99-.46-14.58 2.95-4.94 7.92-8.33 13.59-9.29 4.01-.61 8.1.36 11.4 2.71 2.65 2.12 4.86 4.74 6.5 7.71m21.49 52.14c5.19-11.61 6.09-19.29 9-31 2.83-11.33 4.12-22.77 1.31-33.06-1.1-5.09-4.84-9.21-9.8-10.81-5.55-1.5-11.49-.49-16.23 2.76-3.31 2.35-5.58 5.89-6.32 9.87-.43 3.37-.2 6.78.67 10.06"/>
</svg>