<svg xmlns="http://www.w3.org/2000/svg" viewBox="0 0 861.03 687.54" width="100%" height="100%">
  <path fill="#666793" d="M28.69 423.87c-30.65 16.96-31.21 53.56-26.54 80.7 9.49 51.76 32.88 102.15 72.22 140.41 20.15 19.61 45.82 36.08 75.94 41.04 8.83 1.44 17.82 1.78 26.65 1.33 6.95-.3 14.04-.76 20.68-2.79h.15c.79-.15 1.1-.94.8-1.57-.15-.79-.94-1.1-1.57-.8-5.68 1.41-11.52 2.34-17.36 2.48-8.37.45-16.72.28-25.08-.69C65.01 670.83 7.54 559.32 2.83 484.69c-1.05-21.62 4.69-48.11 28.22-59.56 21.79-10.2 47.04-13.29 70.54-10.71 19.4 2.26 37.52 9.4 53.43 18.9-14.24 16.37-4.83 38.47 6.02 53.02 20.6 26.55 45.09 10.67 33.64-17.58-7.22-15.01-21.08-26.4-35.41-35.9 17.7-15.73 53.33-4.76 75.73-5.97 21.14.21 41.82-8.57 57.16-21.78 24.81-20.44 28.2-53.41 17.07-79.31-6.74-16.11-17.91-31.43-34.6-40.31 11.58-29.63 8.99-62.92 27.19-90.8 25.96-37 79.59-36.25 113.76-13.29-18.33 12.11-31.93 30.36-34.2 50.55-2.74 23.18 5.23 52.86 25.71 67.26 9.6 6.8 22.7 5.11 30.14-4.03 6.97-8.5 9.04-19.38 9.06-29.47 5.34 6.32 11.48 13.12 20.47 15.19 13.09 2.24 14.85-11.17 11.56-19.22-11.91-30-29.35-60.65-57.69-80.91 54.66-34.41 111.25-17.71 142.37 29.37 14.46 22.28 19.76 49.58 39.74 68.87 10.86 10.59 26.13 19.62 43.34 17.77 21.78-2.63 39.8-19.31 46.47-37.75 14.65 6.51 32.01 6.7 47.95 2.16 9.94-2.34 19.57-6.1 29.68-7.5 18.31-2 36.75 1.98 52.66 11.17 22.68 13.15 45.8 42.55 30.28 67.75-4.09-5.37-10.39-9.02-17.17-9.66-7.25-.96-18.14 1.06-19.42 8.94-.81 8.04 8.17 13.12 16.06 13.92 7.57.65 15.15-2.48 20.22-8.32 6.27 13.11 3.56 28.25.22 42.12-3.19 12.14-6.37 24.44-12.07 35.94-.63 1.1-1.27 2.21-1.9 3.15-.95 1.42 1.57 2.69 2.52 1.11 6.97-11.19 9.68-23.96 13.34-36.09 4.14-15.93 7.81-33.58-.2-48.43 20.1-29.77-11.67-66.13-41.3-77.56-14.81-5.87-32.01-8.6-48.41-5.32-26.2 6.24-45.32 16.13-71.62 4.56 3.34-10.4 3.84-22.23-2.44-31.39-3.93-6.01-11.8-11.23-20.17-9.36-8.68 2.19-9.49 11.65-6.67 17.65 4.71 10.74 14.78 18.97 25.82 24.35-6.04 16.39-19.15 28.98-35.58 34.61-32.52 10.01-56.9-18.75-68.2-41.49-4.56-9.16-8.32-18.8-12.86-28.11-5.03-10.1-11.31-19.58-18.86-28.12-34.77-39.04-88.06-46.27-136.26-15.47-21.42-14.09-50.27-21.26-77.26-14.38-62.04 17.51-52.39 75.12-68.59 118.93-11.03-5.23-24.27-8.58-37.22-6.24-13.73 2.33-24.49 14.46-18.84 26.46 5.02 11.69 21.89 15.52 34.37 9.7 11.52-5.33 18.81-15.89 23.25-26.29 15.44 8.4 25.65 22.62 32.24 37.46 11.45 25.43 8.7 57.76-15.81 78.05-14.55 12.59-33.8 20.89-53.68 21.01-24.29 1.36-60.08-10.4-79.52 7.06-17.17-10.3-36.87-17.92-58.01-19.7-23.5-1.95-49.07 1.3-70.39 12.13m206.81-142.57c12.46-2.34 25.08 1.01 35.8 6.24-3.81 9.61-10.3 19.22-20.41 24.56-9.16 4.86-21.78 4.05-28.54-2.75-10.7-10.91-2.3-25.41 13.16-28.04m593.64 45.29c8.99-1.08 17.98 2.73 22.22 9.67-17.41 21.41-47.94-5.17-22.22-9.67m-141.26-99.72c6.45 8.69 6.1 19.89 2.92 29.82-10.08-5.08-19.37-12.82-23.93-22.62-2.2-4.89-2.34-12.63 4.61-14.51 6.78-1.4 12.93 2.72 16.39 7.29m-253.68 10.43c5.99 3.65 7.54 13.74 8.79 20.05-3.62-5.53-10.53-13.28-8.79-20.05m-48.48 21.5c-6.87-29.36 4.08-56.78 32.36-75.17 24.72 16.47 39.97 41.27 52.05 66.23 2.82 6.16 6.12 12.47 6.9 19.27.92 10.26-7.45 12.61-15.63 7.21-6.3-3.96-10.71-9.34-15.11-14.71-.31-4.11-.93-8.2-2.02-12.16-5.15-21.63-20.93-18.19-9 1.55 1.73 3 3.77 5.69 5.81 8.53.79 1.42 2.51 2.53 2.36 4.26 1.07 14.52-5.63 41.63-27.54 37-17.65-5.4-26.59-26.72-30.19-42.04M163.55 485.65c-9.75-13.12-18.85-33.02-7.77-48.29.47-.63 1.1-1.26 1.58-1.89 13.38 8.7 26.3 19.15 33.68 32.73 12.24 24.96-7.05 43.05-27.49 17.44"/>
  <path d="M684.79 587.05c-.32-13.38.32-26.75 1.59-40.13 4.78-37.26 66.88-52.39 66.88-52.39-2.71 7.96-6.69 22.29-10.51 38.54-3.82 16.56-7.64 35.03-10.19 51.28-2.87 18.63-4.14 34.08-1.91 39.97 6.05 16.08 31.85 32.17 35.03 42.68 1.59 5.41-2.39 8.76-9.4 10.35-.48 0-1.11.16-1.75.32-5.1.96-10.19 1.27-15.29 1.11h-1.91c-17.83-.32-38.06-4.46-42.04-7.48-4.14-3.34-7.8-28.03-9.55-56.05-.48-9.24-.8-18.95-.96-28.19" class="cls-9"/>
  <path fill="#707070" d="M685.9 615.23c-1.59-24.2-1.59-50.96.48-68.15 4.78-37.26 66.88-52.39 66.88-52.39-5.57 15.92-15.61 57.33-20.7 89.65-10.03 20.54-23.41 44.91-29.3 43.47-9.87-2.55 2.07-45.7 2.39-46.98-.32.96-10.35 22.61-19.75 34.4" opacity=".54"/>
  <path d="M415.36 430.2c-3.82-7.17-39.33 36.47-39.33 36.47s2.71-41.24-7.8-40.45c-10.51.8-13.54 51.12-13.54 51.12s-6.85-38.06-15.61-34.24c-8.76 3.82-3.18 35.51-3.18 35.51s-17.52-25-28.03-11.94 10.35 41.08 10.35 41.08-24.36-19.59-29.94-5.25c-5.57 14.33 24.36 30.26 24.36 30.26s-40.92-9.4-44.27 1.59 44.75 18.15 44.75 18.15-43.47 1.59-42.2 17.83 61.31-4.46 61.31-4.46-58.92 34.08-51.75 43.31 59.24-9.24 59.24-9.24-43.31 25.96-37.1 32.17c6.21 6.21 54.14-12.9 54.14-12.9s-32.64 14.01-26.91 25.8c5.73 11.78 56.21-5.73 56.21-5.73s67.84 9.08 16.72-40.61 24.2-146.82 12.58-168.48" class="cls-9"/>
  <path fill="#636363" d="M359.46 647.72c-6.53-10.99 45.06-62.42 45.86-63.38-.64.48-29.46 19.27-32.33 2.39-2.87-17.04 49.05-73.57 49.05-73.57s-29.3 18.79-33.44 5.89c-4.14-12.74 49.36-67.68 50.16-68.47-.48.32-23.73 12.26-26.12 1.91-2.39-10.51 19.43-26.75 47.77-65.93 2.55-4.62 4.94-8.6 6.69-11.47s2.71-4.62 2.87-4.78c-.48.48-15.61 12.58-21.18 1.59s36.94-57.8 37.74-58.6c-.48.32-15.61 10.51-17.68-6.21-.48-4.62 9.08-14.97 23.57-27.87 14.33-12.9 33.6-28.19 52.07-42.2 10.35-7.96 20.7-15.61 29.62-22.13.16-.16.48-.48.8-.64 5.89-4.3 11.15-8.12 15.61-11.31 8.92-6.53 14.65-10.51 14.65-10.51l70.07 19.75 113.7 14.49c-3.5 12.42.16 28.03 5.1 42.68 7.01 21.02 16.72 39.97 11.78 44.75-5.25 5.1-12.58-4.94-17.2-13.06 10.19 20.22 33.76 68.15 29.14 76.28-5.57 9.87-18.31-18.15-19.43-20.54 1.43 3.82 25.48 73.73 16.4 79.94-9.08 6.21-13.06-33.92-13.22-35.99.16 3.18 4.94 95.54-3.03 96.18-8.12.48-9.08-34.71-9.08-34.71s-5.25 74.36-14.17 76.59c-8.6 2.23-6.69-21.5-6.53-22.45-.32 1.43-10.19 42.68-21.5 43.47-11.15.8-2.55-30.57-2.23-31.85-.16.16-.96 2.07-2.23 4.94-7.32 16.4-31.05 67.52-39.49 65.29-9.87-2.55 2.07-45.7 2.39-46.98-.48.96-11.15 24.2-20.86 35.67-3.98 4.78-7.8 7.48-10.67 6.05-9.87-4.78-3.18-35.67-2.71-37.42-.96 2.23-22.61 53.19-28.19 53.66-5.57.48-1.75-21.18-1.59-21.97-.16.48-3.18 6.21-6.69 13.85-6.05 13.38-13.69 32.8-10.03 39.81 5.73 11.15 24.52 31.05 20.22 40.45-.8 1.59-2.87 2.87-5.89 3.82-.48.16-1.11.32-1.75.48-5.41 1.11-10.99 1.75-16.56 1.75h-1.75c-16.24 0-34.08-3.18-35.03-9.08-1.59-10.51-15.13-50.64-15.13-50.64s5.41 43.15-5.1 43.95c-10.51.8-14.65-33.44-14.65-33.44s-8.12 35.19-15.45 35.67c-7.32.48-12.58-37.74-12.58-37.74s-3.82 38.06-11.31 36.94-13.54-40.92-13.54-40.92-3.66 39.81-13.54 40.45c-9.87.64-10.99-38.7-10.99-38.7s-10.83 33.44-18.95 34.08c-8.12.64-1.91-27.71-1.91-27.71s-26.59 30.57-32.48 27.71c-5.89-2.71 9.08-36.63 9.55-37.58-.48.8-20.06 31.69-27.71 26.59-5.57-3.66 2.39-25.32 7.33-37.26-19.27 15.92-44.27 34.71-48.25 28.03"/>
  <path fill="#636363" d="M808.84 89.11c-37.58-43.31-79.94 55.1-72.93 61.94 7.01 6.85 14.65-12.58 14.65-12.58s-24.2 84.72-14.17 88.06 11.62-20.54 11.62-20.54-15.45 69.91-5.41 72.61c10.03 2.71 12.58-31.21 12.58-31.21s-.32 62.26 13.22 68.79 24.84-65.77 24.84-65.77 2.07 40.92 19.43 42.2c17.36 1.27-5.73-79.62-5.73-79.62s10.51 43.15 21.18 42.36-8.6-85.67-8.6-85.67 7.33 33.92 18.95 34.71-9.4-92.2-29.62-115.29"/>
  <path fill="#dbcac0" d="M635.11 601.06c-1.91-32.48 26.91-66.72 39.49-79.78-7.17 6.53-19.11 15.92-24.52 9.55-5.57-6.37 12.74-42.04 24.52-63.38-2.23 2.07-5.1 3.34-8.12 3.82-12.9 1.75 22.13-65.61 23.09-67.36-.96.96-25.16 26.12-17.2 1.27 7.96-25.32 4.78-81.69 4.78-81.69s-2.55 45.38-13.85 47.77c-8.76 1.91-6.53-47.61.64-88.22 1.91-11.31 4.62-22.29 7.96-33.12l3.66-37.74 113.7 14.49c-3.5 12.42.16 28.03 5.1 42.68 7.01 21.02 16.72 39.97 11.78 44.75-5.25 5.1-12.58-4.94-17.2-13.06 10.19 20.22 33.76 68.15 29.14 76.28-5.73 9.87-18.79-18.95-19.59-20.7 1.11 3.03 25.64 73.89 16.4 80.1-9.08 6.21-13.06-33.92-13.22-35.99.16 3.18 4.94 95.54-3.03 96.18-8.12.48-9.08-34.71-9.08-34.71s-5.25 74.36-14.17 76.59c-8.6 2.23-6.69-21.5-6.53-22.45-.32 1.43-10.19 42.68-21.5 43.47-11.15.8-2.55-30.57-2.23-31.85-.8 1.91-31.85 72.77-41.72 70.22-9.87-2.55 2.07-45.7 2.39-46.98-.64 1.43-21.5 46.66-31.53 41.72-9.87-4.78-3.18-35.67-2.71-37.42-.96 2.23-22.61 53.19-28.19 53.66-5.57.48-1.75-21.18-1.59-21.97-.16.48-3.18 6.21-6.69 13.85"/>
  <path fill="#707070" d="M544.66 237.2c31.53-24.05 60.83-44.75 60.83-44.43l70.07 19.75 113.7 14.49c-3.5 12.42.16 28.03 5.1 42.68-.48 1.11-1.59 1.91-2.71 2.07-6.53.48-6.53-22.45-6.53-22.45s-10.51 36.78-22.29 33.6c-11.62-3.18-3.03-35.51-2.71-36.78-.48 1.43-15.29 40.45-28.34 39.01-12.74-1.43 5.1-44.11 6.37-47.13-1.43 3.18-22.45 48.09-36.94 44.43-14.65-3.82-11.31-29.3-11.15-30.41-.48 1.43-13.54 43.63-21.98 37.74-2.07-1.75-3.5-3.98-4.3-6.53-6.05-14.49-9.4-46.02-9.4-46.02s-11.62 44.43-21.34 45.06-5.57-43.95-5.57-43.95-15.13 40.61-22.45 41.08-5.41-53.03-5.41-53.03-31.53 40.77-39.65 31.53c-5.89-6.37-10.99-13.22-15.29-20.7" opacity=".54"/>
  <path fill="#dbcac0" d="M548.32 73.98s-27.55 42.2-20.86 87.74c6.69 45.54 24.52 64.65 32.48 74.05 7.96 9.4 39.81-31.69 39.81-31.69s-1.91 53.66 5.41 53.03c7.33-.64 22.45-41.08 22.45-41.08s-4.14 44.59 5.57 43.95 21.34-45.06 21.34-45.06 4.94 46.5 13.54 52.39 21.98-37.74 21.98-37.74-3.98 26.59 11.15 30.41 37.1-44.59 37.1-44.59-19.75 45.7-6.53 47.29c13.22 1.43 28.34-39.01 28.34-39.01s-9.08 33.44 2.71 36.78c11.78 3.34 22.29-33.6 22.29-33.6s0 22.93 6.53 22.45 7.64-30.1 7.64-30.1.8 45.86 9.87 23.09c9.08-22.77-14.33-50.64-14.33-50.64l1.91-18.95c9.71-2.23-2.39-34.24-2.39-34.24s11.94 27.87 20.7 24.84-31.21-68.31-31.21-68.31 16.72 3.03 18.95-11.15c2.39-14.17-61.47-33.44-61.47-33.44s29.3 7.64 40.61-5.41-86.47-14.33-86.47-14.33 32.64-13.85 25.32-24.84c-7.33-10.99-67.68 18.79-67.68 18.79S671.71 8.53 662.95.88c-8.76-7.65-60.51 37.1-60.51 37.1s15.61-23.25 10.03-31.85c-5.57-8.6-48.09 29.78-64.17 67.84"/>
  <path fill="#707070" d="M575.23 214.27c5.73-4.14 11.15-8.12 15.61-11.31 3.34 18.63 3.82 32.64-.64 32.33-6.53-.48-11.62-11.47-14.97-21.02m-78.02 36.46c1.43-7.8 2.71-13.38 2.87-13.85-.32 4.78-1.27 9.4-2.87 13.85"/>
  <path fill="#707070" d="M494.5 309.49c-4.3-1.11-3.98-14.97-1.75-30.1 14.33-12.9 33.6-28.19 52.07-42.2 10.35-7.96 20.7-15.61 29.62-22.13 4.94 24.2 13.38 70.54 5.57 71.18-7.96.64-15.76-22.93-19.27-35.19 5.1 19.75 17.99 73.41 3.82 72.45-17.36-1.27-19.43-42.2-19.43-42.2s-11.15 72.14-24.84 65.77c-13.69-6.37-13.22-68.79-13.22-68.79s-2.55 33.76-12.58 31.21" opacity=".54"/>
  <path fill="#1a1a1a" d="M795.78 188.79c.64 0 1.27.16 1.75.96 1.11.96 1.11 2.71 0 3.82l-9.71 15.61-.16.16c-1.11.96-2.87.8-3.82-.32l-19.75-16.56c-.48-.48-.64-1.27-.64-1.91 0-1.59 1.27-2.71 2.87-2.71l29.46.96"/>
  <path fill="#707070" d="M560.58 96.11c-37.58-43.31-79.94 55.1-72.93 61.94s14.65-12.58 14.65-12.58-24.2 84.72-14.17 88.06 11.62-20.54 11.62-20.54-15.45 69.91-5.41 72.61 12.58-31.21 12.58-31.21-.32 62.26 13.22 68.79 24.84-65.77 24.84-65.77 2.07 40.92 19.43 42.2c17.36 1.27-5.73-79.62-5.73-79.62s10.51 43.15 21.18 42.36-8.6-85.67-8.6-85.67 7.33 33.92 18.95 34.71-9.55-92.04-29.62-115.29"/>
  <path fill="#c2b3aa" d="M690.84 158.22c-.16-1.11-2.07-1.11-2.07-.16.32 5.25 1.43 10.35 3.18 15.29 1.43 3.66 3.98 8.12 7.96 9.55 3.82 1.43 6.05-.96 6.53-4.62.32-3.18.64-6.53.64-9.71 2.07 5.57 6.05 9.87 11.31 12.42 4.14 1.75 5.57-1.43 6.05-5.1.48-3.66.8-7.33.96-10.99 1.59 5.73 5.25 14.81 11.15 13.54 3.18-.64 3.5-4.62 3.98-7.17s.8-5.1 1.11-7.64c.8 2.39 1.75 4.62 3.03 6.85 2.07 3.5 4.94 7.8 8.92 8.92 4.3 1.11 5.57-2.07 6.21-5.57.8-4.62 1.43-9.4 2.23-14.01 2.87 7.64 2.23 22.29 13.22 22.29 3.66.16 6.85-2.71 7.01-6.37.48-4.14.64-8.44.48-12.74 2.55 5.73 7.64 10.19 13.85 11.78.32 0 .8-.16.96-.64.16-.48 0-.96-.48-1.11-7.96-2.07-13.85-9.24-14.33-17.52 0-.48-.32-.8-.8-.8-.48-.16-.96.32-.96.8l-.32 15.76c0 2.39.48 5.73-1.43 7.64-1.59 1.27-3.82 1.75-5.89 1.11-4.46-1.27-6.21-6.53-7.01-10.51-.8-4.14-1.27-8.12-3.18-11.94-.16-.32-.32-.48-.64-.48l.32-1.59c.16-1.11-1.59-1.59-1.75-.48l-1.91 12.58c-.32 2.23-.64 4.3-.96 6.37-.16.64-.16 1.43-.48 2.07-1.27 2.39-3.18 1.75-4.78.96-3.18-1.75-5.57-5.57-7.17-8.76-1.75-3.66-3.03-7.64-3.34-11.78 0-.48-.32-.8-.8-.8-.48-.16-.96.32-.96.8-.16 3.34-.32 6.69-.8 10.03-.48 2.87-.64 7.48-2.71 9.4-4.78 4.3-9.71-11.47-10.35-14.49v-.16c-.16-.48-.48-.64-.96-.48 0-1.27-.16-2.39-.16-3.66 0-1.11-1.75-1.11-1.75 0 .32 4.46.16 8.76-.16 13.22 0 2.55-.32 4.94-.96 7.33-1.43 3.34-3.82 1.43-5.73.16-5.73-4.14-9.24-10.51-9.71-17.36v-1.75c0-.48-.48-.96-.96-.96s-.96.48-.96.96v1.59c.16 3.82.16 7.8 0 11.62-.16 2.23-.16 4.3-.48 6.37 0 .32 0 .48-.16.8-.64 1.75-2.71 2.55-4.46 1.91-.8-.32-1.59-.96-2.23-1.59-5.41-5.41-6.53-13.85-7.33-21.18M641.95 48.18c-1.27.16-.8 1.91.48 1.75 7.64-1.27 15.45-1.59 23.09-.64 3.66.48 10.51 2.07 6.69 7.17-2.87 3.82-8.12 2.23-11.94 1.11-.32 0-.8.16-.96.64-.32.48 0 .96.48 1.11 4.3 1.27 9.87 2.71 13.38-.96 2.07-2.23 2.87-5.73.64-8.12-3.03-3.18-9.55-3.03-13.54-3.18-6.21-.32-12.26.16-18.31 1.11m17.83 55.43c-.96-.64-1.75.96-1.11 1.43 5.1 3.34 10.03 7.33 15.29 10.19 2.71 1.43 6.69 2.71 8.92-.32 2.23-2.87.96-7.33-.16-10.35-.8-2.71-2.23-5.1-3.82-7.48 1.75.96 3.5 1.91 5.41 2.71 2.55 1.11 6.05 3.03 8.92 3.03 4.94 0 .64-7.17-.32-8.92-5.73-9.87-15.61-16.72-26.91-18.63-1.11-.16-1.59 1.59-.48 1.75 9.08 1.59 17.2 6.37 22.93 13.54 1.43 1.75 2.71 3.82 3.82 5.89.64.96 1.11 1.91 1.43 3.03-.16 2.55-2.71.96-4.14.48-5.1-1.75-10.03-3.98-14.49-7.01-.96-.64-1.75.8-1.11 1.43 2.71 2.71 4.94 5.73 6.37 9.24 1.27 3.03 3.66 8.6.32 11.15-2.87 2.07-8.92-3.03-11.15-4.62l-9.71-6.53m-33.45 23.71c-.48-.32-.96-.32-1.27 0-.32.32-.32.96 0 1.27 4.62 4.62 9.08 9.24 13.85 13.85 1.91 1.75 5.25 3.34 6.05-.32 1.11-4.46-.8-10.19-2.55-14.17-2.39-4.94-5.25-9.71-8.6-14.17-.64-.96-2.23 0-1.59.96 4.78 6.85 10.03 14.17 10.99 22.61.16 1.75.32 6.85-2.55 4.3-1.59-1.43-3.03-3.03-4.62-4.62l-9.71-9.71m-41.56-64.65c-1.11.16-.64 1.91.32 1.75 3.82-.64 7.64-.96 11.47-1.11 3.34-.16 7.17-.32 10.35.96 1.75.64 3.03 1.75 3.98 3.34.8 1.75-.8 3.66-2.23 4.3-.96.32-2.07.48-3.03.64l-10.67 2.39c-1.11.32-.64 2.07.48 1.75l9.55-2.07c2.07-.48 4.94-.48 6.85-1.75 2.55-1.75 1.43-5.41-.16-7.33-2.71-3.5-7.01-4.14-11.15-4.14-5.25 0-10.51.48-15.76 1.27m-4.14 47.78c-1.11 0-1.11 1.75 0 1.91 5.25.16 11.62.64 16.72-1.11 3.18-.96 5.25-3.98 5.25-7.17.32-10.35-12.58-12.26-19.59-15.76-1.11-.48-2.07 1.11-.96 1.59 6.05 3.03 16.72 4.3 18.47 12.1 2.39 10.19-13.69 8.76-19.9 8.44m120.39-13.54c-1.11-.32-1.59 1.43-.64 1.91 6.05 1.43 12.26 1.91 18.47 1.27 3.82-.32 7.96-1.27 10.51-4.14 4.62-5.25-1.27-10.67-7.01-14.01 3.34.48 6.69.48 10.03 0 3.03-.32 5.41-3.03 5.1-6.05 0-3.98-3.18-6.53-6.37-8.12-3.34-1.75-6.69-3.03-10.19-4.14.96 0 2.07 0 3.18-.16 2.39-.16 5.41 0 7.64-.96 3.03-1.27 2.23-4.62.48-6.53-6.05-7.01-17.52-6.53-25.8-6.05-1.11 0-1.11 1.75 0 1.75 6.69-.32 13.85-.64 20.06 2.39 1.91.8 3.5 2.07 4.78 3.66.64 1.11.32 2.55-.8 3.18-1.27.32-2.71.48-3.98.48-3.82.32-7.8.48-11.62.48-.32 0-.64.32-.8.64-.16.48.16.96.64 1.11 3.66.96 7.33 2.07 10.83 3.5s7.96 3.03 9.71 6.53c1.11 1.75.64 4.14-.96 5.41-1.75 1.27-4.14 1.11-6.21 1.11-3.98 0-8.12-.48-11.94-1.43-.32 0-.8.16-.96.64s0 .96.48 1.11c5.41 1.91 20.06 10.99 9.55 16.08-7.01 3.34-16.88 2.07-24.2.32m40.31 18.17c-.8-.8-2.07.48-1.43 1.27 4.3 5.25 11.31 10.83 18.47 11.47 1.91.16 4.14-.32 4.62-2.39.32-1.91-.8-3.98-1.43-5.57l-1.91-5.25c1.75.8 3.5 1.59 5.25 2.23 2.07.96 4.46 1.59 6.85 1.75 3.82-.16 2.39-4.94 1.43-7.17-3.82-8.92-12.42-14.49-20.38-19.43-1.11-.64-1.91.96-.96 1.59 6.21 3.82 12.58 7.8 16.88 13.69.96 1.43 1.91 2.87 2.55 4.3.48.8.8 1.75 1.11 2.71.48 2.07-.96 2.39-2.55 2.23-3.82-.32-7.96-2.71-11.31-4.46-.64-.48-1.59.16-1.27.96 1.11 3.03 2.23 6.05 3.34 9.08.64 1.91.96 3.66-1.75 3.98-1.43-.16-2.71-.48-3.98-1.11-5.25-2.07-10.03-5.41-13.54-9.87m-115.92 56.52c-.48-1.11-2.23-.64-1.91.32 1.75 4.62 4.14 9.08 7.17 13.22 1.75 2.39 4.3 6.37 7.64 6.05 3.5-.16 3.03-4.78 3.03-7.17 0-5.41-.8-10.67-2.39-15.76-.16-.48-.48-.64-.96-.64-.48.16-.96.64-.8 1.11 1.11 3.66 1.91 7.48 2.23 11.31.16 1.91 1.11 11.15-2.87 8.76-2.87-1.59-4.78-5.25-6.53-7.96-1.91-2.87-3.34-6.05-4.62-9.24m102.56 159.08c-.64-.96-2.23 0-1.59.64 3.34 4.78 6.69 9.4 10.03 14.01 1.75 2.23 4.14 4.94 7.33 3.66 3.5-1.43 1.75-6.53 1.27-9.4l-2.55-17.36c-.16-1.11-1.91-.64-1.75.48.64 3.98 1.11 7.8 1.75 11.62l.8 5.25c.16 1.59 1.11 4.3.8 5.89-1.27 5.57-5.73-.64-6.69-1.91s-2.07-2.71-3.03-4.14l-6.37-8.76m14.02 61.33c-.32-1.11-2.07-.64-1.75.32l4.78 14.49c.96 3.34 1.75 7.64 4.3 10.19 1.75 1.91 4.46 2.55 6.85 1.27 1.27-.8 2.07-2.23 2.39-3.66 1.27 1.43 3.34 1.91 5.25 1.27 3.18-1.11 3.18-4.3 3.18-7.33 1.11 2.07 2.71 3.82 4.78 5.1 2.23 1.27 3.82.32 4.3-2.07.32-2.23.32-4.46 0-6.69 0-2.71-.16-5.41-.48-8.12-.48-4.78-1.27-9.4-2.23-14.01-.16-1.11-1.91-.64-1.75.48 1.27 6.21 2.23 12.42 2.55 18.79 0 1.43.16 2.71.16 4.14 0 .8.48 3.98 0 4.62-2.55 3.66-6.53-4.62-7.17-6.21-.32-.8-1.59-.96-1.75 0-.32 2.07.16 4.3-.16 6.37-.32 1.91-1.27 3.82-3.5 3.34-1.43-.16-2.55-1.27-2.71-2.71-.16-1.11-1.59-.64-1.75.32-.16 1.43-.48 2.71-1.11 3.98-1.59 2.23-4.14 1.59-5.57 0-1.91-2.07-2.71-5.57-3.5-8.28l-5.1-15.61m-3.2 72.94c0-1.11-1.91-1.11-1.91 0 .48 6.05 2.07 12.1 4.78 17.52.16.16.16.32.32.32.48.32.96.16 1.27-.32 3.98-6.69 5.41-14.65 4.14-22.29-.16-1.11-1.91-.64-1.75.48 1.11 6.53.16 13.38-3.03 19.27-2.23-4.62-3.5-9.71-3.82-14.97m-44.27 8.27c-.16 4.3.16 8.6.96 13.06.64 2.87 1.11 7.8 3.66 9.87 3.66 2.87 6.53-2.39 8.28-7.01.32 2.71 1.27 5.25 2.55 7.48.16.16.16.32.32.32.48.32.96.16 1.27-.32 4.14-5.73 6.53-12.58 6.85-19.59.16-1.11-1.75-1.11-1.75 0-.32 6.21-2.23 12.26-5.73 17.36-1.59-3.34-2.23-7.01-1.75-10.67.16-1.11-1.43-1.27-1.75-.32-.96 2.87-2.07 5.57-3.34 8.28-.96 1.91-3.5 3.98-4.78.96-.32-1.11-.64-2.07-.96-3.18-1.43-5.25-2.07-10.83-1.91-16.24 0-.48-.48-.96-.96-.96s-.96.48-.96.96m71.02-33.12c-.32 7.01 2.23 13.54 7.01 18.15l.16.16c.48.32.96.16 1.27-.32 2.55-4.62 4.3-9.55 5.1-14.65 1.43 4.14 3.34 8.28 5.41 12.1 0 .32.32.48.48.48.48.16.96-.16 1.11-.64 1.11-6.05 1.27-12.1.8-18.15 0-1.11-1.91-1.11-1.75 0 .48 4.94.32 10.03-.32 14.97-2.23-4.3-3.98-8.6-5.25-13.22 0-.32-.48-.64-.8-.64-.48 0-.96.48-.96.96-.32 5.89-2.07 11.62-4.78 16.88-3.98-4.3-6.05-10.19-5.73-16.08.16-1.11-1.75-1.11-1.75 0m-5.09-139.02c-.48-1.11-2.23-.64-1.75.32 2.07 6.21 4.94 11.94 8.6 17.2 1.75 2.71 5.25 8.28 9.4 6.53 4.14-1.75 2.39-8.6 1.91-11.78-.96-6.53-2.71-13.06-5.25-19.27-.48-1.11-2.23-.64-1.75.48 1.59 4.14 3.03 8.44 3.98 12.74 1.27 4.3 1.91 8.92 1.91 13.38.16 1.27-.48 1.91-2.07 1.75-.16.16-.32.16-.48.32-.96.48-2.23.16-2.71-.8-.8-.8-1.75-1.75-2.39-2.87-1.27-1.75-2.39-3.5-3.5-5.41-2.39-3.98-4.3-8.28-5.89-12.58"/>
  <path fill="#4a4a4a" d="M585.42 370.32c-.8 6.21-.8 18.63 6.85 21.34 2.87.96 5.1-.96 6.53-3.34s2.71-4.78 3.98-7.17c0 1.43 0 2.87.32 4.3.64 3.34 2.39 7.64 5.25 9.55 3.03 1.91 5.25-.64 6.69-3.18 3.03-5.73 5.89-11.62 8.76-17.36.48-1.11-1.11-2.07-1.59-.96l-5.41 10.83-2.55 4.94c-.32.8-.8 1.59-1.27 2.39-1.11 1.11-2.55 1.59-4.14 1.43-1.27-.48-2.39-3.03-2.87-4.14-2.07-4.62-2.07-10.03.32-14.49.48-1.11-.96-1.91-1.59-.96l-5.25 9.55c-1.43 2.55-3.5 8.44-7.33 6.53-3.03-1.59-3.98-5.57-4.62-8.6-.64-3.5-.8-7.17-.32-10.67.16-1.11-1.59-1.11-1.75 0m-87.27 59.89c-2.55 3.34-3.66 7.48-3.18 11.62.16 2.87 1.11 7.01 3.82 8.6 3.18 1.75 5.73-1.91 7.48-3.98 3.34-3.82 6.21-7.96 8.76-12.42.16-.32 0-.8-.32-1.11-.48-.16-.96-.16-1.27.32-1.59 2.87-3.34 5.57-5.25 8.12-1.75 2.23-4.14 6.53-7.17 7.33-1.75.48-2.23-.32-3.03-1.91-.32-.8-.64-1.59-.8-2.39-.48-1.59-.64-3.18-.48-4.78.16-3.03 1.27-5.89 3.03-8.44.64-.96-.96-1.91-1.59-.96m39.97 51.91c-2.71 4.3-12.74 21.97-3.03 24.36 4.62 1.27 9.4-4.14 12.26-7.01 4.14-4.3 7.96-9.08 10.99-14.17.16-.32 0-.8-.32-1.11-.48-.16-.96-.16-1.27.32-2.23 3.82-4.78 7.48-7.8 10.83-2.71 3.03-6.05 6.85-9.71 8.76-3.18 1.75-6.05.16-6.21-3.5 0-1.91.48-3.82 1.11-5.57 1.27-4.14 3.18-8.28 5.57-11.94.64-.96-.96-1.91-1.59-.96m38.85 78.34c0-.64-.48-.96-.8-.96-.48 0-.96.48-.96.96.16 3.03 1.27 25.16 7.96 21.66 1.27-.64 1.59-2.23 1.91-3.5.96-3.03 1.59-6.05 2.07-9.08.96-5.41 1.27-10.99 1.11-16.4 0-.48-.48-.96-.96-.96s-.96.48-.96.96c.32 7.8-.64 15.61-2.55 23.25-.16.64-.32 2.55-.8 2.87l-2.55.32c-.32-.64-.64-1.27-.8-1.91-.48-1.59-.96-3.18-1.27-4.94-.96-4.14-1.43-8.12-1.43-12.26m21.85-28.2c0 4.46.16 10.19 5.1 12.26 1.59.64 3.66.48 5.25-.48.8-.48 1.27-1.11 1.59-1.91-.16 3.82.16 7.64.8 11.31.48 2.87 2.07 6.21 5.41 6.37 4.14.32 7.17-4.62 9.08-7.64 2.71-4.46 4.62-9.4 5.25-14.49.16-1.11-1.59-1.59-1.75-.48-.48 3.98-1.75 7.8-3.5 11.47-1.43 3.03-3.82 7.48-6.85 8.92-7.96 3.82-6.53-16.88-6.37-20.54 0-.32-.16-.64-.48-.8-.48-.32-.96-.16-1.27.32-.8 1.27-.96 2.87-1.75 4.3-.16.16-.16.32-.32.48-1.11 1.75-3.34 2.23-5.1 1.11-3.5-1.91-3.34-6.69-3.18-10.19 0-.48-.48-.96-.96-.96s-.96.48-.96.96m-119.1 28.18c-.64 4.94-.16 9.87 1.27 14.97.64 2.23 1.43 4.3 2.55 6.37.8 1.43 1.59 3.5 3.18 4.3 3.03 1.59 6.85-2.23 8.6-4.3s3.34-4.46 4.46-7.01c0 4.78.48 9.55 1.43 14.17 0 0 0 .16.16.32.32.32.96.32 1.27 0 5.1-6.37 7.96-14.17 8.12-22.29 0-.48-.32-.8-.8-.8-.48-.16-.96.32-.96.8-.32 7.01-2.55 13.69-6.53 19.43-.96-5.41-1.27-10.83-.8-16.24 0-.32-.16-.64-.48-.8-.48-.32-.96-.16-1.27.32-1.59 3.5-9.08 19.43-14.01 12.74-4.46-6.05-5.25-14.97-4.46-21.97.16-1.11-1.59-1.11-1.75 0m-11.61-68.49c-.48 2.87-1.59 8.92 1.75 10.83 2.71 1.75 5.25-1.27 6.69-3.18 2.87-3.98 5.25-8.6 6.85-13.38.32-1.11-1.43-1.59-1.75-.48-1.11 3.18-2.55 6.37-4.3 9.4-.8 1.11-1.59 2.39-2.39 3.5-.48.48-1.43 2.07-2.23 2.23l-2.87-.96-.16-1.43c-.32-6.69 1.27-13.38 4.62-19.27.48-1.11-.96-1.91-1.59-.96-2.39 4.14-3.98 8.92-4.62 13.69m129.15-67.51c-.32 3.66.16 7.17 1.27 10.35.8 1.91 1.75 4.62 3.82 5.41 3.5 1.27 4.94-2.23 6.05-5.41.32 2.07 1.11 3.82 2.39 5.41 1.43 1.75 3.34 2.71 5.25 1.11 2.71-2.39 4.3-7.17 5.73-10.51 1.75-3.98 3.34-8.28 4.46-12.58 0-.32-.16-.8-.64-.96s-.96 0-1.11.48c-1.43 5.57-3.5 10.99-6.05 16.24-.8 1.75-2.71 7.64-5.57 5.73-2.55-1.59-2.87-6.21-2.71-8.76 0-.96-1.27-1.11-1.75-.48-.8 1.11-1.27 2.39-1.59 3.66-.16.8-.48 1.75-.8 2.55-.96 1.75-3.18 1.43-4.46.32-1.27-1.11-1.91-4.78-2.23-6.37-.32-2.07-.48-4.14-.32-6.21.16-1.11-1.75-1.11-1.75 0m4.78-116.7c-.8 5.73-.48 11.62 1.27 17.2 0 .16.16.32.32.48.48.32.96.16 1.27-.32 4.3-7.64 7.33-15.76 9.24-24.2.32-1.11-1.43-1.59-1.75-.48-1.75 7.64-4.3 14.97-7.96 21.82-1.11-4.62-1.27-9.4-.64-14.01.16-1.11-1.59-1.59-1.75-.48m28.03 356.53c-.32-.32-.16-.96.32-1.11.48-.32.96-.16 1.27.32 3.82 6.69 6.53 14.01 7.8 21.66-.48.16-1.11.32-1.75.48-1.27-7.48-3.82-14.81-7.64-21.34m-16.08 4.77c-.48-1.11 1.11-2.07 1.59-.8 2.71 6.05 4.46 12.58 5.41 19.27h-1.75c-.96-6.37-2.71-12.58-5.25-18.47M744.5 655.2c-.64-.96.96-1.91 1.59-.96 4.94 6.85 8.44 14.81 10.19 23.09-.48 0-1.11.16-1.75.32-1.75-8.12-5.1-15.76-10.03-22.45m-15.76 1.91c-.16-.48 0-.96.32-1.27.48-.32.96-.16 1.27.32 4.3 7.01 7.33 14.65 8.92 22.61h-1.91c-1.59-7.64-4.62-14.97-8.6-21.66"/>
</svg>