<svg xmlns="http://www.w3.org/2000/svg" viewBox="0 0 1037.69 615.66">
  <path fill="#666793" d="M43.63 345.69c-31.04 7.6-40.29 39.68-42.68 64.69-4.03 47.84 4.5 97.8 29.98 140.9 13.05 22.08 31.7 42.73 57.04 54.3 7.43 3.38 15.27 5.83 23.15 7.55 6.19 1.4 12.55 2.69 18.87 2.49l.14.04c.73.06 1.2-.57 1.08-1.19.06-.73-.57-1.2-1.19-1.08-5.34-.12-10.7-.7-15.88-1.97-7.47-1.6-14.79-3.76-21.92-6.61C16.5 571.8-7.4 459.88 6.31 393.05c4.25-19.28 15.65-41.23 39.1-45.68 21.63-3.77 44.59-.45 64.67 7.45 16.54 6.63 30.78 17.26 42.52 29.43-16.45 11.01-13.46 32.72-7.38 48.12 11.79 28.31 37.14 20.19 33.83-7.43-2.76-14.94-12.24-28.29-22.58-40.08 19.35-9.61 48.09 8.57 68.1 12.87 18.56 5.24 38.87 2.46 55.54-5.5 26.74-12.06 37.61-40.27 34.01-65.74-2.08-15.79-8.24-31.96-20.82-43.77 17.29-23.32 22.97-53.24 45.67-73.43 31.71-26.37 78.75-12.86 103.34 15.52-19.04 6.27-35.38 19.09-42.2 36.32-7.96 19.75-8.04 47.79 6.54 65.37 6.83 8.29 18.77 9.93 27.5 3.66 8.17-5.82 12.6-14.9 15.03-23.78 3.19 6.84 6.97 14.3 14.38 18.27 10.99 5.11 15.75-6.28 14.78-14.16-3.31-29.26-11.33-60.42-31.43-85.04 56.36-17.22 102.19 11.03 118.32 59.93 7.4 23.07 5.53 48.38 18.51 70.14 7.03 11.92 18.31 23.53 33.91 26.02 19.8 2.89 39.66-7.47 49.94-22.11 11.34 9.24 26.58 13.56 41.69 13.38 9.31.32 18.69-.69 27.92.5 16.6 2.62 31.88 10.54 43.69 22.43 16.82 17.01 30.14 48.42 10.44 66.89-2.32-5.71-6.99-10.42-12.8-12.61-6.15-2.58-16.22-3.41-19.24 3.23-2.64 6.89 4.05 13.5 10.81 16.09 6.51 2.38 13.93 1.44 19.79-2.48 2.39 13.05-3.62 25.72-9.89 37.13-5.71 9.93-11.45 19.99-19.23 28.75-.82.82-1.65 1.64-2.43 2.32-1.18 1.02.74 2.74 1.95 1.58 8.81-8.18 14.25-18.78 20.38-28.58 7.46-13.03 14.91-27.7 11.41-42.68 24.82-21.39 5.55-61.01-17.8-78.17-11.63-8.71-26.12-15.23-41.35-16.27-24.56-.77-43.76 3.36-64.15-13.13 5.43-8.36 8.7-18.66 5.36-28.22-2.02-6.23-7.7-12.71-15.52-13.07-8.16-.15-11.15 7.99-10.09 13.94 1.57 10.58 8.47 20.23 16.9 27.62-9.24 12.99-23.8 20.93-39.61 21.96-31.03 1.03-45.61-30.12-50.11-52.85-1.82-9.15-2.83-18.54-4.6-27.82-2.01-10.1-5.27-19.95-9.88-29.27-21.27-42.7-66.46-61.81-116.26-46.23-15.48-17.53-39.17-30.75-64.58-31.15-58.81.57-64.1 53.6-88.85 88.29-8.46-7.25-19.31-13.36-31.27-14.4-12.65-1.23-25.02 6.87-22.92 18.78 1.63 11.49 15.56 18.9 27.94 16.77 11.42-1.94 20.37-9.49 26.76-17.58 11.59 11.09 17.17 26.06 19.42 40.7 4 25.13-6.16 52.93-32.59 64.93-15.82 7.6-34.76 10.31-52.29 5.65-21.71-4.62-50.4-23.54-71.7-12.81-12.65-13.17-28.17-24.6-46.36-31.22-20.23-7.34-43.51-10.6-64.87-6.16m216.19-76.03c11.53.93 21.84 6.89 30.02 14.06-5.65 7.55-13.67 14.46-23.85 16.74-9.23 2.09-20.14-1.64-24.47-9.26-6.81-12.17 4.05-22.92 18.3-21.54m511.8 181.94c8.18 1.2 15.17 6.7 17.25 13.83-20.45 14.68-40.97-16.02-17.25-13.83m-100.5-121.6c3.6 9.19.61 18.97-4.56 26.95-7.66-6.88-13.99-15.93-15.65-25.64-.77-4.83.97-11.68 7.53-11.67 6.31.39 10.73 5.48 12.69 10.34m-225.84-51.53c4.4 4.64 3.35 13.9 2.94 19.76-1.86-5.74-6.1-14.21-2.94-19.76m-47.82 7.33c.97-27.49 17.18-49.01 46.48-58.43 17.82 20.42 25.32 45.9 29.98 70.76 1.01 6.1 2.4 12.45 1.46 18.61-1.64 9.25-9.57 9.32-15.49 2.61-4.6-4.99-7.19-10.78-9.78-16.56.71-3.69 1.15-7.44 1.13-11.18.64-20.27-14.08-21.02-8.29-.79.81 3.05 1.96 5.91 3.08 8.9.35 1.44 1.61 2.83 1.05 4.32-2.54 13.04-14.92 35.31-33.1 25.99-14.25-8.98-17.02-29.89-16.52-44.23M147.59 432.38c-5.45-13.88-8.69-33.58 4.71-44.37.57-.44 1.27-.85 1.84-1.29 9.7 10.87 18.57 23.15 21.81 36.88 4.81 24.9-16.51 36.21-28.38 8.78"/>
  <path fill="#cf986f" d="M781.26 8.83c-5.88-12.7-30.01 2.86-41.29 5.08-11.27 2.22-37.16-1.59-35.57 8.1s21.28 70.03 21.28 70.03l55.58-83.21Z"/>
  <path fill="#ededed" d="M743.79 52.81c3.65-5.24 10.8-6.51 16.04-2.7 5.24 3.81 6.51 10.8 2.7 16.04-3.65 5.24-10.8 6.51-16.04 2.7-5.24-3.65-6.35-10.8-2.7-16.04"/>
  <path d="M744.9 55.2c2.54-3.65 7.62-4.61 11.27-1.91 3.65 2.54 4.61 7.62 1.91 11.27-2.54 3.65-7.62 4.61-11.27 1.91-3.65-2.54-4.61-7.62-1.91-11.27"/>
  <path fill="#fff" d="M743.63 57.74c.95-1.27 2.7-1.59 3.97-.64s1.59 2.7.64 3.97-2.7 1.59-3.97.64c-1.11-.95-1.43-2.7-.64-3.97"/>
  <path fill="#ab7d5b" d="M487.96 257.19c-92.26 5.4-188.5-58.28-199.61-123.39 0 0-16.83 6.99-1.43 49.86 0 0-32.55-26.84-32.87-13.82-.32 13.02 41.45 38.11 41.45 38.11s-46.21.64-42.88 13.66 60.66 12.7 60.66 12.7-57.8 18.74-54.47 28.11c3.33 9.37 55.42 1.59 55.42 1.59s-35.89 32.24-26.84 36.21 48.75-24.46 48.75-24.46-27 39.86-16.04 43.99c10.96 4.13 39.86-39.54 39.86-39.54s-14.13 40.34-6.67 40.49c7.46.16 36.05-34.14 36.05-34.14s-13.82 32.87-6.51 34.94c7.31 2.07 35.1-34.14 35.1-34.14s-6.35 37.16 6.03 35.57c12.39-1.59 64-65.74 64-65.74m407.17 342.23c-.48.16-1.11.32-1.59.48-7.78 1.43-15.56 1.91-23.34 1.59h-1.75c-16.04-.64-31.92-2.22-47.64-4.76-6.67-1.27-24.14-83.85-36.52-147.37-7.78-39.86-13.66-72.26-13.66-72.26l67.01-39.86c-4.13 8.42-5.24 26.68-4.45 49.23 2.06 62.89 18.42 158.64 23.19 163.88 6.51 7.3 43.04 20.33 47.64 39.86.95 4.61-2.7 7.46-8.89 9.21"/>
  <path fill="#707070" d="M833.03 386.62c-3.81 11.75-10 29.22-13.82 29.06-5.56-.16-.95-17.94-.95-17.94s-28.27 21.28-32.87 39.07c-.79 4.29-1.43 8.58-1.59 12.86-7.78-39.86-13.66-72.26-13.66-72.26l67.01-39.86c-3.81 8.26-4.76 26.52-4.13 49.07" opacity=".54"/>
  <path fill="#ab7d5b" d="M607.22 602.27c-1.75.32-3.81.48-6.03.79-.48 0-1.11.16-1.75.16-4.61.48-10.16.95-16.04 1.27l-1.75.16c-17.94.79-37.79.32-42.08-4.13-6.67-7.15-30.01-136.09-27-169.12l35.73-95.6s60.34 15.56 57.96 47.16-40.18 55.42-43.83 84.32 5.72 89.88 5.72 89.88c16.67 7.3 54.31 42.88 39.07 45.1"/>
  <path fill="#c49069" d="M893.86 219.56c-4.29 6.83-20.17-21.28-20.17-21.28 4.92 23.66 2.54 104.97-3.02 107.51s-8.73-33.35-8.73-33.35-6.19 74.32-15.88 76.86-9.85-19.53-9.85-19.53-11.43 39.7-16.99 39.54-.95-17.94-.95-17.94-28.27 21.28-32.87 39.07-4.76 172.3-4.76 172.3c43.04 12.86 59.39 45.89 40.02 48.12-1.59.16-3.49.32-5.56.64-.48 0-1.11.16-1.59.16-4.29.48-9.21.79-14.45 1.11-.48 0-1.11 0-1.59.16-22.07 1.27-48.75.95-52.4-6.83-5.24-11.12-18.26-188.18-18.26-188.18-49.71 2.7-164.52-39.07-167.54-29.54s-49.23 80.04-60.34 86.71-18.9 82.26-6.67 88.14 36.05 45.1 22.23 46.21c-2.86.16-7.62.48-13.34.95-.48 0-1.11 0-1.59.16-6.19.32-13.5.79-20.64.95h-1.59c-17.15.32-33.98-.16-36.05-3.97-3.97-6.99 9.85-103.22-5.72-140.86-15.56-37.64-65.9-160.55 5.72-206.92 71.62-46.37 165.31-38.11 230.74-57.01 47.48-13.66 65.9-27.47 76.38-48.12 4.13-8.58 7.46-17.47 9.85-26.68l113.7-18.9s1.59 6.51 3.97 16.36c7.46 29.06 21.28 89.09 17.94 94.17"/>
  <path fill="#707070" d="M876.23 125.23c-23.03 23.98-109.57 31.28-127.52 29.22 4.13-8.58 7.46-17.47 9.85-26.68l113.7-18.9s1.59 6.51 3.97 16.36" opacity=".54"/>
  <path fill="#c49069" d="M882.42 94.9c-.64 1.91-1.43 3.65-2.22 5.4-14.45 29.22-118.31 37.48-133.08 34.46-8.73-1.75-16.36-7.46-20.49-15.4 0 0-8.89 8.42-16.2 8.26s-11.59-26.2-6.35-37.16c4.76-9.85 21.12-14.29 34.46-23.82.32-.32.79-.48 1.11-.79 1.11-.79 2.38-1.75 3.49-2.7 2.86-2.54 5.24-5.72 6.83-9.37.79-1.75 1.59-3.65 2.22-5.56 4.13-12.23 5.08-26.52 11.91-33.82 6.67-6.99 33.19-8.42 56.22-8.26 12.39 0 23.82.64 30.33.79 34.78 1.59 43.04 57.01 31.76 87.98"/>
  <path fill="#707070" d="M882.75 94.9c-.79.79-1.59 1.43-2.38 2.22 0 0-60.66-59.71-59.71-90.68v-.32c12.39 0 23.82.64 30.33.79 34.78 1.59 43.04 57.17 31.76 87.98" opacity=".54"/>
  <path fill="#1a1a1a" d="m715.84 86.8 25.73-.79c1.27 0 2.38.95 2.54 2.38 0 .64-.16 1.27-.64 1.59l-17.31 14.61c-.79.95-2.38 1.11-3.33.32l-.16-.16-8.58-13.66c-.95-.95-.95-2.54 0-3.49.64-.48 1.27-.79 1.75-.79"/>
  <path fill="#cf986f" d="M836.37 6.44c.48-14.77 38.75.32 50.82 1.43s25.57-2.7 30.81-1.91 1.27 72.41-21.91 91.15c.16 0-60.5-59.71-59.71-90.68"/>
  <path fill="#ededed" d="M802.23 58.21c3.65-5.24 10.8-6.51 16.04-2.7 5.24 3.65 6.51 10.8 2.7 16.04-3.65 5.24-10.8 6.51-16.04 2.7-5.08-3.65-6.35-10.8-2.7-16.04"/>
  <path d="M803.34 60.6c2.54-3.65 7.62-4.61 11.27-1.91 3.65 2.54 4.61 7.62 1.91 11.27-2.54 3.65-7.62 4.61-11.27 1.91-3.65-2.54-4.45-7.62-1.91-11.27"/>
  <path fill="#fff" d="M802.23 63.14c.95-1.27 2.7-1.59 3.97-.64s1.59 2.7.64 3.97-2.7 1.59-3.97.64c-1.27-.95-1.59-2.7-.64-3.97"/>
  <path fill="#d49b71" d="M857.01 222.1c-.95-7.46-3.18-14.77-4.45-22.23-1.43-8.1-2.22-16.2-2.54-24.46 0-.95-1.59-.95-1.59 0 .16 7.46.95 14.93 2.06 22.39 1.27 7.62 3.49 14.93 4.61 22.55 2.54 15.56-4.29 31.13-10.16 45.26-.48.95 1.11 1.43 1.59.48 5.56-13.66 12.23-28.9 10.48-43.99m-26.83-1.11c-4.45 6.67-3.33 15.09-3.02 22.71.48 9.69-.32 19.37-2.06 28.74-3.49 15.88-12.7 31.44-28.27 37.64-.95.32-.48 1.91.48 1.59 14.45-5.72 23.98-19.37 28.27-33.98 2.38-9.21 3.65-18.58 3.49-28.11 0-8.89-2.38-20.01 2.86-27.95.32-.64-1.11-1.43-1.75-.64m-22.4-36.53c-10 14.29-20.17 28.74-26.68 44.94-6.19 15.56-8.58 34.14-21.76 45.89-6.67 6.03-15.72 9.69-24.77 7.15-.48-.16-.79.16-.95.64s.16.79.64.95c15.4 4.29 29.54-7.62 36.21-20.49 4.13-7.78 6.51-16.36 9.21-24.77 3.02-9.21 6.99-18.1 11.75-26.52 5.4-9.37 11.59-18.26 17.94-27 .32-.79-1.11-1.59-1.59-.79m-11.27 75.27c-12.86 7.62-18.26 23.34-24.3 36.21-6.51 14.29-13.82 28.9-26.04 39.22-6.67 5.88-14.77 9.53-23.5 10.96-.95.16-.95 1.75 0 1.59 33.19-4.29 45.1-40.18 57.8-65.9 3.97-7.94 8.89-15.88 16.67-20.64.32-.16.48-.64.32-1.11 0-.32-.48-.48-.95-.32m12.7 69.23c-10.32 5.88-15.09 17.31-23.5 25.09-9.53 8.58-22.23 12.86-34.94 11.91-.95 0-.95 1.59 0 1.59 12.07.95 23.98-2.7 33.51-10.16 9.85-7.78 14.77-20.64 25.73-27 .32-.16.48-.64.32-1.11s-.64-.48-1.11-.32m52.4-172.93c.16-.95-1.27-1.43-1.59-.48-3.97 19.22 5.56 37.48 7.15 56.37.16.95 1.75.95 1.59 0-1.43-18.58-10.96-36.84-7.15-55.9m22.39 45.42c-6.35-10.48-10-22.39-10.8-34.62 0-.95-1.59-.95-1.59 0 .79 12.55 4.61 24.61 10.96 35.41.16.32.64.48 1.11.32.48-.16.64-.64.32-1.11m-13.82 36.21c0-.48-.32-.79-.79-.79s-.79.32-.79.79c.32 11.91-.79 23.66-3.49 35.25-.16.95 1.27 1.43 1.59.48 2.7-11.59 3.81-23.66 3.49-35.73m-15.89 30.81c-5.56 16.67-13.02 32.71-22.55 47.48-.48.79.79 1.75 1.43.79 9.53-14.93 17.15-30.97 22.71-47.8.32-1.11-1.27-1.59-1.59-.48m-19.53 16.21c-4.61 13.18-10.16 28.27-23.34 34.94-.95.48-.16 1.91.79 1.43 13.66-6.99 19.37-22.23 24.14-35.89.32-.95-1.27-1.43-1.59-.48"/>
  <path fill="#d49b71" d="M811.91 274.03c-1.75 6.51-4.92 12.7-9.21 17.94-3.97 4.61-8.73 8.73-13.82 12.07-8.26 5.72-17.47 11.43-20.33 21.76-.16.48.16.79.64.95s.79-.16.95-.64c3.18-11.27 14.45-16.99 23.34-23.34 9.69-6.83 16.83-16.83 20.01-28.27.16-.48-.16-.79-.64-.95-.48-.32-.79 0-.95.48m-41.59 69.23c-5.56 5.4-12.39 9.21-19.85 10.96-.95.32-.64 1.75.48 1.59 7.78-1.91 14.77-5.72 20.49-11.27.79-.95-.32-2.06-1.11-1.27m-211.06 14.44c-4.29 17.79-12.39 34.62-23.82 48.91-.64.79.48 1.91 1.11 1.11 11.59-14.61 19.85-31.6 24.14-49.71.32-.79-1.27-1.27-1.43-.32m-25.41 21.13c-5.4 22.07-32.71 31.92-34.46 55.58 0 .95 1.59.95 1.59 0 1.75-23.19 29.06-33.19 34.3-55.1.32-.95-1.27-1.43-1.43-.48m-8.42 45.1c-4.45 8.58-12.55 13.97-19.85 19.85-3.49 2.7-6.51 5.88-9.21 9.21-3.33 4.45-4.61 9.85-7.94 14.13-.64.79.79 1.59 1.43.79 3.18-4.29 4.45-9.53 7.62-13.97 3.02-3.81 6.51-7.3 10.48-10.16 6.99-5.72 14.61-10.96 18.9-19.22.32-.79-.95-1.59-1.43-.64m9.85-83.36c-4.61 13.97-13.5 26.2-25.57 34.78-.79.64 0 1.91.79 1.43 12.39-8.73 21.6-21.28 26.36-35.73.32-1.11-1.27-1.43-1.59-.48M512.73 389c-15.25 10.96-26.2 26.84-31.13 44.94-.16.48.16.79.64.95s.79-.16.95-.64c4.76-17.63 15.56-33.19 30.33-43.99.95-.48.16-1.91-.79-1.27m-31.13 67.98c-7.46 9.21-10.48 21.28-8.26 33.03.16.95 1.75.64 1.59-.48-2.06-11.12.79-22.71 7.94-31.44.48-.79-.64-1.91-1.27-1.11"/>
  <path fill="#ab7d5b" d="M501.3 610.37c-.48 0-1.11 0-1.59.16-.64-8.1-2.7-16.2-6.03-23.66-.48-.95.95-1.75 1.43-.79 3.49 7.62 5.56 15.88 6.19 24.3m-22.64 1.1h-1.18c-.32-5.4-1.11-10.8-2.22-16.04-.16-.95 1.27-1.43 1.59-.48 1.11 5.4 1.91 10.96 2.22 16.52m336.18.16c-.48 0-1.11.16-1.59.16-1.91-8.1-4.61-16.2-8.1-23.82-.48-.95.95-1.75 1.43-.79 3.65 7.94 6.35 16.04 8.26 24.46m-16.04 1.26c-.48 0-1.11 0-1.59.16-1.59-6.83-4.13-13.34-7.46-19.37-.48-.95.95-1.75 1.43-.79 3.33 6.35 5.88 13.02 7.62 20.01"/>
  <path fill="#8c674b" d="M601.18 603.06c-.48 0-1.11.16-1.75.16-4.13-9.21-10.32-17.31-17.94-23.82-.79-.64.32-1.75 1.11-1.11 8.1 6.83 14.29 15.4 18.58 24.77m-17.78 1.43-1.75.16c-2.86-6.83-6.99-13.18-12.07-18.58-.64-.79.48-1.91 1.11-1.11 5.56 5.72 9.85 12.23 12.7 19.53m311.74-4.76c-.48.16-1.11.32-1.59.48-5.4-8.58-12.39-16.04-20.49-22.07-.79-.64 0-1.91.79-1.43 8.42 6.35 15.72 14.13 21.28 23.03m-25.46 1.74h-1.37c-2.38-7.46-5.4-14.61-9.05-21.6-.48-.95.95-1.75 1.43-.79 3.81 7.15 6.99 14.61 9.37 22.39"/>
  <path fill="#c2b8b4" d="M929.18 130.37c-5.94-3.28 6.25 58.78 6.25 58.78l37.05 15.16s-3.13-51.59-43.3-73.94M721.11 368.29c-19.23 29.39-15.79 102.39 32.98 118.49 48.77 16.1-6.25 38.77-6.25 38.77s-45.33-13.44-55.65-71.6c-10.32-58.15 28.92-85.66 28.92-85.66"/>
  <path fill="#d1c7c2" d="M916.98 600.58c-22.67-9.38-114.12 0-114.12 0l-26.89-93.01h165.55l-24.54 93.01Zm38.3-160.07c25.01-.63 30.48 63 19.38 96.76-11.1 33.77-6.88 43.3-6.88 43.3s12.35 18.6 1.41 26.42-37.83 0-37.83 0l23.92-166.48Zm-192.12 0c-25.01-.63-30.48 63-19.38 96.76 11.1 33.77 6.88 43.3 6.88 43.3s-12.51 18.6-1.56 26.42c10.94 7.82 37.83 0 37.83 0l-23.76-166.48Z"/>
  <path fill="#e6dbd5" d="M877.9 609.18s.16.16.31.16c.47.31.94.63 1.41.94 2.81 1.41 7.82 2.34 13.76 2.81.63 0 1.09.16 1.72.16 13.76.78 31.26-.63 36.58-4.06 4.85-3.13 12.82-27.67 18.92-55.65 4.06-17.82 6.57-35.95 7.82-54.09 0-1.56.16-3.13.16-4.69.47-28.61-4.22-84.88-11.57-126-2.97-16.41-6.25-30.48-9.85-39.24l-8.29 1.88-11.72 2.81-2.66 27.2-12.51 128.81s1.41 14.23 1.88 31.26c.78 23.92-.31 53.62-9.54 57.06-15.79 5.94-22.67 24.7-16.41 30.64M761.44 494.75c3.28 40.02 18.6 109.11 26.89 114.43 4.85 3.13 20.79 4.69 34.23 4.22h1.72c4.69-.16 9.38-.94 14.07-2.19.63-.16 1.09-.31 1.56-.63.78-.31 1.56-.78 2.19-1.41 6.25-6.1-.63-24.7-16.57-30.8-15.94-6.1-7.5-88.32-7.5-88.32l.63-191.5-15.63 9.38c-25.48 28.76-48.77 99.73-41.58 186.81"/>
  <path fill="#f5e9e3" d="M776.14 494.75c6.88 13.44 41.27 48.93 68 52.21 15.16 1.88 39.39-9.07 59.72-25.64 15.48-12.66 28.76-28.61 33.77-44.55 8.44-26.73 1.41-75.03-3.91-109.74-.31-1.72-.47-3.44-.78-5.16-1.72-10.94-3.13-20.17-3.6-26.42-.16-1.41-.31-2.81-.63-4.06-7.19-29.86-64.87-106.77-64.87-106.77-7.19 6.88-13.76 14.38-19.85 22.51-.63.78-1.25 1.72-1.88 2.5-11.41 15.32-21.89 31.26-31.42 47.83-10.47 17.66-19.54 36.11-27.51 55.18-2.81 6.88-5.16 13.6-7.03 19.85-14.54 47.99-6.88 108.96 0 122.24"/>
  <path fill="#707070" d="M883.84 343.43c9.22 7.35 19.54 13.44 30.48 17.82 6.25 2.5 12.82 4.38 19.38 5.78 4.22.78 8.6 1.41 12.97 1.72-2.97-16.41-6.25-30.48-9.85-39.24l-8.29 1.88c-7.19-29.86-64.87-106.77-64.87-106.77-7.19 6.88-13.76 14.38-19.85 22.51-11.41 34.39 15.63 77.07 40.02 96.29" opacity=".21" style="isolation:isolate"/>
  <path fill="#f5e9e3" d="M907.92 184.14c41.43-13.6 90.82 42.05 105.83 65.5 15.01 23.45 32.83 69.41 18.92 76.75s-21.26 0-21.26 0-.63 14.54-20.17 18.45c-19.54 3.91-55.81 5-92.07-23.45-36.27-28.45-78.16-108.8 8.75-137.25"/>
  <path fill="#f5e9e3" d="m828.97 158.35 54.71 45.96-15.16 36.11s-59.56-31.73-39.55-82.07"/>
  <path fill="#1a1a1a" d="m1011.56 286.84-26.42 7.19c-1.25.31-2.19 1.72-1.88 2.97.16.63.63 1.25 1.09 1.56l22.04 8.91c1.25.78 2.81.31 3.6-.94v-.16l4.22-16.1c.63-1.25.16-2.81-1.09-3.44-.31-.16-.94-.16-1.56 0"/>
  <path fill="#c2b8b4" d="M903.85 241.35c-18.13 18.45 14.69 59.87 31.73 50.49 17.04-9.38 20.17-29.54 9.69-42.99s-24.54-24.54-41.43-7.5"/>
  <path fill="#ededed" d="M912.61 260.89c-.16 5.47 4.22 10.16 9.69 10.16 5.47.16 10.16-4.22 10.16-9.69.16-5.47-4.22-10.16-9.69-10.16h-.31c-5.31 0-9.69 4.38-9.85 9.69"/>
  <path d="M914.01 259.33c-.16 3.91 2.97 7.19 6.88 7.19 3.91.16 7.19-2.97 7.19-6.88s-2.97-7.19-6.88-7.19h-.16c-3.91 0-7.03 3.13-7.03 6.88"/>
  <path fill="#fff" d="M915.58 256.83c0 1.41 1.09 2.5 2.34 2.5 1.41 0 2.5-1.09 2.5-2.34s-1.09-2.5-2.34-2.5c-1.41 0-2.5.94-2.5 2.34"/>
  <path fill="#ededed" d="M979.36 237.6c-.16 5.47 4.22 10.16 9.69 10.16 5.47.16 10.16-4.22 10.16-9.69.16-5.47-4.22-10.16-9.69-10.16h-.31c-5.31 0-9.85 4.38-9.85 9.69"/>
  <path d="M980.61 236.04c-.16 3.91 2.97 7.19 6.88 7.19s7.19-2.97 7.19-6.88-2.97-7.19-6.88-7.19h-.16c-3.91 0-7.03 3.13-7.03 6.88"/>
  <path fill="#fff" d="M982.17 233.54c0 1.41 1.09 2.5 2.34 2.5 1.41 0 2.5-1.09 2.5-2.34s-1.09-2.5-2.34-2.5c-1.41 0-2.5.94-2.5 2.34"/>
  <path fill="#e6dbd5" d="M783.17 352.5s25.79 19.7 35.33 4.06-3.75-27.67-7.82-59.25c-10.47 17.66-19.7 36.11-27.51 55.18"/>
  <path fill="#c2b8b4" d="M950.28 553.69c4.06-17.82 6.57-35.95 7.82-54.09-24.07 15.01-39.08 41.11-7.82 54.09m-72.22 55.8c.47.31.94.63 1.41.94 2.66-6.1 5.78-11.88 9.54-17.35.63-.94-.78-1.72-1.41-.78-3.75 5.31-6.88 11.1-9.54 17.2m15.16 3.59c.63 0 1.09.16 1.72.16 1.41-5.78 3.6-11.41 6.57-16.57.16-.47 0-.94-.31-1.09-.47-.16-.94 0-1.09.31-3.13 5.31-5.47 11.1-6.88 17.2m-58.63-18.14c1.88 5.31 3.13 10.79 3.6 16.26.63-.16 1.09-.31 1.56-.63-.63-5.47-1.88-10.94-3.6-16.1-.31-1.09-1.88-.63-1.56.47m-12.82 1.87c.78 5.47 1.09 11.1.63 16.57.63 0 1.09 0 1.72-.16.31-5.63.16-11.26-.78-16.88 0-1.09-1.72-.63-1.56.47"/>
</svg>