<svg xmlns="http://www.w3.org/2000/svg" xmlns:xlink="http://www.w3.org/1999/xlink" viewBox="0 0 1001.98 600.87" width="100%" height="100%">
  <defs>
    <path id="a" fill="#5c6866" d="M684.07 186.16c-.18 1.45.18 2.72.91 3.99-.18-1.45-.54-2.72-.91-3.99"/>
  </defs>
  <path fill="#666793" d="M28.69 337.21c-30.65 16.96-31.21 53.56-26.54 80.7 9.49 51.76 32.88 102.15 72.22 140.41 20.15 19.61 45.82 36.08 75.94 41.04 8.83 1.44 17.82 1.78 26.65 1.33 6.95-.3 14.04-.76 20.68-2.79h.15c.79-.15 1.1-.94.8-1.57-.15-.79-.94-1.1-1.57-.8-5.68 1.41-11.52 2.34-17.36 2.48-8.37.45-16.72.28-25.08-.69C65.01 584.17 7.54 472.66 2.83 398.03c-1.05-21.62 4.69-48.11 28.22-59.56 21.79-10.2 47.04-13.29 70.54-10.71 19.4 2.26 37.52 9.4 53.43 18.9-14.24 16.37-4.83 38.47 6.02 53.02 20.6 26.55 45.09 10.67 33.64-17.58-7.22-15.01-21.08-26.4-35.41-35.9 17.7-15.73 53.33-4.76 75.73-5.97 21.14.21 41.82-8.57 57.16-21.78 24.81-20.44 28.2-53.41 17.07-79.31-6.74-16.11-17.91-31.43-34.6-40.31 11.58-29.63 8.99-62.92 27.19-90.8 25.96-37 79.59-36.25 113.76-13.29-18.33 12.11-31.93 30.36-34.2 50.55-2.74 23.18 5.23 52.86 25.71 67.26 9.6 6.8 22.7 5.11 30.14-4.03 6.97-8.5 9.04-19.38 9.06-29.47 5.34 6.32 11.48 13.12 20.47 15.19 13.09 2.24 14.85-11.17 11.56-19.22-11.91-30-29.35-60.65-57.69-80.91C475.29 59.7 531.88 76.4 563 123.48c14.46 22.28 19.76 49.58 39.74 68.87 10.86 10.59 26.13 19.62 43.34 17.77 21.78-2.63 39.8-19.31 46.47-37.75 14.65 6.51 32.01 6.7 47.95 2.16 9.94-2.34 19.57-6.1 29.68-7.5 18.31-2 36.75 1.98 52.66 11.17 22.68 13.15 45.8 42.55 30.28 67.75-4.09-5.37-10.39-9.02-17.17-9.66-7.25-.96-18.14 1.06-19.42 8.94-.81 8.04 8.17 13.12 16.06 13.92 7.57.65 15.15-2.48 20.22-8.32 6.27 13.11 3.56 28.25.22 42.12-3.19 12.14-6.37 24.44-12.07 35.94-.63 1.1-1.27 2.21-1.9 3.15-.95 1.42 1.57 2.69 2.52 1.11 6.97-11.19 9.68-23.96 13.34-36.09 4.14-15.93 7.81-33.58-.2-48.43 20.1-29.77-11.67-66.13-41.3-77.56-14.81-5.87-32.01-8.6-48.41-5.32-26.2 6.24-45.32 16.13-71.62 4.56 3.34-10.4 3.84-22.23-2.44-31.39-3.93-6.01-11.8-11.23-20.17-9.36-8.68 2.19-9.49 11.65-6.67 17.65 4.71 10.74 14.78 18.97 25.82 24.35-6.04 16.39-19.15 28.98-35.58 34.61-32.52 10.01-56.9-18.75-68.2-41.49-4.56-9.16-8.32-18.8-12.86-28.11-5.03-10.1-11.31-19.58-18.86-28.12-34.77-39.04-88.06-46.27-136.26-15.47-21.42-14.09-50.27-21.26-77.26-14.38-62.04 17.51-52.39 75.12-68.59 118.93-11.03-5.23-24.27-8.58-37.22-6.24-13.73 2.33-24.49 14.46-18.84 26.46 5.02 11.69 21.89 15.52 34.37 9.7 11.52-5.33 18.81-15.89 23.25-26.29 15.44 8.4 25.65 22.62 32.24 37.46 11.45 25.43 8.7 57.76-15.81 78.05-14.55 12.59-33.8 20.89-53.68 21.01-24.29 1.36-60.08-10.4-79.52 7.06-17.17-10.3-36.87-17.92-58.01-19.7-23.5-1.95-49.07 1.3-70.39 12.13M235.52 194.6c12.46-2.34 25.08 1.01 35.8 6.24-3.81 9.61-10.3 19.22-20.41 24.56-9.16 4.86-21.78 4.05-28.54-2.75-10.7-10.91-2.3-25.41 13.16-28.04m593.64 45.29c8.99-1.08 17.98 2.73 22.22 9.67-17.41 21.41-47.94-5.17-22.22-9.67m-141.26-99.72c6.45 8.69 6.1 19.89 2.92 29.82-10.08-5.08-19.37-12.82-23.93-22.62-2.2-4.89-2.34-12.63 4.61-14.51 6.78-1.4 12.93 2.72 16.39 7.29m-253.68 10.43c5.99 3.65 7.54 13.74 8.79 20.05-3.62-5.53-10.53-13.28-8.79-20.05m-48.48 21.5c-6.87-29.36 4.08-56.78 32.36-75.17 24.72 16.47 39.97 41.27 52.05 66.23 2.82 6.16 6.12 12.47 6.9 19.27.92 10.26-7.45 12.61-15.63 7.21-6.3-3.96-10.71-9.34-15.11-14.71-.31-4.11-.93-8.2-2.02-12.16-5.15-21.63-20.93-18.19-9 1.55 1.73 3 3.77 5.69 5.81 8.53.79 1.42 2.51 2.53 2.36 4.26 1.07 14.52-5.63 41.63-27.54 37-17.65-5.4-26.59-26.72-30.19-42.04M163.55 398.99c-9.75-13.12-18.85-33.02-7.77-48.29.47-.63 1.1-1.26 1.58-1.89 13.38 8.7 26.3 19.15 33.68 32.73 12.24 24.96-7.05 43.05-27.49 17.44"/>
  <path fill="#4a5453" d="M616.69 584.86c1.99 9.6 41.3 9.6 54.89 9.42h4.53s-2.35-24.64-30.07-38.58l11.59-88.76 10.87-83.5-40.94 49.45c-.37 6.16-1.45 18.48-2.72 33.52-3.99 43.29-9.96 109.77-8.15 118.47"/>
  <path fill="#5c6866" d="M371.05 293.58c13.59 63.04-29.16 156.51 23.01 196.18 52.17 39.67-68.84 54.16-79.35 45.83-10.51-8.33 27.18-32.43 27.18-32.43s-60.5 11.42-66.84 0c-6.34-11.42 43.84-17.76 43.84-17.76s-62.68 4.17-62.68-13.59 43.84-15.58 43.84-15.58-37.5-2.17-43.84-24.99c-6.34-22.82 39.67-4.17 39.67-4.17s-37.5-18.84-31.33-37.5c6.17-18.66 37.5 15.58 37.5 15.58s-23.01-65.76-6.34-65.76 23.01 37.5 23.01 37.5-2.17-81.33 12.5-75.18c14.67 6.16 10.51 27.18 10.51 27.18s23.01-64.48 29.35-35.32"/>
  <path fill="#4a5453" d="M620.49 439.58c35.5 6.16-32.06 111.22-57.06 118.83 0 0 35.32 7.79 33.87 20.84s-100.35 0-100.35 0l-53.26-18.48 68.65-73.36 108.14-47.83Z"/>
  <path fill="#5c6866" d="M364.17 587.94c12.86 8.51 112.49 11.23 133.32 11.59h3.45c6.88 0 3.8-25.54-27.72-30.07 0 0 63.94-46.37 69.19-65.22-.91 16.13-4.71 81.87-1.26 90.57 2.17 5.62 19.38 6.34 34.06 5.97h1.81c5.62-.18 10.68-.54 14.31-.91.72 0 1.26-.18 1.81-.18 1.81-.18 2.9-.18 2.9-.18s-4.71-23.91-20.84-29.35l12.31-97.28 2.54-1.81 32.24-24.45c-.37.54-15.04 18.3-9.96 21.56 3.8 2.54 8.15 1.45 12.68-1.99 16.85-13.05 35.5-58.33 36.04-59.77-.18 1.45-9.96 61.77-4.71 61.77.37 0 .91-.54 1.45-1.45 7.97-12.68 33.33-101.26 33.33-101.26s1.63 26.99 7.79 26.99c5.8 0-.72-52.35-12.5-80.98 2.72 5.08 7.79 12.31 14.85 11.42 10.68-1.45-23.73-88.04-24.64-90.4.54 1.09 11.05 19.2 17.76 14.67 4.34-2.9-2.35-30.44-8.88-57.42-.37-1.26-.54-2.54-.91-3.99s-.54-2.54-.91-3.99c-3.26-13.59-6.16-26.45-7.06-34.96v-.18c-2.17-18.3-47.09-21.01-76.08-20.84-13.94 0-24.27.72-24.27.72-5.08 11.23-10.87 21.92-17.39 32.43-25.54 42.03-60.86 85.5-59.05 90.4 2.35 6.16 25.54-9.24 25.54-9.24s-96.55 99.63-91.12 104.16c5.25 4.53 40.58-18.65 41.66-19.2-1.81 2.35-129.52 165.75-108.87 237.12-.72.18-16.85 16.48-2.9 25.72"/>
  <use xlink:href="#a" fill="#5c6866"/>
  <use xlink:href="#a" fill="#5c6866"/>
  <path fill="#abc2be" d="M616.69 323.11s-5.08 103.8-23.91 125.18l-2.9 22.82 32.24-24.45c-.37.54-15.04 18.3-9.96 21.56 18.3 12.14 48-60.14 48.72-61.77-.18 1.45-9.96 61.77-4.71 61.77s34.78-102.71 34.78-102.71 1.63 26.99 7.79 26.99c5.8 0-.72-52.35-12.5-80.98 2.72 5.08 7.79 12.5 14.85 11.42 10.68-1.45-23.73-88.04-24.64-90.21.54 1.09 11.05 19.2 17.76 14.67 6.88-4.71-14.67-73.18-17.76-100.17l-45.83 6.16c-20.11 58.33-54.16 132.6-43.29 138.75 7.97 4.53 20.29-15.4 26.08-26.08-9.79 19.38-38.04 76.81-28.44 83.15 11.59 7.79 31.7-26.08 31.7-26.08"/>
  <path fill="#707070" d="M575.74 126.93s10.33-.72 24.27-.72c28.98-.18 74.09 2.72 76.08 20.84v.18c1.09 8.69 3.8 21.38 7.06 34.96-10.51 3.62-45.29 15.04-51.8 9.79-7.6-5.97 14.67-15.04 15.4-15.4-1.26.18-51.45 5.97-80.24-10.68-1.63-.91-3.26-1.99-4.71-3.08-1.26-.91-2.54-1.99-3.45-3.26 6.34-10.68 12.14-21.56 17.39-32.61" opacity=".54" style="isolation:isolate"/>
  <path fill="#5c6866" d="M561.8 138.52c1.45 1.09 3.08 2.17 4.71 3.08 28.62 16.85 78.8 10.87 80.24 10.68-.91.37-23.01 9.42-15.4 15.4 7.6 6.16 53.98-10.51 54.89-10.87-.18.18-4.53 6.16 0 9.96s52.54-21.19 53.26-21.56c-.37.37-13.77 15.58-8.51 20.84 5.43 5.43 39.31-25.54 39.31-25.54s-4.71 16.3 0 16.3 16.3-26.27 16.3-26.27 0 12.31 6.88 12.31 6.16-26.27 0-41.66c-6.16-15.39-74.09-23.73-81.15-35.32-3.26-5.62-5.8-15.94-8.33-26.63-2.72-11.59-5.25-23.73-8.69-30.61-3.8-7.79-60.14-7.79-75.72 0-15.58 7.79-53.98 52.54-50.91 57.97s17.76-2.35 17.76-2.35-52.35 53.43-24.64 74.27"/>
  <path fill="#5c6866" d="M630.45 14.97C628.82-.43 537.7-2.79 530.82 2.66c-6.88 5.44-46.92 46.2-40.75 49.27s26.99-13.94 26.99-13.94-35.5 39.31-27.72 47.83c7.79 8.51 31.7 13.05 35.5 13.05s10.87-25.54 10.87-25.54-3.08 30.07 2.35 25.54 12.31-66.48 23.91-71.73c11.59-5.25 54.89 2.35 54.89 2.35L630.45 15v-.02Zm45.64-3.99S727-2.96 737.14 2.47s35.5 37.13 28.62 40.94-14.67-14.67-14.67-14.67 18.48 33.15 7.79 42.38c-10.68 9.24-23.36 5.62-29.53 3.62s-.72-49.09-7.6-50c-6.88-.91-37.86 1.63-37.86 1.63l-7.79-15.4Z"/>
  <path fill="#abc2be" d="M646.76 152.46c-.91.37-23.01 9.42-15.4 15.4 7.6 6.16 53.98-10.51 54.89-10.87-.18.18-4.53 6.16 0 9.96 4.53 3.8 52.54-21.19 53.26-21.56-.37.37-13.77 15.58-8.51 20.84 5.43 5.43 39.31-25.54 39.31-25.54s-4.71 16.3 0 16.3 16.3-26.27 16.3-26.27 0 12.31 6.88 12.31 6.16-26.27 0-41.66c-6.16-15.39-74.09-23.91-81.15-35.5-3.26-5.62-5.8-15.94-8.33-26.63-10.33-9.79-28.07-5.08-21.74 28.07h-8.51s-6.16-28.62-23.91-27.72c-17.76.91-25.54 13.94-23.19 37.86 0 0-34.78 8.51-35.5 17.76-.72 9.06 17.76.37 18.48 0-1.09.72-37.86 25.54-36.95 30.79.54 4.17 15.22-2.72 21.74-6.16-6.16 3.45-20.29 11.77-27.72 21.56 28.44 17.02 78.62 11.05 80.07 11.05"/>
  <path fill="#1a1a1a" d="m792.04 91.96-28.81-.91c-1.45 0-2.72 1.09-2.72 2.54 0 .72.18 1.26.72 1.81l19.38 16.3c.91 1.09 2.72 1.26 3.8.37l.18-.18 9.6-15.4c1.09-1.09 1.09-2.72 0-3.8-.91-.37-1.45-.54-2.17-.72"/>
  <path fill="#ededed" d="M660.16 60.99c-1.45-5.25-6.88-8.33-12.31-6.88s-8.33 6.88-6.88 12.31c1.45 5.25 6.88 8.33 12.31 6.88 5.43-1.63 8.33-7.06 6.88-12.31"/>
  <path d="M659.8 62.98c-1.09-3.8-4.89-5.8-8.69-4.89-3.8 1.09-5.8 4.89-4.89 8.69s4.89 5.8 8.69 4.89c3.8-1.26 5.97-5.08 4.89-8.69"/>
  <path fill="#fff" d="M658.53 65.69c-.37-1.26-1.63-1.99-3.08-1.63s-1.99 1.63-1.63 3.08c.37 1.26 1.63 1.99 3.08 1.63 1.26-.37 1.99-1.63 1.63-3.08"/>
  <path fill="#ededed" d="M708.35 56.09c-1.45-5.25-6.88-8.33-12.31-6.88s-8.33 6.88-6.88 12.31c1.45 5.25 6.88 8.33 12.31 6.88 5.25-1.63 8.33-7.06 6.88-12.31"/>
  <path d="M707.8 58.09c-1.09-3.62-4.89-5.8-8.69-4.89-3.62 1.09-5.8 4.89-4.89 8.69 1.09 3.62 4.89 5.8 8.69 4.89 3.8-1.09 5.97-4.89 4.89-8.69"/>
  <path fill="#fff" d="M706.53 60.99c-.37-1.26-1.63-1.99-3.08-1.63-1.26.37-1.99 1.63-1.63 3.08.37 1.26 1.63 1.99 3.08 1.63 1.26-.37 1.99-1.81 1.63-3.08"/>
  <path fill="#464f4e" d="M579.19 581.6c4.71 5.62 8.69 11.77 11.96 18.3.72 0 1.26-.18 1.81-.18-3.26-7.06-7.6-13.59-12.5-19.38-.72-.91-1.99.37-1.26 1.26m-9.43 3.25c2.35 5.08 3.99 10.51 5.25 15.94h1.81c-1.26-5.8-3.08-11.42-5.43-16.67-.54-1.09-2.17-.18-1.63.72M483 579.41c6.88 4.89 11.96 11.96 14.49 19.93h1.81c-2.54-8.69-7.97-16.3-15.4-21.56-.91-.54-1.81 1.09-.91 1.63"/>
  <path fill="#2f3635" d="M651.1 571.28c9.6 4.53 17.02 12.86 20.47 22.82h1.81c-3.45-10.68-11.23-19.56-21.38-24.45-1.09-.37-1.99 1.09-.91 1.63"/>
  <path fill="#464f4e" d="M543.5 208.08c4.89-5.62 8.51-12.31 10.51-19.38.18-.54.72-.72 1.09-.54s.72.54.54 1.09c-2.17 7.43-5.97 14.31-11.05 20.29-.54.72-1.81-.54-1.09-1.45m-14.31 57.78c16.85-16.85 28.62-37.86 34.24-60.86.18-1.09 1.99-.72 1.81.54-5.62 23.36-17.76 44.74-34.78 61.77-.37.37-.91.37-1.26 0s-.37-1.09 0-1.45m-28.81 14.31 18.3-23.19c.72-.91 1.99.37 1.26 1.26l-18.3 23.19c-.72.91-1.99-.37-1.26-1.26m-9.06 37.86c9.42-10.14 16.3-22.28 19.93-35.69.18-.54.72-.72 1.09-.54s.72.54.54 1.09c-3.8 13.59-10.87 26.08-20.47 36.41-.54.91-1.81-.37-1.09-1.26m-18.11-3.63c4.71-4.53 8.51-9.96 11.23-15.76.54-1.09 1.99-.18 1.63.91-2.72 6.16-6.71 11.59-11.42 16.13-1.09.72-2.35-.54-1.45-1.26m54.17-23.74c5.62-4.17 9.6-10.33 10.87-17.21.18-1.09 1.99-.72 1.81.54-1.45 7.43-5.62 13.94-11.77 18.3-.91.54-1.81-.91-.91-1.63m-43.84 55.61c8.15-8.33 14.85-17.76 20.11-28.26.54-1.09 1.99-.18 1.63.91-5.43 10.51-12.31 20.11-20.47 28.62-.72.91-1.99-.37-1.26-1.26m-24.65 14.67c7.79-5.62 13.4-13.59 15.94-22.82.18-.54.72-.72 1.09-.54.54.18.72.54.54 1.09-2.72 9.6-8.69 17.93-16.67 23.91-.91.54-1.81-.91-.91-1.63m75.72-118.66c4.34-4.17 6.71-9.79 6.88-15.76 0-1.09 1.81-1.09 1.81 0-.18 6.34-2.9 12.5-7.43 17.02-.91.91-2.17-.37-1.26-1.26m-11.05-16.31c3.26-3.08 5.25-7.43 5.43-11.96 0-1.09 1.81-1.09 1.81 0-.37 4.89-2.35 9.6-5.97 13.22-.91.72-1.99-.54-1.26-1.26m-88.04 176.8c4.35-4.71 7.97-10.33 10.51-16.13.54-1.09 1.99-.18 1.63.91-2.72 5.97-6.34 11.59-10.87 16.48-.91.91-2.17-.37-1.26-1.26m21.37-18.3c4.17-3.26 6.88-8.15 7.43-13.59.18-1.09 1.81-1.09 1.81 0-.37 5.8-3.26 11.23-7.97 14.85-.91.72-2.17-.54-1.26-1.26m19.74-1.81c5.08-5.43 8.88-11.96 11.05-19.2.18-.54.72-.72 1.09-.54.54.18.72.54.54 1.09-2.17 7.43-6.16 14.31-11.42 20.11-.72.72-1.99-.54-1.26-1.45m-72.1 59.77 8.69-18.11c.54-1.09 1.99-.18 1.63.91l-8.69 18.11c-.54 1.09-2.17.18-1.63-.91m18.11-7.43 18.11-18.11c.37-.37.91-.37 1.26 0s.37.91 0 1.26l-18.11 18.11c-.37.37-.91.37-1.26 0s-.37-.91 0-1.26"/>
  <path fill="#97aba7" d="M677.19 263.51c2.54 9.79 3.8 19.93 3.8 29.89 0 .54-.37.91-.91.91s-.91-.37-.91-.91c0-9.96-1.09-19.93-3.62-29.53-.18-.54.18-.91.72-1.09.37 0 .91.18.91.72m-9.6 67.57c2.72-13.22 3.45-26.81 2.35-40.4-.18-1.09 1.63-1.09 1.81 0 1.09 13.59.37 27.35-2.35 40.75-.18 1.26-1.99.72-1.81-.37m9.06 30.63c2.54-14.13 3.08-28.62 1.81-43.11-.18-1.09 1.63-1.09 1.81 0 1.26 14.49.72 29.16-1.81 43.47-.18 1.26-1.99.72-1.81-.37m-12.5 20.83c3.08-9.6 4.17-19.56 3.26-29.53-.18-1.09 1.63-1.09 1.81 0 .91 10.14-.18 20.29-3.26 30.07-.54.91-2.17.54-1.81-.54m-5.62-43.11c0-1.09 1.81-1.09 1.81 0-.37 5.08-.72 10.14-1.09 15.4 0 1.09-1.81 1.09-1.81 0 .37-5.25.72-10.33 1.09-15.4m-10.33 55.25c3.99-6.52 6.34-14.13 6.71-21.92 0-1.09 1.81-1.09 1.81 0-.37 7.97-2.72 15.94-6.88 22.82-.54.91-2.17 0-1.63-.91m24.63-166.11.91 17.93c0 1.09-1.81 1.09-1.81 0-.37-5.97-.72-11.96-.91-17.93 0-1.09 1.81-1.09 1.81 0m4.34-22.64 3.62 21.56c.18 1.09-1.45 1.63-1.81.54l-3.62-21.56c-.18-1.26 1.45-1.81 1.81-.54m10.14 77.53c.37 7.25.72 14.49 1.09 21.56 0 1.09-1.81 1.09-1.81 0-.37-7.25-.72-14.49-1.09-21.56-.18-1.09 1.63-1.09 1.81 0m-23.55 129.33c2.54-4.53 3.8-9.6 3.8-14.67 0-.54.37-.91.91-.91s.91.37.91.91c0 5.43-1.26 10.87-3.99 15.58-.18.37-.72.54-1.26.37-.54-.37-.54-.91-.37-1.26m-26.99 11.58c3.08-4.34 5.62-9.06 7.25-14.13.37-1.09 2.17-.54 1.81.54-1.81 5.25-4.34 10.14-7.43 14.49-.72.91-2.35.18-1.63-.91m-20.29 10.69c6.52-3.08 11.96-7.97 15.94-14.13.54-.91 2.17 0 1.63.91-4.17 6.34-9.79 11.42-16.67 14.67-1.09.54-1.99-.91-.91-1.45m12.31 13.59c3.99-3.08 6.52-7.79 7.25-12.86.18-1.09 1.99-1.09 1.81 0-.72 5.43-3.45 10.51-7.79 14.13-.91.72-2.17-.54-1.26-1.26m35.86-221.18c1.45-7.25 1.45-14.67.37-22.1-.18-1.09 1.45-1.63 1.81-.54 1.26 7.6 1.09 15.4-.37 23.01-.37 1.09-2.17.72-1.81-.37"/>
  <path fill="#4a5453" d="M539.88 488.67c-1.26-40.21-49.82-50.54-73.91-38.4 0 0 38.4-24.1 63.04-7.79 24.64 16.3 10.87 46.2 10.87 46.2"/>
  <path fill="#a6643c" d="M525.18 448.15c-43.75 18.12-100.04-6.97-101.25-.69-1.22 6.27 32.24 28.76 87.14 24.74 54.9-4.01 14.12-24.05 14.12-24.05m155.45 144.3c-1.57 0-3.48.17-5.4.17h-1.92c-19.87.35-51.94-.17-56.99-3.31-2.96-1.75-8.54-19.18-14.47-40.44-5.58-20.22-11.33-44.09-15.16-61.17l70.24 23.01s-11.5 25.97-11.5 41.3c0 5.4 1.39 9.41 5.23 10.63 14.47 4.54 47.92 28.93 29.97 29.8m259.85-9.77c.17 2.62-1.75 4.35-4.88 5.75-.52.17-.87.35-1.39.52-3.83 1.22-7.85 1.92-11.85 2.09-.52 0-1.04 0-1.57.17-10.98.69-23.53 0-28.41.17-5.75.17-14.12-32.42-19.87-58.04-3.66-16.56-6.27-30.32-6.27-30.32l41.48-32.59c-.17 9.06 0 22.14.35 35.2.35 20.04 1.22 40.09 2.27 45.66 1.57 8.89 29.63 19.87 30.15 31.37"/>
  <path fill="#707070" d="m586.7 487.71 70.24 23.01s-11.5 25.97-11.5 41.3c-15.51-.69-30.15-1.57-43.57-3.14-5.58-20.39-11.5-44.09-15.16-61.17m321.02 17.78c-8.37 10.63-20.56 20.04-35.38 27.71-3.66-16.56-6.27-30.32-6.27-30.32l41.48-32.59c-.17 9.06 0 22.14.17 35.2" opacity=".21" style="isolation:isolate"/>
  <path fill="#67443e" d="M907.19 321.98c17.43-4.71 39.38-.35 39.21 2.09s-9.06 37.99-9.06 37.99l-30.15-40.09Z"/>
  <path fill="#ba7043" d="M996.42 353.7c-8.02 13.07-42.69 39.56-88.19 37.3 0 0 17.43 41.48-.35 84.35-17.78 42.88-91.32 70.24-166.08 65.53-54.9-3.48-115.72-2.44-159.98-8.54-16.03-2.27-29.8-5.4-40.44-10.1-39.73-17.6-39.21-63.96-9.06-78.6s206.17-4 256.71-19.7c9.41-2.96 17.95-8.19 25.1-14.99 25.8-24.05 36.07-65.7 38.51-77.38.35-2.09.69-3.14.69-3.14 6.1-9.24 58.04-7.85 63.08-4.71 5.06 3.14 5.75 13.42 12.89 17.08s63.79.17 68.66 6.62c0 .17.17.17.17.35.35 1.39-.17 3.48-1.75 5.93"/>
  <path fill="#707070" d="M858.22 327.03s-9.93 89.93-26.14 97.94c-4 1.92-10.98-5.4-17.95-15.86 25.8-24.05 36.07-65.7 38.51-77.38 3.48-.52 4.88-6.79 5.58-4.71" opacity=".38" style="isolation:isolate"/>
  <path fill="#db824e" d="m998.33 347.42-.17.69-1.57 5.75c-4.71 7.67-18.64 20.04-38.69 28.41-2.62 1.04-5.4 2.09-8.37 3.14-13.24 4.54-27.19 6.45-41.13 5.75 0 0 17.43 41.48-.35 84.35-17.78 42.88-91.32 70.24-166.08 65.53-54.9-3.48-115.72-2.44-159.98-8.54l-1.75-1.39s201.81 9.41 259.32-19.87c57.52-29.28 34.51-134.89 41.82-141.17 7.32-6.27 81.04 1.04 116.77-22.31-.17-.17 0-.35.17-.35"/>
  <path fill="#ba7043" d="M613.36 600.29c-1.22 0-2.62.17-4 .17h-1.75c-4.88.17-10.46.17-16.39.17h-1.92c-17.6-.17-36.77-1.04-40.61-3.31-5.75-3.48-29.11-72.68-36.77-107.71l77.55 28.93s-20.74 47.23-6.27 51.94 47.92 29.11 30.15 29.8m267.88-8.18c.17 2.44-1.75 4.35-4.54 5.58-.52.17-1.04.35-1.57.52-3.83 1.22-7.67 1.92-11.68 2.09-.52 0-1.04.17-1.75.17-11.16.87-23.88 0-28.76.17-9.41.17-26.14-88.36-26.14-88.36l39.73-15.51c-.35 23.01 2.44 54.55 4.18 63.62 1.75 9.06 29.97 20.22 30.5 31.72"/>
  <path fill="#67443e" d="M858.74 325.11c-3.66-10.46-67.45 21.78-65.7 30.84s29.8 55.94 39.04 51.23c9.24-4.71 26.66-82.09 26.66-82.09"/>
  <path fill="#1a1a1a" d="M1000.77 344.29h-12.72c-.69 0-1.22.52-1.22 1.22 0 .35.17.52.35.87l8.71 6.79c.52.52 1.22.52 1.75 0l4-6.79c.52-.52.35-1.22 0-1.75-.35-.35-.69-.35-.87-.35"/>
  <path fill="#ededed" d="M877.56 350.39c-.17-4.54 3.48-8.19 8.02-8.19 4.54-.17 8.19 3.48 8.19 8.02.17 4.54-3.48 8.19-8.02 8.19s-8.19-3.48-8.19-8.02"/>
  <path d="M878.26 351.43c0-3.14 2.44-5.75 5.58-5.75s5.75 2.44 5.75 5.58-2.44 5.75-5.58 5.75c-2.96 0-5.58-2.44-5.75-5.58"/>
  <path fill="#fff" d="M880 353.87c0-1.04.87-2.09 1.92-2.09s2.09.87 2.09 1.92-.87 2.09-1.92 2.09c-1.22 0-2.09-.87-2.09-1.92"/>
  <path fill="#67443e" d="M957.73 382.27c-2.62 1.04-5.4 2.09-8.37 3.14-1.22 0-2.27-.17-3.48-.35l-1.75-.17-1.75-.35c-4.71-.69-9.41-1.75-13.94-3.14-4.54-1.22-9.06-2.96-13.42-5.06-.35-.17-.35-.35-.17-.69s.35-.35.69-.17c4.35 1.75 8.71 3.14 13.42 4.18 4.54 1.04 9.24 1.92 13.77 2.27l1.75.17 1.75.17c1.22 0 2.27.17 3.48.17 2.27 0 4.71 0 6.97-.17h1.04m-162.24 45.14c-3.66 2.62-7.5 4.88-11.5 6.62-.87.35-.17 1.75.87 1.39 4-1.75 8.02-4 11.5-6.62.69-.69-.17-2.09-.87-1.39m-28.93 5.93c-8.89 2.09-17.95 3.31-27.19 3.83-1.04 0-1.04 1.57 0 1.57 9.24-.52 18.47-1.75 27.53-3.83 1.04-.35.69-1.92-.35-1.57m5.58 6.97-24.92 5.58c-1.04.17-.52 1.75.35 1.57l24.92-5.58c1.04-.17.52-1.75-.35-1.57m-40.78 1.92c-9.24 1.57-18.64 2.09-28.06 1.57-1.04 0-1.04 1.57 0 1.57 9.58.52 18.99 0 28.41-1.57 1.04-.17.69-1.75-.35-1.57m-16.21-5.4c-14.64-.35-29.28 0-43.92.87-1.04 0-1.04 1.57 0 1.57 14.64-.87 29.28-1.22 43.92-.87.35 0 .69-.35.69-.87 0-.35-.35-.69-.69-.69m-28.92 7.13c-8.89-.35-17.78-.17-26.66.69-1.04.17-1.04 1.57 0 1.57 8.89-.87 17.78-1.04 26.66-.69.87 0 .87-1.57 0-1.57m-30.68-4.7h-10.98c-.35 0-.69.35-.69.87 0 .35.35.69.69.69h10.98c.35 0 .69-.35.69-.87 0-.35-.35-.69-.69-.69m-10.98 7.31c-6.45.52-13.07.69-19.7.35-1.04 0-1.04 1.57 0 1.57 6.62.35 13.07.17 19.7-.35 1.04 0 1.04-1.57 0-1.57m-20.39-5.75h-23.53c-.35 0-.69.35-.69.87 0 .35.35.69.69.69h23.53c.35 0 .69-.35.69-.87 0-.35-.35-.69-.69-.69m-20.38 6.27H592.8c-.35 0-.69.35-.69.87 0 .35.35.69.69.69h10.98c.35 0 .69-.35.69-.87 0-.35-.35-.69-.69-.69m272.91 150.58c-.52.17-1.04.35-1.57.52-4.54-5.58-9.58-10.81-15.16-15.51-.69-.69.35-1.75 1.04-1.04 5.75 4.88 10.98 10.28 15.68 16.03m-13.23 2.78c-.52 0-1.04.17-1.75.17-3.14-5.23-7.14-9.76-12.02-13.42-.87-.52 0-1.92.87-1.39 5.23 4 9.58 8.89 12.89 14.64m72.16-12.02c-.52.17-.87.35-1.39.52-4-6.45-9.24-12.2-15.33-16.73-.87-.52 0-1.92.87-1.39 6.27 4.88 11.68 10.81 15.86 17.6m-13.41 2.62c-.52 0-1.04 0-1.57.17-2.44-5.23-5.75-10.1-9.93-14.29-.69-.69.35-1.75 1.04-1.04 4.35 4.35 8.02 9.58 10.46 15.16m-246.95 1.57h-1.92c-3.48-4.18-7.32-8.02-11.68-11.33-.87-.69.35-1.75 1.04-1.04 4.71 3.48 8.89 7.67 12.55 12.37m-65.87 7.84h-1.75c-4.35-7.5-11.5-12.89-19.87-15.16-.35-.17-.69-.52-.52-1.04.17-.35.52-.52.87-.52 9.24 2.44 16.91 8.54 21.26 16.73m-17.94.17h-1.92c-2.96-4.54-6.27-8.54-9.93-12.37-.35-.35-.35-.87 0-1.04.35-.35.69-.35 1.04 0 4 4 7.67 8.54 10.81 13.42"/>
</svg>