<svg xmlns="http://www.w3.org/2000/svg" xmlns:xlink="http://www.w3.org/1999/xlink" viewBox="0 0 1043.82 601.49" width="100%" height="100%">
  <defs>
    <path id="a" fill="#5c6866" d="M683.81 186.33c-.18 1.45.18 2.72.91 3.99-.18-1.45-.54-2.72-.91-3.99"/>
  </defs>
  <path fill="#666793" d="M28.69 337.83c-30.65 16.96-31.21 53.56-26.54 80.7 9.49 51.76 32.88 102.15 72.22 140.41 20.15 19.61 45.82 36.08 75.94 41.04 8.83 1.44 17.82 1.78 26.65 1.33 6.95-.3 14.04-.76 20.68-2.79h.15c.79-.15 1.1-.94.8-1.57-.15-.79-.94-1.1-1.57-.8-5.68 1.41-11.52 2.34-17.36 2.48-8.37.45-16.72.28-25.08-.69C65.01 584.79 7.54 473.28 2.83 398.65c-1.05-21.62 4.69-48.11 28.22-59.56 21.79-10.2 47.04-13.29 70.54-10.71 19.4 2.26 37.52 9.4 53.43 18.9-14.24 16.37-4.83 38.47 6.02 53.02 20.6 26.55 45.09 10.67 33.64-17.58-7.22-15.01-21.08-26.4-35.41-35.9 17.7-15.73 53.33-4.76 75.73-5.97 21.14.21 41.82-8.57 57.16-21.78 24.81-20.44 28.2-53.41 17.07-79.31-6.74-16.11-17.91-31.43-34.6-40.31 11.58-29.63 8.99-62.92 27.19-90.8 25.96-37 79.59-36.25 113.76-13.29-18.33 12.11-31.93 30.36-34.2 50.55-2.74 23.18 5.23 52.86 25.71 67.26 9.6 6.8 22.7 5.11 30.14-4.03 6.97-8.5 9.04-19.38 9.06-29.47 5.34 6.32 11.48 13.12 20.47 15.19 13.09 2.24 14.85-11.17 11.56-19.22-11.91-30-29.35-60.65-57.69-80.91C475.29 60.32 531.88 77.02 563 124.1c14.46 22.28 19.76 49.58 39.74 68.87 10.86 10.59 26.13 19.62 43.34 17.77 21.78-2.63 39.8-19.31 46.47-37.75 14.65 6.51 32.01 6.7 47.95 2.16 9.94-2.34 19.57-6.1 29.68-7.5 18.31-2 36.75 1.98 52.66 11.17 22.68 13.15 45.8 42.55 30.28 67.75-4.09-5.37-10.39-9.02-17.17-9.66-7.25-.96-18.14 1.06-19.42 8.94-.81 8.04 8.17 13.12 16.06 13.92 7.57.65 15.15-2.48 20.22-8.32 6.27 13.11 3.56 28.25.22 42.12-3.19 12.14-6.37 24.44-12.07 35.94-.63 1.1-1.27 2.21-1.9 3.15-.95 1.42 1.57 2.69 2.52 1.11 6.97-11.19 9.68-23.96 13.34-36.09 4.14-15.93 7.81-33.58-.2-48.43 20.1-29.77-11.67-66.13-41.3-77.56-14.81-5.87-32.01-8.6-48.41-5.32-26.2 6.24-45.32 16.13-71.62 4.56 3.34-10.4 3.84-22.23-2.44-31.39-3.93-6.01-11.8-11.23-20.17-9.36-8.68 2.19-9.49 11.65-6.67 17.65 4.71 10.74 14.78 18.97 25.82 24.35-6.04 16.39-19.15 28.98-35.58 34.61-32.52 10.01-56.9-18.75-68.2-41.49-4.56-9.16-8.32-18.8-12.86-28.11-5.03-10.1-11.31-19.58-18.86-28.12-34.77-39.04-88.06-46.27-136.26-15.47-21.42-14.09-50.27-21.26-77.26-14.38-62.04 17.51-52.39 75.12-68.59 118.93-11.03-5.23-24.27-8.58-37.22-6.24-13.73 2.33-24.49 14.46-18.84 26.46 5.02 11.69 21.89 15.52 34.37 9.7 11.52-5.33 18.81-15.89 23.25-26.29 15.44 8.4 25.65 22.62 32.24 37.46 11.45 25.43 8.7 57.76-15.81 78.05-14.55 12.59-33.8 20.89-53.68 21.01-24.29 1.36-60.08-10.4-79.52 7.06-17.17-10.3-36.87-17.92-58.01-19.7-23.5-1.95-49.07 1.3-70.39 12.13m206.81-142.57c12.46-2.34 25.08 1.01 35.8 6.24-3.81 9.61-10.3 19.22-20.41 24.56-9.16 4.86-21.78 4.05-28.54-2.75-10.7-10.91-2.3-25.41 13.16-28.04m593.64 45.29c8.99-1.08 17.98 2.73 22.22 9.67-17.41 21.41-47.94-5.17-22.22-9.67M687.91 140.8c6.45 8.69 6.1 19.89 2.92 29.82-10.08-5.08-19.37-12.82-23.93-22.62-2.2-4.89-2.34-12.63 4.61-14.51 6.78-1.4 12.93 2.72 16.39 7.29m-253.68 10.43c5.99 3.65 7.54 13.74 8.79 20.05-3.62-5.53-10.53-13.28-8.79-20.05m-48.48 21.5c-6.87-29.36 4.08-56.78 32.36-75.17 24.72 16.47 39.97 41.27 52.05 66.23 2.82 6.16 6.12 12.47 6.9 19.27.92 10.26-7.45 12.61-15.63 7.21-6.3-3.96-10.71-9.34-15.11-14.71-.31-4.11-.93-8.2-2.02-12.16-5.15-21.63-20.93-18.19-9 1.55 1.73 3 3.77 5.69 5.81 8.53.79 1.42 2.51 2.53 2.36 4.26 1.07 14.52-5.63 41.63-27.54 37-17.65-5.4-26.59-26.72-30.19-42.04M163.55 399.61c-9.75-13.12-18.85-33.02-7.77-48.29.47-.63 1.1-1.26 1.58-1.89 13.38 8.7 26.3 19.15 33.68 32.73 12.24 24.96-7.05 43.05-27.49 17.44"/>
  <path fill="#f7d7ba" d="M445.78 563.12c-4.77 0-20.41.95-25.56 1.53-35.48 4.39-37.57 16.59-47.11 26.7 2.1 3.81 10.3 4.2 15.26 2.29 7.82 5.15 13.73 2.67 20.79.76 6.87 2.86 14.69 2.48 21.36-.76 8.39 4.58 18.5 5.72 27.66 3.05 7.25 2.1 16.02 4.2 28.99 0 19.07 3.81 43.3-.38 53.21-11.63 9.16 9.35 20.98 11.25 37.96 7.25-8.01 12.97 37.57 8.39 91.36 8.39 8.01 0 51.12 1.72 54.74-3.81 36.24-.57 76.48 3.62 109.86.38 38.91 6.29 109.86-.57 160.79 1.91 25.75 1.14 38.34-.19 40.44-9.54 2.86-13.54-1.14-27.47-22.32-27.47-41.77-10.49-5.72-72.29 12.59-109.48 12.02-23.46-18.5-64.09-49.78-69.04-35.48-27.85-86.97-18.31-111.58-4.39-8.96-4.96-26.13-2.29-38.53 3.81-16.4-3.43-35.29-10.11-58.75-5.72-44.44-12.97-125.5.38-172.99 25.94-43.11 23.46-62.18 75.34-69.04 133.51-12.4 24.6-61.99 26.32-79.34 26.32Z"/>
  <path fill="#2c1b0e" d="M942.83 379.83c14.88 51.31-16.4 77.63-36.05 80.11-16.98-4.96-43.49-41.77-18.69-79.34 12.78-10.3 41.96-21.74 54.74-.76"/>
  <path fill="#a88e76" d="M860.81 524.59c-1.34.19-2.29 1.53-2.1 2.86 0 .19 0 .38.19.38 2.67 7.06 4.77 13.35 8.2 18.69 3.62 5.91 9.16 10.11 15.64 12.4 24.6 8.77 51.12 8.58 77.06 9.54 1.34.19 2.67-.76 2.86-2.29.19-1.34-.76-2.67-2.29-2.86h-.38c-26.13-1.14-51.88-.95-75.53-9.35-5.53-1.72-10.11-5.34-13.16-10.3-2.86-4.58-4.96-10.68-7.63-17.74-.57-.76-1.72-1.53-2.86-1.34m-228.68-95.54c-1.34.19-2.48 1.53-2.29 2.86s1.53 2.48 2.86 2.29c11.06-.95 20.79 2.86 29.37 9.92 8.39 7.06 15.64 17.17 20.98 28.23 5.15 10.68 8.77 22.12 10.87 33.95 1.72 10.87 1.53 20.6-.38 26.51-5.34 16.02-14.5 26.13-27.27 33.19-12.78 7.06-28.99 10.68-48.26 13.16-1.34.19-2.48 1.53-2.29 2.86.19 1.34 1.53 2.48 2.86 2.29 19.65-2.67 36.62-6.29 50.16-13.73 14.3-7.63 24.99-20.6 29.56-36.05 2.48-7.44 2.48-17.55.57-28.99-2.1-12.21-5.91-24.22-11.25-35.48-5.34-11.44-12.97-21.55-22.51-29.75-9.16-8.01-20.98-11.83-33-11.06v-.19h.02Zm343.31-44.26c-5.34.57-10.49 2.67-14.88 6.1-4.96 3.62-8.2 9.16-9.16 15.07-.38 1.34.38 2.86 1.72 3.24 1.34.38 2.86-.38 3.24-1.72 0-.38.19-.57.19-.95.76-4.77 3.24-8.96 7.25-11.63 3.43-2.67 7.63-4.39 12.21-4.96 1.34 0 2.48-1.34 2.48-2.67s-1.14-2.48-2.67-2.48h-.38m24.8 12.97c-1.34 0-2.29 1.14-2.48 2.48-.38 5.53-3.24 10.68-7.82 13.92-4.96 3.81-12.4 6.87-22.51 8.77-1.34.19-2.48 1.34-2.29 2.86.19 1.34 1.34 2.48 2.86 2.29h.38c10.49-1.91 18.69-5.15 24.6-9.54 5.72-4.2 9.35-10.68 9.73-17.74.19-1.34-.95-2.67-2.29-2.86 0-.13-.06-.19-.19-.19m-120.34 60.85c-.76 0-1.72.38-2.1 1.14-6.48 10.49-8.77 23.08-6.1 35.29 1.91 9.73 6.48 18.69 13.16 25.94.95.95 2.67.95 3.62 0s.95-2.67 0-3.62c-6.1-6.48-10.11-14.5-11.83-23.27-2.48-10.87-.38-22.12 5.34-31.47.76-1.14.57-2.67-.76-3.62-.19-.19-.76-.38-1.34-.38m-19.45-80.12c-.38 0-.76.19-.95.38-9.92 6.48-12.97 18.5-13.92 22.89-.38 1.53.38 3.05 1.91 3.43 1.53.38 3.05-.38 3.43-1.91.95-4.2 4.01-14.5 11.63-19.65 1.34-.76 1.72-2.48.95-3.62-.76-1.14-1.91-1.72-3.05-1.53m-34.33 6.5c-.38 0-.76.19-1.14.57-2.86 2.29-4.77 5.53-5.72 9.16-.95 3.05-.57 6.48.95 9.35.76 1.14 2.29 1.53 3.62.76 1.14-.76 1.53-2.29.76-3.62-.76-1.72-.95-3.62-.38-5.34.57-2.48 2.1-4.77 4.01-6.48 1.14-.95 1.34-2.48.38-3.62-.57-.57-1.53-.95-2.48-.76m-57.79-6.7c-1.53 0-2.67 1.14-2.48 2.67 0 1.53 1.14 2.67 2.67 2.48 2.1.38 4.2 1.53 5.91 2.86 2.29 1.72 4.2 4.01 5.34 6.68.57 1.34 1.91 2.1 3.24 1.53s2.1-1.91 1.53-3.24v-.19c-1.53-3.43-4.01-6.48-7.06-8.77-2.86-2.1-5.91-4.01-9.16-4.01m46.74 104.51c-10.11 2.67-18.12 10.11-22.89 19.26-4.96 9.16-6.48 19.65-4.2 29.75.19 1.34 1.34 2.48 2.86 2.29s2.48-1.34 2.29-2.86v-.19c0-.19-.19-.57-.19-.76-1.91-8.96-.57-18.12 3.62-26.13 4.01-8.01 11.06-14.11 19.65-16.59 1.34-.38 2.29-1.72 1.91-3.24s-1.72-1.91-3.05-1.53"/>
  <path fill="#735c4a" d="M1022.55 492.17c8.58-7.06 14.3-20.41 4.39-37.57-26.51-13.16-39.86 3.05-47.3 11.44-5.53 6.29 11.63 21.17 18.12 28.04 8.2-4.2 15.26-4.96 24.8-1.91"/>
  <path fill="#a88e76" d="M810.65 561.21c-1.14.19-2.1 1.14-2.29 2.48-.76 6.87.38 13.73 3.24 19.84 3.05 5.91 8.01 10.49 14.3 12.78 1.14.76 2.86.38 3.43-.95.76-1.14.38-2.86-.95-3.43-.19-.19-.38-.19-.76-.19-5.15-1.72-9.16-5.53-11.63-10.3-2.48-5.34-3.43-11.25-2.86-17.17.19-1.34-.95-2.67-2.29-2.86.19-.19 0-.19-.19-.19m-109.1 1.52c-5.34-.38-10.68 0-15.83 1.14h-.38c-6.48.57-10.87.76-15.45 1.34-1.34.19-2.48 1.53-2.29 2.86s1.53 2.48 2.86 2.29c4.39-.57 8.77-.76 15.64-1.34.13 0 .25-.06.38-.19 9.73-2.1 19.84-1.34 29.18 2.29 3.81 1.34 6.87 4.01 8.96 7.44 1.53 3.05 1.72 6.68-.57 11.83-.57 1.34 0 2.86 1.34 3.43s2.86 0 3.43-1.34c2.67-6.1 2.67-11.83.38-16.4-2.48-4.58-6.68-8.01-11.44-9.73-5.15-2.1-10.68-3.24-16.21-3.62m309.56-115.39c-4.58 0-9.35 1.14-13.54 3.05-1.34.57-1.91 2.1-1.34 3.43s2.1 1.91 3.43 1.34c.19 0 .19-.19.38-.19 3.62-1.53 7.44-2.48 11.25-2.48 3.62-.19 7.06.38 10.3 1.91 1.14.76 2.86.38 3.62-.76s.38-2.86-.76-3.62c-4.2-2.1-8.77-3.05-13.35-2.67"/>
  <path d="M993.37 455.36c-1.53.19-2.67 1.53-2.67 3.05-.76 7.06 1.91 14.3 7.06 19.26 5.15 4.58 11.44 7.44 18.31 8.39 1.72.38 3.43-.57 3.81-2.29s-.57-3.43-2.29-3.81h-.57c-5.53-.76-10.68-3.05-14.88-6.68-3.81-3.62-5.72-8.96-4.96-14.11.19-1.72-1.14-3.43-2.86-3.62-.38-.19-.57-.19-.95-.19"/>
  <path fill="#3d2d23" d="M1042.77 540.81c5.72 16.78-12.97 25.18-31.85 30.9-25.56 7.82-46.35-2.29-58.55-16.4-5.91-13.16-11.44-64.85 25.18-58.36 15.45-5.72 38.53-8.96 44.25-7.25 10.3 2.67 24.22 25.94 20.98 51.12"/>
  <path d="M1038.96 511.24c-15.07.76-23.65-19.45-14.3-21.36 14.5-1.53 17.55 12.02 14.3 21.36m-72.86 21.17c-1.34.19-2.29 1.53-2.1 2.86 0 .19.19.57.19.76 8.58 17.55 20.03 26.7 33 28.04 12.97 1.34 26.7-4.96 41.2-16.21 1.14-.76 1.72-2.29.95-3.43-.76-1.14-2.1-1.53-3.43-.95l-.57.57c-13.92 10.68-26.7 16.21-37.57 15.07-10.87-1.14-20.6-8.39-28.8-25.18-.57-1.14-1.72-1.72-2.86-1.53"/>
  <path fill="#a88e76" d="M957.52 484.54c-3.43.38-6.87 1.91-9.35 4.2-5.91 5.34-8.2 13.92-5.34 21.36.19 1.34 1.53 2.29 2.86 2.1s2.29-1.53 2.1-2.86v-.19c0-.19-.19-.57-.19-.76-2.1-5.72-.57-12.02 4.01-16.02 3.62-3.62 9.16-4.01 13.35-1.34 1.14.95 2.67.57 3.62-.57.76-1.14.76-2.67-.38-3.43-.19 0-.19-.19-.38-.19-3.05-1.91-6.68-2.67-10.3-2.29"/>
  <path fill="#4a5453" d="M616.36 585.44c1.99 9.61 41.34 9.61 54.94 9.43h4.53s-2.36-24.66-30.1-38.62l11.61-88.85 10.88-83.59-40.98 49.5c-.36 6.17-1.45 18.5-2.72 33.55-3.99 43.34-9.97 109.89-8.16 118.59"/>
  <path fill="#5c6866" d="M370.47 293.86c13.6 63.1-29.19 156.67 23.03 196.38s-68.91 54.22-79.42 45.88c-10.52-8.34 27.2-32.46 27.2-32.46s-60.56 11.42-66.91 0 43.88-17.77 43.88-17.77-62.74 4.17-62.74-13.6 43.88-15.59 43.88-15.59-37.54-2.18-43.88-25.02c-6.35-22.85 39.71-4.17 39.71-4.17s-37.54-18.86-31.37-37.54c6.17-18.68 37.54 15.59 37.54 15.59s-23.03-65.82-6.35-65.82 23.03 37.54 23.03 37.54-2.18-81.42 12.51-75.25 10.52 27.2 10.52 27.2 23.03-64.55 29.38-35.36"/>
  <path fill="#4a5453" d="M620.16 440.01c35.54 6.17-32.1 111.34-57.12 118.95 0 0 35.36 7.8 33.91 20.85s-100.46 0-100.46 0l-53.31-18.5 68.72-73.44L620.15 440h.01Z"/>
  <path fill="#5c6866" d="M363.58 588.52c12.87 8.52 112.61 11.24 133.46 11.61h3.45c6.89 0 3.81-25.57-27.74-30.1 0 0 64.01-46.42 69.27-65.28-.91 16.14-4.71 81.96-1.27 90.67 2.18 5.62 19.4 6.35 34.09 5.98h1.81c5.62-.18 10.7-.54 14.33-.91.73 0 1.27-.18 1.81-.18 1.81-.18 2.9-.18 2.9-.18s-4.71-23.94-20.85-29.38l12.33-97.37 2.54-1.81 32.28-24.48c-.36.54-15.05 18.31-9.97 21.58 3.81 2.54 8.16 1.45 12.69-1.99 16.86-13.06 35.54-58.39 36.08-59.84-.18 1.45-9.97 61.83-4.71 61.83.36 0 .91-.54 1.45-1.45 7.98-12.69 33.36-101.36 33.36-101.36s1.63 27.02 7.8 27.02c5.8 0-.73-52.4-12.51-81.05 2.72 5.08 7.8 12.33 14.87 11.42 10.7-1.45-23.75-88.13-24.66-90.48.54 1.09 11.06 19.22 17.77 14.69 4.35-2.9-2.36-30.46-8.89-57.48-.36-1.27-.54-2.54-.91-3.99s-.54-2.54-.91-3.99c-3.26-13.6-6.17-26.47-7.07-35v-.18c-2.18-18.31-47.15-21.03-76.16-20.85-13.96 0-24.3.73-24.3.73-5.08 11.24-10.88 21.94-17.41 32.46-25.57 42.07-60.93 85.59-59.11 90.48 2.36 6.17 25.57-9.25 25.57-9.25s-96.65 99.73-91.21 104.26c5.26 4.53 40.62-18.68 41.71-19.22-1.81 2.36-129.65 165.92-108.98 237.36-.73.18-16.86 16.5-2.9 25.75"/>
  <use xlink:href="#a" fill="#5c6866"/>
  <use xlink:href="#a" fill="#5c6866"/>
  <path fill="#abc2be" d="M616.36 323.42s-5.08 103.9-23.94 125.3l-2.9 22.85 32.28-24.48c-.36.54-15.05 18.31-9.97 21.58 18.31 12.15 48.05-60.2 48.78-61.83-.18 1.45-9.97 61.83-4.71 61.83s34.82-102.81 34.82-102.81 1.63 27.02 7.8 27.02c5.8 0-.73-52.4-12.51-81.05 2.72 5.08 7.8 12.51 14.87 11.42 10.7-1.45-23.75-88.13-24.66-90.3.54 1.09 11.06 19.22 17.77 14.69 6.89-4.71-14.69-73.26-17.77-100.28l-45.88 6.17c-20.13 58.39-54.22 132.73-43.34 138.9 7.98 4.53 20.31-15.41 26.11-26.11-9.79 19.4-38.08 76.88-28.47 83.23 11.61 7.8 31.73-26.11 31.73-26.11"/>
  <path fill="#707070" d="M575.38 127.04s10.34-.73 24.3-.73c29.01-.18 74.16 2.72 76.16 20.85v.18c1.09 8.7 3.81 21.4 7.07 35-10.52 3.63-45.33 15.05-51.86 9.79-7.62-5.98 14.69-15.05 15.41-15.41-1.27.18-51.5 5.98-80.33-10.7-1.63-.91-3.26-1.99-4.71-3.08-1.27-.91-2.54-1.99-3.45-3.26 6.35-10.7 12.15-21.58 17.41-32.64" opacity=".54" style="isolation:isolate"/>
  <path fill="#5c6866" d="M561.41 138.64c1.45 1.09 3.08 2.18 4.71 3.08 28.65 16.86 78.88 10.88 80.33 10.7-.91.36-23.03 9.43-15.41 15.41 7.62 6.17 54.04-10.52 54.94-10.88-.18.18-4.53 6.17 0 9.97s52.59-21.22 53.31-21.58c-.36.36-13.78 15.59-8.52 20.85s39.35-25.57 39.35-25.57-4.71 16.32 0 16.32 16.32-26.29 16.32-26.29 0 12.33 6.89 12.33 6.17-26.29 0-41.71c-6.17-15.41-74.16-23.75-81.24-35.36-3.26-5.62-5.8-15.96-8.34-26.66-2.72-11.61-5.26-23.75-8.7-30.64-3.81-7.8-60.2-7.8-75.8 0-15.59 7.8-54.04 52.59-50.95 58.03s17.77-2.36 17.77-2.36-52.4 53.49-24.66 74.35"/>
  <path fill="#5c6866" d="M630.14 14.98C628.51-.43 537.3-2.79 530.41 2.65c-6.89 5.44-46.96 46.24-40.8 49.32 6.16 3.08 27.02-13.96 27.02-13.96s-35.54 39.35-27.74 47.87c7.8 8.52 31.73 13.06 35.54 13.06s10.88-25.57 10.88-25.57-3.08 30.1 2.36 25.57S550 32.39 561.61 27.13c11.61-5.26 54.94 2.36 54.94 2.36l13.6-14.51h-.01Zm45.69-3.99s50.95-13.96 61.11-8.52 35.54 37.17 28.65 40.98-14.69-14.69-14.69-14.69 18.5 33.18 7.8 42.43-23.39 5.62-29.56 3.63-.73-49.14-7.62-50.05-37.9 1.63-37.9 1.63l-7.8-15.41Z"/>
  <path fill="#abc2be" d="M646.46 152.61c-.91.36-23.03 9.43-15.41 15.41 7.62 6.17 54.04-10.52 54.94-10.88-.18.18-4.53 6.17 0 9.97s52.59-21.22 53.31-21.58c-.36.36-13.78 15.59-8.52 20.85s39.35-25.57 39.35-25.57-4.71 16.32 0 16.32 16.32-26.29 16.32-26.29 0 12.33 6.89 12.33 6.17-26.29 0-41.71c-6.17-15.41-74.16-23.94-81.24-35.54-3.26-5.62-5.8-15.96-8.34-26.66-10.34-9.79-28.11-5.08-21.76 28.11h-8.52s-6.17-28.65-23.94-27.74c-17.77.91-25.57 13.96-23.21 37.9 0 0-34.82 8.52-35.54 17.77-.73 9.07 17.77.36 18.5 0-1.09.73-37.9 25.57-36.99 30.83.54 4.17 15.23-2.72 21.76-6.17-6.17 3.45-20.31 11.79-27.74 21.58 28.47 17.05 78.7 11.06 80.15 11.06"/>
  <path fill="#1a1a1a" d="m791.88 92.04-28.83-.91c-1.45 0-2.72 1.09-2.72 2.54 0 .73.18 1.27.73 1.81l19.4 16.32c.91 1.09 2.72 1.27 3.81.36l.18-.18 9.61-15.41c1.09-1.09 1.09-2.72 0-3.81-.91-.36-1.45-.54-2.18-.73"/>
  <path fill="#ededed" d="M659.88 61.03c-1.45-5.26-6.89-8.34-12.33-6.89s-8.34 6.89-6.89 12.33c1.45 5.26 6.89 8.34 12.33 6.89 5.44-1.63 8.34-7.07 6.89-12.33"/>
  <path d="M659.51 63.03c-1.09-3.81-4.9-5.8-8.7-4.9-3.81 1.09-5.8 4.9-4.9 8.7s4.9 5.8 8.7 4.9c3.81-1.27 5.98-5.08 4.9-8.7"/>
  <path fill="#fff" d="M658.24 65.75c-.36-1.27-1.63-1.99-3.08-1.63-1.45.36-1.99 1.63-1.63 3.08.36 1.27 1.63 1.99 3.08 1.63 1.27-.36 1.99-1.63 1.63-3.08"/>
  <path fill="#ededed" d="M708.11 56.14c-1.45-5.26-6.89-8.34-12.33-6.89s-8.34 6.89-6.89 12.33c1.45 5.26 6.89 8.34 12.33 6.89 5.26-1.63 8.34-7.07 6.89-12.33"/>
  <path d="M707.57 58.13c-1.09-3.63-4.9-5.8-8.7-4.9-3.63 1.09-5.8 4.9-4.9 8.7 1.09 3.63 4.9 5.8 8.7 4.9 3.81-1.09 5.98-4.9 4.9-8.7"/>
  <path fill="#fff" d="M706.3 61.03c-.36-1.27-1.63-1.99-3.08-1.63-1.27.36-1.99 1.63-1.63 3.08.36 1.27 1.63 1.99 3.08 1.63 1.27-.36 1.99-1.81 1.63-3.08"/>
  <path fill="#464f4e" d="M578.82 582.18c4.71 5.62 8.7 11.79 11.97 18.31.73 0 1.27-.18 1.81-.18-3.26-7.07-7.62-13.6-12.51-19.4-.73-.91-1.99.36-1.27 1.27m-9.43 3.26c2.36 5.08 3.99 10.52 5.26 15.96h1.81c-1.27-5.8-3.08-11.42-5.44-16.68-.54-1.09-2.18-.18-1.63.73M482.53 580c6.89 4.9 11.97 11.97 14.51 19.95h1.81c-2.54-8.7-7.98-16.32-15.41-21.58-.91-.54-1.81 1.09-.91 1.63"/>
  <path fill="#2f3635" d="M650.81 571.84c9.61 4.53 17.05 12.87 20.49 22.85h1.81c-3.45-10.7-11.24-19.58-21.4-24.48-1.09-.36-1.99 1.09-.91 1.63"/>
  <path fill="#464f4e" d="M543.1 208.27c4.9-5.62 8.52-12.33 10.52-19.4.18-.54.73-.73 1.09-.54.36.18.73.54.54 1.09-2.18 7.43-5.98 14.33-11.06 20.31-.54.73-1.81-.54-1.09-1.45m-14.33 57.84c16.86-16.86 28.65-37.9 34.27-60.93.18-1.09 1.99-.73 1.81.54-5.62 23.39-17.77 44.79-34.82 61.83-.36.36-.91.36-1.27 0s-.36-1.09 0-1.45m-28.82 14.33 18.31-23.21c.73-.91 1.99.36 1.27 1.27l-18.31 23.21c-.73.91-1.99-.36-1.27-1.27m-9.06 37.9c9.43-10.15 16.32-22.3 19.95-35.72.18-.54.73-.73 1.09-.54.36.18.73.54.54 1.09-3.81 13.6-10.88 26.11-20.49 36.45-.54.91-1.81-.36-1.09-1.27m-18.14-3.64c4.71-4.53 8.52-9.97 11.24-15.78.54-1.09 1.99-.18 1.63.91-2.72 6.17-6.71 11.61-11.42 16.14-1.09.73-2.36-.54-1.45-1.27m54.22-23.75c5.62-4.17 9.61-10.34 10.88-17.23.18-1.09 1.99-.73 1.81.54-1.45 7.43-5.62 13.96-11.79 18.31-.91.54-1.81-.91-.91-1.63m-43.87 55.68c8.16-8.34 14.87-17.77 20.13-28.29.54-1.09 1.99-.18 1.63.91-5.44 10.52-12.33 20.13-20.49 28.65-.73.91-1.99-.36-1.27-1.27m-24.66 14.69c7.8-5.62 13.42-13.6 15.96-22.85.18-.54.73-.73 1.09-.54.54.18.73.54.54 1.09-2.72 9.61-8.7 17.95-16.68 23.94-.91.54-1.81-.91-.91-1.63m75.79-118.78c4.35-4.17 6.71-9.79 6.89-15.78 0-1.09 1.81-1.09 1.81 0-.18 6.35-2.9 12.51-7.43 17.05-.91.91-2.18-.36-1.27-1.27m-11.06-16.32c3.26-3.08 5.26-7.43 5.44-11.97 0-1.09 1.81-1.09 1.81 0-.36 4.9-2.36 9.61-5.98 13.24-.91.73-1.99-.54-1.27-1.27M435.03 403.2c4.35-4.71 7.98-10.34 10.52-16.14.54-1.09 1.99-.18 1.63.91-2.72 5.98-6.35 11.61-10.88 16.5-.91.91-2.18-.36-1.27-1.27m21.39-18.31c4.17-3.26 6.89-8.16 7.43-13.6.18-1.09 1.81-1.09 1.81 0-.36 5.8-3.26 11.24-7.98 14.87-.91.73-2.18-.54-1.27-1.27m19.78-1.81c5.08-5.44 8.89-11.97 11.06-19.22.18-.54.73-.73 1.09-.54.54.18.73.54.54 1.09-2.18 7.43-6.17 14.33-11.42 20.13-.73.73-1.99-.54-1.27-1.45m-72.17 59.83 8.7-18.13c.54-1.09 1.99-.18 1.63.91l-8.7 18.13c-.54 1.09-2.18.18-1.63-.91m18.13-7.44 18.13-18.13c.36-.36.91-.36 1.27 0s.36.91 0 1.27l-18.13 18.13c-.36.36-.91.36-1.27 0s-.36-.91 0-1.27"/>
  <path fill="#97aba7" d="M676.92 263.76c2.54 9.79 3.81 19.95 3.81 29.92 0 .54-.36.91-.91.91s-.91-.36-.91-.91c0-9.97-1.09-19.95-3.63-29.56-.18-.54.18-.91.73-1.09.36 0 .91.18.91.73m-9.61 67.64c2.72-13.24 3.45-26.84 2.36-40.44-.18-1.09 1.63-1.09 1.81 0 1.09 13.6.36 27.38-2.36 40.8-.18 1.27-1.99.73-1.81-.36m9.07 30.64c2.54-14.14 3.08-28.65 1.81-43.16-.18-1.09 1.63-1.09 1.81 0 1.27 14.51.73 29.19-1.81 43.52-.18 1.27-1.99.73-1.81-.36m-12.52 20.86c3.08-9.61 4.17-19.58 3.26-29.56-.18-1.09 1.63-1.09 1.81 0 .91 10.15-.18 20.31-3.26 30.1-.54.91-2.18.54-1.81-.54m-5.62-43.16c0-1.09 1.81-1.09 1.81 0-.36 5.08-.73 10.15-1.09 15.41 0 1.09-1.81 1.09-1.81 0 .36-5.26.73-10.34 1.09-15.41m-10.33 55.3c3.99-6.53 6.35-14.14 6.71-21.94 0-1.09 1.81-1.09 1.81 0-.36 7.98-2.72 15.96-6.89 22.85-.54.91-2.18 0-1.63-.91m24.66-166.28.91 17.95c0 1.09-1.81 1.09-1.81 0-.36-5.98-.73-11.97-.91-17.95 0-1.09 1.81-1.09 1.81 0m4.35-22.66 3.63 21.58c.18 1.09-1.45 1.63-1.81.54l-3.63-21.58c-.18-1.27 1.45-1.81 1.81-.54m10.16 77.61c.36 7.25.73 14.51 1.09 21.58 0 1.09-1.81 1.09-1.81 0-.36-7.25-.73-14.51-1.09-21.58-.18-1.09 1.63-1.09 1.81 0M663.5 413.18c2.54-4.53 3.81-9.61 3.81-14.69 0-.54.36-.91.91-.91s.91.36.91.91c0 5.44-1.27 10.88-3.99 15.59-.18.36-.73.54-1.27.36-.54-.36-.54-.91-.36-1.27m-27.03 11.61c3.08-4.35 5.62-9.07 7.25-14.14.36-1.09 2.18-.54 1.81.54-1.81 5.26-4.35 10.15-7.43 14.51-.73.91-2.36.18-1.63-.91m-20.31 10.7c6.53-3.08 11.97-7.98 15.96-14.14.54-.91 2.18 0 1.63.91-4.17 6.35-9.79 11.42-16.68 14.69-1.09.54-1.99-.91-.91-1.45m12.34 13.59c3.99-3.08 6.53-7.8 7.25-12.87.18-1.09 1.99-1.09 1.81 0-.73 5.44-3.45 10.52-7.8 14.14-.91.73-2.18-.54-1.27-1.27m35.91-221.4c1.45-7.25 1.45-14.69.36-22.12-.18-1.09 1.45-1.63 1.81-.54 1.27 7.62 1.09 15.41-.36 23.03-.36 1.09-2.18.73-1.81-.36"/>
  <path fill="#4a5453" d="M539.47 489.15c-1.27-40.26-49.87-50.59-73.98-38.44 0 0 38.44-24.12 63.1-7.8 24.66 16.32 10.88 46.24 10.88 46.24"/>
</svg>