<svg xmlns="http://www.w3.org/2000/svg" xmlns:xlink="http://www.w3.org/1999/xlink" viewBox="0 0 1074.12 636.44">
  <defs>
    <path id="a" fill="#5c6866" d="M744.69 192.9c-.19 1.5.19 2.82.94 4.13-.19-1.5-.56-2.82-.94-4.13"/>
  </defs>
  <path fill="#666793" d="M44.51 342.17C10.58 351.95 1.8 387.78.28 415.5c-2.31 53 9.35 107.77 39.41 154.21 15.39 23.8 36.91 45.75 65.4 57.4 8.36 3.4 17.12 5.76 25.89 7.3 6.89 1.26 13.97 2.41 20.94 1.91l.15.04c.81.03 1.3-.68 1.14-1.37.03-.81-.68-1.3-1.37-1.14-5.9.1-11.84-.29-17.62-1.47-8.32-1.44-16.49-3.48-24.49-6.31C24.68 593.01-6.73 470.52 5.43 396.12c3.83-21.48 15.43-46.22 41.12-52.19 23.71-5.13 49.21-2.49 71.73 5.33 18.55 6.58 34.75 17.67 48.26 30.59-17.67 12.89-13.39 36.72-6 53.45 14.28 30.72 41.91 20.62 37.01-9.72-3.72-16.37-14.78-30.68-26.72-43.24 20.93-11.48 53.48 7.31 75.76 11.16 20.73 4.95 43.02.98 61.07-8.56 28.98-14.51 39.72-46.14 34.61-74.1-3-17.34-10.53-34.91-24.94-47.39 18.04-26.52 22.98-59.81 47.13-83.11 33.83-30.53 86.36-17.73 114.78 12.51-20.74 7.78-38.21 22.66-44.97 41.99-7.91 22.16-6.74 53.12 10.15 71.88 7.91 8.84 21.16 10.12 30.53 2.81 8.76-6.79 13.24-17.01 15.53-26.93 3.83 7.41 8.33 15.48 16.7 19.53 12.36 5.15 17.1-7.64 15.68-16.29-4.96-32.16-15.21-66.19-38.51-92.48 61.45-21.53 113.31 7.6 133.31 60.86 9.2 25.14 8.27 53.17 23.57 76.61 8.29 12.85 21.27 25.16 38.6 27.2 21.99 2.31 43.45-10.03 54.15-26.65 12.94 9.69 29.95 13.78 46.63 12.9 10.3-.07 20.61-1.6 30.85-.7 18.44 2.15 35.67 10.21 49.24 22.81 19.33 18.02 35.44 52.11 14.52 73.38-2.81-6.2-8.18-11.2-14.7-13.35-6.91-2.58-18.06-3.04-21.1 4.42-2.61 7.72 5.08 14.73 12.65 17.29 7.29 2.34 15.45.96 21.73-3.63 3.22 14.3-2.85 28.56-9.25 41.44-5.86 11.22-11.75 22.59-19.94 32.6-.87.94-1.75 1.89-2.58 2.67-1.25 1.18.94 2.99 2.23 1.65 9.37-9.43 14.89-21.37 21.22-32.47 7.65-14.72 15.22-31.24 10.69-47.63 26.45-24.73 3.4-67.61-23.15-85.5-13.23-9.1-29.52-15.64-46.38-16.11-27.15.25-48.16 5.67-71.41-11.62 5.62-9.47 8.77-20.99 4.66-31.4-2.51-6.79-9.07-13.69-17.72-13.73-9.02.2-11.95 9.32-10.52 15.84 2.21 11.61 10.26 21.96 19.89 29.73-9.62 14.75-25.34 24.17-42.74 26.02-34.21 2.53-51.7-31.21-57.69-56.1-2.42-10.02-3.95-20.34-6.32-30.51-2.67-11.06-6.71-21.79-12.21-31.87-25.39-46.18-76.14-65.27-130.42-45.84-17.88-18.67-44.62-32.19-72.69-31.5-64.9 3.27-68.37 62.04-94.14 101.45-9.66-7.62-21.92-13.88-35.17-14.5-14.02-.79-27.32 8.7-24.46 21.76 2.31 12.62 18.02 20.17 31.59 17.26 12.52-2.65 22.06-11.39 28.76-20.61 13.29 11.73 20.12 28 23.26 44.06 5.54 27.56-4.44 58.71-33.08 73.14-17.12 9.1-37.92 12.93-57.48 8.58-24.18-4.12-56.7-23.73-79.73-10.94-14.55-13.98-32.2-25.9-52.57-32.4-22.66-7.2-48.51-9.75-71.9-3.9m235.28-93.61c12.77.51 24.42 6.63 33.78 14.18-5.9 8.59-14.45 16.57-25.58 19.55-10.09 2.72-22.31-.91-27.43-9.12-8.07-13.13 3.45-25.48 19.24-24.6m573.18 177.96c9.08.96 17.05 6.72 19.66 14.5-21.92 17.12-45.95-15.85-19.66-14.5m-116.4-129.75c4.39 9.99 1.53 20.92-3.83 29.96-8.76-7.25-16.15-16.96-18.43-27.61-1.06-5.3.54-12.94 7.79-13.22 6.98.15 12.09 5.58 14.47 10.85m-251.63-46.78c5.07 4.93 4.32 15.2 4.13 21.68-2.31-6.25-7.37-15.41-4.13-21.68m-52.47 10.23c-.16-30.39 16.77-54.88 48.7-66.59 20.59 21.74 30 49.54 36.26 76.78 1.39 6.69 3.21 13.63 2.45 20.48-1.4 10.29-10.15 10.71-16.99 3.58-5.3-5.3-8.42-11.58-11.54-17.85.62-4.1.93-8.27.75-12.4-.2-22.41-16.48-22.58-9.19-.5 1.03 3.34 2.43 6.44 3.79 9.69.46 1.57 1.9 3.05 1.36 4.72-2.22 14.51-14.89 39.65-35.38 30.17-16.13-9.28-20.12-32.23-20.21-48.1M163.17 433.14c-6.63-15.09-11.1-36.68 3.22-49.2.61-.51 1.37-.99 1.98-1.5 11.2 11.56 21.54 24.73 25.73 39.74 6.42 27.28-16.6 40.72-30.94 10.96"/>
  <path fill="#4a5453" d="M674.87 606.04c2.06 9.95 42.8 9.95 56.88 9.76h4.69s-2.44-25.53-31.16-39.98l12.01-91.98 11.26-86.53-42.42 51.24c-.38 6.38-1.5 19.15-2.82 34.73-4.13 44.86-10.32 113.75-8.45 122.76"/>
  <path fill="#5c6866" d="M420.33 304.21c14.08 65.32-30.22 162.18 23.84 203.29 54.06 41.11-71.33 56.12-82.22 47.49-10.89-8.63 28.16-33.6 28.16-33.6s-62.69 11.83-69.26 0c-6.57-11.83 45.43-18.4 45.43-18.4s-64.95 4.32-64.95-14.08 45.43-16.14 45.43-16.14-38.86-2.25-45.43-25.9 41.11-4.32 41.11-4.32-38.86-19.52-32.47-38.86 38.86 16.14 38.86 16.14-23.84-68.14-6.57-68.14 23.84 38.86 23.84 38.86-2.25-84.28 12.95-77.9 10.89 28.16 10.89 28.16 23.84-66.82 30.41-36.6"/>
  <path fill="#4a5453" d="M678.81 455.5c36.79 6.38-33.22 115.25-59.13 123.14 0 0 36.6 8.07 35.1 21.59s-103.99 0-103.99 0l-55.19-19.15 71.14-76.02L678.8 455.5Z"/>
  <path fill="#5c6866" d="M413.2 609.24c13.33 8.82 116.57 11.64 138.15 12.01h3.57c7.13 0 3.94-26.47-28.72-31.16 0 0 66.26-48.05 71.7-67.58-.94 16.71-4.88 84.84-1.31 93.85 2.25 5.82 20.08 6.57 35.29 6.19h1.88c5.82-.19 11.07-.56 14.83-.94.75 0 1.31-.19 1.88-.19 1.88-.19 3-.19 3-.19s-4.88-24.78-21.59-30.41l12.76-100.8 2.63-1.88 33.41-25.34c-.38.56-15.58 18.96-10.32 22.34 3.94 2.63 8.45 1.5 13.14-2.06 17.46-13.52 36.79-60.44 37.35-61.94-.19 1.5-10.32 64.01-4.88 64.01.38 0 .94-.56 1.5-1.5 8.26-13.14 34.54-104.93 34.54-104.93s1.69 27.97 8.07 27.97c6.01 0-.75-54.25-12.95-83.91 2.82 5.26 8.07 12.76 15.39 11.83 11.07-1.5-24.59-91.23-25.53-93.67.56 1.13 11.45 19.9 18.4 15.2 4.5-3-2.44-31.54-9.2-59.5-.38-1.31-.56-2.63-.94-4.13s-.56-2.63-.94-4.13c-3.38-14.08-6.38-27.41-7.32-36.23v-.19c-2.25-18.96-48.8-21.77-78.84-21.59-14.45 0-25.15.75-25.15.75-5.26 11.64-11.26 22.71-18.02 33.6-26.47 43.55-63.07 88.6-61.19 93.67 2.44 6.38 26.47-9.57 26.47-9.57s-100.05 103.24-94.42 107.93c5.44 4.69 42.05-19.33 43.17-19.9-1.88 2.44-134.21 171.75-112.81 245.71-.75.19-17.46 17.08-3 26.65"/>
  <use xlink:href="#a" fill="#5c6866"/>
  <use xlink:href="#a" fill="#abc2be"/>
  <path fill="#abc2be" d="M674.87 334.81s-5.26 107.56-24.78 129.71l-3 23.65 33.41-25.34c-.38.56-15.58 18.96-10.32 22.34 18.96 12.58 49.74-62.32 50.49-64.01-.19 1.5-10.32 64.01-4.88 64.01s36.04-106.43 36.04-106.43 1.69 27.97 8.07 27.97c6.01 0-.75-54.25-12.95-83.91 2.82 5.26 8.07 12.95 15.39 11.83 11.07-1.5-24.59-91.23-25.53-93.48.56 1.13 11.45 19.9 18.4 15.2 7.13-4.88-15.2-75.83-18.4-103.8l-47.49 6.38c-20.84 60.44-56.12 137.4-44.86 143.78 8.26 4.69 21.02-15.96 27.03-27.03-10.14 20.08-39.42 79.59-29.47 86.16 12.01 8.07 32.85-27.03 32.85-27.03"/>
  <path fill="#707070" d="M632.44 131.52s10.7-.75 25.15-.75c30.03-.19 76.77 2.82 78.84 21.59v.19c1.13 9.01 3.94 22.15 7.32 36.23-10.89 3.75-46.93 15.58-53.68 10.14-7.88-6.19 15.2-15.58 15.96-15.96-1.31.19-53.31 6.19-83.15-11.07-1.69-.94-3.38-2.06-4.88-3.19-1.31-.94-2.63-2.06-3.57-3.38 6.57-11.07 12.58-22.34 18.02-33.79" opacity=".54" style="isolation:isolate"/>
  <path fill="#5c6866" d="M617.99 143.53c1.5 1.13 3.19 2.25 4.88 3.19 29.66 17.46 81.65 11.26 83.15 11.07-.94.38-23.84 9.76-15.96 15.96 7.88 6.38 55.94-10.89 56.88-11.26-.19.19-4.69 6.38 0 10.32 4.69 3.94 54.44-21.96 55.19-22.34-.38.38-14.27 16.14-8.82 21.59 5.63 5.63 40.73-26.47 40.73-26.47s-4.88 16.89 0 16.89 16.89-27.22 16.89-27.22 0 12.76 7.13 12.76 6.38-27.22 0-43.17-76.77-24.59-84.09-36.6c-3.38-5.82-6.01-16.52-8.63-27.59-2.82-12.01-5.44-24.59-9.01-31.72-3.94-8.07-62.32-8.07-78.46 0s-55.94 54.44-52.75 60.07 18.4-2.44 18.4-2.44-54.25 55.37-25.53 76.96"/>
  <path fill="#5c6866" d="M689.13 15.51C687.44-.45 593.02-2.89 585.89 2.75s-48.62 47.87-42.23 51.06 27.97-14.45 27.97-14.45-36.79 40.73-28.72 49.56c8.07 8.82 32.85 13.52 36.79 13.52s11.26-26.47 11.26-26.47-3.19 31.16 2.44 26.47 12.76-68.89 24.78-74.33c12.01-5.44 56.88 2.44 56.88 2.44l14.08-15.02Zm47.3-4.13s52.75-14.45 63.26-8.82c10.51 5.63 36.79 38.48 29.66 42.42s-15.2-15.2-15.2-15.2 19.15 34.35 8.07 43.92c-11.07 9.57-24.21 5.82-30.6 3.75s-.75-50.87-7.88-51.81c-7.13-.94-39.23 1.69-39.23 1.69l-8.07-15.96Z"/>
  <path fill="#abc2be" d="M706.03 157.98c-.94.38-23.84 9.76-15.96 15.96 7.88 6.38 55.94-10.89 56.88-11.26-.19.19-4.69 6.38 0 10.32 4.69 3.94 54.44-21.96 55.19-22.34-.38.38-14.27 16.14-8.82 21.59 5.63 5.63 40.73-26.47 40.73-26.47s-4.88 16.89 0 16.89 16.89-27.22 16.89-27.22 0 12.76 7.13 12.76 6.38-27.22 0-43.17-76.77-24.78-84.09-36.79c-3.38-5.82-6.01-16.52-8.63-27.59-10.7-10.14-29.09-5.26-22.53 29.09H734s-6.38-29.66-24.78-28.72c-18.4.94-26.47 14.45-24.03 39.23 0 0-36.04 8.82-36.79 18.4-.75 9.39 18.4.38 19.15 0-1.13.75-39.23 26.47-38.29 31.91.56 4.32 15.77-2.82 22.53-6.38-6.38 3.57-21.02 12.2-28.72 22.34 29.47 17.64 81.47 11.45 82.97 11.45"/>
  <path fill="#1a1a1a" d="m856.57 95.29-29.85-.94c-1.5 0-2.82 1.13-2.82 2.63 0 .75.19 1.31.75 1.88l20.08 16.89c.94 1.13 2.82 1.31 3.94.38l.19-.19 9.95-15.96c1.13-1.13 1.13-2.82 0-3.94-.94-.38-1.5-.56-2.25-.75"/>
  <path fill="#ededed" d="M719.92 63.19c-1.5-5.44-7.13-8.63-12.76-7.13s-8.63 7.13-7.13 12.76c1.5 5.44 7.13 8.63 12.76 7.13 5.63-1.69 8.63-7.32 7.13-12.76"/>
  <path d="M719.54 65.26c-1.13-3.94-5.07-6.01-9.01-5.07-3.94 1.13-6.01 5.07-5.07 9.01s5.07 6.01 9.01 5.07c3.94-1.31 6.19-5.26 5.07-9.01"/>
  <path fill="#fff" d="M718.23 68.07c-.38-1.31-1.69-2.06-3.19-1.69s-2.06 1.69-1.69 3.19c.38 1.31 1.69 2.06 3.19 1.69 1.31-.38 2.06-1.69 1.69-3.19"/>
  <path fill="#ededed" d="M769.85 58.12c-1.5-5.44-7.13-8.63-12.76-7.13-5.63 1.5-8.63 7.13-7.13 12.76 1.5 5.44 7.13 8.63 12.76 7.13 5.44-1.69 8.63-7.32 7.13-12.76"/>
  <path d="M769.28 60.19c-1.13-3.75-5.07-6.01-9.01-5.07-3.75 1.13-6.01 5.07-5.07 9.01 1.13 3.75 5.07 6.01 9.01 5.07 3.94-1.13 6.19-5.07 5.07-9.01"/>
  <path fill="#fff" d="M767.97 63.19c-.38-1.31-1.69-2.06-3.19-1.69-1.31.38-2.06 1.69-1.69 3.19.38 1.31 1.69 2.06 3.19 1.69 1.31-.38 2.06-1.88 1.69-3.19"/>
  <path fill="#464f4e" d="M636.01 602.67c4.88 5.82 9.01 12.2 12.39 18.96.75 0 1.31-.19 1.88-.19-3.38-7.32-7.88-14.08-12.95-20.08-.75-.94-2.06.38-1.31 1.31m-9.77 3.37c2.44 5.26 4.13 10.89 5.44 16.52h1.88c-1.31-6.01-3.19-11.83-5.63-17.27-.56-1.13-2.25-.19-1.69.75m-89.91-5.63c7.13 5.07 12.39 12.39 15.02 20.65h1.88c-2.63-9.01-8.26-16.89-15.96-22.34-.94-.56-1.88 1.13-.94 1.69"/>
  <path fill="#2f3635" d="M710.53 591.97c9.95 4.69 17.64 13.33 21.21 23.65h1.88c-3.57-11.07-11.64-20.27-22.15-25.34-1.13-.38-2.06 1.13-.94 1.69"/>
  <path fill="#464f4e" d="M599.03 215.61c5.07-5.82 8.82-12.76 10.89-20.08.19-.56.75-.75 1.13-.56.38.19.75.56.56 1.13-2.25 7.7-6.19 14.83-11.45 21.02-.56.75-1.88-.56-1.13-1.5m-14.83 59.87c17.46-17.46 29.66-39.23 35.48-63.07.19-1.13 2.06-.75 1.88.56-5.82 24.21-18.4 46.36-36.04 64.01-.38.38-.94.38-1.31 0s-.38-1.13 0-1.5m-29.85 14.83 18.96-24.03c.75-.94 2.06.38 1.31 1.31l-18.96 24.03c-.75.94-2.06-.38-1.31-1.31m-9.39 39.23c9.76-10.51 16.89-23.09 20.65-36.98.19-.56.75-.75 1.13-.56.38.19.75.56.56 1.13-3.94 14.08-11.26 27.03-21.21 37.73-.56.94-1.88-.38-1.13-1.31m-18.77-3.76c4.88-4.69 8.82-10.32 11.64-16.33.56-1.13 2.06-.19 1.69.94-2.82 6.38-6.95 12.01-11.83 16.71-1.13.75-2.44-.56-1.5-1.31m56.13-24.6c5.82-4.32 9.95-10.7 11.26-17.83.19-1.13 2.06-.75 1.88.56-1.5 7.7-5.82 14.45-12.2 18.96-.94.56-1.88-.94-.94-1.69m-45.43 57.62c8.45-8.63 15.39-18.4 20.84-29.28.56-1.13 2.06-.19 1.69.94-5.63 10.89-12.76 20.84-21.21 29.66-.75.94-2.06-.38-1.31-1.31m-25.54 15.2c8.07-5.82 13.89-14.08 16.52-23.65.19-.56.75-.75 1.13-.56.56.19.75.56.56 1.13-2.82 9.95-9.01 18.58-17.27 24.78-.94.56-1.88-.94-.94-1.69m78.46-122.96c4.5-4.32 6.95-10.14 7.13-16.33 0-1.13 1.88-1.13 1.88 0-.19 6.57-3 12.95-7.7 17.64-.94.94-2.25-.38-1.31-1.31m-11.45-16.9c3.38-3.19 5.44-7.7 5.63-12.39 0-1.13 1.88-1.13 1.88 0-.38 5.07-2.44 9.95-6.19 13.7-.94.75-2.06-.56-1.31-1.31M487.16 417.4c4.51-4.88 8.26-10.7 10.89-16.71.56-1.13 2.06-.19 1.69.94-2.82 6.19-6.57 12.01-11.26 17.08-.94.94-2.25-.38-1.31-1.31m22.14-18.96c4.32-3.38 7.13-8.45 7.7-14.08.19-1.13 1.88-1.13 1.88 0-.38 6.01-3.38 11.64-8.26 15.39-.94.75-2.25-.56-1.31-1.31m20.45-1.88c5.26-5.63 9.2-12.39 11.45-19.9.19-.56.75-.75 1.13-.56.56.19.75.56.56 1.13-2.25 7.7-6.38 14.83-11.83 20.84-.75.75-2.06-.56-1.31-1.5m-74.71 61.94 9.01-18.77c.56-1.13 2.06-.19 1.69.94l-9.01 18.77c-.56 1.13-2.25.19-1.69-.94m18.77-7.7 18.77-18.77c.38-.38.94-.38 1.31 0s.38.94 0 1.31l-18.77 18.77c-.38.38-.94.38-1.31 0s-.38-.94 0-1.31"/>
  <path fill="#97aba7" d="M737.56 273.05c2.63 10.14 3.94 20.65 3.94 30.97 0 .56-.38.94-.94.94s-.94-.38-.94-.94c0-10.32-1.13-20.65-3.75-30.6-.19-.56.19-.94.75-1.13.38 0 .94.19.94.75m-9.95 70.02c2.82-13.7 3.57-27.78 2.44-41.86-.19-1.13 1.69-1.13 1.88 0 1.13 14.08.38 28.34-2.44 42.23-.19 1.31-2.06.75-1.88-.38m9.39 31.74c2.63-14.64 3.19-29.66 1.88-44.67-.19-1.13 1.69-1.13 1.88 0 1.31 15.02.75 30.22-1.88 45.05-.19 1.31-2.06.75-1.88-.38m-12.95 21.58c3.19-9.95 4.32-20.27 3.38-30.6-.19-1.13 1.69-1.13 1.88 0 .94 10.51-.19 21.02-3.38 31.16-.56.94-2.25.56-1.88-.56m-5.82-44.67c0-1.13 1.88-1.13 1.88 0-.38 5.26-.75 10.51-1.13 15.96 0 1.13-1.88 1.13-1.88 0 .38-5.44.75-10.7 1.13-15.96m-10.7 57.25c4.13-6.76 6.57-14.64 6.95-22.71 0-1.13 1.88-1.13 1.88 0-.38 8.26-2.82 16.52-7.13 23.65-.56.94-2.25 0-1.69-.94m25.52-172.13.94 18.58c0 1.13-1.88 1.13-1.88 0-.38-6.19-.75-12.39-.94-18.58 0-1.13 1.88-1.13 1.88 0m4.5-23.46 3.75 22.34c.19 1.13-1.5 1.69-1.88.56l-3.75-22.34c-.19-1.31 1.5-1.88 1.88-.56m10.51 80.34c.38 7.51.75 15.02 1.13 22.34 0 1.13-1.88 1.13-1.88 0-.38-7.51-.75-15.02-1.13-22.34-.19-1.13 1.69-1.13 1.88 0m-24.4 134.02c2.63-4.69 3.94-9.95 3.94-15.2 0-.56.38-.94.94-.94s.94.38.94.94c0 5.63-1.31 11.26-4.13 16.14-.19.38-.75.56-1.31.38-.56-.38-.56-.94-.38-1.31m-27.97 12c3.19-4.5 5.82-9.39 7.51-14.64.38-1.13 2.25-.56 1.88.56-1.88 5.44-4.5 10.51-7.7 15.02-.75.94-2.44.19-1.69-.94m-21.02 11.08c6.76-3.19 12.39-8.26 16.52-14.64.56-.94 2.25 0 1.69.94-4.32 6.57-10.14 11.83-17.27 15.2-1.13.56-2.06-.94-.94-1.5m12.76 14.08c4.13-3.19 6.76-8.07 7.51-13.33.19-1.13 2.06-1.13 1.88 0-.75 5.63-3.57 10.89-8.07 14.64-.94.75-2.25-.56-1.31-1.31m37.16-229.19c1.5-7.51 1.5-15.2.38-22.9-.19-1.13 1.5-1.69 1.88-.56 1.31 7.88 1.13 15.96-.38 23.84-.38 1.13-2.25.75-1.88-.38"/>
  <path fill="#4a5453" d="M595.28 506.37c-1.31-41.67-51.62-52.37-76.59-39.79 0 0 39.79-24.97 65.32-8.07 25.53 16.89 11.26 47.87 11.26 47.87"/>
  <path fill="#a6643c" d="M580.04 464.4c-45.33 18.78-103.66-7.22-104.92-.72-1.26 6.5 33.41 29.8 90.3 25.64s14.63-24.92 14.63-24.92m161.08 149.53c-1.63 0-3.61.18-5.6.18h-1.99c-20.59.36-53.82-.18-59.05-3.43-3.07-1.81-8.85-19.87-14.99-41.9-5.78-20.95-11.74-45.69-15.71-63.39l72.78 23.84s-11.92 26.91-11.92 42.8c0 5.6 1.44 9.75 5.42 11.02 14.99 4.7 49.66 29.98 31.06 30.88m269.26-10.12c.18 2.71-1.81 4.51-5.06 5.96-.54.18-.9.36-1.44.54-3.97 1.26-8.13 1.99-12.28 2.17-.54 0-1.08 0-1.63.18-11.38.72-24.38 0-29.44.18-5.96.18-14.63-33.59-20.59-60.14-3.79-17.16-6.5-31.42-6.5-31.42l42.98-33.77c-.18 9.39 0 22.94.36 36.48.36 20.77 1.26 41.54 2.35 47.31 1.63 9.21 30.7 20.59 31.24 32.51"/>
  <path fill="#707070" d="m643.79 505.39 72.78 23.84s-11.92 26.91-11.92 42.8c-16.07-.72-31.24-1.63-45.15-3.25-5.78-21.13-11.92-45.69-15.71-63.39m332.65 18.42c-8.67 11.02-21.31 20.77-36.66 28.71-3.79-17.16-6.5-31.42-6.5-31.42l42.98-33.77c-.18 9.39 0 22.94.18 36.48" opacity=".21" style="isolation:isolate"/>
  <path fill="#67443e" d="M975.89 333.65c18.06-4.88 40.81-.36 40.63 2.17s-9.39 39.37-9.39 39.37l-31.24-41.54Z"/>
  <path fill="#ba7043" d="M1068.36 366.52c-8.31 13.54-44.24 40.99-91.38 38.65 0 0 18.06 42.98-.36 87.41-18.42 44.43-94.63 72.78-172.1 67.9-56.89-3.61-119.91-2.53-165.78-8.85-16.61-2.35-30.88-5.6-41.9-10.47-41.17-18.24-40.63-66.28-9.39-81.45 31.24-15.17 213.64-4.15 266.01-20.41 9.75-3.07 18.6-8.49 26.01-15.53 26.73-24.92 37.38-68.08 39.91-80.18.36-2.17.72-3.25.72-3.25 6.32-9.57 60.14-8.13 65.37-4.88 5.24 3.25 5.96 13.91 13.36 17.7s66.1.18 71.15 6.86c0 .18.18.18.18.36.36 1.44-.18 3.61-1.81 6.14"/>
  <path fill="#707070" d="M925.15 338.89s-10.29 93.19-27.09 101.49c-4.15 1.99-11.38-5.6-18.6-16.43 26.73-24.92 37.38-68.08 39.91-80.18 3.61-.54 5.06-7.04 5.78-4.88" opacity=".38" style="isolation:isolate"/>
  <path fill="#db824e" d="m1070.34 360.02-.18.72-1.63 5.96c-4.88 7.95-19.32 20.77-40.09 29.44-2.71 1.08-5.6 2.17-8.67 3.25-13.72 4.7-28.17 6.68-42.62 5.96 0 0 18.06 42.98-.36 87.41s-94.63 72.78-172.1 67.9c-56.89-3.61-119.91-2.53-165.78-8.85l-1.81-1.44s209.12 9.75 268.72-20.59c59.6-30.34 35.76-139.78 43.34-146.28 7.58-6.5 83.98 1.08 121-23.12-.18-.18 0-.36.18-.36"/>
  <path fill="#ba7043" d="M671.42 622.05c-1.26 0-2.71.18-4.15.18h-1.81c-5.06.18-10.84.18-16.98.18h-1.99c-18.24-.18-38.1-1.08-42.08-3.43-5.96-3.61-30.16-75.31-38.1-111.61l80.36 29.98s-21.49 48.94-6.5 53.82c14.99 4.88 49.66 30.16 31.24 30.88m277.58-8.48c.18 2.53-1.81 4.51-4.7 5.78-.54.18-1.08.36-1.63.54-3.97 1.26-7.95 1.99-12.1 2.17-.54 0-1.08.18-1.81.18-11.56.9-24.74 0-29.8.18-9.75.18-27.09-91.56-27.09-91.56l41.17-16.07c-.36 23.84 2.53 56.53 4.33 65.92 1.81 9.39 31.06 20.95 31.6 32.87"/>
  <path fill="#67443e" d="M925.69 336.9c-3.79-10.84-69.89 22.57-68.08 31.96s30.88 57.97 40.45 53.09c9.57-4.88 27.63-85.06 27.63-85.06"/>
  <path fill="#1a1a1a" d="M1072.87 356.77h-13.18c-.72 0-1.26.54-1.26 1.26 0 .36.18.54.36.9l9.03 7.04c.54.54 1.26.54 1.81 0l4.15-7.04c.54-.54.36-1.26 0-1.81-.36-.36-.72-.36-.9-.36"/>
  <path fill="#ededed" d="M945.19 363.09c-.18-4.7 3.61-8.49 8.31-8.49 4.7-.18 8.49 3.61 8.49 8.31.18 4.7-3.61 8.49-8.31 8.49-4.7 0-8.49-3.61-8.49-8.31"/>
  <path d="M945.92 364.17c0-3.25 2.53-5.96 5.78-5.96s5.96 2.53 5.96 5.78-2.53 5.96-5.78 5.96c-3.07 0-5.78-2.53-5.96-5.78"/>
  <path fill="#fff" d="M947.72 366.7c0-1.08.9-2.17 1.99-2.17s2.17.9 2.17 1.99-.9 2.17-1.99 2.17c-1.26 0-2.17-.9-2.17-1.99"/>
  <path fill="#67443e" d="M1028.27 396.13c-2.71 1.08-5.6 2.17-8.67 3.25-1.26 0-2.35-.18-3.61-.36l-1.81-.18-1.81-.36c-4.88-.72-9.75-1.81-14.45-3.25-4.7-1.26-9.39-3.07-13.91-5.24-.36-.18-.36-.36-.18-.72s.36-.36.72-.18c4.51 1.81 9.03 3.25 13.91 4.33 4.7 1.08 9.57 1.99 14.27 2.35l1.81.18 1.81.18c1.26 0 2.35.18 3.61.18 2.35 0 4.88 0 7.22-.18h1.08m-168.12 46.78c-3.79 2.71-7.77 5.06-11.92 6.86-.9.36-.18 1.81.9 1.44 4.15-1.81 8.31-4.15 11.92-6.86.72-.72-.18-2.17-.9-1.44m-29.98 6.14c-9.21 2.17-18.6 3.43-28.17 3.97-1.08 0-1.08 1.63 0 1.63 9.57-.54 19.14-1.81 28.53-3.97 1.08-.36.72-1.99-.36-1.63m5.78 7.22-25.82 5.78c-1.08.18-.54 1.81.36 1.63l25.82-5.78c1.08-.18.54-1.81-.36-1.63m-42.26 1.99c-9.57 1.63-19.32 2.17-29.08 1.63-1.08 0-1.08 1.63 0 1.63 9.93.54 19.68 0 29.44-1.63 1.08-.18.72-1.81-.36-1.63m-16.8-5.6c-15.17-.36-30.34 0-45.51.9-1.08 0-1.08 1.63 0 1.63 15.17-.9 30.34-1.26 45.51-.9.36 0 .72-.36.72-.9 0-.36-.36-.72-.72-.72m-29.97 7.39c-9.21-.36-18.42-.18-27.63.72-1.08.18-1.08 1.63 0 1.63 9.21-.9 18.42-1.08 27.63-.72.9 0 .9-1.63 0-1.63m-31.79-4.87h-11.38c-.36 0-.72.36-.72.9 0 .36.36.72.72.72h11.38c.36 0 .72-.36.72-.9 0-.36-.36-.72-.72-.72m-11.38 7.58c-6.68.54-13.54.72-20.41.36-1.08 0-1.08 1.63 0 1.63 6.86.36 13.54.18 20.41-.36 1.08 0 1.08-1.63 0-1.63m-21.13-5.96h-24.38c-.36 0-.72.36-.72.9 0 .36.36.72.72.72h24.38c.36 0 .72-.36.72-.9 0-.36-.36-.72-.72-.72m-21.12 6.5h-11.38c-.36 0-.72.36-.72.9 0 .36.36.72.72.72h11.38c.36 0 .72-.36.72-.9 0-.36-.36-.72-.72-.72m282.8 156.04c-.54.18-1.08.36-1.63.54-4.7-5.78-9.93-11.2-15.71-16.07-.72-.72.36-1.81 1.08-1.08 5.96 5.06 11.38 10.65 16.25 16.61m-13.71 2.88c-.54 0-1.08.18-1.81.18-3.25-5.42-7.4-10.11-12.46-13.91-.9-.54 0-1.99.9-1.44 5.42 4.15 9.93 9.21 13.36 15.17m74.77-12.46c-.54.18-.9.36-1.44.54-4.15-6.68-9.57-12.64-15.89-17.34-.9-.54 0-1.99.9-1.44 6.5 5.06 12.1 11.2 16.43 18.24m-13.9 2.71c-.54 0-1.08 0-1.63.18-2.53-5.42-5.96-10.47-10.29-14.81-.72-.72.36-1.81 1.08-1.08 4.51 4.51 8.31 9.93 10.84 15.71m-255.9 1.63h-1.99c-3.61-4.33-7.58-8.31-12.1-11.74-.9-.72.36-1.81 1.08-1.08 4.88 3.61 9.21 7.95 13 12.82m-68.26 8.12h-1.81c-4.51-7.77-11.92-13.36-20.59-15.71-.36-.18-.72-.54-.54-1.08.18-.36.54-.54.9-.54 9.57 2.53 17.52 8.85 22.03 17.34m-18.59.18h-1.99c-3.07-4.7-6.5-8.85-10.29-12.82-.36-.36-.36-.9 0-1.08.36-.36.72-.36 1.08 0 4.15 4.15 7.95 8.85 11.2 13.91"/>
</svg>