<svg xmlns="http://www.w3.org/2000/svg" xmlns:xlink="http://www.w3.org/1999/xlink" viewBox="0 0 1064.09 601.49">
  <defs>
    <path id="a" fill="#5c6866" d="M704.08 186.34c-.18 1.45.18 2.72.91 3.99-.18-1.45-.54-2.72-.91-3.99"/>
  </defs>
  <path fill="#666793" d="M43.35 264.69c21.13-4.67 43.87-1.36 63.8 6.43 17.75 6.99 32.98 19.03 45.34 33.09 21.07-11.44 49.04 8.68 70.36 13.42 17.12 4.81 35.78 1.92 51.39-6.08 26.06-12.83 36.19-42.36 32.49-68.87-2.03-15.5-7.55-31.46-18.82-43.1-6.3 8.62-15.2 16.67-26.4 18.68-12.12 2.43-25.78-5.54-27.3-17.77-2.02-12.63 10.2-21.32 22.6-20 11.82 1.02 22.34 7.56 30.73 15.19 24.6-36.94 30.29-93.22 87.99-93.86 25.09.32 48.08 14.36 63.2 32.95 49.02-16.58 93.26 3.47 113.97 48.81 4.37 9.92 7.66 20.32 9.44 31.11 1.67 9.88 2.48 19.75 4.34 29.56 4.27 24.22 18.43 57.11 48.8 56.05 15.96-.93 30.65-10.54 39.02-23.29-8.28-7.85-14.95-18.07-16.39-29.27-.98-6.37 2.06-15.05 9.97-14.82 7.7.4 13.21 7.16 15.23 13.77 3.22 10.22-.04 21.08-5.49 29.98 19.94 17.55 38.78 13.17 62.94 13.9 15.04 1.19 29.17 7.96 40.5 17.19 22.81 18.12 41.46 60.13 16.85 83.01 3.28 15.85-4.22 31.47-11.56 45.32-6.07 10.46-11.52 21.65-20.3 30.34-1.15 1.15-2.99-.63-1.9-1.66.81-.75 1.66-1.61 2.35-2.41 7.68-9.37 13.42-19.99 19.09-30.5 6.3-12.06 12.26-25.45 10.01-39.35-5.68 4.2-13.03 5.12-19.52 2.6-6.55-2.69-13.15-9.86-10.47-16.98 2.98-7.12 12.86-6.21 18.95-3.46 5.91 2.52 10.4 7.34 12.42 13.36 19.45-19.71 6.72-52.89-9.77-71.02-11.1-11.99-26.21-21.11-42.86-23.67-9.07-1.37-18.26-.22-27.34-.43-14.93.3-29.8-4.39-40.84-14.2-10.15 15.46-29.78 26.61-49.36 23.59-15.22-2.57-26.25-14.96-33.04-27.53-12.54-23.18-10.55-49.88-17.64-74.52-15.44-51.9-60.25-81.71-115.82-63.51 19.83 25.53 27.5 58.49 30.51 89.55.87 8.33-3.89 20.45-14.57 15.12-7.24-4.18-10.86-12.16-14.03-19.33-2.4 9.42-6.76 19.02-14.91 25.28-8.78 6.96-20.38 4.62-26.94-3.82-14.15-18.54-13.83-48.51-5.87-69.36 6.82-18.27 23.05-31.83 41.76-38.57-24.04-30.06-70.04-44.26-101.36-16.27-22.49 21.5-28.26 53.2-45.51 78.03 12.41 12.5 18.17 29.73 20.14 46.49 3.41 27.1-7.58 56.91-33.93 69.74-16.47 8.57-36.39 11.4-54.6 5.9-19.7-4.52-47.68-23.78-66.85-13.55 10.06 12.62 19.32 26.56 21.86 42.47 3.02 29.34-21.84 38.03-33.3 8.07-5.87-16.41-8.59-39.44 7.64-51-11.5-12.9-25.23-24.21-41.6-31.08-19.64-8.37-42.28-11.9-63.46-7.69-23.19 4.79-34.55 28.11-38.83 48.51-14.06 71.04 8.51 189.76 82.67 224.61 6.96 3.04 14.13 5.33 21.54 6.87 5.05 1.09 10.34 2.29 15.51 2 .75-.06 1.2.46 1.26 1.2s-.46 1.2-1.2 1.26c-6.32.29-12.47-1.19-18.49-2.63-7.87-1.77-15.46-4.41-22.69-8.01-24.82-12.38-42.93-34.18-55.52-57.54C4.87 437.22-3.17 384.28 1.08 333.47c2.38-26.64 11.77-60.7 42.2-68.77m213.24-81.74c-13.95-1.36-24.74 9.91-18 22.87 4.14 8.09 14.83 11.99 23.96 9.79 9.93-2.37 17.97-9.84 23.64-17.76-8.16-7.52-18.16-13.93-29.59-14.9M758.04 375.3c-23.31-2.16-3.47 30.26 16.95 14.63-2.42-7.8-9.02-13.54-16.95-14.63m-97.85-128.87c-1.85-5.22-6.1-10.5-12.3-11.01-6.43-.05-8.21 7.25-7.45 12.35 1.56 10.4 7.59 19.86 15.24 27.26 4.98-8.56 8.03-18.96 4.51-28.6m-221.52-54.4c-3.09 5.92.93 14.81 2.72 21.01.51-6.2 1.59-16.13-2.72-21.01m-46.96 7.85c-.56 15.22 1.88 37.38 15.89 46.96 17.81 9.74 30.25-13.75 32.7-27.59.52-1.6-.64-3.05-1.04-4.54-1.03-3.09-2.19-6.26-2.88-9.47-5.47-21.53 8.89-20.68 8.04.86-.11 3.96-.51 7.92-1.2 11.89 2.54 6.14 5.06 12.28 9.5 17.5 5.69 7 13.62 6.93 15.27-2.71 1.08-6.49-.24-13.32-1.22-19.69-4.33-26.41-11.64-53.45-28.95-75.13-28.93 9.96-45.05 32.77-46.1 61.94M144.96 356.03c11.56 29.16 32.52 17.07 27.89-9.33-3.12-14.46-11.68-27.5-21.05-39.2-.63.4-1.14.86-1.78 1.27-13.37 11.56-10.31 32.45-5.06 47.26"/>
  <path fill="#f7d7ba" d="M466.05 560.47c-4.77 0-20.41.95-25.56 1.53-35.48 4.39-37.57 16.59-47.11 26.7 2.1 3.81 10.3 4.2 15.26 2.29 7.82 5.15 13.73 2.67 20.79.76 6.87 2.86 14.69 2.48 21.36-.76 8.39 4.58 18.5 5.72 27.66 3.05 7.25 2.1 16.02 4.2 28.99 0 19.07 3.81 43.3-.38 53.21-11.63 9.16 9.35 20.98 11.25 37.96 7.25-8.01 12.97 37.57 8.39 91.36 8.39 8.01 0 51.12 1.72 54.74-3.81 36.24-.57 76.48 3.62 109.86.38 38.91 6.29 109.86-.57 160.79 1.91 25.75 1.14 38.34-.19 40.44-9.54 2.86-13.54-1.14-27.47-22.32-27.47-41.77-10.49-5.72-72.29 12.59-109.48 12.02-23.46-18.5-64.09-49.78-69.04-35.48-27.85-86.97-18.31-111.58-4.39-8.96-4.96-26.13-2.29-38.53 3.81-16.4-3.43-35.29-10.11-58.75-5.72-44.44-12.97-125.5.38-172.99 25.94-43.11 23.46-62.18 75.34-69.04 133.51-12.4 24.6-61.99 26.32-79.34 26.32Z"/>
  <path fill="#2c1b0e" d="M963.1 377.18c14.88 51.31-16.4 77.63-36.05 80.11-16.98-4.96-43.49-41.77-18.69-79.34 12.78-10.3 41.96-21.74 54.74-.76"/>
  <path fill="#a88e76" d="M881.08 521.94c-1.34.19-2.29 1.53-2.1 2.86 0 .19 0 .38.19.38 2.67 7.06 4.77 13.35 8.2 18.69 3.62 5.91 9.16 10.11 15.64 12.4 24.6 8.77 51.12 8.58 77.06 9.54 1.34.19 2.67-.76 2.86-2.29.19-1.34-.76-2.67-2.29-2.86h-.38c-26.13-1.14-51.88-.95-75.53-9.35-5.53-1.72-10.11-5.34-13.16-10.3-2.86-4.58-4.96-10.68-7.63-17.74-.57-.76-1.72-1.53-2.86-1.34M652.4 426.39c-1.34.19-2.48 1.53-2.29 2.86s1.53 2.48 2.86 2.29c11.06-.95 20.79 2.86 29.37 9.92 8.39 7.06 15.64 17.17 20.98 28.23 5.15 10.68 8.77 22.12 10.87 33.95 1.72 10.87 1.53 20.6-.38 26.51-5.34 16.02-14.5 26.13-27.27 33.19-12.78 7.06-28.99 10.68-48.26 13.16-1.34.19-2.48 1.53-2.29 2.86.19 1.34 1.53 2.48 2.86 2.29 19.65-2.67 36.62-6.29 50.16-13.73 14.3-7.63 24.99-20.6 29.56-36.05 2.48-7.44 2.48-17.55.57-28.99-2.1-12.21-5.91-24.22-11.25-35.48-5.34-11.44-12.97-21.55-22.51-29.75-9.16-8.01-20.98-11.83-33-11.06v-.19Zm343.31-44.25c-5.34.57-10.49 2.67-14.88 6.1-4.96 3.62-8.2 9.16-9.16 15.07-.38 1.34.38 2.86 1.72 3.24 1.34.38 2.86-.38 3.24-1.72 0-.38.19-.57.19-.95.76-4.77 3.24-8.96 7.25-11.63 3.43-2.67 7.63-4.39 12.21-4.96 1.34 0 2.48-1.34 2.48-2.67s-1.14-2.48-2.67-2.48h-.38m24.8 12.97c-1.34 0-2.29 1.14-2.48 2.48-.38 5.53-3.24 10.68-7.82 13.92-4.96 3.81-12.4 6.87-22.51 8.77-1.34.19-2.48 1.34-2.29 2.86.19 1.34 1.34 2.48 2.86 2.29h.38c10.49-1.91 18.69-5.15 24.6-9.54 5.72-4.2 9.35-10.68 9.73-17.74.19-1.34-.95-2.67-2.29-2.86q0-.19-.19-.19m-120.34 60.85c-.76 0-1.72.38-2.1 1.14-6.48 10.49-8.77 23.08-6.1 35.29 1.91 9.73 6.48 18.69 13.16 25.94.95.95 2.67.95 3.62 0s.95-2.67 0-3.62c-6.1-6.48-10.11-14.5-11.83-23.27-2.48-10.87-.38-22.12 5.34-31.47.76-1.14.57-2.67-.76-3.62-.19-.19-.76-.38-1.34-.38m-19.45-80.12c-.38 0-.76.19-.95.38-9.92 6.48-12.97 18.5-13.92 22.89-.38 1.53.38 3.05 1.91 3.43 1.53.38 3.05-.38 3.43-1.91.95-4.2 4.01-14.5 11.63-19.65 1.34-.76 1.72-2.48.95-3.62-.76-1.14-1.91-1.72-3.05-1.53m-34.33 6.5c-.38 0-.76.19-1.14.57-2.86 2.29-4.77 5.53-5.72 9.16-.95 3.05-.57 6.48.95 9.35.76 1.14 2.29 1.53 3.62.76 1.14-.76 1.53-2.29.76-3.62-.76-1.72-.95-3.62-.38-5.34.57-2.48 2.1-4.77 4.01-6.48 1.14-.95 1.34-2.48.38-3.62-.57-.57-1.53-.95-2.48-.76m-57.79-6.7c-1.53 0-2.67 1.14-2.48 2.67 0 1.53 1.14 2.67 2.67 2.48 2.1.38 4.2 1.53 5.91 2.86 2.29 1.72 4.2 4.01 5.34 6.68.57 1.34 1.91 2.1 3.24 1.53s2.1-1.91 1.53-3.24v-.19c-1.53-3.43-4.01-6.48-7.06-8.77-2.86-2.1-5.91-4.01-9.16-4.01m46.74 104.51c-10.11 2.67-18.12 10.11-22.89 19.26-4.96 9.16-6.48 19.65-4.2 29.75.19 1.34 1.34 2.48 2.86 2.29s2.48-1.34 2.29-2.86v-.19c0-.19-.19-.57-.19-.76-1.91-8.96-.57-18.12 3.62-26.13 4.01-8.01 11.06-14.11 19.65-16.59 1.34-.38 2.29-1.72 1.91-3.24s-1.72-1.91-3.05-1.53"/>
  <path fill="#735c4a" d="M1042.82 489.52c8.58-7.06 14.3-20.41 4.39-37.57-26.51-13.16-39.86 3.05-47.3 11.44-5.53 6.29 11.63 21.17 18.12 28.04 8.2-4.2 15.26-4.96 24.8-1.91"/>
  <path fill="#a88e76" d="M830.92 558.56c-1.14.19-2.1 1.14-2.29 2.48-.76 6.87.38 13.73 3.24 19.84 3.05 5.91 8.01 10.49 14.3 12.78 1.14.76 2.86.38 3.43-.95.76-1.14.38-2.86-.95-3.43-.19-.19-.38-.19-.76-.19-5.15-1.72-9.16-5.53-11.63-10.3-2.48-5.34-3.43-11.25-2.86-17.17.19-1.34-.95-2.67-2.29-2.86.19-.19 0-.19-.19-.19m-109.1 1.52c-5.34-.38-10.68 0-15.83 1.14h-.38c-6.48.57-10.87.76-15.45 1.34-1.34.19-2.48 1.53-2.29 2.86s1.53 2.48 2.86 2.29c4.39-.57 8.77-.76 15.64-1.34q.19 0 .38-.19c9.73-2.1 19.84-1.34 29.18 2.29 3.81 1.34 6.87 4.01 8.96 7.44 1.53 3.05 1.72 6.68-.57 11.83-.57 1.34 0 2.86 1.34 3.43s2.86 0 3.43-1.34c2.67-6.1 2.67-11.83.38-16.4-2.48-4.58-6.68-8.01-11.44-9.73-5.15-2.1-10.68-3.24-16.21-3.62m309.56-115.39c-4.58 0-9.35 1.14-13.54 3.05-1.34.57-1.91 2.1-1.34 3.43s2.1 1.91 3.43 1.34c.19 0 .19-.19.38-.19 3.62-1.53 7.44-2.48 11.25-2.48 3.62-.19 7.06.38 10.3 1.91 1.14.76 2.86.38 3.62-.76.76-1.14.38-2.86-.76-3.62-4.2-2.1-8.77-3.05-13.35-2.67"/>
  <path d="M1013.64 452.71c-1.53.19-2.67 1.53-2.67 3.05-.76 7.06 1.91 14.3 7.06 19.26 5.15 4.58 11.44 7.44 18.31 8.39 1.72.38 3.43-.57 3.81-2.29s-.57-3.43-2.29-3.81h-.57c-5.53-.76-10.68-3.05-14.88-6.68-3.81-3.62-5.72-8.96-4.96-14.11.19-1.72-1.14-3.43-2.86-3.62-.38-.19-.57-.19-.95-.19"/>
  <path fill="#3d2d23" d="M1063.04 538.16c5.72 16.78-12.97 25.18-31.85 30.9-25.56 7.82-46.35-2.29-58.55-16.4-5.91-13.16-11.44-64.85 25.18-58.36 15.45-5.72 38.53-8.96 44.25-7.25 10.3 2.67 24.22 25.94 20.98 51.12"/>
  <path d="M1059.23 508.59c-15.07.76-23.65-19.45-14.3-21.36 14.5-1.53 17.55 12.02 14.3 21.36m-72.86 21.17c-1.34.19-2.29 1.53-2.1 2.86 0 .19.19.57.19.76 8.58 17.55 20.03 26.7 33 28.04s26.7-4.96 41.2-16.21c1.14-.76 1.72-2.29.95-3.43-.76-1.14-2.1-1.53-3.43-.95l-.57.57c-13.92 10.68-26.7 16.21-37.57 15.07-10.87-1.14-20.6-8.39-28.8-25.18-.57-1.14-1.72-1.72-2.86-1.53"/>
  <path fill="#a88e76" d="M977.79 481.89c-3.43.38-6.87 1.91-9.35 4.2-5.91 5.34-8.2 13.92-5.34 21.36.19 1.34 1.53 2.29 2.86 2.1s2.29-1.53 2.1-2.86v-.19c0-.19-.19-.57-.19-.76-2.1-5.72-.57-12.02 4.01-16.02 3.62-3.62 9.16-4.01 13.35-1.34 1.14.95 2.67.57 3.62-.57.76-1.14.76-2.67-.38-3.43-.19 0-.19-.19-.38-.19-3.05-1.91-6.68-2.67-10.3-2.29"/>
  <path fill="#4a5453" d="M636.63 585.45c1.99 9.61 41.34 9.61 54.94 9.43h4.53s-2.36-24.66-30.1-38.62l11.61-88.85 10.88-83.59-40.98 49.5c-.36 6.17-1.45 18.5-2.72 33.55-3.99 43.34-9.97 109.89-8.16 118.59"/>
  <path fill="#5c6866" d="M390.74 293.87c13.6 63.1-29.19 156.67 23.03 196.38 52.22 39.71-68.91 54.22-79.42 45.88-10.52-8.34 27.2-32.46 27.2-32.46s-60.56 11.42-66.91 0c-6.35-11.42 43.88-17.77 43.88-17.77s-62.74 4.17-62.74-13.6 43.88-15.59 43.88-15.59-37.54-2.18-43.88-25.02c-6.35-22.85 39.71-4.17 39.71-4.17s-37.54-18.86-31.37-37.54c6.17-18.68 37.54 15.59 37.54 15.59s-23.03-65.82-6.35-65.82 23.03 37.54 23.03 37.54-2.18-81.42 12.51-75.25 10.52 27.2 10.52 27.2 23.03-64.55 29.38-35.36"/>
  <path fill="#4a5453" d="M640.43 440.02c35.54 6.17-32.1 111.34-57.12 118.95 0 0 35.36 7.8 33.91 20.85s-100.46 0-100.46 0l-53.31-18.5 68.72-73.44 108.25-47.87Z"/>
  <path fill="#5c6866" d="M383.85 588.53c12.87 8.52 112.61 11.24 133.46 11.61h3.45c6.89 0 3.81-25.57-27.74-30.1 0 0 64.01-46.42 69.27-65.28-.91 16.14-4.71 81.96-1.27 90.67 2.18 5.62 19.4 6.35 34.09 5.98h1.81c5.62-.18 10.7-.54 14.33-.91.73 0 1.27-.18 1.81-.18 1.81-.18 2.9-.18 2.9-.18s-4.71-23.94-20.85-29.38l12.33-97.37 2.54-1.81 32.28-24.48c-.36.54-15.05 18.31-9.97 21.58 3.81 2.54 8.16 1.45 12.69-1.99 16.86-13.06 35.54-58.39 36.08-59.84-.18 1.45-9.97 61.83-4.71 61.83.36 0 .91-.54 1.45-1.45 7.98-12.69 33.36-101.36 33.36-101.36s1.63 27.02 7.8 27.02c5.8 0-.73-52.4-12.51-81.05 2.72 5.08 7.8 12.33 14.87 11.42 10.7-1.45-23.75-88.13-24.66-90.48.54 1.09 11.06 19.22 17.77 14.69 4.35-2.9-2.36-30.46-8.89-57.48-.36-1.27-.54-2.54-.91-3.99s-.54-2.54-.91-3.99c-3.26-13.6-6.17-26.47-7.07-35v-.18c-2.18-18.31-47.15-21.03-76.16-20.85-13.96 0-24.3.73-24.3.73-5.08 11.24-10.88 21.94-17.41 32.46-25.57 42.07-60.93 85.59-59.11 90.48 2.36 6.17 25.57-9.25 25.57-9.25s-96.65 99.73-91.21 104.26c5.26 4.53 40.62-18.68 41.71-19.22-1.81 2.36-129.65 165.92-108.98 237.36-.73.18-16.86 16.5-2.9 25.75"/>
  <use xlink:href="#a" fill="#5c6866"/>
  <use xlink:href="#a" fill="#abc2be"/>
  <path fill="#abc2be" d="M636.63 323.43s-5.08 103.9-23.94 125.3l-2.9 22.85 32.28-24.48c-.36.54-15.05 18.31-9.97 21.58 18.31 12.15 48.05-60.2 48.78-61.83-.18 1.45-9.97 61.83-4.71 61.83s34.82-102.81 34.82-102.81 1.63 27.02 7.8 27.02c5.8 0-.73-52.4-12.51-81.05 2.72 5.08 7.8 12.51 14.87 11.42 10.7-1.45-23.75-88.13-24.66-90.3.54 1.09 11.06 19.22 17.77 14.69 6.89-4.71-14.69-73.26-17.77-100.28l-45.88 6.17c-20.13 58.39-54.22 132.73-43.34 138.9 7.98 4.53 20.31-15.41 26.11-26.11-9.79 19.4-38.08 76.88-28.47 83.23 11.61 7.8 31.73-26.11 31.73-26.11"/>
  <path fill="#707070" d="M595.65 127.05s10.34-.73 24.3-.73c29.01-.18 74.16 2.72 76.16 20.85v.18c1.09 8.7 3.81 21.4 7.07 35-10.52 3.63-45.33 15.05-51.86 9.79-7.62-5.98 14.69-15.05 15.41-15.41-1.27.18-51.5 5.98-80.33-10.7-1.63-.91-3.26-1.99-4.71-3.08-1.27-.91-2.54-1.99-3.45-3.26 6.35-10.7 12.15-21.58 17.41-32.64" opacity=".54" style="isolation:isolate"/>
  <path fill="#5c6866" d="M581.68 138.65c1.45 1.09 3.08 2.18 4.71 3.08 28.65 16.86 78.88 10.88 80.33 10.7-.91.36-23.03 9.43-15.41 15.41 7.62 6.17 54.04-10.52 54.94-10.88-.18.18-4.53 6.17 0 9.97s52.59-21.22 53.31-21.58c-.36.36-13.78 15.59-8.52 20.85 5.44 5.44 39.35-25.57 39.35-25.57s-4.71 16.32 0 16.32 16.32-26.29 16.32-26.29 0 12.33 6.89 12.33 6.17-26.29 0-41.71c-6.17-15.41-74.16-23.75-81.24-35.36-3.26-5.62-5.8-15.96-8.34-26.66-2.72-11.61-5.26-23.75-8.7-30.64-3.81-7.8-60.2-7.8-75.8 0-15.59 7.8-54.04 52.59-50.95 58.03s17.77-2.36 17.77-2.36-52.4 53.49-24.66 74.35"/>
  <path fill="#5c6866" d="M650.41 14.99C648.78-.42 557.57-2.78 550.68 2.66s-46.96 46.24-40.8 49.32 27.02-13.96 27.02-13.96-35.54 39.35-27.74 47.87c7.8 8.52 31.73 13.06 35.54 13.06s10.88-25.57 10.88-25.57-3.08 30.1 2.36 25.57 12.33-66.55 23.94-71.81c11.61-5.26 54.94 2.36 54.94 2.36l13.6-14.51ZM696.1 11s50.95-13.96 61.11-8.52 35.54 37.17 28.65 40.98-14.69-14.69-14.69-14.69 18.5 33.18 7.8 42.43-23.39 5.62-29.56 3.63-.73-49.14-7.62-50.05-37.9 1.63-37.9 1.63L696.09 11Z"/>
  <path fill="#abc2be" d="M666.73 152.62c-.91.36-23.03 9.43-15.41 15.41 7.62 6.17 54.04-10.52 54.94-10.88-.18.18-4.53 6.17 0 9.97s52.59-21.22 53.31-21.58c-.36.36-13.78 15.59-8.52 20.85 5.44 5.44 39.35-25.57 39.35-25.57s-4.71 16.32 0 16.32 16.32-26.29 16.32-26.29 0 12.33 6.89 12.33 6.17-26.29 0-41.71c-6.17-15.41-74.16-23.94-81.24-35.54-3.26-5.62-5.8-15.96-8.34-26.66-10.34-9.79-28.11-5.08-21.76 28.11h-8.52s-6.17-28.65-23.94-27.74c-17.77.91-25.57 13.96-23.21 37.9 0 0-34.82 8.52-35.54 17.77-.73 9.07 17.77.36 18.5 0-1.09.73-37.9 25.57-36.99 30.83.54 4.17 15.23-2.72 21.76-6.17-6.17 3.45-20.31 11.79-27.74 21.58 28.47 17.05 78.7 11.06 80.15 11.06"/>
  <path fill="#1a1a1a" d="m812.15 92.05-28.83-.91c-1.45 0-2.72 1.09-2.72 2.54 0 .73.18 1.27.73 1.81l19.4 16.32c.91 1.09 2.72 1.27 3.81.36l.18-.18 9.61-15.41c1.09-1.09 1.09-2.72 0-3.81-.91-.36-1.45-.54-2.18-.73"/>
  <path fill="#ededed" d="M680.15 61.04c-1.45-5.26-6.89-8.34-12.33-6.89s-8.34 6.89-6.89 12.33c1.45 5.26 6.89 8.34 12.33 6.89 5.44-1.63 8.34-7.07 6.89-12.33"/>
  <path d="M679.78 63.04c-1.09-3.81-4.9-5.8-8.7-4.9-3.81 1.09-5.8 4.9-4.9 8.7s4.9 5.8 8.7 4.9c3.81-1.27 5.98-5.08 4.9-8.7"/>
  <path fill="#fff" d="M678.51 65.76c-.36-1.27-1.63-1.99-3.08-1.63s-1.99 1.63-1.63 3.08c.36 1.27 1.63 1.99 3.08 1.63 1.27-.36 1.99-1.63 1.63-3.08"/>
  <path fill="#ededed" d="M728.38 56.15c-1.45-5.26-6.89-8.34-12.33-6.89s-8.34 6.89-6.89 12.33c1.45 5.26 6.89 8.34 12.33 6.89 5.26-1.63 8.34-7.07 6.89-12.33"/>
  <path d="M727.84 58.14c-1.09-3.63-4.9-5.8-8.7-4.9-3.63 1.09-5.8 4.9-4.9 8.7 1.09 3.63 4.9 5.8 8.7 4.9 3.81-1.09 5.98-4.9 4.9-8.7"/>
  <path fill="#fff" d="M726.57 61.04c-.36-1.27-1.63-1.99-3.08-1.63-1.27.36-1.99 1.63-1.63 3.08.36 1.27 1.63 1.99 3.08 1.63 1.27-.36 1.99-1.81 1.63-3.08"/>
  <path fill="#464f4e" d="M599.09 582.19c4.71 5.62 8.7 11.79 11.97 18.31.73 0 1.27-.18 1.81-.18-3.26-7.07-7.62-13.6-12.51-19.4-.73-.91-1.99.36-1.27 1.27m-9.43 3.26c2.36 5.08 3.99 10.52 5.26 15.96h1.81c-1.27-5.8-3.08-11.42-5.44-16.68-.54-1.09-2.18-.18-1.63.73m-86.86-5.45c6.89 4.9 11.97 11.97 14.51 19.95h1.81c-2.54-8.7-7.98-16.32-15.41-21.58-.91-.54-1.81 1.09-.91 1.63"/>
  <path fill="#2f3635" d="M671.08 571.85c9.61 4.53 17.05 12.87 20.49 22.85h1.81c-3.45-10.7-11.24-19.58-21.4-24.48-1.09-.36-1.99 1.09-.91 1.63"/>
  <path fill="#464f4e" d="M563.37 208.28c4.9-5.62 8.52-12.33 10.52-19.4.18-.54.73-.73 1.09-.54.36.18.73.54.54 1.09-2.18 7.43-5.98 14.33-11.06 20.31-.54.73-1.81-.54-1.09-1.45m-14.33 57.84c16.86-16.86 28.65-37.9 34.27-60.93.18-1.09 1.99-.73 1.81.54-5.62 23.39-17.77 44.79-34.82 61.83-.36.36-.91.36-1.27 0s-.36-1.09 0-1.45m-28.82 14.33 18.31-23.21c.73-.91 1.99.36 1.27 1.27l-18.31 23.21c-.73.91-1.99-.36-1.27-1.27m-9.06 37.9c9.43-10.15 16.32-22.3 19.95-35.72.18-.54.73-.73 1.09-.54.36.18.73.54.54 1.09-3.81 13.6-10.88 26.11-20.49 36.45-.54.91-1.81-.36-1.09-1.27m-18.14-3.64c4.71-4.53 8.52-9.97 11.24-15.78.54-1.09 1.99-.18 1.63.91-2.72 6.17-6.71 11.61-11.42 16.14-1.09.73-2.36-.54-1.45-1.27m54.22-23.75c5.62-4.17 9.61-10.34 10.88-17.23.18-1.09 1.99-.73 1.81.54-1.45 7.43-5.62 13.96-11.79 18.31-.91.54-1.81-.91-.91-1.63m-43.87 55.68c8.16-8.34 14.87-17.77 20.13-28.29.54-1.09 1.99-.18 1.63.91-5.44 10.52-12.33 20.13-20.49 28.65-.73.91-1.99-.36-1.27-1.27m-24.66 14.69c7.8-5.62 13.42-13.6 15.96-22.85.18-.54.73-.73 1.09-.54.54.18.73.54.54 1.09-2.72 9.61-8.7 17.95-16.68 23.94-.91.54-1.81-.91-.91-1.63m75.79-118.78c4.35-4.17 6.71-9.79 6.89-15.78 0-1.09 1.81-1.09 1.81 0-.18 6.35-2.9 12.51-7.43 17.05-.91.91-2.18-.36-1.27-1.27m-11.06-16.32c3.26-3.08 5.26-7.43 5.44-11.97 0-1.09 1.81-1.09 1.81 0-.36 4.9-2.36 9.61-5.98 13.24-.91.73-1.99-.54-1.27-1.27M455.3 403.21c4.35-4.71 7.98-10.34 10.52-16.14.54-1.09 1.99-.18 1.63.91-2.72 5.98-6.35 11.61-10.88 16.5-.91.91-2.18-.36-1.27-1.27m21.39-18.31c4.17-3.26 6.89-8.16 7.43-13.6.18-1.09 1.81-1.09 1.81 0-.36 5.8-3.26 11.24-7.98 14.87-.91.73-2.18-.54-1.27-1.27m19.78-1.81c5.08-5.44 8.89-11.97 11.06-19.22.18-.54.73-.73 1.09-.54.54.18.73.54.54 1.09-2.18 7.43-6.17 14.33-11.42 20.13-.73.73-1.99-.54-1.27-1.45m-72.17 59.83 8.7-18.13c.54-1.09 1.99-.18 1.63.91l-8.7 18.13c-.54 1.09-2.18.18-1.63-.91m18.13-7.44 18.13-18.13c.36-.36.91-.36 1.27 0s.36.91 0 1.27l-18.13 18.13c-.36.36-.91.36-1.27 0s-.36-.91 0-1.27"/>
  <path fill="#97aba7" d="M697.19 263.77c2.54 9.79 3.81 19.95 3.81 29.92 0 .54-.36.91-.91.91s-.91-.36-.91-.91c0-9.97-1.09-19.95-3.63-29.56-.18-.54.18-.91.73-1.09.36 0 .91.18.91.73m-9.61 67.64c2.72-13.24 3.45-26.84 2.36-40.44-.18-1.09 1.63-1.09 1.81 0 1.09 13.6.36 27.38-2.36 40.8-.18 1.27-1.99.73-1.81-.36m9.07 30.64c2.54-14.14 3.08-28.65 1.81-43.16-.18-1.09 1.63-1.09 1.81 0 1.27 14.51.73 29.19-1.81 43.52-.18 1.27-1.99.73-1.81-.36m-12.52 20.86c3.08-9.61 4.17-19.58 3.26-29.56-.18-1.09 1.63-1.09 1.81 0 .91 10.15-.18 20.31-3.26 30.1-.54.91-2.18.54-1.81-.54m-5.62-43.16c0-1.09 1.81-1.09 1.81 0-.36 5.08-.73 10.15-1.09 15.41 0 1.09-1.81 1.09-1.81 0 .36-5.26.73-10.34 1.09-15.41m-10.33 55.3c3.99-6.53 6.35-14.14 6.71-21.94 0-1.09 1.81-1.09 1.81 0-.36 7.98-2.72 15.96-6.89 22.85-.54.91-2.18 0-1.63-.91m24.66-166.28.91 17.95c0 1.09-1.81 1.09-1.81 0-.36-5.98-.73-11.97-.91-17.95 0-1.09 1.81-1.09 1.81 0m4.35-22.66 3.63 21.58c.18 1.09-1.45 1.63-1.81.54l-3.63-21.58c-.18-1.27 1.45-1.81 1.81-.54m10.16 77.61c.36 7.25.73 14.51 1.09 21.58 0 1.09-1.81 1.09-1.81 0-.36-7.25-.73-14.51-1.09-21.58-.18-1.09 1.63-1.09 1.81 0m-23.58 129.47c2.54-4.53 3.81-9.61 3.81-14.69 0-.54.36-.91.91-.91s.91.36.91.91c0 5.44-1.27 10.88-3.99 15.59-.18.36-.73.54-1.27.36-.54-.36-.54-.91-.36-1.27m-27.03 11.61c3.08-4.35 5.62-9.07 7.25-14.14.36-1.09 2.18-.54 1.81.54-1.81 5.26-4.35 10.15-7.43 14.51-.73.91-2.36.18-1.63-.91m-20.31 10.7c6.53-3.08 11.97-7.98 15.96-14.14.54-.91 2.18 0 1.63.91-4.17 6.35-9.79 11.42-16.68 14.69-1.09.54-1.99-.91-.91-1.45m12.34 13.59c3.99-3.08 6.53-7.8 7.25-12.87.18-1.09 1.99-1.09 1.81 0-.73 5.44-3.45 10.52-7.8 14.14-.91.73-2.18-.54-1.27-1.27m35.91-221.4c1.45-7.25 1.45-14.69.36-22.12-.18-1.09 1.45-1.63 1.81-.54 1.27 7.62 1.09 15.41-.36 23.03-.36 1.09-2.18.73-1.81-.36"/>
  <path fill="#4a5453" d="M559.74 489.16c-1.27-40.26-49.87-50.59-73.98-38.44 0 0 38.44-24.12 63.1-7.8 24.66 16.32 10.88 46.24 10.88 46.24"/>
</svg>