<svg xmlns="http://www.w3.org/2000/svg" viewBox="0 0 861.03 527.04">
  <path fill="#666793" d="M28.69 263.37c-30.65 16.96-31.21 53.56-26.54 80.7 9.49 51.76 32.88 102.15 72.22 140.41 20.15 19.61 45.82 36.08 75.94 41.04 8.83 1.44 17.82 1.78 26.65 1.33 6.95-.3 14.04-.76 20.68-2.79h.15c.79-.15 1.1-.94.8-1.57-.15-.79-.94-1.1-1.57-.8-5.68 1.41-11.52 2.34-17.36 2.48-8.37.45-16.72.28-25.08-.69C65.01 510.33 7.54 398.82 2.83 324.19c-1.05-21.62 4.69-48.11 28.22-59.56 21.79-10.2 47.04-13.29 70.54-10.71 19.4 2.26 37.52 9.4 53.43 18.9-14.24 16.37-4.83 38.47 6.02 53.02 20.6 26.55 45.09 10.67 33.64-17.58-7.22-15.01-21.08-26.4-35.41-35.9 17.7-15.73 53.33-4.76 75.73-5.97 21.14.21 41.82-8.57 57.16-21.78 24.81-20.44 28.2-53.41 17.07-79.31-6.74-16.11-17.91-31.43-34.6-40.31 11.58-29.63 8.99-62.92 27.19-90.8 25.96-37 79.59-36.25 113.76-13.29-18.33 12.11-31.93 30.36-34.2 50.55-2.74 23.18 5.23 52.86 25.71 67.26 9.6 6.8 22.7 5.11 30.14-4.03 6.97-8.5 9.04-19.38 9.06-29.47 5.34 6.32 11.48 13.12 20.47 15.19 13.09 2.24 14.85-11.17 11.56-19.22-11.91-30-29.35-60.65-57.69-80.91C475.29-14.14 531.88 2.56 563 49.64c14.46 22.28 19.76 49.58 39.74 68.87 10.86 10.59 26.13 19.62 43.34 17.77 21.78-2.63 39.8-19.31 46.47-37.75 14.65 6.51 32.01 6.7 47.95 2.16 9.94-2.34 19.57-6.1 29.68-7.5 18.31-2 36.75 1.98 52.66 11.17 22.68 13.15 45.8 42.55 30.28 67.75-4.09-5.37-10.39-9.02-17.17-9.66-7.25-.96-18.14 1.06-19.42 8.94-.81 8.04 8.17 13.12 16.06 13.92 7.57.65 15.15-2.48 20.22-8.32 6.27 13.11 3.56 28.25.22 42.12-3.19 12.14-6.37 24.44-12.07 35.94-.63 1.1-1.27 2.21-1.9 3.15-.95 1.42 1.57 2.69 2.52 1.11 6.97-11.19 9.68-23.96 13.34-36.09 4.14-15.93 7.81-33.58-.2-48.43 20.1-29.77-11.67-66.13-41.3-77.56-14.81-5.87-32.01-8.6-48.41-5.32-26.2 6.24-45.32 16.13-71.62 4.56 3.34-10.4 3.84-22.23-2.44-31.39-3.93-6.01-11.8-11.23-20.17-9.36-8.68 2.19-9.49 11.65-6.67 17.65 4.71 10.74 14.78 18.97 25.82 24.35-6.04 16.39-19.15 28.98-35.58 34.61-32.52 10.01-56.9-18.75-68.2-41.49-4.56-9.16-8.32-18.8-12.86-28.11-5.03-10.1-11.31-19.58-18.86-28.12-34.77-39.04-88.06-46.27-136.26-15.47C396.75 5.05 367.9-2.12 340.91 4.76c-62.04 17.51-52.39 75.12-68.59 118.93-11.03-5.23-24.27-8.58-37.22-6.24-13.73 2.33-24.49 14.46-18.84 26.46 5.02 11.69 21.89 15.52 34.37 9.7 11.52-5.33 18.81-15.89 23.25-26.29 15.44 8.4 25.65 22.62 32.24 37.46 11.45 25.43 8.7 57.76-15.81 78.05-14.55 12.59-33.8 20.89-53.68 21.01-24.29 1.36-60.08-10.4-79.52 7.06-17.17-10.3-36.87-17.92-58.01-19.7-23.5-1.95-49.07 1.3-70.39 12.13m206.81-142.57c12.46-2.34 25.08 1.01 35.8 6.24-3.81 9.61-10.3 19.22-20.41 24.56-9.16 4.86-21.78 4.05-28.54-2.75-10.7-10.91-2.3-25.41 13.16-28.04m593.64 45.29c8.99-1.08 17.98 2.73 22.22 9.67-17.41 21.41-47.94-5.17-22.22-9.67M687.91 66.34c6.45 8.69 6.1 19.89 2.92 29.82-10.08-5.08-19.37-12.82-23.93-22.62-2.2-4.89-2.34-12.63 4.61-14.51 6.78-1.4 12.93 2.72 16.39 7.29M434.22 76.75c5.99 3.65 7.54 13.74 8.79 20.05-3.62-5.53-10.53-13.28-8.79-20.05m-48.48 21.5c-6.87-29.36 4.08-56.78 32.36-75.17 24.72 16.47 39.97 41.27 52.05 66.23 2.82 6.16 6.12 12.47 6.9 19.27.92 10.26-7.45 12.61-15.63 7.21-6.3-3.96-10.71-9.34-15.11-14.71-.31-4.11-.93-8.2-2.02-12.16-5.15-21.63-20.93-18.19-9 1.55 1.73 3 3.77 5.69 5.81 8.53.79 1.42 2.51 2.53 2.36 4.26 1.07 14.52-5.63 41.63-27.54 37-17.65-5.4-26.59-26.72-30.19-42.04M163.55 325.15c-9.75-13.12-18.85-33.02-7.77-48.29.47-.63 1.1-1.26 1.58-1.89 13.38 8.7 26.3 19.15 33.68 32.73 12.24 24.96-7.05 43.05-27.49 17.44"/>
  <path fill="#784421" d="M357.41 163.54c6.21-3.11 10.55-3.23 15.39-8.07 9.19-9.19 25.45-22.35 16.26-39.23-24.71-21.1-42.46 11.18-48.54 31.16 3.97 3.97 11.05 13.28 16.89 16.14m153.2 2.36c-15.52-4.47-41.71-25.2-36.13-47.8 20.86-7.08 41.71 19.37 48.42 33.4-3.72 5.09-7.82 9.93-12.29 14.4"/>
  <path fill="#ececec" d="M492.98 383.79c-7.7-13.91-41.47-13.04-46.06.25-4.22 5.34-4.35 11.8-9.68 17.5 3.36 3.36 4.97 5.58 11.67 11.54-4.35 3.23-7.08 7.2-10.43 11.29 2.24 3.47 7.08 5.34 10.43 10.8-3.23 4.1-7.08 7.7-11.29 10.68 3.36 2.48 6.21 6.7 10.18 10.3-.25 10.06-2.36 44.82 5.09 58.85 4.84 8.94 12.17 9.43 21.35 9.19 14.78-.25 14.27-21.23-.13-25.83.87-12.79-.49-21.23 3.11-36.5 5.58-2.73 9.43-6.34 16.14-8.94-2.48-2.48-3.23-6.58-6.95-10.43 3.11-1.49 8.56-2.6 11.67-3.47-4.97-3.85-5.71-8.94-10.43-11.67 2.6-1.24 9.19-4.47 13.16-6.34-3.85-4.1-7.33-8.69-10.3-13.53 4.35-1.12 7.08-4.59 14.52-4.47-3.23-6.45-10.06-12.79-12.05-19.24m-75-1.12c-7.57-21.48-57.24-18.75-55.13 4.47 3.47 5.09 6.45 9.19 9.43 13.78-3.36 3.47-6.58 7.33-9.31 11.29 3.72 3.72 8.44 6.58 13.53 8.2-3.36 5.09-6.09 9.43-9.56 13.91 1.86 2.36 8.94 4.59 12.79 5.34-2.11 4.22-6.83 6.95-9.81 9.43 3.85 3.6 8.07 6.95 12.41 9.93 2.98 13.78 4.35 27.93 4.1 42.09-8.94 8.31-10.43 21.6 2.98 23.46 11.8 1.74 21.73.38 22.6-16.14.99-17.63 1.24-34.88.99-49.17 3.97-1.74 7.33-4.72 9.56-8.44-4.22-2.24-8.07-4.97-11.67-8.2 2.73-2.73 8.07-3.23 10.55-5.34-4.22-4.35-5.09-6.95-10.55-8.81 3.6-3.6 3.97-5.09 9.68-7.08-2.36-2.36-5.22-6.58-8.81-8.81 1.86-1.86 4.72-5.46 8.81-7.95-3.47-3.47-5.96-7.7-9.68-11.42 1.49-5.58 5.71-7.45 7.08-10.55"/>
  <path fill="#ececec" d="M409.18 520.86c12.29 1.37 37.25-2.24 45.32 0 6.58-.87 20.86-2.36 30.67-.62 2.73-2.6 11.05-6.83 13.04-11.42 5.83 3.72 12.66 5.58 20.11 10.8 1.12-4.22 1.24-12.79 2.36-18.62 4.35-1.12 8.94-1.99 13.91 0-.62-8.56-1.61-16.64-5.83-25.58 4.59-2.24 10.68-4.84 17.38 2.36-1.74-7.08-4.97-13.78-9.31-19.74 4.35-2.11 9.07-3.36 13.91-3.47-4.84-6.34-10.3-14.03-15.15-22.1 3.97-1.99 10.93-3.11 16.26-5.83-5.71-5.71-13.16-14.52-20.99-20.99 3.11-1.61 8.81-2.98 12.79-5.83-4.72-4.72-8.69-11.42-15.15-18.62 4.59-2.24 8.94-5.58 16.26-6.95-5.83-5.83-14.9-15.27-18.62-24.46 3.23-3.23 8.69-6.09 15.15-8.2-8.2-6.09-15.39-13.04-20.99-23.21 3.97-3.85 8.07-6.45 15.15-10.43-7.82-3.85-17.13-10.06-20.99-19.74 3.97-1.99 7.2-2.24 10.43-6.95-5.09-5.09-13.78-12.41-16.26-20.99 7.08-1.74 15.64 3.23 17.76 3.85-.49-8.94-3.47-14.16-14.65-23.34 6.83 0 16.14 5.09 21.98 7.95-1.74-3.72-9.43-17.01-17.38-23.84-9.56-26.07-72.38-103.92-72.01-112.86-3.97 0-10.3.38-17.25.62-19.37 37.12-63.57 84.79-81.45 113.98-6.95 8.69-15.15 14.65-14.16 23.46 7.2-5.46 14.52-5.58 21.48-7.7-9.93 8.2-15.03 13.16-17.63 20.61 3.85.13 10.43 2.24 14.03 3.11-8.07 5.22-15.27 14.03-20.99 19.74 5.58 3.23 11.67 3.47 16.26 5.83-6.58 7.2-15.15 11.67-18.62 18.62 5.96 2.48 7.2 3.72 10.43 10.43-3.6.99-12.54 6.7-18.62 12.79 5.58 3.72 10.43 8.07 15.15 11.67-8.69 5.71-15.27 10.93-19.74 20.36 4.72 2.6 8.56 6.83 12.17 12.17-4.47 10.55-10.8 19.24-14.52 26.7 6.21 5.96 12.17 4.59 16.26 4.59-1.99 8.94-7.33 13.53-10.43 19.74 5.83 2.85 7.57 3.6 11.67 4.59-4.59 8.94-7.08 15.27-12.79 20.99 6.95 1.61 7.45 0 11.67 0-3.6 8.44-7.2 15.03-9.31 23.21 8.07.62 14.16 2.85 20.99 1.12-5.22 6.45-8.81 13.78-7.33 19.74 6.83-.13 13.66 1.49 18.87-1.12-5.58 10.3-2.11 13.53-2.36 18.62 6.95-2.85 13.66-8.07 20.74-9.81 1.37 3.85 6.83 8.07 11.18 14.65 12.79-2.6 19.24-1.99 29.17.13"/>
  <path fill="#aa5a26" d="M516.2 224.75c-9.81 7.57-25.2 4.59-31.66-4.97-9.19-4.59-21.35-12.54-20.99-26.44-7.2-7.2-10.06-17.38-9.43-28.43-5.09-4.97-10.3-11.05-8.81-22.97-4.22-8.56-7.7-18.75-2.73-30.29 14.9 0 27.81.87 32.15 3.97 8.56 11.54 19 24.71 24.21 30.91 16.02 10.8 15.77 50.65 36.75 84.55-8.44-4.72-13.16-5.96-19.49-6.34m-148.97-78.32c6.95-9.56 11.8-30.42 25.08-31.9 8.94-.87 23.09-1.99 37.37-2.48.38 6.09-.74 12.17-3.36 17.76 6.34 9.93 3.72 15.03 0 22.35 2.24 8.81-1.74 14.03-8.07 19 .74 3.11.74 19.74-9.43 22.35 2.11 11.18-4.59 21.98-15.52 25.08-4.22 8.94-9.31 7.95-16.64 8.44-5.22 7.45-25.45 5.83-30.91.13-7.2 2.48-14.52 4.59-21.85 6.21 29.17-49.04 30.29-81.57 43.33-86.91"/>
  <path fill="#ccc" d="M493.23 381.56c-.25-.13-.62 0-1.24.25-1.12.38-1.74 1.74-1.37 2.85 1.99 6.34 6.83 11.67 10.18 16.76-1.86.25-3.6.87-5.34 1.61-1.86 1.12-3.72 1.86-5.71 2.6-.13 0-.38.13-.62.25-1.12.62-1.37 2.11-.74 3.11 2.73 4.1 5.58 7.95 8.81 11.54-3.85 1.86-8.69 4.1-10.8 5.22-.38.13-.62.38-.87.74-.62.99-.38 2.48.74 3.11 1.74 1.12 3.23 2.85 4.35 4.72.74 1.12 2.24 2.48 3.36 3.72-2.98.49-5.83 1.37-8.69 2.6-.13.13-.38.25-.49.38-.87.87-.87 2.36 0 3.23 2.48 2.6 3.6 5.34 5.34 8.07-5.46 2.48-9.43 5.58-14.03 7.82-.62.38-1.12.87-1.24 1.49-3.6 15.64-2.24 24.33-3.11 36.87-.13 1.12.62 2.11 1.61 2.36 5.58 1.61 9.31 6.7 9.43 12.41.13 2.36-.62 4.59-1.99 6.34-1.74 1.86-4.22 2.85-6.7 2.73-4.59.13-8.44 0-11.54-.99s-5.58-2.85-7.82-6.95c-3.36-6.21-4.72-18.37-5.09-29.92s.25-22.6.38-27.69c0-.62-.25-1.24-.74-1.74-2.98-2.73-5.58-5.83-8.44-8.44 3.6-2.73 6.95-5.96 9.68-9.56.62-.74.62-1.86.13-2.6-1.61-2.6-3.72-4.84-6.09-6.7-1.12-.99-2.24-1.99-3.23-3.11 2.85-3.6 5.22-6.83 8.69-9.43.13 0 .25-.13.38-.25.74-.99.74-2.36-.25-3.23-3.6-3.11-6.95-6.45-10.18-10.06 1.86-2.48 3.36-5.09 4.47-7.82.99-2.85 2.36-5.58 4.1-8.07.74-.87.62-2.36-.38-3.11-.99-.74-2.48-.62-3.23.38-1.99 2.73-3.6 5.83-4.72 9.19-.99 2.98-2.73 5.83-4.84 8.2-.74.87-.74 2.24.13 3.11 2.73 2.73 5.34 5.58 9.93 9.93-3.11 2.98-6.09 6.34-8.81 9.81-.62.74-.62 1.74-.13 2.6 1.49 2.11 3.36 3.85 5.34 5.34 1.49 1.24 2.85 2.6 3.97 4.22-2.73 3.36-5.96 6.34-9.43 8.94-.25.13-.38.25-.49.49-.74.99-.49 2.36.49 3.11 2.73 2.11 5.58 5.83 9.31 9.43-.25 5.22-.74 15.64-.38 27.06.38 11.8 1.49 24.08 5.58 31.9 2.11 4.35 5.83 7.57 10.3 9.19 3.97 1.37 8.31 1.37 13.04 1.24 3.72 0 7.33-1.49 9.93-4.35 2.11-2.6 3.23-5.96 3.11-9.31-.13-6.95-4.47-13.28-10.93-15.89.62-11.8-.13-20.11 2.85-33.77 5.34-2.85 9.07-6.09 14.9-8.32.38-.13.62-.25.87-.49.87-.87.87-2.36 0-3.23-1.37-1.37-2.73-4.35-4.97-7.57 2.73-.99 6.09-1.99 8.56-2.6.49-.13.99-.49 1.24-.87.74-.99.49-2.36-.49-3.11-1.86-1.49-3.6-3.47-4.84-5.58-.99-1.12-2.11-2.24-3.23-3.36 3.23-1.61 7.45-3.6 10.55-5.09.25-.13.49-.25.62-.38.87-.87.99-2.36.13-3.23-3.23-3.47-5.96-7.2-8.44-11.18 1.12-.49 2.36-.99 3.47-1.49 2.24-1.12 4.84-1.61 7.45-1.49.38 0 .74-.13 1.12-.25 1.12-.62 1.61-1.99.99-3.11-3.6-7.2-10.18-13.41-11.92-19-.25-.87-1.12-1.49-1.99-1.61m-74.82-.88c-.98-.13-1.98.37-2.6 1.73-.87 1.36-1.98 2.6-3.09 3.7-1.98 1.98-3.34 4.45-4.07 7.17-.13.74.13 1.6.62 2.1 2.84 2.96 5.19 6.3 8.03 9.51-2.6 2.1-4.94 4.32-7.17 6.67-.13.13-.25.37-.37.49-.62 1.11-.25 2.47.87 3.09 2.22 1.36 4.2 3.83 6.17 6.17-1.11.49-2.22.98-3.34 1.73-1.49 1.23-2.47 2.47-4.2 4.2-.25.25-.37.49-.49.87-.49 1.11.13 2.47 1.36 2.84 1.85.49 3.45 1.6 4.81 2.96.74.74 1.85 1.98 2.72 2.96-.74.37-1.23.62-2.22.98-2.22.62-4.45 1.73-6.17 3.34-.87.98-.74 2.34.13 3.21 2.96 2.72 6.3 4.94 9.88 6.92-1.85 2.6-4.32 4.57-7.17 5.81-.87.37-1.36 1.23-1.36 2.1.25 14.09-.13 31.25-.98 48.79-.37 7.79-2.6 11.24-5.93 12.97-3.34 1.85-8.28 1.85-13.96.98-2.22-.13-4.32-1.11-6.05-2.6-1.11-1.11-1.73-2.72-1.73-4.45-.13-3.58 2.1-8.52 6.17-12.22.37-.37.62-.98.62-1.6.25-14.33-1.11-28.66-4.2-42.62-.13-.49-.49-.98-.98-1.36-3.45-2.47-6.79-5.19-9.88-8.03 2.72-1.98 6.05-4.45 8.03-8.4.13-.13.25-.25.25-.49.25-1.23-.49-2.47-1.73-2.72-2.34-.49-4.57-1.11-6.79-1.98-1.23-.37-2.34-.98-3.34-1.73 2.96-3.83 5.43-7.66 8.28-11.98.13-.13.25-.25.25-.37.49-1.23-.13-2.47-1.23-2.96-4.07-1.36-7.79-3.58-10.99-6.43 2.34-3.34 4.94-6.43 7.79-9.39.62-.74.74-1.85.25-2.72-2.96-4.7-5.81-8.77-9.39-13.84v-.13c-.74-.98-2.22-1.23-3.21-.49-.98.74-1.23 2.22-.49 3.21 3.21 4.57 5.93 8.28 8.52 12.22-2.96 3.09-5.81 6.43-8.28 10.01-.62.87-.49 2.1.25 2.84 3.34 3.21 7.41 5.81 11.73 7.54-2.72 4.07-5.07 7.9-7.9 11.49-.62.87-.62 1.98 0 2.84 1.6 2.1 3.96 2.96 6.55 3.96 1.36.62 2.6.87 3.96 1.23-2.22 2.34-4.57 4.45-7.17 6.43l-.25.25c-.87.98-.74 2.34.13 3.21 3.7 3.45 7.66 6.67 11.86 9.51 2.84 13.22 4.2 26.56 3.96 40.02-4.32 4.32-7.17 9.75-6.92 14.82.13 2.72 1.11 5.43 3.09 7.41 2.34 2.22 5.43 3.58 8.64 3.96 6.05.87 11.86 1.11 16.67-1.49 4.7-2.6 7.79-8.03 8.28-16.67.87-17.17 1.23-33.72.98-47.81 3.7-1.85 6.92-4.81 9.14-8.4v-.13c.62-1.11.25-2.47-.87-3.09-2.96-1.73-5.81-3.7-8.52-5.81.62-.37 1.23-.74 1.85-.98 2.1-.62 4.07-1.49 5.81-2.84l.13-.13c.87-.87.87-2.34 0-3.21-1.98-2.1-3.21-3.7-4.81-5.32-1.11-.98-2.34-1.73-3.7-2.34l1.98-1.98c1.36-1.23 3.09-2.1 4.81-2.6.37 0 .62-.25.87-.49.87-.87.87-2.34 0-3.21-1.6-1.6-3.96-4.57-6.92-7.17 1.85-2.22 4.07-4.32 6.55-5.93.24-.12.37-.24.48-.36.89-.89.89-2.33 0-3.22-2.96-2.96-5.32-6.55-8.53-10.13.49-1.6 1.36-3.09 2.47-4.32 1.6-1.49 2.96-3.21 3.96-5.07 0-.25.13-.37.13-.62.13-1.23-.74-2.34-1.98-2.47"/>
  <path d="M473.24 162.17c-14.03 0-14.9 20.23-.87 20.61 15.39.62 15.89-20.61.87-20.61m-75.6 3.36c14.03 0 14.78 20.23.87 20.61-15.39.62-15.89-20.61-.87-20.61"/>
  <path fill="#ff5fd5" d="M453.01 250.32c-.74-25.94-42.21-12.91-35.01 4.22-.74 28.06 37.62 28.68 35.01-4.22"/>
  <path fill="#f9f9f9" d="M404.96 208.36c14.9-18.12 47.31-17.88 64.81-1.61 11.54 2.48 29.55 19.37 31.54 32.03-6.45-4.59-10.06-5.22-15.39-6.45 8.31 7.33 10.8 19.62 11.54 22.72-4.35-2.24-8.81-7.08-12.91-9.68.62 5.96 4.47 16.51 1.61 22.97-5.71-8.56-13.28-17.01-19.87-21.98 2.24 4.59 0 13.04-1.12 15.15-2.73-5.46-6.83-10.93-9.68-15.64-3.11 3.23-5.83 6.83-8.07 10.8-2.48-3.85-5.83-9.68-6.95-11.92-3.85 4.59-7.33 10.55-9.68 12.41-2.11-3.11-3.11-10.18-5.34-12.91-2.85 4.35-6.21 8.56-9.68 12.41-.25-3.47-1.61-10.8-4.1-13.16-8.56 5.96-14.4 16.64-18.5 26.94-2.48-6.95-5.22-15.89-.74-23.21-3.85.99-9.43 2.85-17.63 8.07 1.61-4.84 3.97-12.91 11.92-19-5.09 0-15.27.62-19.37 2.85 2.48-9.56 19.62-24.46 37.62-30.79"/>
  <path d="M438.11 203.03c-24.46-.49-20.74 29.05-.38 29.42 24.08.38 23.34-29.05.38-29.42"/>
  <path fill="#98430a" d="M481.81 116.99c8.44 8.2 16.14 8.69 25.2 18.62 13.16 14.52 26.7 27.19 55.13 36.13-4.59-18.5-.25-72.26-35.13-73-16.64 0-39.98 11.67-45.19 18.25m-114.59 17.13c-17.38 14.52-43.82 22.85-70.77 29.17 6.34-12.66 21.1-46.31 41.47-64.56 20.86-5.22 39.98 7.2 42.71 12.79-9.43 3.97-4.72 15.15-13.41 22.6Z"/>
  <path fill="#c2b8b4" d="M707.85 42.18c-5.96-3.29 6.27 58.98 6.27 58.98l37.18 15.21s-3.14-51.77-43.46-74.21M499.03 280.94c-19.29 29.5-15.85 102.75 33.1 118.92 48.94 16.16-6.27 38.91-6.27 38.91s-45.5-13.5-55.85-71.85c-10.35-58.36 29.02-85.97 29.02-85.97"/>
  <path fill="#d1c7c2" d="M695.62 514.08c-22.75-9.41-114.52 0-114.52 0l-26.98-93.35h166.14l-24.63 93.35Zm38.44-160.65c25.1-.63 30.59 63.23 19.46 97.11-11.14 33.89-6.9 43.46-6.9 43.46s12.39 18.67 1.41 26.52c-10.98 7.85-37.96 0-37.96 0l24-167.08Zm-192.81 0c-25.1-.63-30.59 63.23-19.46 97.11 11.14 33.89 6.9 43.46 6.9 43.46s-12.55 18.67-1.57 26.52c10.98 7.85 37.96 0 37.96 0l-23.85-167.08Z"/>
  <path fill="#e6dbd5" d="M656.39 522.71s.16.16.31.16c.47.31.94.63 1.41.94 2.83 1.41 7.85 2.35 13.81 2.83.63 0 1.1.16 1.73.16 13.81.79 31.38-.63 36.71-4.08 4.86-3.14 12.86-27.77 18.98-55.85 4.08-17.88 6.59-36.08 7.85-54.28 0-1.57.16-3.14.16-4.71.47-28.71-4.23-85.19-11.61-126.44-2.98-16.48-6.27-30.59-9.88-39.38l-8.31 1.88-11.77 2.83-2.67 27.3-12.55 129.27s1.41 14.27 1.88 31.38c.79 24-.31 53.81-9.57 57.27-15.85 5.96-22.75 24.79-16.48 30.75M539.5 407.89c3.29 40.16 18.67 109.5 26.98 114.84 4.86 3.14 20.87 4.71 34.36 4.23h1.73c4.71-.16 9.41-.94 14.12-2.19.63-.16 1.1-.31 1.57-.63.79-.31 1.57-.79 2.19-1.41 6.27-6.12-.63-24.79-16.63-30.9-16-6.12-7.53-88.64-7.53-88.64l.63-192.18-15.69 9.41c-25.57 28.87-48.94 100.09-41.73 187.48"/>
  <path fill="#f5e9e3" d="M554.27 407.87c6.9 13.5 41.42 49.1 68.25 52.4 15.21 1.88 39.54-9.1 59.93-25.73 15.53-12.71 28.87-28.71 33.89-44.71 8.47-26.83 1.41-75.31-3.92-110.13-.31-1.73-.47-3.45-.79-5.18-1.73-10.98-3.14-20.23-3.61-26.52-.16-1.41-.31-2.83-.63-4.08-7.21-29.96-65.11-107.15-65.11-107.15-7.21 6.9-13.81 14.44-19.92 22.59-.63.79-1.25 1.73-1.88 2.51-11.45 15.37-21.96 31.38-31.54 48-10.52 17.73-19.61 36.24-27.61 55.38-2.83 6.9-5.18 13.65-7.06 19.92-14.59 48.16-6.9 109.35 0 122.68"/>
  <path fill="#707070" d="M662.36 256.02c9.25 7.37 19.61 13.5 30.59 17.88 6.27 2.51 12.86 4.39 19.46 5.81 4.23.79 8.63 1.41 13.02 1.73-2.98-16.48-6.27-30.59-9.88-39.38l-8.31 1.88c-7.21-29.96-65.11-107.15-65.11-107.15-7.21 6.9-13.81 14.44-19.92 22.59-11.45 34.52 15.69 77.34 40.16 96.64" opacity=".21" style="isolation:isolate"/>
  <path fill="#f5e9e3" d="M686.52 96.16c41.58-13.65 91.15 42.2 106.21 65.73 15.06 23.54 32.94 69.65 18.98 77.03s-21.33 0-21.33 0-.63 14.59-20.23 18.52c-19.61 3.92-56 5.02-92.4-23.54-36.4-28.56-78.44-109.19 8.79-137.75"/>
  <path fill="#f5e9e3" d="m607.29 70.27 54.91 46.12-15.21 36.24s-59.77-31.85-39.69-82.36"/>
  <path fill="#1a1a1a" d="m790.53 199.22-26.52 7.21c-1.25.31-2.19 1.73-1.88 2.98.16.63.63 1.25 1.1 1.57l22.12 8.94c1.25.79 2.83.31 3.61-.94v-.16l4.23-16.16c.63-1.25.16-2.83-1.1-3.45-.31-.16-.94-.16-1.57 0"/>
  <path fill="#c2b8b4" d="M682.44 153.57c-18.2 18.52 14.75 60.08 31.85 50.67 17.1-9.41 20.23-29.65 9.73-43.14-10.52-13.5-24.63-24.63-41.58-7.53"/>
  <path fill="#ededed" d="M691.22 173.18c-.16 5.49 4.23 10.19 9.73 10.19 5.49.16 10.19-4.23 10.19-9.73.16-5.49-4.23-10.19-9.73-10.19h-.31c-5.33 0-9.73 4.39-9.88 9.73"/>
  <path d="M692.64 171.62c-.16 3.92 2.98 7.21 6.9 7.21 3.92.16 7.21-2.98 7.21-6.9s-2.98-7.21-6.9-7.21h-.16c-3.92 0-7.06 3.14-7.06 6.9"/>
  <path fill="#fff" d="M694.2 169.1c0 1.41 1.1 2.51 2.35 2.51 1.41 0 2.51-1.1 2.51-2.35s-1.1-2.51-2.35-2.51c-1.41 0-2.51.94-2.51 2.35"/>
  <path fill="#ededed" d="M758.22 149.81c-.16 5.49 4.23 10.19 9.73 10.19 5.49.16 10.19-4.23 10.19-9.73.16-5.49-4.23-10.19-9.73-10.19h-.31c-5.33 0-9.88 4.39-9.88 9.73"/>
  <path d="M759.47 148.24c-.16 3.92 2.98 7.21 6.9 7.21s7.21-2.98 7.21-6.9-2.98-7.21-6.9-7.21h-.16c-3.92 0-7.06 3.14-7.06 6.9"/>
  <path fill="#fff" d="M761.04 145.73c0 1.41 1.1 2.51 2.35 2.51 1.41 0 2.51-1.1 2.51-2.35s-1.1-2.51-2.35-2.51c-1.41 0-2.51.94-2.51 2.35"/>
  <path fill="#e6dbd5" d="M561.33 265.12s25.89 19.77 35.46 4.08-3.77-27.77-7.85-59.46c-10.52 17.73-19.77 36.24-27.61 55.38"/>
  <path fill="#c2b8b4" d="M729.03 467.02c4.08-17.88 6.59-36.08 7.85-54.28-24.16 15.06-39.22 41.26-7.85 54.28m-72.48 56.01c.47.31.94.63 1.41.94 2.67-6.12 5.81-11.92 9.57-17.42.63-.94-.79-1.73-1.41-.79-3.77 5.33-6.9 11.14-9.57 17.25m15.21 3.62c.63 0 1.1.16 1.73.16 1.41-5.81 3.61-11.45 6.59-16.63.16-.47 0-.94-.31-1.1-.47-.16-.94 0-1.1.31-3.14 5.33-5.49 11.14-6.9 17.25m-58.83-18.2c1.88 5.33 3.14 10.83 3.61 16.31.63-.16 1.1-.31 1.57-.63-.63-5.49-1.88-10.98-3.61-16.16-.31-1.1-1.88-.63-1.57.47m-12.86 1.89c.79 5.49 1.1 11.14.63 16.63.63 0 1.1 0 1.73-.16.31-5.65.16-11.29-.79-16.94 0-1.1-1.73-.63-1.57.47"/>
</svg>