<svg xmlns="http://www.w3.org/2000/svg" viewBox="0 0 820.06 541.92">
  <path fill="#666793" d="M26.33 306.69c-27.35 14.45-28.47 46.75-24.82 70.79C9 423.34 28.78 468.23 62.85 502.69c17.45 17.66 39.83 32.64 66.34 37.54 7.77 1.42 15.71 1.88 23.51 1.63 6.14-.15 12.41-.43 18.3-2.11h.14c.7-.12.99-.81.73-1.37-.12-.7-.81-.99-1.37-.73-5.04 1.14-10.21 1.87-15.37 1.89-7.39.26-14.77-.04-22.13-1.04C54.14 525.35 5.33 425.91 2.46 359.94c-.55-19.1 4.97-42.39 25.94-52.1 19.42-8.63 41.76-10.92 62.46-8.24 17.09 2.33 32.96 8.95 46.85 17.61-12.85 14.21-4.92 33.89 4.41 46.91 17.73 23.8 39.62 10.2 30.01-14.94-6.11-13.37-18.15-23.67-30.64-32.3 15.9-13.58 47.17-3.28 66.97-3.97 18.66.55 37.07-6.85 50.84-18.25 22.26-17.62 25.82-46.67 16.44-69.73-5.67-14.34-15.27-28.06-29.86-36.18 10.74-25.96 9.02-55.4 25.57-79.69 23.56-32.22 70.89-30.63 100.67-9.78-16.39 10.37-28.72 26.26-31.06 44.04-2.82 20.42 3.71 46.76 21.54 59.83 8.36 6.17 19.96 4.9 26.68-3.04 6.3-7.39 8.31-16.96 8.51-25.87 4.61 5.67 9.91 11.79 17.81 13.77 11.52 2.21 13.3-9.6 10.54-16.77-10-26.69-24.87-54.05-49.54-72.43 48.85-29.44 98.53-13.72 125.19 28.38 12.39 19.92 16.59 44.12 33.9 61.49 9.4 9.54 22.74 17.77 37.96 16.43 19.27-1.95 35.47-16.36 41.68-32.53 12.83 6 28.15 6.47 42.29 2.74 8.82-1.9 17.38-5.05 26.33-6.11 16.2-1.45 32.42 2.38 46.3 10.76 19.8 12 39.7 38.35 25.57 60.33-3.52-4.81-9.02-8.14-14.99-8.82-6.38-.98-16.03.62-17.3 7.56-.86 7.09 6.99 11.72 13.94 12.56 6.67.7 13.42-1.93 17.99-6.99 5.31 11.68 2.66 25-.53 37.19-3.02 10.67-6.04 21.47-11.28 31.52-.58.96-1.16 1.93-1.73 2.75-.86 1.24 1.34 2.4 2.2 1.02 6.35-9.76 8.96-20.99 12.4-31.63 3.93-13.99 7.47-29.51.66-42.76 18.26-25.93-9.17-58.58-35.13-69.19-12.97-5.44-28.11-8.14-42.65-5.53-23.24 5.06-40.29 13.46-63.31 2.79 3.13-9.13 3.77-19.56-1.62-27.76-3.36-5.37-10.23-10.12-17.65-8.61-7.7 1.79-8.58 10.13-6.19 15.47 3.97 9.56 12.72 17 22.37 21.94-5.61 14.37-17.41 25.25-32.01 29.95-28.89 8.28-49.91-17.53-59.5-37.81-3.86-8.16-7.02-16.74-10.87-25.04-4.26-9.01-9.65-17.49-16.17-25.15-30.03-35.07-76.95-42.37-120.03-16.01-18.66-12.81-44.01-19.64-67.96-14.03-55.07 14.39-47.55 65.42-62.6 103.82-9.64-4.81-21.28-7.99-32.75-6.15-12.16 1.82-21.87 12.34-17.09 23.03 4.23 10.41 19.06 14.08 30.18 9.16 10.27-4.51 16.88-13.71 20.98-22.81 13.49 7.68 22.26 20.42 27.82 33.63 9.67 22.65 6.68 51.14-15.3 68.63-13.06 10.86-30.21 17.87-47.76 17.63-21.47.78-52.86-10.22-70.33 4.86-14.98-9.39-32.24-16.45-50.87-18.39-20.72-2.13-43.34.3-62.35 9.5m185.04-122.31c11.04-1.85 22.12 1.32 31.5 6.12-3.53 8.42-9.43 16.8-18.44 21.33-8.17 4.14-19.3 3.2-25.15-2.92-9.26-9.82-1.6-22.47 12.11-24.53m523.34 50.21c7.96-.8 15.82 2.72 19.45 8.92-15.74 18.6-42.24-5.39-19.45-8.92m-123-90.48c5.55 7.78 5.05 17.67 2.07 26.38-8.81-4.66-16.88-11.66-20.73-20.38-1.86-4.36-1.84-11.19 4.32-12.73 6.01-1.12 11.36 2.62 14.35 6.72m-224.15 4.84c5.23 3.32 6.42 12.26 7.41 17.85-3.1-4.95-9.07-11.9-7.41-17.85m-43.17 18.15c-5.56-26.04 4.58-50.06 29.87-65.81 21.54 14.97 34.58 37.12 44.81 59.37 2.39 5.49 5.19 11.12 5.76 17.13.64 9.07-6.79 11-13.93 6.1-5.49-3.6-9.29-8.43-13.09-13.24-.2-3.63-.68-7.26-1.57-10.77-4.18-19.18-18.17-16.42-7.97 1.22 1.48 2.68 3.23 5.09 4.98 7.63.67 1.27 2.18 2.27 2.01 3.81.69 12.84-5.68 36.66-24.95 32.19-15.49-5.07-23.02-24.05-25.93-37.63M144.4 363.55c-8.38-11.75-16.07-29.48-6.03-42.77.43-.54 1-1.1 1.43-1.64 11.67 7.92 22.89 17.36 29.17 29.48 10.38 22.25-6.96 37.88-24.57 14.93"/>
  <path fill="#784421" d="M306.78 135.75c6.94-3.47 11.79-3.61 17.2-9.02 10.27-10.27 28.44-24.97 18.17-43.84-27.61-23.58-47.45 12.49-54.24 34.82 4.44 4.44 12.35 14.84 18.87 18.04m171.19 2.64c-17.34-4.99-46.61-28.16-40.37-53.41 23.31-7.91 46.61 21.64 54.11 37.32-4.16 5.69-8.74 11.1-13.73 16.09"/>
  <path fill="#ececec" d="M458.27 381.86c-8.6-15.54-46.34-14.57-51.47.28-4.72 5.97-4.86 13.18-10.82 19.56 3.75 3.75 5.55 6.24 13.04 12.9-4.86 3.61-7.91 8.05-11.65 12.62 2.5 3.88 7.91 5.97 11.65 12.07-3.61 4.58-7.91 8.6-12.62 11.93 3.75 2.77 6.94 7.49 11.38 11.51-.28 11.24-2.64 50.08 5.69 65.76 5.41 9.99 13.6 10.54 23.86 10.27 16.51-.28 15.95-23.72-.14-28.86.97-14.29-.55-23.72 3.47-40.79 6.24-3.05 10.54-7.08 18.04-9.99-2.77-2.77-3.61-7.35-7.77-11.65 3.47-1.66 9.57-2.91 13.04-3.88-5.55-4.3-6.38-9.99-11.65-13.04 2.91-1.39 10.27-4.99 14.71-7.08-4.3-4.58-8.19-9.71-11.51-15.12 4.86-1.25 7.91-5.13 16.23-4.99-3.61-7.21-11.24-14.29-13.46-21.5m-83.81-1.25c-8.46-24-63.96-20.95-61.6 4.99 3.88 5.69 7.21 10.27 10.54 15.4-3.75 3.88-7.35 8.19-10.4 12.62 4.16 4.16 9.43 7.35 15.12 9.16-3.75 5.69-6.8 10.54-10.68 15.54 2.08 2.64 9.99 5.13 14.29 5.97-2.36 4.72-7.63 7.77-10.96 10.54 4.3 4.02 9.02 7.77 13.87 11.1 3.33 15.4 4.86 31.21 4.58 47.03-9.99 9.29-11.65 24.14 3.33 26.22 13.18 1.94 24.28.42 25.25-18.04 1.11-19.7 1.39-38.98 1.11-54.94 4.44-1.94 8.19-5.27 10.68-9.43-4.72-2.5-9.02-5.55-13.04-9.16 3.05-3.05 9.02-3.61 11.79-5.97-4.72-4.86-5.69-7.77-11.79-9.85 4.02-4.02 4.44-5.69 10.82-7.91-2.64-2.64-5.83-7.35-9.85-9.85 2.08-2.08 5.27-6.1 9.85-8.88-3.88-3.88-6.66-8.6-10.82-12.76 1.66-6.24 6.38-8.32 7.91-11.79"/>
  <path fill="#ececec" d="M364.63 535.02c13.73 1.53 41.62-2.5 50.64 0 7.35-.97 23.31-2.64 34.27-.69 3.05-2.91 12.35-7.63 14.57-12.76 6.52 4.16 14.15 6.24 22.47 12.07 1.25-4.72 1.39-14.29 2.64-20.81 4.86-1.25 9.99-2.22 15.54 0-.69-9.57-1.8-18.59-6.52-28.58 5.13-2.5 11.93-5.41 19.42 2.64-1.94-7.91-5.55-15.4-10.4-22.06 4.86-2.36 10.13-3.75 15.54-3.88-5.41-7.08-11.51-15.68-16.93-24.69 4.44-2.22 12.21-3.47 18.17-6.52-6.38-6.38-14.71-16.23-23.45-23.45 3.47-1.8 9.85-3.33 14.29-6.52-5.27-5.27-9.71-12.76-16.93-20.81 5.13-2.5 9.99-6.24 18.17-7.77-6.52-6.52-16.65-17.06-20.81-27.33 3.61-3.61 9.71-6.8 16.93-9.16-9.16-6.8-17.2-14.57-23.45-25.94 4.44-4.3 9.02-7.21 16.93-11.65-8.74-4.3-19.14-11.24-23.45-22.06 4.44-2.22 8.05-2.5 11.65-7.77-5.69-5.69-15.4-13.87-18.17-23.45 7.91-1.94 17.48 3.61 19.84 4.3-.55-9.99-3.88-15.82-16.37-26.08 7.63 0 18.04 5.69 24.56 8.88-1.94-4.16-10.54-19.01-19.42-26.64-10.68-29.13-80.88-116.12-80.46-126.11-4.44 0-11.51.42-19.28.69-21.64 41.48-71.03 94.75-91.01 127.36-7.77 9.71-16.93 16.37-15.82 26.22 8.05-6.1 16.23-6.24 24-8.6-11.1 9.16-16.79 14.71-19.7 23.03 4.3.14 11.65 2.5 15.68 3.47-9.02 5.83-17.06 15.68-23.45 22.06 6.24 3.61 13.04 3.88 18.17 6.52-7.35 8.05-16.93 13.04-20.81 20.81 6.66 2.77 8.05 4.16 11.65 11.65-4.02 1.11-14.01 7.49-20.81 14.29 6.24 4.16 11.65 9.02 16.93 13.04-9.71 6.38-17.06 12.21-22.06 22.75 5.27 2.91 9.57 7.63 13.6 13.6-4.99 11.79-12.07 21.5-16.23 29.83 6.94 6.66 13.6 5.13 18.17 5.13-2.22 9.99-8.19 15.12-11.65 22.06 6.52 3.19 8.46 4.02 13.04 5.13-5.13 9.99-7.91 17.06-14.29 23.45 7.77 1.8 8.32 0 13.04 0-4.02 9.43-8.05 16.79-10.4 25.94 9.02.69 15.82 3.19 23.45 1.25-5.83 7.21-9.85 15.4-8.19 22.06 7.63-.14 15.26 1.66 21.09-1.25-6.24 11.51-2.36 15.12-2.64 20.81 7.77-3.19 15.26-9.02 23.17-10.96 1.53 4.3 7.63 9.02 12.49 16.37 14.29-2.91 21.5-2.22 32.6.14"/>
  <path fill="#aa5a26" d="M484.21 204.14c-10.96 8.46-28.16 5.13-35.38-5.55-10.27-5.13-23.86-14.01-23.45-29.55-8.05-8.05-11.24-19.42-10.54-31.77-5.69-5.55-11.51-12.35-9.85-25.67-4.72-9.57-8.6-20.95-3.05-33.85 16.65 0 31.08.97 35.93 4.44 9.57 12.9 21.23 27.61 27.05 34.54 17.9 12.07 17.62 56.6 41.06 94.48-9.43-5.27-14.71-6.66-21.78-7.08m-166.46-87.52c7.77-10.68 13.18-33.99 28.02-35.65 9.99-.97 25.8-2.22 41.76-2.77.42 6.8-.83 13.6-3.75 19.84 7.08 11.1 4.16 16.79 0 24.97 2.5 9.85-1.94 15.68-9.02 21.23.83 3.47.83 22.06-10.54 24.97 2.36 12.49-5.13 24.56-17.34 28.02-4.72 9.99-10.4 8.88-18.59 9.43-5.83 8.32-28.44 6.52-34.54.14-8.05 2.77-16.23 5.13-24.42 6.94 32.6-54.8 33.85-91.15 48.42-97.11"/>
  <path fill="#ccc" d="M458.55 379.36c-.28-.14-.69 0-1.39.28-1.25.42-1.94 1.94-1.53 3.19 2.22 7.08 7.63 13.04 11.38 18.73-2.08.28-4.02.97-5.97 1.8-2.08 1.25-4.16 2.08-6.38 2.91-.14 0-.42.14-.69.28-1.25.69-1.53 2.36-.83 3.47 3.05 4.58 6.24 8.88 9.85 12.9-4.3 2.08-9.71 4.58-12.07 5.83-.42.14-.69.42-.97.83-.69 1.11-.42 2.77.83 3.47 1.94 1.25 3.61 3.19 4.86 5.27.83 1.25 2.5 2.77 3.75 4.16-3.33.55-6.52 1.53-9.71 2.91-.14.14-.42.28-.55.42-.97.97-.97 2.64 0 3.61 2.77 2.91 4.02 5.97 5.97 9.02-6.1 2.77-10.54 6.24-15.68 8.74-.69.42-1.25.97-1.39 1.66-4.02 17.48-2.5 27.19-3.47 41.2-.14 1.25.69 2.36 1.8 2.64 6.24 1.8 10.4 7.49 10.54 13.87.14 2.64-.69 5.13-2.22 7.08-1.94 2.08-4.72 3.19-7.49 3.05-5.13.14-9.43 0-12.9-1.11-3.47-1.11-6.24-3.19-8.74-7.77-3.75-6.94-5.27-20.53-5.69-33.43-.42-12.9.28-25.25.42-30.94 0-.69-.28-1.39-.83-1.94-3.33-3.05-6.24-6.52-9.43-9.43 4.02-3.05 7.77-6.66 10.82-10.68.69-.83.69-2.08.14-2.91-1.8-2.91-4.16-5.41-6.8-7.49-1.25-1.11-2.5-2.22-3.61-3.47 3.19-4.02 5.83-7.63 9.71-10.54.14 0 .28-.14.42-.28.83-1.11.83-2.64-.28-3.61-4.02-3.47-7.77-7.21-11.38-11.24 2.08-2.77 3.75-5.69 4.99-8.74 1.11-3.19 2.64-6.24 4.58-9.02.83-.97.69-2.64-.42-3.47-1.11-.83-2.77-.69-3.61.42-2.22 3.05-4.02 6.52-5.27 10.27-1.11 3.33-3.05 6.52-5.41 9.16-.83.97-.83 2.5.14 3.47 3.05 3.05 5.97 6.24 11.1 11.1-3.47 3.33-6.8 7.08-9.85 10.96-.69.83-.69 1.94-.14 2.91 1.66 2.36 3.75 4.3 5.97 5.97 1.66 1.39 3.19 2.91 4.44 4.72-3.05 3.75-6.66 7.08-10.54 9.99-.28.14-.42.28-.55.55-.83 1.11-.55 2.64.55 3.47 3.05 2.36 6.24 6.52 10.4 10.54-.28 5.83-.83 17.48-.42 30.24.42 13.18 1.66 26.91 6.24 35.65 2.36 4.86 6.52 8.46 11.51 10.27 4.44 1.53 9.29 1.53 14.57 1.39 4.16 0 8.19-1.66 11.1-4.86 2.36-2.91 3.61-6.66 3.47-10.4-.14-7.77-4.99-14.84-12.21-17.76.69-13.18-.14-22.47 3.19-37.73 5.97-3.19 10.13-6.8 16.65-9.3.42-.14.69-.28.97-.55.97-.97.97-2.64 0-3.61-1.53-1.53-3.05-4.86-5.55-8.46 3.05-1.11 6.8-2.22 9.57-2.91.55-.14 1.11-.55 1.39-.97.83-1.11.55-2.64-.55-3.47-2.08-1.66-4.02-3.88-5.41-6.24-1.11-1.25-2.36-2.5-3.61-3.75 3.61-1.8 8.32-4.02 11.79-5.69.28-.14.55-.28.69-.42.97-.97 1.11-2.64.14-3.61-3.61-3.88-6.66-8.05-9.43-12.49 1.25-.55 2.64-1.11 3.88-1.66 2.5-1.25 5.41-1.8 8.32-1.66.42 0 .83-.14 1.25-.28 1.25-.69 1.8-2.22 1.11-3.47-4.02-8.05-11.38-14.98-13.32-21.23-.28-.97-1.25-1.66-2.22-1.8m-83.6-.98c-1.1-.14-2.21.41-2.9 1.93-.97 1.52-2.21 2.9-3.45 4.14-2.21 2.21-3.73 4.97-4.55 8.01-.14.83.14 1.79.69 2.35 3.17 3.31 5.8 7.04 8.97 10.63-2.9 2.35-5.52 4.83-8.01 7.45-.14.14-.28.41-.41.55-.69 1.24-.28 2.76.97 3.45 2.48 1.52 4.69 4.28 6.9 6.9-1.24.55-2.48 1.1-3.73 1.93-1.66 1.38-2.76 2.76-4.69 4.69-.28.28-.41.55-.55.97-.55 1.24.14 2.76 1.52 3.17 2.07.55 3.86 1.79 5.38 3.31.83.83 2.07 2.21 3.04 3.31-.83.41-1.38.69-2.48 1.1-2.48.69-4.97 1.93-6.9 3.73-.97 1.1-.83 2.62.14 3.59 3.31 3.04 7.04 5.52 11.04 7.73-2.07 2.9-4.83 5.11-8.01 6.49-.97.41-1.52 1.38-1.52 2.35.28 15.74-.14 34.92-1.1 54.52-.41 8.7-2.9 12.56-6.63 14.49-3.73 2.07-9.25 2.07-15.6 1.1-2.48-.14-4.83-1.24-6.76-2.9-1.24-1.24-1.93-3.04-1.93-4.97-.14-4 2.35-9.52 6.9-13.66.41-.41.69-1.1.69-1.79.28-16.01-1.24-32.02-4.69-47.62-.14-.55-.55-1.1-1.1-1.52-3.86-2.76-7.59-5.8-11.04-8.97 3.04-2.21 6.76-4.97 8.97-9.39.14-.14.28-.28.28-.55.28-1.38-.55-2.76-1.93-3.04-2.62-.55-5.11-1.24-7.59-2.21-1.38-.41-2.62-1.1-3.73-1.93 3.31-4.28 6.07-8.56 9.25-13.39.14-.14.28-.28.28-.41.55-1.38-.14-2.76-1.38-3.31-4.55-1.52-8.7-4-12.28-7.18 2.62-3.73 5.52-7.18 8.7-10.49.69-.83.83-2.07.28-3.04-3.31-5.25-6.49-9.8-10.49-15.46v-.14c-.83-1.1-2.48-1.38-3.59-.55-1.1.83-1.38 2.48-.55 3.59 3.59 5.11 6.63 9.25 9.52 13.66-3.31 3.45-6.49 7.18-9.25 11.18-.69.97-.55 2.35.28 3.17 3.73 3.59 8.28 6.49 13.11 8.42-3.04 4.55-5.66 8.83-8.83 12.84-.69.97-.69 2.21 0 3.17 1.79 2.35 4.42 3.31 7.32 4.42 1.52.69 2.9.97 4.42 1.38-2.48 2.62-5.11 4.97-8.01 7.18l-.28.28c-.97 1.1-.83 2.62.14 3.59 4.14 3.86 8.56 7.45 13.25 10.63 3.17 14.77 4.69 29.68 4.42 44.72-4.83 4.83-8.01 10.9-7.73 16.56.14 3.04 1.24 6.07 3.45 8.28 2.62 2.48 6.07 4 9.66 4.42 6.76.97 13.25 1.24 18.63-1.66 5.25-2.9 8.7-8.97 9.25-18.63.97-19.19 1.38-37.68 1.1-53.42 4.14-2.07 7.73-5.38 10.21-9.39v-.14c.69-1.24.28-2.76-.97-3.45-3.31-1.93-6.49-4.14-9.52-6.49.69-.41 1.38-.83 2.07-1.1 2.35-.69 4.55-1.66 6.49-3.17l.14-.14c.97-.97.97-2.62 0-3.59-2.21-2.35-3.59-4.14-5.38-5.94-1.24-1.1-2.62-1.93-4.14-2.62l2.21-2.21c1.52-1.38 3.45-2.35 5.38-2.9.41 0 .69-.28.97-.55.97-.97.97-2.62 0-3.59-1.79-1.79-4.42-5.11-7.73-8.01 2.07-2.48 4.55-4.83 7.32-6.63.27-.13.41-.27.54-.4.99-.99 1-2.6.01-3.6-3.31-3.31-5.94-7.32-9.53-11.32.55-1.79 1.52-3.45 2.76-4.83 1.79-1.66 3.31-3.59 4.42-5.66 0-.28.14-.41.14-.69.14-1.38-.83-2.62-2.21-2.76"/>
  <path d="M436.21 134.22c-15.68 0-16.65 22.61-.97 23.03 17.2.69 17.76-23.03.97-23.03m-84.48 3.75c15.68 0 16.51 22.61.97 23.03-17.2.69-17.76-23.03-.97-23.03"/>
  <path fill="#ff5fd5" d="M413.6 232.72c-.83-28.99-47.17-14.43-39.12 4.72-.83 31.35 42.04 32.05 39.12-4.72"/>
  <path fill="#f9f9f9" d="M359.91 185.83c16.65-20.25 52.86-19.98 72.42-1.8 12.9 2.77 33.02 21.64 35.24 35.79-7.21-5.13-11.24-5.83-17.2-7.21 9.29 8.19 12.07 21.92 12.9 25.39-4.86-2.5-9.85-7.91-14.43-10.82.69 6.66 4.99 18.45 1.8 25.67-6.38-9.57-14.84-19.01-22.2-24.56 2.5 5.13 0 14.57-1.25 16.93-3.05-6.1-7.63-12.21-10.82-17.48-3.47 3.61-6.52 7.63-9.02 12.07-2.77-4.3-6.52-10.82-7.77-13.32-4.3 5.13-8.19 11.79-10.82 13.87-2.36-3.47-3.47-11.38-5.97-14.43-3.19 4.86-6.94 9.57-10.82 13.87-.28-3.88-1.8-12.07-4.58-14.71-9.57 6.66-16.09 18.59-20.67 30.1-2.77-7.77-5.83-17.76-.83-25.94-4.3 1.11-10.54 3.19-19.7 9.02 1.8-5.41 4.44-14.43 13.32-21.23-5.69 0-17.06.69-21.64 3.19 2.77-10.68 21.92-27.33 42.04-34.41"/>
  <path d="M396.95 179.87c-27.33-.55-23.17 32.46-.42 32.88 26.91.42 26.08-32.46.42-32.88"/>
  <path fill="#98430a" d="M445.79 83.73c9.43 9.16 18.04 9.71 28.16 20.81 14.71 16.23 29.83 30.38 61.6 40.37-5.13-20.67-.28-80.74-39.26-81.57-18.59 0-44.67 13.04-50.5 20.39m-128.05 19.14c-19.42 16.23-48.97 25.53-79.08 32.6 7.08-14.15 23.58-51.75 46.34-72.14 23.31-5.83 44.67 8.05 47.72 14.29-10.54 4.44-5.27 16.93-14.98 25.25Z"/>
  <path fill="#c2b8b4" d="M698.37.14c-6.66-3.68 7.01 65.91 7.01 65.91l41.55 17S743.42 25.2 698.37.13M465.04 266.95c-21.56 32.96-17.71 114.82 36.99 132.88 54.69 18.06-7.01 43.48-7.01 43.48s-50.84-15.08-62.41-80.29c-11.57-65.21 32.43-96.07 32.43-96.07"/>
  <path fill="#d1c7c2" d="M684.7 527.45c-25.42-10.52-127.97 0-127.97 0l-30.15-104.31h185.65l-27.52 104.31Zm42.95-179.51c28.05-.7 34.18 70.65 21.74 108.51-12.45 37.87-7.71 48.56-7.71 48.56s13.85 20.86 1.58 29.63-42.42 0-42.42 0l26.82-186.7Zm-215.45 0c-28.05-.7-34.18 70.65-21.74 108.51 12.45 37.87 7.71 48.56 7.71 48.56s-14.02 20.86-1.75 29.63 42.42 0 42.42 0l-26.65-186.7Z"/>
  <path fill="#e6dbd5" d="M640.87 537.09s.18.18.35.18c.53.35 1.05.7 1.58 1.05 3.16 1.58 8.77 2.63 15.43 3.16.7 0 1.23.18 1.93.18 15.43.88 35.06-.7 41.02-4.56 5.43-3.51 14.37-31.03 21.21-62.41 4.56-19.98 7.36-40.32 8.77-60.65 0-1.75.18-3.51.18-5.26.53-32.08-4.73-95.19-12.97-141.29-3.33-18.41-7.01-34.18-11.04-44l-9.29 2.1-13.15 3.16-2.98 30.5-14.02 144.45s1.58 15.95 2.1 35.06c.88 26.82-.35 60.13-10.69 63.99-17.71 6.66-25.42 27.7-18.41 34.36M510.27 408.77c3.68 44.88 20.86 122.36 30.15 128.32 5.43 3.51 23.32 5.26 38.39 4.73h1.93c5.26-.18 10.52-1.05 15.78-2.45.7-.18 1.23-.35 1.75-.7.88-.35 1.75-.88 2.45-1.58 7.01-6.84-.7-27.7-18.58-34.53-17.88-6.84-8.41-99.05-8.41-99.05l.7-214.75-17.53 10.52c-28.57 32.26-54.69 111.84-46.63 209.49"/>
  <path fill="#f5e9e3" d="M526.75 408.77c7.71 15.08 46.28 54.87 76.26 58.55 17 2.1 44.18-10.17 66.97-28.75 17.35-14.2 32.26-32.08 37.87-49.96 9.47-29.98 1.58-84.15-4.38-123.06-.35-1.93-.53-3.86-.88-5.79-1.93-12.27-3.51-22.61-4.03-29.63-.18-1.58-.35-3.16-.7-4.56-8.06-33.48-72.75-119.73-72.75-119.73-8.06 7.71-15.43 16.13-22.26 25.24-.7.88-1.4 1.93-2.1 2.8-12.8 17.18-24.54 35.06-35.24 53.64-11.75 19.81-21.91 40.5-30.85 61.88-3.16 7.71-5.79 15.25-7.89 22.26-16.3 53.82-7.71 122.19 0 137.09"/>
  <path fill="#707070" d="M647.54 239.08c10.34 8.24 21.91 15.08 34.18 19.98 7.01 2.8 14.37 4.91 21.74 6.49 4.73.88 9.64 1.58 14.55 1.93-3.33-18.41-7.01-34.18-11.04-44l-9.29 2.1c-8.06-33.48-72.75-119.73-72.75-119.73-8.06 7.71-15.43 16.13-22.26 25.24-12.8 38.57 17.53 86.42 44.88 107.99" opacity=".21" style="isolation:isolate"/>
  <path fill="#f5e9e3" d="M674.53 60.45c46.46-15.25 101.85 47.16 118.68 73.45 16.83 26.3 36.81 77.83 21.21 86.07-15.6 8.24-23.84 0-23.84 0s-.7 16.3-22.61 20.69c-21.91 4.38-62.58 5.61-103.25-26.3s-87.65-122.01 9.82-153.92"/>
  <path fill="#f5e9e3" d="m586 31.52 61.36 51.54-17 40.5s-66.79-35.59-44.35-92.03"/>
  <path fill="#1a1a1a" d="m790.76 175.62-29.63 8.06c-1.4.35-2.45 1.93-2.1 3.33.18.7.7 1.4 1.23 1.75l24.72 9.99c1.4.88 3.16.35 4.03-1.05v-.18l4.73-18.06c.7-1.4.18-3.16-1.23-3.86-.35-.18-1.05-.18-1.75 0"/>
  <path fill="#c2b8b4" d="M669.97 124.61c-20.34 20.69 16.48 67.14 35.59 56.62 19.11-10.52 22.61-33.13 10.87-48.21-11.75-15.08-27.52-27.52-46.46-8.41"/>
  <path fill="#ededed" d="M679.79 146.52c-.18 6.14 4.73 11.39 10.87 11.39 6.14.18 11.39-4.73 11.39-10.87.18-6.14-4.73-11.39-10.87-11.39h-.35c-5.96 0-10.87 4.91-11.04 10.87"/>
  <path d="M681.37 144.77c-.18 4.38 3.33 8.06 7.71 8.06 4.38.18 8.06-3.33 8.06-7.71s-3.33-8.06-7.71-8.06h-.18c-4.38 0-7.89 3.51-7.89 7.71"/>
  <path fill="#fff" d="M683.12 141.96c0 1.58 1.23 2.8 2.63 2.8 1.58 0 2.8-1.23 2.8-2.63s-1.23-2.8-2.63-2.8c-1.58 0-2.8 1.05-2.8 2.63"/>
  <path fill="#ededed" d="M754.65 120.4c-.18 6.14 4.73 11.39 10.87 11.39 6.14.18 11.39-4.73 11.39-10.87.18-6.14-4.73-11.39-10.87-11.39h-.35c-5.96 0-11.04 4.91-11.04 10.87"/>
  <path d="M756.05 118.65c-.18 4.38 3.33 8.06 7.71 8.06s8.06-3.33 8.06-7.71-3.33-8.06-7.71-8.06h-.18c-4.38 0-7.89 3.51-7.89 7.71"/>
  <path fill="#fff" d="M757.8 115.84c0 1.58 1.23 2.8 2.63 2.8 1.58 0 2.8-1.23 2.8-2.63s-1.23-2.8-2.63-2.8c-1.58 0-2.8 1.05-2.8 2.63"/>
  <path fill="#e6dbd5" d="M534.64 249.25s28.93 22.09 39.62 4.56c10.69-17.53-4.21-31.03-8.77-66.44-11.75 19.81-22.09 40.5-30.85 61.88"/>
  <path fill="#c2b8b4" d="M722.04 474.86c4.56-19.98 7.36-40.32 8.77-60.65-27 16.83-43.83 46.1-8.77 60.65m-80.99 62.59c.53.35 1.05.7 1.58 1.05 2.98-6.84 6.49-13.32 10.69-19.46.7-1.05-.88-1.93-1.58-.88-4.21 5.96-7.71 12.45-10.69 19.28m17 4.04c.7 0 1.23.18 1.93.18 1.58-6.49 4.03-12.8 7.36-18.58.18-.53 0-1.05-.35-1.23-.53-.18-1.05 0-1.23.35-3.51 5.96-6.14 12.45-7.71 19.28m-65.74-20.34c2.1 5.96 3.51 12.1 4.03 18.23.7-.18 1.23-.35 1.75-.7-.7-6.14-2.1-12.27-4.03-18.06-.35-1.23-2.1-.7-1.75.53m-14.37 2.11c.88 6.14 1.23 12.45.7 18.58.7 0 1.23 0 1.93-.18.35-6.31.18-12.62-.88-18.93 0-1.23-1.93-.7-1.75.53"/>
</svg>