<svg xmlns="http://www.w3.org/2000/svg" viewBox="0 0 861.03 603.92" width="100%" height="100%">
  <path fill="#666793" d="M28.69 340.26c-30.65 16.96-31.21 53.56-26.54 80.7 9.49 51.76 32.88 102.15 72.22 140.41 20.15 19.61 45.82 36.08 75.94 41.04 8.83 1.44 17.82 1.78 26.65 1.33 6.95-.3 14.04-.76 20.68-2.79h.15c.79-.15 1.1-.94.8-1.57-.15-.79-.94-1.1-1.57-.8-5.68 1.41-11.52 2.34-17.36 2.48-8.37.45-16.72.28-25.08-.69C65.01 587.22 7.54 475.71 2.83 401.08c-1.05-21.62 4.69-48.11 28.22-59.56 21.79-10.2 47.04-13.29 70.54-10.71 19.4 2.26 37.52 9.4 53.43 18.9-14.24 16.37-4.83 38.47 6.02 53.02 20.6 26.55 45.09 10.67 33.64-17.58-7.22-15.01-21.08-26.4-35.41-35.9 17.7-15.73 53.33-4.76 75.73-5.97 21.14.21 41.82-8.57 57.16-21.78 24.81-20.44 28.2-53.41 17.07-79.31-6.74-16.11-17.91-31.43-34.6-40.31 11.58-29.63 8.99-62.92 27.19-90.8 25.96-37 79.59-36.25 113.76-13.29-18.33 12.11-31.93 30.36-34.2 50.55-2.74 23.18 5.23 52.86 25.71 67.26 9.6 6.8 22.7 5.11 30.14-4.03 6.97-8.5 9.04-19.38 9.06-29.47 5.34 6.32 11.48 13.12 20.47 15.19 13.09 2.24 14.85-11.17 11.56-19.22-11.91-30-29.35-60.65-57.69-80.91C475.29 62.75 531.88 79.45 563 126.53c14.46 22.28 19.76 49.58 39.74 68.87 10.86 10.59 26.13 19.62 43.34 17.77 21.78-2.63 39.8-19.31 46.47-37.75 14.65 6.51 32.01 6.7 47.95 2.16 9.94-2.34 19.57-6.1 29.68-7.5 18.31-2 36.75 1.98 52.66 11.17 22.68 13.15 45.8 42.55 30.28 67.75-4.09-5.37-10.39-9.02-17.17-9.66-7.25-.96-18.14 1.06-19.42 8.94-.81 8.04 8.17 13.12 16.06 13.92 7.57.65 15.15-2.48 20.22-8.32 6.27 13.11 3.56 28.25.22 42.12-3.19 12.14-6.37 24.44-12.07 35.94-.63 1.1-1.27 2.21-1.9 3.15-.95 1.42 1.57 2.69 2.52 1.11 6.97-11.19 9.68-23.96 13.34-36.09 4.14-15.93 7.81-33.58-.2-48.43 20.1-29.77-11.67-66.13-41.3-77.56-14.81-5.87-32.01-8.6-48.41-5.32-26.2 6.24-45.32 16.13-71.62 4.56 3.34-10.4 3.84-22.23-2.44-31.39-3.93-6.01-11.8-11.23-20.17-9.36-8.68 2.19-9.49 11.65-6.67 17.65 4.71 10.74 14.78 18.97 25.82 24.35-6.04 16.39-19.15 28.98-35.58 34.61-32.52 10.01-56.9-18.75-68.2-41.49-4.56-9.16-8.32-18.8-12.86-28.11-5.03-10.1-11.31-19.58-18.86-28.12-34.77-39.04-88.06-46.27-136.26-15.47-21.42-14.09-50.27-21.26-77.26-14.38-62.04 17.51-52.39 75.12-68.59 118.93-11.03-5.23-24.27-8.58-37.22-6.24-13.73 2.33-24.49 14.46-18.84 26.46 5.02 11.69 21.89 15.52 34.37 9.7 11.52-5.33 18.81-15.89 23.25-26.29 15.44 8.4 25.65 22.62 32.24 37.46 11.45 25.43 8.7 57.76-15.81 78.05-14.55 12.59-33.8 20.89-53.68 21.01-24.29 1.36-60.08-10.4-79.52 7.06-17.17-10.3-36.87-17.92-58.01-19.7-23.5-1.95-49.07 1.3-70.39 12.13m206.81-142.57c12.46-2.34 25.08 1.01 35.8 6.24-3.81 9.61-10.3 19.22-20.41 24.56-9.16 4.86-21.78 4.05-28.54-2.75-10.7-10.91-2.3-25.41 13.16-28.04m593.64 45.29c8.99-1.08 17.98 2.73 22.22 9.67-17.41 21.41-47.94-5.17-22.22-9.67m-141.26-99.72c6.45 8.69 6.1 19.89 2.92 29.82-10.08-5.08-19.37-12.82-23.93-22.62-2.2-4.89-2.34-12.63 4.61-14.51 6.78-1.4 12.93 2.72 16.39 7.29m-253.68 10.43c5.99 3.65 7.54 13.74 8.79 20.05-3.62-5.53-10.53-13.28-8.79-20.05m-48.48 21.5c-6.87-29.36 4.08-56.78 32.36-75.17 24.72 16.47 39.97 41.27 52.05 66.23 2.82 6.16 6.12 12.47 6.9 19.27.92 10.26-7.45 12.61-15.63 7.21-6.3-3.96-10.71-9.34-15.11-14.71-.31-4.11-.93-8.2-2.02-12.16-5.15-21.63-20.93-18.19-9 1.55 1.73 3 3.77 5.69 5.81 8.53.79 1.42 2.51 2.53 2.36 4.26 1.07 14.52-5.63 41.63-27.54 37-17.65-5.4-26.59-26.72-30.19-42.04M163.55 402.04c-9.75-13.12-18.85-33.02-7.77-48.29.47-.63 1.1-1.26 1.58-1.89 13.38 8.7 26.3 19.15 33.68 32.73 12.24 24.96-7.05 43.05-27.49 17.44"/>
  <path fill="#c3b3c4" d="M638.13 97.74c25.68 71.96-8.76 157.91 44.13 157.91s-1.85-119.01-22.14-151.45-21.99-6.46-21.99-6.46"/>
  <path fill="#d0bed1" d="M377.82 339.91c-41.51 69.04 22.14 164.37 141.3 141.3v21.22s-64.27 22.14-135.15-35.83c-58.27-47.51-6.15-126.69-6.15-126.69m206.8-166.06c4.46 10.46 7.38 30.29 9.23 47.36 1.69 16.45 2.31 30.14 2.31 30.14h46.9l14.15-56.12s113.93 6.77 132.54-44.28c3.54-9.99-76.88.92-82.11-9.38-2.31-5.23-4.31-10.61-5.84-15.99-4.15-12.92-8.61-27.98-12.61-30.75-5.07-3.54-53.51-2.92-81.18-1.23-5.84.31-10.76.77-14.15 1.23-3.23.46-6.15 2.46-7.84 5.23-.62.92-1.23 1.85-1.85 2.92-2.61 4.92-4.15 11.84-4.92 19.37-2.31 17.99.46 40.28 5.38 51.51"/>
  <path fill="#c3b3c4" d="M549.26 339.91c-1.69 33.98-22.14 100.4-22.14 100.4s-39.82-7.69-37.06 43.36c2.77 51.05 29.21 81.8 29.21 81.8s-10.61 7.69-5.23 20.45c5.38 12.76 57.35-4.31 78.57 0 21.22 4.31 88.41 6 104.25 10.15 15.84 4.15-5.23-28.14-29.21-35.83-23.99-7.69 53.05-83.49 34.44-107.32-18.6-23.83-76.88-35.83-76.88-35.83l-75.96-77.19h.01Z"/>
  <path fill="#d0bed1" d="M632.29 600.52c6.77 3.38 17.84 3.84 27.83 3.08.77 0 1.38-.15 2.15-.15 7.07-.62 13.68-1.54 17.53-2.31.77-.15 1.38-.31 2-.31 1.08-.15 1.69-.31 1.69-.31.92-20.45-18.6-28.14-21.22-39.98-1.54-6.77 1.85-49.2 6.15-89.18 3.23-29.83 7.07-58.27 9.69-69.19l-45.97 45.97s-2.77 26.14-4.61 56.74c-2.61 41.36-3.84 91.18 4.77 95.64m-75.97 0c5.07 2.61 12.76 3.38 20.45 3.38h2c6.92-.15 13.68-.92 20.6-2 .77-.15 1.38-.15 2-.31 3.69-.62 6.15-1.08 6.15-1.08.92-20.45-18.6-28.14-21.22-39.98-1.38-6 1.08-39.82 4.77-75.19 3.54-34.6 8.15-70.57 11.22-83.18l-46.74-43.36s-1.69 28.75-3.38 66.42c-3.08 69.65-5.54 170.21 4.15 175.28"/>
  <path fill="#e7d3e8" d="M708.09 383.42c-1.85-4.46-3.23-7.69-3.38-8 .92 2.77 2.15 5.38 3.38 8"/>
  <path fill="#707070" d="M632.29 448s-2.77 26.14-4.61 56.74c1.08.46 2.15.77 3.23.77 13.38.77 23.22-44.9 23.52-46.59-.15 1.23-3.23 23.83 5.23 23.83 2.61 0 5.69-4.77 8.92-11.38 3.23-29.83 7.07-58.27 9.69-69.19L632.3 448h-.01Z" opacity=".21"/>
  <path fill="#e7d3e8" d="M597.85 459.84s-.46 6-.92 13.68c.62-4.61 1.08-9.07.92-13.68"/>
  <path fill="#707070" d="M558.18 407.87s-1.85 46.9 6.15 48.59c7.69 1.69 13.53-23.22 14.15-25.37-.46 2.77-7.53 45.2 6.15 53.51 2.61 1.54 4.77 1.69 6.46.92 3.54-34.6 8.15-70.57 11.22-83.18l-46.74-43.36s-1.69 28.75-3.38 66.42c4.61-4.77 6-17.53 6-17.53" opacity=".21"/>
  <path fill="#c3b3c4" d="M563.41 251.34c19.53 0 27.21-11.69 30.29-30.14 4-23.52.77-57.97 5.54-92.71 1.54-11.99 4.31-23.68 8.3-35.06 0 0-1.85-25.98-21.99 6.46-.62.92-1.08 1.85-1.69 2.92-2.77 4.61-6 10.61-9.53 17.37-23.37 45.82-55.81 131.15-10.92 131.15"/>
  <path fill="#e7d3e8" d="M628.75 38.85c1.38.31 2.46.31 2.61.46-.15-.15-1.23-.31-2.61-.46M575.71 71.3c1.69-.31 2.61-.46 2.61-.46-.77 0-1.69.15-2.61.46M367.52 374.66c-38.44 11.22-40.9-48.28-10.76-68.73 30.14-20.45 90.41 45.51 10.76 68.73"/>
  <path fill="#1a1a1a" d="M790.35 145.87h-8.92c-1.38 0-2.15 1.38-1.23 2.15l8.92 7.53c.77.62 1.69.62 2.46 0l-1.23-9.69Z"/>
  <path fill="#e7d3e8" d="M625.22 241.2c80.41-4.31 112.24 111.47 99.79 114.09-12.45 2.61-20.3-22.14-20.3-22.14s19.37 44.28 10.61 45.05-10.61-14.45-10.61-14.45 0 50.28-10.61 47.66-10.61-25.52-10.61-25.52-15.07 54.43-23.83 54.43-5.23-23.83-5.23-23.83-9.99 47.36-23.52 46.74c-13.53-.62-5.69-26.29-5.69-26.29s-23.83 32.29-27.37 26.45 0-45.82 0-45.82.92 33.06-13.22 24.6-6.15-53.66-6.15-53.66-6.15 27.21-14.15 25.52-6.15-48.59-6.15-48.59-1.69 17.84-8.76 18.76-18.6-35.83-11.53-74.11c6.92-38.29 39.67-66.27 87.33-68.88"/>
  <path fill="#ededed" d="M686.41 134.49c-.15 4.61 3.38 8.46 8 8.61s8.46-3.38 8.61-8c.15-4.61-3.38-8.46-8-8.61h-.31c-4.46-.15-8.15 3.38-8.3 8"/>
  <path d="M687.49 133.11c-.15 3.23 2.46 6 5.69 6.15s6-2.46 6.15-5.69-2.46-6-5.69-6.15h-.15c-3.23 0-5.84 2.46-6 5.69"/>
  <path fill="#fff" d="M688.87 130.95c0 1.08.77 2.15 2 2.15s2.15-.77 2.15-2-.77-2.15-2-2.15-2.15.92-2.15 2"/>
  <path fill="#ededed" d="M628.6 134.49c-.15 4.61 3.38 8.46 8 8.61s8.46-3.38 8.61-8c.15-4.61-3.38-8.46-8-8.61h-.31c-4.46-.15-8.15 3.38-8.3 8"/>
  <path d="M629.67 133.11c-.15 3.23 2.46 6 5.69 6.15s6-2.46 6.15-5.69-2.46-6-5.69-6.15h-.15c-3.23 0-6 2.46-6 5.69"/>
  <path fill="#fff" d="M631.06 130.95c0 1.08.77 2.15 2 2.15 1.08 0 2.15-.77 2.15-2 0-1.08-.77-2.15-2-2.15s-2.15.92-2.15 2"/>
  <path fill="#707070" d="M574.32 120.19c1.38.77 2.92 1.38 4.61 2 6.61 2.61 13.53 4.77 20.45 6.3 32.44 7.53 74.42 7.69 94.41.46 2.61-.92 5.23-2.15 7.69-3.54-4.15-12.92-8.61-27.98-12.61-30.75-5.07-3.54-53.51-2.92-81.18-1.23 0 0-1.85-25.98-21.99 6.46-.62.92-1.23 1.85-1.85 2.92-2.92 4.77-6.15 10.61-9.53 17.37" opacity=".21"/>
  <path fill="#e7d3e8" d="M693.79 102.82c43.36-15.84 40.13-72.73 10.92-87.33C675.5.88 619.84-4.04 617.22 3.5c-2.61 7.53 14.15 9.38 14.15 9.38s-42.28-6.61-44.13.92c-1.85 7.53 10.61 9.38 10.61 9.38s-41.51 6-41.51 16.14 22.14 5.07 22.14 5.07-29.21 3.38-22.14 32.29 103.48 38.44 137.46 26.14"/>
  <path fill="#d0bed1" d="M662.73 280.86c6.61 2.92 10.76 9.53 10.3 16.76 0 1.23-2.15 1.23-2 0 .31-6.46-3.38-12.45-9.38-15.07-1.08-.62 0-2.31 1.08-1.69m-8.61 22.76c3.23 5.07 4.31 11.22 3.08 17.07-.31 1.23-2.31.77-2-.46 1.08-5.38 0-10.92-2.92-15.53-.62-1.08 1.23-2.15 1.85-1.08m-64.89-26.45c.92-.92 2.31.46 1.54 1.38-3.84 4.31-6 9.84-6.3 15.68 0 1.23-2.15 1.23-2 0 .15-6.3 2.61-12.3 6.77-17.07m-20.16 23.54c.46-1.23 2.46-.62 2 .46-2.61 5.84-3.54 12.3-2.61 18.45.15 1.23-1.85 1.23-2 0-.92-6.3 0-12.92 2.61-18.91m15.69 23.68c.46-1.23 2.46-.62 2 .46-3.08 7.23-3.84 15.22-2.15 22.91.31 1.23-1.69 1.85-2 .46-1.69-7.84-.92-16.3 2.15-23.83m112.24-24.91c5.23 4.92 7.84 11.84 7.07 18.91-.15 1.23-2.15 1.23-2 0 .77-6.46-1.69-13.07-6.46-17.53-.92-.92.46-2.31 1.38-1.38m-40.12-39.82c6 2.31 10.76 6.92 13.38 12.92.46 1.23-1.54 1.69-2 .46-2.31-5.23-6.46-9.38-11.84-11.53-1.38-.46-.92-2.46.46-1.85m21.68 8.15c4.92 2.46 8 7.53 8.3 12.92 0 1.23-2 1.23-2 0-.31-4.77-3.08-9.07-7.38-11.22-1.08-.46 0-2.31 1.08-1.69m7.99 62.87c3.08 4.77 3.84 10.76 2.31 16.14-.31 1.23-2.31.77-2-.46 1.54-4.92.77-10.3-2-14.61-.77-1.08 1.08-2.15 1.69-1.08m19.38-297.81c3.08 0 5.84 2 6.92 4.92 1.54 3.84-.15 7.84-1.85 11.38-.62 1.23-2.31.15-1.85-1.08 2-4 4.15-13.07-3.23-13.22-.62 0-.92-.46-.92-1.08s.31-.92.92-.92M675.8 18.1c5.84-1.69 11.84 1.69 13.53 7.53.15.62.31 1.38.31 2 0 1.23-2 1.23-2 0-.31-5.23-6-9.07-11.22-7.53-.46.15-1.08-.15-1.23-.62-.31-.62 0-1.23.62-1.38m-27.99.61c5.38-.77 10.76.77 14.91 4.15 1.08.77-.46 2.31-1.54 1.38-3.69-2.92-8.3-4.31-12.92-3.69-1.23.15-1.69-1.69-.46-1.85m-9.37-13.67c6.77-3.23 14.61-2.61 20.76 1.38 1.08.77 0 2.46-1.08 1.69-5.54-3.69-12.61-4.31-18.6-1.38-1.23.62-2.31-1.08-1.08-1.69m-30.29 11.53c5.54-1.85 11.69-.77 16.3 2.92 1.08.77-.46 2.15-1.54 1.38-4.15-3.08-9.53-4-14.3-2.46-.46.15-1.08-.15-1.23-.62s.15-1.08.77-1.23m-17.84 20.46c3.54-3.69 9.23-4 13.22-.77 1.08.77-.46 2.31-1.54 1.38-3.08-2.46-7.53-2.15-10.3.77-.77 1.08-2.31-.31-1.38-1.38m-16.14 20.6c2.15-5.38 7.84-8.46 13.53-7.38 1.38.15.77 2.15-.62 2-4.61-.77-9.23 1.69-10.92 6-.46 1.23-2.46.62-2-.62m52.59-27.37c5.38-2.31 11.53-1.08 15.38 3.23.92.92-.62 2.46-1.54 1.38-3.23-3.69-8.46-4.77-12.92-2.92-1.08.46-2.15-1.23-.92-1.69m46.28 2.62c5.54-1.54 11.38 1.69 13.22 7.23.31 1.23-1.69 1.85-2 .46-1.38-4.46-6.15-7.07-10.61-5.84-.46.15-1.08-.15-1.23-.62s0-1.08.62-1.23m39.37 40.9c3.84-2 5.23-6.77 3.23-10.46-.15-.46-.46-.77-.77-1.23-.77-.92.62-2.46 1.54-1.38 3.38 4.15 2.92 10.3-1.23 13.68-.46.46-1.08.77-1.69 1.08-1.23.62-2.31-1.08-1.08-1.69m-14.92-23.53c4.15 2 6 6.77 4.31 11.07-.46 1.23-2.46.62-2-.46 1.38-3.38 0-7.23-3.38-8.92-1.23-.46-.15-2.31 1.08-1.69m-1.24-32.9c5.38-.62 10.15 3.23 10.76 8.61v.31c0 1.23-2 1.23-2 0-.46-4.31-4.15-7.38-8.46-7.07h-.31c-1.38.31-1.38-1.69 0-1.85M385.97 344.52c5.23-3.84 6.3-11.07 2.46-16.3l-.15-.15c-.77-1.08 1.08-2 1.85-1.08 4.46 6 3.23 14.45-2.77 18.91-.92.77-2.46-.62-1.38-1.38m-13.08 20.3c4.61-.46 8.46-3.54 10.15-7.84.46-1.23 2.46-.62 2 .46-1.85 5.23-6.61 8.76-12.15 9.23-1.38.31-1.38-1.69 0-1.85m17.38-53.05c4.92 2.31 7.84 7.53 7.07 12.92-.15 1.23-2.15.77-2-.46.62-4.61-2-8.92-6.15-10.76-1.08-.62-.15-2.31 1.08-1.69m3.53 41.97c5.07-2.92 7.07-9.07 4.92-14.45-.46-1.23 1.54-1.69 2-.46 2.46 6.3 0 13.38-5.84 16.76-.46.31-1.08.15-1.38-.31-.15-.62-.15-1.23.31-1.54m-41.21 9.37c3.23 2.15 7.23 2.46 10.76.92 1.23-.62 2.31 1.23 1.08 1.69-4.15 2-8.92 1.69-12.76-.92-1.23-.77-.15-2.46.92-1.69m20.91-52.27c3.54-.31 6.77 1.38 8.76 4.46.62 1.08-1.08 2.15-1.85 1.08-1.54-2.31-4.15-3.69-6.92-3.38-1.23-.15-1.23-2.15 0-2.15m199.12-37.68c2.15-7.84 9.53-13.22 17.68-12.92.62 0 1.08.46 1.08.92 0 .62-.46 1.08-.92 1.08-7.23-.31-13.84 4.46-15.68 11.38-.15.62-.77.77-1.38.62-.62-.15-.92-.62-.77-1.08m-24.15 53.04c.77-1.08 2.61 0 1.85 1.08-5.23 7.23-6.3 16.45-3.08 24.6.46 1.23-1.54 1.69-2 .46-3.54-8.76-2.31-18.6 3.23-26.14m114.4 77.03c4.77-5.23 6.61-12.45 4.77-19.22-.15-.62.31-1.08.77-1.23s.92.15 1.23.62c2 7.53 0 15.53-5.23 21.22-.92.92-2.31-.46-1.54-1.38m26.9-21.53c3.23-5.54 3.38-12.15.77-17.99-.62-1.23 1.23-2.15 1.85-1.08 3.08 6.3 2.77 13.84-.77 19.99-.31.46-.92.62-1.38.31-.46-.15-.62-.62-.46-1.23m-103.64 23.06c.62-1.08 2.46-.15 1.85 1.08-4 6.61-3.69 14.91.92 21.06.77 1.08-1.08 2-1.85 1.08-4.92-6.92-5.38-16.14-.92-23.22m-18.45-40.28c.46-1.23 2.46-.62 2 .46-2.31 6.15-2 12.92.46 19.07.46 1.23-1.54 1.69-2 .46-2.61-6.3-2.92-13.53-.46-19.99m-5.23-82.72c1.08-.77 2.15.92 1.08 1.69-5.38 3.54-8.15 9.99-6.92 16.45.31 1.23-1.69 1.85-2 .46-1.54-7.07 1.54-14.61 7.84-18.6"/>
  <path fill="#b4a5b5" d="M669.34 584.99c6 2.92 9.07 9.84 10.46 16.14.77-.15 1.38-.31 2-.31-1.54-6.92-4.92-14.3-11.38-17.53-1.23-.62-2.31 1.08-1.08 1.69m-81.03.32c5.23 4.31 9.07 10.15 11.07 16.61.77-.15 1.38-.15 2-.31-2-6.92-6.15-13.07-11.69-17.68-.92-.92-2.31.62-1.38 1.38"/>
</svg>