<svg xmlns="http://www.w3.org/2000/svg" viewBox="0 0 752.82 636.74">
  <path fill="#666793" d="M36.97 367.83c19.89-5.5 41.72-3.49 61.1 2.93 17.26 5.77 32.37 16.48 44.85 29.25 19.5-11.96 47.15 5.82 67.7 9.27 16.55 3.73 34.18.03 48.65-8.36 24.18-13.53 32.36-42.16 27.51-67.24-2.71-14.67-8.77-29.59-20.09-40.12-5.57 8.53-13.65 16.64-24.21 19.12-11.42 2.92-24.84-3.99-26.89-15.57-2.55-11.93 8.65-20.82 20.53-20.19 11.32.38 21.66 6.08 30.03 12.93 21.59-36.42 24.19-90.33 79.13-93.82 23.92-.95 46.52 11.28 61.85 28.23 45.87-18.25 89.02-1.36 111.02 40.8 4.66 9.24 8.31 18.98 10.55 29.17 2.08 9.32 3.36 18.69 5.61 27.95 5.28 22.86 20.41 53.49 49.3 50.96 15.16-1.68 28.67-11.57 36.01-24.14-8.28-7.07-15.15-16.47-17.08-27.07-1.25-6.02 1.21-14.44 8.76-14.62 7.35 0 12.95 6.16 15.19 12.35 3.58 9.57 1.02 20.08-3.73 28.84 19.88 15.72 37.6 10.6 60.66 10.09 14.39.38 28.19 6.12 39.44 14.35 22.64 16.13 42.51 55.21 20.2 78.24 3.92 14.93-2.44 30.19-8.74 43.75-5.26 10.26-9.89 21.21-17.82 29.92-1.04 1.15-2.88-.46-1.89-1.49.73-.75 1.5-1.62 2.12-2.42 6.85-9.31 11.78-19.72 16.66-30.02 5.4-11.81 10.41-24.86 7.57-37.98-5.2 4.28-12.15 5.53-18.47 3.45-6.38-2.24-13.03-8.74-10.82-15.66 2.48-6.94 11.94-6.56 17.88-4.24 5.76 2.1 10.27 6.47 12.5 12.11 17.54-19.75 3.76-50.72-12.86-67.17-11.17-10.87-26.02-18.8-42.02-20.41-8.71-.86-17.41.71-26.06.96-14.21 1.03-28.61-2.69-39.62-11.48-8.89 15.24-27.04 26.84-45.84 24.95-14.63-1.69-25.76-12.94-32.86-24.57-13.11-21.46-12.55-46.99-20.54-70.11-17.31-48.67-61.49-74.83-113.52-54.71 20.17 23.33 29.12 54.34 33.55 83.78 1.25 7.89-2.68 19.67-13.12 15.13-7.1-3.62-10.95-11.04-14.33-17.72-1.82 9.09-5.48 18.45-12.94 24.83-8.01 7.07-19.18 5.42-25.85-2.29-14.4-16.95-15.6-45.52-9.06-65.78 5.58-17.75 20.36-31.48 37.86-38.83-24.4-27.44-68.94-38.66-97.38-10.43-20.35 21.61-24.26 52.1-39.46 76.61 12.45 11.29 18.8 27.41 21.51 43.28 4.61 25.64-4.38 54.59-28.83 68.13-15.26 8.99-34.1 12.68-51.72 8.36-18.99-3.32-46.61-20.27-64.37-9.56 10.21 11.52 19.73 24.34 22.95 39.37 4.34 27.8-18.9 37.33-31.32 9.36-6.41-15.34-10.16-37.14 4.73-48.97-11.6-11.72-25.25-21.8-41.19-27.53-19.13-6.99-40.87-9.23-60.84-4.15-21.85 5.72-31.5 28.51-34.56 48.15-9.84 68.38 17.6 180.35 89.99 209.84 6.78 2.54 13.73 4.37 20.86 5.46 4.87.79 9.96 1.66 14.88 1.13.71-.1 1.17.38 1.26 1.08s-.38 1.17-1.08 1.26c-6.01.59-11.94-.51-17.74-1.58-7.58-1.29-14.94-3.42-22.01-6.5-24.26-10.55-42.61-30.41-55.77-52.04C8.94 534.11-1.36 484.08.14 435.46c.94-25.5 8.17-58.42 36.76-67.63m199.06-88.54c-13.36-.6-23.07 10.67-16.01 22.69 4.35 7.5 14.72 10.68 23.31 8.13 9.34-2.75 16.63-10.27 21.63-18.1-8.15-6.75-18-12.37-28.93-12.71m487.4 158.14c-22.32-.89-1.79 29 16.88 13.09-2.7-7.31-9.27-12.45-16.88-13.09m-99.67-117.88c-2.02-4.88-6.34-9.7-12.27-9.87-6.13.27-7.46 7.31-6.48 12.14 2.01 9.83 8.23 18.54 15.89 25.21 4.32-8.4 6.7-18.46 2.86-27.47m-213.76-40.74c-2.65 5.79 1.63 14.07 3.64 19.88.18-5.93.71-15.45-3.64-19.88m-44.35 9.83c.23 14.53 3.66 35.52 17.49 43.94 17.45 8.39 28.13-14.61 29.78-27.92.41-1.55-.76-2.87-1.22-4.27-1.14-2.89-2.4-5.85-3.22-8.88-6.29-20.24 7.43-20.15 7.7.42.09 3.78-.09 7.57-.55 11.39 2.72 5.72 5.44 11.45 9.92 16.2 5.77 6.38 13.32 5.92 14.41-3.35.71-6.24-.9-12.68-2.15-18.7-5.45-24.94-13.77-50.34-31.34-70.13-27.07 10.93-41.28 33.48-40.82 61.32M138.31 449.77c12.48 27.2 31.83 14.64 26.11-10.28-3.69-13.62-12.5-25.61-22.01-36.29-.58.41-1.05.88-1.63 1.3-12.16 11.68-8.19 31.43-2.46 45.28"/>
  <path fill="#c3b3c4" d="M599.37 97.75c25.68 71.96-8.76 157.91 44.13 157.91s-1.85-119.01-22.14-151.45-21.99-6.46-21.99-6.46"/>
  <path fill="#d0bed1" d="M339.06 339.92c-41.51 69.04 22.14 164.37 141.3 141.3v21.22s-64.27 22.14-135.15-35.83c-58.27-47.51-6.15-126.69-6.15-126.69m206.8-166.06c4.46 10.46 7.38 30.29 9.23 47.36 1.69 16.45 2.31 30.14 2.31 30.14h46.9l14.15-56.12s113.93 6.77 132.54-44.28c3.54-9.99-76.88.92-82.11-9.38-2.31-5.23-4.31-10.61-5.84-15.99-4.15-12.92-8.61-27.98-12.61-30.75-5.07-3.54-53.51-2.92-81.18-1.23-5.84.31-10.76.77-14.15 1.23-3.23.46-6.15 2.46-7.84 5.23-.62.92-1.23 1.85-1.85 2.92-2.61 4.92-4.15 11.84-4.92 19.37-2.31 17.99.46 40.28 5.38 51.51"/>
  <path fill="#c3b3c4" d="M510.5 339.92c-1.69 33.98-22.14 100.4-22.14 100.4s-39.82-7.69-37.06 43.36c2.77 51.05 29.21 81.8 29.21 81.8s-10.61 7.69-5.23 20.45c5.38 12.76 57.35-4.31 78.57 0 21.22 4.31 88.41 6 104.25 10.15 15.84 4.15-5.23-28.14-29.21-35.83-23.99-7.69 53.05-83.49 34.44-107.32-18.6-23.83-76.88-35.83-76.88-35.83l-75.96-77.19Z"/>
  <path fill="#d0bed1" d="M593.53 600.53c6.77 3.38 17.84 3.84 27.83 3.08.77 0 1.38-.15 2.15-.15 7.07-.62 13.68-1.54 17.53-2.31.77-.15 1.38-.31 2-.31 1.08-.15 1.69-.31 1.69-.31.92-20.45-18.6-28.14-21.22-39.98-1.54-6.77 1.85-49.2 6.15-89.18 3.23-29.83 7.07-58.27 9.69-69.19l-45.97 45.97s-2.77 26.14-4.61 56.74c-2.61 41.36-3.84 91.18 4.77 95.64m-75.97 0c5.07 2.61 12.76 3.38 20.45 3.38h2c6.92-.15 13.68-.92 20.6-2 .77-.15 1.38-.15 2-.31 3.69-.62 6.15-1.08 6.15-1.08.92-20.45-18.6-28.14-21.22-39.98-1.38-6 1.08-39.82 4.77-75.19 3.54-34.6 8.15-70.57 11.22-83.18l-46.74-43.36s-1.69 28.75-3.38 66.42c-3.08 69.65-5.54 170.21 4.15 175.28"/>
  <path fill="#e7d3e8" d="M669.33 383.43c-1.85-4.46-3.23-7.69-3.38-8 .92 2.77 2.15 5.38 3.38 8"/>
  <path fill="#707070" d="M593.53 448.01s-2.77 26.14-4.61 56.74c1.08.46 2.15.77 3.23.77 13.38.77 23.22-44.9 23.52-46.59-.15 1.23-3.23 23.83 5.23 23.83 2.61 0 5.69-4.77 8.92-11.38 3.23-29.83 7.07-58.27 9.69-69.19l-45.97 45.82Z" opacity=".21"/>
  <path fill="#e7d3e8" d="M559.09 459.85s-.46 6-.92 13.68c.62-4.61 1.08-9.07.92-13.68"/>
  <path fill="#707070" d="M519.42 407.88s-1.85 46.9 6.15 48.59c7.69 1.69 13.53-23.22 14.15-25.37-.46 2.77-7.53 45.2 6.15 53.51 2.61 1.54 4.77 1.69 6.46.92 3.54-34.6 8.15-70.57 11.22-83.18l-46.74-43.36s-1.69 28.75-3.38 66.42c4.61-4.77 6-17.53 6-17.53" opacity=".21"/>
  <path fill="#c3b3c4" d="M524.65 251.35c19.53 0 27.21-11.69 30.29-30.14 4-23.52.77-57.97 5.54-92.71 1.54-11.99 4.31-23.68 8.3-35.06 0 0-1.85-25.98-21.99 6.46-.62.92-1.08 1.85-1.69 2.92-2.77 4.61-6 10.61-9.53 17.37-23.37 45.82-55.81 131.15-10.92 131.15"/>
  <path fill="#e7d3e8" d="M589.99 38.86c1.38.31 2.46.31 2.61.46-.15-.15-1.23-.31-2.61-.46m-53.04 32.45c1.69-.31 2.61-.46 2.61-.46-.77 0-1.69.15-2.61.46M328.76 374.67c-38.44 11.22-40.9-48.28-10.76-68.73 30.14-20.45 90.41 45.51 10.76 68.73"/>
  <path fill="#1a1a1a" d="M751.59 145.88h-8.92c-1.38 0-2.15 1.38-1.23 2.15l8.92 7.53c.77.62 1.69.62 2.46 0l-1.23-9.69Z"/>
  <path fill="#e7d3e8" d="M586.46 241.21c80.41-4.31 112.24 111.47 99.79 114.09-12.45 2.61-20.3-22.14-20.3-22.14s19.37 44.28 10.61 45.05c-8.76.77-10.61-14.45-10.61-14.45s0 50.28-10.61 47.66-10.61-25.52-10.61-25.52-15.07 54.43-23.83 54.43-5.23-23.83-5.23-23.83-9.99 47.36-23.52 46.74c-13.53-.62-5.69-26.29-5.69-26.29s-23.83 32.29-27.37 26.45c-3.54-5.84 0-45.82 0-45.82s.92 33.06-13.22 24.6-6.15-53.66-6.15-53.66-6.15 27.21-14.15 25.52c-8-1.69-6.15-48.59-6.15-48.59s-1.69 17.84-8.76 18.76-18.6-35.83-11.53-74.11c6.92-38.29 39.67-66.27 87.33-68.88"/>
  <path fill="#ededed" d="M647.65 134.5c-.15 4.61 3.38 8.46 8 8.61s8.46-3.38 8.61-8c.15-4.61-3.38-8.46-8-8.61h-.31c-4.46-.15-8.15 3.38-8.3 8"/>
  <path d="M648.73 133.12c-.15 3.23 2.46 6 5.69 6.15 3.23.15 6-2.46 6.15-5.69s-2.46-6-5.69-6.15h-.15c-3.23 0-5.84 2.46-6 5.69"/>
  <path fill="#fff" d="M650.11 130.96c0 1.08.77 2.15 2 2.15s2.15-.77 2.15-2-.77-2.15-2-2.15-2.15.92-2.15 2"/>
  <path fill="#ededed" d="M589.84 134.5c-.15 4.61 3.38 8.46 8 8.61s8.46-3.38 8.61-8c.15-4.61-3.38-8.46-8-8.61h-.31c-4.46-.15-8.15 3.38-8.3 8"/>
  <path d="M590.91 133.12c-.15 3.23 2.46 6 5.69 6.15 3.23.15 6-2.46 6.15-5.69s-2.46-6-5.69-6.15h-.15c-3.23 0-6 2.46-6 5.69"/>
  <path fill="#fff" d="M592.3 130.96c0 1.08.77 2.15 2 2.15 1.08 0 2.15-.77 2.15-2 0-1.08-.77-2.15-2-2.15s-2.15.92-2.15 2"/>
  <path fill="#707070" d="M535.56 120.2c1.38.77 2.92 1.38 4.61 2 6.61 2.61 13.53 4.77 20.45 6.3 32.44 7.53 74.42 7.69 94.41.46 2.61-.92 5.23-2.15 7.69-3.54-4.15-12.92-8.61-27.98-12.61-30.75-5.07-3.54-53.51-2.92-81.18-1.23 0 0-1.85-25.98-21.99 6.46-.62.92-1.23 1.85-1.85 2.92-2.92 4.77-6.15 10.61-9.53 17.37" opacity=".21"/>
  <path fill="#e7d3e8" d="M655.03 102.83c43.36-15.84 40.13-72.73 10.92-87.33C636.74.89 581.08-4.03 578.46 3.51c-2.61 7.53 14.15 9.38 14.15 9.38s-42.28-6.61-44.13.92c-1.85 7.53 10.61 9.38 10.61 9.38s-41.51 6-41.51 16.14 22.14 5.07 22.14 5.07-29.21 3.38-22.14 32.29 103.48 38.44 137.46 26.14"/>
  <path fill="#d0bed1" d="M623.97 280.87c6.61 2.92 10.76 9.53 10.3 16.76 0 1.23-2.15 1.23-2 0 .31-6.46-3.38-12.45-9.38-15.07-1.08-.62 0-2.31 1.08-1.69m-8.61 22.76c3.23 5.07 4.31 11.22 3.08 17.07-.31 1.23-2.31.77-2-.46 1.08-5.38 0-10.92-2.92-15.53-.62-1.08 1.23-2.15 1.85-1.08m-64.89-26.45c.92-.92 2.31.46 1.54 1.38-3.84 4.31-6 9.84-6.3 15.68 0 1.23-2.15 1.23-2 0 .15-6.3 2.61-12.3 6.77-17.07m-20.16 23.54c.46-1.23 2.46-.62 2 .46-2.61 5.84-3.54 12.3-2.61 18.45.15 1.23-1.85 1.23-2 0-.92-6.3 0-12.92 2.61-18.91m15.69 23.68c.46-1.23 2.46-.62 2 .46-3.08 7.23-3.84 15.22-2.15 22.91.31 1.23-1.69 1.85-2 .46-1.69-7.84-.92-16.3 2.15-23.83m112.24-24.91c5.23 4.92 7.84 11.84 7.07 18.91-.15 1.23-2.15 1.23-2 0 .77-6.46-1.69-13.07-6.46-17.53-.92-.92.46-2.31 1.38-1.38m-40.12-39.82c6 2.31 10.76 6.92 13.38 12.92.46 1.23-1.54 1.69-2 .46-2.31-5.23-6.46-9.38-11.84-11.53-1.38-.46-.92-2.46.46-1.85m21.68 8.15c4.92 2.46 8 7.53 8.3 12.92 0 1.23-2 1.23-2 0-.31-4.77-3.08-9.07-7.38-11.22-1.08-.46 0-2.31 1.08-1.69m7.99 62.87c3.08 4.77 3.84 10.76 2.31 16.14-.31 1.23-2.31.77-2-.46 1.54-4.92.77-10.3-2-14.61-.77-1.08 1.08-2.15 1.69-1.08m19.38-297.81c3.08 0 5.84 2 6.92 4.92 1.54 3.84-.15 7.84-1.85 11.38-.62 1.23-2.31.15-1.85-1.08 2-4 4.15-13.07-3.23-13.22-.62 0-.92-.46-.92-1.08s.31-.92.92-.92m-30.13-14.76c5.84-1.69 11.84 1.69 13.53 7.53.15.62.31 1.38.31 2 0 1.23-2 1.23-2 0-.31-5.23-6-9.07-11.22-7.53-.46.15-1.08-.15-1.23-.62-.31-.62 0-1.23.62-1.38m-27.99.61c5.38-.77 10.76.77 14.91 4.15 1.08.77-.46 2.31-1.54 1.38-3.69-2.92-8.3-4.31-12.92-3.69-1.23.15-1.69-1.69-.46-1.85m-9.37-13.67c6.77-3.23 14.61-2.61 20.76 1.38 1.08.77 0 2.46-1.08 1.69-5.54-3.69-12.61-4.31-18.6-1.38-1.23.62-2.31-1.08-1.08-1.69m-30.29 11.53c5.54-1.85 11.69-.77 16.3 2.92 1.08.77-.46 2.15-1.54 1.38-4.15-3.08-9.53-4-14.3-2.46-.46.15-1.08-.15-1.23-.62s.15-1.08.77-1.23m-17.84 20.46c3.54-3.69 9.23-4 13.22-.77 1.08.77-.46 2.31-1.54 1.38-3.08-2.46-7.53-2.15-10.3.77-.77 1.08-2.31-.31-1.38-1.38m-16.14 20.6c2.15-5.38 7.84-8.46 13.53-7.38 1.38.15.77 2.15-.62 2-4.61-.77-9.23 1.69-10.92 6-.46 1.23-2.46.62-2-.62m52.59-27.37c5.38-2.31 11.53-1.08 15.38 3.23.92.92-.62 2.46-1.54 1.38-3.23-3.69-8.46-4.77-12.92-2.92-1.08.46-2.15-1.23-.92-1.69m46.28 2.62c5.54-1.54 11.38 1.69 13.22 7.23.31 1.23-1.69 1.85-2 .46-1.38-4.46-6.15-7.07-10.61-5.84-.46.15-1.08-.15-1.23-.62s0-1.08.62-1.23m39.37 40.9c3.84-2 5.23-6.77 3.23-10.46-.15-.46-.46-.77-.77-1.23-.77-.92.62-2.46 1.54-1.38 3.38 4.15 2.92 10.3-1.23 13.68-.46.46-1.08.77-1.69 1.08-1.23.62-2.31-1.08-1.08-1.69m-14.92-23.53c4.15 2 6 6.77 4.31 11.07-.46 1.23-2.46.62-2-.46 1.38-3.38 0-7.23-3.38-8.92-1.23-.46-.15-2.31 1.08-1.69m-1.24-32.9c5.38-.62 10.15 3.23 10.76 8.61v.31c0 1.23-2 1.23-2 0-.46-4.31-4.15-7.38-8.46-7.07h-.31c-1.38.31-1.38-1.69 0-1.85M347.21 344.53c5.23-3.84 6.3-11.07 2.46-16.3l-.15-.15c-.77-1.08 1.08-2 1.85-1.08 4.46 6 3.23 14.45-2.77 18.91-.92.77-2.46-.62-1.38-1.38m-13.08 20.3c4.61-.46 8.46-3.54 10.15-7.84.46-1.23 2.46-.62 2 .46-1.85 5.23-6.61 8.76-12.15 9.23-1.38.31-1.38-1.69 0-1.85m17.38-53.05c4.92 2.31 7.84 7.53 7.07 12.92-.15 1.23-2.15.77-2-.46.62-4.61-2-8.92-6.15-10.76-1.08-.62-.15-2.31 1.08-1.69m3.53 41.97c5.07-2.92 7.07-9.07 4.92-14.45-.46-1.23 1.54-1.69 2-.46 2.46 6.3 0 13.38-5.84 16.76-.46.31-1.08.15-1.38-.31-.15-.62-.15-1.23.31-1.54m-41.21 9.37c3.23 2.15 7.23 2.46 10.76.92 1.23-.62 2.31 1.23 1.08 1.69-4.15 2-8.92 1.69-12.76-.92-1.23-.77-.15-2.46.92-1.69m20.91-52.27c3.54-.31 6.77 1.38 8.76 4.46.62 1.08-1.08 2.15-1.85 1.08-1.54-2.31-4.15-3.69-6.92-3.38-1.23-.15-1.23-2.15 0-2.15m199.12-37.68c2.15-7.84 9.53-13.22 17.68-12.92.62 0 1.08.46 1.08.92 0 .62-.46 1.08-.92 1.08-7.23-.31-13.84 4.46-15.68 11.38-.15.62-.77.77-1.38.62-.62-.15-.92-.62-.77-1.08m-24.15 53.04c.77-1.08 2.61 0 1.85 1.08-5.23 7.23-6.3 16.45-3.08 24.6.46 1.23-1.54 1.69-2 .46-3.54-8.76-2.31-18.6 3.23-26.14m114.4 77.03c4.77-5.23 6.61-12.45 4.77-19.22-.15-.62.31-1.08.77-1.23s.92.15 1.23.62c2 7.53 0 15.53-5.23 21.22-.92.92-2.31-.46-1.54-1.38m26.9-21.53c3.23-5.54 3.38-12.15.77-17.99-.62-1.23 1.23-2.15 1.85-1.08 3.08 6.3 2.77 13.84-.77 19.99-.31.46-.92.62-1.38.31-.46-.15-.62-.62-.46-1.23M547.4 404.8c.62-1.08 2.46-.15 1.85 1.08-4 6.61-3.69 14.91.92 21.06.77 1.08-1.08 2-1.85 1.08-4.92-6.92-5.38-16.14-.92-23.22m-18.45-40.28c.46-1.23 2.46-.62 2 .46-2.31 6.15-2 12.92.46 19.07.46 1.23-1.54 1.69-2 .46-2.61-6.3-2.92-13.53-.46-19.99m-5.23-82.72c1.08-.77 2.15.92 1.08 1.69-5.38 3.54-8.15 9.99-6.92 16.45.31 1.23-1.69 1.85-2 .46-1.54-7.07 1.54-14.61 7.84-18.6"/>
  <path fill="#b4a5b5" d="M630.58 585c6 2.92 9.07 9.84 10.46 16.14.77-.15 1.38-.31 2-.31-1.54-6.92-4.92-14.3-11.38-17.53-1.23-.62-2.31 1.08-1.08 1.69m-81.03.32c5.23 4.31 9.07 10.15 11.07 16.61.77-.15 1.38-.15 2-.31-2-6.92-6.15-13.07-11.69-17.68-.92-.92-2.31.62-1.38 1.38"/>
</svg>