<svg xmlns="http://www.w3.org/2000/svg" viewBox="0 0 992.57 552.03" width="100%" height="100%">
  <path fill="#666793" d="M28.69 263.37c-30.65 16.96-31.21 53.56-26.54 80.7 9.49 51.76 32.88 102.15 72.22 140.41 20.15 19.61 45.82 36.08 75.94 41.04 8.83 1.44 17.82 1.78 26.65 1.33 6.95-.3 14.04-.76 20.68-2.79h.15c.79-.15 1.1-.94.8-1.57-.15-.79-.94-1.1-1.57-.8-5.68 1.41-11.52 2.34-17.36 2.48-8.37.45-16.72.28-25.08-.69C65.01 510.33 7.54 398.82 2.83 324.19c-1.05-21.62 4.69-48.11 28.22-59.56 21.79-10.2 47.04-13.29 70.54-10.71 19.4 2.26 37.52 9.4 53.43 18.9-14.24 16.37-4.83 38.47 6.02 53.02 20.6 26.55 45.09 10.67 33.64-17.58-7.22-15.01-21.08-26.4-35.41-35.9 17.7-15.73 53.33-4.76 75.73-5.97 21.14.21 41.82-8.57 57.16-21.78 24.81-20.44 28.2-53.41 17.07-79.31-6.74-16.11-17.91-31.43-34.6-40.31 11.58-29.63 8.99-62.92 27.19-90.8 25.96-37 79.59-36.25 113.76-13.29-18.33 12.11-31.93 30.36-34.2 50.55-2.74 23.18 5.23 52.86 25.71 67.26 9.6 6.8 22.7 5.11 30.14-4.03 6.97-8.5 9.04-19.38 9.06-29.47 5.34 6.32 11.48 13.12 20.47 15.19 13.09 2.24 14.85-11.17 11.56-19.22-11.91-30-29.35-60.65-57.69-80.91C475.29-14.14 531.88 2.56 563 49.64c14.46 22.28 19.76 49.58 39.74 68.87 10.86 10.59 26.13 19.62 43.34 17.77 21.78-2.63 39.8-19.31 46.47-37.75 14.65 6.51 32.01 6.7 47.95 2.16 9.94-2.34 19.57-6.1 29.68-7.5 18.31-2 36.75 1.98 52.66 11.17 22.68 13.15 45.8 42.55 30.28 67.75-4.09-5.37-10.39-9.02-17.17-9.66-7.25-.96-18.14 1.06-19.42 8.94-.81 8.04 8.17 13.12 16.06 13.92 7.57.65 15.15-2.48 20.22-8.32 6.27 13.11 3.56 28.25.22 42.12-3.19 12.14-6.37 24.44-12.07 35.94-.63 1.1-1.27 2.21-1.9 3.15-.95 1.42 1.57 2.69 2.52 1.11 6.97-11.19 9.68-23.96 13.34-36.09 4.14-15.93 7.81-33.58-.2-48.43 20.1-29.77-11.67-66.13-41.3-77.56-14.81-5.87-32.01-8.6-48.41-5.32-26.2 6.24-45.32 16.13-71.62 4.56 3.34-10.4 3.84-22.23-2.44-31.39-3.93-6.01-11.8-11.23-20.17-9.36-8.68 2.19-9.49 11.65-6.67 17.65 4.71 10.74 14.78 18.97 25.82 24.35-6.04 16.39-19.15 28.98-35.58 34.61-32.52 10.01-56.9-18.75-68.2-41.49-4.56-9.16-8.32-18.8-12.86-28.11-5.03-10.1-11.31-19.58-18.86-28.12-34.77-39.04-88.06-46.27-136.26-15.47C396.75 5.05 367.9-2.12 340.91 4.76c-62.04 17.51-52.39 75.12-68.59 118.93-11.03-5.23-24.27-8.58-37.22-6.24-13.73 2.33-24.49 14.46-18.84 26.46 5.02 11.69 21.89 15.52 34.37 9.7 11.52-5.33 18.81-15.89 23.25-26.29 15.44 8.4 25.65 22.62 32.24 37.46 11.45 25.43 8.7 57.76-15.81 78.05-14.55 12.59-33.8 20.89-53.68 21.01-24.29 1.36-60.08-10.4-79.52 7.06-17.17-10.3-36.87-17.92-58.01-19.7-23.5-1.95-49.07 1.3-70.39 12.13m206.81-142.57c12.46-2.34 25.08 1.01 35.8 6.24-3.81 9.61-10.3 19.22-20.41 24.56-9.16 4.86-21.78 4.05-28.54-2.75-10.7-10.91-2.3-25.41 13.16-28.04m593.64 45.29c8.99-1.08 17.98 2.73 22.22 9.67-17.41 21.41-47.94-5.17-22.22-9.67M687.91 66.34c6.45 8.69 6.1 19.89 2.92 29.82-10.08-5.08-19.37-12.82-23.93-22.62-2.2-4.89-2.34-12.63 4.61-14.51 6.78-1.4 12.93 2.72 16.39 7.29M434.22 76.75c5.99 3.65 7.54 13.74 8.79 20.05-3.62-5.53-10.53-13.28-8.79-20.05m-48.48 21.5c-6.87-29.36 4.08-56.78 32.36-75.17 24.72 16.47 39.97 41.27 52.05 66.23 2.82 6.16 6.12 12.47 6.9 19.27.92 10.26-7.45 12.61-15.63 7.21-6.3-3.96-10.71-9.34-15.11-14.71-.31-4.11-.93-8.2-2.02-12.16-5.15-21.63-20.93-18.19-9 1.55 1.73 3 3.77 5.69 5.81 8.53.79 1.42 2.51 2.53 2.36 4.26 1.07 14.52-5.63 41.63-27.54 37-17.65-5.4-26.59-26.72-30.19-42.04M163.55 325.15c-9.75-13.12-18.85-33.02-7.77-48.29.47-.63 1.1-1.26 1.58-1.89 13.38 8.7 26.3 19.15 33.68 32.73 12.24 24.96-7.05 43.05-27.49 17.44"/>
  <path fill="#ce6a25" d="M837.83 510.7c4.73-.15 9.76-.3 12.57-.3 16.41-10.06 29.43 16.27 8.28 14.94-26.03-1.48-40.96.89-53.24-2.07 5.03-2.07 28.39-14.79 32.39-12.57"/>
  <path fill="#1a1a1a" d="M736.24 515.13c-22.63 2.81-40.67 1.04-45.69 7.1 11.53 7.99 84.59 6.51 88.28-8.28 4.44 13.46 29.58 11.98 41.55 5.03 19.22-11.09 21.44-6.65 36.97-29.58 7.25-6.8 28.54-10.65 39.63-24.99 3.4 7.25 6.51 16.27 9.61 24.99 1.18 2.07 20.85-4.73 20.26-9.02-3.4-13.9-6.51-29.58-8.87-42 .74-19.82 2.81-39.63 6.21-59.15 16.27-6.65 52.79-15.68 59.15-13.16 1.63-5.03 1.63-7.25-2.07-13.6-4.58-1.18-10.8-1.48-17.15-2.66 11.39-26.03-11.98-42.88-30.46-40.37-10.5-.3-20.41-2.66-30.46 2.51-20.85 11.53-19.37 35.34-18.78 47.03.15 3.84-.3 6.51-5.77 11.98-5.18 2.37-14.79 8.58-22.03 13.46-14.05 9.46-42.44 34.31-50.87 40.07-17.15 11.53-38.89 25.58-36.67 70.24-1.18 6.8-17.89 18.63-32.83 20.41"/>
  <path fill="#fca" d="M951.84 329.4c9.91-1.18 14.49 20.41-.44 18.63-13.75-1.77-7.84-17.6.44-18.63"/>
  <path d="M953.03 332.36c7.69.74 8.43 13.6-.74 13.01-10.5-.74-8.13-13.9.74-13.01"/>
  <path fill="#ce6a25" d="M926.41 477.87c3.11 13.01 6.51 24.55 9.91 30.76 9.32-1.48 10.8 7.99 9.91 12.27-1.04 5.18-14.94 4.73-20.26 2.37-7.99-3.55-14.05-19.67-20.11-36.67 7.1-1.04 14.79-3.25 20.55-8.72"/>
  <path fill="#d77633" d="M955.39 323.04c3.11-3.99 7.99 2.22 6.21 5.18-1.33 2.51-10.06 0-6.21-5.18"/>
  <path fill="#101010" d="M904.08 317.72c-6.21-14.64 33.42-42.15 37.12-58.71-1.77 18.78-13.31 47.32-14.94 63.74-7.69 1.18-15.68-.59-22.18-5.03"/>
  <path fill="#d77633" d="M914.28 317.72c-2.22-14.34 26.47-39.78 26.91-58.71 2.22 26.32-10.5 53.09-14.2 62.11-3.7.3-9.02-1.63-12.72-3.4"/>
  <path fill="#faa" d="M920.64 315.79c-2.37-14.2 24.1-31.05 20.7-56.78 0 24.4-2.22 46.58-13.6 60.63-1.48-1.63-4.58-1.77-7.1-3.84"/>
  <path fill="#d77633" d="M925.52 410.73c2.66-7.54 4.58-15.23 5.92-23.07 7.1 2.07 19.82-2.66 20.26-4.44 15.97 6.06 30.31 5.92 35.34-12.27 1.63-5.03-1.77-7.54-5.62-13.75-4.58-1.18-11.53-3.11-18.04-4.44-5.62.74-13.01 10.65-27.8 3.55-6.06-2.96-1.48-9.46.74-14.79-17.6 1.77-27.65 33.27-17.6 43.48-5.92 14.49-2.37 32.83-.74 52.35 0 4.29 2.37 12.42 2.07 13.16 10.06-7.54 7.99-26.03 5.47-39.78"/>
  <path d="M980.83 352.17c4.14.3 8.28 1.92 10.06 4.14 3.99 4.58.15 12.42-3.99 14.2-4.44-4.29-9.17-10.06-6.06-18.34"/>
  <path fill="#d77633" d="M818.75 447.26c37.41-.74 43.48 35.34 36.97 46.29-4.73 8.28-12.27 14.79-21.15 18.19 6.95-7.39 17.75-17.89 14.34-36.53-1.92-10.35-10.65-22.33-30.17-27.95"/>
  <path fill="#c3c3d1" d="M307.43 517.72c9.78 5.9 42.24-27.64 49.54-35.57-6.52 7.14-30.91 35.26-18.02 40.38 14.6 5.59 30.29-30.44 30.75-31.53-.16 1.09-11.03 49.54 0 48.61 11.18-.93 21.43-38.21 21.43-38.21s0 30.44 6.52 28.58c6.52-1.86 27.96-25.78 27.96-25.78s-5.59 31.53 0 31.53 24.07-32.3 24.07-32.3 0 40.07 8.39 41 34.48-32.46 34.48-32.46-3.73 31.53 0 31.53 19.57-31.53 19.57-31.53 0 34.32 13.05 34.32 27.96-31.53 27.96-31.53 2.8 29.51 9.32 29.51 22.36-25.78 22.36-25.78 4.66 30.6 13.98 33.39c9.32 2.8 18.64-34.32 18.64-34.32s9.32 31.53 19.57 34.32c10.25 2.8 13.98-44.88 13.98-44.88s13.98 44.88 20.5 44.88 13.05-41.93 13.05-41.93 11.18 37.12 20.5 33.39c9.32-3.88 7.45-37.12 7.45-37.12s20.5 37.12 31.68 37.12.16-38.36 0-39.14c.62.62 29.82 25.63 33.39 20.03 2.48-3.88-15.38-51.87-26.4-101.57-5.28-23.76-8.85-47.99-8.08-68.18 1.55-34.79 1.4-86.51-15.22-123.32-.62-1.24-1.09-2.48-1.71-3.57 0-.16-.16-.31-.16-.31-3.88-7.92-8.85-15.06-14.91-21.28-5.28-5.44-11.49-9.78-18.33-12.89-4.04-1.86-8.23-3.26-12.58-4.19-6.83-1.55-13.82-2.02-20.81-1.71-2.64.16-5.44.31-8.39.78-3.42.47-6.83.93-10.1 1.55-5.28.93-10.41 2.33-15.38 4.04-11.65 3.73-22.52 9.63-31.84 17.71-13.82 11.96-21.74 27.02-26.87 41.78-7.45 21.59-9.01 42.71-14.13 53.43-1.09 2.8-3.11 5.13-5.75 6.52-2.17.93-4.35 1.55-6.52 2.02-.93.16-2.02.47-3.11.62-6.52 1.09-13.2 1.71-19.72 2.17-1.24.16-2.64.16-4.04.31-13.36.78-28.89 1.24-44.57 2.17-1.71.16-3.26.16-4.97.31-13.98.78-27.96 2.33-41.78 4.81-1.24.31-2.64.47-3.88.78-6.83 1.4-13.67 3.42-20.03 5.9-40.85 17.24-53.89 42.87-48.3 48.61 5.13 5.28 25.63-14.91 28.58-17.86-18.79 19.41-59.17 74.08-52.65 80.76 6.52 6.68 21.43-9.47 21.43-9.47-12.11 24.38-51.1 76.88-39.91 83.56"/>
  <path fill="#707070" d="M553.29 387.1c6.68.93 8.85-16.15 9.32-19.41-.62 7.14-6.68 84.18 7.45 79.52 13.67-4.35 14.75-88.22 14.91-102.04h.16c.31 8.23 2.02 40.69 6.52 45.35.78 13.98 2.33 24.07 5.13 23.14 2.95-1.09 4.19-6.68 4.5-13.67 1.71 22.68 4.66 49.85 9.47 50.94 8.39 2.02 6.37-208.11 10.25-242.75.78-6.83 2.33-11.65 4.35-14.75-11.65 3.73-22.52 9.63-31.84 17.71-.62 4.5-1.4 9.16-2.02 14.13-7.14 2.33-15.22 7.77-21.12 19.88-1.24 2.48-2.48 5.13-3.73 7.77-7.45 21.59-9.01 42.71-14.13 53.43 3.88.31 5.9-4.5 7.14-9.32-3.88 25-12.27 89.3-6.37 90.08m172.25-159.82c0 .16.16.31.16.31.62 1.24 1.24 2.33 1.71 3.57 16.62 36.81 16.77 88.68 15.22 123.32-.93 20.03 2.8 44.26 8.08 68.18-.78 14.75-3.26 26.25-9.01 24.38-10.56-3.42-13.67-53.89-14.44-83.25-.31 25.47-1.71 51.41-5.9 49.7-2.95-1.09-4.19-6.83-4.5-13.67-1.71 22.68-4.66 49.85-9.47 50.94-8.39 2.02-6.37-208.11-10.25-242.75-.78-7.3-2.48-12.11-4.66-15.22 14.91 6.99 25.47 19.26 33.08 34.48" opacity=".21"/>
  <path fill="#d4d4e3" d="M704.56 200.11c6.52 35.26-4.66 122.07 0 127.82s7.45-37.12 7.45-37.12-1.86 65.85 5.59 75.32 9.32-46.75 9.32-46.75 0 99.24 14.91 103.9c14.91 4.81 7.45-80.14 7.45-80.14s1.86 20.97 9.32 20.03S751.15 263 751.15 263s.93 20.97 9.32 19.1c8.39-1.86-5.59-34.32-18.64-61.04-13.05-26.71-37.27-20.97-37.27-20.97m-97.23.02c-6.52 35.26 4.66 122.07 0 127.82s-7.45-37.12-7.45-37.12 1.86 65.85-5.59 75.32-9.32-46.75-9.32-46.75 0 99.24-14.91 103.9-7.45-80.14-7.45-80.14-1.86 20.97-9.32 20.03S560.74 263 560.74 263s-.93 20.97-9.32 19.1c-8.39-1.86 5.59-34.32 18.64-61.04s37.27-20.97 37.27-20.97"/>
  <path fill="#d4d4e3" d="M752.39 296.87c-.93-6.06-1.4-9.94-1.4-9.94.16 3.42.62 6.68 1.4 9.94"/>
  <path fill="#e0e0f0" d="M658.9 173.4c4.66-24.85 51.1-26.71 60.42 0s20.5 147.85 13.98 146.92c-6.52-.93-6.52-26.71-6.52-26.71s2.8 92.56-5.59 89.61-2.8-41-2.8-41-2.8 73.46-11.18 75.32c-8.39 1.86-6.37-191.81-10.25-223.64-3.73-31.84-27.96-12.74-27.96-12.74h-10.25v-7.77h.16Z"/>
  <path fill="#e0e0f0" d="M584.5 320.17c4.81-.78 6.06-14.91 6.37-22.36-.47 18.33-1.55 87.75 5.75 85.26 2.95-.93 4.19-6.21 4.5-12.58 1.71 20.97 4.66 45.82 9.47 46.9 8.39 1.86 6.37-191.81 10.25-223.64 3.88-31.84 27.96-12.74 27.96-12.74h10.25v-7.77c-2.64-13.98-18.48-20.66-33.55-19.1-2.64.31-5.28.78-7.77 1.55-8.54 2.64-16 8.54-19.1 17.55-9.47 26.71-20.66 147.85-14.13 146.92m74.4-133.09v7.3h10.25c3.11-2.64 6.68-4.5 10.56-5.75-6.83-1.4-13.82-2.02-20.81-1.55"/>
  <path fill="#e0e0f0" d="M650.51 187.69c-3.42.47-6.83.93-10.1 1.55 2.95 1.24 5.75 2.95 8.23 4.97h10.25v-7.3c-2.64.31-5.44.47-8.39.78"/>
  <path fill="#707070" d="M626.75 286s-16.77 26.71-11.8 7.45c4.81-19.1 23.76-28.42 44.26-22.83 20.35-5.59 39.29 3.73 44.26 22.83 4.81 19.26-11.8-7.45-11.8-7.45s22.36 50.48 13.05 54.36c-7.14 2.95-15.84-25.94-19.57-39.6 2.17 9.16 4.66 24.07-1.86 23.45-9.16-.93-15.69-22.52-23.92-30.29-8.23 7.77-14.75 29.35-23.92 30.29-6.37.62-4.04-14.13-1.86-23.45-3.73 13.82-12.42 42.55-19.57 39.6-9.47-3.88 12.74-54.36 12.74-54.36" opacity=".21"/>
  <path fill="#c1272d" d="M659.05 183.96c2.02 12.11 27.33 16.77 29.82 12.89v-.16c1.09-2.17.16-3.88-1.09-5.9 0-.16-.16-.16-.16-.31v-.16c-1.4-1.86-2.33-4.04-2.8-6.37-.31-2.02 0-4.04.62-5.9.93-2.8 1.86-4.97-.62-8.39-4.04-5.44-26.56 9.47-25.78 14.29"/>
  <path fill="#851b1f" d="M660.76 182.25c2.64-3.11 14.91-14.29 22.21-12.74 7.3 1.55-22.21 12.74-22.21 12.74m14.91 4.82c0 1.09 10.56.93 12.11 3.26-1.4-1.86-2.33-4.04-2.8-6.37-.31-2.02 0-4.04.62-5.9-3.26 5.9-7.3 5.9-7.3 6.99s4.66-1.55 4.66 0-7.3.93-7.3 2.02m-16.45-3.11c2.02 12.11 27.33 16.77 29.82 12.89-6.68 1.09-22.83-4.19-29.82-12.89"/>
  <path fill="#c1272d" d="M659.52 183.96c-2.02 12.11-27.33 16.77-29.82 12.89v-.16c-1.09-2.17-.16-3.88 1.09-5.9 0-.16.16-.16.16-.31v-.16c1.4-1.86 2.33-4.04 2.8-6.37.31-2.02 0-4.04-.62-5.9-.93-2.8-1.86-4.97.62-8.39 4.19-5.44 26.71 9.47 25.78 14.29"/>
  <path fill="#851b1f" d="M658.12 182.25c-2.64-3.11-14.91-14.29-22.21-12.74-7.3 1.55 22.21 12.74 22.21 12.74m-15.06 4.82c0 1.09-10.56.93-12.11 3.26 1.4-1.86 2.33-4.04 2.8-6.37.31-2.02 0-4.04-.62-5.9 3.26 5.9 7.3 5.9 7.3 6.99s-4.66-1.55-4.66 0 7.3.93 7.3 2.02m16.45-3.11c-2.02 12.11-27.33 16.77-29.82 12.89 6.68 1.09 22.83-4.19 29.82-12.89"/>
  <path fill="#d62b32" d="M660.76 188.15c1.09 0 2.02-.93 2.02-2.17v-4.19c0-1.09-.93-2.02-2.02-2.17s-2.02.93-2.17 2.02v4.35c0 1.24.93 2.17 2.17 2.17"/>
  <path fill="#d62b32" d="M658.12 188.15c1.09 0 2.02-.93 2.02-2.17v-4.19c0-1.09-.93-2.02-2.02-2.17s-2.02.93-2.17 2.02v4.35c0 1.24.93 2.17 2.17 2.17"/>
  <path fill="#d4d4e3" d="M626.75 273.57s-16.77 26.71-11.8 7.45c4.81-19.1 23.76-28.42 44.26-22.83 20.35-5.59 39.29 3.73 44.26 22.83 4.81 19.26-11.8-7.45-11.8-7.45s22.36 50.48 13.05 54.36c-7.14 2.95-15.84-25.94-19.57-39.6 2.17 9.16 4.66 24.07-1.86 23.45-9.16-.93-15.69-22.52-23.92-30.29-8.23 7.77-14.75 29.35-23.92 30.29-6.37.62-4.04-14.13-1.86-23.45-3.73 13.82-12.42 42.55-19.57 39.6-9.47-3.73 12.74-54.36 12.74-54.36"/>
  <path fill="#1a1a1a" d="M668.84 251.99h-18.48c-.93 0-1.71.78-1.71 1.86 0 .47.16.78.47 1.09l9.16 10.25c.62.78 1.71.78 2.48.16l.16-.16 9.16-10.25c.62-.78.62-1.86-.16-2.48-.16-.31-.62-.47-1.09-.47"/>
  <path fill="#ededed" d="M681.26 247.79c.16 4.66 3.88 8.23 8.54 8.23 4.66-.16 8.23-3.88 8.23-8.54-.16-4.5-3.88-8.23-8.39-8.23s-8.39 3.88-8.39 8.54"/>
  <path d="M683.75 247.79c.16 3.26 2.8 5.9 6.06 5.75 3.26-.16 5.9-2.8 5.75-6.06-.16-3.26-2.64-5.75-5.9-5.75-3.26.16-5.9 2.8-5.9 6.06"/>
  <path fill="#fff" d="M683.75 244.22c0 1.09.93 2.02 2.17 2.02 1.09 0 2.02-.93 2.02-2.17 0-1.09-.93-2.02-2.02-2.02-1.24 0-2.17.93-2.17 2.17"/>
  <path fill="#ededed" d="M622.71 247.79c.16 4.66 3.88 8.23 8.54 8.23 4.66-.16 8.23-3.88 8.23-8.54-.16-4.5-3.88-8.23-8.39-8.23-4.81 0-8.54 3.88-8.39 8.54"/>
  <path d="M625.2 247.79c.16 3.26 2.8 5.9 6.06 5.75 3.26-.16 5.9-2.8 5.75-6.06-.16-3.26-2.64-5.75-5.9-5.75-3.42.16-6.06 2.8-5.9 6.06"/>
  <path fill="#fff" d="M625.2 244.22c0 1.09.93 2.02 2.17 2.02 1.09 0 2.02-.93 2.02-2.17 0-1.09-.93-2.02-2.02-2.02-1.4 0-2.33.93-2.17 2.17"/>
  <path fill="#d4d4e3" d="M408.23 456.22c10.56-3.88 16.31-13.82 19.72-24.23 4.81-14.75 6.21-30.6 8.7-45.82 3.88-24.23 11.49-51.56 31.68-66.16-1.71.16-3.26.16-4.97.31-15.06 12.89-23.14 33.39-27.18 52.96-3.26 16-4.81 32.3-8.23 48.15-2.8 12.42-7.61 27.33-20.5 32.15-1.71.62-.93 3.26.78 2.64m-44.73.93c22.99-19.41 26.09-51.1 33.7-78.74 5.28-18.95 13.36-37.12 24.23-53.43-1.24.31-2.64.47-3.88.78-9.16 14.13-16.31 29.51-21.28 45.66-9.01 28.73-10.41 63.21-34.79 83.87-1.24 1.09.62 3.11 2.02 1.86m81.54 31.53c11.18-6.68 17.08-18.79 21.28-31.06 15.22-45.35 13.67-106.39 50.79-140.24-1.4.16-2.64.16-4.04.31-4.66 4.81-8.85 9.94-12.42 15.53-14.44 22.52-20.19 49.08-25.47 75.17-2.95 15.22-5.9 30.44-10.56 45.35-3.88 12.58-9.47 25.63-20.97 32.61-1.55.93-.16 3.26 1.4 2.33m74.07 4.81c10.25-8.39 12.89-22.21 12.11-34.94-.47-8.39-2.17-16.62-3.11-24.85s-1.55-16.31-1.86-24.69c-.93-31.99 3.73-63.83 13.51-94.27-.93.16-2.02.47-3.11.62-8.85 27.96-13.36 57.31-13.2 86.66.31 15.53 1.55 30.91 3.88 46.28 2.02 15.06 2.64 32.77-10.25 43.33-1.4 1.09.62 2.95 2.02 1.86"/>
  <path fill="#eef" d="M593.67 296.09c10.56-23.76 7.92-49.85 7.92-75.01 0-12.11.78-24.38 3.88-36.03 1.55-5.9 3.73-11.49 6.68-16.77 2.64-4.66 7.14-12.58 12.74-13.67.16 0 .31-.16.47-.16-2.64.31-5.28.78-7.77 1.55-1.4 1.55-2.8 3.26-4.04 4.97-3.42 4.66-6.21 9.78-8.23 15.22-4.19 11.03-5.9 22.99-6.37 34.63-1.4 28.11 4.04 57.46-7.77 83.87-.62 1.55 1.71 2.95 2.48 1.4m105-130.92c14.75 17.71 16.62 41.62 16.77 63.99.16 29.04-2.17 58.4 3.88 86.97.31 1.71-2.33 2.48-2.64.78-5.59-26.4-4.19-53.58-4.04-80.45.16-23.61-.16-50.32-15.84-69.27-1.24-1.4.62-3.42 1.86-2.02m27.65 66.47v43.8c0 .78-.62 1.4-1.4 1.4s-1.4-.62-1.4-1.4v-43.8c0-.78.62-1.4 1.4-1.4s1.4.62 1.4 1.4"/>
  <path fill="#d4d4e3" d="M695.24 349.36c3.11 23.3 4.19 46.75 3.26 70.2-.78 21.12-1.4 47.68 18.48 60.42 1.55.93.16 3.42-1.4 2.48-17.86-11.34-20.66-34.01-20.19-53.74.62-26.4.78-52.34-2.8-78.59-.31-1.71 2.33-2.48 2.64-.78m-58.7 8.25c.16-1.86 2.95-1.86 2.8 0-1.24 20.97-1.09 41.93.62 62.74 1.55 18.95 6.52 38.98.31 57.62-.62 1.71-3.26.93-2.64-.78 6.21-18.79.93-39.45-.62-58.71-1.55-20.35-1.71-40.69-.47-60.88M621 507.93c9.78-30.75 8.54-63.21 7.14-95.05-.16-1.86 2.64-1.86 2.8 0 1.4 32.15 2.64 64.92-7.3 95.83-.16.78-.93 1.24-1.71.93s-1.24-.93-.93-1.71m108.1-89.76c4.04 28.89-.93 59.33 10.25 86.97.62 1.71-2.02 2.48-2.64.78-11.18-27.64-6.21-58.09-10.25-86.97-.16-1.86 2.48-2.64 2.64-.78"/>
</svg>