<svg xmlns="http://www.w3.org/2000/svg" viewBox="0 0 949.3 405.55">
  <path fill="#666793" d="M31.38 180.55C5.35 189.59.02 217.88 0 239.55c.43 41.39 11.81 83.58 37.18 118.51 12.99 17.9 30.68 34.1 53.37 41.98 6.65 2.3 13.58 3.77 20.48 4.6 5.42.7 10.99 1.29 16.4.61l.12.02c.63-.01.98-.58.83-1.11-.01-.63-.58-.98-1.11-.83-4.59.33-9.24.27-13.79-.4-6.55-.77-13-2.02-19.35-3.89-67.67-22.2-97.28-116.33-90.94-174.81 2.08-16.9 10.08-36.66 29.85-42.39 18.26-4.99 38.24-4 56.11 1.14 14.73 4.35 27.82 12.31 38.88 21.81-13.23 10.79-8.89 29.18-2.43 41.9 12.42 23.34 33.52 14.31 28.43-9.12-3.58-12.6-12.8-23.29-22.64-32.57 15.83-9.82 41.98 3.46 59.5 5.52 16.36 2.99 33.57-1.04 47.23-9.23 21.97-12.52 29.02-37.62 23.86-59.19-3.07-13.39-9.67-26.76-21.42-35.88 12.95-21.42 15.4-47.57 33.24-66.74 25.08-25.21 66.55-17.44 89.97 4.93-15.83 6.93-28.82 19.26-33.28 34.61-5.23 17.6-3.02 41.68 10.92 55.58 6.53 6.56 16.91 7 23.91.91 6.54-5.66 9.6-13.81 10.97-21.63 3.3 5.61 7.14 11.71 13.83 14.52 9.85 3.49 13.01-6.67 11.53-13.35-5.22-24.85-14.63-50.94-33.88-70.45 46.98-19.36 88.61 1.17 106.43 41.83 8.23 19.21 8.67 41.08 21.58 58.71 7 9.66 17.63 18.71 31.22 19.58 17.23.88 33.44-9.63 41.08-23.04 10.49 7.01 23.92 9.48 36.88 8.1 8.02-.48 15.99-2.11 24.01-1.84 14.46.9 28.22 6.46 39.32 15.71 15.82 13.23 29.8 39.12 14.4 56.57-2.45-4.71-6.85-8.38-12.01-9.79-5.49-1.72-14.2-1.61-16.26 4.33-1.71 6.13 4.57 11.26 10.58 12.94 5.78 1.51 12.08.1 16.78-3.74 3.11 11-1.02 22.37-5.47 32.68-4.1 8.99-8.21 18.09-14.17 26.24-.64.77-1.28 1.54-1.9 2.19-.93.97.85 2.29 1.8 1.2 6.9-7.74 10.71-17.27 15.17-26.19 5.35-11.79 10.55-24.99 6.33-37.56 19.57-20.38-.19-52.82-21.63-65.65-10.69-6.53-23.66-10.95-36.81-10.61-21.14 1.33-37.29 6.44-56.13-6.06 3.98-7.62 5.95-16.72 2.31-24.66-2.24-5.18-7.65-10.29-14.38-9.96-7.02.54-8.92 7.76-7.53 12.79 2.21 8.96 8.92 16.68 16.75 22.33-6.88 11.9-18.73 19.89-32.21 22.07-26.55 3.41-41.59-22.15-47.31-41.3-2.31-7.71-3.93-15.68-6.21-23.51-2.54-8.51-6.14-16.7-10.85-24.32-21.72-34.92-62.07-47.66-103.55-30.24-14.71-13.79-36.12-23.22-57.96-21.5-50.43 5.27-50.67 51.21-69.1 83-7.85-5.53-17.66-9.9-28.01-9.82-10.96-.03-20.92 7.93-18.15 17.98 2.33 9.73 14.89 14.96 25.34 12.12 9.65-2.59 16.71-9.8 21.55-17.27 10.85 8.58 16.86 20.97 19.98 33.36 5.47 21.24-.99 45.94-22.71 58.38-12.96 7.81-29 11.67-44.43 9.1-19.01-2.2-45.18-16.11-62.59-5.18-11.93-10.28-26.18-18.83-42.33-23.04-17.96-4.66-38.21-5.56-56.19-.02M210.8 97.69c9.97-.14 19.31 4.14 26.91 9.63-4.24 6.94-10.56 13.52-19.11 16.3-7.75 2.54-17.42.22-21.76-5.96-6.84-9.89 1.62-20 13.96-19.97m454.1 114.62c7.12.37 13.57 4.52 15.93 10.47-16.36 14.26-36.47-10.43-15.93-10.47m-96.14-96.22c3.84 7.6 2.07 16.24-1.73 23.51-7.13-5.28-13.3-12.54-15.52-20.74-1.05-4.09-.12-10.1 5.52-10.63 5.45-.18 9.66 3.84 11.73 7.85m-198.04-25.9c4.15 3.63 4 11.66 4.13 16.72-2.06-4.77-6.39-11.7-4.13-16.72m-40.46 10.17c-1.4-23.68 10.77-43.47 35.15-53.93 16.96 16.08 25.46 37.34 31.48 58.31 1.36 5.15 3.07 10.49 2.77 15.86-.66 8.08-7.46 8.77-13.09 3.5-4.35-3.91-7.05-8.67-9.74-13.42.31-3.22.38-6.48.06-9.69-1.1-17.45-13.79-16.9-7.18 0 .94 2.56 2.16 4.91 3.36 7.39.42 1.21 1.61 2.3 1.25 3.62-1.12 11.4-9.94 31.52-26.3 24.99-12.96-6.55-17.03-24.27-17.77-36.63M127.67 246.51c-5.8-11.48-10.19-28.12.44-38.47.45-.42 1.02-.83 1.48-1.25 9.21 8.54 17.82 18.37 21.72 29.89 6.15 20.99-11.23 32.42-23.65 9.84"/>
  <path fill="#ce6a25" d="M794.57 363.56c4.73-.15 9.76-.3 12.57-.3 16.41-10.06 29.43 16.27 8.28 14.94-26.03-1.48-40.96.89-53.24-2.07 5.03-2.07 28.39-14.79 32.39-12.57"/>
  <path fill="#1a1a1a" d="M692.98 367.99c-22.63 2.81-40.67 1.04-45.69 7.1 11.53 7.99 84.59 6.51 88.28-8.28 4.44 13.46 29.58 11.98 41.55 5.03 19.22-11.09 21.44-6.65 36.97-29.58 7.25-6.8 28.54-10.65 39.63-24.99 3.4 7.25 6.51 16.27 9.61 24.99 1.18 2.07 20.85-4.73 20.26-9.02-3.4-13.9-6.51-29.58-8.87-42 .74-19.82 2.81-39.63 6.21-59.15 16.27-6.65 52.79-15.68 59.15-13.16 1.63-5.03 1.63-7.25-2.07-13.6-4.58-1.18-10.8-1.48-17.15-2.66 11.39-26.03-11.98-42.88-30.46-40.37-10.5-.3-20.41-2.66-30.46 2.51-20.85 11.53-19.37 35.34-18.78 47.03.15 3.84-.3 6.51-5.77 11.98-5.18 2.37-14.79 8.58-22.03 13.46-14.05 9.46-42.44 34.31-50.87 40.07-17.15 11.53-38.89 25.58-36.67 70.24-1.18 6.8-17.89 18.63-32.83 20.41"/>
  <path fill="#fca" d="M908.58 182.26c9.91-1.18 14.49 20.41-.44 18.63-13.75-1.77-7.84-17.6.44-18.63"/>
  <path d="M909.77 185.22c7.69.74 8.43 13.6-.74 13.01-10.5-.74-8.13-13.9.74-13.01"/>
  <path fill="#ce6a25" d="M883.15 330.73c3.11 13.01 6.51 24.55 9.91 30.76 9.32-1.48 10.8 7.99 9.91 12.27-1.04 5.18-14.94 4.73-20.26 2.37-7.99-3.55-14.05-19.67-20.11-36.67 7.1-1.04 14.79-3.25 20.55-8.72"/>
  <path fill="#d77633" d="M912.13 175.9c3.11-3.99 7.99 2.22 6.21 5.18-1.33 2.51-10.06 0-6.21-5.18"/>
  <path fill="#101010" d="M860.82 170.58c-6.21-14.64 33.42-42.15 37.12-58.71-1.77 18.78-13.31 47.32-14.94 63.74-7.69 1.18-15.68-.59-22.18-5.03"/>
  <path fill="#d77633" d="M871.02 170.58c-2.22-14.34 26.47-39.78 26.91-58.71 2.22 26.32-10.5 53.09-14.2 62.11-3.7.3-9.02-1.63-12.72-3.4"/>
  <path fill="#faa" d="M877.38 168.65c-2.37-14.2 24.1-31.05 20.7-56.78 0 24.4-2.22 46.58-13.6 60.63-1.48-1.63-4.58-1.77-7.1-3.84"/>
  <path fill="#d77633" d="M882.26 263.59c2.66-7.54 4.58-15.23 5.92-23.07 7.1 2.07 19.82-2.66 20.26-4.44 15.97 6.06 30.31 5.92 35.34-12.27 1.63-5.03-1.77-7.54-5.62-13.75-4.58-1.18-11.53-3.11-18.04-4.44-5.62.74-13.01 10.65-27.8 3.55-6.06-2.96-1.48-9.46.74-14.79-17.6 1.77-27.65 33.27-17.6 43.48-5.92 14.49-2.37 32.83-.74 52.35 0 4.29 2.37 12.42 2.07 13.16 10.06-7.54 7.99-26.03 5.47-39.78"/>
  <path d="M937.57 205.03c4.14.3 8.28 1.92 10.06 4.14 3.99 4.58.15 12.42-3.99 14.2-4.44-4.29-9.17-10.06-6.06-18.34"/>
  <path fill="#d77633" d="M775.49 300.12c37.41-.74 43.48 35.34 36.97 46.29-4.73 8.28-12.27 14.79-21.15 18.19 6.95-7.39 17.75-17.89 14.34-36.53-1.92-10.35-10.65-22.33-30.17-27.95"/>
  <path fill="#c3c3d1" d="M264.17 363.8c9.78 5.9 42.24-27.64 49.54-35.57-6.52 7.14-30.91 35.26-18.02 40.38 14.6 5.59 30.29-30.44 30.75-31.53-.16 1.09-11.03 49.54 0 48.61 11.18-.93 21.43-38.21 21.43-38.21s0 30.44 6.52 28.58c6.52-1.86 27.96-25.78 27.96-25.78s-5.59 31.53 0 31.53 24.07-32.3 24.07-32.3 0 40.07 8.39 41c8.39.93 34.48-32.46 34.48-32.46s-3.73 31.53 0 31.53 19.57-31.53 19.57-31.53 0 34.32 13.05 34.32 27.96-31.53 27.96-31.53 2.8 29.51 9.32 29.51 22.36-25.78 22.36-25.78 4.66 30.6 13.98 33.39c9.32 2.8 18.64-34.32 18.64-34.32s9.32 31.53 19.57 34.32c10.25 2.8 13.98-44.88 13.98-44.88s13.98 44.88 20.5 44.88 13.05-41.93 13.05-41.93 11.18 37.12 20.5 33.39c9.32-3.88 7.45-37.12 7.45-37.12s20.5 37.12 31.68 37.12.16-38.36 0-39.14c.62.62 29.82 25.63 33.39 20.03 2.48-3.88-15.38-51.87-26.4-101.57-5.28-23.76-8.85-47.99-8.08-68.18 1.55-34.79 1.4-86.51-15.22-123.32-.62-1.24-1.09-2.48-1.71-3.57 0-.16-.16-.31-.16-.31-3.88-7.92-8.85-15.06-14.91-21.28-5.28-5.44-11.49-9.78-18.33-12.89-4.04-1.86-8.23-3.26-12.58-4.19-6.83-1.55-13.82-2.02-20.81-1.71-2.64.16-5.44.31-8.39.78-3.42.47-6.83.93-10.1 1.55-5.28.93-10.41 2.33-15.38 4.04-11.65 3.73-22.52 9.63-31.84 17.71-13.82 11.96-21.74 27.02-26.87 41.78-7.45 21.59-9.01 42.71-14.13 53.43-1.09 2.8-3.11 5.13-5.75 6.52-2.17.93-4.35 1.55-6.52 2.02-.93.16-2.02.47-3.11.62-6.52 1.09-13.2 1.71-19.72 2.17-1.24.16-2.64.16-4.04.31-13.36.78-28.89 1.24-44.57 2.17-1.71.16-3.26.16-4.97.31-13.98.78-27.96 2.33-41.78 4.81-1.24.31-2.64.47-3.88.78-6.83 1.4-13.67 3.42-20.03 5.9-40.85 17.24-53.89 42.87-48.3 48.61 5.13 5.28 25.63-14.91 28.58-17.86-18.79 19.41-59.17 74.08-52.65 80.76 6.52 6.68 21.43-9.47 21.43-9.47-12.11 24.38-51.1 76.88-39.91 83.56"/>
  <path fill="#707070" d="M510.03 233.18c6.68.93 8.85-16.15 9.32-19.41-.62 7.14-6.68 84.18 7.45 79.52 13.67-4.35 14.75-88.22 14.91-102.04h.16c.31 8.23 2.02 40.69 6.52 45.35.78 13.98 2.33 24.07 5.13 23.14 2.95-1.09 4.19-6.68 4.5-13.67 1.71 22.68 4.66 49.85 9.47 50.94 8.39 2.02 6.37-208.11 10.25-242.75.78-6.83 2.33-11.65 4.35-14.75-11.65 3.73-22.52 9.63-31.84 17.71-.62 4.5-1.4 9.16-2.02 14.13-7.14 2.33-15.22 7.77-21.12 19.88-1.24 2.48-2.48 5.13-3.73 7.77-7.45 21.59-9.01 42.71-14.13 53.43 3.88.31 5.9-4.5 7.14-9.32-3.88 25-12.27 89.3-6.37 90.08M682.27 73.37c0 .16.16.31.16.31.62 1.24 1.24 2.33 1.71 3.57 16.62 36.81 16.77 88.68 15.22 123.32-.93 20.03 2.8 44.26 8.08 68.18-.78 14.75-3.26 26.25-9.01 24.38-10.56-3.42-13.67-53.89-14.44-83.25-.31 25.47-1.71 51.41-5.9 49.7-2.95-1.09-4.19-6.83-4.5-13.67-1.71 22.68-4.66 49.85-9.47 50.94-8.39 2.02-6.37-208.11-10.25-242.75-.78-7.3-2.48-12.11-4.66-15.22 14.91 6.99 25.47 19.26 33.08 34.48" opacity=".21"/>
  <path fill="#d4d4e3" d="M661.3 46.19c6.52 35.26-4.66 122.07 0 127.82s7.45-37.12 7.45-37.12-1.86 65.85 5.59 75.32 9.32-46.75 9.32-46.75 0 99.24 14.91 103.9c14.91 4.81 7.45-80.14 7.45-80.14s1.86 20.97 9.32 20.03-7.45-100.17-7.45-100.17.93 20.97 9.32 19.1c8.39-1.86-5.59-34.32-18.64-61.04-13.05-26.71-37.27-20.97-37.27-20.97m-97.23.02c-6.52 35.26 4.66 122.07 0 127.82s-7.45-37.12-7.45-37.12 1.86 65.85-5.59 75.32c-7.45 9.47-9.32-46.75-9.32-46.75s0 99.24-14.91 103.9-7.45-80.14-7.45-80.14-1.86 20.97-9.32 20.03 7.45-100.17 7.45-100.17-.93 20.97-9.32 19.1c-8.39-1.86 5.59-34.32 18.64-61.04s37.27-20.97 37.27-20.97"/>
  <path fill="#d4d4e3" d="M709.13 142.95c-.93-6.06-1.4-9.94-1.4-9.94.16 3.42.62 6.68 1.4 9.94"/>
  <path fill="#e0e0f0" d="M615.64 19.48c4.66-24.85 51.1-26.71 60.42 0s20.5 147.85 13.98 146.92c-6.52-.93-6.52-26.71-6.52-26.71s2.8 92.56-5.59 89.61c-8.39-2.95-2.8-41-2.8-41s-2.8 73.46-11.18 75.32c-8.39 1.86-6.37-191.81-10.25-223.64-3.73-31.84-27.96-12.74-27.96-12.74h-10.25v-7.77h.16Z"/>
  <path fill="#e0e0f0" d="M541.24 166.25c4.81-.78 6.06-14.91 6.37-22.36-.47 18.33-1.55 87.75 5.75 85.26 2.95-.93 4.19-6.21 4.5-12.58 1.71 20.97 4.66 45.82 9.47 46.9 8.39 1.86 6.37-191.81 10.25-223.64 3.88-31.84 27.96-12.74 27.96-12.74h10.25v-7.77C613.15 5.34 597.31-1.34 582.24.22c-2.64.31-5.28.78-7.77 1.55-8.54 2.64-16 8.54-19.1 17.55-9.47 26.71-20.66 147.85-14.13 146.92m74.4-133.09v7.3h10.25c3.11-2.64 6.68-4.5 10.56-5.75-6.83-1.4-13.82-2.02-20.81-1.55"/>
  <path fill="#e0e0f0" d="M607.25 33.77c-3.42.47-6.83.93-10.1 1.55 2.95 1.24 5.75 2.95 8.23 4.97h10.25v-7.3c-2.64.31-5.44.47-8.39.78"/>
  <path fill="#707070" d="M583.49 132.08s-16.77 26.71-11.8 7.45c4.81-19.1 23.76-28.42 44.26-22.83 20.35-5.59 39.29 3.73 44.26 22.83 4.81 19.26-11.8-7.45-11.8-7.45s22.36 50.48 13.05 54.36c-7.14 2.95-15.84-25.94-19.57-39.6 2.17 9.16 4.66 24.07-1.86 23.45-9.16-.93-15.69-22.52-23.92-30.29-8.23 7.77-14.75 29.35-23.92 30.29-6.37.62-4.04-14.13-1.86-23.45-3.73 13.82-12.42 42.55-19.57 39.6-9.47-3.88 12.74-54.36 12.74-54.36" opacity=".21"/>
  <path fill="#c1272d" d="M615.79 30.04c2.02 12.11 27.33 16.77 29.82 12.89v-.16c1.09-2.17.16-3.88-1.09-5.9 0-.16-.16-.16-.16-.31v-.16c-1.4-1.86-2.33-4.04-2.8-6.37-.31-2.02 0-4.04.62-5.9.93-2.8 1.86-4.97-.62-8.39-4.04-5.44-26.56 9.47-25.78 14.29"/>
  <path fill="#851b1f" d="M617.5 28.33c2.64-3.11 14.91-14.29 22.21-12.74S617.5 28.33 617.5 28.33m14.91 4.82c0 1.09 10.56.93 12.11 3.26-1.4-1.86-2.33-4.04-2.8-6.37-.31-2.02 0-4.04.62-5.9-3.26 5.9-7.3 5.9-7.3 6.99s4.66-1.55 4.66 0-7.3.93-7.3 2.02m-16.45-3.11c2.02 12.11 27.33 16.77 29.82 12.89-6.68 1.09-22.83-4.19-29.82-12.89"/>
  <path fill="#c1272d" d="M616.26 30.04c-2.02 12.11-27.33 16.77-29.82 12.89v-.16c-1.09-2.17-.16-3.88 1.09-5.9 0-.16.16-.16.16-.31v-.16c1.4-1.86 2.33-4.04 2.8-6.37.31-2.02 0-4.04-.62-5.9-.93-2.8-1.86-4.97.62-8.39 4.19-5.44 26.71 9.47 25.78 14.29"/>
  <path fill="#851b1f" d="M614.86 28.33c-2.64-3.11-14.91-14.29-22.21-12.74s22.21 12.74 22.21 12.74m-15.06 4.82c0 1.09-10.56.93-12.11 3.26 1.4-1.86 2.33-4.04 2.8-6.37.31-2.02 0-4.04-.62-5.9 3.26 5.9 7.3 5.9 7.3 6.99s-4.66-1.55-4.66 0 7.3.93 7.3 2.02m16.45-3.11c-2.02 12.11-27.33 16.77-29.82 12.89 6.68 1.09 22.83-4.19 29.82-12.89"/>
  <path fill="#d62b32" d="M617.5 34.23c1.09 0 2.02-.93 2.02-2.17v-4.19c0-1.09-.93-2.02-2.02-2.17s-2.02.93-2.17 2.02v4.35c0 1.24.93 2.17 2.17 2.17"/>
  <path fill="#d62b32" d="M614.86 34.23c1.09 0 2.02-.93 2.02-2.17v-4.19c0-1.09-.93-2.02-2.02-2.17s-2.02.93-2.17 2.02v4.35c0 1.24.93 2.17 2.17 2.17"/>
  <path fill="#d4d4e3" d="M583.49 119.65s-16.77 26.71-11.8 7.45c4.81-19.1 23.76-28.42 44.26-22.83 20.35-5.59 39.29 3.73 44.26 22.83 4.81 19.26-11.8-7.45-11.8-7.45s22.36 50.48 13.05 54.36c-7.14 2.95-15.84-25.94-19.57-39.6 2.17 9.16 4.66 24.07-1.86 23.45-9.16-.93-15.69-22.52-23.92-30.29-8.23 7.77-14.75 29.35-23.92 30.29-6.37.62-4.04-14.13-1.86-23.45-3.73 13.82-12.42 42.55-19.57 39.6-9.47-3.73 12.74-54.36 12.74-54.36"/>
  <path fill="#1a1a1a" d="M625.58 98.07H607.1c-.93 0-1.71.78-1.71 1.86 0 .47.16.78.47 1.09l9.16 10.25c.62.78 1.71.78 2.48.16l.16-.16 9.16-10.25c.62-.78.62-1.86-.16-2.48-.16-.31-.62-.47-1.09-.47"/>
  <path fill="#ededed" d="M638 93.87c.16 4.66 3.88 8.23 8.54 8.23 4.66-.16 8.23-3.88 8.23-8.54-.16-4.5-3.88-8.23-8.39-8.23-4.66 0-8.39 3.88-8.39 8.54"/>
  <path d="M640.49 93.87c.16 3.26 2.8 5.9 6.06 5.75 3.26-.16 5.9-2.8 5.75-6.06-.16-3.26-2.64-5.75-5.9-5.75-3.26.16-5.9 2.8-5.9 6.06"/>
  <path fill="#fff" d="M640.49 90.3c0 1.09.93 2.02 2.17 2.02 1.09 0 2.02-.93 2.02-2.17 0-1.09-.93-2.02-2.02-2.02-1.24 0-2.17.93-2.17 2.17"/>
  <path fill="#ededed" d="M579.45 93.87c.16 4.66 3.88 8.23 8.54 8.23 4.66-.16 8.23-3.88 8.23-8.54-.16-4.5-3.88-8.23-8.39-8.23-4.81 0-8.54 3.88-8.39 8.54"/>
  <path d="M581.94 93.87c.16 3.26 2.8 5.9 6.06 5.75 3.26-.16 5.9-2.8 5.75-6.06-.16-3.26-2.64-5.75-5.9-5.75-3.42.16-6.06 2.8-5.9 6.06"/>
  <path fill="#fff" d="M581.94 90.3c0 1.09.93 2.02 2.17 2.02 1.09 0 2.02-.93 2.02-2.17 0-1.09-.93-2.02-2.02-2.02-1.4 0-2.33.93-2.17 2.17"/>
  <path fill="#d4d4e3" d="M364.97 302.3c10.56-3.88 16.31-13.82 19.72-24.23 4.81-14.75 6.21-30.6 8.7-45.82 3.88-24.23 11.49-51.56 31.68-66.16-1.71.16-3.26.16-4.97.31-15.06 12.89-23.14 33.39-27.18 52.96-3.26 16-4.81 32.3-8.23 48.15-2.8 12.42-7.61 27.33-20.5 32.15-1.71.62-.93 3.26.78 2.64m-44.73.93c22.99-19.41 26.09-51.1 33.7-78.74 5.28-18.95 13.36-37.12 24.23-53.43-1.24.31-2.64.47-3.88.78-9.16 14.13-16.31 29.51-21.28 45.66-9.01 28.73-10.41 63.21-34.79 83.87-1.24 1.09.62 3.11 2.02 1.86m81.54 31.53c11.18-6.68 17.08-18.79 21.28-31.06 15.22-45.35 13.67-106.39 50.79-140.24-1.4.16-2.64.16-4.04.31-4.66 4.81-8.85 9.94-12.42 15.53-14.44 22.52-20.19 49.08-25.47 75.17-2.95 15.22-5.9 30.44-10.56 45.35-3.88 12.58-9.47 25.63-20.97 32.61-1.55.93-.16 3.26 1.4 2.33m74.07 4.81c10.25-8.39 12.89-22.21 12.11-34.94-.47-8.39-2.17-16.62-3.11-24.85s-1.55-16.31-1.86-24.69c-.93-31.99 3.73-63.83 13.51-94.27-.93.16-2.02.47-3.11.62-8.85 27.96-13.36 57.31-13.2 86.66.31 15.53 1.55 30.91 3.88 46.28 2.02 15.06 2.64 32.77-10.25 43.33-1.4 1.09.62 2.95 2.02 1.86"/>
  <path fill="#eef" d="M550.41 142.17c10.56-23.76 7.92-49.85 7.92-75.01 0-12.11.78-24.38 3.88-36.03 1.55-5.9 3.73-11.49 6.68-16.77 2.64-4.66 7.14-12.58 12.74-13.67.16 0 .31-.16.47-.16-2.64.31-5.28.78-7.77 1.55-1.4 1.55-2.8 3.26-4.04 4.97-3.42 4.66-6.21 9.78-8.23 15.22-4.19 11.03-5.9 22.99-6.37 34.63-1.4 28.11 4.04 57.46-7.77 83.87-.62 1.55 1.71 2.95 2.48 1.4m105-130.92c14.75 17.71 16.62 41.62 16.77 63.99.16 29.04-2.17 58.4 3.88 86.97.31 1.71-2.33 2.48-2.64.78-5.59-26.4-4.19-53.58-4.04-80.45.16-23.61-.16-50.32-15.84-69.27-1.24-1.4.62-3.42 1.86-2.02m27.65 66.47v43.8c0 .78-.62 1.4-1.4 1.4s-1.4-.62-1.4-1.4v-43.8c0-.78.62-1.4 1.4-1.4s1.4.62 1.4 1.4"/>
  <path fill="#d4d4e3" d="M651.98 195.44c3.11 23.3 4.19 46.75 3.26 70.2-.78 21.12-1.4 47.68 18.48 60.42 1.55.93.16 3.42-1.4 2.48-17.86-11.34-20.66-34.01-20.19-53.74.62-26.4.78-52.34-2.8-78.59-.31-1.71 2.33-2.48 2.64-.78m-58.7 8.25c.16-1.86 2.95-1.86 2.8 0-1.24 20.97-1.09 41.93.62 62.74 1.55 18.95 6.52 38.98.31 57.62-.62 1.71-3.26.93-2.64-.78 6.21-18.79.93-39.45-.62-58.71-1.55-20.35-1.71-40.69-.47-60.88m-15.53 150.34c9.78-30.75 8.54-63.21 7.14-95.05-.16-1.86 2.64-1.86 2.8 0 1.4 32.15 2.64 64.92-7.3 95.83-.16.78-.93 1.24-1.71.93s-1.24-.93-.93-1.71m108.1-89.76c4.04 28.89-.93 59.33 10.25 86.97.62 1.71-2.02 2.48-2.64.78-11.18-27.64-6.21-58.09-10.25-86.97-.16-1.86 2.48-2.64 2.64-.78"/>
</svg>