<svg xmlns="http://www.w3.org/2000/svg" xml:space="preserve" viewBox="0 0 897.3 777">
  <path fill="#666793" d="M867.6 516.7c-21-9.8-45.9-12.2-68.7-9.6-20.5 2.4-39.3 10.4-55.7 20.9-19.4-16.3-53.8-3.8-77.4-4.3-19.3.5-38.2-7-52.7-18.7-24.4-18.9-28.1-50.2-17.8-75.2 5.9-14.6 15.4-28.7 30.1-37.4 4.6 10 12 20 23.4 24.8 12.3 5.2 28.5 1 33-10.5 5.1-11.8-5.7-23.2-19.1-25.1-12.6-1.9-25.4 1.8-35.9 7.2-17.1-42-9.5-98.2-70.3-113.2-26.4-5.8-54.2 2-74.5 16.4-47.7-28.4-99.2-19.7-131.7 19.3-7 8.5-12.9 17.9-17.4 27.9-4.1 9.2-7.5 18.6-11.6 27.7-10.3 22.4-33 51.1-64.9 42.4-16.1-5-29.2-16.8-35.6-32.5 10.5-5.6 20.1-13.9 24.3-24.4 2.6-5.9 1.5-15.1-7-16.9-8.2-1.6-15.6 3.8-19.3 9.7-5.8 9.1-4.9 20.5-1.4 30.5-25.2 12-44 3-69.6-2.2-16-2.7-32.6.5-46.8 6.7-28.4 12-58.1 48.3-37.6 76.5-7.3 14.6-3.2 31.7 1.3 47 3.9 11.7 7 24 14.1 34.6 1 1.5 3.4.2 2.4-1.2-.6-.9-1.3-2-1.9-3-5.9-11-9.4-22.8-12.8-34.5-3.7-13.4-6.8-27.9-1.1-40.9 5.1 5.5 12.6 8.3 19.9 7.4 7.6-1 16.2-6.2 15.1-14-1.5-7.6-12.1-9.2-19.1-8.1-6.6.8-12.6 4.6-16.3 9.9-15.8-24 5.7-53.2 27.2-66.7 15.1-9.4 32.9-13.9 50.7-12.5 9.8 1 19.3 4.4 29 6.3 15.6 3.9 32.4 3.2 46.4-3.6 7.1 17.7 25.1 33.3 46.3 35.2 16.8 1.2 31.3-8 41.5-18.6 18.8-19.3 23.1-46 36.4-68.1 28.7-46.6 83.1-64.6 137.2-33-26.9 20.5-42.8 50.8-53.4 80.3-3 7.9-.8 20.9 11.8 18.3 8.7-2.3 14.4-9.1 19.4-15.4.3 9.8 2.7 20.3 9.7 28.3 7.5 8.6 20.3 9.9 29.4 3 19.4-14.6 26.2-43.6 22.8-66-2.8-19.5-16.6-36.8-34.8-48 32.4-23.3 84.4-25.8 110.8 9.3 18.5 26.5 17.1 58.8 29.2 87.2-15.9 9.1-26.3 24.4-32.3 40.2-10 25.5-5.7 57.4 19 76.4 15.3 12.3 35.6 20.2 56.1 19.3 21.8.5 56-11.3 73.7 3.4-13.6 9.7-26.7 21.2-33.2 35.9-10.2 27.8 14 42.4 33.2 16 10.1-14.5 18.5-36.2 4.2-51.6 15.1-9.7 32.5-17.2 51.2-20 22.7-3.2 47.3-1 68.8 8.2 23.2 10.4 29.6 35.9 29.2 56.9-2.2 72.5-54.5 182.5-140.9 198.1-8.1 1.2-16.2 1.6-24.3 1.5-5.7 0-11.4-.7-16.9-1.9-.6-.3-1.4 0-1.5.8-.3.6 0 1.4.8 1.5h.2c6.5 1.8 13.4 2 20.1 2.1 8.6.2 17.3-.5 25.8-2.1 29.1-5.8 53.5-22.5 72.4-42.2 37-38.3 58.1-88 65.7-138.5 3.7-26.2 2-61.7-28.3-77.2M662.5 384.9c15.1 2.1 23.7 15.9 13.7 26.8-6.3 6.8-18.6 8-27.6 3.6-10-4.9-16.6-14-20.6-23.2 10.2-5.5 22.4-9.1 34.5-7.2M88.1 447.4c25.1 3.6-3.7 30.3-21.2 10.1 3.8-6.9 12.4-10.8 21.2-10.1M222 346.2c3.2-4.5 9.1-8.7 15.7-7.6 6.8 1.6 6.9 9.1 4.9 13.9-4.1 9.6-12.9 17.5-22.5 22.7-3.4-9.5-4.1-20.3 1.9-29m246.4 2.2c1.9 6.5-4.6 14.2-7.9 19.7 1-6.1 2.2-16 7.9-19.7m47.7 19.3c-3 15-11 35.9-28 41.7-21.1 5.2-28.5-20.9-27.9-35-.2-1.7 1.4-2.8 2.1-4.2 1.9-2.8 3.8-5.5 5.4-8.5 11-19.5-4.5-22.4-8.8-1.2-.9 3.9-1.4 7.9-1.6 11.9-4.1 5.4-8.2 10.7-14.2 14.7-7.8 5.5-16 3.5-15.4-6.5.5-6.6 3.5-12.8 6.1-18.9 10.9-24.6 24.9-49.1 48.4-65.9 28.2 17 39.6 43.2 33.9 71.9m222.6 213.2c-19 25.5-38.3 8.5-27.2-16.1 6.7-13.4 18.9-24 31.6-32.8.5.6 1.1 1.2 1.6 1.8 11.3 14.5 3.1 34.1-6 47.1"/>
  <path fill="#ffb085" d="M247.5 247.1c3.6.8 6.9 3 9.2 5.8 3.3 4.9 2.1 11.5.3 17.3-3.1 10-7.4 19.6-12.9 28.7-3.1 5.1-6.6 10.2-10.1 15.2l-7.2 10.4-11.1 15.8c-3.3 4.8-7.2 8.1-13 5.3-2.5-1.1-5.6-2.6-7.4-4.8-1.6-2-.7-5 .2-7.1 6.6-19 9.2-39.1 15.7-58.2 2.3-6.8 5.1-13.2 8.2-19.6 1.5-3.1 3.1-6.1 5.3-8.9 4.3-5.8 12.4-2.6 18.1-1.1 1.5.6 3.2.9 4.7 1.2"/>
  <path fill="#ffb085" d="M190.2 359.3c-1.1.7-2.1 1.3-2.8 2-.2.3-.5.5-.8.3-.2 0-.3 0-.3-.2-.3-.3-.7-.7-.8-1.1-.2-.2-.2-.5-.2-.8-.2-2.1.8-3.8 1-5.8 0-.7-.2-1.3-.3-2-.2-1 0-2 .5-2.8.8-2.6 2.1-5.3 3.6-7.6 1.8-2.6 4.9-4.8 7.4-6.9 1.8-1.8 4.4-3 7.1-2.8 2.3.3 4.4 2.1 6.3 4 .7.5 1.1 1.1 1.5 1.8.3.8.5 1.6.5 2.5.2 4.9-.7 10-2.5 14.7-.5 1.3-1.1 2.8-1.8 4.1-.8 1.1-1.6 2.1-2.6 3.1-.2.2-.5.3-.7.5s-.5.2-.8.2c-1.6 0-3.1-.3-4.6-1l-3-1.5c-1.6-.8-4.6-1.8-6.3-.8l-.4.1"/>
  <path fill="#fda17b" d="M183.3 353c0-.2.2-.3.2-.5.2-.5.3-.8.5-1.3.5-1 1.6-1.6 2.1-2.6.7-1.3 1.2-2.6 1.6-4 1.3-3.6 3.6-7.8 7.1-9.4 2.5-1.1 5.3-.5 6.9 1.6 1.1 1.6 1.8 3.6 1.5 5.8s-1.1 4-2.5 5.6c-1.5 2-5.6 3.1-7.9 4.3-1.6.7-3.1 1.6-4.4 3-1 1.6-2.3 3-4 4-.3.3-.7.3-1 .5-.8.2-1.8-.2-2.5-.7-.7-.3-1-.8-1.1-1.5 0-.8.8-1.5 1.5-2 1-.7 1.7-1.5 2-2.8"/>
  <path fill="#ffb085" d="m221.6 252.9 1.8-46.2c.2-5.1.7-10.1 1.1-15.2 1-10.1 2.1-20.1 3.8-30 1.1-7.9 3.8-15.7 7.6-22.8 4-7.1 8.2-13.7 13.2-20.1 2.1-3.1 4.6-6.1 7.1-8.9 2-2 5.4-5.6 8.1-5.9h.5c.7.3 1.5.5 2.1.8s1.5.7 2.1 1.2c1.8 1.2 3.3 2.6 4.8 4.3 1.8 2.1 3.3 4.4 4.5 6.9.2.3.2.5.3.8 1.8 4.1 3 8.4 3.6 12.9.5 3.1.7 6.3.7 9.4 0 1-.2 1.8-.2 2.8v1.1c-.5 5.8-1.3 11.5-2.1 16.8-.3 2-.7 3.8-1 5.6-4.8 28.4-9.7 56.9-18.6 84.4-.7 2.5-1.8 4.9-3.5 7.1-6.1 7.1-22.9.8-30.3-1-.2 0-.5 0-.8-.2-.2 0-.3-.2-.5-.2-.3-.2-4.4-1.8-4.4-1.5.1-.6.1-1.4.1-2.1"/>
  <path fill="#f5c9a8" d="M283.2 140.4c0-3.1-.2-6.3-.8-9.7-.2-1.5-.5-3.1-.8-4.8-.8-3-1.8-5.9-3.1-8.7-1.1-2.5-2.6-4.8-4.5-6.9-1.5-1.5-3.1-3-4.8-4.3-9.4-7.1-16.6-4.3-24.2 3.6-3.1 3-5.9 6.3-8.2 9.9-1.5 2.8-3 5.8-4 8.7-7.6 20.3-11.9 41.5-12.7 63.1 0 1.3 18 2.5 19.6 2.8 8.2 1.6 16.3 3 24.6 4 2.8.7 5.6.5 8.4-.3 4.6-1.8 5-6.6 5.3-10.7.5-5.6 1.8-11.2 2.6-16.6 1.6-10.2 2.5-20.1 2.6-30.1"/>
  <path fill="#ffe2bf" d="M283.2 140.4c0-3.1-.2-6.3-.8-9.6-.2-1.5-.5-3.1-.8-4.8-.8-3-1.8-5.9-3.1-8.7-1.1-2.5-2.6-4.8-4.5-6.9-1.5-1.5-3.1-3-4.8-4.3-9.4-7.1-16.6-4.3-24.2 3.6-3.1 3-5.9 6.3-8.2 9.9-1.5 2.8-3 5.8-4 8.7-1.3 4-2.8 7.9-4 11.9 11.9 2.3 23.6 6.3 34.5 11.5 6.3 3 12.4 6.4 18.5 9.9.9-7.2 1.4-14.3 1.4-21.2"/>
  <path fill="#3e3839" d="M102.4 564c-5.3 12.7-.2 27.2 5.8 39.7 2 3.8 4.1 7.9 7.8 10.2 8.1 5.3 19.1.2 25.9-6.8 6.4-6.8 11.1-14.8 15.5-22.9 5.9-10.9 10.7-22.4 14-34.5l.5-1.5c5.4-19.1 9.1-38.7 10.9-58.5.3-2.8.7-5.4.8-8.2.8-11.2 2.3-22.4 2-33.5-.3-10.9 1.1-21.9 1-33-.2-10.2.5-20.6.3-31-.2-3.6 0-7.4.5-11 .8-6.1 1-11.9 5.6-16.6 4.1-4.5 9.9-4.6 15-7.1 1.8-.8 4.6-1 6.1-2.1.3-.2.7-.5.8-.8 1.3-2 2.1-4.1 2.3-6.4-1-.3-2.1.7-3 1.3-1.5 1-2.8 2.1-4.3 3.1-1.3.5-2.8.8-4.3.7-1-4.1-2.3-8.2-3.8-12.4-.8-2-1.5-4-2.3-5.9-.3-1.3-1.5-3-2.3-.8s-2.3 4.3-1.5 6.4c.7 2 2.3 3.5 3.1 5.4.8 1.8 2.6 5.6 2 7.8-.5 1.6-3.8 2.3-5.3 3.1-2.6 1.5-4.9 3.1-7.1 5.3-2.6 3-3.1 7.3-4 11-1.2 4.3-1.8 8.7-2 13.2.2 4.3.3 8.4.2 12.7-.3 8.2-1 16.5-1.6 24.7-.3 3.5.2 7.1 0 10.5-.2 4.3-.3 8.6-.3 12.9-.7 17.3-.3 35-2.5 52.3-3.3 29-13.5 56.9-25.4 83.6-3.3 7.6-7.6 15.7-15.2 18.6-8.1 3.1-17.5-.7-23.2-6.9-5.7-6.2-9-14.5-12-22.6"/>
  <path fill="#f5c9a8" d="M137.4 686.5c.5-13.8-.2-27.9.7-41.9.8-17.2 2.5-34.3.5-51.4-1-8.9-4.3-18-13.5-21.1-9.7-3.3-22.1 9.2-26.4 16.3-5.8 9.7-6.6 24.9.2 34.5 6.9 9.7 12.2 20.4 15.8 31.8 1.3 4 2.5 7.9 3.5 12 1.3 6.9 2.1 14 2.5 21.1l3.5 50.8c-3.3 0-6.1 2.6-6.4 5.9 0 .8 7.4 0 8.1-.2 3.9-.7 6.1-1.2 6.6-5.4 2.1-16 4.1-32 4.9-48.1-.2-1.6-.1-3 0-4.3m107.8-44.7c-6.1-7.6-11.4-15.7-13.9-25.2-1.3-4.9-2-10.2-1.8-15.3.2-13.3 5.6-27.4 13-38.1 6.9-10.2 20.8-10.7 31.8-9.2 8.4 1.2 16.8 3.1 24.1 7.4 7.3 4.3 13 11.5 14.2 20 1.2 8.4-2.6 16.8-6.3 24.6-3.5 7.7-7.1 15.3-10.7 22.9-4.3 9.1-8.6 19.8-4.1 28.8 4.1 8.2 14.7 12.7 16.2 21.8.3 2.1.3 4.3 0 6.4-1.8 18.8-3.5 37.8-5.3 56.5-.2 1.5 0 4.1-2 4.1-3.1 0-8.1 1.2-11.2.3-2.1-.7-3.5-2.5-.8-4.5 1.2-1 4.8-1.3 5.6-2.3 1.1-1.3.2-7.1.2-8.9 0-5.8-.3-11.5-1-17.3-.3-4.5-1.2-8.9-2.6-13.2-2.3-5.3-5.4-10.2-9.2-14.5-11.8-14.9-24.2-29.4-36.2-44.3"/>
  <path fill="#ffe2bf" d="M89.6 595.4c-3.8-20.6-3-41.7-1-62.7.2-2.3.5-4.5.7-6.8 2-19 18.1-26.4 37.8-20.8 5.8 1.6 11.2 3.6 16.7 5.9 13 5.4 25.6 11.4 39.4 13.9 15.2 2.6 32-.5 47.5-1.3 9.2-.7 18.5-.8 27.7-.3 7.9.7 15.7 2 23.2 3.6 19.6 4.1 40.2 9.7 53.7 23.6 4.6 4.5 7.9 10.1 9.6 16.2 3.6 15.8-4 31.3-18.1 40.1-8.2 5.3-17.6 8.2-27.4 8.6-11 .2-21.6-3.8-32.5-5.3-8.6-.8-17.1-.8-25.7.2-19.3 1.8-38.4 5.6-57 11.4-14.2 4.3-28 9.7-42.7 11.2-14.7 1.5-31-1.6-40.7-12-6.8-7.1-9.6-16.5-11.2-25.5"/>
  <path fill="#ffe2bf" d="M275 649.8c-6.1-7.4-11.4-15.7-14-25.1-1.3-4.9-2-10.2-1.8-15.3.2-13.3 5.6-27.4 13-38.1 6.9-10.2 20.8-10.7 31.8-9.2 8.4 1.2 16.8 3.1 24.1 7.4 7.3 4.3 13 11.5 14.2 20s-2.6 16.8-6.3 24.6L325.3 637c-4.3 9.1-8.6 19.8-4.1 28.8 4.1 8.2 14.7 12.7 16.2 21.8.3 2.1.3 4.3 0 6.4l-5.3 56.5c-.2 1.5 0 4.1-2 4.1-4 .2-7.9.3-11.9.8-4.6.5-2.8-4.5.2-5.8 1.8-.8 3.5.2 5.1-.3-1.6-9.4-1-18.6-1-28s-.8-19.3-6.1-27.2c-2.6-3.8-5.8-7.1-9.2-10.1-6.1-5.6-13-10.9-18.5-17-4.8-5.4-9.1-11.5-13.7-17.2m-118.7 46.9c.2-7.3 0-14.3-.2-21.3-1.3-24.1 3.6-48 .8-72-1-8.9-4.3-18-13.5-21.1-7.1-2.5-18 2.5-23.6 6.9-6.1 4.8-10.6 11.5-12.4 19.1-1.8 7.8-.8 19 4.4 25.2 5.9 6.8 13.5 11.4 18.3 19.3 4.8 7.8 6.9 17 8.6 26 3.6 20.6 4.9 41.5 6.1 62.3 0 .3 0 .5-.2.8s-.7.5-1 .7c-3 1.2-4.9 4-5.3 7.1 0 .3 0 .7.2 1 .5.5 13 .8 13.4-1.8 2.4-17.2 3.9-34.7 4.4-52.2"/>
  <path fill="#ff6a66" d="M93.5 525.1c-.8-.3-1.5-1-2-1.8-3.1-2.6-3.8-5.9-3.3-9.7 0-1 .3-2.1 1.2-2.8.8-.7 2.3-.5 3.3-.8 1.2-.5 2.5-1 3.8-1.3 2-.7 4-1.6 5.8-2.6 3.8-1.8 7.9-2.1 11.9-3.3 5.6-1.6 11.7-.5 17.3.5 1.6.3 4.1 0 5.3 1.3 1.3 1.8 1.8 4 1.8 6.1.3 4.8-3 8.9-6.8 11.5-2.8 2-5.9 3.6-9.2 4.6-3.8 1.3-7.7 2-11.7 2.1-5.1.5-10.4-.3-15-2.6-.9-.5-1.8-.8-2.4-1.2"/>
  <path fill="#ffe2bf" d="M98.4 463.3c14.5-2.8 41.5-1.5 43.5 21.6.3 4.9-1.5 9.9-3 14.3-2 6.1-5.3 11.5-9.9 16-4 3.5-8.2 6.3-12.9 8.4-4.3 2.1-9.4 2.5-14 1-6.6-2.3-11.5-10.4-14.8-16.2-3.5-5.9-2.6-11.9-3.3-18.5-.7-5.4-2.1-11-.2-16.5 2.4-6.1 8.9-9 14.6-10.1"/>
  <path fill="#f5c9a8" d="M129.9 476.5c-.2-3.5.3-6.8 1.5-9.9 3.8-8.2 11.7-4.1 16.8-.7.8.5 1.5 1 2.3 1.6l.2.2c1.6 1.3 3 2.8 3.8 4.6 1.1 3.1 1.1 6.6.2 9.9-.2.8-.5 1.6-.7 2.5-1.6 7.1-4.6 13.9-8.6 20.1-.5.8-1.3 1.6-2.1 1.6-.5-.2-1-.2-1.3-.5-4.6-2.5-7.9-7.4-9.7-12.7-1.7-5.3-2.4-10.9-2.4-16.7m-57 6.1c-1.3-7.9-1.3-17.1 2-22.3 3.6-5.8 15.8-5.8 19.3.7.8 1.8 1 3.8.7 5.8-.2 1-.3 2-.5 3.1s-.5 2.1-.8 3.3c-.3 1.3-.8 2.6-1.3 4 0 .2-.2.5-.2.7-2.1 5.6-4.8 11.2-7.1 16.3-.2.2-.2.5-.3.7-.2.5-.5.8-.7 1.3-.3.7-.8 1.3-1.5 1.6-.5.2-.8.3-1.3.3-1 0-1.8-.3-2.6-1-1.2-1-2-2.3-2.5-3.6-1.3-2.8-2.1-5.9-2.8-9.1-.3-.7-.3-1.3-.4-1.8"/>
  <path fill="#ffe2bf" d="M326.9 568.8c-2-4.6-2.1-8.7 1.6-11 8.1-4.8 13.7 6.3 17 15.7 1.3 4 2.3 7.6 3 9.7 1.5 4.9 2.6 9.7 4 14.7l3 11.4c1 3.5 2 6.9 3.1 10.4 4 11.9 9.6 23.6 18.6 32.3-8.9-1.5-15-9.6-19-17.5-2.5-5.3-4.8-10.5-6.6-16-1.3-4.1-2.8-8.2-4.3-12.4-1.5-4-3-7.9-4.8-11.7-.3-1-.8-1.8-1.3-2.8s-1-1.8-1.5-2.8c-2.1-4-9.7-12.7-12.8-20"/>
  <path fill="#3e3839" d="M117.1 479.8c-2.3 1.6-1.8 4.6-1.2 6.9 1.2 4.8 4.9 10.2 10.6 7.8 1-.3 1.8-1.1 2.1-2.1.5-.8.8-1.6 1-2.6.5-5.3-3.8-12.9-9.9-10.7-1 0-1.8.3-2.6.7"/>
  <path fill="#312b2c" d="m119.4 483.4-.5.5c-.2.5-.5 1-.5 1.5-.2.7.2 1.3.5 2 1 1.6 3.1 2 4.8 1 .7-.7.8-1.6.5-2.6-.2-.5-.3-.8-.7-1.1 0-.3-.2-.5-.3-.7-1-1.1-2.7-1.2-3.8-.6m-24.6-1.1c-.7 1.3-.5 3 .5 4.3 1.2 1 2.8 1.1 4.1.5l.2-.2c1.3-1.2 1.5-3 .3-4.3-.3-.5-.7-.7-1.2-1-1.3-.7-2.9-.5-3.9.7"/>
  <path fill="#3e3839" d="M145.4 582.8c-1.5 1.3-2.1 3.3-1.8 5.1 0 .2.2.3.3.5 0 1.3.2 2.6.3 4 .3 2.1 4.6 2.1 5.8.8 2.6-2.6 3.6-6.4 2.6-10.1 0-.2 0-.3-.2-.5 0-.2-.2-.2-.2-.3-1-1-2.5-1.5-3.8-1.2-.8.2-1.5.7-2.1 1.2l-.9.5m.5-34.1c0 .2.2.2.3.2 0 .3 0 .8-.2 1.3s.5 1 .8 1.2c.7.3 1.3.5 2.1.5.7 0 1.5-.2 2.1-.5.3-.2.7-.7.8-1.2.3-1.2 0-2.3-.5-3.3-.7-1.2-2.6-1.3-3.8-1.2-.7.2-1.3.3-1.8.8-.3.3-.5.8-.3 1.3.3.4.3.6.5.9m65.3-2.5c-1.8 2.3-2.5 5.4-2 8.1.3 1.3 2.8 1.3 3.8 1.2h.5c1.1 0 2.3-.3 3.1-1 2.3-1.2 3.8-3.5 3.8-6.1.3-1 .3-2.1-.2-3.1-.8-1.7-3.3-2-4.9-1.7s-3.1 1.3-4.1 2.6m30-1.4c-.8.3-2 1.2-1.8 2.1v1c.2.8.3 1.5.8 2.1.3 1.3 1.1 2.5 2.1 3.3 1.3 1 5.4 1.5 5.8-.8.3-1.7 0-3.5-1-5 0-.5-.3-1-.8-1.2-.2-.3-.7-.7-1-1-1.2-.9-2.6-1-4.1-.5m58.7 40.2c-1.6 3.5-2.1 7.4-1.6 11.4.5 2 4.6 2.1 5.8.8.5-.7 1-1.3 1.5-2.1 2.3-1.3 1.8-5.6 1.5-8.1-.2-1.5-.7-2.8-2.3-3.1h-1.1c-1.7-.2-3.3.1-3.8 1.1m7.9 71.9c-.8 0-3.5.3-3 1.5l1.3 5.9c.3 2.3 4.9 2.3 5.9.5 1.1-2.3.8-5.1-1-7.1-.5-.3-1.1-.7-1.8-.7-.4-.1-.9-.1-1.4-.1m-34.5-32.2c-.2 2.5.5 4.8 2 6.8 1 1.5 5.6 2 5.9-.5.5-2.8-.3-5.8-2.1-7.9-1.3-1.5-6.4-.7-5.6 1.3-.2 0-.2.2-.2.3m52.4-67.7c-2.6 2.5.2 5.9 1.8 8.2 1 1.5 2.8 2.3 4.6 2.1 1.6 0 3.6-.8 4-2.6.3-2-1.2-4.3-2.6-6.1 0-1.2-1-2-2.3-2.3-1.1-.7-2.5-.8-3.8-.3-.5.2-.8.3-1.1.7-.2-.1-.4.1-.6.3m-47.4-3.5c-.5 2.5 0 5.1 2.8 5.6 5.6.8 8.2-6.3 6.8-10.5-.2-.5-.5-.8-1-1-.3-.2-.5-.3-.8-.5-1.3-.5-3-.2-4.1.7-1.9 1.4-3.2 3.4-3.7 5.7m22.6-10.9c-1 0-3.1.3-3.1 1.7s2.1 1.7 3.1 1.7 3.1-.3 3.1-1.7-2.2-1.7-3.1-1.7m-30-8.4c-1 0-3.1.3-3.1 1.7s2.1 1.7 3.1 1.7 3.1-.3 3.1-1.7-2.2-1.7-3.1-1.7m-25.8 50c-.2.2-.3.2-.3.5-2.3 1.5-3 4.6-1.5 7.1 1.5 1.5 4 1.7 5.6.3 2.1-1.6 3-4.3 2.5-6.9-.3-1.3-2-1.7-3.1-1.7-.7 0-1.3.2-2 .3-.5 0-.8.2-1.2.4m-72.7-54.3c-1 0-3 .3-3.1 1.7-.2.5.5 1 .8 1.2.7.3 1.3.5 2.1.5h.5c1.1 0 3-.3 3.1-1.7.2-.5-.5-1-.8-1.2-.7-.3-1.3-.5-2.1-.5h-.5m22 62.8c-.8 0-3.1.3-3.1 1.7s2.1 1.7 3.1 1.7 3.1-.3 3.1-1.7-2.2-1.7-3.1-1.7M136.6 645c-1 3.3.3 6.8 3.1 8.6 1.5 1 4.9.8 5.3-1.2.7-3-.3-5.9-2.5-8.1-1.1-.8-2.8-1-4.1-.5-.8 0-1.4.5-1.8 1.2m-19.7-25.1c-.5.2-.8.7-.8 1.2v1c0 .5.3 1 .8 1.2.7.3 1.3.5 2.1.5.7 0 1.5-.2 2.1-.5.3-.2.8-.7.8-1.2v-1c0-.5-.3-1-.8-1.2-.7-.3-1.3-.5-2.1-.5-.7 0-1.5.2-2.1.5m-18.3-49.3c-2.3 2.5-2.3 6.3-.2 8.6 1.3 1.5 4.6 1 5.6-.3 1.7-2.5 2.1-5.6 1.3-8.4-.5-1.5-3.8-1.7-5.3-.7-.4.2-.9.5-1.4.8m19.6-16.3c-.5.2-.8.7-.8 1.2v.5c0 .5.3 1 .8 1.2.7.3 1.3.5 2.1.5.7 0 1.5-.2 2.1-.5.3-.2.8-.7.8-1.2v-.5c0-.5-.3-1-.8-1.2-.7-.3-1.3-.5-2.1-.5-.6 0-1.5.2-2.1.5m8.2 28.2c-.8 0-3.1.3-3.1 1.7s2.1 1.7 3.1 1.7 3.1-.3 3.1-1.7-2.1-1.7-3.1-1.7m44.7-19.9c-2 1.7-3.1 4.3-2.6 7.1.2 2.5.3 5.4 3.1 6.3 1.5.3 3.1.2 4.4-.5 4.1-.8 6.9-4.6 6.6-8.7-.3-5.9-7.4-7.4-11.5-4.2m0-15.2c-.5.7-.3 1.5 0 2 .5.5 1.3.8 2 .8.8.2 1.6 0 2.5-.2 1-.3 1.8-1 1.8-2-.2-.5-.3-1-.5-1.3v-.2c.2-.5-.5-1-.8-1.2-.7-.3-1.3-.5-2.1-.5-.7 0-1.5.2-2.1.5-.3.2-.7.7-.8 1.2-.2.4-.2.7 0 .9m35.9 28c-1 0-3 .3-3.1 1.7-.2.5.5 1 .8 1.2.7.3 1.3.5 2.1.5h.5c1.1 0 3-.3 3.1-1.7.2-.5-.5-1-.8-1.2-.7-.3-1.3-.5-2.1-.5h-.5m120.5 130.8c-1 0-3.1.3-3.1 1.7s2.1 1.7 3.1 1.7 3.1-.3 3.1-1.7-2.1-1.7-3.1-1.7m-11-92.7c-2.6 1.3-4.3 4-4.1 6.9.2 2 4.1 2 5.3 1.2 1.8-1.2 3.3-3 4-5.1 0-.3 0-.7-.2-1 .3-.7.2-1.5-.7-2-1.3-.7-3-.7-4.3 0M150.3 473.1c-.3-1.8-.3-3.8.3-5.8l.2.2c1.6 1.3 3 2.8 3.8 4.6 1.1 3.1 1.1 6.6.2 9.9-2.7-1.7-4.2-5.8-4.5-8.9m-6.4 11.8c-.5.3-.5.8-.3 1.3l.3.7c.3.5.8.8 1.5 1s1.5.3 2.3.2c.7-.2 1.3-.3 1.8-.8.3-.3.5-.8.3-1.3l-.3-.7c-.3-.5-.8-.8-1.5-1s-1.5-.3-2.3-.2c-.7.2-1.3.3-1.8.8m-5.6-10.7c-.3.8-.3 1.6 0 2.3.2.5 1 .8 1.5 1 .7.2 1.5.3 2.3.2 1.3-.2 2.5-.8 3.3-2 .5-.8.5-1.8.2-2.6-.3-.5-1-.8-1.5-1-.7-.2-1.5-.3-2.3-.2-.2.2-.3.2-.5.2-.3 0-.8.2-1.1.3-.9.5-1.6 1-1.9 1.8m-65.5 8.3c2-2 6.1-1.3 8.1 1 1.5 1.8 3.3 5.3 2.5 7.4.7 1 1 2.1 1.5 3.1-.2.2-.2.5-.3.7-.2.5-.5.8-.7 1.3-.3.7-.8 1.3-1.5 1.6-.5.2-.8.3-1.3.3-1 0-1.8-.3-2.6-1-1.2-1-2-2.3-2.5-3.6-1.3-2.8-2.1-5.9-2.8-9.1-.2-.4-.2-1.1-.4-1.7m1.3-9.9c-.3 1.2 0 2.3.7 3.3 1.3 1 3.3 1.1 4.8.3 1.2-.7 1.8-1.8 2-3 .2-1.2-.3-2.3-1.2-3s-1.8-1-3-.8c-.7 0-2.1.3-2.5 1.1-.2.3-.3.7-.3 1l-.5 1.1m9.8-15c-.8 0-3.1.3-3.1 1.6s2.1 1.6 3.1 1.6 3.1-.3 3.1-1.6-2.1-1.6-3.1-1.6m5.7 18.4c-.7-1.1-1.5-3.1-1-4.5.2-.3.3-.5.5-.7.2-.8 1.7-1.5 2.3-1.5.8 0 1.8 0 2.6.3-.2 1.2-.5 2.1-.8 3.3-.3 1.3-.8 2.6-1.3 4 0 .2-.2.5-.2.7-.7-.2-1.3-.5-1.8-1.1.1-.1-.1-.1-.3-.5m37.4 23.2c-.7.5-1.2 1.2-1.5 2 0 .7.5 1.3 1.2 1.5 1.2.5 2.6.5 3.6-.3.5-.3.8-1 1-1.6.2-.2.2-.5 0-.7l-.2-.3c-.2-.3-.3-.5-.7-.5-.2 0-.2-.2-.3-.2-.9-.5-2.1-.3-3.1.1m-26.8-30.8v.7c.3.5.8 1 1.3 1.1.2 0 .3.2.5.2.3 0 .7 0 1-.2.2 0 .3-.2.3-.3.2-.3-.2-.7-.3-1l-.2-.2v-.2c-.3-.3-.7-.7-1.2-.8s-1-.2-1.3 0c-.1.2-.3.6-.1.7m17.9-2.8c-.5.2-1.5.7-1 1.1.3.3.8.3 1.2.2s.5-.5.5-.8c.1-.1.2-.2.2-.3-.2-.2-.7-.2-.9-.2m-41.8-2.1c-.8.5-1.2 1.3-.7 2.3.2.3 1 .2 1.2 0 .5-.5.7-1.1.7-1.8l-.2-.2c.1-.3-.7-.5-1-.3m245.1 123.9c-1.6 2-2 7.6 1.6 7.6 3.1 0 5.1-5.4 2.8-7.6-.2-.2-.3-.2-.5-.3-1.1-1-2.9-.8-3.9.3m-2.6-7.9c-.8 1-1.1 2.1-1.1 3.5.2.8 1.6.8 2.3.7.5-.2 1-.3 1.3-.7.7-.3 1.1-.8 1.5-1.3.7-.8.7-2.1-.2-2.8-1.2-.9-2.8-.5-3.8.6M92.7 537.7c-.2 1.8 1 4.3 2.8 4.5h.5c1-.2 1.6-1 1.5-2 0-1-.3-1.8-.8-2.6-.3-.7-1.2-.8-1.8-.7-.5 0-.8 0-1.3.2-.5-.1-.9.2-.9.6"/>
  <path d="M121.7 520.2c-.7.7.2 1.7.5 2.1 0 0 0 .2.2.2.2.5.3 1 .7 1.5.2.7.7 1.2 1.2 1.7-.2 0 0 .2 0 .2.2.3.5.3.8.3h.5c.3-.2.5-.2.7-.2.8 0 1.7-.3 2.5-.7.8-.2 1.6-.7 2.3-1.2 1.5-.8 2.5-1.7 2.1-3-.3-1-.5-2-1-3l-1-2.5c-.3-.5-.7-1.8-1.5-1.3l-2 1.5c-.7.5-1.3 1.2-2 1.7-1.2 1.2-2.9 1.9-4 2.7m7.2-3.2c1 1.3 1.6 2.8 2 4.3-1.8 1.3-3.6 2.3-5.6 3l-1-1.8c-.7-.7-.7-1.8-.3-2.6 1.5-1.2 3.3-2.2 4.9-2.9"/>
  <path d="M129.3 519.5c-.8-.2-1.5.3-1.8 1.2 0 .3.7.3.8.3.7 0 1-.3 1.3-.8.1-.1.2-.2.2-.3 0-.2-.4-.4-.5-.4m4.1-4.5c-.2 0-.3.2-.5.3-.2.3.2.8.5.8.5.2.8.2 1.1-.2 0 0 .2 0 .2-.2.2 0 .2-.2.2-.2 0-.2 0-.5-.3-.7s-.9.1-1.2.2m1.8-3.9c0 .3.2.7.5.7.3.2.8.2 1.1-.2.2-.2.2-.3 0-.5v-.2c0-.3-.7-.3-.8-.3-.3 0-.6.2-.8.5"/>
  <path fill="#3e3839" d="M97.9 514.2c-.2-.2-.7 0-.8.2 1 1.3 2.3 2.3 3.8 2.6.7.2 1.3.2 2 .2 1.2 0 2.5.2 3.6.5 2.8 1 5.8 0 7.6-2.1.2-.2-.3-.3-.5-.2-.8 1.2-2.2 2-3.6 2.3-1.5.2-3-.2-4.3-.7-.2-.2-.3-.2-.5-.2-.2-2.5-.2-5 .3-7.4 1.5.2 2.8.2 4.3.2.8 0 1.5-.2 2.1-.3 1.7-.5 3-2 2-3.8-1.2-1.5-2.8-2.3-4.6-2.5-.7-.2-1.5-.2-2.1-.2-2-.5-4-.3-5.8.5-1.5.5-2.6 1.3-2.5 2.5.2.8.7 1.6 1.5 2.1 1.5.8 3 1.3 4.6 1.5-.3 2.5-.5 5-.3 7.4h-2.1c-1.9-.3-3.7-1.2-4.7-2.6"/>
  <path fill="#fda17b" d="M202.8 363.1c-1 1.3-3.3 1-4.3-.3-1-1.6-.3-3.5.3-5 .3-1 .5-2 .7-3 0-.8.2-1.6.3-2.5.3-.8 1-1.5 1.8-1.5.3 0 .6.2.8.3s.3.3.3.5c.8 2.3 1.3 4.6 1.1 6.9-.2 1-.5 1.8-.7 2.8 0 .8 0 1.3-.3 1.8"/>
  <path fill="#fda17b" d="M194.2 363.7c-.3-.2-.8-.2-1.3-.7-1-.5-1.5-1.6-1.3-2.8.3-.8.8-1.5 1.5-2 1-1 1.6-2.3 2.1-3.6.5-1.1.5-2.5 1.6-3.1.7-.5 1.6-.3 2.3.3.3.3.5.8.5 1.1.2 1.5 0 3-.2 4.5-.2 1.3-.5 2.6-1.1 3.8-.5.8-1.3 1.6-2.3 2.1-.6.4-1.1.4-1.8.4m13.7-7.9c-.3-1.6-2.1-4.3-3.8-2.5-.5.5-.3 1.5-.3 2.1 0 1.1-.3 2.3-.7 3.5-.2.7-.3 1.5-.3 2.1s.3 1.3 1 1.8c.5.3 1.1.5 1.8.2.5-.2 1-.7 1.3-1.1 1.1-1.8 1.5-3.9 1-6.1"/>
  <path fill="#fda17b" d="M188.8 361.3c-.2-.5-.2-1 0-1.6.7-2.1 1.6-5.5 4.4-5.6.3 0 .8.2 1 .5v.3c.3 2.1-.3 4.1-1.5 5.9-.7.8-3 2.5-3.8.8-.1.1-.1-.2-.1-.3"/>
  <path fill="#3e3839" d="M412.9 526.1c-2.3-20.9-5.1-41.9-7.8-63-4.3-28.4-12.7-58.2-11.5-87 .2-1.6 0-3.3-.5-4.8s-2-2.6-3.6-2.6c-4.9.3-1.6 19-1.1 22.3 0 3.8 1.3 8.1 1.8 11.9l2 12.9c1.6 10.9 3 21.8 5 32.6 5.9 32.8 10.4 65.6 9.4 98.9 0 3.1-.2 6.3-.3 9.4-1.3 24.9-4 49.5-8.1 74-.7 5.1-2 10-4.1 14.7-2 4.1-5.4 7.4-9.6 9.1-2 1.3-4.5 1.8-6.8 1.8-2.5-.3-4.6-1.8-5.8-4-1.3-2.1-2.1-4.5-2.5-6.8-1.6-7.6-2.1-15.2-1.5-22.9.8-7.2 1.2-14.5 3.3-21.8.8-3 1.8-5.9 3-8.7 1.1-2.3 1.8-4.8 1.8-7.4-.3-3.3-3.8-6.8-6.9-4.5s-4.1 13.7-4.8 17.3c-2 11.7-2.8 23.7-2.5 35.6 0 8.1.5 16.3 4.8 23.1 13.2 20.8 31.8-2 37.6-15.7 15.2-35.6 13.1-76 8.7-114.4"/>
  <path fill="#785c4d" d="M439.2 710.6c-2.5-4.9-4.6-10.2-6.3-15.7-2.5-6.8-4.3-13.8-6.1-20.9-3.3-13.5-6.3-27.5-11.9-40.4-3.1-6.9-8.1-13.7-16.5-14-9.1-.3-16.2 13-18.3 20.4-3.3 11.5 5.1 25.4 12 34 9.7 12 22.1 21.3 30.8 34.5 5 7.1 8.6 15 11 23.2 1.2 4.1 2 8.2 2.3 12.5.5 5.4-1.6 6.4-4.8 10.5-.7.8-1.3 1.8-1.6 3-2.3 7.4 14 6.3 16.6 1.3.5-1.2.6-2.3.5-3.6-.5-8.7-1-17.3-1.6-26 0-5.4-1.5-10.5-4.3-15.2-.5-1.1-1.2-2.5-1.8-3.6m103-36.7c-5.3-6.6-10-13.3-11.7-21.4-1.2-4.3-1.6-8.7-1.5-13.2.2-11.5 4.8-23.6 11.2-33 6.1-8.7 18-9.2 27.5-7.9 7.2 1 14.5 2.6 20.8 6.4s11.4 10.1 12.4 17.3c1 7.4-2.3 14.5-5.4 21.3l-9.4 19.8c-3.8 7.9-7.6 17.3-3.6 25.1 3.6 7.1 12.7 11 14 18.8.3 1.8.3 3.8 0 5.6-1.7 16.3-3.1 32.6-4.6 49-.2 1.2 0 3.5-1.7 3.5-3.3 0-16.2 2.5-16.7-2.5-.5-5.4 4.8-5.6 8.1-7.1 3-1.5 2.1-4.1 2.1-7.4 0-3 .2-6.1.2-9.1 0-6.8.2-13.5-1.5-20-2.3-8.9-8.4-14.5-15.3-20-7.9-6.3-15.2-13.2-21.4-20.9-1.2-1.6-2.3-2.9-3.5-4.3"/>
  <path fill="#906e5c" d="M371.5 591.9c-.7 1.2-1.5 2.2-3.1 2.6.5-3 1.5-5.9 2.3-8.9 1.3-3.8 2.1-7.9 2.8-11.9.5-5 2.5-9.6 5.6-13.2 6.9-7.4 18.1-7.6 27.2-5 4.6 1.5 9.2 3.1 13.7 5 2.1 1 4.5 1.8 6.6 2.8 6.4 2.5 13.2 3.6 20.1 3.3-.5 1.3-1.5 2.6-2.5 3.6 4.5.5 8.9.8 13.4 1.3.3 0 .7.2.8.3.3.5-.5 1.2-1 1.2s-1.3 0-1.6.5c.3-.3 8.1-.3 9.2-.3 3 .2 6.1.3 9.1.2l5.9-.5c5.3-.5 10.7-1 16-1.3 8.1-.7 16-.8 24.1-.3 6.8.7 13.5 1.7 20.1 3.1 9.4 1.7 18.5 4.5 27.4 7.9 7.1 3 13.7 7.1 19.1 12.5 4 3.8 6.8 8.7 8.2 14 3.1 13.5-3.5 27-15.8 34.6-6.9 4.6-15.2 7.1-23.6 7.4-9.6 0-18.6-3.3-28-4.6-7.4-.8-14.8-.7-22.3.2-16.8 1.7-33.3 4.9-49.5 9.9-12.2 3.8-24.1 8.4-36.9 9.7s-26.9-1.5-35.3-10.4c-5.4-5.6-8.7-14.2-9.9-21.9 0-.5-.2-.8-.2-1.3-.3 1.3-.7 2.8-1 4.1-.7-9.2-1.5-18.3-2.1-27.5-.5 1-.8 2-1.3 3-.5-6.6.3-13.5 2.5-20.1"/>
  <path fill="#906e5c" d="M514 649.3c-.8 1-1.5 2-2 3 .3-6.9 3.1-13 4.8-19.6 1.8-6.6 4.8-13 8.9-18.6 5.9-8.7 18-9.2 27.5-7.9 7.2 1 14.5 2.6 20.8 6.4s11.4 10.1 12.4 17.3c1 7.4-2.3 14.5-5.4 21.3l-9.4 19.8c-3.6 7.9-7.4 17.3-3.5 25.1 3.6 7.1 12.7 11 14 18.8.3 1.8.3 3.8 0 5.6-1.7 16.3-3.1 32.6-4.6 49-.2 1.2 0 3.5-1.7 3.5-3.1 0-15 1.8-16.7 0-.3-.5-1-.8-1.3-.3.5-2.5 2.3-4.3 4.6-5s4.6-.8 6.9-.5c-.2-6.1-.5-12.4-.8-18.6-.2-5-.5-10.1-.7-15.2-.2-4.5-.5-9.2-2.8-13.2-2.3-3.8-5.9-6.3-9.4-8.9-3.1-2.5-6.1-5.1-8.7-8.1-2.1-2.1-4-4.3-5.9-6.4-3.6-4.1-8.4-7.3-12-11.4-.5-.7-1.3-1.5-2-2.3-1.8-1.8-3.1-4.1-4.1-6.6.2 1.2.5 2.5.8 3.6-3.8-4.6-6.4-10.1-7.6-16-.5 1.2-.8 2.3-.8 3.5-1.9-6-2.4-12.2-1.3-18.3M382 752.6c-1.2 6.1 10.7 3.1 13.4.2 1.6-2 2.8-4.1 3.6-6.6 2.3-4.5 5.9-8.1 10.4-10.4 4-2.1 5.9-5.6 7.2-10.2 1.3-5.1 1.6-10.9 2.5-15.8 3.5-21.4 12-41.7 13.9-63.3.7-7.8-.5-16-7.8-20.3-5.8-3.5-15.7-1-21.3 1.7-14 6.6-20.3 23.4-13.9 37.6 2.5 5.9 7.8 10.2 10.5 16 3.6 6.9 2.6 15 2.5 22.8-.3 6.9-.7 14.3-4.8 20-1.5 2.1-3.5 3.8-5.3 5.8-2 2.1-3.5 4.6-4.6 7.2-.8 2.5-.5 5.3-1.5 7.8-.8 2.5-3.1 3.6-4.3 5.9-.2.5-.4 1-.5 1.6"/>
  <path fill="#64b4ff" d="M373.1 583.3c-.8-.7-1.5-1.3-1.8-2.5-1.1-3.1-.8-6.6.7-9.6 2-4 4.5-7.6 7.4-10.7 4.5-4.8 10.9-6.6 17.3-6.4 3.1.2 6.3.7 9.4 1.5 3.5.8 7.6 0 11.2.5 1 .2 2 .5 3 1 2.3 1.5.7 5.3-.2 7.2-4.6 10.2-12.2 18.6-23.7 20.8-3.5.7-7.1.3-10.5.7-2.8.5-5.8.3-8.6-.5-1.6-.3-2.9-1-4.2-2"/>
  <path fill="#785c4d" d="M354.4 539.3c.8-1 1.6-1.8 2.6-2.6.2 1.8.5 3.6 1 5.3 3-3.6 5.3-7.4 7.4-11.5 1.5-3.1 3.8-5.6 5.8-8.7 2.6-4.3 5.3-11.4-2.1-12.2-6.6-.8-15.2 9.6-18.3 14.5-4.5 7.2-6.1 15-9.2 22.8l4.6-5.3c.6 2.1.8 4.5.5 6.6 2.5-3.3 4.9-6.1 7.7-8.9"/>
  <path fill="#906e5c" d="M368.5 579.5c-2.6.3-5.3-.7-6.9-2.6s-2.6-4.5-2.8-7.1c-.3-3.6-.3-7.3 0-10.7.7-3 .8-5.8 1-8.7-.2-3.3-.7-6.4-.8-9.7-.3-11.5 6.3-24.9 18.3-27.4 2.6-.3 5.1-.5 7.8-.3-.2-.5-.5-.8-.8-1.1l8.4.7c-.3-.7-1-1.3-1.5-2 13.5 4 31.6 7.1 33.3 24.4.7 5.9-1.5 12.2-3.8 17.6.8 0 1.8.2 1.8 1 0 .7-1 1-1.5 1.3s-1.1 1-.8 1.7 1.6.5 2 1.2c.7 1.3-7.9 4.3-9.1 5 .3.5.8.8 1.5 1 .5.3 1 .8.8 1.5-.2.3-.5.7-1 .7s-.8-.2-1.3-.2c-1.2-.2-2.1.2-3 .8l1 2.6c-3.3-.3-6.9-.5-9.7 1.3-2.5 1.5-5.1 2.6-7.4 4.3-2.8 2.2-5.8 3.6-9.1 4.6-5.9 1.7-17.1 3.6-21.9-1.8-.8-.8-1.3-1.8-1.8-3-1.3-2.6-2.1-5.4-2.5-8.4v-4.5l9.8 17.8z"/>
  <path fill="#785c4d" d="M426.7 521c-1.6-1.5-3.6-2.8-6.1-4.1-1.3-.8-2.8-1.3-4.3-1.5-6.4-.2-4 8.9-3.3 12.7 1 3.5 2.3 6.8 4.1 9.9.8 1.7 1.6 3.1 2.8 4.5.3.3 3.3 2.5 3.3 2.8v-3.8c4 3.8 7.9 7.8 13 9.4v-2.6c0-.2 0-.5.2-.7.3-.2.5-.2.8 0l6.8 2.3c0-1 0-2.1.2-3.1 1.6.8 3.3 1.5 5 2 .8.3 2.3.2 3 .7-10-7.7-16-20.3-25.5-28.5"/>
  <path fill="#906e5c" d="M530.8 566.3c-.2-3.6 1.5-6.9 4.3-9.1-3.6 2.5-7.9 4-12.2 4.8.3-5.4 1.8-10.7 4.1-15.7.3-.3.5-.8.8-1.2h-.2c7.4-11.4 24.1-15.5 36.1-9.2-2.8-1.7-4.9-4.1-6.3-7.1 7.4 1.6 14.8 4.1 21.8 7.2 6.9 3.5 13.2 8.6 16.5 15.5-2.1-4.6-4.1-9.2-6.3-13.8 7.3 4 12.2 10.2 16.5 17 3.1 5.1 7.6 15.3 5.8 21.6 1.5-4.3 2.5-8.9 3-13.5 5.8 14 6.9 29.5 3.1 44.3 3.6-5.3 6.4-10.9 8.2-17 2.8 6.4 3.3 13.8 1.2 20.6 0 .3 0 .5-.2.8-2.2 6.4-5.8 12.4-10.4 17.3-5.1 5.8-11.5 6.8-18.1 5.4-2.6-.7-5.3-1.3-7.9-2.3-.3 0-.7-.2-1-.3-1.3.2-2.8.3-4.1.2-5.4-.5-10.4-3.1-13.7-7.4-3.3-4.5-4.6-10.2-3.8-15.7.2-1.5.7-3 1.2-4.5.8-2 1.7-3.8 2.8-5.6 2-3.5 4.1-6.8 4.5-10.7v-.8c-.2-4.8-2.1-9.4-5.8-12.7-3.8-3.5-8.2-6.1-13-7.8-6.3-2.5-13.5-4.3-20-3.1-2.4.5-4.7 1.5-6.9 2.8"/>
  <path fill="#a58170" d="M479.9 573.1c5.4-.5 10.7-1 15.8-1.3 8.1-.7 16-.8 24.1-.3 6.8.7 13.5 1.7 20.1 3.1 9.4 1.7 18.5 4.5 27.4 7.9 1.8 1.6 2.8 4 3.1 6.3.3 3.6-1.7 6.9-3.6 10.1-3.5 5.4-7.1 11-13 13.3-3.5 1.2-7.2 1.5-10.9 1-9.6-1-18.5-5.3-25.4-11.9-5.4-5.1-10-12-17.5-13.3-2.3-.3-4.8-.2-7.2-.5-6.3-.9-12.9-7.7-12.9-14.4M546.8 703c.5-.2 1-.5 1.7-.7 4.8-1.3 9.7.5 12.7 4.5 1.2 2.1 2.1 4.3 3.1 6.6 3.5 6.8 11 11.7 11.2 19.3 0 2.5-.7 5.1-1.7 7.4-1.2 3.1-2.8 6.6-5.4 8.2-.2-5-.5-10.1-.7-15.2-.2-4.5-.5-9.2-2.8-13.2-2.3-3.8-5.9-6.3-9.4-8.9-3.1-2.4-6-5-8.7-8"/>
  <path fill="#312b2c" d="M364 569.1c-.3-.5-1.6-.2-1.3.5 4.1 4.6 10.9 5.4 16.6 3.5.8-.3-.2-.8-.7-.7-2.8.8-5.6 1.2-8.4.5-.2-2-.2-3.8 0-5.8.3.2.7.2 1 .2 2.1.2 5.6.3 6.8-2 0-.2.2-.3.2-.5.2-.2.2-.5.2-.8 0-1-.5-1.8-1.3-2.3l-.5-.5-.5-.5c-2.5-1.5-5.4-2-8.2-1.5s-4.8 3-2.6 5.4c1.2 1.2 2.5 2 4 2.3-.2 1.8-.2 3.8 0 5.6-2.2-.4-4-1.7-5.3-3.4m27.2-27.5c-1.1.3-2 1.5-1.8 2.8 0 1 .3 2 1 2.8.2.2.5.2.7.3 1.5.7 3.1 0 3.8-1.5l.5-.5s.2-.2.2-.3c.2-.3.2-.8.2-1.3.2-1-.2-1.8-.8-2.5-1.3-.8-2.8-.6-3.8.2m-23.7-2.9c-.7 1.2-.8 2.6-.3 4.1 0 .5.5.7.8.8s.7.2 1 .2c1.3 0 2.5-.8 3-2s.3-2.3-.3-3.3c-1.2-1.2-3.1-1-4.2.2"/>
  <path fill="#785c4d" d="M530.8 566.3c-.2-3.6 1.5-6.9 4.6-9.1-3.8 2.5-7.9 4-12.2 4.8.3-5.4 1.8-10.7 4.1-15.7.3-.3.5-.8.8-1.2h-.1c7.4-11.4 24.1-15.5 36.1-9.2-2.8-1.7-4.9-4.1-6.3-7.1 7.4 1.6 14.8 4.1 21.8 7.2 6.9 3.5 13.2 8.6 16.5 15.5-2.1-4.6-4.1-9.2-6.3-13.8 7.3 4 12.2 10.2 16.5 17 3.1 5.1 7.6 15.3 5.8 21.6 1.5-4.3 2.5-8.9 3-13.5 5.8 14 6.9 29.5 3.1 44.3 3.6-5.3 6.4-10.9 8.2-17 2.8 6.4 3.3 13.8 1.2 20.6 0 .3 0 .5-.2.8-1.2 2-2.5 4-4 5.8-3.3 4-7.1 7.6-11.2 10.5 2-7.2 2.1-14.8.2-22.1-2 4-4.5 7.4-7.6 10.4 3.3-8.4 4.1-17.8 2.3-26.7-1.8-8.9-5.1-17.5-9.7-25.2.3 5.1.5 10.4.8 15.5-4.6-12.9-13.2-23.7-24.7-31.2l4.3 10.9c-7.1-7.3-16.3-11.9-26.2-13.5 2.5 2.1 4.3 4.9 5.3 7.9-5.3-2.6-11.2-3.1-16.8-1.5 1.5 1.5 2.8 3.1 3.8 5.1-2.3 1.7-4.5 3.8-6.1 6.1-2.5.5-4.8 1.5-7 2.8m-162.2-33.5c-.2.2-.5.2-.2.5l.2.2c.7.8 1.5 1.5 2.3 2 .5.3 1.1.5 1.8.5.3 0 1.1 0 1-.5-.2 0-.2-.2-.2-.2 0-.3 0-.7-.2-.8-.7-.7-1.5-1.3-2.3-1.5-.7-.3-1.5-.5-2.1-.3-.1 0-.1.1-.3.1m26.7 4c-1-1.2-6.1-1-5.4 1 .5 1.8 4.1 1.8 5.1.5.5-.3.8-.8.3-1.5m.8-19.9c-.3-.3-1.6 0-1.1.3 1.8 1.5 3.8 2.8 5.9 3.8.5.2 1.6-.2 1-.5-2.1-1-4-2.3-5.8-3.6m-6.7 4.7c-.5-.2-1.5.5-.7.7l4.8 1.5c.5.2 1.5-.3.7-.7l-4.8-1.5m-14.7-2.6c-.3.2-.3.5 0 .7 1.5.7 3 1 4.5 1.2.2 0 .8 0 .8-.3s-.3-.5-.5-.5c-1.3-.2-2.6-.5-3.8-1-.3-.3-.7-.3-1-.1m1.8 84.7c-.5 4-.7 7.7-.7 11.7 0 .5 1.3.5 1.3 0 0-4 .2-7.7.7-11.7 0-.5-1.3-.5-1.3 0m4.5 26.6c-.2-.5-1.5-.5-1.3.2l1.8 7.4c.2.5 1.5.3 1.3-.2l-1.8-7.4m8.9-22.4c0-.7-1.3-.5-1.3 0 0 2.5.2 5 .2 7.4 0 .5 1.3.5 1.3 0-.1-2.5-.2-5-.2-7.4m-5.8-17c-.5 2.6-.8 5.4-.8 8.1 0 .5 1.3.5 1.3 0 0-2.6.3-5.4.8-8.1.2-.5-1.1-.5-1.3 0m78.1-5.8c-.8 0-.8.7 0 .8 3 0 5.9-.3 8.7-1 .8-.2.3-.8-.3-.7-2.7.6-5.6.9-8.4.9m-30.8-7.1c-.3-.2-1.6.2-1 .5 3 1.7 6.3 2.8 9.6 3.5.7.2 1.1-.5.3-.7-3.1-.6-6.1-1.8-8.9-3.3m-23.1 6c-.3-.3-1.6 0-1.1.3l6.8 5.4c.3.3 1.6 0 1.1-.3l-6.8-5.4m26.9 48.9c-.3-.3-1.5-.2-1.3.2l3.3 5.9c.3.5 1.6.3 1.3-.2l-3.3-5.9m-9.2 16.5c0-.5-1.3-.5-1.3 0v5.4c0 .5 1.3.5 1.3 0v-5.4m-7.6 1.8c-.2-.5-1.5-.5-1.3 0l1 5.1c.2.5 1.5.5 1.3 0l-1-5.1m-9.7-29.1c-.2-.7-1.5-.5-1.3 0l1 6.9c0 .5 1.3.5 1.3 0l-1-6.9m-11.1 13.6c-.2-.5-1.5-.5-1.3 0 .5 2.5 1.2 4.8 2 7.1.2.5 1.5.3 1.3-.2-.8-2.2-1.5-4.6-2-6.9m129.1 2.8c-.7 2.8-1.5 5.6-2.1 8.4-.2.5 1.2.5 1.3 0 .7-2.8 1.3-5.6 2.1-8.2.2-.5-1.1-.7-1.3-.2m-.2 21.3c-.2-.5-1.5-.5-1.3 0 .3 2.6.8 5.4 1.5 8.1.2.5 1.5.5 1.3 0-.6-2.7-1.1-5.3-1.5-8.1m34.8-5.5c-.3.5 1 .7 1.3.2l4.6-9.7c.2-.5-1.2-.7-1.3-.2l-4.6 9.7m-6.7-6.2c-.3.5 1 .7 1.3.3.7-1.8 1.3-3.6 1.5-5.6 0-.5-1.3-.5-1.3 0-.4 1.8-.9 3.6-1.5 5.3m-13.1 11.2c-.2 3.1.2 6.3.7 9.2.2.5 1.5.5 1.3 0-.5-3-.8-6.1-.7-9.2.1-.5-1.3-.5-1.3 0m11.1 9.1c0-.5-1.3-.5-1.3 0 0 3 .5 6.1 1.3 9.1.2.5 1.5.3 1.3-.2-.8-3-1.3-6.1-1.3-8.9m-14 15c-.3-.5-1.5-.3-1.3.2l3.6 5c.3.5 1.7.2 1.3-.2l-3.6-5"/>
  <path fill="#785c4d" d="M596.3 597.5c-.3.7 1 .7 1.3.2 1.6-4 1.6-8.2.2-12.2-.2-.5-1.5-.3-1.3.2 1.4 3.7 1.4 8-.2 11.8m-9.7-25.2c-.2-.5-1.5-.3-1.3.2 1.2 3 2.2 5.9 3 9.1.2.5 1.5.3 1.3-.2-.9-3.2-1.9-6.2-3-9.1m-19.7-11.6c-.3-.3-1.6 0-1.2.3l6.1 5.6c.3.3 1.6.2 1.2-.3l-6.1-5.6m20.8 29.7c0-.5-1.3-.5-1.3 0l.2 3.6c0 .5 1.3.5 1.3 0l-.2-3.6m-76.1-8.7c-.7 0-.7.8 0 .7l11.1.2c.8.2.8-.7 0-.7l-11.1-.2m-7 13.5c-.8 0-.8.7 0 .7l7.4.2c.8.2.8-.7 0-.7l-7.4-.2M487 637.7c-.8.3.2.8.7.7 2.1-.7 4.5-1.2 6.8-1.3 1 0 .3-.7-.3-.7-2.4.2-4.9.7-7.2 1.3m-29-4.3c-.8 0-.8.8 0 .7 3 0 5.9-.2 8.9-.5 1 0 .3-.7-.3-.7-2.8.4-5.8.5-8.6.5m18.1-13.3c-.8.2.2.7.7.7l5.6-1.3c.8-.2-.2-.8-.7-.7l-5.6 1.3m-42.2 2.1c-.7-.2-1.3.5-.3.7 2.6.5 5.1.8 7.8 1.2.7.2 1.1-.5.3-.7-2.7-.4-5.3-.7-7.8-1.2m-14.7-14.6c-.3-.3-1.5.2-1 .5 3.1 1.8 6.4 3.3 9.7 4.8.5.2 1.6-.2 1-.5-3.2-1.5-6.5-3.2-9.7-4.8m31-2c-.5 0-1.5.5-.7.5 4.3 1.2 8.9 1.7 13.4 1.7.8 0 .8-.7 0-.7-4.3 0-8.5-.5-12.7-1.5m74.1 9.5c-.8 0-.2.7.3.7 2.8-.2 5.6-.8 8.2-1.7.8-.3-.2-.8-.7-.7-2.4.9-5.2 1.6-7.8 1.7m36.9-25.7c-.3-.2-1.5.2-1 .5 3.5 2.3 6.8 4.6 9.9 7.2.3.3 1.6 0 1.2-.3-3.4-2.8-6.7-5.2-10.1-7.4m3.5 17.8c-.3-.3-1.5-.2-1.2.3l6.8 7.2c.3.3 1.6.2 1.2-.3l-6.8-7.2m-21.6-2.9c-.5-.2-1.5.5-.7.7l6.1 1.8c.5.2 1.5-.3.7-.7l-6.1-1.8m-8.5-11.9c-.8 0-.3.7.3.7l5.4-.5c1 0 .3-.7-.3-.7l-5.4.5m25.4 36.9c-.8 0-.8.7 0 .7 1.7.2 3.5 0 5.1-.2.8 0 .3-.7-.3-.7-1.6.2-3.1.2-4.8.2m-60.3 1.3c-.8.3-.2 1 .3.7l6.1-1.3c.8-.2.3-.8-.3-.7l-6.1 1.3M488.8 611c-.7 0-.7.8 0 .7 4.5-.3 8.7-.8 13.2-1.7.8-.2.3-.8-.3-.7-4.3.9-8.6 1.6-12.9 1.7m-13-15.3c-.8.2-.2.8.3.7 3.6-.3 7.3-.3 10.7.2.7.2 1.1-.5.3-.7-3.7-.4-7.5-.5-11.3-.2m16.6-12c-.8 0-.8.7 0 .7s.9-.7 0-.7m-49.6 12.8c-.7-.2-1.1.5-.3.7 2.3.3 4.5.7 6.8.7.8.2.8-.7 0-.7-2.2-.2-4.3-.4-6.5-.7m-15.5 2.3c-.3-.3-1.6 0-1.1.3l6.6 5c.3.3 1.6 0 1.1-.3l-6.6-5m115.1 28.5c-.5.3.8.7 1.2.3 1.8-1.7 4-3 6.3-3.8.8-.3-.2-.8-.7-.7-2.5 1.1-4.8 2.4-6.8 4.2M413 553.7c-.2 0-.5.2-.5.5s.5.3.7.3c.8 0 1.8 0 2.8.2.2 0 .8 0 .8-.3s-.3-.5-.5-.5c-1.2-.2-2.2-.2-3.3-.2m-.5 3.7c-.2.2.2.3.5.5l2.8.3c.2 0 .8 0 .8-.3s-.3-.5-.5-.5l-2.8-.3c-.1 0-.6 0-.8.3"/>
  <path fill="#ffac5d" d="M218.9 527.4c-.2 2.8.2 5.6 1 8.2 2.1 3.5 6.4 2.6 9.7 3.6 5.6 1.5 9.9 3.8 15.8 4 5.6.2 17.3-3.1 22.3-5.3 6.3-2.8 5.4-12.4 6.3-19.3 5-44.4 12.4-88.4 21.9-132 3.5-15.5 7.6-38.9.7-53.9-.7-1.5-1.5-2.6-2.3-4-2.6-4.3-6.1-7.8-10.4-10.2-2.6-1.5-5.3-3.8-7.9-4.8-4-1.6-8.1-2.6-12.4-2.6-4.8-.2-9.6 1-13.9 3.3-2.8.8-5.1 2.1-7.2 4.1-2.5 2.8-4.4 6.1-5.9 9.6-.2 0 0 .3.2.7l-.5 2c-1.8 5.3-3.3 10.5-4.1 16.2-4.3 23.6-8.7 48.8-9.7 72.9-1.4 35.5-2.9 71.4-3.6 107.5"/>
  <path fill="#ffe2bf" d="M236.7 527.4c-2.3 3-4 6.6-5.1 10.4-1 7.3 1.5 17.8 2.3 25.1 1.8 16.2 3 32.3 4.1 48.6 1.2 19.3 2.1 38.6 3.3 57.9.8 14.8 1.5 29.8 2.3 44.7.3 4.3 0 8.4-.7 12.5-.2.8-.3 1.8-.7 2.6-.2.8-.7 1.7-1.1 2.3-1.1 1.7-2.1 3.3-3.1 5-.3.7-.7 1.3-1.1 2-.7 1-1.5 1.8-2.3 2.5-1.8 1.8-3.9 3.3-6.3 4.5-4.1 1.5-8.6 3.3-10.9 7.8 4.6.7 9.4.7 14 0 9.4-.8 19-1.6 28.4-.2 1.5.3 3.1.5 4.6.3 1.6-.2 3.1-1.3 3.8-2.8.7-1.8.7-3.5.3-5.3 0-.3-.2-.7-.2-1l-1.8-14.5c-.2-2.5-.5-4.8-.8-7.2 0-1.8 0-3.8.3-5.6.8-7.6 1.8-15.2 2.3-22.9 1.1-17.3 2.3-34.8 2.8-52.3.8-24.1 2.8-49.8.2-73.7-.8-7.1-2-14-3-20.9-.7-5.1-.5-11.9-2.6-16.3-.7-1.3-1.5-2.5-2.6-3.5-3.5-3.6-8.1-5.9-13-6.6-3.3-.5-6.6.3-9.2 2.3-1.7 1.2-3 2.7-4.2 4.3"/>
  <path fill="#ffac5d" d="M219.3 541.5c-.3 2.3-.3 4.6-.3 6.9.2 2.6.3 5.3.7 7.9 5.4 52.3 8.1 105 12.2 157.4.2 2 .5 4 1.3 5.8 4.1 7.8 19.9 4.9 27 4.8 6.4-.2 13.4.5 13.9-7.4 2.1-33.3-.2-66.6.8-99.9.5-21.1 2.5-42.4.5-63.5-.5-5.4-1.3-10.7-2.3-16-.7-3.8-.5-7.6-1.3-11.2-1.6-6.9-7.1-9.6-13.5-11.4-15.5-4.3-30.2-.3-36.9 18.1-1.1 2.7-1.8 5.3-2.1 8.5"/>
  <path fill="#ff7e00" d="M216.3 752.6c.2.5.2 1 .3 1.3 0 .5.2.8.3 1.2.2.2.3.3.7.3 6.1 1.5 12.7.5 18.8.3 7.1-.2 14.2-1.2 21.3-1.7h2.8c1.5.2 3 1 4.5 1.2s2.8 0 4.1-.3c.7 0 1.1-.2 1.8-.3.8-.5.7-1 .7-2.1-.2-2.3-.7-4.5-1-6.8-.5-2.5-.5-4.8-.7-7.2-.2-2.8.2-7.9-3.5-6.9-4 1-3.5 4.9-5 7.9-.5 1-1.3 1.8-2.3 2.3-1.8.5-4 .2-5.4-1.2-3.1-2-5.3-5.3-8.2-7.2-.8-.5-1.8-1-2.8-1.2-2.3-.5-2.6 1-4 2.5-4.3 4.6-9.4 8.2-15 11-3 1.3-7.6 3.1-7.4 6.9"/>
  <path d="M219.7 752.1c-.7-.2-2 .7-1.1 1 4.3 1.8 8.7 1.2 13.2 1.3 5.1.2 10.1-1.2 15.2-1.7l7.9-.7c3-.2 5.9-.8 8.7.2 2.5.8 5 1.8 7.1-.5.5-.7-1.2-1-1.6-.5-1.6 1.8-4.6-.3-6.6-.7-1.6-.2-3.1-.2-4.8 0-4.1.3-8.2.8-12.4 1.2s-8.2 1.5-12.4 1.5-9 .7-13.2-1.1"/>
  <path fill="#ffac5d" d="M290.7 359.6c-1.5 10.2-2.1 20.4-2 31 .3 33.5 1.6 66.9 4.1 100.4 1.2 16.5 2.1 33.1 4.3 49.5.8 6.9 6.3 8.1 11.7 11.9 5.3 3.8 11.7 4.5 18.1 4 2.8 0 5.4-.8 7.9-2 3.8-2.1 6.8-6.3 8.9-10.9 7.2-15.3 6.4-34.6 7.6-52.3l1-14.3c1.5-19.8 3.3-39.6 5-59.4 1.3-13.7 3-27.5 3-41.4 0-6.9-.5-13.9-1.5-20.6-.7-4.5-1.3-9.7-3.3-14-.5-1.3-1.3-2.6-2.3-3.8-3.1-4-7.1-7.1-11.5-9.1-2.8-1-5.8-3-8.4-3.8-5.3-1.6-10.7-1.8-16.2-.8l-.2.3c-2 .3-3.8 1-5.4 1.8-3.6 1.8-8.1 3.3-11 6.9-5.6 6.5-8.4 18.2-9.8 26.6"/>
  <path fill="#ffe2bf" d="M334.8 720.5c1.1-7.6 2.3-15.2 3.1-22.8 2-17.3 3.8-34.8 5-52.1 1.8-23.9 4.8-49.5 3.1-73.5-.5-7.1-1.3-14.2-2.1-21.1-.5-4.9 0-11.9-2-16.3-.7-1.3-1.6-2.6-2.6-3.6-3.5-3.6-7.9-6.3-12.9-7.1-3.1-.7-6.4 0-9.2 1.8-1.6 1.2-3.1 2.6-4.3 4.3-2.5 3.1-4.3 6.6-5.3 10.4-1.3 7.1.8 17.8 1.3 25.1 1.2 16.2 1.8 32.3 2.3 48.6.7 19.3.8 38.7 1.1 58 .2 15 .2 29.8.5 44.8.2 4.3-.2 8.6-1.1 12.9-.5 2-1.1 3.8-2.1 5.4-1 1.5-2.1 3.1-3.5 4.5-1.5 1.7-3 3.1-4.8 4.5-3.6 2.6-7.4 4.8-11.5 6.6-1 .5-2.3 1.2-2.5 2.5-.2 1 .3 2 1.1 2.6.8.3 1.6.7 2.6.7 12.7 1 25.2-1.7 37.8 0 2.1.2 4.5.5 5.9-1.3 1.1-1.5 1.1-4.1 1-6.3-.3-2.6-.5-5.3-.7-7.9-.2-3.5-.8-6.8-.8-10.1 0-3.7.1-7.2.6-10.6"/>
  <path fill="#ff7e00" d="M283.7 754.3c0 .5.2 1 .3 1.5 0 .5.2.8.3 1.2.2.2.3.3.7.3 5.9 1.7 12.7 1 18.8 1 6.9.2 14.2-.5 21.3-.8 1-.2 1.8-.2 2.8 0 1.5.2 3 1 4.5 1.3 1.5.2 2.8.2 4.1-.2.7 0 1.1-.2 1.8-.3.8-.5.7-1 .7-2.1 0-2.3-.3-4.5-.7-6.8-.3-2.5-.3-4.8-.3-7.2 0-2 .3-4.6-.8-6.3-1.8-2.5-5 1-5.8 2.6-.7 1.5-1.2 3.1-2 4.5-.8 1.5-2.3 2.5-4 2.5-3.1-.3-5.9-3.3-7.9-5.6l-2.8-3.3c-.7-1-1.6-1.8-2.6-2.5-3.3-1.7-4.1 1.7-5.9 3.5-1.3 1.3-2.6 2.5-4.1 3.6-3.1 2-6.4 3.6-9.7 5-3.4 1.5-8.7 4.1-8.7 8.1"/>
  <path d="M287.2 754.1c-.7-.3-2 .5-1 .8 4.1 2 8.6 1.5 13 1.8 5.1.5 10.1-.7 15.2-1l7.9-.3c3-.2 5.9-.5 8.7.5 2.5 1 5 2.2 7.1-.2.7-.7-1-1.2-1.5-.7-1.8 1.8-4.6-.5-6.6-.8-1.6-.3-3.1-.3-4.8-.2-4.1.2-8.2.5-12.4.7-4.1.2-8.4 1.2-12.5 1-4.2-.3-9 .1-13.1-1.6"/>
  <path fill="#ffac5d" d="M296.9 543.7c-.7 8.1.3 16.5.8 23.4 1.3 22.4 3.3 45 4.8 67.4 2 26.7 2.6 53.6 3.1 80.5 0 4 .5 8.6 3.8 10.5 2 1 4.1 1.5 6.3 1.2l20.4-.5c6.1-.2 6.1-3.3 6.8-8.4.8-6.8 2.1-13.4 3.1-20 4-28.2 6.3-56.5 6.8-84.9.7-27.4.5-55.2-5-81.9-1.6-8.4-5.9-10.4-13-12.7-11.2-3.6-23.4-2.3-31.5 7.1-4.2 4.8-5.9 11.3-6.4 18.3M244 274.2c-1.6 16.5-3.1 33.1-4.3 50-1 14.4-2.1 25.1 8.6 34.1 5.6 4.8 12.2 7.4 18.3 11.2 5.1 3.3 9.7 7.1 13.7 11.5 3.1 3.3 6.6 11.5 10.1 13.5s11.9-.8 15.8-1.1c6.1-.7 12.2-1.2 18.3-1.6 7.7-.8 15.5-1.5 23.2-2.1 2.6-.3 5.3.2 7.9-.3 1.3-.2 2.6-.7 3.6-1.5 1.1-1 1.3-3.1 1.5-5 .5-5.9.8-12 .7-18-.8-24.2-2.1-48.1-4-72.2-.8-11.5-.8-18-7.9-18H345l-21.6-.2c-5.8 0-79-3.4-79.4-.3"/>
  <path fill="#c07a51" d="M338 360.9c-.2-.5-1.3-.3-1.1.2 2.6 7.2 7.6 13.4 12.7 19.1.3.7.2.5.8.8.3.2 1.5.2 1-.3-5.4-6.1-10.6-12.2-13.4-19.8m-4.2 1.5c-.2-.3-1.5-.2-1.1.2 4.3 7.6 9.4 14.7 15.5 20.9.2.3 1.3.2 1-.3-6.1-6.3-11.2-13.2-15.4-20.8m-84.7 20.3c-.3.2-.7.3-.3.8 4 2.1 8.2 4.1 12.5 5.8.5.2 1.5-.3.7-.7-4-1.6-7.8-3.3-11.4-5.3 4.4 0 9.2 2.8 13 4.5.5.2 1.3-.3.7-.7-4.8-1.8-9.9-5.1-15.2-4.4m17.5 1.8c-.2-.3-1.5 0-1.1.3 4.3 4.3 9.1 8.1 14.2 11.4.3.2 1.5-.2.8-.5-5-3.1-9.8-6.9-13.9-11.2m-1.7 212.8c-.2 40.2-.5 80.6-.7 120.7 0 .5 1.1.5 1.1 0l.5-67.3c.3-39.4.3-79 .8-118.5.5-38.6 2.5-77.5 14.5-114.4.2-.5-1-.5-1.1-.2-6.3 20.3-10.4 41.2-12.2 62.3-3.7 39-2.6 78.4-2.9 117.4m79.7-7.9c-.8 41-2.5 82.1-7.6 122.7-.2.5 1.1.5 1.1 0 3-22.9 4.8-46 5.9-69.1 2-41 2.1-82.3 2.6-123.3l1.5-124.1c0-.5-1.1-.5-1.1 0-.3 23.4-.5 46.8-.8 70.2-.5 41.2-.8 82.4-1.6 123.6"/>
  <path fill="#ffe2bf" d="M226.4 284.9c-.7 18.1-1.6 36.3-1 54.2.2 4.8.3 15 3.8 17.6 4.3 3.3 20.1 2.1 25.7 2.6 19.1 1.6 38.2 2 57.4 1.3 9.6-.3 19.1-1 28.7-1.8 4.6-.5 20.9.3 23.6-4.1.7-1.3 1-3 .8-4.6.2-33-.5-65.9-2.3-98.8-.5-8.6-1-17-1.6-25.6-.7-7.4-2.5-16-1.6-23.4 1.5-13.8 2.5-27.7 3.5-41.5.5-6.8-.2-14 .8-20.6 2-14.2 1.6-27.2-12.4-34.9-5.3-3.1-11.4-4.8-17.3-6.8-13.7-4.6-22.9-10.9-37.6-10.4-8.9.3-18.1 4.9-26.4 7.6-4.9 1.7-9.9 3.8-14.7 6.1-7.8 3.8-8.1 11-9.9 18.5-2.8 11-5.9 21.6-7.6 33-6.2 43.6-10.1 87.5-11.9 131.6"/>
  <path fill="#542929" d="M256.7 26.1c-1.2 3.1-1 6.6.8 9.7.7.8 1.2 1.8 1.6 2.8 1 2.5.3 5.8 1.8 8.1 1 1.2 2 2.3 3.1 3.3 1.5 1.7.8 3.5 1.1 5.4.5 2.6 1.3 5.1 2.1 7.8 1.5 5.6 4.3 10.7 8.2 15 1.5 1.5 3.1 2.6 5.1 3.5 1.8.7 3.6.7 5.4.5 5.9 0 11.9-1.2 17.5-3.1 3.3-1.2 7.8-2.5 9.7-5.6.7-1.5 1.1-2.8 1.5-4.3.5-2.3 1.1-4.8 1.8-7.2.5-2.3 1.3-4.3 2.1-6.4 1.8-4.6 3.3-9.4 4.5-14.3.5-1.8.8-3.6 1-5.4.2-2 .2-4 0-5.9-.2-1.2-.3-2.1-.5-3.3-.5-2.6-1.3-5.1-2.5-7.4-.8-1.6-2-3.3-3.1-4.8-1-1.2-2.6-3.3-4.1-3.6-2.5-.5-3.3-1.5-5.1-3.1-2-1.8-5.4-2.8-7.9-4-6.3-3-15-5.1-21.1-.7-1 .8-2 1.8-3 2.5-3.8 2.6-9.2 2.8-11.9 6.6-1.3 2-1.6 4.5-2.5 6.6-.2.7-.5 1.2-.8 1.6-1.1 1.6-2.8 2.8-4.1 4.3 0 .1-.4.6-.7 1.4"/>
  <path fill="#ffb085" d="M283.6 104.4c-1.6-.7-3.1-1.7-4-3.1-2-2.1-1.1-4.6-1-7.4.2-2.1.3-4.4.5-6.8 0-1 .2-1.8.2-2.6 0-1 .2-1.8.2-2.8v-.5c0-1.2.2-2.5.2-3.6.2-1.7.2-3.3.3-4.9.2-1.2.3-2.5.3-3.8v-.2h.5l5.8-.2 17.5-.7 7.4-.3h.3v.7c0 .5.2 1 .2 1.5l.5 4.9v.5c.3 3 .7 5.8 1 8.7 0 .5.2.8.2 1.3v.7c.5 4.4 3.1 8.9-.2 12.9-2.3 2.3-5.3 4.1-8.6 4.8-3.5 1.2-6.9 1.8-10.4 2.1-3 .5-6.1.3-9.1-.3-.7-.2-1.2-.6-1.8-.9"/>
  <path fill="#fd7f5e" d="M278.6 87.1c.2-.8.2-1.7.2-2.8 0-1 .2-1.8.2-2.8V81c0-1.2.2-2.5.2-3.6.2-1.7.2-3.3.3-4.9.2-1.2.3-2.5.3-3.8.2 0 .3-.2.5-.2 2-.3 3.8-.3 5.8-.2 4.1 0 8.4-.3 12.7-.5 1.5 0 4.3-.8 5.8-.3 2.5.7 1 6.6.7 8.4-.8 3.6-2.6 7.1-5.3 9.9-4.1 4.4-12.5 6.9-18.3 4-1.3-.7-2.3-1.6-3.1-2.7"/>
  <path fill="#ffb085" d="M264.1 48.7c.3 1.2.3 2.3 0 3.8.2 2.5 0 5 0 7.4.3 6.8 3 13.2 7.6 18.1 1.5 1.5 3 3 4.5 4.3 1.8 1.8 4 3.3 6.3 4.4 1.5.8 3.1 1.2 4.8 1.3 5.9 0 11.2-4.3 15.5-8.1 3-2.5 5.6-5.4 7.6-8.7 3.6-6.4 3.8-14.2 4.3-21.4.2-3 1-7.3-.3-10.1-1.2-2.6-2-5.3-3.3-7.8-2.3-4.9-5.8-9.1-10.1-12.4-4.1-3.3-9.6-4.9-14.8-4.4-8.9.8-15.7 7.6-19.5 15.3-1.5 2.8-2.5 5.9-3 9.2-.4 3.2-.2 6.1.4 9.1"/>
  <path fill="#ffb085" d="M320.5 52c.5-.7.8-1.3 1.1-2.3.7-2.1 0-4.5-1.6-5.9-4.8-3.8-8.6 2.5-9.2 6.4-.7 2.6-.2 5.3 1.3 7.4 1.6 2.2 4 1.2 5.3-.8l2.3-3.5c.1-.3.5-.8.8-1.3"/>
  <path fill="#f16d53" d="M315.4 47.1c-.2.3.5.5.3.2 2-.5 3-.2 2.8 1 0 .2 0 .5-.2.8s-.3.7-.7 1c-.3.5-.8 1-1.3 1.5-.3.5-.7 1-.8 1.5 0 .3-.2 1.5.3 1.5.3 0 .7-2 1-2.3 1.1-1.3 3.6-2.6 2.5-4.8 0-.2-.3-.5-.5-.7-1-.9-2.6-.7-3.4.3"/>
  <path fill="#542929" d="M268.1 15.6c-2.1 3.8-2.6 7.7-3 12-.3 5.3-3 10.7-2.1 16 2.6-1.5 3.6-5.1 4.8-7.8.8-2.6 2.5-4.8 5-6.1-1.6 2.8-1.6 6.3 0 9.1 1.8-2.5 4.3-4.5 7.1-5.9 3-1.6 6.3-2.1 9.2-3.8 1.1-.7 2.3-1.3 3.5-2.1.8-.5 2.1-2 3.1-2.1.3 0 .7.2.8.5 0 .3 0 .7-.2.8 0 .2-.2.3-.2.5-1.5 5 1.3 10.1 6.3 11.4-.2-.7-1-5 1-3.3.3.3.7.7.8 1.2 1 2 2.5 3.8 4.1 5.1 2.3 1.8 4.8 2 7.6 2.1 1.8.2 2.3-.5 1.6-2.5-1.3-4-2.5-7.7-3.8-11.7l-3-8.7c-.7-2-.3-4.1-1.5-6.1-1.1-1.8-3-3.1-5.1-3.5-5.1-1.1-10.2-2-15.3-2.5-2.8-.3-5.8-.5-8.6-.3-1.8.3-3.6.8-5.3 1.5-2.1.7-4.1 2.1-5.4 4.1-.4.6-.9 1.2-1.4 2.1"/>
  <path fill="#633232" d="M259.5 33.4c-1.2-2.3-1.2-5.1.2-7.6 1.3-1.6 2.8-3.3 4.5-4.6s2.6-3.5 2.8-5.6c-1.5.8-2.8 1.6-4.1 2.6.8-2.1 1.1-4.6 2.5-6.6C268 8 273.5 7.7 277.3 5l3-2.5c6.1-4.4 14.8-2.3 21.1.7 2.5 1.2 5.9 2.2 7.9 4 1.8 1.5 2.6 2.6 5.1 3.1 1.6.3 3.1 2.5 4.1 3.6 1.1 1.5 2.3 3.1 3.1 4.8 1.1 2.3 2 4.8 2.5 7.4-1.3-1.8-3.1-3.1-5.3-4.1 1.8 4 3 7.9 3.6 12.2-1-2.5-2.8-4.5-5.1-5.6-1.2-.5-2.5-1-3.6-1.6-1.2-.5-2-1.6-2.3-3-.5 4.5 4.5 7.9 5 12.4-1.3-1.8-3-3.1-5-4.1-2-.7-3.8-1.5-5.6-2.5-2.5-1.8-3.5-4.9-2.5-7.8-2 2.3-2.5 5.4-1.6 8.2-1.5-.8-2.5-2-3.3-3.5-.5-1.8-.6-3.6-.2-5.4.3-1.8 0-3.5.3-5.3-2.3 3.8-6.3 6.3-10.7 6.8-2 .2-4 0-5.9.2-2 0-4 1-5.3 2.5.5-3.3 4-4.9 7.1-6.3-3-1.3-6.4 0-9.4 1.3-1.1.3-2.1 1-3.1 1.8-2.3 2-2.8 5.9-5.6 7.2-.5.2-1.1.3-1.8.7-1.3.7-2 2-2.1 3.5 0 1.5.2 3 .5 4.3-.6-1.7-1.9-3-2.7-4.6"/>
  <path fill="#834444" d="M283.2 18.9c-.3 0-.3.3.2.7 3.3 0 6.6-.5 9.7-1.3 2.6-1.1 4.6-3.3 5.3-6.1 0-.3-.7-.3-.7-.2-1.1 2.8-2.6 5.3-5.8 5.9-2.7.5-5.7.8-8.7 1m-10-3.3c-.2.2.3.3.7 0 2.8-3.6 6.8-3.5 10.9-3.6 2.3 0 4.6-.7 6.6-2.1.3-.2-.3-.3-.5-.2-3 2.5-6.9 1.8-10.5 2.1-2.9.1-5.6 1.4-7.2 3.8m-7.4 14.5c-1 1.6-1.6 3.6-1.6 5.4 0 .2.7.3.7 0 0-1.7.5-3.5 1.3-5 1.1-1.5 2.6-2.8 4.5-3.6.3-.3-.3-.5-.5-.3-1.8.8-3.3 2-4.4 3.5m11.2.3c-.3.2.3.3.3.2 2-.8 3.6-2 4.8-3.6.3-.2-.3-.3-.5-.2-1.2 1.6-2.8 2.8-4.6 3.6m-15.4-4.9c-.3.2.3.3.3.2 1.8-.8 3.3-2.3 4-4.3 1-2.3.8-5.9 3.8-6.8.3-.2-.2-.3-.3-.3-1.8.7-3.1 2.1-3.3 4.1-.7 3.1-1.5 5.6-4.5 7.1m24.6-21.6c-.3.2.3.3.5.2 2.6-1.3 5.8-1.2 8.1.7.2.2.6 0 .5-.2-2.7-2.1-6.1-2.2-9.1-.7m23.9 8.2c-.2-.2-.8 0-.7 0 1.6 1.6 3.6 3.1 5.8 4.3 2.8 1.6 4.5 4.6 4.3 7.9 0 .2.7.2.7 0 .3-2.8-1-5.6-3.3-7.2s-5-2.9-6.8-5m-9.1 8.4c-1.6 3.3-1.8 7.1-.7 10.7.2.2.8.2.7-.2-1.1-3.3-1-7.1.7-10.4 0-.3-.5-.3-.7-.1m3.8 2.1c-1.3 5.4 3 9.7 7.6 11.9.2 0 .8-.2.5-.3-4.5-2-8.6-6.1-7.4-11.5 0-.2-.7-.2-.7-.1m5-3.9c-.2-.3-.8-.2-.7.2 2 3.1 5.4 4.8 7.1 8.1.2.2.8 0 .7-.2-1.7-3.3-5.1-5.2-7.1-8.1m9.5 15.5c0-.2-.7-.2-.7 0 .8 1.7 1.3 3.5 1.1 5.3 0 .2.7.2.7 0 .3-1.9-.2-3.7-1.1-5.3"/>
  <path fill="#542929" d="M277 38.6c.3-.2.7-.2 1-.2.8-.2 1.8.2 2.3.8 1.1 1.8-1.8 2.8-3 3-2 .2-4 .2-5.9.5-.5.2-3.8.8-3.8-.2 0-.2.2-.2.2-.3.5-.7 1.3-1.3 2.1-1.7 2.3-1 4.6-1.7 7.1-1.9m16.3-.3c-1 .2-2.3 0-3 .8-.8 1 .2 2 1.3 2.1 2.5.3 5.1.5 7.8.7.5.2 4.8.8 5 .3.3-1-3-2.6-3.6-3-1.5-.5-3-.8-4.6-1-1.1-.1-1.9-.1-2.9.1"/>
  <path fill="#fda17b" d="M272.5 58.3c-.8-1-2.1-1.7-3.5-1.8-.5 0-1 0-1.3.2-1.2.8-1.8 2.1-1.6 3.5-.2 2.5.8 4.8 2.5 6.4 1.5 1.2 3.6 1.3 5.3.2.5-.5.8-1.3.8-2.1.2-1.8-.3-3.6-1.3-5.3-.4-.5-.5-.8-.9-1.1m33.1-.9c-1.6-2.5-5.9-2.1-7.9-.2-2.5 2.3-1.6 8.4 1.5 9.9.8.3 1.6.3 2.6.3.7 0 1.3-.2 2-.3.8-.5 1.6-1.2 2-2.1 1.1-2.3 1.1-5.1 0-7.4-.1.2-.1 0-.2-.2m-19.4 5.5c-.7-1-1-2.3-.8-3.6-.3-1.2-.3-2.2-.7-3.3-.2-.7-.7-2.6-1.3-1.3-.3 1.2-.7 2.3-.7 3.5-.2 1.2-.5 2.3-1.1 3.5-.5.7-.8 1.5-1.1 2.1-.2.8 0 1.7.7 2.1.3.2.7.2 1.1.2.7-.2 1.1-.3 1.8-.7l1.8-.8c.3 0 .5-.2.7-.5.1-.7-.2-1.1-.4-1.2"/>
  <path fill="#f16d53" d="M280.1 63.2c-.3.5-.6 1-.5 1.5.5 1 2.6 1.8 3.6 2.1.3 0 .7-.2.3-.3-1-.3-3-1.2-3.1-2.3-.2-.8.7-1.8 1-2.6.7-1.3 1.1-2.8 1.5-4.3.8-3.3.7-6.8-.2-10.1-.2-.2-.7-.2-.7.2 1.1 4.3.8 8.9-.7 13-.2 1-.7 2-1.2 2.8m8.2 3.1c-.5 0-.5.3 0 .3h1.1c.2 0 .3 0 .3-.2 0-.7 0-1.5-.2-2.1 0-.3-.7-.2-.7 0 .2.7.2 1.3.2 2h-.7m-3.9-.9c-.2 0-.3.2-.3.3s.3.3.5.3c.2.2.5.2.5 0 .2 0 0-.2 0-.2.5 0 1 0 1.5.2.3 0 .7-.2.3-.3-.9-.3-1.7-.3-2.5-.3m-6.3-.7c0 .3-.2.7-.2.8s.2.5.3.5c.2.2.8 0 .8.2.2.2.8.2.7-.2-.2-.7-.8-.3-1-.5s0-.7.2-1l.3-1.3c0-.3-.7-.3-.7-.2-.1.7-.2 1.2-.4 1.7"/>
  <path fill="#fda17b" d="M288 74.7c1.2-.2 2.1-.8 3-1.3.8-1.2-1-1-1.6-.8-2.5.5-5.1.5-7.6.2-1-.3-2-.5-3-.7h-.2c-.2 0-.2.3 0 .5 1.1 1.3 3 2.3 4.8 2.3 1.5.2 3.1.2 4.6-.2"/>
  <path fill="#f16d53" d="M278.9 71.4c-.3-.2-.8.2-.2.2 1.8.8 3.8 1.3 5.8 1.3 2.6-.2 5.4-.5 8.1-.8.5 0 .2-.3-.2-.3l-6.3.7c-1.5.3-3 .2-4.5-.2-.8 0-1.7-.5-2.7-.9m1-.8c-.2.3.5.3.3.3.7-.8 2.6.7 3.6.7.5 0 .8-.2 1.1-.3 1.5-.5 3-.3 4.3.5.2 0 .8-.2.5-.3-.8-.5-1.6-.8-2.6-1-1.2-.2-2.1.5-3.3.5-1.2-.2-2.7-1.7-3.9-.4m13.4.4c0 .2-.2.2-.2.2.3.2.5.7.5 1.2 0 .2.7.3.7 0 .2-.5 0-1-.5-1.3l-.5-.1m-15.9 0c-.2.3-.3.8-.2 1.3 0 .3.7.2.7 0 0-.3 0-.8.2-1.2 0-.3-.5-.3-.7-.1"/>
  <path fill="#410202" d="M298.6 48.7c.2-.8-.3-1.5-1.3-1.7-.5 0-1.2.3-1.3 1s.3 1.5 1 1.7 1.4-.4 1.6-1"/>
  <path fill="#f16d53" d="M298.6 45.9c-.2-.2-.7.2-.3.3.7.2 1.1.8 1.1 1.7 0 .2.7.2.7 0-.1-.9-.7-1.7-1.5-2"/>
  <path fill="#410202" d="M276 49.3c0-.8-.5-1.5-1.3-1.7-.5 0-1.2.3-1.3 1s.3 1.5 1 1.7 1.4-.5 1.6-1"/>
  <path fill="#f16d53" d="M275.3 46.2s-.2.2-.3.2 0 .2.2.2c.8.2 1.2 1.2 1.3 1.8.2.2.7.2.7-.2-.4-.7-.7-1.8-1.9-2"/>
  <path fill="#ffe2bf" d="M286.7 55.6c0-.2.2-.3 0-.3.2 0 .2.2.3.2 0-.3-.2-.7-.2-1 .2-1.5.3-2.5.3-2.5l15.3-.7h.5s.2 0 .2.2.2.3.3.7c0 0 0 .2.2.3 0 .2-.2.2-.3.3h-.3c0 2.5-.7 4.8-2 6.9-1.5 1.8-3.6 2.8-5.9 2.8-2.5.2-4.8-1-6.1-3-.8-1.2-1.3-2.3-1.8-3.6-.2-.1-.4-.1-.5-.3m-23.1-3.7c.2 0 .3 0 .8.2 2.6-.2 12.9-.5 15.3-.7h.5v2.1c0 .3-.2.8-.2 1.2l.2-.2v.8c-.2.2-.2.3-.3.5-.3 1.5-.8 2.8-1.6 4-1.5 1.8-3.6 2.8-5.9 2.8-2.5.2-4.8-1-6.1-3-1.7-2.3-2.7-5-2.7-7.7" opacity=".3"/>
  <path fill="#ff7e00" d="M263.6 51.5c0-.2.7-.2.7.3v.2c0 2.1.5 4.3 1.6 6.3 1.1 2.5 3.8 4.1 6.6 4 2.6-.2 5.1-1.8 5.9-4.3 0 0-.2 0-.2-.2 0-.3.3-3.5 1.1-3.5.2-1 .3-2 .3-3v-.2c0-.2.7-.2.7 0 0 .8-.2 1.5-.2 2.3 0 .3-.2.8-.2 1.2l.2-.2c1.8-1.7 4.5-.7 6.6.7.2 0 .2.2.3.2 0-.3-.2-.7-.2-1-.2-.8-.3-1.8-.3-2.6 0-.2.7-.2.7 0v.2c0 1 .2 1.8.3 2.8.3 0 .7.2.8.5.3.3.5.8.7 1.3.3.3.5.8.5 1.3 0 .3-.3.5-.7.3 1.1 2.6 3.8 4.1 6.6 4 5.9-.3 6.9-6.1 7.1-10.9 0-.2.7-.2.7 0v1.2l.3-.3c3.8-2.6 7.6-5.4 11.2-8.2.2-.2.6 0 .5.2-3.8 2.8-7.6 5.6-11.5 8.4 0 .2-.2.2-.3.3h-.3c0 2.6-.7 5-2 7.1-1.5 1.8-3.6 2.8-5.9 2.8-2.5.2-4.8-1-6.1-3-.8-1.2-1.3-2.3-1.8-3.6-.2-.2-.3-.2-.5-.3-2.1-1.3-4.9-2.5-6.6-.3-.2.2-.2.3-.3.5-.3 1.5-.8 2.8-1.6 4-1.5 1.8-3.6 2.8-5.9 2.8-2.5.2-4.8-1-6.1-3-1.6-2.3-2.6-5-2.6-7.8l-.1-.5"/>
  <path fill="#ffe2bf" d="M266.9 56.1c-.2-.2-.6 0-.5.2l4.6 4.6c.2.2.6 0 .5-.2l-4.6-4.6m2-.8c-.2-.2-.8-.2-.5.2l3.1 3.1c.2.2.6 0 .5-.2l-3.1-3.1m4.6-2.1c0-.2-.6-.2-.5.2l2.1 2.1c.2.2.6 0 .5-.2l-2.1-2.1m22.9.4c-.2-.2-.8 0-.5.2l2.3 2.3c.2.2.6 0 .5-.2l-2.3-2.3m-1.5.9c-.2-.2-.6 0-.5.2l3.3 3.3c.2.2.6 0 .5-.2l-3.3-3.3m-4.6.5c-.2-.2-.8-.2-.5.2l4.5 4.5c.2.2.6 0 .5-.2l-4.5-4.5"/>
  <path fill="#ff7e00" d="M247.2 162.6c-.7 1.8-1.5 3.6-2.3 5.4-.8-1.8-1.6-3.8-2.5-5.6-.3-1-3.1-.7-2.6.3 1.1 2.8 2.5 5.8 3.8 8.4.7.8 1.8.8 2.5.2l.2-.2c1.3-2.6 2.6-5.4 3.8-8.2.2-1-2.6-1.3-2.9-.3m7.7-.8c-.5-.2-.8-.3-1.3-.2-2.6.3-3.6 3.1-3.6 5.8-.3 2.1 1.3 4.3 3.5 4.4h1.1c4.8-.6 5.3-10 .3-10m-.8 8.2c-1.8.2-1.8-5.4-.2-6.4.3.2.7.2.8 0 1.4-.3 1.1 6.1-.6 6.4"/>
  <path fill="#ff7e00" d="M263.9 170.2h-2.1l.2-7.8c0-1.1-2.8-1.1-2.8 0l-.2 8.4c0 .5.5.7 1 .8.2 0 .5.2.7.2h3.1c.5 0 1.3-.2 1.5-.8s-.9-.6-1.4-.8m57.3 1c.2-1.2-.3-2.6-1.3-3.6.8-.3 1.3-1.3 1.1-2.1-.2-1.1-.8-2.1-1.8-2.6-1.3-.5-2.6-.7-4-.5-.8-.3-2.3-.2-2.3.7l-.2 8.6c0 1.1 2.8 1.1 2.8 0v-3.3h1.6c0 .2.2.2.3.2.8.3.8 2.5.8 3.3s1.5 1 2.1.7c.5-.2.7-.3.8-.8.3-.3.3-.4.1-.6m-5.4-4.6V164c.8 0 1.8 0 2.1.8.8 1.5-.7 2-1.8 2 0-.1-.2-.2-.3-.2m-13.6-2.8c.5 0 1.3-.2 1.5-.8s-1-.8-1.3-.8H299c-.8-.2-1.8.2-1.8.8l-.2 8.6c0 .5.3.7.8.8.2 0 .5.2.7.2h3.5c.5 0 1.3-.2 1.5-.8s-1-.8-1.3-.8h-2.1v-3h1.5c.5 0 1.3-.2 1.5-.8s-1-.8-1.3-.8h-1.5v-2.3c-.2 0 1.9-.2 1.9-.3zm7.6.1c.5 0 1.3-.2 1.5-.8.2-.7-1-.8-1.3-.8h-3.5c-.8-.2-1.8.2-1.8.8l-.2 8.6c0 .5.3.7.8.8.2 0 .5.2.7.2h3.5c.5 0 1.3-.2 1.5-.8.2-.7-1-.8-1.3-.8h-2.1v-3h1.5c.5 0 1.3-.2 1.5-.8.2-.7-1-.8-1.3-.8h-1.5v-2.3c-.1.1 2-.1 2-.3zm-16-1.9-6.3-.2c-.5 0-1.5.2-1.5.8s1 .8 1.3.8h1.8l-.2 7.9c0 1.1 2.8 1.1 2.8 0l.2-7.9h1.8c.5 0 1.5-.2 1.5-.8s-.9-.6-1.4-.6m-11.5.6v4.6c-.2-.3-.3-.7-.7-.8l-2.5-4c-.3-.3-.7-.5-1.1-.5-.8-.3-2.1-.2-2.1.7l-.2 8.6c0 1.1 2.8 1.1 2.8 0v-4.8c.3.5.5.8.8 1.3.7 1.3 1.5 2.5 2.6 3.6.2 1 2.8 1 2.8 0l.2-8.6c.2-1-2.6-1.2-2.6-.1m-11 0c-.3 1.2-.2 2.6-.3 3.6-.2 1.2-.5 2.3-1.3 3.3-1.3 1.1-1.3-1.8-1.5-2.8v-4.3c0-1.1-2.8-1.1-2.8 0-.2 3.5-.7 9.7 4 9.4 1.6-.3 3-1.5 3.5-3.1.8-2 .5-4.1 1-6.3.5-.7-2.3-.9-2.6.2"/>
  <path fill="#f5c9a8" d="M349.5 310.6c-1.5 14.5-2.8 29.2-1 44 0 .5 1.1.5 1.1 0-2.3-23.9 2.5-47.5 3.5-71.2.2-3.5.8-8.1-1.5-11-.5-.5-1.3-1-1.6-1.5-.7-1-.2-2.6 0-3.6.3-3.1.7-6.4 1-9.6 1-12 1-24.1-.2-35.9 0-.5-1.1-.5-1.1 0 1.5 16.3 1 32.8-1.5 49l.2.2c3 1.3 3.6 4.6 3.6 7.6 0 3.6-.3 7.3-.5 10.7-.5 7.3-1.3 14.4-2 21.3M276.1 98.1c-1 10.4 14.7 9.9 21.1 9.2 8.1-.5 18.6-2.6 20.4-11.9.2-.5-1-.5-1.1 0-1.6 8.4-10.9 10.6-18.1 11.2-6.4.7-22.1 1.5-21.1-8.6.1-.3-1.2-.3-1.2.1"/>
  <path fill="#ffe2bf" d="M340.6 193.1c-.8.2.2.7.7.7l26.2-7.1c7.7-2.1 15.8-3.6 22.9-7.4.7-.3-.5-.6-.8-.5-7.2 3.9-16 5.4-23.9 7.6l-25.1 6.7m-116.5-5.3c-.5-.2-1.5.2-1 .5 2.1 1.1 4.6 1.6 6.9 1.8.8 0 .7-.7 0-.7-2-.1-4.1-.6-5.9-1.6"/>
  <path fill="#f5c9a8" d="M239.9 236.8c0-.5-1.3-.5-1.1 0 3 20.9 9.7 41.2 20 59.8 9.7 18.1 20.1 36.6 33.6 52.3.2.3 1.3.2 1-.3-13.4-15.5-23.7-34.1-33.5-52.1-10.3-18.5-17-38.8-20-59.7m34.6 32.1c-.2-.5-1.3-.3-1.1.2 7.8 14.7 16.8 28.7 26.9 41.7.2.3 1.3.2 1-.3-10.1-13-19-26.9-26.8-41.6"/>
  <path fill="#ffb085" d="M392.5 245.9h1.6c2.5-.3 5.1 0 7.4.8 4.8 2.3 6.1 8.6 6.6 14 2 23.4 2 46.8.2 70.2-.3 4.1-.7 8.2-1.3 12.4-.3 3.1-.5 7.9-3.3 10.1-1.1.7-2.5 1-3.8 1-2.6.2-6.1.5-8.7-.7-3.1-1.3-3.3-6.4-4-9.2-1.3-5.3-2.6-10.7-4.1-16-5.8-20.6-16.8-39.9-13.9-62 .5-5.4 2-10.7 4-15.8 2-4.4 6.4-4.3 10.9-4.4l8.4-.4"/>
  <path fill="#ffb085" d="M375.4 262.8c-1 .7-2.1 1-3.3 1.1-1.5-.3-2.3-2-3-3.3-12.4-29-25.2-57.7-35.4-87.5-2.8-7.6-4.1-15.7-4.1-23.7.3-7.9 1-16 2.3-23.9.5-3.8 1.1-7.6 2.1-11.2.8-2.6 2.1-7.6 4.3-9.1.2-.2.3-.3.5-.3.8 0 1.5-.2 2.3-.2h2.5c2.1.3 4.3.8 6.3 1.7 2.6 1 4.9 2.3 7.2 4 .2.2.5.3.7.5 3.5 2.8 6.6 5.9 9.2 9.6 1.8 2.5 3.5 5.1 5 7.9.3 1 .8 1.8 1.1 2.6.2.3.2.5.3.8v.2c2.3 5.3 4.1 10.7 5.9 15.8.7 1.6 1.1 3.5 1.8 5.3 4.1 12.4 7.9 24.7 11.2 37.4.8 3.5 1.8 6.8 2.6 10.2 3.5 14 6.9 28 10.2 42.2.5 1.6.6 3.5.5 5.1-.8 5.9-7.2 5.4-11.7 6.8-6.3 1.9-12.6 4.6-18.5 8"/>
  <path fill="#f5c9a8" d="M320.5 128.3c-.2-7.9.5-16.2 4.8-22.6 2.8-4.1 9.4-4.1 14-3.8 5.9.5 11.7 2.5 16.6 5.8 7.7 5.1 13.5 12.9 18.1 21.1 2 3.8 3.8 7.6 5.4 11.4 3.1 7.1 5.6 14.5 8.1 21.8 1.5 4.1 2.8 8.1 4.1 12.2 1 3 3.8 7.4-.5 8.7-7.8 2.3-15.7 5.3-23.7 7.6-2.1.7-4.5 1.3-6.8 1.8-7.2 1.8-14.5 3.3-21.8 4.9-2.6.5-3.3 0-4.1-2.3-.7-2-1.1-3.8-1.8-5.8-1.3-3.9-2.6-8.1-3.8-12-2.8-9.2-5.1-18.5-6.8-27.9-1-6.7-1.7-13.6-1.8-20.9"/>
  <path fill="#ffe2bf" d="M320.5 128.3c-.2-7.9.5-16.2 5-22.8 2.8-4.1 9.4-4.1 14-3.8 5.9.5 11.7 2.5 16.6 5.8 7.7 5.1 13.5 12.9 18.1 21.1 2 3.8 3.8 7.6 5.4 11.4-3 .3-5.9.8-8.9 1.3l-21.6 3.3c-8.9 1.5-17.8 3.1-26.7 4.6-1.1-6.7-1.7-13.6-1.9-20.9"/>
  <path fill="#fda17b" d="M385.1 377.8c.2.5.3 1.1.7 1.8.5 1.6 2.6 3.5 3.8 1.1.3-.8.5-1.8.3-2.6-.2-2.6.2-5.4.7-8.1s2-4.5 2.8-6.8c.5-1.8.8-3.6.8-5.6.2-1.3 0-2.8-.5-4.1s-1.5-2.5-2.8-2.8c-4.5-.8-7.1 4.9-7.9 8.2-1 4.5-.7 9.2 1 13.5.4 1.7.8 3.7 1.1 5.4"/>
  <path fill="#ffb085" d="M410 363.4c.2 1.5 0 3-.5 4.3-.3 1.5-1 3.1-2.5 3.6-.3.2-.7.2-1 .3-1.2.5-1.3 2.1-2.3 2.8-.7.2-1.5.3-2.1.3-1.5.3-1.1 1.5-1.8 2.5-.5.7-1.3 1.2-2.1 1.3-1.1 0-2.3-.5-3.1-1.1-.3.7-.8 1.3-1.5 2-.7.5-1.5.8-2.3.5-.5-.3-1-.7-1.3-1.1-1.5-2.3-2.5-4.8-3-7.6-1-4.5-1.5-8.9-1-13.5.3-4 1.2-7.9 1.3-11.9.2-3.1 4.3-2 6.4-2.1 3.1-.3 13.8 0 13.7 4.6-.2 5.2 2.8 9.8 3.1 15.1"/>
  <path fill="#3e3839" d="M387.3 353.8c6.3-2 12.4-4.5 18.8-5.3 1.2 0 2.5-.3 3-1.3.2-.5.3-1.2.2-1.6-.2-.8-.3-1.6-.8-2.3-.7-.8-1.6-1.1-2.6-1.1-2.6-.2-5.4 1.3-7.9 2-3.3.8-12.5 1.3-12.9 5.9 0 1.5.5 2.8 1.1 4.1.2 0 .7-.2 1.1-.4"/>
  <path fill="#ee6b00" d="M24.2 575.6c0 .5 2.5 2.8 3.1 3.3l3 3.5c1.5 1.3 2.6 3 3.6 4.6 2 4 1.7 9.7 1.8 14 .2.8 0 1.5-.5 2.1-.5.5-1.3.7-2 .7-1.2.2-2.3 0-3.5 0s-2.1-.3-3-1c-.7-1-.8-2.3-.7-3.5.4-7.9-2.4-15.8-1.8-23.7m26.3 194.2c.2.3.2.7 0 .8-.3-.8-.2-1.8.5-2.5 1-1.2 2.6-1.3 3.5-2.5 1-1.7 1.3-3.5.8-5.3.3-17.5 0-35.3-3.8-52.4-.2-.8-.3-1.5-.5-2.3-.2-1-.5-2-1-2.8-4.5-9.9-18.5-33.6-4.6-36.3 6.9-1.3 14.3 6.4 18.5 11 2.6 3 5.1 6.1 7.1 9.6 2.5 4.5 3.5 9.6 2.8 14.5 0 .3-.2.8-.2 1.3-.5 3-1 5.9-1.7 8.9-.8 3.5-1.8 6.8-2.8 10.2-4.1 14.5-7.6 29.3-10.2 44.3-.2 1.3-.8 3.3-2.1 4-.8.3-1.8.3-2.6.3H50c-.5 0 1-2.3 1.2-2.5.8-.7 1.5-.7 2.3-1.5.5-.3.7-.7 1-1.2l-4 4.4zm131.5-77c-.2-11.4-5.4-22.1-5.9-33.6-.7-9.1-7.8-16.3-16.8-17.3-8.6-1.2-17.5 3.3-22.8 10.2-4.1 5.4-5.8 12-9.1 17.8-3.1 5.4-5.4 11.2-7.1 17.1-.7 1.7-.7 3.6 0 5.4 1.5 2.3 4.6 2.5 7.1 3.3 7.2 2.3 12.2 12.2 18.5 16.7 8.9 6.1 19.6 10.2 26.7 18.6 6.9 8.1 11.4 17.8 13.2 28.2.3 2.1.5 4.5.7 6.6.2.5 0 1-.2 1.5-.3.8-1.3 1-2 1.3-.8.5-1.6 1-2.3 1.7-.3.5-.7 1-.7 1.7.3 2.3 8.4.3 9.9 0-.2-8.7-.2-17.6-.2-26.4.2-2.8-.2-5.8-1.1-8.6-1.3-2.5-3-4.8-4.9-6.9-3.1-4.3-4.9-9.4-5.3-14.7-.3-7.6 2.5-15 2.3-22.6"/>
  <path fill="#ff7e00" d="M.4 618.4c0-.1.1-.3 0 0 .3-.3.7-.5 1-.5 4.8-1.2 9.2-3 13.5-5.4.7-.2 1.2-.7 1.6-1.2.3-.7.7-1.2.8-1.8.7-1.8 1.5-3.5 2.5-5.1.7-1.3 2-2.3 3.5-2.5 1.6-.5 3.5-.7 5.1-1 .5-.2 4.5-.8 4.5-1.7.5-5.1.5-10.1.2-15.2-.7-4.5-1-9.1-1.1-13.5 6.1 7.4 11.9 15.2 17.1 23.2 1.5 2.1 3.1 4.3 5 6.3 4.1 4.6 8.4 8.9 11.7 14.3 2.3 3.8 4.3 7.8 7.6 10.7 1.5 1.2 3.1 2.3 4.8 3.3 3.1 1.8 6.6 3.5 9.4 5.4 5.3 3.8 12.4 4.3 18.8 4.6 15 .7 29.8-2.3 44.7-4.5 7.4-1 15-1.8 22.4-.3 7.4 1.5 14.7 5.6 18.1 12.4 2.5 4.6 2.8 10.1 3.3 15.2 1.5 19-10.4 33.1-29.5 34.3-9.6.5-19.1-1.2-28.7-.8-15.2.7-29.5 6.8-44.7 8.2-15.5 1.5-31.8-2.5-43.7-12.5l-.8-.8c-11.9-10.7-18.1-28-13.5-43.4 1.7-5.4 2.1-9.7.3-12.7-1.5-2.3-4.5-3.8-9.7-4-7.4-.3-18.6 5.1-23.1-3.8-1.3-1.9-1.6-4.5-1.1-7.2"/>
  <path fill="#ff7e00" d="M200 692.8c-.3-11.4-5.4-21.9-5.9-33.3-.7-9.1-7.8-16.3-16.8-17.3-8.6-1.2-17.5 3.3-22.8 10.2-4.1 5.4-5.8 12-9.1 17.8-3.1 5.4-5.4 11.2-7.1 17.1-.7 1.7-.7 3.6 0 5.4 1.5 2.3 4.6 2.5 7.1 3.3 7.2 2.3 12.2 12.2 18.5 16.7 12.4 8.6 26.5 13.7 33.3 28 2.8 6.1 4.4 12.5 5.1 19.3.5 3 .5 5.8.2 8.7-1.5.2-3.3.7-3.5 2.1-.5 3.6 8.6 1.3 10.2 1-.2-8.7-.2-17.6-.2-26.4.2-2.8-.2-5.8-1.1-8.6-1.3-2.5-3-4.8-4.9-6.9-3.1-4.3-4.9-9.4-5.3-14.7-.4-7.4 2.4-14.8 2.3-22.4M55.9 708.6l-6.8-10.4c-2.3-3-4.3-6.1-6.3-9.4-2.3-4.8-5-12.2 1.5-15 8.6-3.8 28.2 10.9 32.2 18 2.5 4.8 3.8 10.1 4 15.5.8 8.6 1 17.3 1.5 25.9.7 9.2 1.3 18.5 2.6 27.7.3 1.7.3 3.1.3 4.8-.2 1.2-.3 2.1-.8 3.1-.3.8-.8 1.7-1.7 2.1-1.2.8-3.5.2-4.9.2-.7-1.8 1.3-3.3 2-5 .3-1.5.2-3-.3-4.5-3.1-10.9-6.9-21.4-11.4-31.8-1.5-3.3-3-6.6-4.8-9.9-2-3.6-4.1-7.1-6.4-10.5l-.7-.8"/>
  <path fill="#ffac5d" d="M47.3 689.8c-12-10.5-18.1-28-13.5-43 1.7-5.4 2.1-9.7.3-12.7 1.5-.8 2.6-2.2 3.1-3.6.2-1.7.3-3.3.2-5 .3-3.6 3.3-6.6 6.9-7.1 3.3-.3 5.8.7 7.6-2.6s-.3-8.7.7-12.4c.2-1.2.8-2.3 1.7-3.1 4.1 4.6 8.4 8.9 11.7 14.3 2.3 3.8 4.3 7.8 7.6 10.7 1.5 1.2 3.1 2.3 4.8 3.3 0 1.3-.2 2.8-.8 4.1-2.3 4.9-9.1 6.6-11.2 11.7-1.3 3.5-.3 7.3.5 10.7s1 7.8-1.7 10.2c-1.7 1.7-4 2.2-5.8 3.3-7.1 4.5-6.3 15.5-11.2 21.9l-.9-.7"/>
  <path fill="#ff7e00" d="M195.5 619.2c2.3 7.6 3.1 15.5 2.3 23.6-.5 5.1-1.2 13.5-4.3 18-7.1 9.9-21.8-3.5-19.8-12.9 1.6-7.6 9.6-13.2 9.2-20.9-.3-5.4-4.6-9.9-9.4-12.7-3.1-2.1-6.9-3.3-10.9-3.5-3.9 0-7.8 2.2-9.6 5.6-1.6 3.5-.2 8.4 3.5 9.7-5.9 1-11.9-4.3-12.7-10.2s2.8-12 7.9-15.3c5.4-3.1 11.5-4.3 17.6-3.5 5.4.5 10.6 2.5 15 5.6 5.5 4.3 9.3 10.1 11.2 16.5"/>
  <path fill="#3e3839" d="M23.1 609.8c-.2.5-.3 1.7.2 2.1.3.5 1.2.3 1.6.2l.2-.2c.3-.2.7-.3.8-.7v-1c.2-.5.2-1-.2-1.5v-.2c-.2 0-.3-.2-.5-.2-.3-.2-.8-.2-1.1 0-.5.4-1 .9-1 1.5M.3 618.4c-.3.3-.5 1-.2 1.7 0 .5.2.8.3 1.2s.5.7.8.8c.3.3.8.7 1.3 1 .5 1.5 1.2 3 2.1 4.1-.2 0-.2-.2-.3-.2-.3-.2-1.5.2-.8.5 2.1 1.3 4.9.8 6.6-1.2.5-.3-.7-.7-1-.3-.8 1-2.1 1.5-3.5 1.5-1.2-1.2-2-2.6-2.5-4.3.2 0 .3-.3.5-.7 0-.3.2-.7.2-1 .2-.3.7-.5 1-.8l.5-.5c.3-.3.5-.8.7-1.2.2-.8-.5-1.7-1.3-1.8-.5-.2-1.2-.2-1.8 0-.8.2-2 0-2.5 1l-.1.2c.2-.1 0 0 0 0"/>
  <path d="M82.1 682.6c-.3-.2-1.5.2-.8.5 2.1 1 3.8 3 5.8 4.3s4.1 2.1 6.4 2.8c.5 0 1.5-.5.7-.7-2.6-.7-5.1-1.8-7.2-3.3-1.6-1.3-3.2-2.5-4.9-3.6m6.3-4.8c-.3-.2-1.5.2-1 .5 3.1 1.7 6.4 3 9.7 4.3.5.2 1.5-.3.7-.7-3.2-1.3-6.3-2.6-9.4-4.1m-13.1-31.3c-.3-.3-1.5-.2-1 .3 2.1 2 4.4 3.6 7.1 5 .3.2 1.5-.2.8-.5-2.4-1.4-4.7-3-6.9-4.8m-.6 8c-.2-.3-1.3-.2-1 .3 2.5 2.6 5.3 5 8.4 6.8.3.2 1.5-.2.8-.5-3.1-1.6-5.9-3.9-8.2-6.6m-22.6 14.7c-.2-.3-1.5-.2-1 .2 1.8 3.3 4.1 6.1 7.1 8.6.3.3 1.5 0 1-.3-3-2.4-5.3-5.2-7.1-8.5m-13.5-14.5c0-.5-1.3-.3-1.3 0 .8 3.8 2.5 7.6 4.6 10.9.2.3 1.5.2 1.2-.2-2.2-3.3-3.7-6.9-4.5-10.7m10.7-5.9c-.3-.3-1.5-.2-1.2.2 2.3 3.5 4.8 6.8 7.6 9.9.2.3 1.3.2 1-.3-2.8-3.1-5.3-6.4-7.4-9.8m5.3 43.5c-.3-.3-1.5-.2-1 .3 2.5 2.8 5.3 5.6 8.1 8.1.2.3 1.5 0 1-.3-2.8-2.5-5.7-5.3-8.1-8.1m136.5-76.8c-.3-.3-1.5-.2-1.1.2 2.3 4.1 3.6 8.7 3.6 13.5 0 .5 1.1.5 1.1 0 0-4.8-1.2-9.6-3.6-13.7m-2.3 26.2c-.2.5 1 .7 1.1.2 1.6-2.3 1.5-5.3 1.3-8.1 0-.5-1.1-.5-1.1 0 .1 2.8.3 5.6-1.3 7.9m-16.5-38.3c-.5-.2-1.5.3-.5.7 3.3.8 6.3 2.3 8.9 4.3.3.3 1.5 0 1-.3-2.8-2.2-6.1-3.7-9.4-4.7m-21.8 87.1c-.3-.5-1.5-.3-1.1.2 1.8 3.8 4.6 7.1 7.9 9.6.3.3 1.5 0 1-.3-3.3-2.6-6-5.9-7.8-9.5m17.8 14.3c-.3-.3-1.5-.2-1.1.2 2.1 3 4.4 5.6 6.9 8.1.2.3 1.5 0 1-.3-2.5-2.5-4.8-5.2-6.8-8m-15.8-27.7c-.3-.3-1.5-.2-1.1.2 3 4.1 6.3 8.1 10.1 11.7.2.3 1.5 0 1-.3-3.8-3.5-7-7.4-10-11.6m19.6 17c-.2-.3-1.3 0-1 .3l5.4 5.3c.2.3 1.5 0 1-.3l-5.4-5.3m-6.9-20.7c-.2-.3-1.5-.2-1 .2 1.6 3 3.6 5.6 5.8 8.2.2.3 1.3.2 1-.3-2.2-2.5-4.2-5.3-5.8-8.1m21.6-2.7c-.2-.5-1.3-.3-1.1.3 2.1 3.6 3.6 7.6 4.6 11.7 0 .5 1.3.3 1.1 0-1-4.2-2.5-8.2-4.6-12m-4 13.5c-.2-.3-1.3-.3-1.1.2 2.1 3.6 4.1 7.2 5.9 10.9.2.3 1.3.3 1.1-.2-1.8-3.8-3.7-7.4-5.9-10.9m9.1 23.6c-.2-.5-1.3-.3-1.1 0l.8 4.1c0 .5 1.3.5 1.1 0-.3-1.3-.5-2.8-.8-4.1m-76.7-61.3c-.7 0-.7.7 0 .8 5.4.2 10.9-.5 16.2-2 .7-.3-.2-.8-.7-.7-4.9 1.6-10.2 2.2-15.5 1.9M90 642.4c-.3-.2-1.5.2-1 .5 4.1 2.5 8.4 4.3 13 5.6.5 0 1.5-.5.7-.7-4.5-1.3-8.7-3.1-12.7-5.4m14.7 19.6c-.5-.2-1.3.3-.5.7 3 1 6.1 1.7 9.2 2 .7 0 1.2-.5.3-.7-3.1-.5-6.1-1.2-9-2m13.8 14.2c-.7 0-.7.7 0 .7 3.3.2 6.4 0 9.6-.5.8-.2.3-.8-.3-.7-3.2.5-6.1.6-9.3.5m-6.1 11.2c-.5 0-1.2.5-.3.7 5.1.5 10.1-1 14.8-2.6.7-.3-.2-.8-.7-.7-4.4 1.6-9 3.1-13.8 2.6m47.3-48.5c-.7 0-.7.7.2.7 6.3.2 12.2 2.8 16.6 7.2.2.3 1.5 0 1-.3-4.7-4.6-11.2-7.3-17.8-7.6m14.5 14.7c-.3-.3-1.5-.2-1.1.3 2.3 2.6 4.3 5.4 5.9 8.6.2.3 1.3.3 1.1-.2-1.6-3.1-3.5-6.1-5.9-8.7m-34.3.3c-.5-.2-1.5.3-.5.7 5.6 2.2 11.2 4.6 15.8 8.7.2.3 1.5 0 1-.3-4.7-4.3-10.5-6.8-16.3-9.1m-3.8 10.2c-.5-.2-1 .5-.5.7 3.6.5 7.3 1.5 10.7 2.8.5.2 1.5-.3.7-.7-3.4-1.3-7.1-2.3-10.9-2.8m-1.3 19.7c-.8 0-.3.7.3.7l6.1-.5c.8-.2.3-.7-.3-.7l-6.1.5m-56.5 10.5c-.5-.2-1.5.3-.7.7 3.1.8 6.4 1.3 9.7 1.5.8 0 .7-.7 0-.7-3.1-.2-6.1-.7-9-1.5m-5 15.3c-.2-.3-1.5-.2-1.2.2 2 3.3 3.5 6.8 4.8 10.4.2.5 1.3.3 1.2-.2-1.3-3.8-2.8-7.1-4.8-10.4m-8.2-23.4c-.2-.3-1.5 0-1 .3 2.3 2.3 4.9 4.3 7.6 6.1.3.2 1.5-.2.8-.5-2.6-1.4-5.1-3.6-7.4-5.9m3.6-15.8c-.3-.2-1.5 0-1 .3l7.1 5.4c.3.3 1.5 0 1-.3l-7.1-5.4m35.8.7c-.5-.2-1.3.3-.7.5 3.6 1.5 7.4 2.5 11.4 2.8.7 0 1.2-.7.3-.7-3.8-.2-7.5-1.2-11-2.6m50.4-23.9c-.5-.2-1.5.3-.5.5 2.8 1 5.6 2.5 8.1 4.3.3.3 1.5 0 1-.3-2.6-2.1-5.6-3.6-8.6-4.5m-31.6 8.4c-.5 0-1.5.5-.7.7 3.1.8 6.3.7 9.2-.2.7-.3-.2-.8-.7-.7-2.5.8-5.2.8-7.8.2m17-16c-.8.2-.3.7.3.7l8.4-.8c.8-.2.3-.7-.3-.7l-8.4.8m-90.7-39.3c-.3-.3-1.5-.2-1.2.2 2.8 4.8 5.9 9.4 9.2 13.7.2.3 1.3.2 1-.3-3.2-4.3-6.2-8.9-9-13.6m14.3 23.3c-.3-.3-1.5-.2-1 .3 2.5 3 5.1 5.6 8.1 8.1.3.3 1.5 0 1-.3-3-2.3-5.6-5.1-8.1-8.1m-22.1-4.1c-.2-.3-1.3-.2-1 .2 1.6 3.6 3.8 6.9 6.3 9.9.2.3 1.3.2 1-.3-2.5-3.1-4.6-6.4-6.3-9.8m14.9 21.7c-.3-.3-1.5-.2-1.2.2l6.3 8.6c.2.3 1.5.2 1.2-.2l-6.3-8.6m134.7 82.3c-.3-.3-1.5 0-1 .3 2.6 3.1 4.9 6.4 7.1 9.7.2.3 1.5.2 1.1-.2-2.1-3.4-4.6-6.7-7.2-9.8M26 606c-.3-.2-1.3 0-.8.5.8 1 1.8 1.8 3 2.1h.2c.2.2 1.1 0 .8-.3-.7-1.2-1.9-2-3.2-2.3"/>
  <path fill="#00a1a4" d="M57.7 630.6c4-3.8 8.2-7.6 10.7-12.4.3-.7.5-1.3.5-2s-.3-1.2-.7-1.7c-1-1.5-2.2-2.6-3.6-3.6-2-1.5-4 3.3-5.1 4.8-5.8 7.2-13 13.2-21.4 17.3-.8.5-4.6 2.3-4.8 3.3 0 .5.2 1 .3 1.3.5 1.2.3 2.6 1.2 3.6 1.2 1.5 3.3 1 5 .5 6.1-2.2 11.9-5.6 16.6-10.1.5-.3.8-.8 1.3-1"/>
  <path fill="#3e3839" d="M17 609c-.3.5-.3.8 0 1.3v.2c0 .5 1 .5 1.1.2.3-.3.7-1 .8-1.5 0-.5.3-1 0-1.3s-.8-.3-1.1-.2c-.5.3-.7.7-.8 1.3"/>
  <path d="M19 605.4c-.5.3-.8.7-.7 1.3-.2.2.2.3.3.3h.5s.2-.2.3-.2c.3-.2.8-.5 1-1l.2-.2c.3-.3-.3-.5-.7-.5s-.5 0-.7.2l-.2.1m14.5-31.5c0-.2-.7-.2-.8.3 2 4.3 3.6 8.6 5 13.2.7 2.5 1.3 5 1.8 7.4.3 1 .5 2.2.7 3.3.2.7.3 1.3.3 2 0 .5 0 2.6-1.3 1.8-.2-.2-.8 0-.5.2 1.3.7 2.5-.3 2.5-1.7 0-1.5-.3-3.1-.7-4.6l-1-4.5c-1.4-5.9-3.5-11.6-6-17.4m-3.1 52.6c-.2.2.5.3.7.2 1-1.3 1.5-2.8 1.7-4.3 0-.2-.7-.2-.7 0-.3 1.4-.8 2.8-1.7 4.1m-3.7 1c-.3.2.3.3.5.3 1.1-.7 2-1.8 2.5-3 0-.3-.5-.3-.7-.2-.5 1.2-1.3 2.2-2.3 2.9"/>
  <path fill="#ffe2bf" d="M54.4 621.2s0 .2-.2.5c-.2.7.5 1 .8 1.5l1.5 2c.7.8 1.5 1.7 2.1 2.3.3.3 1.3 1.6 1.8 1.5 1.2-.3 2.3-2 3.1-3 1.2-1.2 2-2.5 2.8-3.8 1-1.8-1.3-3-2.3-4.1-1.2-1.3-2.3-2.5-3.5-3.6 0-.2-1-.3-1.2 0-1 1.3-2 2.8-3 4.1-.6.6-1.2 1.5-1.9 2.6m3.3 3.5c-.8-1-1.5-2.2-2.5-3 1.2-1.5 2.3-2.8 3.3-4.3 1.6 2.1 3.8 4 5.9 5.4-1.2 1.8-2.5 3.3-4 4.8-.9-1.1-1.9-2.1-2.7-2.9"/>
  <path fill="#ffe2bf" d="M60.5 620.7c-.7.3-1 1-1 2-.2.3.8.3 1 .2.5-.3 1-.8 1.2-1.5v-.2c.2-.2.2-.3 0-.5-.4 0-.9-.1-1.2 0"/>
  <path fill="#3e3839" d="M186.8 590.3c1.1-18.6 2.3-37.3 3.1-55.4.2-2.3.2-4.5.3-6.8.3-8.6.7-17.1.8-25.7.2-7.1.8-14.2.8-21.3-.2-7.4-.7-14.8-1.3-22.1-1.3-14.3-3-28.9-2.3-43.2l1.5-35.1c.7-7.1.3-14.2-.7-21.3-1-5.3-4 1.1-4.3 3.1-.3 3.6-.5 7.1-.3 10.7-.2 6.6-.2 13-.3 19.5-.2 10.2-.3 20.4 0 30.7.5 18.1 3.5 36.1 3.1 54.2-.3 17.3-.7 34.6-1.5 51.9-.7 17-1.6 34-3.1 50.9-1.3 15.8-1.3 32.1-4.3 47.6-1.8 10-4.8 21.1-10.4 29.7-4.8 7.8-11.2 14.3-18.8 19.3-17.3 10.5-35.8 4-50.6-7.6-7.1-5.8-13.7-12.2-19.6-19.3-1.8-2.1-3.3-4.3-5.1-6.4-2.1-2.5-4.1-6.4-6.8-8.2-1.7-1.3-4-1.2-5.4.2-.3.3-.5 1-.5 1.5 0 .3.2.7.5 1 .3.5.5.8.8 1.2 9.1 12 19.5 22.8 31.2 32.3 5.4 4.6 11.4 8.6 17.8 11.5 6.6 2.6 13.5 3.8 20.4 3.6 11.2.2 22.2-5.3 30-13.2 21.4-21.4 23.2-55 25-83.3"/>
  <path fill="#ffe2bf" d="M57.9 630.2c-.8.7-.3 2.3.3 2.6.5.5 1 .8 1.5 1.2.3.2 1.5.5 1.7.8s-.2.7-.2.8c-.2.2 0 .5 0 .7.2.7-.3.7-.3 1.2-.2.3 0 .7.2 1v.2c.3.5 1 .5 1.5.2 1-.5 1.8-1.3 2.6-2 .5-.3 2-1.5 1.8-2.3l-.5-.5c-.5-.2-1 0-1.5 0-.3 0-.5-.5-1-.7-.3-.2-.8-.2-1.2.2 0 .2-.2.2-.2.2-.7-1.2-1.3-2.3-2.3-3.1-.5-.6-1.6-1.1-2.4-.5m.9 1.6v-.5c.7-.7 1.3.5 1.5.8s1.3 1.7 1 2.1c-.2.2-1.3-.5-1.5-.7-.5-.3-.8-.8-1-1.5v-.2"/>
  <path fill="#f5c9a8" d="M50.1 623.9c-.5 1.5 1.7 4.1 2.3 5.6 1 1.3 2.3 2.5 4 3.1.8.3 1.7.3 2.5 0 .3-.3 1-1.5.2-1.3-.2 0-.3.2-.5.3s-.3.2-.5.2c-1.3.2-2.6-1.3-3.5-2.3-.8-1.3-1.7-2.6-2-4.1-.2-.5-.3-1-.2-1.5 0-.3-.2-.7-.5-.8-.6-.4-1.4.1-1.8.8"/>
  <path fill="#83402e" d="M311.3 731c-.8-2.8-1.1-5.8-.8-8.9.2-3.5.3-7.6 3-10.1 6.1-5.8 17.3 1.7 22.4 5.3 5.3 3.8 13 10.7 12.7 17.8-.5 9.1-6.9 15.8-9.2 24.2-.8 3.5-1.1 7.1-1 10.7.2 1.2 0 2.1-.3 3.1-.7 2-4 2.2-5.6 2.3-2.1.2-5.1-.7-2.6-3.1.7-.8 2.1-1.5 2.8-2.3.3-.8.5-1.8.3-2.8.2-2.8-.2-5.6-.7-8.2-.7-3.3-2.3-6.4-4.8-8.9-2.3-2.5-5.4-4-7.9-6.3-2.6-2.5-4.8-5.3-6.4-8.4-1-1.4-1.4-2.9-1.9-4.4m192.5 17.6c-8.6-4.8-14-12.9-19.5-20.4-2.1-2.8-17-23.1-19.1-11.5-.3 2 .3 4 1.8 5.3 1.3 1.3 3 2.5 4.6 3.5 10.5 6.9 18.3 17.6 28.7 25.1 7.6 5.3 16.3 8.7 25.5 9.7-5.5-6.2-14.7-7.5-22-11.7m-83.8-2.3c-2-2.3-3.6-4.9-4.8-7.9-3.1-7.4-2.5-15.8 6.3-18.6 1.6-.5 3.3-.8 5.1-.8 6.9-.3 14.2-.8 20.9.8 5.3 1.3 9.6 4.1 10.4 9.9.8 6.6-3 10.9-6.6 15.7-3.1 4.1-4.1 9.2-3 14.2.5 2 1.5 4 1 5.9-.5 1.5-1.1 2.6-2.1 3.6-1.6 1.5-3.5 2.8-5.4 3.6-1.6.7-3.6 1-5.1 2-1.1.8-1.6 2-3.5 2-.3 0-.8-.2-1.3-.2s-1.2 0-1.6-.3c-.6-.7-.8-1.8-.2-2.5 1.1-1.3 3.5-1.8 5.1-2.6 2-1 3.6-2.2 5.1-3.6.3-.2.5-.7.7-1 0-.5 0-1-.2-1.3-.2-1.2-.5-2.2-.8-3.3l-.5-1-1-.5c-1.2-.5-2.5-1-3.6-1.7-4.6-2.3-8.7-5.4-12.2-9.4-1-1-1.8-2-2.7-3"/>
  <path fill="#8e4b34" d="M354 679.9c-2.1-9.6-3.1-19.3-4.8-28.8-.8-5.9-.7-13.7-5.8-18-6.9-5.8-20.9-.5-28.7 1-1 .2-2 .5-2.8 1-1.6 1.3-1.8 3.1-3.5 4.5-2.8 1.8-5.9 3.1-9.1 4-6.9 2.2-15 3.1-19.8 8.7-.5.5-.8 1-1 1.7-.3 1.2-.2 2.3.5 3.3 1.3 2.3 4.1 3.5 6.8 4.3 4.3 1.3 8.6 2.6 12.9 3.6 4 .8 8.4 3 12.4 2.8 1.3 0 4.3-1.7 5.3-1.3 6.3 2.3-.5 16-2 19.5-2.8 6.9-6.8 13.8-7.4 21.4-1 13.3 6.8 27.2 19.8 31.3 6.3 1.7 12.7 2.5 19.1 2.1 27.7 0 55.4-5 82.8-1 13.7 2 28.2 5.9 40.5 0 7.4-3.6 12-13.5 8.2-21.3-2.6-5.8-8.7-8.9-14.5-11.2-28.4-11.2-59.7-10.9-89.9-15.2-8.1-1.2-16.1-1-18.5-9.6-.1-1-.4-1.8-.5-2.8"/>
  <path fill="#8e4b34" d="M317.4 732.8c-.8-3.8-1.1-7.8-.8-11.5.2-2.6 1.1-5.3 3.1-7.2 6.1-5.8 17.3 1.7 22.4 5.3 3.5 2.5 6.8 5.3 9.6 8.4 3 3 4.6 6.9 4.6 11 0 5.4-3.3 10.2-5.3 15.2-2.5 5.3-4.1 10.9-4.8 16.7-.2 1.5.3 5-1.5 5.6-1.8.8-5.1 0-7.1 0-2.5-.2-1.3-1.7-.3-3l1.5-1.5c.5-.2 1-.5 1.5-.7 1.5-5.4-1-12.4-4.3-16.8-2.3-3-5.6-4.8-8.6-7.1-3.3-2.5-5.9-5.6-8.1-9.2-.8-1.5-1.4-3.2-1.9-5.2m120 13.9c-6.8-9.2-11-22.6 2-26.7 1.6-.5 3.3-.8 5.1-.8 6.9-.3 14.2-.8 20.9.8 5.3 1.3 9.6 4.1 10.4 9.9.3 3.6-.5 7.2-2.5 10.2-1.6 2.6-4 5-5.1 7.8-1.2 2.8-.5 6.9 2.5 7.9 1.1.2 2.1.5 3.1 1 1.1 1 1 2.8.8 4.3-.5 4.1-1.2 8.1-1.6 12.2 0 1-.3 1.8-1 2.6-.8.5-1.6.8-2.6.8-1.5 0-5.3 1.3-5.4-1.3 0-1 .5-2 1.5-2.5s2-.7 3-.8c-.2-2.1-.5-4.3-1.1-6.4-.3-1.2-.8-2.2-1.5-3-1-.8-2.3-1.5-3.6-1.7-9.7-2.5-19-6.1-24.9-14.3"/>
  <path fill="#ff7e00" d="M354.9 673.5v-.5c-.2-1.2-.3-2.1-.5-3.3s-.3-2.8-1.6-3.3c-.7-.2-1.1-.3-1.8-.2l-3.3.3c-1.6 0-3.1.2-4.8.3-1.5.2-3 .5-4.5.8-2.8.5-5.8 1-8.6 1.3-3.3.3-6.4.2-9.7.2-.8 0-2.1 0-2.5 1-.2.3-.2.8-.2 1.2 0 1.5-.2 3.1-.2 4.6 0 1.2-.5 3 1 3.1 3.8.3 7.8.3 11.5-.2l6.8-.5 9.7-.8 5-.3c1.3 0 3 .2 3.5-1.3.4-.6.4-1.4.2-2.4"/>
  <path fill="#3e3839" d="M312.6 641.2c0 .8.3 1.5.8 1.8.2 0 .2.2.3.2.3.2.7.2 1 0 0-.2.2-.2.2-.3.5-.5.8-1.3.5-2v-.2c-.2-.7-1-1.2-1.6-1h-.2c-.3-.2-.7 0-.8.3s-.2.5-.2.8v.4m-33.5 11.4c-.3 1.2-.2 2.3.2 3.1 1 1 2.6-.3 3.5-1 .8-.5 1.5-1.2 2-1.8.8-1 3-3.3 2.3-4.6-.5-1-1.8-.8-2.6-.5s-2.5.8-3 1.7l-1 1c-.7.6-1.1 1.1-1.4 2.1m3.3 1.3c0 .1 0 .1 0 0 0 .1 0 .1 0 0 .3-.5.8-1 1.3-1.7-.3.5-.8 1.4-1.3 1.7m21.8 10.5c-.8 0-.7.7 0 1 2.1.2 4.1.2 6.3-.3.5-.2.8-.3 1.3-.5h.5c1-.3 2-.7 3-1.2.7-.3 1.5-.8 1.3-1.7s-1.2-.8-1.6-.7c-.8.2-1.5.7-1.8 1.3l-.2.2c-.3.3-.8.5-1.1.7-.2.1-.3.2-.3.3-.7.3-1.1.5-1.8.7-2 .4-3.8.4-5.6.2"/>
  <path fill="#83402e" d="M351.3 715.5c-.2-.3-1.3-.2-1.1.2 1.3 4 3.8 7.4 7.1 10.1.3.3 1.5 0 1-.3-3.2-2.5-5.7-6-7-10m5.9 3.5c-.2-.5-1.5-.3-1.1.2 1.6 2.6 3.8 5.1 6.3 7.1.3.3 1.5 0 1-.3-2.4-2.1-4.5-4.4-6.2-7m23.4 5.3c-.5-.2-1.5.2-.8.5 3.5 1.8 7.1 3.6 10.7 5.1.5.2 1.3-.3.7-.7-3.6-1.5-7.1-3.1-10.6-4.9m57.6 6.9c-.5 4.5.3 8.9 2.6 12.7.2.3 1.3.3 1.1-.2-2.1-3.8-3.1-8.1-2.6-12.5.2-.5-1.1-.5-1.1 0m5.4 5.9c0-.5-1.1-.5-1.1 0 0 3.6 1.5 7.1 3.8 9.9.2.3 1.3.2 1-.3-2.4-2.7-3.7-6.1-3.7-9.6m7.9 8.8c-.2-.5-1.3-.3-1.1.2 1.5 2.5 3.3 4.6 5.3 6.6.2.3 1.5 0 1-.3-2.1-2.1-3.7-4.2-5.2-6.5m11.2-30.4c-.3-.3-1.5 0-1 .3l3.5 3.3c.2.3 1.5 0 1-.3l-3.5-3.3m-55-15c-.7-.2-1.1.5-.3.7 4.5.8 8.7 2.2 12.9 4 .3.2 1.5-.2.8-.5-4.4-2-8.8-3.3-13.4-4.2m-96.2.9c-1.3 5.6-2.5 11.4 0 17 .2.5 1.3.3 1.1-.2-2.5-5.6-1.3-11.2 0-16.8.3-.4-.9-.5-1.1 0m2.7 10.8c0-.5-1.3-.5-1.3 0 .2 3.5 1 6.8 2.5 9.7.2.3 1.3.3 1.1-.2-1.3-2.9-2.2-6.2-2.3-9.5m4.9 6c-.2-.5-1.3-.3-1 .2.7 2.8 2.1 5.4 4.1 7.8.2.3 1.3.2 1-.3-1.9-2.3-3.2-4.9-4.1-7.7m-3.7-81.6c-.5-.2-1.5.3-.5.5 1.3.7 2.5 1.7 3.1 3.1.2.5 1.3.3 1.1-.2-.8-1.6-2.1-2.8-3.7-3.4m-6.6 5.6c-.3.2 0 .5.2.3 1.3.5 2.5 1.3 3.3 2.5.2.3 1.3.2 1-.3-.8-1.2-1.8-2-3.1-2.5l1.5-1.2c.5-.3-.7-.7-1-.3l-1.9 1.5"/>
  <path fill="#3e3839" d="M386.4 435.6c0-1.3-.2-2.6 0-4.1-.5-6.3-.7-12.5-.7-18.8V410c0-6.6.5-13 1-19.5.3-3 .7-6.1.7-9.1s1.1-5.8.2-8.6c-.2-.7-.5-1.3-.8-2l-.5-1.5c-.3-.7-.3-.8-1-.3-.8 1-1.5 2.1-1.8 3.5-.7 1.5-1 3.1-1.3 4.8-.5 3.3-.6 6.6-.5 9.9.3 12.2.5 24.6.8 36.9.5 21.8.8 43.5 4.1 64.9 7.1 47.3 26 92.2 27 140.5.3 14.2 0 28.5-.5 42.7 0 8.6-1 17.1-2.6 25.5-1.3 5.8-2.3 12.2-6.6 16.7s-10.4 6.6-16.5 5.8c-10.4-1-19.8-6.3-26.2-14.5-5.1-6.8-8.1-14.5-11.2-22.3 0-.2-.2-.5-.3-.7-.5-.5-1.3-.5-2-.5-3.3-.3-3.5 0-2.6 3 .7 3.3 1.6 6.3 2.6 9.4 3.8 10.2 10.4 19.1 20.1 24.4 10.7 5.8 29.5 10.9 39.2.7 4.5-4.6 6.3-11.4 7.6-17.5 8.4-41.4 3-83.9-4-125-4-24.1-11.2-47.5-15.7-71.5-4-22.9-7-46.4-8.5-70.1"/>
  <path fill="#ffe2bf" d="M344.7 681.9h-.5c-.3.3-.5.8-.3 1.2.3.7 1.3.3 1.8.2 1.3-.3 2.6 0 4-.3.2 0 .3-.2.3-.3.2-.3.2-.7 0-.8s-.7-.2-.8-.2h-.3c0-.3-.2-.8-.5-1-.3-.3-.8-.3-1.1-.3.2-1.5 1.1-5.3-1.3-4.8-1 .3-1.3 1.5-1.3 2.3.2 1 .3 2 .8 2.8 0 0-.2 0-.3.2-.3.2-.5.5-.5 1m1.7-4.4c.2.3.2.7.2 1.2 0 .2-.2.5-.2.8-.1-.1-.2-.2-.2-.3-.2-.5-.3-1-.3-1.5 0-.7.3-1.2.5-.3v.1"/>
  <path fill="#f5c9a8" d="M346 666.1c-.3-.2-.8 0-1.3.5s-.8 1.2-.8 2c-.3 1.7-.3 3.5 0 5.1.2 1.5.7 3 1.5 4.3l.5.5c.7.3.5-.7.3-1s-.3-.5-.5-.7c-.3-.8-.5-1.8-.5-2.8-.2-1.5 0-2.8.2-4.1.2-.7.3-1.2.5-1.8 0-.5.5-1 .5-1.5 0-.4-.2-.5-.4-.5"/>
  <path fill="#83402e" d="M347.7 649.3c-.3-1.7-.8-3.1-1-4.6-.3-1.2-.8-2.1-1.5-3.1-.5-.5-1.1-1-1.8-1.5-3.1-2.3-6.3-4.5-9.6-6.4-7.4-4.6-10.7 7.4-10.7 12.4.2 11.5 3.3 22.9 9.2 32.8 1.6 3 4.5 10.2 8.2 6.3 2.1-2.1 2.1-5.3 3-7.9 1-3.1 2-6.1 2.8-9.2 1.9-6.3 2.4-12.6 1.4-18.8"/>
</svg>