<svg xmlns="http://www.w3.org/2000/svg" viewBox="0 0 597.33 471.25">
  <path fill="#ffb085" d="M365.93 149.95c2.2.5 4.2 1.8 5.6 3.5 2 3 1.3 7 .2 10.5-1.9 6.1-4.5 11.9-7.8 17.4-1.9 3.1-4 6.2-6.1 9.2l-4.4 6.3-6.7 9.6c-2 2.9-4.4 4.9-7.9 3.2-1.5-.7-3.4-1.6-4.5-2.9-1-1.2-.4-3 .1-4.3 4-11.5 5.6-23.7 9.5-35.3 1.4-4.1 3.1-8 5-11.9.9-1.9 1.9-3.7 3.2-5.4 2.6-3.5 7.5-1.6 11-.7.9.3 1.9.5 2.8.8"/>
  <path fill="#ffb085" d="M331.23 217.95c-.7.4-1.3.8-1.7 1.2-.1.2-.3.3-.5.2-.1 0-.2 0-.2-.1-.2-.2-.4-.4-.5-.7-.1-.1-.1-.3-.1-.5-.1-1.3.5-2.3.6-3.5 0-.4-.1-.8-.2-1.2-.1-.6 0-1.2.3-1.7.5-1.6 1.3-3.2 2.2-4.6 1.1-1.6 3-2.9 4.5-4.2 1.1-1.1 2.7-1.8 4.3-1.7 1.4.2 2.7 1.3 3.8 2.4.4.3.7.7.9 1.1.2.5.3 1 .3 1.5.1 3-.4 6.1-1.5 8.9-.3.8-.7 1.7-1.1 2.5-.5.7-1 1.3-1.6 1.9-.1.1-.3.2-.4.3s-.3.1-.5.1c-1 0-1.9-.2-2.8-.6l-1.8-.9c-1-.5-2.8-1.1-3.8-.5l-.2.1"/>
  <path fill="#fda17b" d="M327.03 214.15c0-.1.1-.2.1-.3.1-.3.2-.5.3-.8.3-.6 1-1 1.3-1.6.4-.8.7-1.6 1-2.4.8-2.2 2.2-4.7 4.3-5.7 1.5-.7 3.2-.3 4.2 1 .7 1 1.1 2.2.9 3.5-.2 1.3-.7 2.4-1.5 3.4-.9 1.2-3.4 1.9-4.8 2.6-1 .4-1.9 1-2.7 1.8-.6 1-1.4 1.8-2.4 2.4-.2.2-.4.2-.6.3-.5.1-1.1-.1-1.5-.4-.4-.2-.6-.5-.7-.9 0-.5.5-.9.9-1.2.6-.5 1-1 1.2-1.7"/>
  <path fill="#ffb085" d="m350.23 153.35 1.1-28c.1-3.1.4-6.1.7-9.2.6-6.1 1.3-12.2 2.3-18.2.7-4.8 2.3-9.5 4.6-13.8 2.4-4.3 5-8.3 8-12.2 1.3-1.9 2.8-3.7 4.3-5.4 1.2-1.2 3.3-3.4 4.9-3.6h.3c.4.2.9.3 1.3.5s.9.4 1.3.7c1.1.7 2 1.6 2.9 2.6 1.1 1.3 2 2.7 2.7 4.2.1.2.1.3.2.5 1.1 2.5 1.8 5.1 2.2 7.8.3 1.9.4 3.8.4 5.7 0 .6-.1 1.1-.1 1.7v.7c-.3 3.5-.8 7-1.3 10.2-.2 1.2-.4 2.3-.6 3.4-2.9 17.2-5.9 34.5-11.3 51.2-.4 1.5-1.1 3-2.1 4.3-3.7 4.3-13.9.5-18.4-.6-.1 0-.3 0-.5-.1-.1 0-.2-.1-.3-.1-.2-.1-2.7-1.1-2.7-.9.1-.4.1-.9.1-1.4"/>
  <path fill="#f5c9a8" d="M387.63 85.05c0-1.9-.1-3.8-.5-5.9-.1-.9-.3-1.9-.5-2.9-.5-1.8-1.1-3.6-1.9-5.3-.7-1.5-1.6-2.9-2.7-4.2-.9-.9-1.9-1.8-2.9-2.6-5.7-4.3-10.1-2.6-14.7 2.2-1.9 1.8-3.6 3.8-5 6-.9 1.7-1.8 3.5-2.4 5.3-4.6 12.3-7.2 25.2-7.7 38.3 0 .8 10.9 1.5 11.9 1.7 5 1 9.9 1.8 14.9 2.4 1.7.4 3.4.3 5.1-.2 2.8-1.1 3-4 3.2-6.5.3-3.4 1.1-6.8 1.6-10.1 1-6 1.5-12.1 1.6-18.2"/>
  <path fill="#ffe2bf" d="M387.63 85.05c0-1.9-.1-3.8-.5-5.8-.1-.9-.3-1.9-.5-2.9-.5-1.8-1.1-3.6-1.9-5.3-.7-1.5-1.6-2.9-2.7-4.2-.9-.9-1.9-1.8-2.9-2.6-5.7-4.3-10.1-2.6-14.7 2.2-1.9 1.8-3.6 3.8-5 6-.9 1.7-1.8 3.5-2.4 5.3-.8 2.4-1.7 4.8-2.4 7.2 7.2 1.4 14.3 3.8 20.9 7 3.8 1.8 7.5 3.9 11.2 6 .6-4.3.9-8.6.9-12.9"/>
  <path fill="#3e3839" d="M277.93 342.15c-3.2 7.7-.1 16.5 3.5 24.1 1.2 2.3 2.5 4.8 4.7 6.2 4.9 3.2 11.6.1 15.7-4.1 3.9-4.1 6.7-9 9.4-13.9 3.6-6.6 6.5-13.6 8.5-20.9l.3-.9c3.3-11.6 5.5-23.5 6.6-35.5.2-1.7.4-3.3.5-5 .5-6.8 1.4-13.6 1.2-20.3-.2-6.6.7-13.3.6-20-.1-6.2.3-12.5.2-18.8-.1-2.2 0-4.5.3-6.7.5-3.7.6-7.2 3.4-10.1 2.5-2.7 6-2.8 9.1-4.3 1.1-.5 2.8-.6 3.7-1.3.2-.1.4-.3.5-.5.8-1.2 1.3-2.5 1.4-3.9-.6-.2-1.3.4-1.8.8-.9.6-1.7 1.3-2.6 1.9-.8.3-1.7.5-2.6.4-.6-2.5-1.4-5-2.3-7.5-.5-1.2-.9-2.4-1.4-3.6-.2-.8-.9-1.8-1.4-.5-.5 1.3-1.4 2.6-.9 3.9.4 1.2 1.4 2.1 1.9 3.3.5 1.1 1.6 3.4 1.2 4.7-.3 1-2.3 1.4-3.2 1.9-1.6.9-3 1.9-4.3 3.2-1.6 1.8-1.9 4.4-2.4 6.7-.7 2.6-1.1 5.3-1.2 8 .1 2.6.2 5.1.1 7.7-.2 5-.6 10-1 15-.2 2.1.1 4.3 0 6.4-.1 2.6-.2 5.2-.2 7.8-.4 10.5-.2 21.2-1.5 31.7-2 17.6-8.2 34.5-15.4 50.7-2 4.6-4.6 9.5-9.2 11.3-4.9 1.9-10.6-.4-14.1-4.2-3.5-3.8-5.5-8.8-7.3-13.7"/>
  <path fill="#f5c9a8" d="M299.13 416.35c.3-8.4-.1-16.9.4-25.4.5-10.4 1.5-20.8.3-31.2-.6-5.4-2.6-10.9-8.2-12.8-5.9-2-13.4 5.6-16 9.9-3.5 5.9-4 15.1.1 20.9 4.2 5.9 7.4 12.4 9.6 19.3.8 2.4 1.5 4.8 2.1 7.3.8 4.2 1.3 8.5 1.5 12.8l2.1 30.8c-2 0-3.7 1.6-3.9 3.6 0 .5 4.5 0 4.9-.1 2.4-.4 3.7-.7 4-3.3 1.3-9.7 2.5-19.4 3-29.2 0-.9.1-1.7.1-2.6m65.4-27c-3.7-4.6-6.9-9.5-8.4-15.3-.8-3-1.2-6.2-1.1-9.3.1-8.1 3.4-16.6 7.9-23.1 4.2-6.2 12.6-6.5 19.3-5.6 5.1.7 10.2 1.9 14.6 4.5s7.9 7 8.6 12.1-1.6 10.2-3.8 14.9c-2.1 4.7-4.3 9.3-6.5 13.9-2.6 5.5-5.2 12-2.5 17.5 2.5 5 8.9 7.7 9.8 13.2.2 1.3.2 2.6 0 3.9-1.1 11.4-2.1 22.9-3.2 34.3-.1.9 0 2.5-1.2 2.5-1.9 0-4.9.7-6.8.2-1.3-.4-2.1-1.5-.5-2.7.7-.6 2.9-.8 3.4-1.4.7-.8.1-4.3.1-5.4 0-3.5-.2-7-.6-10.5-.2-2.7-.7-5.4-1.6-8-1.4-3.2-3.3-6.2-5.6-8.8-7.1-9.1-14.6-17.9-21.9-26.9"/>
  <path fill="#ffe2bf" d="M270.13 361.15c-2.3-12.5-1.8-25.3-.6-38 .1-1.4.3-2.7.4-4.1 1.2-11.5 11-16 22.9-12.6 3.5 1 6.8 2.2 10.1 3.6 7.9 3.3 15.5 6.9 23.9 8.4 9.2 1.6 19.4-.3 28.8-.8 5.6-.4 11.2-.5 16.8-.2 4.8.4 9.5 1.2 14.1 2.2 11.9 2.5 24.4 5.9 32.6 14.3 2.8 2.7 4.8 6.1 5.8 9.8 2.2 9.6-2.4 19-11 24.3-5 3.2-10.7 5-16.6 5.2-6.7.1-13.1-2.3-19.7-3.2-5.2-.5-10.4-.5-15.6.1-11.7 1.1-23.3 3.4-34.6 6.9-8.6 2.6-17 5.9-25.9 6.8-8.9.9-18.8-1-24.7-7.3-4-4.2-5.7-9.9-6.7-15.4"/>
  <path fill="#ffe2bf" d="M382.63 394.15c-3.7-4.5-6.9-9.5-8.5-15.2-.8-3-1.2-6.2-1.1-9.3.1-8.1 3.4-16.6 7.9-23.1 4.2-6.2 12.6-6.5 19.3-5.6 5.1.7 10.2 1.9 14.6 4.5s7.9 7 8.6 12.1-1.6 10.2-3.8 14.9l-6.5 13.9c-2.6 5.5-5.2 12-2.5 17.5 2.5 5 8.9 7.7 9.8 13.2.2 1.3.2 2.6 0 3.9l-3.2 34.3c-.1.9 0 2.5-1.2 2.5-2.4.1-4.8.2-7.2.5-2.8.3-1.7-2.7.1-3.5 1.1-.5 2.1.1 3.1-.2-1-5.7-.6-11.2-.6-17 0-5.7-.5-11.7-3.7-16.5-1.6-2.3-3.5-4.3-5.6-6.1-3.7-3.4-7.9-6.6-11.2-10.3-2.9-3.3-5.5-7-8.3-10.5m-72 28.5c.1-4.4 0-8.7-.1-12.9-.8-14.6 2.2-29.1.5-43.7-.6-5.4-2.6-10.9-8.2-12.8-4.3-1.5-10.9 1.5-14.3 4.2-3.7 2.9-6.4 7-7.5 11.6-1.1 4.7-.5 11.5 2.7 15.3 3.6 4.1 8.2 6.9 11.1 11.7 2.9 4.7 4.2 10.3 5.2 15.8 2.2 12.5 3 25.2 3.7 37.8 0 .2 0 .3-.1.5s-.4.3-.6.4c-1.8.7-3 2.4-3.2 4.3 0 .2 0 .4.1.6.3.3 7.9.5 8.1-1.1 1.4-10.5 2.3-21.1 2.6-31.7"/>
  <path fill="#ff6a66" d="M272.53 318.45c-.5-.2-.9-.6-1.2-1.1-1.9-1.6-2.3-3.6-2-5.9 0-.6.2-1.3.7-1.7s1.4-.3 2-.5c.7-.3 1.5-.6 2.3-.8 1.2-.4 2.4-1 3.5-1.6 2.3-1.1 4.8-1.3 7.2-2 3.4-1 7.1-.3 10.5.3 1 .2 2.5 0 3.2.8.8 1.1 1.1 2.4 1.1 3.7.2 2.9-1.8 5.4-4.1 7-1.7 1.2-3.6 2.2-5.6 2.8-2.3.8-4.7 1.2-7.1 1.3-3.1.3-6.3-.2-9.1-1.6-.5-.2-1-.4-1.4-.7"/>
  <path fill="#ffe2bf" d="M275.53 280.95c8.8-1.7 25.2-.9 26.4 13.1.2 3-.9 6-1.8 8.7-1.2 3.7-3.2 7-6 9.7-2.4 2.1-5 3.8-7.8 5.1-2.6 1.3-5.7 1.5-8.5.6-4-1.4-7-6.3-9-9.8-2.1-3.6-1.6-7.2-2-11.2-.4-3.3-1.3-6.7-.1-10 1.4-3.8 5.3-5.5 8.8-6.2"/>
  <path fill="#f5c9a8" d="M294.63 288.95c-.1-2.1.2-4.1.9-6 2.3-5 7.1-2.5 10.2-.4.5.3.9.6 1.4 1l.1.1c1 .8 1.8 1.7 2.3 2.8.7 1.9.7 4 .1 6-.1.5-.3 1-.4 1.5-1 4.3-2.8 8.4-5.2 12.2-.3.5-.8 1-1.3 1-.3-.1-.6-.1-.8-.3-2.8-1.5-4.8-4.5-5.9-7.7-1-3.3-1.4-6.7-1.4-10.2m-34.6 3.7c-.8-4.8-.8-10.4 1.2-13.5 2.2-3.5 9.6-3.5 11.7.4.5 1.1.6 2.3.4 3.5-.1.6-.2 1.2-.3 1.9s-.3 1.3-.5 2c-.2.8-.5 1.6-.8 2.4 0 .1-.1.3-.1.4-1.3 3.4-2.9 6.8-4.3 9.9-.1.1-.1.3-.2.4-.1.3-.3.5-.4.8-.2.4-.5.8-.9 1-.3.1-.5.2-.8.2-.6 0-1.1-.2-1.6-.6-.7-.6-1.2-1.4-1.5-2.2-.8-1.7-1.3-3.6-1.7-5.5-.1-.3-.1-.7-.2-1.1"/>
  <path fill="#ffe2bf" d="M414.13 344.95c-1.2-2.8-1.3-5.3 1-6.7 4.9-2.9 8.3 3.8 10.3 9.5.8 2.4 1.4 4.6 1.8 5.9.9 3 1.6 5.9 2.4 8.9l1.8 6.9c.6 2.1 1.2 4.2 1.9 6.3 2.4 7.2 5.8 14.3 11.3 19.6-5.4-.9-9.1-5.8-11.5-10.6-1.5-3.2-2.9-6.4-4-9.7-.8-2.5-1.7-5-2.6-7.5-.9-2.4-1.8-4.8-2.9-7.1-.2-.6-.5-1.1-.8-1.7s-.6-1.1-.9-1.7c-1.3-2.3-5.9-7.6-7.8-12.1"/>
  <path fill="#3e3839" d="M286.83 291.05c-1.4 1-1.1 2.8-.7 4.2.7 2.9 3 6.2 6.4 4.7.6-.2 1.1-.7 1.3-1.3.3-.5.5-1 .6-1.6.3-3.2-2.3-7.8-6-6.5-.6 0-1.1.2-1.6.5"/>
  <path fill="#312b2c" d="m288.23 293.25-.3.3c-.1.3-.3.6-.3.9-.1.4.1.8.3 1.2.6 1 1.9 1.2 2.9.6.4-.4.5-1 .3-1.6-.1-.3-.2-.5-.4-.7 0-.2-.1-.3-.2-.4-.6-.6-1.6-.7-2.3-.3m-14.9-.7c-.4.8-.3 1.8.3 2.6.7.6 1.7.7 2.5.3l.1-.1c.8-.7.9-1.8.2-2.6-.2-.3-.4-.4-.7-.6-.8-.4-1.8-.3-2.4.4"/>
  <path fill="#3e3839" d="M304.03 353.55c-.9.8-1.3 2-1.1 3.1 0 .1.1.2.2.3 0 .8.1 1.6.2 2.4.2 1.3 2.8 1.3 3.5.5 1.6-1.6 2.2-3.9 1.6-6.1 0-.1 0-.2-.1-.3 0-.1-.1-.1-.1-.2-.6-.6-1.5-.9-2.3-.7-.5.1-.9.4-1.3.7l-.6.3m.3-20.7q0 .1.2.1c0 .2 0 .5-.1.8-.1.3.3.6.5.7.4.2.8.3 1.3.3.4 0 .9-.1 1.3-.3.2-.1.4-.4.5-.7.2-.7 0-1.4-.3-2-.4-.7-1.6-.8-2.3-.7-.4.1-.8.2-1.1.5-.2.2-.3.5-.2.8.1.2.1.3.2.5m39.6-1.5c-1.1 1.4-1.5 3.3-1.2 4.9.2.8 1.7.8 2.3.7h.3c.7 0 1.4-.2 1.9-.6 1.4-.7 2.3-2.1 2.3-3.7.2-.6.2-1.3-.1-1.9-.5-1-2-1.2-3-1s-1.9.8-2.5 1.6m18.2-.9c-.5.2-1.2.7-1.1 1.3v.6c.1.5.2.9.5 1.3.2.8.7 1.5 1.3 2 .8.6 3.3.9 3.5-.5.2-1 0-2.1-.6-3 0-.3-.2-.6-.5-.7-.1-.2-.4-.4-.6-.6-.7-.6-1.6-.7-2.5-.4m35.6 24.4c-1 2.1-1.3 4.5-1 6.9.3 1.2 2.8 1.3 3.5.5.3-.4.6-.8.9-1.3 1.4-.8 1.1-3.4.9-4.9-.1-.9-.4-1.7-1.4-1.9h-.7c-.9-.1-1.9.1-2.2.7m4.8 43.6c-.5 0-2.1.2-1.8.9l.8 3.6c.2 1.4 3 1.4 3.6.3.7-1.4.5-3.1-.6-4.3-.3-.2-.7-.4-1.1-.4-.3-.1-.6-.1-.9-.1m-20.9-19.5c-.1 1.5.3 2.9 1.2 4.1.6.9 3.4 1.2 3.6-.3.3-1.7-.2-3.5-1.3-4.8-.8-.9-3.9-.4-3.4.8-.1 0-.1.1-.1.2m31.8-41.1c-1.6 1.5.1 3.6 1.1 5 .6.9 1.7 1.4 2.8 1.3 1 0 2.2-.5 2.4-1.6.2-1.2-.7-2.6-1.6-3.7 0-.7-.6-1.2-1.4-1.4-.7-.4-1.5-.5-2.3-.2-.3.1-.5.2-.7.4-.1 0-.2.1-.3.2m-28.8-2.1c-.3 1.5 0 3.1 1.7 3.4 3.4.5 5-3.8 4.1-6.4-.1-.3-.3-.5-.6-.6-.2-.1-.3-.2-.5-.3-.8-.3-1.8-.1-2.5.4-1.1.9-1.9 2.1-2.2 3.5m13.7-6.6c-.6 0-1.9.2-1.9 1s1.3 1 1.9 1 1.9-.2 1.9-1-1.3-1-1.9-1m-18.2-5.1c-.6 0-1.9.2-1.9 1s1.3 1 1.9 1 1.9-.2 1.9-1-1.3-1-1.9-1m-15.6 30.3c-.1.1-.2.1-.2.3-1.4.9-1.8 2.8-.9 4.3.9.9 2.4 1 3.4.2 1.3-1 1.8-2.6 1.5-4.2-.2-.8-1.2-1-1.9-1-.4 0-.8.1-1.2.2-.3 0-.5.1-.7.2m-44.1-32.9c-.6 0-1.8.2-1.9 1-.1.3.3.6.5.7.4.2.8.3 1.3.3h.3c.7 0 1.8-.2 1.9-1 .1-.3-.3-.6-.5-.7-.4-.2-.8-.3-1.3-.3h-.3m13.3 38.1c-.5 0-1.9.2-1.9 1s1.3 1 1.9 1 1.9-.2 1.9-1-1.3-1-1.9-1m-35 31.7c-.6 2 .2 4.1 1.9 5.2.9.6 3 .5 3.2-.7.4-1.8-.2-3.6-1.5-4.9-.7-.5-1.7-.6-2.5-.3-.5 0-.9.3-1.1.7m-12-15.2c-.3.1-.5.4-.5.7v.6c0 .3.2.6.5.7.4.2.8.3 1.3.3.4 0 .9-.1 1.3-.3.2-.1.5-.4.5-.7v-.6c0-.3-.2-.6-.5-.7-.4-.2-.8-.3-1.3-.3-.4 0-.9.1-1.3.3m-11.1-29.9c-1.4 1.5-1.4 3.8-.1 5.2.8.9 2.8.6 3.4-.2 1-1.5 1.3-3.4.8-5.1-.3-.9-2.3-1-3.2-.4-.3.1-.6.3-.9.5m11.9-9.9c-.3.1-.5.4-.5.7v.3c0 .3.2.6.5.7.4.2.8.3 1.3.3.4 0 .9-.1 1.3-.3.2-.1.5-.4.5-.7v-.3c0-.3-.2-.6-.5-.7-.4-.2-.8-.3-1.3-.3-.4 0-.9.1-1.3.3m5 17.1c-.5 0-1.9.2-1.9 1s1.3 1 1.9 1 1.9-.2 1.9-1-1.3-1-1.9-1m27.1-12.1c-1.2 1-1.9 2.6-1.6 4.3.1 1.5.2 3.3 1.9 3.8.9.2 1.9.1 2.7-.3 2.5-.5 4.2-2.8 4-5.3-.2-3.5-4.5-4.4-7-2.5m0-9.2c-.3.4-.2.9 0 1.2.3.3.8.5 1.2.5.5.1 1 0 1.5-.1.6-.2 1.1-.6 1.1-1.2-.1-.3-.2-.6-.3-.8v-.1c.1-.3-.3-.6-.5-.7-.4-.2-.8-.3-1.3-.3-.4 0-.9.1-1.3.3-.2.1-.4.4-.5.7 0 .2 0 .4.1.5m21.8 17c-.6 0-1.8.2-1.9 1-.1.3.3.6.5.7.4.2.8.3 1.3.3h.3c.7 0 1.8-.2 1.9-1 .1-.3-.3-.6-.5-.7-.4-.2-.8-.3-1.3-.3h-.3m73.1 79.3c-.6 0-1.9.2-1.9 1s1.3 1 1.9 1 1.9-.2 1.9-1-1.3-1-1.9-1m-6.7-56.2c-1.6.8-2.6 2.4-2.5 4.2.1 1.2 2.5 1.2 3.2.7 1.1-.7 2-1.8 2.4-3.1 0-.2 0-.4-.1-.6.2-.4.1-.9-.4-1.2-.8-.4-1.8-.4-2.6 0m-100.8-85.2c-.2-1.1-.2-2.3.2-3.5l.1.1c1 .8 1.8 1.7 2.3 2.8.7 1.9.7 4 .1 6-1.6-1-2.5-3.5-2.7-5.4m-3.9 7.2c-.3.2-.3.5-.2.8l.2.4c.2.3.5.5.9.6s.9.2 1.4.1c.4-.1.8-.2 1.1-.5.2-.2.3-.5.2-.8l-.2-.4c-.2-.3-.5-.5-.9-.6s-.9-.2-1.4-.1c-.4.1-.8.2-1.1.5m-3.4-6.5c-.2.5-.2 1 0 1.4.1.3.6.5.9.6.4.1.9.2 1.4.1.8-.1 1.5-.5 2-1.2.3-.5.3-1.1.1-1.6-.2-.3-.6-.5-.9-.6-.4-.1-.9-.2-1.4-.1-.1.1-.2.1-.3.1-.2 0-.5.1-.7.2-.5.3-.9.6-1.1 1.1m-39.7 5c1.2-1.2 3.7-.8 4.9.6.9 1.1 2 3.2 1.5 4.5.4.6.6 1.3.9 1.9-.1.1-.1.3-.2.4-.1.3-.3.5-.4.8-.2.4-.5.8-.9 1-.3.1-.5.2-.8.2-.6 0-1.1-.2-1.6-.6-.7-.6-1.2-1.4-1.5-2.2-.8-1.7-1.3-3.6-1.7-5.5-.1-.3-.1-.7-.2-1.1m.8-6c-.2.7 0 1.4.4 2 .8.6 2 .7 2.9.2.7-.4 1.1-1.1 1.2-1.8.1-.7-.2-1.4-.7-1.8s-1.1-.6-1.8-.5c-.4 0-1.3.2-1.5.7-.1.2-.2.4-.2.6l-.3.6m5.9-9.1c-.5 0-1.9.2-1.9 1s1.3 1 1.9 1 1.9-.2 1.9-1-1.3-1-1.9-1m3.5 11.2c-.4-.7-.9-1.9-.6-2.7.1-.2.2-.3.3-.4.1-.5 1-.9 1.4-.9.5 0 1.1 0 1.6.2-.1.7-.3 1.3-.5 2-.2.8-.5 1.6-.8 2.4 0 .1-.1.3-.1.4-.4-.1-.8-.3-1.1-.7 0-.1-.1-.1-.1-.2l-.1-.1m22.7 14.1c-.4.3-.7.7-.9 1.2 0 .4.3.8.7.9.7.3 1.6.3 2.2-.2.3-.2.5-.6.6-1 .1-.1.1-.3 0-.4l-.1-.2c-.1-.2-.2-.3-.4-.3-.1 0-.1-.1-.2-.1-.6-.3-1.3-.2-1.9.1m-16.3-18.7v.4c.2.3.5.6.8.7.1 0 .2.1.3.1.2 0 .4 0 .6-.1.1 0 .2-.1.2-.2.1-.2-.1-.4-.2-.6l-.1-.1v-.1c-.2-.2-.4-.4-.7-.5s-.6-.1-.8 0c-.1.1-.2.3-.1.4m10.9-1.7c-.3.1-.9.4-.6.7.2.2.5.2.7.1.2-.1.3-.3.3-.5q.1-.1.1-.2c-.1-.1-.4-.1-.5-.1m-25.4-1.3c-.5.3-.7.8-.4 1.4.1.2.6.1.7 0 .3-.3.4-.7.4-1.1l-.1-.1c.1-.2-.4-.3-.6-.2m148.7 75.2c-1 1.2-1.2 4.6 1 4.6 1.9 0 3.1-3.3 1.7-4.6-.1-.1-.2-.1-.3-.2-.7-.6-1.8-.5-2.4.2m-1.6-4.8c-.5.6-.7 1.3-.7 2.1.1.5 1 .5 1.4.4.3-.1.6-.2.8-.4.4-.2.7-.5.9-.8.4-.5.4-1.3-.1-1.7-.7-.5-1.7-.3-2.3.4m-137.1-25.4c-.1 1.1.6 2.6 1.7 2.7h.3c.6-.1 1-.6.9-1.2 0-.6-.2-1.1-.5-1.6-.2-.4-.7-.5-1.1-.4-.3 0-.5 0-.8.1-.3 0-.5.2-.5.4"/>
  <path d="M289.63 315.55c-.4.4.1 1 .3 1.3 0 0 0 .1.1.1.1.3.2.6.4.9.1.4.4.7.7 1-.1 0 0 .1 0 .1.1.2.3.2.5.2h.3c.2-.1.3-.1.4-.1.5 0 1-.2 1.5-.4.5-.1 1-.4 1.4-.7.9-.5 1.5-1 1.3-1.8-.2-.6-.3-1.2-.6-1.8l-.6-1.5c-.2-.3-.4-1.1-.9-.8l-1.2.9c-.4.3-.8.7-1.2 1-.7.6-1.7 1-2.4 1.6m4.4-2c.6.8 1 1.7 1.2 2.6-1.1.8-2.2 1.4-3.4 1.8l-.6-1.1c-.4-.4-.4-1.1-.2-1.6.9-.6 2-1.2 3-1.7" class="vdw-7"/>
  <path d="M294.23 315.15c-.5-.1-.9.2-1.1.7 0 .2.4.2.5.2.4 0 .6-.2.8-.5q.1-.1.1-.2c0-.1-.2-.2-.3-.2m2.5-2.7c-.1 0-.2.1-.3.2-.1.2.1.5.3.5.3.1.5.1.7-.1 0 0 .1 0 .1-.1.1 0 .1-.1.1-.1 0-.1 0-.3-.2-.4s-.5-.1-.7 0m1.1-2.4c0 .2.1.4.3.4.2.1.5.1.7-.1.1-.1.1-.2 0-.3v-.1c0-.2-.4-.2-.5-.2-.2 0-.4.1-.5.3" class="vdw-7"/>
  <path fill="#3e3839" d="M275.23 311.85c-.1-.1-.4 0-.5.1.6.8 1.4 1.4 2.3 1.6.4.1.8.1 1.2.1.7 0 1.5.1 2.2.3 1.7.6 3.5 0 4.6-1.3.1-.1-.2-.2-.3-.1-.5.7-1.3 1.2-2.2 1.4-.9.1-1.8-.1-2.6-.4-.1-.1-.2-.1-.3-.1-.1-1.5-.1-3 .2-4.5.9.1 1.7.1 2.6.1.5 0 .9-.1 1.3-.2 1-.3 1.8-1.2 1.2-2.3-.7-.9-1.7-1.4-2.8-1.5-.4-.1-.9-.1-1.3-.1-1.2-.3-2.4-.2-3.5.3-.9.3-1.6.8-1.5 1.5.1.5.4 1 .9 1.3.9.5 1.8.8 2.8.9-.2 1.5-.3 3-.2 4.5h-1.3c-1.1-.1-2.2-.7-2.8-1.6"/>
  <path fill="#fda17b" d="M338.83 220.25c-.6.8-2 .6-2.6-.2-.6-1-.2-2.1.2-3 .2-.6.3-1.2.4-1.8 0-.5.1-1 .2-1.5.2-.5.6-.9 1.1-.9.2 0 .4.1.5.2s.2.2.2.3c.5 1.4.8 2.8.7 4.2-.1.6-.3 1.1-.4 1.7-.1.4-.1.7-.3 1"/>
  <path fill="#fda17b" d="M333.63 220.55c-.2-.1-.5-.1-.8-.4-.6-.3-.9-1-.8-1.7.2-.5.5-.9.9-1.2.6-.6 1-1.4 1.3-2.2.3-.7.3-1.5 1-1.9.4-.3 1-.2 1.4.2.2.2.3.5.3.7.1.9 0 1.8-.1 2.7-.1.8-.3 1.6-.7 2.3-.3.5-.8 1-1.4 1.3-.4.2-.7.2-1.1.2m8.3-4.8c-.2-1-1.3-2.6-2.3-1.5-.3.3-.2.9-.2 1.3 0 .7-.2 1.4-.4 2.1-.1.4-.2.9-.2 1.3s.2.8.6 1.1c.3.2.7.3 1.1.1.3-.1.6-.4.8-.7.7-1.1.9-2.4.6-3.7"/>
  <path fill="#fda17b" d="M330.33 219.15c-.1-.3-.1-.6 0-1 .4-1.3 1-3.3 2.7-3.4.2 0 .5.1.6.3v.2c.2 1.3-.2 2.5-.9 3.6-.4.5-1.8 1.5-2.3.5-.1 0-.1-.1-.1-.2"/>
  <path fill="#3e3839" d="M466.33 319.15c-1.4-12.7-3.1-25.4-4.7-38.2-2.6-17.2-7.7-35.3-7-52.8.1-1 0-2-.3-2.9-.3-.9-1.2-1.6-2.2-1.6-3 .2-1 11.5-.7 13.5 0 2.3.8 4.9 1.1 7.2l1.2 7.8c1 6.6 1.8 13.2 3 19.8 3.6 19.9 6.3 39.8 5.7 60 0 1.9-.1 3.8-.2 5.7-.8 15.1-2.4 30-4.9 44.9-.4 3.1-1.2 6.1-2.5 8.9-1.2 2.5-3.3 4.5-5.8 5.5-1.2.8-2.7 1.1-4.1 1.1-1.5-.2-2.8-1.1-3.5-2.4-.8-1.3-1.3-2.7-1.5-4.1-1-4.6-1.3-9.2-.9-13.9.5-4.4.7-8.8 2-13.2.5-1.8 1.1-3.6 1.8-5.3.7-1.4 1.1-2.9 1.1-4.5-.2-2-2.3-4.1-4.2-2.7s-2.5 8.3-2.9 10.5c-1.2 7.1-1.7 14.4-1.5 21.6 0 4.9.3 9.9 2.9 14 8 12.6 19.3-1.2 22.8-9.5 9.2-21.6 7.9-46.1 5.3-69.4"/>
  <path fill="#785c4d" d="M482.23 431.05c-1.5-3-2.8-6.2-3.8-9.5-1.5-4.1-2.6-8.4-3.7-12.7-2-8.2-3.8-16.7-7.2-24.5-1.9-4.2-4.9-8.3-10-8.5-5.5-.2-9.8 7.9-11.1 12.4-2 7 3.1 15.4 7.3 20.6 5.9 7.3 13.4 12.9 18.7 20.9 3 4.3 5.2 9.1 6.7 14.1.7 2.5 1.2 5 1.4 7.6.3 3.3-1 3.9-2.9 6.4-.4.5-.8 1.1-1 1.8-1.4 4.5 8.5 3.8 10.1.8.3-.7.4-1.4.3-2.2-.3-5.3-.6-10.5-1-15.8 0-3.3-.9-6.4-2.6-9.2-.4-.7-.8-1.5-1.2-2.2m62.5-22.3c-3.2-4-6.1-8.1-7.1-13-.7-2.6-1-5.3-.9-8 .1-7 2.9-14.3 6.8-20 3.7-5.3 10.9-5.6 16.7-4.8 4.4.6 8.8 1.6 12.6 3.9s6.9 6.1 7.5 10.5c.6 4.5-1.4 8.8-3.3 12.9l-5.7 12c-2.3 4.8-4.6 10.5-2.2 15.2 2.2 4.3 7.7 6.7 8.5 11.4.2 1.1.2 2.3 0 3.4-1 9.9-1.9 19.8-2.8 29.7-.1.7 0 2.1-1 2.1-2 0-9.8 1.5-10.1-1.5-.3-3.3 2.9-3.4 4.9-4.3 1.8-.9 1.3-2.5 1.3-4.5 0-1.8.1-3.7.1-5.5 0-4.1.1-8.2-.9-12.1-1.4-5.4-5.1-8.8-9.3-12.1-4.8-3.8-9.2-8-13-12.7-.7-.9-1.4-1.7-2.1-2.6"/>
  <path fill="#906e5c" d="M441.13 359.05c-.4.7-.9 1.3-1.9 1.6.3-1.8.9-3.6 1.4-5.4.8-2.3 1.3-4.8 1.7-7.2.3-3 1.5-5.8 3.4-8 4.2-4.5 11-4.6 16.5-3 2.8.9 5.6 1.9 8.3 3 1.3.6 2.7 1.1 4 1.7 3.9 1.5 8 2.2 12.2 2-.3.8-.9 1.6-1.5 2.2 2.7.3 5.4.5 8.1.8.2 0 .4.1.5.2.2.3-.3.7-.6.7s-.8 0-1 .3c.2-.2 4.9-.2 5.6-.2 1.8.1 3.7.2 5.5.1l3.6-.3c3.2-.3 6.5-.6 9.7-.8 4.9-.4 9.7-.5 14.6-.2 4.1.4 8.2 1 12.2 1.9 5.7 1 11.2 2.7 16.6 4.8 4.3 1.8 8.3 4.3 11.6 7.6 2.4 2.3 4.1 5.3 5 8.5 1.9 8.2-2.1 16.4-9.6 21-4.2 2.8-9.2 4.3-14.3 4.5-5.8 0-11.3-2-17-2.8-4.5-.5-9-.4-13.5.1-10.2 1-20.2 3-30 6-7.4 2.3-14.6 5.1-22.4 5.9-7.8.8-16.3-.9-21.4-6.3-3.3-3.4-5.3-8.6-6-13.3 0-.3-.1-.5-.1-.8-.2.8-.4 1.7-.6 2.5-.4-5.6-.9-11.1-1.3-16.7-.3.6-.5 1.2-.8 1.8-.3-4.1.2-8.3 1.5-12.2"/>
  <path fill="#906e5c" d="M527.63 393.75c-.5.6-.9 1.2-1.2 1.8.2-4.2 1.9-7.9 2.9-11.9 1.1-4 2.9-7.9 5.4-11.3 3.6-5.3 10.9-5.6 16.7-4.8 4.4.6 8.8 1.6 12.6 3.9s6.9 6.1 7.5 10.5c.6 4.5-1.4 8.8-3.3 12.9l-5.7 12c-2.2 4.8-4.5 10.5-2.1 15.2 2.2 4.3 7.7 6.7 8.5 11.4.2 1.1.2 2.3 0 3.4-1 9.9-1.9 19.8-2.8 29.7-.1.7 0 2.1-1 2.1-1.9 0-9.1 1.1-10.1 0-.2-.3-.6-.5-.8-.2.3-1.5 1.4-2.6 2.8-3s2.8-.5 4.2-.3c-.1-3.7-.3-7.5-.5-11.3-.1-3-.3-6.1-.4-9.2-.1-2.7-.3-5.6-1.7-8-1.4-2.3-3.6-3.8-5.7-5.4-1.9-1.5-3.7-3.1-5.3-4.9-1.3-1.3-2.4-2.6-3.6-3.9-2.2-2.5-5.1-4.4-7.3-6.9-.3-.4-.8-.9-1.2-1.4-1.1-1.1-1.9-2.5-2.5-4 .1.7.3 1.5.5 2.2-2.3-2.8-3.9-6.1-4.6-9.7-.3.7-.5 1.4-.5 2.1-1.2-3.5-1.5-7.3-.8-11m-80.1 62.7c-.7 3.7 6.5 1.9 8.1.1 1-1.2 1.7-2.5 2.2-4 1.4-2.7 3.6-4.9 6.3-6.3 2.4-1.3 3.6-3.4 4.4-6.2.8-3.1 1-6.6 1.5-9.6 2.1-13 7.3-25.3 8.4-38.4.4-4.7-.3-9.7-4.7-12.3-3.5-2.1-9.5-.6-12.9 1-8.5 4-12.3 14.2-8.4 22.8 1.5 3.6 4.7 6.2 6.4 9.7 2.2 4.2 1.6 9.1 1.5 13.8-.2 4.2-.4 8.7-2.9 12.1-.9 1.3-2.1 2.3-3.2 3.5-1.2 1.3-2.1 2.8-2.8 4.4-.5 1.5-.3 3.2-.9 4.7-.5 1.5-1.9 2.2-2.6 3.6-.2.4-.3.7-.4 1.1"/>
  <path fill="#64b4ff" d="M442.13 353.75c-.5-.4-.9-.8-1.1-1.5-.7-1.9-.5-4 .4-5.8 1.2-2.4 2.7-4.6 4.5-6.5 2.7-2.9 6.6-4 10.5-3.9 1.9.1 3.8.4 5.7.9 2.1.5 4.6 0 6.8.3.6.1 1.2.3 1.8.6 1.4.9.4 3.2-.1 4.4-2.8 6.2-7.4 11.3-14.4 12.6-2.1.4-4.3.2-6.4.4-1.7.3-3.5.2-5.2-.3-.9-.2-1.7-.6-2.5-1.2"/>
  <path fill="#785c4d" d="M430.83 327.15c.5-.6 1-1.1 1.6-1.6.1 1.1.3 2.2.6 3.2 1.8-2.2 3.2-4.5 4.5-7 .9-1.9 2.3-3.4 3.5-5.3 1.6-2.6 3.2-6.9-1.3-7.4-4-.5-9.2 5.8-11.1 8.8-2.7 4.4-3.7 9.1-5.6 13.8l2.8-3.2c.4 1.3.5 2.7.3 4 1.5-1.9 3-3.6 4.7-5.3"/>
  <path fill="#906e5c" d="M439.33 351.55c-1.6.2-3.2-.4-4.2-1.6-1-1.2-1.6-2.7-1.7-4.3-.2-2.2-.2-4.4 0-6.5.4-1.8.5-3.5.6-5.3-.1-2-.4-3.9-.5-5.9-.2-7 3.8-15.1 11.1-16.6 1.6-.2 3.1-.3 4.7-.2-.1-.3-.3-.5-.5-.7l5.1.4c-.2-.4-.6-.8-.9-1.2 8.2 2.4 19.2 4.3 20.2 14.8.4 3.6-.9 7.4-2.3 10.7.5 0 1.1.1 1.1.6 0 .4-.6.6-.9.8s-.7.6-.5 1c.2.4 1 .3 1.2.7.4.8-4.8 2.6-5.5 3 .2.3.5.5.9.6.3.2.6.5.5.9-.1.2-.3.4-.6.4s-.5-.1-.8-.1c-.7-.1-1.3.1-1.8.5l.6 1.6c-2-.2-4.2-.3-5.9.8-1.5.9-3.1 1.6-4.5 2.6-1.7 1.3-3.5 2.2-5.5 2.8-3.6 1-10.4 2.2-13.3-1.1-.5-.5-.8-1.1-1.1-1.8-.8-1.6-1.3-3.3-1.5-5.1v-2.7l6 10.9Z"/>
  <path fill="#785c4d" d="M474.63 316.05c-1-.9-2.2-1.7-3.7-2.5-.8-.5-1.7-.8-2.6-.9-3.9-.1-2.4 5.4-2 7.7.6 2.1 1.4 4.1 2.5 6 .5 1 1 1.9 1.7 2.7.2.2 2 1.5 2 1.7v-2.3c2.4 2.3 4.8 4.7 7.9 5.7v-1.6c0-.1 0-.3.1-.4.2-.1.3-.1.5 0l4.1 1.4c0-.6 0-1.3.1-1.9 1 .5 2 .9 3 1.2.5.2 1.4.1 1.8.4-6-4.7-9.6-12.3-15.4-17.2"/>
  <path fill="#906e5c" d="M537.83 343.55c-.1-2.2.9-4.2 2.6-5.5-2.2 1.5-4.8 2.4-7.4 2.9.2-3.3 1.1-6.5 2.5-9.5.2-.2.3-.5.5-.7h-.1c4.5-6.9 14.6-9.4 21.9-5.6-1.7-1-3-2.5-3.8-4.3 4.5 1 9 2.5 13.2 4.4 4.2 2.1 8 5.2 10 9.4-1.3-2.8-2.5-5.6-3.8-8.4 4.4 2.4 7.4 6.2 10 10.3 1.9 3.1 4.6 9.3 3.5 13.1.9-2.6 1.5-5.4 1.8-8.2 3.5 8.5 4.2 17.9 1.9 26.9 2.2-3.2 3.9-6.6 5-10.3 1.7 3.9 2 8.4.7 12.5 0 .2 0 .3-.1.5-1.3 3.9-3.5 7.5-6.3 10.5-3.1 3.5-7 4.1-11 3.3-1.6-.4-3.2-.8-4.8-1.4-.2 0-.4-.1-.6-.2-.8.1-1.7.2-2.5.1-3.3-.3-6.3-1.9-8.3-4.5-2-2.7-2.8-6.2-2.3-9.5.1-.9.4-1.8.7-2.7.5-1.2 1-2.3 1.7-3.4 1.2-2.1 2.5-4.1 2.7-6.5v-.5c-.1-2.9-1.3-5.7-3.5-7.7-2.3-2.1-5-3.7-7.9-4.7-3.8-1.5-8.2-2.6-12.1-1.9-1.5.2-2.9.8-4.2 1.6"/>
  <path fill="#a58170" d="M506.93 347.65c3.3-.3 6.5-.6 9.6-.8 4.9-.4 9.7-.5 14.6-.2 4.1.4 8.2 1 12.2 1.9 5.7 1 11.2 2.7 16.6 4.8 1.1 1 1.7 2.4 1.9 3.8.2 2.2-1 4.2-2.2 6.1-2.1 3.3-4.3 6.7-7.9 8.1-2.1.7-4.4.9-6.6.6-5.8-.6-11.2-3.2-15.4-7.2-3.3-3.1-6.1-7.3-10.6-8.1-1.4-.2-2.9-.1-4.4-.3-3.8-.5-7.8-4.6-7.8-8.7m40.6 78.8c.3-.1.6-.3 1-.4 2.9-.8 5.9.3 7.7 2.7.7 1.3 1.3 2.6 1.9 4 2.1 4.1 6.7 7.1 6.8 11.7 0 1.5-.4 3.1-1 4.5-.7 1.9-1.7 4-3.3 5-.1-3-.3-6.1-.4-9.2-.1-2.7-.3-5.6-1.7-8-1.4-2.3-3.6-3.8-5.7-5.4-1.9-1.5-3.7-3.1-5.3-4.9"/>
  <path fill="#312b2c" d="M436.63 345.25c-.2-.3-1-.1-.8.3 2.5 2.8 6.6 3.3 10.1 2.1.5-.2-.1-.5-.4-.4-1.7.5-3.4.7-5.1.3-.1-1.2-.1-2.3 0-3.5.2.1.4.1.6.1 1.3.1 3.4.2 4.1-1.2 0-.1.1-.2.1-.3.1-.1.1-.3.1-.5 0-.6-.3-1.1-.8-1.4l-.3-.3-.3-.3c-1.5-.9-3.3-1.2-5-.9-1.7.3-2.9 1.8-1.6 3.3.7.7 1.5 1.2 2.4 1.4-.1 1.1-.1 2.3 0 3.4-1.2-.4-2.3-1.1-3.1-2.1m16.5-16.8c-.7.2-1.2.9-1.1 1.7 0 .6.2 1.2.6 1.7.1.1.3.1.4.2.9.4 1.9 0 2.3-.9l.3-.3s.1-.1.1-.2c.1-.2.1-.5.1-.8.1-.6-.1-1.1-.5-1.5-.7-.5-1.6-.4-2.2.1m-14.4-1.8c-.4.7-.5 1.6-.2 2.5 0 .3.3.4.5.5.2.1.4.1.6.1.8 0 1.5-.5 1.8-1.2s.2-1.4-.2-2c-.7-.7-1.8-.6-2.5.1"/>
  <path fill="#785c4d" d="M537.83 343.55c-.1-2.2.9-4.2 2.8-5.5-2.3 1.5-4.8 2.4-7.4 2.9.2-3.3 1.1-6.5 2.5-9.5.2-.2.3-.5.5-.7h-.1c4.5-6.9 14.6-9.4 21.9-5.6-1.7-1-3-2.5-3.8-4.3 4.5 1 9 2.5 13.2 4.4 4.2 2.1 8 5.2 10 9.4-1.3-2.8-2.5-5.6-3.8-8.4 4.4 2.4 7.4 6.2 10 10.3 1.9 3.1 4.6 9.3 3.5 13.1.9-2.6 1.5-5.4 1.8-8.2 3.5 8.5 4.2 17.9 1.9 26.9 2.2-3.2 3.9-6.6 5-10.3 1.7 3.9 2 8.4.7 12.5 0 .2 0 .3-.1.5-.7 1.2-1.5 2.4-2.4 3.5-2 2.4-4.3 4.6-6.8 6.4 1.2-4.4 1.3-9 .1-13.4-1.2 2.4-2.7 4.5-4.6 6.3 2-5.1 2.5-10.8 1.4-16.2-1.1-5.4-3.1-10.6-5.9-15.3.2 3.1.3 6.3.5 9.4-2.8-7.8-8-14.4-15-18.9l2.6 6.6c-4.3-4.4-9.9-7.2-15.9-8.2 1.5 1.3 2.6 3 3.2 4.8-3.2-1.6-6.8-1.9-10.2-.9.9.9 1.7 1.9 2.3 3.1-1.4 1-2.7 2.3-3.7 3.7-1.5.2-2.9.8-4.2 1.6m-98.4-20.3c-.1.1-.3.1-.1.3l.1.1c.4.5.9.9 1.4 1.2.3.2.7.3 1.1.3.2 0 .7 0 .6-.3-.1 0-.1-.1-.1-.1 0-.2 0-.4-.1-.5-.4-.4-.9-.8-1.4-.9-.4-.2-.9-.3-1.3-.2-.1 0-.1.1-.2.1m16.2 2.4c-.6-.7-3.7-.6-3.3.6.3 1.1 2.5 1.1 3.1.3.3-.2.5-.5.2-.9m.5-12.1c-.2-.2-1 0-.7.2 1.1.9 2.3 1.7 3.6 2.3.3.1 1-.1.6-.3-1.3-.6-2.4-1.4-3.5-2.2m-4.1 2.9c-.3-.1-.9.3-.4.4l2.9.9c.3.1.9-.2.4-.4l-2.9-.9m-8.9-1.6c-.2.1-.2.3 0 .4.9.4 1.8.6 2.7.7.1 0 .5 0 .5-.2s-.2-.3-.3-.3c-.8-.1-1.6-.3-2.3-.6-.2-.1-.4-.1-.6 0m1.1 51.4c-.3 2.4-.4 4.7-.4 7.1 0 .3.8.3.8 0 0-2.4.1-4.7.4-7.1 0-.3-.8-.3-.8 0m2.7 16.1c-.1-.3-.9-.3-.8.1l1.1 4.5c.1.3.9.2.8-.1l-1.1-4.5m5.4-13.6c0-.4-.8-.3-.8 0 0 1.5.1 3 .1 4.5 0 .3.8.3.8 0 0-1.5-.1-3-.1-4.5m-3.5-10.3c-.3 1.6-.5 3.3-.5 4.9 0 .3.8.3.8 0 0-1.6.2-3.3.5-4.9.1-.3-.7-.3-.8 0m47.4-3.5c-.5 0-.5.4 0 .5 1.8 0 3.6-.2 5.3-.6.5-.1.2-.5-.2-.4-1.7.3-3.4.5-5.1.5m-18.7-4.3c-.2-.1-1 .1-.6.3 1.8 1 3.8 1.7 5.8 2.1.4.1.7-.3.2-.4-1.9-.4-3.7-1.1-5.4-2m-14 3.6c-.2-.2-1 0-.7.2l4.1 3.3c.2.2 1 0 .7-.2l-4.1-3.3m16.3 29.7c-.2-.2-.9-.1-.8.1l2 3.6c.2.3 1 .2.8-.1l-2-3.6m-5.6 10c0-.3-.8-.3-.8 0v3.3c0 .3.8.3.8 0v-3.3m-4.6 1.1c-.1-.3-.9-.3-.8 0l.6 3.1c.1.3.9.3.8 0l-.6-3.1m-5.9-17.7c-.1-.4-.9-.3-.8 0l.6 4.2c0 .3.8.3.8 0l-.6-4.2m-6.7 8.3c-.1-.3-.9-.3-.8 0 .3 1.5.7 2.9 1.2 4.3.1.3.9.2.8-.1-.5-1.4-.9-2.8-1.2-4.2m78.3 1.7c-.4 1.7-.9 3.4-1.3 5.1-.1.3.7.3.8 0 .4-1.7.8-3.4 1.3-5 .1-.3-.7-.4-.8-.1m-.1 12.9c-.1-.3-.9-.3-.8 0 .2 1.6.5 3.3.9 4.9.1.3.9.3.8 0-.4-1.6-.7-3.2-.9-4.9m21.1-3.3c-.2.3.6.4.8.1l2.8-5.9c.1-.3-.7-.4-.8-.1l-2.8 5.9m-4.1-3.8c-.2.3.6.4.8.2.4-1.1.8-2.2.9-3.4 0-.3-.8-.3-.8 0-.2 1.1-.5 2.2-.9 3.2m-7.9 6.7c-.1 1.9.1 3.8.4 5.6.1.3.9.3.8 0-.3-1.8-.5-3.7-.4-5.6 0-.3-.8-.3-.8 0m6.7 5.5c0-.3-.8-.3-.8 0 0 1.8.3 3.7.8 5.5.1.3.9.2.8-.1-.5-1.8-.8-3.6-.8-5.4m-8.5 9.1c-.2-.3-.9-.2-.8.1l2.2 3c.2.3 1 .1.8-.1l-2.2-3"/>
  <path fill="#785c4d" d="M577.53 362.35c-.2.4.6.4.8.1 1-2.4 1-5 .1-7.4-.1-.3-.9-.2-.8.1.9 2.3.9 4.9-.1 7.2m-5.9-15.3c-.1-.3-.9-.2-.8.1.7 1.8 1.3 3.6 1.8 5.5.1.3.9.2.8-.1-.5-1.9-1.1-3.7-1.8-5.5m-11.9-7c-.2-.2-1 0-.7.2l3.7 3.4c.2.2 1 .1.7-.2l-3.7-3.4m12.6 18c0-.3-.8-.3-.8 0l.1 2.2c0 .3.8.3.8 0l-.1-2.2m-46.2-5.3c-.4 0-.4.5 0 .4l6.7.1c.5.1.5-.4 0-.4l-6.7-.1m-4.2 8.2c-.5 0-.5.4 0 .4l4.5.1c.5.1.5-.4 0-.4l-4.5-.1m-10.7 25.8c-.5.2.1.5.4.4 1.3-.4 2.7-.7 4.1-.8.6 0 .2-.4-.2-.4-1.4.1-2.9.4-4.3.8m-17.6-2.6c-.5 0-.5.5 0 .4 1.8 0 3.6-.1 5.4-.3.6 0 .2-.4-.2-.4-1.7.2-3.5.3-5.2.3m11-8.1c-.5.1.1.4.4.4l3.4-.8c.5-.1-.1-.5-.4-.4l-3.4.8m-25.6 1.3c-.4-.1-.8.3-.2.4 1.6.3 3.1.5 4.7.7.4.1.7-.3.2-.4-1.6-.2-3.2-.4-4.7-.7m-8.9-8.9c-.2-.2-.9.1-.6.3 1.9 1.1 3.9 2 5.9 2.9.3.1 1-.1.6-.3-2-.9-4-1.9-5.9-2.9m18.8-1.2c-.3 0-.9.3-.4.3 2.6.7 5.4 1 8.1 1 .5 0 .5-.4 0-.4-2.6 0-5.2-.3-7.7-.9m44.9 5.8c-.5 0-.1.4.2.4 1.7-.1 3.4-.5 5-1 .5-.2-.1-.5-.4-.4-1.5.5-3.2.9-4.8 1m22.4-15.6c-.2-.1-.9.1-.6.3 2.1 1.4 4.1 2.8 6 4.4.2.2 1 0 .7-.2-2-1.6-4-3.1-6.1-4.5m2.1 10.9c-.2-.2-.9-.1-.7.2l4.1 4.4c.2.2 1 .1.7-.2l-4.1-4.4m-13.1-1.8c-.3-.1-.9.3-.4.4l3.7 1.1c.3.1.9-.2.4-.4l-3.7-1.1m-5.1-7.2c-.5 0-.2.4.2.4l3.3-.3c.6 0 .2-.4-.2-.4l-3.3.3m15.4 22.4c-.5 0-.5.4 0 .4 1 .1 2.1 0 3.1-.1.5 0 .2-.4-.2-.4-1 .1-1.9.1-2.9.1m-36.6.8c-.5.2-.1.6.2.4l3.7-.8c.5-.1.2-.5-.2-.4l-3.7.8m-6.6-11.9c-.4 0-.4.5 0 .4 2.7-.2 5.3-.5 8-1 .5-.1.2-.5-.2-.4-2.6.5-5.2.9-7.8 1m-7.9-9.3c-.5.1-.1.5.2.4 2.2-.2 4.4-.2 6.5.1.4.1.7-.3.2-.4-2.3-.2-4.6-.3-6.9-.1m10.1-7.3c-.5 0-.5.4 0 .4s.5-.4 0-.4m-30.1 7.8c-.4-.1-.7.3-.2.4 1.4.2 2.7.4 4.1.4.5.1.5-.4 0-.4-1.3-.1-2.6-.2-3.9-.4m-9.4 1.4c-.2-.2-1 0-.7.2l4 3c.2.2 1 0 .7-.2l-4-3m69.8 17.3c-.3.2.5.4.7.2 1.1-1 2.4-1.8 3.8-2.3.5-.2-.1-.5-.4-.4-1.5.6-2.9 1.4-4.1 2.5m-78.5-44.7c-.1 0-.3.1-.3.3 0 .2.3.2.4.2.5 0 1.1 0 1.7.1.1 0 .5 0 .5-.2s-.2-.3-.3-.3c-.7-.1-1.3-.1-2-.1m-.3 2.3c-.1.1.1.2.3.3l1.7.2c.1 0 .5 0 .5-.2s-.2-.3-.3-.3l-1.7-.2c-.1 0-.4 0-.5.2"/>
  <path fill="#ffac5d" d="M348.63 319.85c-.1 1.7.1 3.4.6 5 1.3 2.1 3.9 1.6 5.9 2.2 3.4.9 6 2.3 9.6 2.4 3.4.1 10.5-1.9 13.5-3.2 3.8-1.7 3.3-7.5 3.8-11.7 3-26.9 7.5-53.6 13.3-80.1 2.1-9.4 4.6-23.6.4-32.7-.4-.9-.9-1.6-1.4-2.4-1.6-2.6-3.7-4.7-6.3-6.2-1.6-.9-3.2-2.3-4.8-2.9-2.4-1-4.9-1.6-7.5-1.6-2.9-.1-5.8.6-8.4 2-1.7.5-3.1 1.3-4.4 2.5-1.5 1.7-2.7 3.7-3.6 5.8-.1 0 0 .2.1.4l-.3 1.2c-1.1 3.2-2 6.4-2.5 9.8-2.6 14.3-5.3 29.6-5.9 44.2-.8 21.7-1.7 43.5-2.1 65.3"/>
  <path fill="#ffe2bf" d="M359.43 319.85c-1.4 1.8-2.4 4-3.1 6.3-.6 4.4.9 10.8 1.4 15.2 1.1 9.8 1.8 19.6 2.5 29.5.7 11.7 1.3 23.4 2 35.1.5 9 .9 18.1 1.4 27.1.2 2.6 0 5.1-.4 7.6-.1.5-.2 1.1-.4 1.6-.1.5-.4 1-.7 1.4-.7 1-1.3 2-1.9 3-.2.4-.4.8-.7 1.2-.4.6-.9 1.1-1.4 1.5-1.1 1.1-2.4 2-3.8 2.7-2.5.9-5.2 2-6.6 4.7 2.8.4 5.7.4 8.5 0 5.7-.5 11.5-1 17.2-.1.9.2 1.9.3 2.8.2 1-.1 1.9-.8 2.3-1.7.4-1.1.4-2.1.2-3.2 0-.2-.1-.4-.1-.6l-1.1-8.8c-.1-1.5-.3-2.9-.5-4.4 0-1.1 0-2.3.2-3.4.5-4.6 1.1-9.2 1.4-13.9.7-10.5 1.4-21.1 1.7-31.7.5-14.6 1.7-30.2.1-44.7-.5-4.3-1.2-8.5-1.8-12.7-.4-3.1-.3-7.2-1.6-9.9-.4-.8-.9-1.5-1.6-2.1-2.1-2.2-4.9-3.6-7.9-4-2-.3-4 .2-5.6 1.4-1 .8-1.8 1.7-2.5 2.7"/>
  <path fill="#ffac5d" d="M348.83 328.35c-.2 1.4-.2 2.8-.2 4.2.1 1.6.2 3.2.4 4.8 3.3 31.7 4.9 63.7 7.4 95.5.1 1.2.3 2.4.8 3.5 2.5 4.7 12.1 3 16.4 2.9 3.9-.1 8.1.3 8.4-4.5 1.3-20.2-.1-40.4.5-60.6.3-12.8 1.5-25.7.3-38.5-.3-3.3-.8-6.5-1.4-9.7-.4-2.3-.3-4.6-.8-6.8-1-4.2-4.3-5.8-8.2-6.9-9.4-2.6-18.3-.2-22.4 11-.6 1.6-1 3.3-1.2 5.1"/>
  <path fill="#ff7e00" d="M347.03 456.55c.1.3.1.6.2.8 0 .3.1.5.2.7.1.1.2.2.4.2 3.7.9 7.7.3 11.4.2 4.3-.1 8.6-.7 12.9-1h1.7c.9.1 1.8.6 2.7.7.9.1 1.7 0 2.5-.2.4 0 .7-.1 1.1-.2.5-.3.4-.6.4-1.3-.1-1.4-.4-2.7-.6-4.1-.3-1.5-.3-2.9-.4-4.4-.1-1.7.1-4.8-2.1-4.2-2.4.6-2.1 3-3 4.8-.3.6-.8 1.1-1.4 1.4-1.1.3-2.4.1-3.3-.7-1.9-1.2-3.2-3.2-5-4.4-.5-.3-1.1-.6-1.7-.7-1.4-.3-1.6.6-2.4 1.5-2.6 2.8-5.7 5-9.1 6.7-1.8.8-4.6 1.9-4.5 4.2"/>
  <path d="M349.13 456.25c-.4-.1-1.2.4-.7.6 2.6 1.1 5.3.7 8 .8 3.1.1 6.1-.7 9.2-1l4.8-.4c1.8-.1 3.6-.5 5.3.1 1.5.5 3 1.1 4.3-.3.3-.4-.7-.6-1-.3-1 1.1-2.8-.2-4-.4-1-.1-1.9-.1-2.9 0-2.5.2-5 .5-7.5.7s-5 .9-7.5.9-5.5.3-8-.7" class="vdw-7"/>
  <path fill="#ffac5d" d="M392.13 218.05c-.9 6.2-1.3 12.4-1.2 18.8.2 20.3 1 40.6 2.5 60.9.7 10 1.3 20.1 2.6 30 .5 4.2 3.8 4.9 7.1 7.2 3.2 2.3 7.1 2.7 11 2.4 1.7 0 3.3-.5 4.8-1.2 2.3-1.3 4.1-3.8 5.4-6.6 4.4-9.3 3.9-21 4.6-31.7l.6-8.7c.9-12 2-24 3-36 .8-8.3 1.8-16.7 1.8-25.1 0-4.2-.3-8.4-.9-12.5-.4-2.7-.8-5.9-2-8.5-.3-.8-.8-1.6-1.4-2.3-1.9-2.4-4.3-4.3-7-5.5-1.7-.6-3.5-1.8-5.1-2.3-3.2-1-6.5-1.1-9.8-.5l-.1.2c-1.2.2-2.3.6-3.3 1.1-2.2 1.1-4.9 2-6.7 4.2-3.3 4-5 11.1-5.9 16.1"/>
  <path fill="#ffe2bf" d="M418.93 436.95c.7-4.6 1.4-9.2 1.9-13.8 1.2-10.5 2.3-21.1 3-31.6 1.1-14.5 2.9-30 1.9-44.6-.3-4.3-.8-8.6-1.3-12.8-.3-3 0-7.2-1.2-9.9-.4-.8-1-1.6-1.6-2.2-2.1-2.2-4.8-3.8-7.8-4.3-1.9-.4-3.9 0-5.6 1.1-1 .7-1.9 1.6-2.6 2.6-1.5 1.9-2.6 4-3.2 6.3-.8 4.3.5 10.8.8 15.2.7 9.8 1.1 19.6 1.4 29.5.4 11.7.5 23.5.7 35.2.1 9.1.1 18.1.3 27.2.1 2.6-.1 5.2-.7 7.8-.3 1.2-.7 2.3-1.3 3.3-.6.9-1.3 1.9-2.1 2.7-.9 1-1.8 1.9-2.9 2.7-2.2 1.6-4.5 2.9-7 4-.6.3-1.4.7-1.5 1.5-.1.6.2 1.2.7 1.6.5.2 1 .4 1.6.4 7.7.6 15.3-1 22.9 0 1.3.1 2.7.3 3.6-.8.7-.9.7-2.5.6-3.8-.2-1.6-.3-3.2-.4-4.8-.1-2.1-.5-4.1-.5-6.1-.1-2.2 0-4.3.3-6.4"/>
  <path fill="#ff7e00" d="M387.93 457.55c0 .3.1.6.2.9 0 .3.1.5.2.7.1.1.2.2.4.2 3.6 1 7.7.6 11.4.6 4.2.1 8.6-.3 12.9-.5.6-.1 1.1-.1 1.7 0 .9.1 1.8.6 2.7.8.9.1 1.7.1 2.5-.1.4 0 .7-.1 1.1-.2.5-.3.4-.6.4-1.3 0-1.4-.2-2.7-.4-4.1-.2-1.5-.2-2.9-.2-4.4 0-1.2.2-2.8-.5-3.8-1.1-1.5-3 .6-3.5 1.6-.4.9-.7 1.9-1.2 2.7-.5.9-1.4 1.5-2.4 1.5-1.9-.2-3.6-2-4.8-3.4l-1.7-2c-.4-.6-1-1.1-1.6-1.5-2-1-2.5 1-3.6 2.1-.8.8-1.6 1.5-2.5 2.2-1.9 1.2-3.9 2.2-5.9 3-2 .9-5.2 2.5-5.2 5"/>
  <path d="M390.03 457.35c-.4-.2-1.2.3-.6.5 2.5 1.2 5.2.9 7.9 1.1 3.1.3 6.1-.4 9.2-.6l4.8-.2c1.8-.1 3.6-.3 5.3.3 1.5.6 3 1.3 4.3-.1.4-.4-.6-.7-.9-.4-1.1 1.1-2.8-.3-4-.5-1-.2-1.9-.2-2.9-.1-2.5.1-5 .3-7.5.4s-5.1.7-7.6.6c-2.6-.1-5.5.1-8-1" class="vdw-7"/>
  <path fill="#ffac5d" d="M395.93 329.75c-.4 4.9.2 10 .5 14.2.8 13.6 2 27.3 2.9 40.9 1.2 16.2 1.6 32.5 1.9 48.8 0 2.4.3 5.2 2.3 6.4 1.2.6 2.5.9 3.8.7l12.4-.3c3.7-.1 3.7-2 4.1-5.1.5-4.1 1.3-8.1 1.9-12.1 2.4-17.1 3.8-34.3 4.1-51.5.4-16.6.3-33.5-3-49.7-1-5.1-3.6-6.3-7.9-7.7-6.8-2.2-14.2-1.4-19.1 4.3-2.6 3-3.6 6.9-3.9 11.1m-32.1-163.4c-1 10-1.9 20.1-2.6 30.3-.6 8.7-1.3 15.2 5.2 20.7 3.4 2.9 7.4 4.5 11.1 6.8 3.1 2 5.9 4.3 8.3 7 1.9 2 4 7 6.1 8.2s7.2-.5 9.6-.7c3.7-.4 7.4-.7 11.1-1 4.7-.5 9.4-.9 14.1-1.3 1.6-.2 3.2.1 4.8-.2.8-.1 1.6-.4 2.2-.9.7-.6.8-1.9.9-3 .3-3.6.5-7.3.4-10.9-.5-14.7-1.3-29.2-2.4-43.8-.5-7-.5-10.9-4.8-10.9h-2.7l-13.1-.1c-3.6 0-48-2.1-48.2-.2"/>
  <path fill="#c07a51" d="M420.83 218.85c-.1-.3-.8-.2-.7.1 1.6 4.4 4.6 8.1 7.7 11.6.2.4.1.3.5.5.2.1.9.1.6-.2-3.2-3.7-6.4-7.4-8.1-12m-2.5.9c-.1-.2-.9-.1-.7.1 2.6 4.6 5.7 8.9 9.4 12.7.1.2.8.1.6-.2-3.7-3.8-6.8-8-9.3-12.6m-51.4 12.3c-.2.1-.4.2-.2.5 2.4 1.3 5 2.5 7.6 3.5.3.1.9-.2.4-.4-2.4-1-4.7-2-6.9-3.2 2.7 0 5.6 1.7 7.9 2.7.3.1.8-.2.4-.4-2.9-1.1-6-3.1-9.2-2.7m10.6 1.1c-.1-.2-.9 0-.7.2 2.6 2.6 5.5 4.9 8.6 6.9.2.1.9-.1.5-.3-3-1.9-5.9-4.2-8.4-6.8m-1 129.1c-.1 24.4-.3 48.9-.4 73.2 0 .3.7.3.7 0l.3-40.8c.2-23.9.2-47.9.5-71.9.3-23.4 1.5-47 8.8-69.4.1-.3-.6-.3-.7-.1-3.8 12.3-6.3 25-7.4 37.8-2.3 23.6-1.6 47.5-1.8 71.2m48.3-4.7c-.5 24.9-1.5 49.8-4.6 74.4-.1.3.7.3.7 0 1.8-13.9 2.9-27.9 3.6-41.9 1.2-24.9 1.3-49.9 1.6-74.8l.9-75.3c0-.3-.7-.3-.7 0-.2 14.2-.3 28.4-.5 42.6-.3 25-.5 50-1 75"/>
  <path fill="#ffe2bf" d="M353.13 172.75c-.4 11-1 22-.6 32.9.1 2.9.2 9.1 2.3 10.7 2.6 2 12.2 1.3 15.6 1.6 11.6 1 23.2 1.2 34.8.8 5.8-.2 11.6-.6 17.4-1.1 2.8-.3 12.7.2 14.3-2.5.4-.8.6-1.8.5-2.8.1-20-.3-40-1.4-59.9-.3-5.2-.6-10.3-1-15.5-.4-4.5-1.5-9.7-1-14.2.9-8.4 1.5-16.8 2.1-25.2.3-4.1-.1-8.5.5-12.5 1.2-8.6 1-16.5-7.5-21.2-3.2-1.9-6.9-2.9-10.5-4.1-8.3-2.8-13.9-6.6-22.8-6.3-5.4.2-11 3-16 4.6-3 1-6 2.3-8.9 3.7-4.7 2.3-4.9 6.7-6 11.2-1.7 6.7-3.6 13.1-4.6 20-3.7 26.5-6.1 53.1-7.2 79.8"/>
  <path fill="#542929" d="M371.53 15.75c-.7 1.9-.6 4 .5 5.9.4.5.7 1.1 1 1.7.6 1.5.2 3.5 1.1 4.9.6.7 1.2 1.4 1.9 2 .9 1 .5 2.1.7 3.3.3 1.6.8 3.1 1.3 4.7.9 3.4 2.6 6.5 5 9.1.9.9 1.9 1.6 3.1 2.1 1.1.4 2.2.4 3.3.3 3.6 0 7.2-.7 10.6-1.9 2-.7 4.7-1.5 5.9-3.4.4-.9.7-1.7.9-2.6.3-1.4.7-2.9 1.1-4.4.3-1.4.8-2.6 1.3-3.9 1.1-2.8 2-5.7 2.7-8.7.3-1.1.5-2.2.6-3.3.1-1.2.1-2.4 0-3.6-.1-.7-.2-1.3-.3-2-.3-1.6-.8-3.1-1.5-4.5-.5-1-1.2-2-1.9-2.9-.6-.7-1.6-2-2.5-2.2-1.5-.3-2-.9-3.1-1.9-1.2-1.1-3.3-1.7-4.8-2.4-3.8-1.8-9.1-3.1-12.8-.4-.6.5-1.2 1.1-1.8 1.5-2.3 1.6-5.6 1.7-7.2 4-.8 1.2-1 2.7-1.5 4-.1.4-.3.7-.5 1-.7 1-1.7 1.7-2.5 2.6-.2.3-.4.6-.6 1"/>
  <path fill="#ffb085" d="M387.83 63.35c-1-.4-1.9-1-2.4-1.9-1.2-1.3-.7-2.8-.6-4.5.1-1.3.2-2.7.3-4.1 0-.6.1-1.1.1-1.6 0-.6.1-1.1.1-1.7v-.3c0-.7.1-1.5.1-2.2.1-1 .1-2 .2-3 .1-.7.2-1.5.2-2.3v-.1h.3l3.5-.1 10.6-.4 4.5-.2h.2v.4c0 .3.1.6.1.9l.3 3v.3c.2 1.8.4 3.5.6 5.3 0 .3.1.5.1.8v.3c.3 2.7 1.9 5.4-.1 7.8-1.4 1.4-3.2 2.5-5.2 2.9-2.1.7-4.2 1.1-6.3 1.3-1.8.3-3.7.2-5.5-.2-.4-.1-.7-.3-1.1-.4"/>
  <path fill="#fd7f5e" d="M384.83 52.85c.1-.5.1-1 .1-1.7 0-.6.1-1.1.1-1.7v-.3c0-.7.1-1.5.1-2.2.1-1 .1-2 .2-3 .1-.7.2-1.5.2-2.3.1 0 .2-.1.3-.1 1.2-.2 2.3-.2 3.5-.1 2.5 0 5.1-.2 7.7-.3.9 0 2.6-.5 3.5-.2 1.5.4.6 4 .4 5.1-.5 2.2-1.6 4.3-3.2 6-2.5 2.7-7.6 4.2-11.1 2.4-.7-.4-1.3-.9-1.8-1.6"/>
  <path fill="#ffb085" d="M376.03 29.55c.2.7.2 1.4 0 2.3.1 1.5 0 3 0 4.5.2 4.1 1.8 8 4.6 11 .9.9 1.8 1.8 2.7 2.6 1.1 1.1 2.4 2 3.8 2.7.9.5 1.9.7 2.9.8 3.6 0 6.8-2.6 9.4-4.9 1.8-1.5 3.4-3.3 4.6-5.3 2.2-3.9 2.3-8.6 2.6-13 .1-1.8.6-4.4-.2-6.1-.7-1.6-1.2-3.2-2-4.7-1.4-3-3.5-5.5-6.1-7.5-2.5-2-5.8-3-9-2.7-5.4.5-9.5 4.6-11.8 9.3-.9 1.7-1.5 3.6-1.8 5.6-.2 1.8-.1 3.6.3 5.4"/>
  <path fill="#ffb085" d="M410.23 31.55c.3-.4.5-.8.7-1.4.4-1.3 0-2.7-1-3.6-2.9-2.3-5.2 1.5-5.6 3.9-.4 1.6-.1 3.2.8 4.5 1 1.3 2.4.7 3.2-.5l1.4-2.1c.1-.2.3-.5.5-.8"/>
  <path fill="#f16d53" d="M407.13 28.45c-.1.2.3.3.2.1 1.2-.3 1.8-.1 1.7.6 0 .1 0 .3-.1.5s-.2.4-.4.6c-.2.3-.5.6-.8.9-.2.3-.4.6-.5.9 0 .2-.1.9.2.9.2 0 .4-1.2.6-1.4.7-.8 2.2-1.6 1.5-2.9 0-.1-.2-.3-.3-.4-.6-.5-1.6-.4-2.1.2"/>
  <path fill="#542929" d="M378.43 9.35c-1.3 2.3-1.6 4.7-1.8 7.3-.2 3.2-1.8 6.5-1.3 9.7 1.6-.9 2.2-3.1 2.9-4.7.5-1.6 1.5-2.9 3-3.7-1 1.7-1 3.8 0 5.5 1.1-1.5 2.6-2.7 4.3-3.6 1.8-1 3.8-1.3 5.6-2.3.7-.4 1.4-.8 2.1-1.3.5-.3 1.3-1.2 1.9-1.3.2 0 .4.1.5.3 0 .2 0 .4-.1.5 0 .1-.1.2-.1.3-.9 3 .8 6.1 3.8 6.9-.1-.4-.6-3 .6-2 .2.2.4.4.5.7.6 1.2 1.5 2.3 2.5 3.1 1.4 1.1 2.9 1.2 4.6 1.3 1.1.1 1.4-.3 1-1.5-.8-2.4-1.5-4.7-2.3-7.1l-1.8-5.3c-.4-1.2-.2-2.5-.9-3.7-.7-1.1-1.8-1.9-3.1-2.1-3.1-.7-6.2-1.2-9.3-1.5-1.7-.2-3.5-.3-5.2-.2-1.1.2-2.2.5-3.2.9-1.3.4-2.5 1.3-3.3 2.5-.3.4-.6.8-.9 1.3"/>
  <path fill="#633232" d="M373.23 20.25c-.7-1.4-.7-3.1.1-4.6.8-1 1.7-2 2.7-2.8 1-.8 1.6-2.1 1.7-3.4-.9.5-1.7 1-2.5 1.6.5-1.3.7-2.8 1.5-4 1.6-2.2 4.9-2.4 7.2-4l1.8-1.5c3.7-2.7 9-1.4 12.8.4 1.5.7 3.6 1.3 4.8 2.4 1.1.9 1.6 1.6 3.1 1.9 1 .2 1.9 1.5 2.5 2.2.7.9 1.4 1.9 1.9 2.9.7 1.4 1.2 2.9 1.5 4.5-.8-1.1-1.9-1.9-3.2-2.5 1.1 2.4 1.8 4.8 2.2 7.4-.6-1.5-1.7-2.7-3.1-3.4-.7-.3-1.5-.6-2.2-1-.7-.3-1.2-1-1.4-1.8-.3 2.7 2.7 4.8 3 7.5-.8-1.1-1.8-1.9-3-2.5-1.2-.4-2.3-.9-3.4-1.5-1.5-1.1-2.1-3-1.5-4.7-1.2 1.4-1.5 3.3-1 5-.9-.5-1.5-1.2-2-2.1-.3-1.1-.4-2.2-.1-3.3.2-1.1 0-2.1.2-3.2-1.4 2.3-3.8 3.8-6.5 4.1-1.2.1-2.4 0-3.6.1-1.2 0-2.4.6-3.2 1.5.3-2 2.4-3 4.3-3.8-1.8-.8-3.9 0-5.7.8-.7.2-1.3.6-1.9 1.1-1.4 1.2-1.7 3.6-3.4 4.4-.3.1-.7.2-1.1.4-.8.4-1.2 1.2-1.3 2.1 0 .9.1 1.8.3 2.6-.2-1-1-1.8-1.5-2.8"/>
  <path fill="#834444" d="M387.63 11.45c-.2 0-.2.2.1.4 2 0 4-.3 5.9-.8 1.6-.7 2.8-2 3.2-3.7 0-.2-.4-.2-.4-.1-.7 1.7-1.6 3.2-3.5 3.6-1.7.3-3.5.5-5.3.6m-6.1-2c-.1.1.2.2.4 0 1.7-2.2 4.1-2.1 6.6-2.2 1.4 0 2.8-.4 4-1.3.2-.1-.2-.2-.3-.1-1.8 1.5-4.2 1.1-6.4 1.3-1.7.1-3.3.9-4.3 2.3m-4.5 8.8c-.6 1-1 2.2-1 3.3 0 .1.4.2.4 0 0-1 .3-2.1.8-3 .7-.9 1.6-1.7 2.7-2.2.2-.2-.2-.3-.3-.2-1 .5-1.9 1.2-2.6 2.1m6.8.2c-.2.1.2.2.2.1 1.2-.5 2.2-1.2 2.9-2.2.2-.1-.2-.2-.3-.1-.7 1-1.7 1.7-2.8 2.2m-9.3-3c-.2.1.2.2.2.1 1.1-.5 2-1.4 2.4-2.6.6-1.4.5-3.6 2.3-4.1.2-.1-.1-.2-.2-.2-1.1.4-1.9 1.3-2 2.5-.4 1.9-.9 3.4-2.7 4.3m14.9-13.1c-.2.1.2.2.3.1 1.6-.8 3.5-.7 4.9.4.1.1.4 0 .3-.1-1.6-1.2-3.7-1.3-5.5-.4m14.5 5c-.1-.1-.5 0-.4 0 1 1 2.2 1.9 3.5 2.6 1.7 1 2.7 2.8 2.6 4.8 0 .1.4.1.4 0 .2-1.7-.6-3.4-2-4.4-1.4-1-3-1.7-4.1-3m-5.5 5.1c-1 2-1.1 4.3-.4 6.5.1.1.5.1.4-.1-.7-2-.6-4.3.4-6.3 0-.2-.3-.2-.4-.1m2.3 1.3c-.8 3.3 1.8 5.9 4.6 7.2.1 0 .5-.1.3-.2-2.7-1.2-5.2-3.7-4.5-7 0-.1-.4-.1-.4 0m3-2.4c-.1-.2-.5-.1-.4.1 1.2 1.9 3.3 2.9 4.3 4.9.1.1.5 0 .4-.1-1-2-3.1-3.1-4.3-4.9m5.8 9.4c0-.1-.4-.1-.4 0 .5 1 .8 2.1.7 3.2 0 .1.4.1.4 0 .1-1.1-.2-2.2-.7-3.2"/>
  <path fill="#542929" d="M383.83 23.35c.2-.1.4-.1.6-.1.5-.1 1.1.1 1.4.5.7 1.1-1.1 1.7-1.8 1.8-1.2.1-2.4.1-3.6.3-.3.1-2.3.5-2.3-.1 0-.1.1-.1.1-.2.3-.4.8-.8 1.3-1 1.4-.6 2.8-1 4.3-1.2m9.9-.1c-.6.1-1.4 0-1.8.5-.5.6.1 1.2.8 1.3 1.5.2 3.1.3 4.7.4.3.1 2.9.5 3 .2.2-.6-1.8-1.6-2.2-1.8-.9-.3-1.8-.5-2.8-.6-.6-.1-1.1-.1-1.7 0"/>
  <path fill="#fda17b" d="M381.13 35.35c-.5-.6-1.3-1-2.1-1.1-.3 0-.6 0-.8.1-.7.5-1.1 1.3-1 2.1-.1 1.5.5 2.9 1.5 3.9.9.7 2.2.8 3.2.1.3-.3.5-.8.5-1.3.1-1.1-.2-2.2-.8-3.2-.2-.2-.3-.4-.5-.6m20.1-.5c-1-1.5-3.6-1.3-4.8-.1-1.5 1.4-1 5.1.9 6 .5.2 1 .2 1.6.2.4 0 .8-.1 1.2-.2.5-.3 1-.7 1.2-1.3.7-1.4.7-3.1 0-4.5-.1 0-.1-.1-.1-.1m-11.8 3.2c-.4-.6-.6-1.4-.5-2.2-.2-.7-.2-1.3-.4-2-.1-.4-.4-1.6-.8-.8-.2.7-.4 1.4-.4 2.1-.1.7-.3 1.4-.7 2.1-.3.4-.5.9-.7 1.3-.1.5 0 1 .4 1.3.2.1.4.1.7.1.4-.1.7-.2 1.1-.4l1.1-.5c.2 0 .3-.1.4-.3.1-.3-.1-.5-.2-.7"/>
  <path fill="#f16d53" d="M385.73 38.35c-.2.3-.4.6-.3.9.3.6 1.6 1.1 2.2 1.3.2 0 .4-.1.2-.2-.6-.2-1.8-.7-1.9-1.4-.1-.5.4-1.1.6-1.6.4-.8.7-1.7.9-2.6.5-2 .4-4.1-.1-6.1-.1-.1-.4-.1-.4.1.7 2.6.5 5.4-.4 7.9-.2.6-.5 1.1-.8 1.7m5 1.8c-.3 0-.3.2 0 .2h.7c.1 0 .2 0 .2-.1 0-.4 0-.9-.1-1.3 0-.2-.4-.1-.4 0 .1.4.1.8.1 1.2h-.5m-2.4-.6c-.1 0-.2.1-.2.2s.2.2.3.2c.1.1.3.1.3 0 .1 0 0-.1 0-.1.3 0 .6 0 .9.1.2 0 .4-.1.2-.2-.5-.2-1-.2-1.5-.2"/>
  <path fill="#f16d53" d="M384.53 39.15c0 .2-.1.4-.1.5 0 .1.1.3.2.3.1.1.5 0 .5.1.1.1.5.1.4-.1-.1-.4-.5-.2-.6-.3s0-.4.1-.6l.2-.8c0-.2-.4-.2-.4-.1-.1.4-.2.7-.3 1"/>
  <path fill="#fda17b" d="M390.53 45.35c.7-.1 1.3-.5 1.8-.8.5-.7-.6-.6-1-.5-1.5.3-3.1.3-4.6.1-.6-.2-1.2-.3-1.8-.4h-.1c-.1 0-.1.2 0 .3.7.8 1.8 1.4 2.9 1.4.9.1 1.9.1 2.8-.1"/>
  <path fill="#f16d53" d="M385.03 43.35c-.2-.1-.5.1-.1.1 1.1.5 2.3.8 3.5.8 1.6-.1 3.3-.3 4.9-.5.3 0 .1-.2-.1-.2l-3.8.4c-.9.2-1.8.1-2.7-.1-.6-.1-1.1-.3-1.7-.5m.6-.6c-.1.2.3.2.2.2.4-.5 1.6.4 2.2.4.3 0 .5-.1.7-.2.9-.3 1.8-.2 2.6.3.1 0 .5-.1.3-.2-.5-.3-1-.5-1.6-.6-.7-.1-1.3.3-2 .3-.8-.1-1.7-1-2.4-.2m8.1.2c0 .1-.1.1-.1.1.2.1.3.4.3.7 0 .1.4.2.4 0 .1-.3 0-.6-.3-.8h-.3m-9.6.1c-.1.2-.2.5-.1.8 0 .2.4.1.4 0 0-.2 0-.5.1-.7 0-.2-.3-.2-.4-.1"/>
  <path fill="#410202" d="M396.93 29.45c.1-.5-.2-.9-.8-1-.3 0-.7.2-.8.6-.1.4.2.9.6 1s.9-.2 1-.6"/>
  <path fill="#f16d53" d="M396.93 27.75c-.1-.1-.4.1-.2.2.4.1.7.5.7 1 0 .1.4.1.4 0 0-.5-.4-1-.9-1.2"/>
  <path fill="#410202" d="M383.23 29.85c0-.5-.3-.9-.8-1-.3 0-.7.2-.8.6-.1.4.2.9.6 1s.9-.2 1-.6"/>
  <path fill="#f16d53" d="M382.83 28.05s-.1.1-.2.1 0 .1.1.1c.5.1.7.7.8 1.1.1.1.4.1.4-.1-.2-.5-.4-1.1-1.1-1.2"/>
  <path fill="#ffe2bf" d="M389.73 33.65c0-.1.1-.2 0-.2.1 0 .1.1.2.1 0-.2-.1-.4-.1-.6.1-.9.2-1.5.2-1.5l9.3-.4h.3s.1 0 .1.1.1.2.2.4c0 0 0 .1.1.2 0 .1-.1.1-.2.2h-.2c0 1.5-.4 2.9-1.2 4.2-.9 1.1-2.2 1.7-3.6 1.7-1.5.1-2.9-.6-3.7-1.8-.5-.7-.8-1.4-1.1-2.2-.1-.1-.2-.1-.3-.2m-14-2.3c.1 0 .2 0 .5.1 1.6-.1 7.8-.3 9.3-.4h.3v1.3c0 .2-.1.5-.1.7l.1-.1v.5c-.1.1-.1.2-.2.3-.2.9-.5 1.7-1 2.4-.9 1.1-2.2 1.7-3.6 1.7-1.5.1-2.9-.6-3.7-1.8-1-1.4-1.6-3-1.6-4.7" opacity=".3" style="isolation:isolate"/>
  <path fill="#ff7e00" d="M375.73 31.25c0-.1.4-.1.4.2v.1c0 1.3.3 2.6 1 3.8.7 1.5 2.3 2.5 4 2.4 1.6-.1 3.1-1.1 3.6-2.6 0 0-.1 0-.1-.1 0-.2.2-2.1.7-2.1.1-.6.2-1.2.2-1.8v-.1c0-.1.4-.1.4 0 0 .5-.1.9-.1 1.4 0 .2-.1.5-.1.7l.1-.1c1.1-1 2.7-.4 4 .4.1 0 .1.1.2.1 0-.2-.1-.4-.1-.6-.1-.5-.2-1.1-.2-1.6 0-.1.4-.1.4 0v.1c0 .6.1 1.1.2 1.7.2 0 .4.1.5.3.2.2.3.5.4.8.2.2.3.5.3.8 0 .2-.2.3-.4.2.7 1.6 2.3 2.5 4 2.4 3.6-.2 4.2-3.7 4.3-6.6v-.1c0-.1.4-.1.4 0v.7l.2-.2c2.3-1.6 4.6-3.3 6.8-5 .1-.1.4 0 .3.1-2.3 1.7-4.6 3.4-7 5.1 0 .1-.1.1-.2.2h-.2c0 1.6-.4 3-1.2 4.3-.9 1.1-2.2 1.7-3.6 1.7-1.5.1-2.9-.6-3.7-1.8-.5-.7-.8-1.4-1.1-2.2-.1-.1-.2-.1-.3-.2-1.3-.8-3-1.5-4-.2-.1.1-.1.2-.2.3-.2.9-.5 1.7-1 2.4-.9 1.1-2.2 1.7-3.6 1.7-1.5.1-2.9-.6-3.7-1.8-1-1.4-1.6-3-1.6-4.7v-.1"/>
  <path fill="#ffe2bf" d="M377.73 34.05c-.1-.1-.4 0-.3.1l2.8 2.8c.1.1.4 0 .3-.1l-2.8-2.8m1.2-.6c-.1-.1-.5-.1-.3.1l1.9 1.9c.1.1.4 0 .3-.1l-1.9-1.9m2.8-1.2c0-.1-.4-.1-.3.1l1.3 1.3c.1.1.4 0 .3-.1l-1.3-1.3m13.9.3c-.1-.1-.5 0-.3.1l1.4 1.4c.1.1.4 0 .3-.1l-1.4-1.4m-.9.5c-.1-.1-.4 0-.3.1l2 2c.1.1.4 0 .3-.1l-2-2m-2.8.3c-.1-.1-.5-.1-.3.1l2.7 2.7c.1.1.4 0 .3-.1l-2.7-2.7"/>
  <path fill="#ff7e00" d="M406.23 98.55c-.2-.6-1.9-.4-1.7.2.7 1.7 1.5 3.4 2.3 5l.1.1c.4.4 1.1.4 1.5-.1.8-1.6 1.6-3.4 2.3-5.1.3-.6-1.4-.8-1.6-.2-.5 1.1-1 2.3-1.5 3.4-.5-1.1-1-2.2-1.4-3.3m-4.7-.5c-3 0-2.7 5.7.2 6.1h.7c1.3-.1 2.3-1.4 2.1-2.7 0-1.6-.6-3.3-2.2-3.5-.3-.1-.5 0-.8.1m.5 5c-1-.2-1.2-4.1-.4-3.9.1.1.3.1.5 0 1 .7 1 4.1-.1 3.9"/>
  <path fill="#ff7e00" d="M396.13 103.25c-.3.1-.9.1-.8.5s.6.5.9.5h1.9c.1 0 .3-.1.4-.1.3-.1.6-.2.6-.5l-.1-5.1c0-.7-1.7-.7-1.7 0l.1 4.7h-1.3m-34.8.6c-.1.1-.1.2-.1.2.1.3.2.4.5.5.4.2 1.3.1 1.3-.4s0-1.8.5-2c.1 0 .2 0 .2-.1h1v2c0 .7 1.7.7 1.7 0l-.1-5.2c0-.5-.9-.6-1.4-.4-.8-.1-1.6 0-2.4.3-.6.3-1 .9-1.1 1.6-.1.5.2 1.1.7 1.3-.6.6-.9 1.4-.8 2.2m3.3-2.8c-.1 0-.2.1-.2.1-.7 0-1.6-.3-1.1-1.2.2-.5.8-.5 1.3-.5v1.6m9.5-1.6v1.4h-.9c-.2 0-.9.1-.8.5s.6.5.9.5h.9v1.8h-1.3c-.2 0-.9.1-.8.5s.6.5.9.5h2.1c.1 0 .3-.1.4-.1.3-.1.5-.2.5-.5l-.1-5.2c0-.4-.6-.6-1.1-.5h-2.1c-.2 0-.9.1-.8.5s.6.5.9.5l1.3.1Zm-4.6.1v1.4h-.9c-.2 0-.9.1-.8.5s.6.5.9.5h.9v1.8h-1.3c-.2 0-.9.1-.8.5s.6.5.9.5h2.1c.1 0 .3-.1.4-.1.3-.1.5-.2.5-.5l-.1-5.2c0-.4-.6-.6-1.1-.5h-2.1c-.2 0-.9.1-.8.5s.6.5.9.5l1.3.1Zm8.4-1.3c-.3 0-.9 0-.9.4s.6.5.9.5h1.1l.1 4.8c0 .7 1.7.7 1.7 0l-.1-4.8h1.1c.2 0 .8-.1.8-.5s-.6-.5-.9-.5l-3.8.1m7 .4c0-.7-1.7-.6-1.6.1l.1 5.2c0 .6 1.6.6 1.7 0 .7-.7 1.2-1.4 1.6-2.2.2-.3.3-.5.5-.8v2.9c0 .7 1.7.7 1.7 0l-.1-5.2c0-.5-.8-.6-1.3-.4-.3 0-.5.1-.7.3l-1.5 2.4c-.2.1-.3.3-.4.5v-2.8m6.7 0c-.2-.7-1.9-.6-1.5-.1.3 1.3.1 2.6.6 3.8.3 1 1.1 1.7 2.1 1.9 2.8.2 2.5-3.6 2.4-5.7 0-.7-1.7-.7-1.7 0v2.6c-.1.6-.1 2.4-.9 1.7-.5-.6-.7-1.3-.8-2-.1-.7 0-1.5-.2-2.2"/>
  <path fill="#f5c9a8" d="M427.83 188.45c-.9 8.8-1.7 17.7-.6 26.7 0 .3.7.3.7 0-1.4-14.5 1.5-28.8 2.1-43.2.1-2.1.5-4.9-.9-6.7-.3-.3-.8-.6-1-.9-.4-.6-.1-1.6 0-2.2.2-1.9.4-3.9.6-5.8.6-7.3.6-14.6-.1-21.8 0-.3-.7-.3-.7 0 .9 9.9.6 19.9-.9 29.7l.1.1c1.8.8 2.2 2.8 2.2 4.6 0 2.2-.2 4.4-.3 6.5-.3 4.4-.8 8.7-1.2 13m-44.5-129c-.6 6.3 8.9 6 12.8 5.6 4.9-.3 11.3-1.6 12.4-7.2.1-.3-.6-.3-.7 0-1 5.1-6.6 6.4-11 6.8-3.9.4-13.4.9-12.8-5.2.1-.3-.7-.3-.7 0"/>
  <path fill="#ffe2bf" d="M422.43 117.05c-.5.1.1.4.4.4l15.9-4.3c4.7-1.3 9.6-2.2 13.9-4.5.4-.2-.3-.4-.5-.3-4.4 2.4-9.7 3.3-14.5 4.6l-15.2 4.1m-70.7-3.1c-.3-.1-.9.1-.6.3 1.3.7 2.8 1 4.2 1.1.5 0 .4-.4 0-.4-1.2-.1-2.5-.4-3.6-1"/>
  <path fill="#f5c9a8" d="M361.33 143.65c0-.3-.8-.3-.7 0 1.8 12.7 5.9 25 12.1 36.3 5.9 11 12.2 22.2 20.4 31.7.1.2.8.1.6-.2-8.1-9.4-14.4-20.7-20.3-31.6-6.2-11.2-10.3-23.5-12.1-36.2m21 19.5c-.1-.3-.8-.2-.7.1 4.7 8.9 10.2 17.4 16.3 25.3.1.2.8.1.6-.2-6.1-8-11.5-16.4-16.2-25.2"/>
  <path fill="#ffb085" d="M453.93 149.15h1c1.5-.2 3.1 0 4.5.5 2.9 1.4 3.7 5.2 4 8.5 1.2 14.2 1.2 28.4.1 42.6-.2 2.5-.4 5-.8 7.5-.2 1.9-.3 4.8-2 6.1-.7.4-1.5.6-2.3.6-1.6.1-3.7.3-5.3-.4-1.9-.8-2-3.9-2.4-5.6-.8-3.2-1.6-6.5-2.5-9.7-3.5-12.5-10.2-24.2-8.4-37.6.3-3.3 1.2-6.5 2.4-9.6 1.2-2.7 3.9-2.6 6.6-2.7l5.1-.2"/>
  <path fill="#ffb085" d="M443.53 159.35c-.6.4-1.3.6-2 .7-.9-.2-1.4-1.2-1.8-2-7.5-17.6-15.3-35-21.5-53.1-1.7-4.6-2.5-9.5-2.5-14.4.2-4.8.6-9.7 1.4-14.5.3-2.3.7-4.6 1.3-6.8.5-1.6 1.3-4.6 2.6-5.5.1-.1.2-.2.3-.2.5 0 .9-.1 1.4-.1h1.5c1.3.2 2.6.5 3.8 1 1.6.6 3 1.4 4.4 2.4.1.1.3.2.4.3 2.1 1.7 4 3.6 5.6 5.8 1.1 1.5 2.1 3.1 3 4.8.2.6.5 1.1.7 1.6.1.2.1.3.2.5v.1c1.4 3.2 2.5 6.5 3.6 9.6.4 1 .7 2.1 1.1 3.2 2.5 7.5 4.8 15 6.8 22.7.5 2.1 1.1 4.1 1.6 6.2 2.1 8.5 4.2 17 6.2 25.6.3 1 .4 2.1.3 3.1-.5 3.6-4.4 3.3-7.1 4.1-3.9 1.2-7.7 2.8-11.3 4.9"/>
  <path fill="#f5c9a8" d="M410.23 77.85c-.1-4.8.3-9.8 2.9-13.7 1.7-2.5 5.7-2.5 8.5-2.3 3.6.3 7.1 1.5 10.1 3.5 4.7 3.1 8.2 7.8 11 12.8 1.2 2.3 2.3 4.6 3.3 6.9 1.9 4.3 3.4 8.8 4.9 13.2.9 2.5 1.7 4.9 2.5 7.4.6 1.8 2.3 4.5-.3 5.3-4.7 1.4-9.5 3.2-14.4 4.6-1.3.4-2.7.8-4.1 1.1-4.4 1.1-8.8 2-13.2 3-1.6.3-2 0-2.5-1.4-.4-1.2-.7-2.3-1.1-3.5-.8-2.4-1.6-4.9-2.3-7.3-1.7-5.6-3.1-11.2-4.1-16.9-.7-4.2-1.1-8.4-1.2-12.7"/>
  <path fill="#ffe2bf" d="M410.23 77.85c-.1-4.8.3-9.8 3-13.8 1.7-2.5 5.7-2.5 8.5-2.3 3.6.3 7.1 1.5 10.1 3.5 4.7 3.1 8.2 7.8 11 12.8 1.2 2.3 2.3 4.6 3.3 6.9-1.8.2-3.6.5-5.4.8l-13.1 2c-5.4.9-10.8 1.9-16.2 2.8-.7-4.2-1.1-8.4-1.2-12.7"/>
  <path fill="#fda17b" d="M449.43 229.15c.1.3.2.7.4 1.1.3 1 1.6 2.1 2.3.7.2-.5.3-1.1.2-1.6-.1-1.6.1-3.3.4-4.9s1.2-2.7 1.7-4.1c.3-1.1.5-2.2.5-3.4.1-.8 0-1.7-.3-2.5s-.9-1.5-1.7-1.7c-2.7-.5-4.3 3-4.8 5-.6 2.7-.4 5.6.6 8.2.3 1 .5 2.1.7 3.2"/>
  <path fill="#ffb085" d="M464.53 220.45c.1.9 0 1.8-.3 2.6-.2.9-.6 1.9-1.5 2.2-.2.1-.4.1-.6.2-.7.3-.8 1.3-1.4 1.7-.4.1-.9.2-1.3.2-.9.2-.7.9-1.1 1.5-.3.4-.8.7-1.3.8-.7 0-1.4-.3-1.9-.7-.2.4-.5.8-.9 1.2-.4.3-.9.5-1.4.3-.3-.2-.6-.4-.8-.7-.9-1.4-1.5-2.9-1.8-4.6-.6-2.7-.9-5.4-.6-8.2.2-2.4.7-4.8.8-7.2.1-1.9 2.6-1.2 3.9-1.3 1.9-.2 8.4 0 8.3 2.8-.1 3.2 1.7 6 1.9 9.2"/>
  <path fill="#3e3839" d="M450.73 214.55c3.8-1.2 7.5-2.7 11.4-3.2.7 0 1.5-.2 1.8-.8.1-.3.2-.7.1-1-.1-.5-.2-1-.5-1.4-.4-.5-1-.7-1.6-.7-1.6-.1-3.3.8-4.8 1.2-2 .5-7.6.8-7.8 3.6 0 .9.3 1.7.7 2.5.2 0 .5-.1.7-.2"/>
  <path fill="#ee6b00" d="M230.53 349.15c0 .3 1.5 1.7 1.9 2l1.8 2.1c.9.8 1.6 1.8 2.2 2.8 1.2 2.4 1 5.9 1.1 8.5.1.5 0 .9-.3 1.3-.3.3-.8.4-1.2.4-.7.1-1.4 0-2.1 0s-1.3-.2-1.8-.6c-.4-.6-.5-1.4-.4-2.1.1-4.8-1.6-9.6-1.2-14.4m15.9 117.8c.1.2.1.4 0 .5-.2-.5-.1-1.1.3-1.5.6-.7 1.6-.8 2.1-1.5.6-1 .8-2.1.5-3.2.2-10.6 0-21.4-2.3-31.8-.1-.5-.2-.9-.3-1.4-.1-.6-.3-1.2-.6-1.7-2.7-6-11.2-20.4-2.8-22 4.2-.8 8.7 3.9 11.2 6.7 1.6 1.8 3.1 3.7 4.3 5.8 1.5 2.7 2.1 5.8 1.7 8.8 0 .2-.1.5-.1.8-.3 1.8-.6 3.6-1 5.4-.5 2.1-1.1 4.1-1.7 6.2-2.5 8.8-4.6 17.8-6.2 26.9-.1.8-.5 2-1.3 2.4-.5.2-1.1.2-1.6.2h-2.5c-.3 0 .6-1.4.7-1.5.5-.4.9-.4 1.4-.9.3-.2.4-.4.6-.7l-2.4 2.5Zm79.8-46.7c-.1-6.9-3.3-13.4-3.6-20.4-.4-5.5-4.7-9.9-10.2-10.5-5.2-.7-10.6 2-13.8 6.2-2.5 3.3-3.5 7.3-5.5 10.8-1.9 3.3-3.3 6.8-4.3 10.4-.4 1-.4 2.2 0 3.3.9 1.4 2.8 1.5 4.3 2 4.4 1.4 7.4 7.4 11.2 10.1 5.4 3.7 11.9 6.2 16.2 11.3 4.2 4.9 6.9 10.8 8 17.1.2 1.3.3 2.7.4 4 .1.3 0 .6-.1.9-.2.5-.8.6-1.2.8-.5.3-1 .6-1.4 1-.2.3-.4.6-.4 1 .2 1.4 5.1.2 6 0-.1-5.3-.1-10.7-.1-16 .1-1.7-.1-3.5-.7-5.2-.8-1.5-1.8-2.9-3-4.2-1.9-2.6-3-5.7-3.2-8.9-.2-4.6 1.5-9.1 1.4-13.7"/>
  <path fill="#ff7e00" d="M216.03 375.15c0-.1.1-.2 0 0 .2-.2.4-.3.6-.3 2.9-.7 5.6-1.8 8.2-3.3.4-.1.7-.4 1-.7.2-.4.4-.7.5-1.1.4-1.1.9-2.1 1.5-3.1.4-.8 1.2-1.4 2.1-1.5 1-.3 2.1-.4 3.1-.6.3-.1 2.7-.5 2.7-1 .3-3.1.3-6.1.1-9.2-.4-2.7-.6-5.5-.7-8.2 3.7 4.5 7.2 9.2 10.4 14.1.9 1.3 1.9 2.6 3 3.8 2.5 2.8 5.1 5.4 7.1 8.7 1.4 2.3 2.6 4.7 4.6 6.5.9.7 1.9 1.4 2.9 2 1.9 1.1 4 2.1 5.7 3.3 3.2 2.3 7.5 2.6 11.4 2.8 9.1.4 18.1-1.4 27.1-2.7 4.5-.6 9.1-1.1 13.6-.2 4.5.9 8.9 3.4 11 7.5 1.5 2.8 1.7 6.1 2 9.2.9 11.5-6.3 20.1-17.9 20.8-5.8.3-11.6-.7-17.4-.5-9.2.4-17.9 4.1-27.1 5-9.4.9-19.3-1.5-26.5-7.6l-.5-.5c-7.2-6.5-11-17-8.2-26.3 1-3.3 1.3-5.9.2-7.7-.9-1.4-2.7-2.3-5.9-2.4-4.5-.2-11.3 3.1-14-2.3-.7-1.3-.9-2.9-.6-4.4v-.1"/>
  <path fill="#ff7e00" d="M337.13 420.25c-.2-6.9-3.3-13.3-3.6-20.2-.4-5.5-4.7-9.9-10.2-10.5-5.2-.7-10.6 2-13.8 6.2-2.5 3.3-3.5 7.3-5.5 10.8-1.9 3.3-3.3 6.8-4.3 10.4-.4 1-.4 2.2 0 3.3.9 1.4 2.8 1.5 4.3 2 4.4 1.4 7.4 7.4 11.2 10.1 7.5 5.2 16.1 8.3 20.2 17 1.7 3.7 2.7 7.6 3.1 11.7.3 1.8.3 3.5.1 5.3-.9.1-2 .4-2.1 1.3-.3 2.2 5.2.8 6.2.6-.1-5.3-.1-10.7-.1-16 .1-1.7-.1-3.5-.7-5.2-.8-1.5-1.8-2.9-3-4.2-1.9-2.6-3-5.7-3.2-8.9-.2-4.6 1.5-9.1 1.4-13.7m-87.4 9.6-4.1-6.3c-1.4-1.8-2.6-3.7-3.8-5.7-1.4-2.9-3-7.4.9-9.1 5.2-2.3 17.1 6.6 19.5 10.9 1.5 2.9 2.3 6.1 2.4 9.4.5 5.2.6 10.5.9 15.7.4 5.6.8 11.2 1.6 16.8.2 1 .2 1.9.2 2.9-.1.7-.2 1.3-.5 1.9-.2.5-.5 1-1 1.3-.7.5-2.1.1-3 .1-.4-1.1.8-2 1.2-3 .2-.9.1-1.8-.2-2.7-1.9-6.6-4.2-13-6.9-19.3-.9-2-1.8-4-2.9-6-1.2-2.2-2.5-4.3-3.9-6.4l-.4-.5"/>
  <path fill="#ffac5d" d="M244.53 418.35c-7.3-6.4-11-17-8.2-26.1 1-3.3 1.3-5.9.2-7.7.9-.5 1.6-1.3 1.9-2.2.1-1 .2-2 .1-3 .2-2.2 2-4 4.2-4.3 2-.2 3.5.4 4.6-1.6s-.2-5.3.4-7.5c.1-.7.5-1.4 1-1.9 2.5 2.8 5.1 5.4 7.1 8.7 1.4 2.3 2.6 4.7 4.6 6.5.9.7 1.9 1.4 2.9 2 0 .8-.1 1.7-.5 2.5-1.4 3-5.5 4-6.8 7.1-.8 2.1-.2 4.4.3 6.5s.6 4.7-1 6.2c-1 1-2.4 1.3-3.5 2-4.3 2.7-3.8 9.4-6.8 13.3l-.5-.5"/>
  <path fill="#ff7e00" d="M334.43 375.65c1.4 4.6 1.9 9.4 1.4 14.3-.3 3.1-.7 8.2-2.6 10.9-4.3 6-13.2-2.1-12-7.8 1-4.6 5.8-8 5.6-12.7-.2-3.3-2.8-6-5.7-7.7-1.9-1.3-4.2-2-6.6-2.1-2.4 0-4.7 1.3-5.8 3.4-1 2.1-.1 5.1 2.1 5.9-3.6.6-7.2-2.6-7.7-6.2s1.7-7.3 4.8-9.3c3.3-1.9 7-2.6 10.7-2.1 3.3.3 6.4 1.5 9.1 3.4 3.2 2.6 5.5 6.1 6.7 10"/>
  <path fill="#3e3839" d="M229.83 369.85c-.1.3-.2 1 .1 1.3.2.3.7.2 1 .1l.1-.1c.2-.1.4-.2.5-.4v-.6c.1-.3.1-.6-.1-.9v-.1c-.1 0-.2-.1-.3-.1-.2-.1-.5-.1-.7 0-.3.2-.6.5-.6.8m-13.8 5.3c-.2.2-.3.6-.1 1 0 .3.1.5.2.7s.3.4.5.5c.2.2.5.4.8.6.3.9.7 1.8 1.3 2.5-.1 0-.1-.1-.2-.1-.2-.1-.9.1-.5.3 1.3.8 3 .5 4-.7.3-.2-.4-.4-.6-.2-.5.6-1.3.9-2.1.9-.7-.7-1.2-1.6-1.5-2.6.1 0 .2-.2.3-.4 0-.2.1-.4.1-.6.1-.2.4-.3.6-.5l.3-.3c.2-.2.3-.5.4-.7.1-.5-.3-1-.8-1.1-.3-.1-.7-.1-1.1 0-.5.1-1.2 0-1.5.6l-.1.1c.1-.1 0 0 0 0"/>
  <path d="M265.63 413.95c-.2-.1-.9.1-.5.3 1.3.6 2.3 1.8 3.5 2.6 1.2.8 2.5 1.3 3.9 1.7.3 0 .9-.3.4-.4-1.6-.4-3.1-1.1-4.4-2-.9-.8-1.9-1.5-2.9-2.2m3.8-2.9c-.2-.1-.9.1-.6.3 1.9 1 3.9 1.8 5.9 2.6.3.1.9-.2.4-.4-1.9-.8-3.8-1.6-5.7-2.5m-7.9-19c-.2-.2-.9-.1-.6.2 1.3 1.2 2.7 2.2 4.3 3 .2.1.9-.1.5-.3-1.5-.8-2.9-1.8-4.2-2.9m-.4 4.9c-.1-.2-.8-.1-.6.2 1.5 1.6 3.2 3 5.1 4.1.2.1.9-.1.5-.3-1.9-1-3.6-2.4-5-4m-13.7 8.9c-.1-.2-.9-.1-.6.1 1.1 2 2.5 3.7 4.3 5.2.2.2.9 0 .6-.2-1.8-1.4-3.2-3.1-4.3-5.1m-8.2-8.8c0-.3-.8-.2-.8 0 .5 2.3 1.5 4.6 2.8 6.6.1.2.9.1.7-.1-1.3-2-2.2-4.2-2.7-6.5m6.5-3.6c-.2-.2-.9-.1-.7.1 1.4 2.1 2.9 4.1 4.6 6 .1.2.8.1.6-.2-1.7-1.8-3.2-3.8-4.5-5.9m3.2 26.4c-.2-.2-.9-.1-.6.2 1.5 1.7 3.2 3.4 4.9 4.9.1.2.9 0 .6-.2-1.7-1.5-3.4-3.2-4.9-4.9m82.8-46.6c-.2-.2-.9-.1-.7.1 1.4 2.5 2.2 5.3 2.2 8.2 0 .3.7.3.7 0 0-2.9-.7-5.8-2.2-8.3m-1.4 15.9c-.1.3.6.4.7.1 1-1.4.9-3.2.8-4.9 0-.3-.7-.3-.7 0 .1 1.7.2 3.4-.8 4.8m-10-23.2c-.3-.1-.9.2-.3.4 2 .5 3.8 1.4 5.4 2.6.2.2.9 0 .6-.2-1.7-1.3-3.7-2.2-5.7-2.8m-13.2 52.8c-.2-.3-.9-.2-.7.1 1.1 2.3 2.8 4.3 4.8 5.8.2.2.9 0 .6-.2-2-1.5-3.6-3.5-4.7-5.7m10.8 8.7c-.2-.2-.9-.1-.7.1 1.3 1.8 2.7 3.4 4.2 4.9.1.2.9 0 .6-.2-1.5-1.5-2.9-3.1-4.1-4.8m-9.6-16.8c-.2-.2-.9-.1-.7.1 1.8 2.5 3.8 4.9 6.1 7.1.1.2.9 0 .6-.2-2.2-2.1-4.2-4.5-6-7m11.9 10.3c-.1-.2-.8 0-.6.2l3.3 3.2c.1.2.9 0 .6-.2l-3.3-3.2m-4.2-12.6c-.1-.2-.9-.1-.6.1 1 1.8 2.2 3.4 3.5 5 .1.2.8.1.6-.2-1.3-1.5-2.5-3.2-3.5-4.9m13.1-1.6c-.1-.3-.8-.2-.7.2 1.3 2.2 2.2 4.6 2.8 7.1 0 .3.8.2.7 0-.6-2.6-1.5-5-2.8-7.3m-2.4 8.2c-.1-.2-.8-.2-.7.1 1.3 2.2 2.5 4.4 3.6 6.6.1.2.8.2.7-.1-1.1-2.3-2.3-4.5-3.6-6.6m5.5 14.3c-.1-.3-.8-.2-.7 0l.5 2.5c0 .3.8.3.7 0-.2-.8-.3-1.7-.5-2.5m-46.5-37.2c-.4 0-.4.4 0 .5 3.3.1 6.6-.3 9.8-1.2.4-.2-.1-.5-.4-.4-3 .9-6.2 1.3-9.4 1.1m-15.3-2.5c-.2-.1-.9.1-.6.3 2.5 1.5 5.1 2.6 7.9 3.4.3 0 .9-.3.4-.4-2.7-.8-5.3-1.9-7.7-3.3m8.9 11.9c-.3-.1-.8.2-.3.4 1.8.6 3.7 1 5.6 1.2.4 0 .7-.3.2-.4-1.9-.3-3.7-.7-5.5-1.2m8.4 8.6c-.4 0-.4.4 0 .4 2 .1 3.9 0 5.8-.3.5-.1.2-.5-.2-.4-1.9.3-3.7.4-5.6.3m-3.7 6.8c-.3 0-.7.3-.2.4 3.1.3 6.1-.6 9-1.6.4-.2-.1-.5-.4-.4-2.7 1-5.5 1.9-8.4 1.6m28.7-29.4c-.4 0-.4.4.1.4 3.8.1 7.4 1.7 10.1 4.4.1.2.9 0 .6-.2-2.9-2.8-6.8-4.4-10.8-4.6m8.8 8.9c-.2-.2-.9-.1-.7.2 1.4 1.6 2.6 3.3 3.6 5.2.1.2.8.2.7-.1-1-1.9-2.2-3.7-3.6-5.3m-20.8.2c-.3-.1-.9.2-.3.4 3.4 1.3 6.8 2.8 9.6 5.3.1.2.9 0 .6-.2-2.9-2.6-6.4-4.1-9.9-5.5m-2.3 6.2c-.3-.1-.6.3-.3.4 2.2.3 4.4.9 6.5 1.7.3.1.9-.2.4-.4-2.1-.8-4.3-1.4-6.6-1.7m-.8 11.9c-.5 0-.2.4.2.4l3.7-.3c.5-.1.2-.4-.2-.4l-3.7.3m-34.3 6.4c-.3-.1-.9.2-.4.4 1.9.5 3.9.8 5.9.9.5 0 .4-.4 0-.4-1.9-.1-3.7-.4-5.5-.9m-3 9.3c-.1-.2-.9-.1-.7.1 1.2 2 2.1 4.1 2.9 6.3.1.3.8.2.7-.1-.8-2.2-1.7-4.3-2.9-6.3m-5-14.1c-.1-.2-.9 0-.6.2 1.4 1.4 3 2.6 4.6 3.7.2.1.9-.1.5-.3-1.6-1-3.1-2.3-4.5-3.6m2.2-9.7c-.2-.1-.9 0-.6.2l4.3 3.3c.2.2.9 0 .6-.2l-4.3-3.3m21.7.4c-.3-.1-.8.2-.4.3 2.2.9 4.5 1.5 6.9 1.7.4 0 .7-.4.2-.4-2.3-.1-4.6-.7-6.7-1.6m30.6-14.5c-.3-.1-.9.2-.3.3 1.7.6 3.4 1.5 4.9 2.6.2.2.9 0 .6-.2-1.6-1.1-3.4-2-5.2-2.7m-19.2 5.2c-.3 0-.9.3-.4.4 1.9.5 3.8.4 5.6-.1.4-.2-.1-.5-.4-.4-1.6.5-3.2.5-4.8.1m10.3-9.8c-.5.1-.2.4.2.4l5.1-.5c.5-.1.2-.4-.2-.4l-5.1.5m-55-23.7c-.2-.2-.9-.1-.7.1 1.7 2.9 3.6 5.7 5.6 8.3.1.2.8.1.6-.2-2-2.6-3.8-5.4-5.5-8.2m8.7 14.1c-.2-.2-.9-.1-.6.2 1.5 1.8 3.1 3.4 4.9 4.9.2.2.9 0 .6-.2-1.8-1.4-3.4-3.1-4.9-4.9m-13.4-2.5c-.1-.2-.8-.1-.6.1 1 2.2 2.3 4.2 3.8 6 .1.2.8.1.6-.2-1.5-1.8-2.8-3.8-3.8-5.9m9 13.2c-.2-.2-.9-.1-.7.1l3.8 5.2c.1.2.9.1.7-.1l-3.8-5.2m81.7 49.9c-.2-.2-.9 0-.6.2 1.6 1.9 3 3.9 4.3 5.9.1.2.9.1.7-.1-1.3-2.1-2.8-4.1-4.4-6m-100.3-71.3c-.2-.1-.8 0-.5.3.5.6 1.1 1.1 1.8 1.3h.1c.1.1.7 0 .5-.2-.4-.7-1.1-1.2-1.9-1.4" class="vdw-7"/>
  <path fill="#00a1a4" d="M250.83 382.45c2.4-2.3 5-4.6 6.5-7.5.2-.4.3-.8.3-1.2s-.2-.7-.4-1c-.6-.9-1.3-1.6-2.2-2.2-1.2-.9-2.4 2-3.1 2.9-3.5 4.4-7.9 8-13 10.5-.5.3-2.8 1.4-2.9 2 0 .3.1.6.2.8.3.7.2 1.6.7 2.2.7.9 2 .6 3 .3 3.7-1.3 7.2-3.4 10.1-6.1.3-.2.5-.5.8-.7"/>
  <path fill="#3e3839" d="M226.13 369.35c-.2.3-.2.5 0 .8v.1c0 .3.6.3.7.1.2-.2.4-.6.5-.9 0-.3.2-.6 0-.8s-.5-.2-.7-.1c-.3.2-.4.4-.5.8"/>
  <path d="M227.33 367.25c-.3.2-.5.4-.4.8-.1.1.1.2.2.2h.3s.1-.1.2-.1c.2-.1.5-.3.6-.6l.1-.1c.2-.2-.2-.3-.4-.3s-.3 0-.4.1h-.2m8.8-19.1c0-.1-.4-.1-.5.2 1.2 2.6 2.2 5.2 3 8 .4 1.5.8 3 1.1 4.5.2.6.3 1.3.4 2 .1.4.2.8.2 1.2 0 .3 0 1.6-.8 1.1-.1-.1-.5 0-.3.1.8.4 1.5-.2 1.5-1 0-.9-.2-1.9-.4-2.8l-.6-2.7c-.8-3.7-2.1-7.2-3.6-10.6m-1.9 31.8c-.1.1.3.2.4.1.6-.8.9-1.7 1-2.6 0-.1-.4-.1-.4 0-.1.9-.4 1.8-1 2.5m-2.2.6c-.2.1.2.2.3.2.7-.4 1.2-1.1 1.5-1.8 0-.2-.3-.2-.4-.1-.3.7-.8 1.3-1.4 1.7" class="vdw-7"/>
  <path fill="#ffe2bf" d="M248.83 376.75s0 .1-.1.3c-.1.4.3.6.5.9l.9 1.2c.4.5.9 1 1.3 1.4.2.2.8 1 1.1.9.7-.2 1.4-1.2 1.9-1.8.7-.7 1.2-1.5 1.7-2.3.6-1.1-.8-1.8-1.4-2.5-.7-.8-1.4-1.5-2.1-2.2 0-.1-.6-.2-.7 0-.6.8-1.2 1.7-1.8 2.5-.5.5-.9 1-1.3 1.6m2 2.1c-.5-.6-.9-1.3-1.5-1.8.7-.9 1.4-1.7 2-2.6 1 1.3 2.3 2.4 3.6 3.3-.7 1.1-1.5 2-2.4 2.9-.6-.6-1.2-1.2-1.7-1.8"/>
  <path fill="#ffe2bf" d="M252.53 376.55c-.4.2-.6.6-.6 1.2-.1.2.5.2.6.1.3-.2.6-.5.7-.9v-.1c.1-.1.1-.2 0-.3-.2-.1-.5-.2-.7 0"/>
  <path fill="#3e3839" d="M329.13 357.95c.7-11.3 1.4-22.6 1.9-33.6.1-1.4.1-2.7.2-4.1.2-5.2.4-10.4.5-15.6.1-4.3.5-8.6.5-12.9-.1-4.5-.4-9-.8-13.4-.8-8.7-1.8-17.5-1.4-26.2l.9-21.3c.4-4.3.2-8.6-.4-12.9-.6-3.2-2.4.7-2.6 1.9-.2 2.2-.3 4.3-.2 6.5-.1 4-.1 7.9-.2 11.8-.1 6.2-.2 12.4 0 18.6.3 11 2.1 21.9 1.9 32.9-.2 10.5-.4 21-.9 31.5-.4 10.3-1 20.6-1.9 30.9-.8 9.6-.8 19.5-2.6 28.9-1.1 6.1-2.9 12.8-6.3 18-2.9 4.7-6.8 8.7-11.4 11.7-10.5 6.4-21.7 2.4-30.7-4.6-4.3-3.5-8.3-7.4-11.9-11.7-1.1-1.3-2-2.6-3.1-3.9-1.3-1.5-2.5-3.9-4.1-5-1-.8-2.4-.7-3.3.1-.2.2-.3.6-.3.9 0 .2.1.4.3.6.2.3.3.5.5.7 5.5 7.3 11.8 13.8 18.9 19.6 3.3 2.8 6.9 5.2 10.8 7 4 1.6 8.2 2.3 12.4 2.2 6.8.1 13.5-3.2 18.2-8 12.9-13 14-33.4 15.1-50.6"/>
  <path fill="#ffe2bf" d="M250.93 382.25c-.5.4-.2 1.4.2 1.6.3.3.6.5.9.7.2.1.9.3 1 .5s-.1.4-.1.5c-.1.1 0 .3 0 .4.1.4-.2.4-.2.7-.1.2 0 .4.1.6v.1c.2.3.6.3.9.1.6-.3 1.1-.8 1.6-1.2.3-.2 1.2-.9 1.1-1.4l-.3-.3c-.3-.1-.6 0-.9 0-.2 0-.3-.3-.6-.4-.2-.1-.5-.1-.7.1 0 .1-.1.1-.1.1-.4-.7-.8-1.4-1.4-1.9-.3-.3-1-.6-1.5-.2m.6.9v-.3c.4-.4.8.3.9.5s.8 1 .6 1.3c-.1.1-.8-.3-.9-.4-.3-.2-.5-.5-.6-.9v-.2"/>
  <path fill="#f5c9a8" d="M246.23 378.35c-.3.9 1 2.5 1.4 3.4.6.8 1.4 1.5 2.4 1.9.5.2 1 .2 1.5 0 .2-.2.6-.9.1-.8-.1 0-.2.1-.3.2-.1.1-.2.1-.3.1-.8.1-1.6-.8-2.1-1.4-.5-.8-1-1.6-1.2-2.5-.1-.3-.2-.6-.1-.9 0-.2-.1-.4-.3-.5-.4-.2-.9.1-1.1.5"/>
  <path fill="#83402e" d="M404.63 443.35c-.5-1.7-.7-3.5-.5-5.4.1-2.1.2-4.6 1.8-6.1 3.7-3.5 10.5 1 13.6 3.2 3.2 2.3 7.9 6.5 7.7 10.8-.3 5.5-4.2 9.6-5.6 14.7-.5 2.1-.7 4.3-.6 6.5.1.7 0 1.3-.2 1.9-.4 1.2-2.4 1.3-3.4 1.4-1.3.1-3.1-.4-1.6-1.9.4-.5 1.3-.9 1.7-1.4.2-.5.3-1.1.2-1.7.1-1.7-.1-3.4-.4-5-.4-2-1.4-3.9-2.9-5.4-1.4-1.5-3.3-2.4-4.8-3.8-1.6-1.5-2.9-3.2-3.9-5.1-.5-.9-.8-1.8-1.1-2.7m116.8 10.7c-5.2-2.9-8.5-7.8-11.8-12.4-1.3-1.7-10.3-14-11.6-7-.2 1.2.2 2.4 1.1 3.2.8.8 1.8 1.5 2.8 2.1 6.4 4.2 11.1 10.7 17.4 15.2 4.6 3.2 9.9 5.3 15.5 5.9-3.4-3.7-9-4.5-13.4-7m-50.8-1.4c-1.2-1.4-2.2-3-2.9-4.8-1.9-4.5-1.5-9.6 3.8-11.3 1-.3 2-.5 3.1-.5 4.2-.2 8.6-.5 12.7.5 3.2.8 5.8 2.5 6.3 6 .5 4-1.8 6.6-4 9.5-1.9 2.5-2.5 5.6-1.8 8.6.3 1.2.9 2.4.6 3.6-.3.9-.7 1.6-1.3 2.2-1 .9-2.1 1.7-3.3 2.2-1 .4-2.2.6-3.1 1.2-.7.5-1 1.2-2.1 1.2-.2 0-.5-.1-.8-.1s-.7 0-1-.2c-.4-.4-.5-1.1-.1-1.5.7-.8 2.1-1.1 3.1-1.6 1.2-.6 2.2-1.3 3.1-2.2.2-.1.3-.4.4-.6 0-.3 0-.6-.1-.8-.1-.7-.3-1.3-.5-2l-.3-.6-.6-.3c-.7-.3-1.5-.6-2.2-1-2.8-1.4-5.3-3.3-7.4-5.7-.6-.6-1.1-1.2-1.6-1.8"/>
  <path fill="#8e4b34" d="M430.53 412.35c-1.3-5.8-1.9-11.7-2.9-17.5-.5-3.6-.4-8.3-3.5-10.9-4.2-3.5-12.7-.3-17.4.6-.6.1-1.2.3-1.7.6-1 .8-1.1 1.9-2.1 2.7-1.7 1.1-3.6 1.9-5.5 2.4-4.2 1.3-9.1 1.9-12 5.3-.3.3-.5.6-.6 1-.2.7-.1 1.4.3 2 .8 1.4 2.5 2.1 4.1 2.6 2.6.8 5.2 1.6 7.8 2.2 2.4.5 5.1 1.8 7.5 1.7.8 0 2.6-1 3.2-.8 3.8 1.4-.3 9.7-1.2 11.8-1.7 4.2-4.1 8.4-4.5 13-.6 8.1 4.1 16.5 12 19 3.8 1 7.7 1.5 11.6 1.3 16.8 0 33.6-3 50.2-.6 8.3 1.2 17.1 3.6 24.6 0 4.5-2.2 7.3-8.2 5-12.9-1.6-3.5-5.3-5.4-8.8-6.8-17.2-6.8-36.2-6.6-54.5-9.2-4.9-.7-9.8-.6-11.2-5.8-.1-.6-.3-1.1-.4-1.7"/>
  <path fill="#8e4b34" d="M408.33 444.55c-.5-2.3-.7-4.7-.5-7 .1-1.6.7-3.2 1.9-4.4 3.7-3.5 10.5 1 13.6 3.2 2.1 1.5 4.1 3.2 5.8 5.1 1.8 1.8 2.8 4.2 2.8 6.7 0 3.3-2 6.2-3.2 9.2-1.5 3.2-2.5 6.6-2.9 10.1-.1.9.2 3-.9 3.4-1.1.5-3.1 0-4.3 0-1.5-.1-.8-1-.2-1.8l.9-.9c.3-.1.6-.3.9-.4.9-3.3-.6-7.5-2.6-10.2-1.4-1.8-3.4-2.9-5.2-4.3-2-1.5-3.6-3.4-4.9-5.6-.5-1-.9-2-1.2-3.1m72.8 8.3c-4.1-5.6-6.7-13.7 1.2-16.2 1-.3 2-.5 3.1-.5 4.2-.2 8.6-.5 12.7.5 3.2.8 5.8 2.5 6.3 6 .2 2.2-.3 4.4-1.5 6.2-1 1.6-2.4 3-3.1 4.7s-.3 4.2 1.5 4.8c.7.1 1.3.3 1.9.6.7.6.6 1.7.5 2.6-.3 2.5-.7 4.9-1 7.4 0 .6-.2 1.1-.6 1.6-.5.3-1 .5-1.6.5-.9 0-3.2.8-3.3-.8 0-.6.3-1.2.9-1.5.6-.3 1.2-.4 1.8-.5-.1-1.3-.3-2.6-.7-3.9-.2-.7-.5-1.3-.9-1.8-.6-.5-1.4-.9-2.2-1-5.8-1.5-11.4-3.7-15-8.7"/>
  <path fill="#ff7e00" d="M431.13 408.55v-.3c-.1-.7-.2-1.3-.3-2s-.2-1.7-1-2c-.4-.1-.7-.2-1.1-.1l-2 .2c-1 0-1.9.1-2.9.2-.9.1-1.8.3-2.7.5-1.7.3-3.5.6-5.2.8-2 .2-3.9.1-5.9.1-.5 0-1.3 0-1.5.6-.1.2-.1.5-.1.7 0 .9-.1 1.9-.1 2.8 0 .7-.3 1.8.6 1.9 2.3.2 4.7.2 7-.1l4.1-.3 5.9-.5 3-.2c.8 0 1.8.1 2.1-.8.2-.5.2-1 .1-1.5"/>
  <path fill="#3e3839" d="M405.43 388.85c0 .5.2.9.5 1.1.1 0 .1.1.2.1.2.1.4.1.6 0 0-.1.1-.1.1-.2.3-.3.5-.8.3-1.2v-.1c-.1-.4-.6-.7-1-.6h-.1c-.2-.1-.4 0-.5.2s-.1.3-.1.5v.2m-20.3 6.9c-.2.7-.1 1.4.1 1.9.6.6 1.6-.2 2.1-.6.5-.3.9-.7 1.2-1.1.5-.6 1.8-2 1.4-2.8-.3-.6-1.1-.5-1.6-.3s-1.5.5-1.8 1l-.6.6c-.4.4-.6.8-.8 1.3m2 .9q-.1.1 0 0-.1.1 0 0c.2-.3.5-.6.8-1-.2.3-.5.7-.8 1m13.2 6.4c-.5 0-.4.4 0 .6 1.3.1 2.5.1 3.8-.2.3-.1.5-.2.8-.3h.3c.6-.2 1.2-.4 1.8-.7.4-.2.9-.5.8-1s-.7-.5-1-.4c-.5.1-.9.4-1.1.8l-.1.1c-.2.2-.5.3-.7.4s-.2.1-.2.2c-.4.2-.7.3-1.1.4-1.1.2-2.2.2-3.3.1"/>
  <path fill="#83402e" d="M428.93 434.05c-.1-.2-.8-.1-.7.1.8 2.4 2.3 4.5 4.3 6.1.2.2.9 0 .6-.2-1.9-1.5-3.4-3.6-4.2-6m3.6 2.1c-.1-.3-.9-.2-.7.1 1 1.6 2.3 3.1 3.8 4.3.2.2.9 0 .6-.2-1.4-1.2-2.7-2.6-3.7-4.2m14.2 3.2c-.3-.1-.9.1-.5.3 2.1 1.1 4.3 2.2 6.5 3.1.3.1.8-.2.4-.4-2.2-.9-4.3-1.9-6.4-3m34.9 4.2c-.3 2.7.2 5.4 1.6 7.7.1.2.8.2.7-.1-1.3-2.3-1.9-4.9-1.6-7.6.1-.3-.7-.3-.7 0m3.3 3.6c0-.3-.7-.3-.7 0 0 2.2.9 4.3 2.3 6 .1.2.8.1.6-.2-1.4-1.6-2.2-3.7-2.2-5.8m4.8 5.3c-.1-.3-.8-.2-.7.1.9 1.5 2 2.8 3.2 4 .1.2.9 0 .6-.2-1.2-1.2-2.2-2.5-3.1-3.9m6.8-18.4c-.2-.2-.9 0-.6.2l2.1 2c.1.2.9 0 .6-.2l-2.1-2m-33.4-9.1c-.4-.1-.7.3-.2.4 2.7.5 5.3 1.3 7.8 2.4.2.1.9-.1.5-.3-2.6-1.2-5.3-2-8.1-2.5m-58.3.5c-.8 3.4-1.5 6.9 0 10.3.1.3.8.2.7-.1-1.5-3.4-.8-6.8 0-10.2.1-.2-.6-.3-.7 0m1.6 6.6c0-.3-.8-.3-.8 0 .1 2.1.6 4.1 1.5 5.9.1.2.8.2.7-.1-.8-1.8-1.3-3.8-1.4-5.8m3 3.6c-.1-.3-.8-.2-.6.1.4 1.7 1.3 3.3 2.5 4.7.1.2.8.1.6-.2-1.2-1.3-2-2.9-2.5-4.6m-2.3-49.5c-.3-.1-.9.2-.3.3.8.4 1.5 1 1.9 1.9.1.3.8.2.7-.1-.5-1-1.3-1.7-2.3-2.1m-4 3.4c-.2.1 0 .3.1.2.8.3 1.5.8 2 1.5.1.2.8.1.6-.2-.5-.7-1.1-1.2-1.9-1.5l.9-.7c.3-.2-.4-.4-.6-.2l-1.1.9"/>
  <path fill="#3e3839" d="M450.23 264.25c0-.8-.1-1.6 0-2.5-.3-3.8-.4-7.6-.4-11.4v-1.6c0-4 .3-7.9.6-11.8.2-1.8.4-3.7.4-5.5s.7-3.5.1-5.2c-.1-.4-.3-.8-.5-1.2l-.3-.9c-.2-.4-.2-.5-.6-.2-.5.6-.9 1.3-1.1 2.1-.4.9-.6 1.9-.8 2.9-.3 2-.4 4-.3 6 .2 7.4.3 14.9.5 22.4.3 13.2.5 26.4 2.5 39.4 4.3 28.7 15.8 55.9 16.4 85.2.2 8.6 0 17.3-.3 25.9 0 5.2-.6 10.4-1.6 15.5-.8 3.5-1.4 7.4-4 10.1-2.6 2.7-6.3 4-10 3.5-6.3-.6-12-3.8-15.9-8.8-3.1-4.1-4.9-8.8-6.8-13.5 0-.1-.1-.3-.2-.4-.3-.3-.8-.3-1.2-.3-2-.2-2.1 0-1.6 1.8.4 2 1 3.8 1.6 5.7 2.3 6.2 6.3 11.6 12.2 14.8 6.5 3.5 17.9 6.6 23.8.4 2.7-2.8 3.8-6.9 4.6-10.6 5.1-25.1 1.8-50.9-2.4-75.8-2.4-14.6-6.8-28.8-9.5-43.4-2.5-14.1-4.3-28.3-5.2-42.6"/>
  <path fill="#ffe2bf" d="M424.93 413.65h-.3c-.2.2-.3.5-.2.7.2.4.8.2 1.1.1.8-.2 1.6 0 2.4-.2.1 0 .2-.1.2-.2.1-.2.1-.4 0-.5s-.4-.1-.5-.1h-.2c0-.2-.1-.5-.3-.6-.2-.2-.5-.2-.7-.2.1-.9.7-3.2-.8-2.9-.6.2-.8.9-.8 1.4.1.6.2 1.2.5 1.7 0 0-.1 0-.2.1-.1.2-.2.4-.2.7m1-2.7c.1.2.1.4.1.7 0 .1-.1.3-.1.5q-.1-.1-.1-.2c-.1-.3-.2-.6-.2-.9 0-.4.2-.7.3-.2v.1"/>
  <path fill="#f5c9a8" d="M425.73 403.95c-.2-.1-.5 0-.8.3-.3.3-.5.7-.5 1.2-.2 1-.2 2.1 0 3.1.1.9.4 1.8.9 2.6l.3.3c.4.2.3-.4.2-.6-.1-.2-.2-.3-.3-.4-.2-.5-.3-1.1-.3-1.7-.1-.9 0-1.7.1-2.5.1-.4.2-.7.3-1.1 0-.3.3-.6.3-.9 0-.1-.1-.3-.2-.3"/>
  <path fill="#83402e" d="M426.73 393.75c-.2-1-.5-1.9-.6-2.8-.2-.7-.5-1.3-.9-1.9-.3-.3-.7-.6-1.1-.9-1.9-1.4-3.8-2.7-5.8-3.9-4.5-2.8-6.5 4.5-6.5 7.5.1 7 2 13.9 5.6 19.9 1 1.8 2.7 6.2 5 3.8 1.3-1.3 1.3-3.2 1.8-4.8.6-1.9 1.2-3.7 1.7-5.6 1.1-3.7 1.4-7.5.8-11.3"/>
  <path fill="#666793" d="M22.04 311.36C1.05 319.01-1.22 339.53.43 355.05c3.53 29.65 16.25 59.38 40.06 83.27 12.19 12.24 28.17 23.07 47.67 27.7 5.72 1.35 11.6 2.09 17.41 2.38 4.57.26 9.25.44 13.7-.3h.1c.53-.03.77-.45.6-.82-.06-.45-.56-.68-.99-.54-3.8.44-7.68.61-11.52.33-5.51-.26-10.98-.87-16.41-1.92C33 452.27 1.12 386.13 1.91 343.93c.44-12.2 5.58-26.73 21.61-31.72 14.82-4.39 31.54-4.58 46.82-1.69 12.6 2.46 24.12 7.58 34.06 13.89-10.19 8.32-5.17 21.31 1.19 30.14 12.13 16.17 29.01 8.76 22.98-7.81-3.95-8.87-12.45-16.12-21.35-22.33 12.43-7.75 35.23.6 49.98 1.29 13.85 1.41 27.87-2.25 38.62-8.73 17.34-9.96 21.28-28.26 15.33-43.49-3.58-9.46-10.11-18.75-20.6-24.76 9.14-15.93 9.17-34.78 22.56-49.32 18.95-19.19 54.09-15.48 75.3-.49-12.65 5.67-22.52 15.09-25.06 26.29-3 12.85.68 30.01 13.36 39.35 5.94 4.41 14.62 4.26 19.98-.42 5.01-4.35 6.94-10.33 7.48-16 3.18 3.88 6.85 8.07 12.63 9.79 8.47 2.06 10.32-5.36 8.58-10.09-6.25-17.58-16.09-35.86-33.63-48.97 37.64-15.98 73.89-3.13 91.85 25.22 8.33 13.4 10.38 29.06 22.48 41.11 6.57 6.61 16.12 12.62 27.5 12.64 14.42-.14 27.11-8.4 32.44-18.35 9.27 4.55 20.64 5.73 31.33 4.15 6.64-.71 13.15-2.23 19.85-2.39 12.11 0 24 3.37 33.95 9.5 14.19 8.78 27.82 26.7 16.33 39.9-2.4-3.27-6.34-5.7-10.76-6.48-4.7-.99-11.95-.52-13.21 3.83-.95 4.47 4.67 7.87 9.81 8.8 4.93.83 10.07-.47 13.69-3.43 3.43 7.75.87 16.08-2.05 23.67-2.72 6.62-5.45 13.33-9.79 19.44-.47.58-.95 1.16-1.41 1.65-.7.74.89 1.61 1.59.78 5.15-5.85 7.59-12.86 10.63-19.45 3.55-8.69 6.87-18.38 2.39-27.21 14.73-15.48-4.21-37.85-23.05-46.09-9.41-4.2-20.54-6.79-31.47-5.96-17.51 1.9-30.56 6.28-47.21-1.83 2.73-5.64 3.68-12.25.03-17.78-2.26-3.61-7.16-7.03-12.74-6.49-5.81.7-6.83 5.96-5.29 9.5 2.53 6.32 8.71 11.56 15.66 15.26-4.81 8.84-14.07 15.1-25.13 17.26-21.85 3.63-36.34-14.02-42.57-27.48-2.51-5.42-4.48-11.06-6.97-16.57-2.77-5.98-6.4-11.69-10.91-16.95-20.77-24.06-55.35-31.38-88.56-17.04-13.31-9.23-31.86-15.02-49.92-12.81-41.6 6.03-38.27 38.97-51.17 62.58-6.96-3.61-15.47-6.3-24.08-5.79-9.13.47-16.81 6.62-13.73 13.7 2.69 6.87 13.55 10.05 22.04 7.56 7.84-2.29 13.17-7.77 16.62-13.34 9.69 5.66 15.65 14.28 19.2 23.01 6.19 14.98 2.7 32.97-14.43 42.86-10.2 6.18-23.26 9.66-36.3 8.51-16-.72-38.86-9.52-52.52-.91-10.72-6.84-23.25-12.32-37.02-14.62-15.31-2.54-32.25-2.28-46.8 2.5m143.06-67.39c8.3-.55 16.4 2.1 23.15 5.7-3 5.16-7.76 10.16-14.66 12.54-6.26 2.17-14.49.94-18.58-3.3-6.45-6.78-.19-14.41 10.09-14.94m386.98 61.83c5.95-.05 11.65 2.63 14.07 6.79-12.53 10.95-31.17-5.84-14.07-6.79m-87.45-64.66c3.78 5.27 2.97 11.54.36 16.93-6.35-3.47-12.04-8.39-14.51-14.17-1.19-2.88-.87-7.24 3.78-7.86 4.52-.37 8.34 2.32 10.37 5.1m-166.92-9.7c3.74 2.41 4.23 8.18 4.72 11.8-2.09-3.33-6.22-8.1-4.72-11.8m-32.91 9.1c-2.98-16.91 5.63-31.63 25.14-40.23 15.36 10.76 24.07 25.63 30.69 40.38 1.53 3.63 3.37 7.38 3.52 11.24.07 5.82-5.54 6.62-10.63 3.09-3.92-2.61-6.54-5.9-9.14-9.19.01-2.32-.18-4.66-.69-6.95-2.25-12.46-12.78-11.5-5.98.32.98 1.79 2.18 3.43 3.37 5.15.44.85 1.52 1.57 1.32 2.54-.06 8.22-5.86 23.03-19.99 19.09-11.29-4.12-16.05-16.63-17.61-25.46M107.28 354.29c-5.71-7.97-10.64-19.7-2.58-27.59.34-.32.79-.64 1.13-.96 8.32 5.71 16.25 12.36 20.38 20.45 6.73 14.77-6.86 23.74-18.94 8.11"/>
</svg>