<svg id="Group_248" data-name="Group 248" xmlns="http://www.w3.org/2000/svg" xmlns:xlink="http://www.w3.org/1999/xlink" width="167.463" height="282.044" viewBox="0 0 167.463 282.044">
  <defs>
    <clipPath id="clip-path">
      <rect id="Rectangle_185" data-name="Rectangle 185" width="167.463" height="282.044" fill="none" stroke="#e71019" stroke-width="1"/>
    </clipPath>
  </defs>
  <g id="Group_247" data-name="Group 247" transform="translate(0 0)" clip-path="url(#clip-path)">
    <path id="Path_950" data-name="Path 950" d="M55.01,18.559a65.912,65.912,0,0,0-6.367,6.78c-4.47,5.367-10.264,12.358-6.089,19.49a10.837,10.837,0,0,0,3.176,3.584c3.492,2.369,9.008,2.867,13.083,3.682q7.769,1.549,15.667,2.348c3.769.383,7.173.072,9.707-3.114a13.134,13.134,0,0,0,2.585-7.8c.211-7.024-3.25-12.535-6.693-18.368a47.137,47.137,0,0,0-5.786-8.116c-1.945-2.109-4.244-4.584-7.268-4.9a8.88,8.88,0,0,0-5.359,1.48A43.064,43.064,0,0,0,55.01,18.559Z" transform="translate(64.519 19.009)" fill="none" stroke="#e71019" stroke-miterlimit="10" stroke-width="1"/>
    <path id="Path_951" data-name="Path 951" d="M38.626,21.238A10.724,10.724,0,0,0,40,27.106a7.081,7.081,0,0,0,10.734,1.115c1.773-1.829,2.387-4.476,2.711-7,.635-4.941.211-10.339-4-13.64a5.557,5.557,0,0,0-3.111-1.328A5.054,5.054,0,0,0,42.28,8.428c-2.538,3.34-3.6,8.576-3.653,12.672Z" transform="translate(60.613 9.801)" fill="none" stroke="#e71019" stroke-miterlimit="10" stroke-width="1"/>
    <path id="Path_952" data-name="Path 952" d="M47.057,6.7C45.4,10.795,44.444,19.237,48.19,22.616a5.713,5.713,0,0,0,3.021,1.274A8.858,8.858,0,0,0,58,22.279c2.068-1.711,2.829-4.535,3.1-7.2a19.38,19.38,0,0,0-.668-7.947C59.523,4.326,57.373.7,54.1.508c-3.111-.18-5.48,2.847-6.677,5.37Q47.227,6.282,47.057,6.7Z" transform="translate(71.554 0.785)" fill="none" stroke="#e71019" stroke-miterlimit="10" stroke-width="1"/>
    <path id="Path_953" data-name="Path 953" d="M53.458,10.707a20.446,20.446,0,0,0,.424,7.957,9.839,9.839,0,0,0,2.03,4.211,6.647,6.647,0,0,0,5.688,2.1,6.878,6.878,0,0,0,5.033-3.409c1.393-2.477,1.136-5.506.948-8.34a21.064,21.064,0,0,0-1.03-6.408c-1.038-2.621-4.419-5.493-7.425-4.275C55.683,3.934,54.008,7.171,53.458,10.707Z" transform="translate(83.555 3.532)" fill="none" stroke="#e71019" stroke-miterlimit="10" stroke-width="1"/>
    <path id="Path_954" data-name="Path 954" d="M59.592,28.528a4.781,4.781,0,0,0,1.3,2.114,6.348,6.348,0,0,0,3.666,1.48,7.605,7.605,0,0,0,4.319-.814,9.021,9.021,0,0,0,4.2-6.5c.776-4.437.141-10.269-2.762-13.876-1.164-1.449-3.1-2.644-4.82-1.95a5.007,5.007,0,0,0-2.109,2.027,25.187,25.187,0,0,0-3.869,9.984C59.191,23.05,58.824,26.184,59.592,28.528Z" transform="translate(92.8 13.775)" fill="none" stroke="#e71019" stroke-miterlimit="10" stroke-width="1"/>
    <line id="Line_215" data-name="Line 215" y1="2.962" x2="3.628" transform="translate(121.807 36.25)" fill="none" stroke="#e71019" stroke-linecap="round" stroke-miterlimit="10" stroke-width="1"/>
    <line id="Line_216" data-name="Line 216" y1="7.98" x2="8.463" transform="translate(124.044 32.26)" fill="none" stroke="#e71019" stroke-linecap="round" stroke-miterlimit="10" stroke-width="1"/>
    <line id="Line_217" data-name="Line 217" y1="8.283" x2="8.342" transform="translate(126.885 33.045)" fill="none" stroke="#e71019" stroke-linecap="round" stroke-miterlimit="10" stroke-width="1"/>
    <line id="Line_218" data-name="Line 218" y1="4.655" x2="4.232" transform="translate(129.303 38.909)" fill="none" stroke="#e71019" stroke-linecap="round" stroke-miterlimit="10" stroke-width="1"/>
    <line id="Line_219" data-name="Line 219" y1="2.721" x2="2.359" transform="translate(134.684 34.557)" fill="none" stroke="#e71019" stroke-linecap="round" stroke-miterlimit="10" stroke-width="1"/>
    <line id="Line_220" data-name="Line 220" y1="8.887" x2="7.677" transform="translate(131.178 37.036)" fill="none" stroke="#e71019" stroke-linecap="round" stroke-miterlimit="10" stroke-width="1"/>
    <line id="Line_221" data-name="Line 221" y1="6.952" x2="5.562" transform="translate(135.107 39.575)" fill="none" stroke="#e71019" stroke-linecap="round" stroke-miterlimit="10" stroke-width="1"/>
    <line id="Line_222" data-name="Line 222" y1="7.859" x2="6.045" transform="translate(136.679 42.295)" fill="none" stroke="#e71019" stroke-linecap="round" stroke-miterlimit="10" stroke-width="1"/>
    <line id="Line_223" data-name="Line 223" x1="9.552" y2="12.574" transform="translate(134.683 45.137)" fill="none" stroke="#e71019" stroke-linecap="round" stroke-miterlimit="10" stroke-width="1"/>
    <line id="Line_224" data-name="Line 224" x1="4.936" y2="6.577" transform="translate(140.448 47.797)" fill="none" stroke="#e71019" stroke-linecap="round" stroke-miterlimit="10" stroke-width="1"/>
    <line id="Line_225" data-name="Line 225" x1="6.166" y2="8.039" transform="translate(140.971 51)" fill="none" stroke="#e71019" stroke-linecap="round" stroke-miterlimit="10" stroke-width="1"/>
    <line id="Line_226" data-name="Line 226" x1="6.015" y2="8.373" transform="translate(142.392 53.963)" fill="none" stroke="#e71019" stroke-linecap="round" stroke-miterlimit="10" stroke-width="1"/>
    <line id="Line_227" data-name="Line 227" x1="7.826" y2="10.082" transform="translate(141.971 58.194)" fill="none" stroke="#e71019" stroke-linecap="round" stroke-miterlimit="10" stroke-width="1"/>
    <line id="Line_228" data-name="Line 228" x1="3.083" y2="3.445" transform="translate(105.787 17.691)" fill="none" stroke="#e71019" stroke-linecap="round" stroke-miterlimit="10" stroke-width="1"/>
    <line id="Line_229" data-name="Line 229" x1="5.442" y2="5.804" transform="translate(105.968 18.779)" fill="none" stroke="#e71019" stroke-linecap="round" stroke-miterlimit="10" stroke-width="1"/>
    <line id="Line_230" data-name="Line 230" y1="2.721" x2="2.721" transform="translate(108.326 22.769)" fill="none" stroke="#e71019" stroke-linecap="round" stroke-miterlimit="10" stroke-width="1"/>
    <line id="Line_231" data-name="Line 231" y1="5.259" x2="5.622" transform="translate(108.145 23.857)" fill="none" stroke="#e71019" stroke-linecap="round" stroke-miterlimit="10" stroke-width="1"/>
    <line id="Line_232" data-name="Line 232" y1="3.628" x2="4.172" transform="translate(108.87 27.847)" fill="none" stroke="#e71019" stroke-linecap="round" stroke-miterlimit="10" stroke-width="1"/>
    <line id="Line_233" data-name="Line 233" x1="2.857" y2="2.176" transform="translate(110.638 31.112)" fill="none" stroke="#e71019" stroke-linecap="round" stroke-miterlimit="10" stroke-width="1"/>
    <line id="Line_234" data-name="Line 234" x1="2.585" y2="4.306" transform="translate(123.605 1.278)" fill="none" stroke="#e71019" stroke-linecap="round" stroke-miterlimit="10" stroke-width="1"/>
    <line id="Line_235" data-name="Line 235" x1="3.628" y2="6.392" transform="translate(123.605 2.729)" fill="none" stroke="#e71019" stroke-linecap="round" stroke-miterlimit="10" stroke-width="1"/>
    <line id="Line_236" data-name="Line 236" x1="2.675" y2="3.854" transform="translate(126.508 5.041)" fill="none" stroke="#e71019" stroke-linecap="round" stroke-miterlimit="10" stroke-width="1"/>
    <line id="Line_237" data-name="Line 237" x1="1.179" y2="2.176" transform="translate(129.273 6.492)" fill="none" stroke="#e71019" stroke-linecap="round" stroke-miterlimit="10" stroke-width="1"/>
    <line id="Line_238" data-name="Line 238" x1="1.315" y2="1.814" transform="translate(126.734 9.984)" fill="none" stroke="#e71019" stroke-linecap="round" stroke-miterlimit="10" stroke-width="1"/>
    <line id="Line_239" data-name="Line 239" x1="4.08" y2="5.349" transform="translate(127.324 9.666)" fill="none" stroke="#e71019" stroke-linecap="round" stroke-miterlimit="10" stroke-width="1"/>
    <line id="Line_240" data-name="Line 240" x1="4.126" y2="4.172" transform="translate(127.097 14.517)" fill="none" stroke="#e71019" stroke-linecap="round" stroke-miterlimit="10" stroke-width="1"/>
    <line id="Line_241" data-name="Line 241" x1="3.021" y2="3.749" transform="translate(142.12 6.628)" fill="none" stroke="#e71019" stroke-linecap="round" stroke-miterlimit="10" stroke-width="1"/>
    <line id="Line_242" data-name="Line 242" x1="4.594" y2="6.287" transform="translate(142.12 7.475)" fill="none" stroke="#e71019" stroke-linecap="round" stroke-miterlimit="10" stroke-width="1"/>
    <line id="Line_243" data-name="Line 243" x1="4.111" y2="4.715" transform="translate(145.263 8.805)" fill="none" stroke="#e71019" stroke-linecap="round" stroke-miterlimit="10" stroke-width="1"/>
    <line id="Line_244" data-name="Line 244" x1="4.835" y2="5.077" transform="translate(144.78 13.157)" fill="none" stroke="#e71019" stroke-linecap="round" stroke-miterlimit="10" stroke-width="1"/>
    <line id="Line_245" data-name="Line 245" x1="3.266" y2="2.901" transform="translate(146.713 16.422)" fill="none" stroke="#e71019" stroke-linecap="round" stroke-miterlimit="10" stroke-width="1"/>
    <line id="Line_246" data-name="Line 246" x1="3.266" y2="3.021" transform="translate(146.833 19.807)" fill="none" stroke="#e71019" stroke-linecap="round" stroke-miterlimit="10" stroke-width="1"/>
    <line id="Line_247" data-name="Line 247" x1="2.78" y2="3.386" transform="translate(158.442 23.797)" fill="none" stroke="#e71019" stroke-linecap="round" stroke-miterlimit="10" stroke-width="1"/>
    <line id="Line_248" data-name="Line 248" x1="3.869" y2="4.835" transform="translate(158.804 25.369)" fill="none" stroke="#e71019" stroke-linecap="round" stroke-miterlimit="10" stroke-width="1"/>
    <line id="Line_249" data-name="Line 249" x1="4.594" y2="6.045" transform="translate(159.53 27.061)" fill="none" stroke="#e71019" stroke-linecap="round" stroke-miterlimit="10" stroke-width="1"/>
    <line id="Line_250" data-name="Line 250" x1="5.2" y2="6.649" transform="translate(160.254 29.238)" fill="none" stroke="#e71019" stroke-linecap="round" stroke-miterlimit="10" stroke-width="1"/>
    <line id="Line_251" data-name="Line 251" x1="1.816" y2="1.816" transform="translate(163.821 33.528)" fill="none" stroke="#e71019" stroke-linecap="round" stroke-miterlimit="10" stroke-width="1"/>
    <line id="Line_252" data-name="Line 252" x1="3.869" y2="3.507" transform="translate(161.464 37.218)" fill="none" stroke="#e71019" stroke-linecap="round" stroke-miterlimit="10" stroke-width="1"/>
    <path id="Path_955" data-name="Path 955" d="M48.351,74.23a65.911,65.911,0,0,0-6.367,6.78C37.514,86.377,31.72,93.368,35.9,100.5a10.838,10.838,0,0,0,3.176,3.584c3.492,2.369,9.008,2.867,13.083,3.682q7.769,1.549,15.667,2.348c3.769.383,7.173.072,9.707-3.114a13.134,13.134,0,0,0,2.585-7.8c.211-7.024-3.25-12.535-6.693-18.368a47.137,47.137,0,0,0-5.786-8.116c-1.945-2.109-4.244-4.584-7.268-4.9a8.88,8.88,0,0,0-5.359,1.48A43.062,43.062,0,0,0,48.351,74.23Z" transform="translate(54.069 106.37)" fill="none" stroke="#e71019" stroke-miterlimit="10" stroke-width="1"/>
    <path id="Path_956" data-name="Path 956" d="M31.967,76.908a10.724,10.724,0,0,0,1.372,5.868,7.081,7.081,0,0,0,10.734,1.115c1.773-1.829,2.387-4.476,2.711-7,.635-4.941.211-10.339-4-13.64a5.557,5.557,0,0,0-3.111-1.328A5.054,5.054,0,0,0,35.621,64.1c-2.538,3.34-3.6,8.576-3.653,12.672Z" transform="translate(50.164 97.161)" fill="none" stroke="#e71019" stroke-miterlimit="10" stroke-width="1"/>
    <path id="Path_957" data-name="Path 957" d="M40.4,62.372c-1.655,4.093-2.613,12.535,1.133,15.914a5.713,5.713,0,0,0,3.021,1.274,8.858,8.858,0,0,0,6.793-1.611c2.068-1.711,2.829-4.535,3.1-7.2a19.38,19.38,0,0,0-.668-7.947c-.912-2.806-3.063-6.436-6.338-6.624-3.111-.18-5.48,2.847-6.677,5.37Q40.569,61.952,40.4,62.372Z" transform="translate(61.106 88.144)" fill="none" stroke="#e71019" stroke-miterlimit="10" stroke-width="1"/>
    <path id="Path_958" data-name="Path 958" d="M46.8,66.378a20.446,20.446,0,0,0,.424,7.957,9.839,9.839,0,0,0,2.03,4.211,6.647,6.647,0,0,0,5.688,2.1,6.878,6.878,0,0,0,5.033-3.409c1.393-2.477,1.136-5.506.948-8.34a21.065,21.065,0,0,0-1.03-6.408c-1.038-2.621-4.419-5.493-7.425-4.275C49.024,59.605,47.349,62.842,46.8,66.378Z" transform="translate(73.105 90.893)" fill="none" stroke="#e71019" stroke-miterlimit="10" stroke-width="1"/>
    <path id="Path_959" data-name="Path 959" d="M52.934,84.2a4.781,4.781,0,0,0,1.3,2.114,6.348,6.348,0,0,0,3.666,1.48,7.605,7.605,0,0,0,4.319-.814,9.021,9.021,0,0,0,4.2-6.5c.776-4.437.141-10.269-2.762-13.876-1.164-1.449-3.1-2.644-4.82-1.95a5.007,5.007,0,0,0-2.109,2.027,25.187,25.187,0,0,0-3.869,9.984C52.533,78.72,52.166,81.854,52.934,84.2Z" transform="translate(82.352 101.135)" fill="none" stroke="#e71019" stroke-miterlimit="10" stroke-width="1"/>
    <line id="Line_253" data-name="Line 253" y1="2.962" x2="3.628" transform="translate(104.699 179.281)" fill="none" stroke="#e71019" stroke-linecap="round" stroke-miterlimit="10" stroke-width="1"/>
    <line id="Line_254" data-name="Line 254" y1="7.98" x2="8.463" transform="translate(106.936 175.291)" fill="none" stroke="#e71019" stroke-linecap="round" stroke-miterlimit="10" stroke-width="1"/>
    <line id="Line_255" data-name="Line 255" y1="8.283" x2="8.342" transform="translate(109.777 176.076)" fill="none" stroke="#e71019" stroke-linecap="round" stroke-miterlimit="10" stroke-width="1"/>
    <line id="Line_256" data-name="Line 256" y1="4.655" x2="4.232" transform="translate(112.195 181.94)" fill="none" stroke="#e71019" stroke-linecap="round" stroke-miterlimit="10" stroke-width="1"/>
    <line id="Line_257" data-name="Line 257" y1="2.721" x2="2.359" transform="translate(117.575 177.588)" fill="none" stroke="#e71019" stroke-linecap="round" stroke-miterlimit="10" stroke-width="1"/>
    <line id="Line_258" data-name="Line 258" y1="8.887" x2="7.677" transform="translate(114.069 180.067)" fill="none" stroke="#e71019" stroke-linecap="round" stroke-miterlimit="10" stroke-width="1"/>
    <line id="Line_259" data-name="Line 259" y1="6.952" x2="5.562" transform="translate(117.999 182.606)" fill="none" stroke="#e71019" stroke-linecap="round" stroke-miterlimit="10" stroke-width="1"/>
    <line id="Line_260" data-name="Line 260" y1="7.859" x2="6.045" transform="translate(119.57 185.326)" fill="none" stroke="#e71019" stroke-linecap="round" stroke-miterlimit="10" stroke-width="1"/>
    <line id="Line_261" data-name="Line 261" x1="9.552" y2="12.574" transform="translate(117.575 188.168)" fill="none" stroke="#e71019" stroke-linecap="round" stroke-miterlimit="10" stroke-width="1"/>
    <line id="Line_262" data-name="Line 262" x1="4.936" y2="6.577" transform="translate(123.34 190.828)" fill="none" stroke="#e71019" stroke-linecap="round" stroke-miterlimit="10" stroke-width="1"/>
    <line id="Line_263" data-name="Line 263" x1="6.166" y2="8.039" transform="translate(123.863 194.031)" fill="none" stroke="#e71019" stroke-linecap="round" stroke-miterlimit="10" stroke-width="1"/>
    <line id="Line_264" data-name="Line 264" x1="6.015" y2="8.373" transform="translate(125.284 196.994)" fill="none" stroke="#e71019" stroke-linecap="round" stroke-miterlimit="10" stroke-width="1"/>
    <line id="Line_265" data-name="Line 265" x1="7.826" y2="10.082" transform="translate(124.863 201.225)" fill="none" stroke="#e71019" stroke-linecap="round" stroke-miterlimit="10" stroke-width="1"/>
    <line id="Line_266" data-name="Line 266" x1="3.083" y2="3.445" transform="translate(88.679 160.722)" fill="none" stroke="#e71019" stroke-linecap="round" stroke-miterlimit="10" stroke-width="1"/>
    <line id="Line_267" data-name="Line 267" x1="5.442" y2="5.804" transform="translate(88.86 161.81)" fill="none" stroke="#e71019" stroke-linecap="round" stroke-miterlimit="10" stroke-width="1"/>
    <line id="Line_268" data-name="Line 268" y1="2.721" x2="2.721" transform="translate(91.218 165.8)" fill="none" stroke="#e71019" stroke-linecap="round" stroke-miterlimit="10" stroke-width="1"/>
    <line id="Line_269" data-name="Line 269" y1="5.259" x2="5.622" transform="translate(91.037 166.888)" fill="none" stroke="#e71019" stroke-linecap="round" stroke-miterlimit="10" stroke-width="1"/>
    <line id="Line_270" data-name="Line 270" y1="3.628" x2="4.172" transform="translate(91.762 170.877)" fill="none" stroke="#e71019" stroke-linecap="round" stroke-miterlimit="10" stroke-width="1"/>
    <line id="Line_271" data-name="Line 271" x1="2.857" y2="2.176" transform="translate(93.53 174.143)" fill="none" stroke="#e71019" stroke-linecap="round" stroke-miterlimit="10" stroke-width="1"/>
    <line id="Line_272" data-name="Line 272" x1="2.585" y2="4.306" transform="translate(106.497 144.309)" fill="none" stroke="#e71019" stroke-linecap="round" stroke-miterlimit="10" stroke-width="1"/>
    <line id="Line_273" data-name="Line 273" x1="3.628" y2="6.392" transform="translate(106.497 145.76)" fill="none" stroke="#e71019" stroke-linecap="round" stroke-miterlimit="10" stroke-width="1"/>
    <line id="Line_274" data-name="Line 274" x1="2.675" y2="3.854" transform="translate(109.4 148.072)" fill="none" stroke="#e71019" stroke-linecap="round" stroke-miterlimit="10" stroke-width="1"/>
    <line id="Line_275" data-name="Line 275" x1="1.179" y2="2.176" transform="translate(112.165 149.523)" fill="none" stroke="#e71019" stroke-linecap="round" stroke-miterlimit="10" stroke-width="1"/>
    <line id="Line_276" data-name="Line 276" x1="1.315" y2="1.814" transform="translate(109.625 153.015)" fill="none" stroke="#e71019" stroke-linecap="round" stroke-miterlimit="10" stroke-width="1"/>
    <line id="Line_277" data-name="Line 277" x1="4.08" y2="5.349" transform="translate(110.216 152.697)" fill="none" stroke="#e71019" stroke-linecap="round" stroke-miterlimit="10" stroke-width="1"/>
    <line id="Line_278" data-name="Line 278" x1="4.126" y2="4.172" transform="translate(109.988 157.548)" fill="none" stroke="#e71019" stroke-linecap="round" stroke-miterlimit="10" stroke-width="1"/>
    <line id="Line_279" data-name="Line 279" x1="3.021" y2="3.749" transform="translate(125.012 149.659)" fill="none" stroke="#e71019" stroke-linecap="round" stroke-miterlimit="10" stroke-width="1"/>
    <line id="Line_280" data-name="Line 280" x1="4.594" y2="6.287" transform="translate(125.012 150.506)" fill="none" stroke="#e71019" stroke-linecap="round" stroke-miterlimit="10" stroke-width="1"/>
    <line id="Line_281" data-name="Line 281" x1="4.111" y2="4.715" transform="translate(128.155 151.836)" fill="none" stroke="#e71019" stroke-linecap="round" stroke-miterlimit="10" stroke-width="1"/>
    <line id="Line_282" data-name="Line 282" x1="4.835" y2="5.077" transform="translate(127.672 156.188)" fill="none" stroke="#e71019" stroke-linecap="round" stroke-miterlimit="10" stroke-width="1"/>
    <line id="Line_283" data-name="Line 283" x1="3.266" y2="2.901" transform="translate(129.605 159.453)" fill="none" stroke="#e71019" stroke-linecap="round" stroke-miterlimit="10" stroke-width="1"/>
    <line id="Line_284" data-name="Line 284" x1="3.266" y2="3.021" transform="translate(129.725 162.838)" fill="none" stroke="#e71019" stroke-linecap="round" stroke-miterlimit="10" stroke-width="1"/>
    <line id="Line_285" data-name="Line 285" x1="2.78" y2="3.386" transform="translate(141.334 166.828)" fill="none" stroke="#e71019" stroke-linecap="round" stroke-miterlimit="10" stroke-width="1"/>
    <line id="Line_286" data-name="Line 286" x1="3.869" y2="4.835" transform="translate(141.696 168.4)" fill="none" stroke="#e71019" stroke-linecap="round" stroke-miterlimit="10" stroke-width="1"/>
    <line id="Line_287" data-name="Line 287" x1="4.594" y2="6.045" transform="translate(142.422 170.092)" fill="none" stroke="#e71019" stroke-linecap="round" stroke-miterlimit="10" stroke-width="1"/>
    <line id="Line_288" data-name="Line 288" x1="5.2" y2="6.649" transform="translate(143.146 172.269)" fill="none" stroke="#e71019" stroke-linecap="round" stroke-miterlimit="10" stroke-width="1"/>
    <line id="Line_289" data-name="Line 289" x1="1.816" y2="1.816" transform="translate(146.713 176.559)" fill="none" stroke="#e71019" stroke-linecap="round" stroke-miterlimit="10" stroke-width="1"/>
    <line id="Line_290" data-name="Line 290" x1="3.869" y2="3.507" transform="translate(144.356 180.248)" fill="none" stroke="#e71019" stroke-linecap="round" stroke-miterlimit="10" stroke-width="1"/>
    <path id="Path_960" data-name="Path 960" d="M45.663,43.241a65.911,65.911,0,0,1,6.367,6.78c4.47,5.367,10.264,12.358,6.089,19.49A10.837,10.837,0,0,1,54.943,73.1c-3.492,2.369-9.008,2.867-13.083,3.682q-7.769,1.549-15.667,2.348c-3.769.383-7.173.072-9.707-3.114a13.134,13.134,0,0,1-2.585-7.8c-.211-7.024,3.25-12.535,6.693-18.368a47.136,47.136,0,0,1,5.786-8.116c1.945-2.109,4.244-4.584,7.268-4.9a8.88,8.88,0,0,1,5.359,1.48A43.063,43.063,0,0,1,45.663,43.241Z" transform="translate(21.801 57.741)" fill="none" stroke="#e71019" stroke-miterlimit="10" stroke-width="1"/>
    <path id="Path_961" data-name="Path 961" d="M43.349,45.919a10.724,10.724,0,0,1-1.372,5.868A7.081,7.081,0,0,1,31.243,52.9c-1.773-1.829-2.387-4.476-2.711-7-.635-4.941-.211-10.339,4-13.64a5.557,5.557,0,0,1,3.111-1.328A5.054,5.054,0,0,1,39.7,33.109c2.538,3.34,3.6,8.576,3.653,12.672Z" transform="translate(44.403 48.532)" fill="none" stroke="#e71019" stroke-miterlimit="10" stroke-width="1"/>
    <path id="Path_962" data-name="Path 962" d="M35.275,31.383c1.655,4.093,2.613,12.535-1.133,15.914a5.713,5.713,0,0,1-3.021,1.274,8.858,8.858,0,0,1-6.793-1.611c-2.068-1.711-2.829-4.535-3.1-7.2a19.38,19.38,0,0,1,.668-7.947c.912-2.806,3.063-6.436,6.338-6.624,3.111-.18,5.48,2.847,6.677,5.37Q35.1,30.963,35.275,31.383Z" transform="translate(33.106 39.515)" fill="none" stroke="#e71019" stroke-miterlimit="10" stroke-width="1"/>
    <path id="Path_963" data-name="Path 963" d="M28.171,35.389a20.445,20.445,0,0,1-.424,7.957,9.839,9.839,0,0,1-2.03,4.211,6.647,6.647,0,0,1-5.688,2.1A6.878,6.878,0,0,1,15,46.244c-1.393-2.477-1.136-5.506-.948-8.34a21.064,21.064,0,0,1,1.03-6.408C16.116,28.876,19.5,26,22.5,27.221,25.946,28.616,27.621,31.853,28.171,35.389Z" transform="translate(21.809 42.264)" fill="none" stroke="#e71019" stroke-miterlimit="10" stroke-width="1"/>
    <path id="Path_964" data-name="Path 964" d="M21.887,53.209a4.781,4.781,0,0,1-1.3,2.114A6.348,6.348,0,0,1,16.92,56.8a7.605,7.605,0,0,1-4.319-.814,9.021,9.021,0,0,1-4.2-6.5c-.776-4.437-.141-10.269,2.762-13.876,1.164-1.449,3.1-2.644,4.82-1.95A5.007,5.007,0,0,1,18.1,35.689a25.187,25.187,0,0,1,3.869,9.984C22.287,47.731,22.655,50.865,21.887,53.209Z" transform="translate(12.713 52.505)" fill="none" stroke="#e71019" stroke-miterlimit="10" stroke-width="1"/>
    <line id="Line_291" data-name="Line 291" x1="3.628" y1="2.962" transform="translate(61.557 99.663)" fill="none" stroke="#e71019" stroke-linecap="round" stroke-miterlimit="10" stroke-width="1"/>
    <line id="Line_292" data-name="Line 292" x1="8.463" y1="7.98" transform="translate(54.485 95.673)" fill="none" stroke="#e71019" stroke-linecap="round" stroke-miterlimit="10" stroke-width="1"/>
    <line id="Line_293" data-name="Line 293" x1="8.342" y1="8.283" transform="translate(51.765 96.458)" fill="none" stroke="#e71019" stroke-linecap="round" stroke-miterlimit="10" stroke-width="1"/>
    <line id="Line_294" data-name="Line 294" x1="4.232" y1="4.655" transform="translate(53.457 102.322)" fill="none" stroke="#e71019" stroke-linecap="round" stroke-miterlimit="10" stroke-width="1"/>
    <line id="Line_295" data-name="Line 295" x1="2.359" y1="2.721" transform="translate(49.95 97.97)" fill="none" stroke="#e71019" stroke-linecap="round" stroke-miterlimit="10" stroke-width="1"/>
    <line id="Line_296" data-name="Line 296" x1="7.677" y1="8.887" transform="translate(48.138 100.448)" fill="none" stroke="#e71019" stroke-linecap="round" stroke-miterlimit="10" stroke-width="1"/>
    <line id="Line_297" data-name="Line 297" x1="5.562" y1="6.952" transform="translate(46.323 102.987)" fill="none" stroke="#e71019" stroke-linecap="round" stroke-miterlimit="10" stroke-width="1"/>
    <line id="Line_298" data-name="Line 298" x1="6.045" y1="7.859" transform="translate(44.268 105.708)" fill="none" stroke="#e71019" stroke-linecap="round" stroke-miterlimit="10" stroke-width="1"/>
    <line id="Line_299" data-name="Line 299" x2="9.552" y2="12.574" transform="translate(42.757 108.549)" fill="none" stroke="#e71019" stroke-linecap="round" stroke-miterlimit="10" stroke-width="1"/>
    <line id="Line_300" data-name="Line 300" x2="4.936" y2="6.577" transform="translate(41.608 111.209)" fill="none" stroke="#e71019" stroke-linecap="round" stroke-miterlimit="10" stroke-width="1"/>
    <line id="Line_301" data-name="Line 301" x2="6.166" y2="8.039" transform="translate(39.855 114.413)" fill="none" stroke="#e71019" stroke-linecap="round" stroke-miterlimit="10" stroke-width="1"/>
    <line id="Line_302" data-name="Line 302" x2="6.015" y2="8.373" transform="translate(38.586 117.375)" fill="none" stroke="#e71019" stroke-linecap="round" stroke-miterlimit="10" stroke-width="1"/>
    <line id="Line_303" data-name="Line 303" x2="7.826" y2="10.082" transform="translate(37.195 121.607)" fill="none" stroke="#e71019" stroke-linecap="round" stroke-miterlimit="10" stroke-width="1"/>
    <line id="Line_304" data-name="Line 304" x2="3.083" y2="3.445" transform="translate(78.122 81.104)" fill="none" stroke="#e71019" stroke-linecap="round" stroke-miterlimit="10" stroke-width="1"/>
    <line id="Line_305" data-name="Line 305" x2="5.442" y2="5.804" transform="translate(75.583 82.192)" fill="none" stroke="#e71019" stroke-linecap="round" stroke-miterlimit="10" stroke-width="1"/>
    <line id="Line_306" data-name="Line 306" x1="2.721" y1="2.721" transform="translate(75.945 86.181)" fill="none" stroke="#e71019" stroke-linecap="round" stroke-miterlimit="10" stroke-width="1"/>
    <line id="Line_307" data-name="Line 307" x1="5.622" y1="5.259" transform="translate(73.226 87.27)" fill="none" stroke="#e71019" stroke-linecap="round" stroke-miterlimit="10" stroke-width="1"/>
    <line id="Line_308" data-name="Line 308" x1="4.172" y1="3.628" transform="translate(73.949 91.259)" fill="none" stroke="#e71019" stroke-linecap="round" stroke-miterlimit="10" stroke-width="1"/>
    <line id="Line_309" data-name="Line 309" x2="2.857" y2="2.176" transform="translate(73.497 94.524)" fill="none" stroke="#e71019" stroke-linecap="round" stroke-miterlimit="10" stroke-width="1"/>
    <line id="Line_310" data-name="Line 310" x2="2.585" y2="4.306" transform="translate(60.802 64.691)" fill="none" stroke="#e71019" stroke-linecap="round" stroke-miterlimit="10" stroke-width="1"/>
    <line id="Line_311" data-name="Line 311" x2="3.628" y2="6.392" transform="translate(59.759 66.142)" fill="none" stroke="#e71019" stroke-linecap="round" stroke-miterlimit="10" stroke-width="1"/>
    <line id="Line_312" data-name="Line 312" x2="2.675" y2="3.854" transform="translate(57.81 68.454)" fill="none" stroke="#e71019" stroke-linecap="round" stroke-miterlimit="10" stroke-width="1"/>
    <line id="Line_313" data-name="Line 313" x2="1.179" y2="2.176" transform="translate(56.54 69.905)" fill="none" stroke="#e71019" stroke-linecap="round" stroke-miterlimit="10" stroke-width="1"/>
    <line id="Line_314" data-name="Line 314" x2="1.315" y2="1.814" transform="translate(58.943 73.396)" fill="none" stroke="#e71019" stroke-linecap="round" stroke-miterlimit="10" stroke-width="1"/>
    <line id="Line_315" data-name="Line 315" x2="4.08" y2="5.349" transform="translate(55.588 73.079)" fill="none" stroke="#e71019" stroke-linecap="round" stroke-miterlimit="10" stroke-width="1"/>
    <line id="Line_316" data-name="Line 316" x2="4.126" y2="4.172" transform="translate(55.77 77.93)" fill="none" stroke="#e71019" stroke-linecap="round" stroke-miterlimit="10" stroke-width="1"/>
    <line id="Line_317" data-name="Line 317" x2="3.021" y2="3.749" transform="translate(41.85 70.041)" fill="none" stroke="#e71019" stroke-linecap="round" stroke-miterlimit="10" stroke-width="1"/>
    <line id="Line_318" data-name="Line 318" x2="4.594" y2="6.287" transform="translate(40.279 70.887)" fill="none" stroke="#e71019" stroke-linecap="round" stroke-miterlimit="10" stroke-width="1"/>
    <line id="Line_319" data-name="Line 319" x2="4.111" y2="4.715" transform="translate(37.619 72.217)" fill="none" stroke="#e71019" stroke-linecap="round" stroke-miterlimit="10" stroke-width="1"/>
    <line id="Line_320" data-name="Line 320" x2="4.835" y2="5.077" transform="translate(37.377 76.57)" fill="none" stroke="#e71019" stroke-linecap="round" stroke-miterlimit="10" stroke-width="1"/>
    <line id="Line_321" data-name="Line 321" x2="3.266" y2="2.901" transform="translate(37.014 79.834)" fill="none" stroke="#e71019" stroke-linecap="round" stroke-miterlimit="10" stroke-width="1"/>
    <line id="Line_322" data-name="Line 322" x2="3.266" y2="3.021" transform="translate(36.893 83.22)" fill="none" stroke="#e71019" stroke-linecap="round" stroke-miterlimit="10" stroke-width="1"/>
    <line id="Line_323" data-name="Line 323" x2="2.78" y2="3.386" transform="translate(25.77 87.21)" fill="none" stroke="#e71019" stroke-linecap="round" stroke-miterlimit="10" stroke-width="1"/>
    <line id="Line_324" data-name="Line 324" x2="3.869" y2="4.835" transform="translate(24.319 88.781)" fill="none" stroke="#e71019" stroke-linecap="round" stroke-miterlimit="10" stroke-width="1"/>
    <line id="Line_325" data-name="Line 325" x2="4.594" y2="6.045" transform="translate(22.868 90.474)" fill="none" stroke="#e71019" stroke-linecap="round" stroke-miterlimit="10" stroke-width="1"/>
    <line id="Line_326" data-name="Line 326" x2="5.2" y2="6.649" transform="translate(21.538 92.65)" fill="none" stroke="#e71019" stroke-linecap="round" stroke-miterlimit="10" stroke-width="1"/>
    <line id="Line_327" data-name="Line 327" x2="1.816" y2="1.816" transform="translate(21.355 96.94)" fill="none" stroke="#e71019" stroke-linecap="round" stroke-miterlimit="10" stroke-width="1"/>
    <line id="Line_328" data-name="Line 328" x2="3.869" y2="3.507" transform="translate(21.659 100.63)" fill="none" stroke="#e71019" stroke-linecap="round" stroke-miterlimit="10" stroke-width="1"/>
    <path id="Path_965" data-name="Path 965" d="M38.062,99.2a65.909,65.909,0,0,1,6.367,6.78c4.47,5.367,10.264,12.358,6.089,19.49a10.837,10.837,0,0,1-3.176,3.584c-3.492,2.369-9.008,2.867-13.083,3.682q-7.769,1.549-15.667,2.348c-3.769.383-7.173.072-9.707-3.114a13.134,13.134,0,0,1-2.585-7.8c-.211-7.024,3.25-12.535,6.693-18.367a47.136,47.136,0,0,1,5.786-8.116c1.945-2.109,4.244-4.584,7.268-4.9a8.88,8.88,0,0,1,5.359,1.48A43.065,43.065,0,0,1,38.062,99.2Z" transform="translate(9.873 145.549)" fill="none" stroke="#e71019" stroke-miterlimit="10" stroke-width="1"/>
    <path id="Path_966" data-name="Path 966" d="M35.748,101.875a10.724,10.724,0,0,1-1.372,5.868,7.081,7.081,0,0,1-10.734,1.115c-1.773-1.829-2.387-4.476-2.711-7-.635-4.941-.211-10.339,4-13.64a5.557,5.557,0,0,1,3.111-1.328,5.054,5.054,0,0,1,4.049,2.179c2.538,3.34,3.6,8.576,3.653,12.671Z" transform="translate(32.475 136.34)" fill="none" stroke="#e71019" stroke-miterlimit="10" stroke-width="1"/>
    <path id="Path_967" data-name="Path 967" d="M27.675,87.339c1.652,4.093,2.613,12.535-1.133,15.914a5.721,5.721,0,0,1-3.024,1.274,8.852,8.852,0,0,1-6.791-1.611c-2.068-1.711-2.829-4.535-3.1-7.2a19.292,19.292,0,0,1,.668-7.947c.91-2.806,3.063-6.436,6.338-6.624,3.111-.18,5.478,2.847,6.675,5.37C27.441,86.784,27.559,87.059,27.675,87.339Z" transform="translate(21.177 127.324)" fill="none" stroke="#e71019" stroke-miterlimit="10" stroke-width="1"/>
    <path id="Path_968" data-name="Path 968" d="M20.57,91.345a20.445,20.445,0,0,1-.424,7.957,9.839,9.839,0,0,1-2.03,4.211,6.647,6.647,0,0,1-5.688,2.1A6.878,6.878,0,0,1,7.394,102.2C6,99.723,6.259,96.694,6.446,93.86a21.064,21.064,0,0,1,1.03-6.408c1.038-2.621,4.419-5.493,7.425-4.275C18.345,84.572,20.02,87.809,20.57,91.345Z" transform="translate(9.881 130.073)" fill="none" stroke="#e71019" stroke-miterlimit="10" stroke-width="1"/>
    <path id="Path_969" data-name="Path 969" d="M14.284,109.165a4.758,4.758,0,0,1-1.3,2.115,6.348,6.348,0,0,1-3.666,1.48A7.605,7.605,0,0,1,5,111.945a9.036,9.036,0,0,1-4.2-6.5C.03,101.007.662,95.175,3.568,91.568c1.161-1.449,3.093-2.644,4.817-1.95A5.028,5.028,0,0,1,10.5,91.645a25.264,25.264,0,0,1,3.869,9.984C14.687,103.687,15.052,106.821,14.284,109.165Z" transform="translate(0.785 140.314)" fill="none" stroke="#e71019" stroke-miterlimit="10" stroke-width="1"/>
    <line id="Line_329" data-name="Line 329" x1="3.628" y1="2.962" transform="translate(42.028 243.427)" fill="none" stroke="#e71019" stroke-linecap="round" stroke-miterlimit="10" stroke-width="1"/>
    <line id="Line_330" data-name="Line 330" x1="8.463" y1="7.98" transform="translate(34.956 239.437)" fill="none" stroke="#e71019" stroke-linecap="round" stroke-miterlimit="10" stroke-width="1"/>
    <line id="Line_331" data-name="Line 331" x1="8.342" y1="8.283" transform="translate(32.236 240.222)" fill="none" stroke="#e71019" stroke-linecap="round" stroke-miterlimit="10" stroke-width="1"/>
    <line id="Line_332" data-name="Line 332" x1="4.232" y1="4.655" transform="translate(33.928 246.087)" fill="none" stroke="#e71019" stroke-linecap="round" stroke-miterlimit="10" stroke-width="1"/>
    <line id="Line_333" data-name="Line 333" x1="2.359" y1="2.721" transform="translate(30.421 241.734)" fill="none" stroke="#e71019" stroke-linecap="round" stroke-miterlimit="10" stroke-width="1"/>
    <line id="Line_334" data-name="Line 334" x1="7.677" y1="8.887" transform="translate(28.609 244.213)" fill="none" stroke="#e71019" stroke-linecap="round" stroke-miterlimit="10" stroke-width="1"/>
    <line id="Line_335" data-name="Line 335" x1="5.562" y1="6.952" transform="translate(26.794 246.752)" fill="none" stroke="#e71019" stroke-linecap="round" stroke-miterlimit="10" stroke-width="1"/>
    <line id="Line_336" data-name="Line 336" x1="6.045" y1="7.859" transform="translate(24.739 249.472)" fill="none" stroke="#e71019" stroke-linecap="round" stroke-miterlimit="10" stroke-width="1"/>
    <line id="Line_337" data-name="Line 337" x2="9.552" y2="12.574" transform="translate(23.228 252.314)" fill="none" stroke="#e71019" stroke-linecap="round" stroke-miterlimit="10" stroke-width="1"/>
    <line id="Line_338" data-name="Line 338" x2="4.936" y2="6.577" transform="translate(22.079 254.974)" fill="none" stroke="#e71019" stroke-linecap="round" stroke-miterlimit="10" stroke-width="1"/>
    <line id="Line_339" data-name="Line 339" x2="6.166" y2="8.039" transform="translate(20.326 258.178)" fill="none" stroke="#e71019" stroke-linecap="round" stroke-miterlimit="10" stroke-width="1"/>
    <line id="Line_340" data-name="Line 340" x2="6.015" y2="8.373" transform="translate(19.057 261.14)" fill="none" stroke="#e71019" stroke-linecap="round" stroke-miterlimit="10" stroke-width="1"/>
    <line id="Line_341" data-name="Line 341" x2="7.826" y2="10.082" transform="translate(17.666 265.372)" fill="none" stroke="#e71019" stroke-linecap="round" stroke-miterlimit="10" stroke-width="1"/>
    <line id="Line_342" data-name="Line 342" x2="3.083" y2="3.445" transform="translate(58.593 224.868)" fill="none" stroke="#e71019" stroke-linecap="round" stroke-miterlimit="10" stroke-width="1"/>
    <line id="Line_343" data-name="Line 343" x2="5.442" y2="5.804" transform="translate(56.054 225.956)" fill="none" stroke="#e71019" stroke-linecap="round" stroke-miterlimit="10" stroke-width="1"/>
    <line id="Line_344" data-name="Line 344" x1="2.721" y1="2.721" transform="translate(56.416 229.946)" fill="none" stroke="#e71019" stroke-linecap="round" stroke-miterlimit="10" stroke-width="1"/>
    <line id="Line_345" data-name="Line 345" x1="5.622" y1="5.259" transform="translate(53.697 231.035)" fill="none" stroke="#e71019" stroke-linecap="round" stroke-miterlimit="10" stroke-width="1"/>
    <line id="Line_346" data-name="Line 346" x1="4.172" y1="3.628" transform="translate(54.42 235.024)" fill="none" stroke="#e71019" stroke-linecap="round" stroke-miterlimit="10" stroke-width="1"/>
    <line id="Line_347" data-name="Line 347" x2="2.857" y2="2.176" transform="translate(53.968 238.289)" fill="none" stroke="#e71019" stroke-linecap="round" stroke-miterlimit="10" stroke-width="1"/>
    <line id="Line_348" data-name="Line 348" x2="2.585" y2="4.306" transform="translate(41.273 208.455)" fill="none" stroke="#e71019" stroke-linecap="round" stroke-miterlimit="10" stroke-width="1"/>
    <line id="Line_349" data-name="Line 349" x2="3.628" y2="6.392" transform="translate(40.23 209.906)" fill="none" stroke="#e71019" stroke-linecap="round" stroke-miterlimit="10" stroke-width="1"/>
    <line id="Line_350" data-name="Line 350" x2="2.675" y2="3.854" transform="translate(38.28 212.219)" fill="none" stroke="#e71019" stroke-linecap="round" stroke-miterlimit="10" stroke-width="1"/>
    <line id="Line_351" data-name="Line 351" x2="1.179" y2="2.176" transform="translate(37.011 213.669)" fill="none" stroke="#e71019" stroke-linecap="round" stroke-miterlimit="10" stroke-width="1"/>
    <line id="Line_352" data-name="Line 352" x2="1.315" y2="1.814" transform="translate(39.414 217.161)" fill="none" stroke="#e71019" stroke-linecap="round" stroke-miterlimit="10" stroke-width="1"/>
    <line id="Line_353" data-name="Line 353" x2="4.08" y2="5.349" transform="translate(36.059 216.843)" fill="none" stroke="#e71019" stroke-linecap="round" stroke-miterlimit="10" stroke-width="1"/>
    <line id="Line_354" data-name="Line 354" x2="4.126" y2="4.172" transform="translate(36.24 221.695)" fill="none" stroke="#e71019" stroke-linecap="round" stroke-miterlimit="10" stroke-width="1"/>
    <line id="Line_355" data-name="Line 355" x2="3.021" y2="3.749" transform="translate(22.321 213.805)" fill="none" stroke="#e71019" stroke-linecap="round" stroke-miterlimit="10" stroke-width="1"/>
    <line id="Line_356" data-name="Line 356" x2="4.594" y2="6.287" transform="translate(20.749 214.652)" fill="none" stroke="#e71019" stroke-linecap="round" stroke-miterlimit="10" stroke-width="1"/>
    <line id="Line_357" data-name="Line 357" x2="4.111" y2="4.715" transform="translate(18.089 215.982)" fill="none" stroke="#e71019" stroke-linecap="round" stroke-miterlimit="10" stroke-width="1"/>
    <line id="Line_358" data-name="Line 358" x2="4.835" y2="5.077" transform="translate(17.847 220.334)" fill="none" stroke="#e71019" stroke-linecap="round" stroke-miterlimit="10" stroke-width="1"/>
    <line id="Line_359" data-name="Line 359" x2="3.266" y2="2.901" transform="translate(17.485 223.599)" fill="none" stroke="#e71019" stroke-linecap="round" stroke-miterlimit="10" stroke-width="1"/>
    <line id="Line_360" data-name="Line 360" x2="3.266" y2="3.021" transform="translate(17.364 226.984)" fill="none" stroke="#e71019" stroke-linecap="round" stroke-miterlimit="10" stroke-width="1"/>
    <line id="Line_361" data-name="Line 361" x2="2.78" y2="3.386" transform="translate(6.241 230.974)" fill="none" stroke="#e71019" stroke-linecap="round" stroke-miterlimit="10" stroke-width="1"/>
    <line id="Line_362" data-name="Line 362" x2="3.869" y2="4.835" transform="translate(4.79 232.546)" fill="none" stroke="#e71019" stroke-linecap="round" stroke-miterlimit="10" stroke-width="1"/>
    <line id="Line_363" data-name="Line 363" x2="4.594" y2="6.045" transform="translate(3.339 234.239)" fill="none" stroke="#e71019" stroke-linecap="round" stroke-miterlimit="10" stroke-width="1"/>
    <line id="Line_364" data-name="Line 364" x2="5.2" y2="6.649" transform="translate(2.009 236.415)" fill="none" stroke="#e71019" stroke-linecap="round" stroke-miterlimit="10" stroke-width="1"/>
    <line id="Line_365" data-name="Line 365" x2="1.816" y2="1.816" transform="translate(1.825 240.705)" fill="none" stroke="#e71019" stroke-linecap="round" stroke-miterlimit="10" stroke-width="1"/>
    <line id="Line_366" data-name="Line 366" x2="3.869" y2="3.507" transform="translate(2.13 244.395)" fill="none" stroke="#e71019" stroke-linecap="round" stroke-miterlimit="10" stroke-width="1"/>
  </g>
</svg>
